<svg width="1512" height="789" viewBox="0 0 1512 789" fill="none" xmlns="http://www.w3.org/2000/svg">
<rect x="49" y="190.242" width="12" height="235" rx="6" fill="url(#paint0_linear_3711_49845)"/>
<rect x="31" y="311.242" width="48" height="94" rx="24" fill="url(#paint1_linear_3711_49845)"/>
<rect width="12" height="235" rx="6" transform="matrix(1 0 0 -1 637 614.242)" fill="url(#paint2_linear_3711_49845)"/>
<rect width="48" height="94" rx="24" transform="matrix(1 0 0 -1 619 493.242)" fill="url(#paint3_linear_3711_49845)"/>
<rect width="12" height="235" rx="6" transform="matrix(1 0 0 -1 931 557.242)" fill="url(#paint4_linear_3711_49845)"/>
<rect width="48" height="104" rx="24" transform="matrix(1 0 0 -1 913 481.242)" fill="url(#paint5_linear_3711_49845)"/>
<rect x="147" y="72.2422" width="12" height="235" rx="6" fill="url(#paint6_linear_3711_49845)"/>
<rect x="129" y="185.242" width="48" height="122" rx="24" fill="url(#paint7_linear_3711_49845)"/>
<rect x="1127" y="209.242" width="12" height="479" rx="6" fill="url(#paint8_linear_3711_49845)"/>
<rect x="1109" y="322.242" width="48" height="199" rx="24" fill="url(#paint9_linear_3711_49845)"/>
<rect x="245" y="204.242" width="12" height="235" rx="6" fill="url(#paint10_linear_3711_49845)"/>
<rect x="227" y="317.242" width="48" height="122" rx="24" fill="url(#paint11_linear_3711_49845)"/>
<rect x="735" y="472.242" width="12" height="235" rx="6" fill="url(#paint12_linear_3711_49845)"/>
<rect x="717" y="585.242" width="48" height="122" rx="24" fill="url(#paint13_linear_3711_49845)"/>
<rect x="343" y="196.242" width="12" height="235" rx="6" fill="url(#paint14_linear_3711_49845)"/>
<rect x="325" y="309.242" width="48" height="122" rx="24" fill="url(#paint15_linear_3711_49845)"/>
<rect x="833" y="464.242" width="12" height="235" rx="6" fill="url(#paint16_linear_3711_49845)"/>
<rect x="815" y="577.242" width="48" height="122" rx="24" fill="url(#paint17_linear_3711_49845)"/>
<rect x="1421" y="228.242" width="12" height="235" rx="6" fill="url(#paint18_linear_3711_49845)"/>
<rect x="1403" y="341.242" width="48" height="122" rx="24" fill="url(#paint19_linear_3711_49845)"/>
<rect width="12" height="257" rx="6" transform="matrix(1 0 0 -1 1225 570.242)" fill="url(#paint20_linear_3711_49845)"/>
<rect width="48" height="133" rx="24" transform="matrix(1 0 0 -1 1207 446.242)" fill="url(#paint21_linear_3711_49845)"/>
<rect width="12" height="245" rx="6" transform="matrix(1 0 0 -1 1323 317.242)" fill="url(#paint22_linear_3711_49845)"/>
<rect width="48" height="133" rx="24" transform="matrix(1 0 0 -1 1305 205.242)" fill="url(#paint23_linear_3711_49845)"/>
<rect width="12" height="245" rx="6" transform="matrix(1 0 0 -1 1029 652.242)" fill="url(#paint24_linear_3711_49845)"/>
<rect width="48" height="133" rx="24" transform="matrix(1 0 0 -1 1011 603.242)" fill="url(#paint25_linear_3711_49845)"/>
<rect x="441" y="223.242" width="12" height="188" rx="6" fill="url(#paint26_linear_3711_49845)"/>
<rect x="423" y="257.242" width="48" height="122" rx="24" fill="url(#paint27_linear_3711_49845)"/>
<rect x="539" y="412.242" width="12" height="162" rx="6" fill="url(#paint28_linear_3711_49845)"/>
<rect x="521" y="412.242" width="48" height="40" rx="20" fill="url(#paint29_linear_3711_49845)"/>
<rect opacity="0.72" x="1" y="0.242188" width="1510" height="788" fill="black"/>
<rect opacity="0.72" x="1" y="0.242188" width="1510" height="777" fill="black"/>
<g opacity="0.04">
<line x1="3.01953" y1="5.50781" x2="3.01956" y2="552.508" stroke="url(#paint30_linear_3711_49845)"/>
<line x1="43.0195" y1="5.50781" x2="43.0196" y2="552.508" stroke="url(#paint31_linear_3711_49845)"/>
<line x1="83.0195" y1="5.50781" x2="83.0196" y2="552.508" stroke="url(#paint32_linear_3711_49845)"/>
<line x1="123.02" y1="5.50781" x2="123.02" y2="552.508" stroke="url(#paint33_linear_3711_49845)"/>
<line x1="163.02" y1="5.50781" x2="163.02" y2="552.508" stroke="url(#paint34_linear_3711_49845)"/>
<line x1="203.02" y1="5.50781" x2="203.02" y2="552.508" stroke="url(#paint35_linear_3711_49845)"/>
<line x1="243.02" y1="5.50781" x2="243.02" y2="552.508" stroke="url(#paint36_linear_3711_49845)"/>
<line x1="283.02" y1="5.50781" x2="283.02" y2="552.508" stroke="url(#paint37_linear_3711_49845)"/>
<line x1="323.02" y1="5.50781" x2="323.02" y2="552.508" stroke="url(#paint38_linear_3711_49845)"/>
<line x1="363.02" y1="5.50781" x2="363.02" y2="552.508" stroke="url(#paint39_linear_3711_49845)"/>
<line x1="403.02" y1="5.50781" x2="403.02" y2="552.508" stroke="url(#paint40_linear_3711_49845)"/>
<line x1="443.02" y1="5.50781" x2="443.02" y2="552.508" stroke="url(#paint41_linear_3711_49845)"/>
<line x1="483.02" y1="5.50781" x2="483.02" y2="552.508" stroke="url(#paint42_linear_3711_49845)"/>
<line x1="523.02" y1="5.50781" x2="523.02" y2="552.508" stroke="url(#paint43_linear_3711_49845)"/>
<line x1="563.02" y1="5.50781" x2="563.02" y2="552.508" stroke="url(#paint44_linear_3711_49845)"/>
<line x1="603.02" y1="5.50781" x2="603.02" y2="552.508" stroke="url(#paint45_linear_3711_49845)"/>
<line x1="643.02" y1="5.50781" x2="643.02" y2="552.508" stroke="url(#paint46_linear_3711_49845)"/>
<line x1="683.02" y1="5.50781" x2="683.02" y2="552.508" stroke="url(#paint47_linear_3711_49845)"/>
<line x1="723.02" y1="5.50781" x2="723.02" y2="552.508" stroke="url(#paint48_linear_3711_49845)"/>
<line x1="763.02" y1="5.50781" x2="763.02" y2="552.508" stroke="url(#paint49_linear_3711_49845)"/>
<line x1="803.02" y1="5.50781" x2="803.02" y2="552.508" stroke="url(#paint50_linear_3711_49845)"/>
<line x1="843.02" y1="5.50781" x2="843.02" y2="552.508" stroke="url(#paint51_linear_3711_49845)"/>
<line x1="883.02" y1="5.50781" x2="883.02" y2="552.508" stroke="url(#paint52_linear_3711_49845)"/>
<line x1="923.02" y1="5.50781" x2="923.02" y2="552.508" stroke="url(#paint53_linear_3711_49845)"/>
<line x1="963.02" y1="5.50781" x2="963.02" y2="552.508" stroke="url(#paint54_linear_3711_49845)"/>
<line x1="1003.02" y1="5.50781" x2="1003.02" y2="552.508" stroke="url(#paint55_linear_3711_49845)"/>
<line x1="1043.02" y1="5.50781" x2="1043.02" y2="552.508" stroke="url(#paint56_linear_3711_49845)"/>
<line x1="1083.02" y1="5.50781" x2="1083.02" y2="552.508" stroke="url(#paint57_linear_3711_49845)"/>
<line x1="1123.02" y1="5.50781" x2="1123.02" y2="552.508" stroke="url(#paint58_linear_3711_49845)"/>
<line x1="1163.02" y1="5.50781" x2="1163.02" y2="552.508" stroke="url(#paint59_linear_3711_49845)"/>
<line x1="-201.48" y1="39.0078" x2="1203.52" y2="39.0079" stroke="url(#paint60_linear_3711_49845)"/>
<line x1="-201.48" y1="71.0078" x2="1203.52" y2="71.0079" stroke="url(#paint61_linear_3711_49845)"/>
<line x1="-201.48" y1="103.008" x2="1203.52" y2="103.008" stroke="url(#paint62_linear_3711_49845)"/>
<line x1="-201.48" y1="135.008" x2="1203.52" y2="135.008" stroke="url(#paint63_linear_3711_49845)"/>
<line x1="-201.48" y1="167.008" x2="1203.52" y2="167.008" stroke="url(#paint64_linear_3711_49845)"/>
<line x1="-201.48" y1="199.008" x2="1203.52" y2="199.008" stroke="url(#paint65_linear_3711_49845)"/>
<line x1="-201.48" y1="231.008" x2="1203.52" y2="231.008" stroke="url(#paint66_linear_3711_49845)"/>
<line x1="-201.48" y1="263.008" x2="1203.52" y2="263.008" stroke="url(#paint67_linear_3711_49845)"/>
<line x1="-201.48" y1="295.008" x2="1203.52" y2="295.008" stroke="url(#paint68_linear_3711_49845)"/>
<line x1="-201.48" y1="327.008" x2="1203.52" y2="327.008" stroke="url(#paint69_linear_3711_49845)"/>
<line x1="-201.48" y1="359.008" x2="1203.52" y2="359.008" stroke="url(#paint70_linear_3711_49845)"/>
<line x1="-201.48" y1="391.008" x2="1203.52" y2="391.008" stroke="url(#paint71_linear_3711_49845)"/>
<line x1="-201.48" y1="423.008" x2="1203.52" y2="423.008" stroke="url(#paint72_linear_3711_49845)"/>
<line x1="-201.48" y1="455.008" x2="1203.52" y2="455.008" stroke="url(#paint73_linear_3711_49845)"/>
<line x1="-201.48" y1="487.008" x2="1203.52" y2="487.008" stroke="url(#paint74_linear_3711_49845)"/>
<line x1="-201.48" y1="519.008" x2="1203.52" y2="519.008" stroke="url(#paint75_linear_3711_49845)"/>
</g>
<defs>
<linearGradient id="paint0_linear_3711_49845" x1="49.3415" y1="310.608" x2="61" y2="310.608" gradientUnits="userSpaceOnUse">
<stop stop-color="#2286DE"/>
<stop offset="1" stop-color="#3AAF75"/>
</linearGradient>
<linearGradient id="paint1_linear_3711_49845" x1="32.3659" y1="359.389" x2="79" y2="359.389" gradientUnits="userSpaceOnUse">
<stop stop-color="#2286DE"/>
<stop offset="1" stop-color="#3AAF75"/>
</linearGradient>
<linearGradient id="paint2_linear_3711_49845" x1="0.341463" y1="120.366" x2="12" y2="120.366" gradientUnits="userSpaceOnUse">
<stop stop-color="#2286DE"/>
<stop offset="1" stop-color="#3AAF75"/>
</linearGradient>
<linearGradient id="paint3_linear_3711_49845" x1="1.36585" y1="48.1464" x2="48" y2="48.1464" gradientUnits="userSpaceOnUse">
<stop stop-color="#2286DE"/>
<stop offset="1" stop-color="#3AAF75"/>
</linearGradient>
<linearGradient id="paint4_linear_3711_49845" x1="0.341463" y1="120.366" x2="12" y2="120.366" gradientUnits="userSpaceOnUse">
<stop stop-color="#2286DE"/>
<stop offset="1" stop-color="#3AAF75"/>
</linearGradient>
<linearGradient id="paint5_linear_3711_49845" x1="1.36585" y1="53.2683" x2="48" y2="53.2683" gradientUnits="userSpaceOnUse">
<stop stop-color="#2286DE"/>
<stop offset="1" stop-color="#3AAF75"/>
</linearGradient>
<linearGradient id="paint6_linear_3711_49845" x1="147.341" y1="192.608" x2="159" y2="192.608" gradientUnits="userSpaceOnUse">
<stop stop-color="#2286DE"/>
<stop offset="1" stop-color="#3AAF75"/>
</linearGradient>
<linearGradient id="paint7_linear_3711_49845" x1="130.366" y1="247.73" x2="177" y2="247.73" gradientUnits="userSpaceOnUse">
<stop stop-color="#2286DE"/>
<stop offset="1" stop-color="#3AAF75"/>
</linearGradient>
<linearGradient id="paint8_linear_3711_49845" x1="1127.34" y1="454.584" x2="1139" y2="454.584" gradientUnits="userSpaceOnUse">
<stop stop-color="#2286DE"/>
<stop offset="1" stop-color="#3AAF75"/>
</linearGradient>
<linearGradient id="paint9_linear_3711_49845" x1="1110.37" y1="424.169" x2="1157" y2="424.169" gradientUnits="userSpaceOnUse">
<stop stop-color="#2286DE"/>
<stop offset="1" stop-color="#3AAF75"/>
</linearGradient>
<linearGradient id="paint10_linear_3711_49845" x1="245.341" y1="324.608" x2="257" y2="324.608" gradientUnits="userSpaceOnUse">
<stop stop-color="#2286DE"/>
<stop offset="1" stop-color="#3AAF75"/>
</linearGradient>
<linearGradient id="paint11_linear_3711_49845" x1="228.366" y1="379.73" x2="275" y2="379.73" gradientUnits="userSpaceOnUse">
<stop stop-color="#2286DE"/>
<stop offset="1" stop-color="#3AAF75"/>
</linearGradient>
<linearGradient id="paint12_linear_3711_49845" x1="735.341" y1="592.608" x2="747" y2="592.608" gradientUnits="userSpaceOnUse">
<stop stop-color="#2286DE"/>
<stop offset="1" stop-color="#3AAF75"/>
</linearGradient>
<linearGradient id="paint13_linear_3711_49845" x1="718.366" y1="647.73" x2="765" y2="647.73" gradientUnits="userSpaceOnUse">
<stop stop-color="#2286DE"/>
<stop offset="1" stop-color="#3AAF75"/>
</linearGradient>
<linearGradient id="paint14_linear_3711_49845" x1="343.341" y1="316.608" x2="355" y2="316.608" gradientUnits="userSpaceOnUse">
<stop stop-color="#2286DE"/>
<stop offset="1" stop-color="#3AAF75"/>
</linearGradient>
<linearGradient id="paint15_linear_3711_49845" x1="326.366" y1="371.73" x2="373" y2="371.73" gradientUnits="userSpaceOnUse">
<stop stop-color="#2286DE"/>
<stop offset="1" stop-color="#3AAF75"/>
</linearGradient>
<linearGradient id="paint16_linear_3711_49845" x1="833.341" y1="584.608" x2="845" y2="584.608" gradientUnits="userSpaceOnUse">
<stop stop-color="#2286DE"/>
<stop offset="1" stop-color="#3AAF75"/>
</linearGradient>
<linearGradient id="paint17_linear_3711_49845" x1="816.366" y1="639.73" x2="863" y2="639.73" gradientUnits="userSpaceOnUse">
<stop stop-color="#2286DE"/>
<stop offset="1" stop-color="#3AAF75"/>
</linearGradient>
<linearGradient id="paint18_linear_3711_49845" x1="1421.34" y1="348.608" x2="1433" y2="348.608" gradientUnits="userSpaceOnUse">
<stop stop-color="#2286DE"/>
<stop offset="1" stop-color="#3AAF75"/>
</linearGradient>
<linearGradient id="paint19_linear_3711_49845" x1="1404.37" y1="403.73" x2="1451" y2="403.73" gradientUnits="userSpaceOnUse">
<stop stop-color="#2286DE"/>
<stop offset="1" stop-color="#3AAF75"/>
</linearGradient>
<linearGradient id="paint20_linear_3711_49845" x1="0.341463" y1="131.634" x2="12" y2="131.634" gradientUnits="userSpaceOnUse">
<stop stop-color="#2286DE"/>
<stop offset="1" stop-color="#3AAF75"/>
</linearGradient>
<linearGradient id="paint21_linear_3711_49845" x1="1.36585" y1="68.122" x2="48" y2="68.122" gradientUnits="userSpaceOnUse">
<stop stop-color="#2286DE"/>
<stop offset="1" stop-color="#3AAF75"/>
</linearGradient>
<linearGradient id="paint22_linear_3711_49845" x1="0.341463" y1="125.488" x2="12" y2="125.488" gradientUnits="userSpaceOnUse">
<stop stop-color="#2286DE"/>
<stop offset="1" stop-color="#3AAF75"/>
</linearGradient>
<linearGradient id="paint23_linear_3711_49845" x1="1.36585" y1="68.122" x2="48" y2="68.122" gradientUnits="userSpaceOnUse">
<stop stop-color="#2286DE"/>
<stop offset="1" stop-color="#3AAF75"/>
</linearGradient>
<linearGradient id="paint24_linear_3711_49845" x1="0.341463" y1="125.488" x2="12" y2="125.488" gradientUnits="userSpaceOnUse">
<stop stop-color="#2286DE"/>
<stop offset="1" stop-color="#3AAF75"/>
</linearGradient>
<linearGradient id="paint25_linear_3711_49845" x1="1.36585" y1="68.122" x2="48" y2="68.122" gradientUnits="userSpaceOnUse">
<stop stop-color="#2286DE"/>
<stop offset="1" stop-color="#3AAF75"/>
</linearGradient>
<linearGradient id="paint26_linear_3711_49845" x1="441.341" y1="319.535" x2="453" y2="319.535" gradientUnits="userSpaceOnUse">
<stop stop-color="#2286DE"/>
<stop offset="1" stop-color="#3AAF75"/>
</linearGradient>
<linearGradient id="paint27_linear_3711_49845" x1="424.366" y1="319.73" x2="471" y2="319.73" gradientUnits="userSpaceOnUse">
<stop stop-color="#2286DE"/>
<stop offset="1" stop-color="#3AAF75"/>
</linearGradient>
<linearGradient id="paint28_linear_3711_49845" x1="539.341" y1="495.218" x2="551" y2="495.218" gradientUnits="userSpaceOnUse">
<stop stop-color="#2286DE"/>
<stop offset="1" stop-color="#3AAF75"/>
</linearGradient>
<linearGradient id="paint29_linear_3711_49845" x1="522.366" y1="432.73" x2="569" y2="432.73" gradientUnits="userSpaceOnUse">
<stop stop-color="#2286DE"/>
<stop offset="1" stop-color="#3AAF75"/>
</linearGradient>
<linearGradient id="paint30_linear_3711_49845" x1="2.00734" y1="21.0729" x2="2.00781" y2="552.508" gradientUnits="userSpaceOnUse">
<stop stop-color="#2286DE"/>
<stop offset="1" stop-color="#3AAF75"/>
</linearGradient>
<linearGradient id="paint31_linear_3711_49845" x1="42.0073" y1="21.0729" x2="42.0078" y2="552.508" gradientUnits="userSpaceOnUse">
<stop stop-color="#2286DE"/>
<stop offset="1" stop-color="#3AAF75"/>
</linearGradient>
<linearGradient id="paint32_linear_3711_49845" x1="82.0073" y1="21.0729" x2="82.0078" y2="552.508" gradientUnits="userSpaceOnUse">
<stop stop-color="#2286DE"/>
<stop offset="1" stop-color="#3AAF75"/>
</linearGradient>
<linearGradient id="paint33_linear_3711_49845" x1="122.007" y1="21.0729" x2="122.008" y2="552.508" gradientUnits="userSpaceOnUse">
<stop stop-color="#2286DE"/>
<stop offset="1" stop-color="#3AAF75"/>
</linearGradient>
<linearGradient id="paint34_linear_3711_49845" x1="162.007" y1="21.0729" x2="162.008" y2="552.508" gradientUnits="userSpaceOnUse">
<stop stop-color="#2286DE"/>
<stop offset="1" stop-color="#3AAF75"/>
</linearGradient>
<linearGradient id="paint35_linear_3711_49845" x1="202.007" y1="21.0729" x2="202.008" y2="552.508" gradientUnits="userSpaceOnUse">
<stop stop-color="#2286DE"/>
<stop offset="1" stop-color="#3AAF75"/>
</linearGradient>
<linearGradient id="paint36_linear_3711_49845" x1="242.007" y1="21.0729" x2="242.008" y2="552.508" gradientUnits="userSpaceOnUse">
<stop stop-color="#2286DE"/>
<stop offset="1" stop-color="#3AAF75"/>
</linearGradient>
<linearGradient id="paint37_linear_3711_49845" x1="282.007" y1="21.0729" x2="282.008" y2="552.508" gradientUnits="userSpaceOnUse">
<stop stop-color="#2286DE"/>
<stop offset="1" stop-color="#3AAF75"/>
</linearGradient>
<linearGradient id="paint38_linear_3711_49845" x1="322.007" y1="21.0729" x2="322.008" y2="552.508" gradientUnits="userSpaceOnUse">
<stop stop-color="#2286DE"/>
<stop offset="1" stop-color="#3AAF75"/>
</linearGradient>
<linearGradient id="paint39_linear_3711_49845" x1="362.007" y1="21.0729" x2="362.008" y2="552.508" gradientUnits="userSpaceOnUse">
<stop stop-color="#2286DE"/>
<stop offset="1" stop-color="#3AAF75"/>
</linearGradient>
<linearGradient id="paint40_linear_3711_49845" x1="402.007" y1="21.0729" x2="402.008" y2="552.508" gradientUnits="userSpaceOnUse">
<stop stop-color="#2286DE"/>
<stop offset="1" stop-color="#3AAF75"/>
</linearGradient>
<linearGradient id="paint41_linear_3711_49845" x1="442.007" y1="21.0729" x2="442.008" y2="552.508" gradientUnits="userSpaceOnUse">
<stop stop-color="#2286DE"/>
<stop offset="1" stop-color="#3AAF75"/>
</linearGradient>
<linearGradient id="paint42_linear_3711_49845" x1="482.007" y1="21.0729" x2="482.008" y2="552.508" gradientUnits="userSpaceOnUse">
<stop stop-color="#2286DE"/>
<stop offset="1" stop-color="#3AAF75"/>
</linearGradient>
<linearGradient id="paint43_linear_3711_49845" x1="522.007" y1="21.0729" x2="522.008" y2="552.508" gradientUnits="userSpaceOnUse">
<stop stop-color="#2286DE"/>
<stop offset="1" stop-color="#3AAF75"/>
</linearGradient>
<linearGradient id="paint44_linear_3711_49845" x1="562.007" y1="21.0729" x2="562.008" y2="552.508" gradientUnits="userSpaceOnUse">
<stop stop-color="#2286DE"/>
<stop offset="1" stop-color="#3AAF75"/>
</linearGradient>
<linearGradient id="paint45_linear_3711_49845" x1="602.007" y1="21.0729" x2="602.008" y2="552.508" gradientUnits="userSpaceOnUse">
<stop stop-color="#2286DE"/>
<stop offset="1" stop-color="#3AAF75"/>
</linearGradient>
<linearGradient id="paint46_linear_3711_49845" x1="642.007" y1="21.0729" x2="642.008" y2="552.508" gradientUnits="userSpaceOnUse">
<stop stop-color="#2286DE"/>
<stop offset="1" stop-color="#3AAF75"/>
</linearGradient>
<linearGradient id="paint47_linear_3711_49845" x1="682.007" y1="21.0729" x2="682.008" y2="552.508" gradientUnits="userSpaceOnUse">
<stop stop-color="#2286DE"/>
<stop offset="1" stop-color="#3AAF75"/>
</linearGradient>
<linearGradient id="paint48_linear_3711_49845" x1="722.007" y1="21.0729" x2="722.008" y2="552.508" gradientUnits="userSpaceOnUse">
<stop stop-color="#2286DE"/>
<stop offset="1" stop-color="#3AAF75"/>
</linearGradient>
<linearGradient id="paint49_linear_3711_49845" x1="762.007" y1="21.0729" x2="762.008" y2="552.508" gradientUnits="userSpaceOnUse">
<stop stop-color="#2286DE"/>
<stop offset="1" stop-color="#3AAF75"/>
</linearGradient>
<linearGradient id="paint50_linear_3711_49845" x1="802.007" y1="21.0729" x2="802.008" y2="552.508" gradientUnits="userSpaceOnUse">
<stop stop-color="#2286DE"/>
<stop offset="1" stop-color="#3AAF75"/>
</linearGradient>
<linearGradient id="paint51_linear_3711_49845" x1="842.007" y1="21.0729" x2="842.008" y2="552.508" gradientUnits="userSpaceOnUse">
<stop stop-color="#2286DE"/>
<stop offset="1" stop-color="#3AAF75"/>
</linearGradient>
<linearGradient id="paint52_linear_3711_49845" x1="882.007" y1="21.0729" x2="882.008" y2="552.508" gradientUnits="userSpaceOnUse">
<stop stop-color="#2286DE"/>
<stop offset="1" stop-color="#3AAF75"/>
</linearGradient>
<linearGradient id="paint53_linear_3711_49845" x1="922.007" y1="21.0729" x2="922.008" y2="552.508" gradientUnits="userSpaceOnUse">
<stop stop-color="#2286DE"/>
<stop offset="1" stop-color="#3AAF75"/>
</linearGradient>
<linearGradient id="paint54_linear_3711_49845" x1="962.007" y1="21.0729" x2="962.008" y2="552.508" gradientUnits="userSpaceOnUse">
<stop stop-color="#2286DE"/>
<stop offset="1" stop-color="#3AAF75"/>
</linearGradient>
<linearGradient id="paint55_linear_3711_49845" x1="1002.01" y1="21.0729" x2="1002.01" y2="552.508" gradientUnits="userSpaceOnUse">
<stop stop-color="#2286DE"/>
<stop offset="1" stop-color="#3AAF75"/>
</linearGradient>
<linearGradient id="paint56_linear_3711_49845" x1="1042.01" y1="21.0729" x2="1042.01" y2="552.508" gradientUnits="userSpaceOnUse">
<stop stop-color="#2286DE"/>
<stop offset="1" stop-color="#3AAF75"/>
</linearGradient>
<linearGradient id="paint57_linear_3711_49845" x1="1082.01" y1="21.0729" x2="1082.01" y2="552.508" gradientUnits="userSpaceOnUse">
<stop stop-color="#2286DE"/>
<stop offset="1" stop-color="#3AAF75"/>
</linearGradient>
<linearGradient id="paint58_linear_3711_49845" x1="1122.01" y1="21.0729" x2="1122.01" y2="552.508" gradientUnits="userSpaceOnUse">
<stop stop-color="#2286DE"/>
<stop offset="1" stop-color="#3AAF75"/>
</linearGradient>
<linearGradient id="paint59_linear_3711_49845" x1="1162.01" y1="21.0729" x2="1162.01" y2="552.508" gradientUnits="userSpaceOnUse">
<stop stop-color="#2286DE"/>
<stop offset="1" stop-color="#3AAF75"/>
</linearGradient>
<linearGradient id="paint60_linear_3711_49845" x1="-161.501" y1="40.02" x2="1203.52" y2="40.0171" gradientUnits="userSpaceOnUse">
<stop stop-color="#2286DE"/>
<stop offset="1" stop-color="#3AAF75"/>
</linearGradient>
<linearGradient id="paint61_linear_3711_49845" x1="-161.501" y1="72.02" x2="1203.52" y2="72.0171" gradientUnits="userSpaceOnUse">
<stop stop-color="#2286DE"/>
<stop offset="1" stop-color="#3AAF75"/>
</linearGradient>
<linearGradient id="paint62_linear_3711_49845" x1="-161.501" y1="104.02" x2="1203.52" y2="104.017" gradientUnits="userSpaceOnUse">
<stop stop-color="#2286DE"/>
<stop offset="1" stop-color="#3AAF75"/>
</linearGradient>
<linearGradient id="paint63_linear_3711_49845" x1="-161.501" y1="136.02" x2="1203.52" y2="136.017" gradientUnits="userSpaceOnUse">
<stop stop-color="#2286DE"/>
<stop offset="1" stop-color="#3AAF75"/>
</linearGradient>
<linearGradient id="paint64_linear_3711_49845" x1="-161.501" y1="168.02" x2="1203.52" y2="168.017" gradientUnits="userSpaceOnUse">
<stop stop-color="#2286DE"/>
<stop offset="1" stop-color="#3AAF75"/>
</linearGradient>
<linearGradient id="paint65_linear_3711_49845" x1="-161.501" y1="200.02" x2="1203.52" y2="200.017" gradientUnits="userSpaceOnUse">
<stop stop-color="#2286DE"/>
<stop offset="1" stop-color="#3AAF75"/>
</linearGradient>
<linearGradient id="paint66_linear_3711_49845" x1="-161.501" y1="232.02" x2="1203.52" y2="232.017" gradientUnits="userSpaceOnUse">
<stop stop-color="#2286DE"/>
<stop offset="1" stop-color="#3AAF75"/>
</linearGradient>
<linearGradient id="paint67_linear_3711_49845" x1="-161.501" y1="264.02" x2="1203.52" y2="264.017" gradientUnits="userSpaceOnUse">
<stop stop-color="#2286DE"/>
<stop offset="1" stop-color="#3AAF75"/>
</linearGradient>
<linearGradient id="paint68_linear_3711_49845" x1="-161.501" y1="296.02" x2="1203.52" y2="296.017" gradientUnits="userSpaceOnUse">
<stop stop-color="#2286DE"/>
<stop offset="1" stop-color="#3AAF75"/>
</linearGradient>
<linearGradient id="paint69_linear_3711_49845" x1="-161.501" y1="328.02" x2="1203.52" y2="328.017" gradientUnits="userSpaceOnUse">
<stop stop-color="#2286DE"/>
<stop offset="1" stop-color="#3AAF75"/>
</linearGradient>
<linearGradient id="paint70_linear_3711_49845" x1="-161.501" y1="360.02" x2="1203.52" y2="360.017" gradientUnits="userSpaceOnUse">
<stop stop-color="#2286DE"/>
<stop offset="1" stop-color="#3AAF75"/>
</linearGradient>
<linearGradient id="paint71_linear_3711_49845" x1="-161.501" y1="392.02" x2="1203.52" y2="392.017" gradientUnits="userSpaceOnUse">
<stop stop-color="#2286DE"/>
<stop offset="1" stop-color="#3AAF75"/>
</linearGradient>
<linearGradient id="paint72_linear_3711_49845" x1="-161.501" y1="424.02" x2="1203.52" y2="424.017" gradientUnits="userSpaceOnUse">
<stop stop-color="#2286DE"/>
<stop offset="1" stop-color="#3AAF75"/>
</linearGradient>
<linearGradient id="paint73_linear_3711_49845" x1="-161.501" y1="456.02" x2="1203.52" y2="456.017" gradientUnits="userSpaceOnUse">
<stop stop-color="#2286DE"/>
<stop offset="1" stop-color="#3AAF75"/>
</linearGradient>
<linearGradient id="paint74_linear_3711_49845" x1="-161.501" y1="488.02" x2="1203.52" y2="488.017" gradientUnits="userSpaceOnUse">
<stop stop-color="#2286DE"/>
<stop offset="1" stop-color="#3AAF75"/>
</linearGradient>
<linearGradient id="paint75_linear_3711_49845" x1="-161.501" y1="520.02" x2="1203.52" y2="520.017" gradientUnits="userSpaceOnUse">
<stop stop-color="#2286DE"/>
<stop offset="1" stop-color="#3AAF75"/>
</linearGradient>
</defs>
</svg>
