<svg width="139" height="38" viewBox="0 0 139 38" fill="none" xmlns="http://www.w3.org/2000/svg">
<rect x="0.213649" y="1.06912" width="137.632" height="36.5752" rx="3.36714" fill="black"/>
<rect x="0.213649" y="1.06912" width="137.632" height="36.5752" rx="3.36714" stroke="#3BAFDA" stroke-width="0.427299"/>
<path d="M35.7043 8.12395C34.8137 8.35876 34.0383 8.80181 33.3737 9.45753C32.7047 10.1177 32.3015 10.7778 32.0445 11.6373C31.947 11.9696 31.9293 12.1203 31.9204 12.6475L31.916 13.2678L32.0932 13.2811C32.3768 13.3076 33.0414 13.2013 33.4047 13.0728C33.9541 12.8779 34.344 12.6165 34.8846 12.0715C35.9657 10.9905 36.4221 9.99362 36.4885 8.58029L36.5151 8.01761H36.298C36.1784 8.02205 35.9125 8.06635 35.7043 8.12395Z" fill="white"/>
<path d="M35.459 13.5152C34.9096 13.5905 34.1519 13.8209 32.9113 14.2905C32.4416 14.4677 32.3087 14.4988 32.0473 14.4988C31.7194 14.4943 31.6929 14.4855 30.3415 13.9804C29.4686 13.6525 28.9635 13.5462 28.2812 13.5418C27.9666 13.5418 27.5856 13.5639 27.4394 13.5949C24.9183 14.1355 23.1593 16.1646 22.7428 19.0134C22.6675 19.5584 22.6542 20.8166 22.7207 21.4236C23.0219 24.0908 24.01 26.5497 25.6361 28.6675C26.376 29.6289 26.9919 30.196 27.6387 30.4973C27.9932 30.6657 28.0419 30.6789 28.5027 30.6967C29.0787 30.7144 29.3756 30.6479 30.4744 30.2403C31.4093 29.8947 31.8612 29.8061 32.5125 29.8327C33.1018 29.8593 33.443 29.9435 34.2893 30.2669C35.0425 30.5549 35.4324 30.6524 35.9419 30.6878C36.6154 30.7321 37.2002 30.5549 37.7629 30.134C38.5959 29.5049 39.8941 27.7105 40.6207 26.1687C40.891 25.5972 41.1967 24.8174 41.1967 24.7066C41.1967 24.6668 41.0771 24.5781 40.922 24.4984C39.8941 23.98 38.9814 23.0363 38.587 22.0882C38.5073 21.8977 38.3877 21.5477 38.3256 21.3173C38.2237 20.9274 38.2149 20.8122 38.2104 20.0059C38.2104 19.1862 38.2193 19.0888 38.3256 18.6944C38.4541 18.2204 38.6668 17.7463 38.9371 17.3387C39.1852 16.9621 39.8188 16.3285 40.2574 16.0228L40.6207 15.7659L40.479 15.5621C39.6504 14.3481 38.0243 13.5462 36.2786 13.493C35.9729 13.4842 35.6052 13.493 35.459 13.5152Z" fill="white"/>
<path d="M47.9414 14.0156H46.8783L46.8853 13.4666H47.9414C48.3051 13.4666 48.6081 13.3909 48.8506 13.2393C49.093 13.0855 49.2749 12.871 49.3961 12.5959C49.5196 12.3185 49.5814 11.9944 49.5814 11.6238V11.3125C49.5814 11.0211 49.5465 10.7624 49.4765 10.5362C49.4066 10.3078 49.304 10.1155 49.1688 9.95926C49.0336 9.80073 48.8681 9.68067 48.6722 9.59908C48.4787 9.51749 48.2561 9.47669 48.0043 9.47669H46.8574V8.92418H48.0043C48.3377 8.92418 48.6419 8.98013 48.917 9.09203C49.1921 9.2016 49.4287 9.36129 49.6269 9.57111C49.8274 9.77859 49.9812 10.0304 50.0885 10.3264C50.1957 10.6202 50.2493 10.9512 50.2493 11.3195V11.6238C50.2493 11.9921 50.1957 12.3243 50.0885 12.6204C49.9812 12.9141 49.8262 13.1647 49.6234 13.3722C49.4229 13.5797 49.1805 13.7394 48.896 13.8513C48.614 13.9608 48.2957 14.0156 47.9414 14.0156ZM47.2385 8.92418V14.0156H46.5636V8.92418H47.2385ZM50.9942 12.1658V12.0854C50.9942 11.8126 51.0338 11.5597 51.1131 11.3265C51.1923 11.0911 51.3065 10.8871 51.4557 10.7146C51.6049 10.5397 51.7856 10.4045 51.9978 10.3089C52.2099 10.211 52.4477 10.1621 52.7111 10.1621C52.9769 10.1621 53.2158 10.211 53.428 10.3089C53.6425 10.4045 53.8243 10.5397 53.9735 10.7146C54.125 10.8871 54.2404 11.0911 54.3197 11.3265C54.3989 11.5597 54.4386 11.8126 54.4386 12.0854V12.1658C54.4386 12.4385 54.3989 12.6915 54.3197 12.9246C54.2404 13.1577 54.125 13.3617 53.9735 13.5366C53.8243 13.7091 53.6436 13.8443 53.4315 13.9422C53.2217 14.0378 52.9839 14.0856 52.7181 14.0856C52.4524 14.0856 52.2134 14.0378 52.0013 13.9422C51.7891 13.8443 51.6073 13.7091 51.4557 13.5366C51.3065 13.3617 51.1923 13.1577 51.1131 12.9246C51.0338 12.6915 50.9942 12.4385 50.9942 12.1658ZM51.6411 12.0854V12.1658C51.6411 12.3546 51.6632 12.533 51.7075 12.7008C51.7518 12.8663 51.8183 13.0132 51.9068 13.1414C51.9978 13.2696 52.1108 13.371 52.246 13.4456C52.3813 13.5179 52.5386 13.554 52.7181 13.554C52.8953 13.554 53.0503 13.5179 53.1832 13.4456C53.3184 13.371 53.4303 13.2696 53.5189 13.1414C53.6075 13.0132 53.6739 12.8663 53.7182 12.7008C53.7648 12.533 53.7882 12.3546 53.7882 12.1658V12.0854C53.7882 11.8989 53.7648 11.7228 53.7182 11.5573C53.6739 11.3895 53.6063 11.2414 53.5154 11.1132C53.4268 10.9827 53.3149 10.8801 53.1797 10.8055C53.0468 10.7309 52.8906 10.6936 52.7111 10.6936C52.5339 10.6936 52.3778 10.7309 52.2425 10.8055C52.1097 10.8801 51.9978 10.9827 51.9068 11.1132C51.8183 11.2414 51.7518 11.3895 51.7075 11.5573C51.6632 11.7228 51.6411 11.8989 51.6411 12.0854ZM56.208 13.3442L57.1801 10.232H57.6067L57.5228 10.851L56.5332 14.0156H56.1171L56.208 13.3442ZM55.5541 10.232L56.3828 13.3792L56.4423 14.0156H56.0052L54.9072 10.232H55.5541ZM58.5369 13.3547L59.3272 10.232H59.9706L58.8726 14.0156H58.439L58.5369 13.3547ZM57.7012 10.232L58.6523 13.2918L58.7607 14.0156H58.3481L57.3305 10.844L57.2466 10.232H57.7012ZM61.2819 11.0398V14.0156H60.635V10.232H61.247L61.2819 11.0398ZM61.1281 11.9804L60.8588 11.97C60.8612 11.7112 60.8996 11.4722 60.9742 11.2531C61.0488 11.0316 61.1537 10.8393 61.2889 10.6761C61.4242 10.5129 61.585 10.387 61.7715 10.2985C61.9603 10.2075 62.169 10.1621 62.3974 10.1621C62.5839 10.1621 62.7518 10.1877 62.901 10.239C63.0502 10.288 63.1772 10.3672 63.2822 10.4768C63.3894 10.5864 63.471 10.7286 63.5269 10.9034C63.5829 11.0759 63.6109 11.2869 63.6109 11.5363V14.0156H62.9604V11.5294C62.9604 11.3312 62.9313 11.1727 62.873 11.0538C62.8147 10.9326 62.7297 10.8451 62.6178 10.7915C62.5059 10.7356 62.3683 10.7076 62.2051 10.7076C62.0443 10.7076 61.8974 10.7414 61.7645 10.809C61.634 10.8766 61.5209 10.9699 61.4253 11.0887C61.3321 11.2076 61.2586 11.344 61.205 11.4979C61.1537 11.6494 61.1281 11.8103 61.1281 11.9804ZM65.2964 8.64443V14.0156H64.6459V8.64443H65.2964ZM66.1636 12.1658V12.0854C66.1636 11.8126 66.2032 11.5597 66.2825 11.3265C66.3617 11.0911 66.476 10.8871 66.6252 10.7146C66.7744 10.5397 66.955 10.4045 67.1672 10.3089C67.3793 10.211 67.6171 10.1621 67.8805 10.1621C68.1463 10.1621 68.3853 10.211 68.5974 10.3089C68.8119 10.4045 68.9937 10.5397 69.1429 10.7146C69.2944 10.8871 69.4098 11.0911 69.4891 11.3265C69.5684 11.5597 69.608 11.8126 69.608 12.0854V12.1658C69.608 12.4385 69.5684 12.6915 69.4891 12.9246C69.4098 13.1577 69.2944 13.3617 69.1429 13.5366C68.9937 13.7091 68.813 13.8443 68.6009 13.9422C68.3911 14.0378 68.1533 14.0856 67.8875 14.0856C67.6218 14.0856 67.3828 14.0378 67.1707 13.9422C66.9585 13.8443 66.7767 13.7091 66.6252 13.5366C66.476 13.3617 66.3617 13.1577 66.2825 12.9246C66.2032 12.6915 66.1636 12.4385 66.1636 12.1658ZM66.8105 12.0854V12.1658C66.8105 12.3546 66.8326 12.533 66.8769 12.7008C66.9212 12.8663 66.9877 13.0132 67.0763 13.1414C67.1672 13.2696 67.2802 13.371 67.4155 13.4456C67.5507 13.5179 67.708 13.554 67.8875 13.554C68.0647 13.554 68.2197 13.5179 68.3526 13.4456C68.4878 13.371 68.5997 13.2696 68.6883 13.1414C68.7769 13.0132 68.8433 12.8663 68.8876 12.7008C68.9343 12.533 68.9576 12.3546 68.9576 12.1658V12.0854C68.9576 11.8989 68.9343 11.7228 68.8876 11.5573C68.8433 11.3895 68.7757 11.2414 68.6848 11.1132C68.5962 10.9827 68.4843 10.8801 68.3491 10.8055C68.2162 10.7309 68.06 10.6936 67.8805 10.6936C67.7034 10.6936 67.5472 10.7309 67.412 10.8055C67.2791 10.8801 67.1672 10.9827 67.0763 11.1132C66.9877 11.2414 66.9212 11.3895 66.8769 11.5573C66.8326 11.7228 66.8105 11.8989 66.8105 12.0854ZM72.6503 13.3687V11.4209C72.6503 11.2717 72.62 11.1424 72.5593 11.0328C72.5011 10.9209 72.4125 10.8346 72.2936 10.774C72.1747 10.7134 72.0278 10.6831 71.853 10.6831C71.6898 10.6831 71.5464 10.7111 71.4229 10.767C71.3016 10.823 71.2061 10.8964 71.1361 10.9873C71.0685 11.0783 71.0347 11.1762 71.0347 11.2811H70.3878C70.3878 11.1459 70.4228 11.0118 70.4927 10.8789C70.5626 10.7461 70.6629 10.626 70.7934 10.5188C70.9263 10.4092 71.0848 10.3229 71.269 10.26C71.4555 10.1947 71.663 10.1621 71.8914 10.1621C72.1665 10.1621 72.409 10.2087 72.6188 10.302C72.8309 10.3952 72.9965 10.5362 73.1154 10.7251C73.2366 10.9116 73.2972 11.1459 73.2972 11.4279V13.1904C73.2972 13.3163 73.3077 13.4503 73.3287 13.5925C73.352 13.7347 73.3858 13.8571 73.4301 13.9597V14.0156H72.7552C72.7225 13.941 72.6969 13.8419 72.6782 13.7184C72.6596 13.5925 72.6503 13.4759 72.6503 13.3687ZM72.7622 11.7217L72.7692 12.1763H72.1152C71.9311 12.1763 71.7667 12.1914 71.6222 12.2217C71.4777 12.2497 71.3564 12.2928 71.2585 12.3511C71.1606 12.4094 71.086 12.4828 71.0347 12.5714C70.9834 12.6577 70.9578 12.7591 70.9578 12.8756C70.9578 12.9945 70.9846 13.1029 71.0382 13.2009C71.0918 13.2988 71.1723 13.3769 71.2795 13.4351C71.3891 13.4911 71.5231 13.5191 71.6816 13.5191C71.8798 13.5191 72.0546 13.4771 72.2062 13.3932C72.3577 13.3093 72.4778 13.2067 72.5663 13.0855C72.6573 12.9642 72.7062 12.8465 72.7132 12.7323L72.9895 13.0435C72.9731 13.1414 72.9289 13.2498 72.8566 13.3687C72.7843 13.4876 72.6876 13.6018 72.5663 13.7114C72.4474 13.8186 72.3052 13.9084 72.1397 13.9807C71.9765 14.0506 71.7924 14.0856 71.5872 14.0856C71.3308 14.0856 71.1058 14.0354 70.9123 13.9352C70.7212 13.835 70.572 13.7009 70.4647 13.5331C70.3598 13.3629 70.3074 13.1729 70.3074 12.9631C70.3074 12.7602 70.347 12.5819 70.4263 12.428C70.5055 12.2719 70.6198 12.1425 70.769 12.0399C70.9182 11.935 71.0977 11.8557 71.3075 11.8021C71.5173 11.7485 71.7516 11.7217 72.0103 11.7217H72.7622ZM76.6996 13.2813V8.64443H77.3501V14.0156H76.7556L76.6996 13.2813ZM74.1539 12.1658V12.0923C74.1539 11.8033 74.1889 11.541 74.2588 11.3056C74.3311 11.0678 74.4325 10.8638 74.5631 10.6936C74.6959 10.5234 74.8533 10.3929 75.0351 10.302C75.2193 10.2087 75.4244 10.1621 75.6506 10.1621C75.8884 10.1621 76.0958 10.204 76.273 10.288C76.4525 10.3696 76.6041 10.4896 76.7276 10.6481C76.8535 10.8043 76.9526 10.9932 77.0248 11.2146C77.0971 11.4361 77.1472 11.6867 77.1752 11.9665V12.2882C77.1496 12.5656 77.0994 12.815 77.0248 13.0365C76.9526 13.258 76.8535 13.4468 76.7276 13.603C76.6041 13.7592 76.4525 13.8792 76.273 13.9632C76.0935 14.0448 75.8837 14.0856 75.6436 14.0856C75.4221 14.0856 75.2193 14.0378 75.0351 13.9422C74.8533 13.8466 74.6959 13.7126 74.5631 13.5401C74.4325 13.3675 74.3311 13.1647 74.2588 12.9316C74.1889 12.6961 74.1539 12.4409 74.1539 12.1658ZM74.8043 12.0923V12.1658C74.8043 12.3546 74.823 12.5318 74.8603 12.6973C74.8999 12.8628 74.9605 13.0085 75.0421 13.1344C75.1237 13.2603 75.2275 13.3594 75.3533 13.4316C75.4792 13.5016 75.6296 13.5366 75.8044 13.5366C76.0189 13.5366 76.1949 13.4911 76.3325 13.4002C76.4723 13.3093 76.5842 13.1892 76.6682 13.04C76.7521 12.8908 76.8174 12.7288 76.864 12.5539V11.7112C76.836 11.583 76.7952 11.4594 76.7416 11.3405C76.6903 11.2193 76.6227 11.1121 76.5388 11.0188C76.4572 10.9232 76.3558 10.8475 76.2346 10.7915C76.1157 10.7356 75.9746 10.7076 75.8114 10.7076C75.6343 10.7076 75.4816 10.7449 75.3533 10.8195C75.2275 10.8918 75.1237 10.992 75.0421 11.1202C74.9605 11.2461 74.8999 11.393 74.8603 11.5608C74.823 11.7263 74.8043 11.9035 74.8043 12.0923ZM85.9279 11.309V11.6308C85.9279 12.0131 85.8801 12.3558 85.7845 12.6588C85.6889 12.9619 85.5514 13.2195 85.3719 13.4316C85.1924 13.6438 84.9767 13.8058 84.725 13.9177C84.4755 14.0296 84.1958 14.0856 83.8857 14.0856C83.585 14.0856 83.3087 14.0296 83.0569 13.9177C82.8075 13.8058 82.5907 13.6438 82.4065 13.4316C82.2247 13.2195 82.0837 12.9619 81.9834 12.6588C81.8832 12.3558 81.833 12.0131 81.833 11.6308V11.309C81.833 10.9267 81.882 10.5852 81.9799 10.2845C82.0802 9.9814 82.2212 9.7238 82.403 9.51166C82.5849 9.29718 82.8005 9.134 83.05 9.0221C83.3017 8.9102 83.578 8.85425 83.8787 8.85425C84.1888 8.85425 84.4685 8.9102 84.718 9.0221C84.9697 9.134 85.1854 9.29718 85.3649 9.51166C85.5467 9.7238 85.6854 9.9814 85.781 10.2845C85.8789 10.5852 85.9279 10.9267 85.9279 11.309ZM85.26 11.6308V11.3021C85.26 10.999 85.2285 10.7309 85.1656 10.4978C85.1049 10.2647 85.0152 10.0688 84.8963 9.9103C84.7774 9.75178 84.6317 9.63172 84.4592 9.55012C84.289 9.46853 84.0955 9.42773 83.8787 9.42773C83.6689 9.42773 83.4789 9.46853 83.3087 9.55012C83.1409 9.63172 82.9963 9.75178 82.8751 9.9103C82.7562 10.0688 82.6641 10.2647 82.5989 10.4978C82.5336 10.7309 82.5009 10.999 82.5009 11.3021V11.6308C82.5009 11.9362 82.5336 12.2066 82.5989 12.442C82.6641 12.6752 82.7574 12.8721 82.8786 13.033C83.0022 13.1915 83.1479 13.3116 83.3157 13.3932C83.4859 13.4748 83.6759 13.5156 83.8857 13.5156C84.1048 13.5156 84.2995 13.4748 84.4697 13.3932C84.6399 13.3116 84.7832 13.1915 84.8998 13.033C85.0187 12.8721 85.1084 12.6752 85.1691 12.442C85.2297 12.2066 85.26 11.9362 85.26 11.6308ZM87.4875 11.0398V14.0156H86.8406V10.232H87.4525L87.4875 11.0398ZM87.3336 11.9804L87.0644 11.97C87.0667 11.7112 87.1052 11.4722 87.1798 11.2531C87.2544 11.0316 87.3593 10.8393 87.4945 10.6761C87.6297 10.5129 87.7905 10.387 87.977 10.2985C88.1659 10.2075 88.3745 10.1621 88.603 10.1621C88.7895 10.1621 88.9573 10.1877 89.1065 10.239C89.2557 10.288 89.3828 10.3672 89.4877 10.4768C89.5949 10.5864 89.6765 10.7286 89.7325 10.9034C89.7884 11.0759 89.8164 11.2869 89.8164 11.5363V14.0156H89.166V11.5294C89.166 11.3312 89.1368 11.1727 89.0786 11.0538C89.0203 10.9326 88.9352 10.8451 88.8233 10.7915C88.7114 10.7356 88.5738 10.7076 88.4107 10.7076C88.2498 10.7076 88.1029 10.7414 87.97 10.809C87.8395 10.8766 87.7264 10.9699 87.6309 11.0887C87.5376 11.2076 87.4642 11.344 87.4105 11.4979C87.3593 11.6494 87.3336 11.8103 87.3336 11.9804ZM94.4148 8.92418V14.0156H93.7504V8.92418H94.4148ZM96.0513 8.92418V9.47669H92.1173V8.92418H96.0513ZM97.3556 8.64443V14.0156H96.7087V8.64443H97.3556ZM97.2018 11.9804L96.9325 11.97C96.9349 11.7112 96.9733 11.4722 97.0479 11.2531C97.1225 11.0316 97.2274 10.8393 97.3626 10.6761C97.4978 10.5129 97.6587 10.387 97.8452 10.2985C98.034 10.2075 98.2427 10.1621 98.4711 10.1621C98.6576 10.1621 98.8255 10.1877 98.9747 10.239C99.1239 10.288 99.2509 10.3672 99.3559 10.4768C99.4631 10.5864 99.5447 10.7286 99.6006 10.9034C99.6566 11.0759 99.6846 11.2869 99.6846 11.5363V14.0156H99.0341V11.5294C99.0341 11.3312 99.005 11.1727 98.9467 11.0538C98.8884 10.9326 98.8033 10.8451 98.6914 10.7915C98.5795 10.7356 98.442 10.7076 98.2788 10.7076C98.118 10.7076 97.9711 10.7414 97.8382 10.809C97.7077 10.8766 97.5946 10.9699 97.499 11.0887C97.4058 11.2076 97.3323 11.344 97.2787 11.4979C97.2274 11.6494 97.2018 11.8103 97.2018 11.9804ZM102.223 14.0856C101.96 14.0856 101.721 14.0413 101.506 13.9527C101.294 13.8618 101.111 13.7347 100.957 13.5715C100.806 13.4083 100.689 13.2148 100.608 12.991C100.526 12.7672 100.485 12.5225 100.485 12.2567V12.1098C100.485 11.8021 100.531 11.5282 100.622 11.2881C100.713 11.0456 100.836 10.8405 100.992 10.6726C101.149 10.5048 101.326 10.3777 101.524 10.2915C101.722 10.2052 101.927 10.1621 102.139 10.1621C102.41 10.1621 102.643 10.2087 102.839 10.302C103.037 10.3952 103.199 10.5258 103.325 10.6936C103.451 10.8591 103.544 11.0549 103.605 11.2811C103.665 11.5049 103.695 11.7497 103.695 12.0154V12.3057H100.87V11.7776H103.049V11.7287C103.039 11.5608 103.004 11.3976 102.944 11.2391C102.885 11.0806 102.792 10.95 102.664 10.8475C102.536 10.7449 102.361 10.6936 102.139 10.6936C101.992 10.6936 101.857 10.7251 101.734 10.788C101.61 10.8486 101.504 10.9395 101.416 11.0608C101.327 11.182 101.258 11.33 101.209 11.5049C101.16 11.6797 101.136 11.8814 101.136 12.1098V12.2567C101.136 12.4362 101.16 12.6052 101.209 12.7637C101.26 12.9199 101.334 13.0575 101.429 13.1764C101.527 13.2953 101.645 13.3885 101.783 13.4561C101.923 13.5237 102.081 13.5575 102.258 13.5575C102.487 13.5575 102.68 13.5109 102.839 13.4177C102.997 13.3244 103.136 13.1997 103.255 13.0435L103.647 13.3547C103.565 13.4783 103.461 13.596 103.335 13.7079C103.209 13.8198 103.054 13.9107 102.87 13.9807C102.688 14.0506 102.473 14.0856 102.223 14.0856Z" fill="white"/>
<path d="M50.099 19.6684L47.2898 27.4023H46.1417L49.3763 18.9166H50.1164L50.099 19.6684ZM52.4535 27.4023L49.6385 19.6684L49.6211 18.9166H50.3612L53.6075 27.4023H52.4535ZM52.3078 24.261V25.1818H47.5404V24.261H52.3078ZM55.659 22.3086V29.8268H54.575V21.0963H55.5657L55.659 22.3086ZM59.9077 24.1969V24.3193C59.9077 24.7777 59.8533 25.2032 59.7445 25.5956C59.6357 25.9842 59.4764 26.3222 59.2666 26.6097C59.0607 26.8972 58.8062 27.1207 58.5031 27.28C58.2 27.4393 57.8523 27.5189 57.4599 27.5189C57.0597 27.5189 56.7061 27.4529 56.3992 27.3208C56.0922 27.1886 55.8319 26.9963 55.6182 26.7438C55.4045 26.4912 55.2335 26.1882 55.1053 25.8346C54.981 25.481 54.8955 25.0828 54.8489 24.6398V23.9871C54.8955 23.5208 54.9829 23.1031 55.1111 22.734C55.2394 22.3649 55.4084 22.0502 55.6182 21.7899C55.8319 21.5257 56.0903 21.3256 56.3933 21.1896C56.6964 21.0497 57.0461 20.9798 57.4424 20.9798C57.8387 20.9798 58.1903 21.0575 58.4973 21.2129C58.8042 21.3644 59.0626 21.582 59.2724 21.8656C59.4822 22.1493 59.6396 22.4892 59.7445 22.8856C59.8533 23.278 59.9077 23.7151 59.9077 24.1969ZM58.8236 24.3193V24.1969C58.8236 23.8822 58.7906 23.5869 58.7246 23.311C58.6585 23.0313 58.5556 22.7865 58.4157 22.5767C58.2797 22.363 58.1048 22.1959 57.8912 22.0754C57.6775 21.9511 57.423 21.8889 57.1277 21.8889C56.8557 21.8889 56.6187 21.9356 56.4166 22.0288C56.2185 22.1221 56.0495 22.2483 55.9096 22.4076C55.7697 22.5631 55.6551 22.7418 55.5657 22.9438C55.4803 23.142 55.4161 23.3479 55.3734 23.5616V25.0711C55.4511 25.3431 55.5599 25.5995 55.6998 25.8404C55.8397 26.0774 56.0262 26.2697 56.2593 26.4174C56.4924 26.5612 56.7858 26.633 57.1393 26.633C57.4307 26.633 57.6813 26.5728 57.8912 26.4524C58.1048 26.328 58.2797 26.159 58.4157 25.9453C58.5556 25.7316 58.6585 25.4868 58.7246 25.211C58.7906 24.9312 58.8236 24.634 58.8236 24.3193ZM62.3613 22.3086V29.8268H61.2773V21.0963H62.2681L62.3613 22.3086ZM66.61 24.1969V24.3193C66.61 24.7777 66.5556 25.2032 66.4468 25.5956C66.338 25.9842 66.1787 26.3222 65.9689 26.6097C65.763 26.8972 65.5085 27.1207 65.2054 27.28C64.9024 27.4393 64.5546 27.5189 64.1622 27.5189C63.762 27.5189 63.4084 27.4529 63.1015 27.3208C62.7945 27.1886 62.5342 26.9963 62.3205 26.7438C62.1068 26.4912 61.9359 26.1882 61.8076 25.8346C61.6833 25.481 61.5978 25.0828 61.5512 24.6398V23.9871C61.5978 23.5208 61.6853 23.1031 61.8135 22.734C61.9417 22.3649 62.1107 22.0502 62.3205 21.7899C62.5342 21.5257 62.7926 21.3256 63.0957 21.1896C63.3987 21.0497 63.7484 20.9798 64.1447 20.9798C64.541 20.9798 64.8927 21.0575 65.1996 21.2129C65.5066 21.3644 65.7649 21.582 65.9747 21.8656C66.1846 22.1493 66.3419 22.4892 66.4468 22.8856C66.5556 23.278 66.61 23.7151 66.61 24.1969ZM65.526 24.3193V24.1969C65.526 23.8822 65.493 23.5869 65.4269 23.311C65.3609 23.0313 65.2579 22.7865 65.118 22.5767C64.982 22.363 64.8072 22.1959 64.5935 22.0754C64.3798 21.9511 64.1253 21.8889 63.83 21.8889C63.558 21.8889 63.321 21.9356 63.119 22.0288C62.9208 22.1221 62.7518 22.2483 62.6119 22.4076C62.472 22.5631 62.3574 22.7418 62.2681 22.9438C62.1826 23.142 62.1185 23.3479 62.0757 23.5616V25.0711C62.1534 25.3431 62.2622 25.5995 62.4021 25.8404C62.542 26.0774 62.7285 26.2697 62.9616 26.4174C63.1947 26.5612 63.4881 26.633 63.8417 26.633C64.1331 26.633 64.3837 26.5728 64.5935 26.4524C64.8072 26.328 64.982 26.159 65.118 25.9453C65.2579 25.7316 65.3609 25.4868 65.4269 25.211C65.493 24.9312 65.526 24.634 65.526 24.3193ZM75.6319 25.2576C75.6319 25.0594 75.6008 24.8846 75.5387 24.7331C75.4804 24.5777 75.3755 24.4378 75.224 24.3134C75.0763 24.1891 74.8704 24.0706 74.6062 23.9579C74.3459 23.8453 74.0156 23.7306 73.6154 23.6141C73.1958 23.4897 72.817 23.3518 72.4789 23.2003C72.1409 23.0449 71.8514 22.8681 71.6105 22.6699C71.3696 22.4718 71.1851 22.2445 71.0569 21.988C70.9286 21.7316 70.8645 21.4382 70.8645 21.108C70.8645 20.7777 70.9325 20.4727 71.0685 20.193C71.2045 19.9132 71.3988 19.6704 71.6513 19.4645C71.9078 19.2546 72.2128 19.0915 72.5663 18.9749C72.9199 18.8583 73.3143 18.8 73.7495 18.8C74.3867 18.8 74.9267 18.9224 75.3697 19.1672C75.8165 19.4081 76.1565 19.7248 76.3896 20.1172C76.6227 20.5057 76.7393 20.9215 76.7393 21.3644H75.6203C75.6203 21.0458 75.5523 20.7641 75.4163 20.5193C75.2803 20.2707 75.0744 20.0764 74.7985 19.9365C74.5226 19.7928 74.173 19.7209 73.7495 19.7209C73.3493 19.7209 73.019 19.7811 72.7587 19.9016C72.4983 20.022 72.3041 20.1852 72.1759 20.3911C72.0515 20.597 71.9894 20.8321 71.9894 21.0963C71.9894 21.2751 72.0263 21.4382 72.1001 21.5859C72.1778 21.7296 72.2963 21.8637 72.4556 21.988C72.6188 22.1124 72.8247 22.227 73.0734 22.3319C73.3259 22.4368 73.6271 22.5378 73.9767 22.6349C74.4585 22.7709 74.8743 22.9225 75.224 23.0895C75.5737 23.2566 75.8612 23.4451 76.0865 23.6549C76.3158 23.8608 76.4848 24.0959 76.5936 24.3601C76.7062 24.6204 76.7626 24.9157 76.7626 25.2459C76.7626 25.5917 76.6926 25.9045 76.5528 26.1843C76.4129 26.464 76.2128 26.703 75.9525 26.9011C75.6922 27.0993 75.3794 27.2528 75.0142 27.3615C74.6528 27.4665 74.2487 27.5189 73.8019 27.5189C73.4095 27.5189 73.0229 27.4645 72.6421 27.3557C72.2652 27.2469 71.9214 27.0837 71.6105 26.8662C71.3036 26.6486 71.0569 26.3805 70.8704 26.0619C70.6877 25.7394 70.5964 25.3664 70.5964 24.9429H71.7154C71.7154 25.2343 71.7718 25.4849 71.8845 25.6947C71.9971 25.9006 72.1506 26.0716 72.3449 26.2076C72.543 26.3436 72.7664 26.4446 73.0151 26.5106C73.2677 26.5728 73.5299 26.6039 73.8019 26.6039C74.1943 26.6039 74.5265 26.5495 74.7985 26.4407C75.0705 26.3319 75.2764 26.1765 75.4163 25.9745C75.5601 25.7724 75.6319 25.5335 75.6319 25.2576ZM80.6733 21.0963V21.9239H77.2638V21.0963H80.6733ZM78.4178 19.5635H79.496V25.8404C79.496 26.0541 79.529 26.2154 79.5951 26.3241C79.6611 26.4329 79.7466 26.5048 79.8515 26.5398C79.9564 26.5748 80.0691 26.5922 80.1895 26.5922C80.2789 26.5922 80.3721 26.5845 80.4693 26.5689C80.5703 26.5495 80.6461 26.534 80.6966 26.5223L80.7024 27.4023C80.6169 27.4295 80.5042 27.4548 80.3644 27.4781C80.2284 27.5053 80.0632 27.5189 79.869 27.5189C79.6048 27.5189 79.3619 27.4665 79.1405 27.3615C78.919 27.2566 78.7422 27.0818 78.6101 26.837C78.4819 26.5884 78.4178 26.2542 78.4178 25.8346V19.5635ZM81.5358 24.3193V24.1852C81.5358 23.7306 81.6019 23.3091 81.734 22.9205C81.8661 22.5281 82.0565 22.1881 82.3051 21.9006C82.5538 21.6092 82.8549 21.3838 83.2085 21.2245C83.5621 21.0614 83.9584 20.9798 84.3974 20.9798C84.8404 20.9798 85.2386 21.0614 85.5922 21.2245C85.9496 21.3838 86.2527 21.6092 86.5014 21.9006C86.7539 22.1881 86.9462 22.5281 87.0783 22.9205C87.2105 23.3091 87.2765 23.7306 87.2765 24.1852V24.3193C87.2765 24.7739 87.2105 25.1954 87.0783 25.584C86.9462 25.9725 86.7539 26.3125 86.5014 26.6039C86.2527 26.8914 85.9516 27.1168 85.598 27.28C85.2483 27.4393 84.852 27.5189 84.4091 27.5189C83.9661 27.5189 83.5679 27.4393 83.2143 27.28C82.8607 27.1168 82.5577 26.8914 82.3051 26.6039C82.0565 26.3125 81.8661 25.9725 81.734 25.584C81.6019 25.1954 81.5358 24.7739 81.5358 24.3193ZM82.614 24.1852V24.3193C82.614 24.634 82.6509 24.9312 82.7247 25.211C82.7986 25.4868 82.9093 25.7316 83.057 25.9453C83.2085 26.159 83.3969 26.328 83.6223 26.4524C83.8476 26.5728 84.1099 26.633 84.4091 26.633C84.7044 26.633 84.9627 26.5728 85.1842 26.4524C85.4096 26.328 85.5961 26.159 85.7437 25.9453C85.8914 25.7316 86.0021 25.4868 86.0759 25.211C86.1536 24.9312 86.1925 24.634 86.1925 24.3193V24.1852C86.1925 23.8744 86.1536 23.581 86.0759 23.3052C86.0021 23.0254 85.8894 22.7787 85.7379 22.565C85.5902 22.3474 85.4037 22.1765 85.1784 22.0521C84.9569 21.9278 84.6966 21.8656 84.3974 21.8656C84.1021 21.8656 83.8418 21.9278 83.6164 22.0521C83.395 22.1765 83.2085 22.3474 83.057 22.565C82.9093 22.7787 82.7986 23.0254 82.7247 23.3052C82.6509 23.581 82.614 23.8744 82.614 24.1852ZM89.7068 22.0871V27.4023H88.6286V21.0963H89.6777L89.7068 22.0871ZM91.6767 21.0614L91.6709 22.0638C91.5815 22.0444 91.4961 22.0327 91.4145 22.0288C91.3368 22.0211 91.2474 22.0172 91.1464 22.0172C90.8977 22.0172 90.6782 22.056 90.4878 22.1337C90.2974 22.2114 90.1362 22.3202 90.0041 22.4601C89.872 22.6 89.7671 22.767 89.6893 22.9613C89.6155 23.1517 89.567 23.3615 89.5436 23.5908L89.2406 23.7656C89.2406 23.3848 89.2775 23.0274 89.3513 22.6932C89.429 22.3591 89.5475 22.0638 89.7068 21.8074C89.8661 21.547 90.0682 21.345 90.313 21.2012C90.5616 21.0536 90.8569 20.9798 91.1988 20.9798C91.2765 20.9798 91.3659 20.9895 91.4669 21.0089C91.5679 21.0244 91.6379 21.0419 91.6767 21.0614ZM95.1736 27.5189C94.7345 27.5189 94.3363 27.4451 93.9788 27.2974C93.6253 27.1459 93.3203 26.9342 93.0638 26.6622C92.8113 26.3902 92.617 26.0677 92.481 25.6947C92.345 25.3217 92.277 24.9137 92.277 24.4708V24.226C92.277 23.7131 92.3528 23.2566 92.5043 22.8564C92.6559 22.4523 92.8618 22.1104 93.1221 21.8307C93.3824 21.5509 93.6777 21.3392 94.008 21.1954C94.3382 21.0516 94.6802 20.9798 95.0337 20.9798C95.4844 20.9798 95.873 21.0575 96.1993 21.2129C96.5296 21.3683 96.7996 21.5859 97.0095 21.8656C97.2193 22.1415 97.3747 22.4679 97.4757 22.8448C97.5767 23.2178 97.6272 23.6257 97.6272 24.0687V24.5524H92.9181V23.6724H96.549V23.5908C96.5335 23.311 96.4752 23.039 96.3742 22.7748C96.2771 22.5106 96.1216 22.293 95.9079 22.1221C95.6942 21.9511 95.4028 21.8656 95.0337 21.8656C94.7889 21.8656 94.5636 21.9181 94.3577 22.023C94.1517 22.124 93.975 22.2755 93.8273 22.4776C93.6797 22.6796 93.565 22.9264 93.4834 23.2178C93.4019 23.5092 93.3611 23.8453 93.3611 24.226V24.4708C93.3611 24.77 93.4019 25.0517 93.4834 25.3159C93.5689 25.5762 93.6913 25.8054 93.8506 26.0036C94.0138 26.2018 94.21 26.3572 94.4393 26.4698C94.6724 26.5825 94.9366 26.6389 95.2319 26.6389C95.6127 26.6389 95.9351 26.5612 96.1993 26.4057C96.4636 26.2503 96.6947 26.0425 96.8929 25.7821L97.5456 26.3008C97.4097 26.5068 97.2368 26.703 97.0269 26.8895C96.8171 27.076 96.5587 27.2275 96.2518 27.3441C95.9487 27.4606 95.5893 27.5189 95.1736 27.5189Z" fill="white"/>
</svg>
