<svg width="24" height="24" viewBox="0 0 24 24" fill="none" xmlns="http://www.w3.org/2000/svg">
<path d="M18.6599 22.918C17.3676 24.1707 15.9567 23.9729 14.5985 23.3796C13.1612 22.773 11.8425 22.7466 10.3261 23.3796C8.42723 24.1971 7.42506 23.9598 6.29103 22.918C-0.143965 16.2852 0.80546 6.18442 8.11076 5.8152C9.89093 5.9075 11.1305 6.791 12.1722 6.87011C13.7282 6.55364 15.2183 5.64377 16.8797 5.76245C18.8709 5.92069 20.3742 6.71188 21.3631 8.13601C17.249 10.6019 18.2248 16.0215 21.9961 17.538C21.2445 19.5159 20.2687 21.4807 18.6467 22.9312L18.6599 22.918ZM12.0403 5.73608C11.8425 2.7955 14.2293 0.369192 16.9721 0.131836C17.3545 3.53394 13.8864 6.06574 12.0403 5.73608Z" fill="white"/>
</svg>
