<svg width="148" height="41" viewBox="0 0 148 41" fill="none" xmlns="http://www.w3.org/2000/svg">
<rect y="0.64624" width="147.705" height="40.0723" rx="3.87797" fill="#151515"/>
<path d="M38.666 8.51727C37.7016 8.77158 36.8619 9.25141 36.1421 9.96156C35.4176 10.6765 34.9809 11.3915 34.7026 12.3223C34.5971 12.6822 34.5779 12.8453 34.5683 13.4163L34.5635 14.0881L34.7554 14.1025C35.0625 14.1313 35.7822 14.0161 36.1757 13.877C36.7707 13.6658 37.1929 13.3827 37.7783 12.7926C38.9491 11.6218 39.4433 10.5422 39.5153 9.0115L39.5441 8.40211H39.309C39.1794 8.40691 38.8915 8.4549 38.666 8.51727Z" fill="white"/>
<path d="M38.4021 14.3519C37.8071 14.4334 36.9866 14.6829 35.6431 15.1916C35.1345 15.3835 34.9905 15.4171 34.7074 15.4171C34.3524 15.4123 34.3236 15.4027 32.8601 14.8557C31.9148 14.5006 31.3678 14.3854 30.6289 14.3806C30.2882 14.3806 29.8756 14.4046 29.7172 14.4382C26.987 15.0236 25.0821 17.2212 24.631 20.3065C24.5494 20.8967 24.5351 22.2594 24.607 22.9168C24.9333 25.8054 26.0033 28.4684 27.7643 30.762C28.5656 31.8032 29.2326 32.4174 29.9331 32.7437C30.317 32.926 30.3698 32.9404 30.8688 32.9596C31.4926 32.9788 31.8141 32.9069 33.004 32.4654C34.0165 32.0911 34.5059 31.9952 35.2113 32.024C35.8494 32.0528 36.2189 32.1439 37.1354 32.4942C37.9511 32.8061 38.3733 32.9117 38.9251 32.95C39.6545 32.998 40.2879 32.8061 40.8972 32.3503C41.7993 31.6689 43.2052 29.7256 43.9921 28.0558C44.2848 27.4368 44.6159 26.5923 44.6159 26.4723C44.6159 26.4292 44.4864 26.3332 44.3184 26.2468C43.2052 25.6854 42.2168 24.6634 41.7897 23.6366C41.7033 23.4302 41.5738 23.0512 41.5066 22.8017C41.3963 22.3794 41.3867 22.2546 41.3819 21.3814C41.3819 20.4937 41.3915 20.3881 41.5066 19.9611C41.6458 19.4476 41.8761 18.9342 42.1688 18.4928C42.4375 18.0849 43.1236 17.3988 43.5987 17.0677L43.9921 16.7894L43.8386 16.5687C42.9413 15.2539 41.1803 14.3854 39.2898 14.3279C38.9587 14.3183 38.5605 14.3279 38.4021 14.3519Z" fill="white"/>
<path d="M59.1196 11.3618V12.2796H54.3885V14.5934C54.3885 14.8433 54.4273 15.0286 54.5048 15.1493C54.5824 15.2613 54.703 15.3173 54.8668 15.3173C55.0305 15.3173 55.1985 15.2656 55.3709 15.1622C55.5519 15.0588 55.7458 14.895 55.9526 14.671C56.1594 14.4469 56.3835 14.1582 56.6248 13.8049L57.4004 13.6886C57.6761 14.0936 57.8873 14.5116 58.0338 14.9424C58.1889 15.3733 58.2664 15.8042 58.2664 16.2351C58.2664 16.778 58.1458 17.2649 57.9045 17.6958C57.6718 18.1267 57.3228 18.4671 56.8574 18.717C56.4007 18.9669 55.8406 19.0919 55.177 19.0919C54.6082 19.0919 54.0782 18.9928 53.587 18.7946C53.0958 18.5963 52.6434 18.2775 52.2297 17.838C51.8161 17.3899 51.4369 16.8039 51.0922 16.08C50.7475 15.3475 50.4373 14.4512 50.1615 13.3913L51.1439 13.1327C51.4541 14.3306 51.7945 15.2958 52.1651 16.0283C52.5443 16.7522 52.9752 17.2821 53.4578 17.6182C53.9404 17.9457 54.4962 18.1094 55.1253 18.1094C55.8147 18.1094 56.3447 17.9371 56.7153 17.5924C57.0944 17.2477 57.284 16.8039 57.284 16.2609C57.284 15.8731 57.228 15.5414 57.116 15.2656C57.0126 14.9898 56.8747 14.7615 56.7023 14.5805L57.2969 14.3349C57.0384 14.7744 56.7713 15.1363 56.4955 15.4207C56.2284 15.7051 55.9569 15.9205 55.6811 16.067C55.414 16.2049 55.1468 16.2739 54.8797 16.2739C54.6815 16.2739 54.4962 16.248 54.3238 16.1963C54.1515 16.136 54.005 16.0498 53.8843 15.9378C53.7465 15.8171 53.6301 15.6491 53.5353 15.4336C53.4405 15.2096 53.3931 14.839 53.3931 14.322V12.2796H49.6574V11.3618H59.1196ZM62.5569 11.3618V12.2796H61.1997V19.4021H60.2043V13.3395C60.1009 13.0465 59.9458 12.7966 59.739 12.5898C59.5407 12.383 59.2822 12.2796 58.9634 12.2796H58.86V11.3618H59.0538C59.2607 11.3618 59.4761 11.4307 59.7002 11.5686C59.9242 11.6979 60.1052 11.9004 60.2431 12.1762C60.2345 12.1331 60.2259 12.034 60.2172 11.8788C60.2086 11.7237 60.2043 11.5902 60.2043 11.4781V10.5086H60.9023L61.1867 11.3618H62.5569ZM68.9895 11.3618C68.9809 11.0085 68.8947 10.7542 68.731 10.5991C68.5759 10.444 68.3173 10.3664 67.9554 10.3664H66.1457C65.5855 10.3664 65.1503 10.3277 64.8401 10.2501C64.5385 10.1725 64.2799 10.0519 64.0645 9.88815C63.8318 9.7158 63.6552 9.49605 63.5345 9.2289C63.4225 8.95313 63.3665 8.6429 63.3665 8.29819C63.3665 8.18616 63.3708 8.07413 63.3794 7.9621C63.3966 7.85007 63.4139 7.73373 63.4311 7.61308L64.3877 7.67771C64.3704 7.78113 64.3575 7.87161 64.3489 7.94917C64.3403 8.02673 64.336 8.09998 64.336 8.16892C64.336 8.35851 64.3532 8.52656 64.3877 8.67306C64.4308 8.81956 64.4954 8.94021 64.5816 9.035C64.7022 9.17289 64.8746 9.2763 65.0986 9.34524C65.3227 9.40556 65.6502 9.43573 66.081 9.43573H67.6839C68.1407 9.43573 68.5026 9.4702 68.7698 9.53914C69.0369 9.60808 69.2653 9.73304 69.4549 9.91401C69.6014 10.0519 69.7134 10.2415 69.791 10.4828C69.8685 10.7155 69.9116 11.0085 69.9202 11.3618H68.9895ZM71.7558 11.3618V12.2796H67.0247V14.5934C67.0247 14.8433 67.0635 15.0286 67.141 15.1493C67.2186 15.2613 67.3392 15.3173 67.503 15.3173C67.6667 15.3173 67.8348 15.2656 68.0071 15.1622C68.1881 15.0588 68.382 14.895 68.5888 14.671C68.7956 14.4469 69.0197 14.1582 69.261 13.8049L70.0366 13.6886C70.3123 14.0936 70.5235 14.5116 70.67 14.9424C70.8251 15.3733 70.9027 15.8042 70.9027 16.2351C70.9027 16.778 70.782 17.2649 70.5407 17.6958C70.308 18.1267 69.959 18.4671 69.4937 18.717C69.0369 18.9669 68.4768 19.0919 67.8132 19.0919C67.2444 19.0919 66.7144 18.9928 66.2232 18.7946C65.732 18.5963 65.2796 18.2775 64.866 17.838C64.4523 17.3899 64.0731 16.8039 63.7284 16.08C63.3837 15.3475 63.0735 14.4512 62.7977 13.3913L63.7801 13.1327C64.0904 14.3306 64.4308 15.2958 64.8013 16.0283C65.1805 16.7522 65.6114 17.2821 66.094 17.6182C66.5766 17.9457 67.1324 18.1094 67.7615 18.1094C68.4509 18.1094 68.9809 17.9371 69.3515 17.5924C69.7306 17.2477 69.9202 16.8039 69.9202 16.2609C69.9202 15.8731 69.8642 15.5414 69.7522 15.2656C69.6488 14.9898 69.5109 14.7615 69.3385 14.5805L69.9332 14.3349C69.6746 14.7744 69.4075 15.1363 69.1317 15.4207C68.8646 15.7051 68.5931 15.9205 68.3173 16.067C68.0502 16.2049 67.783 16.2739 67.5159 16.2739C67.3177 16.2739 67.1324 16.248 66.9601 16.1963C66.7877 16.136 66.6412 16.0498 66.5206 15.9378C66.3827 15.8171 66.2663 15.6491 66.1715 15.4336C66.0767 15.2096 66.0293 14.839 66.0293 14.322V12.2796H62.2936V11.3618H71.7558ZM79.5623 11.3618V12.2796H78.205V19.4021H77.2097V16.2609L77.4165 16.9848C77.1321 16.5884 76.8219 16.2308 76.4858 15.9119C76.1497 15.5931 75.805 15.3389 75.4517 15.1493C75.0984 14.9597 74.7537 14.8649 74.4176 14.8649C74.0987 14.8649 73.8273 14.9511 73.6032 15.1234C73.3877 15.2871 73.28 15.5328 73.28 15.8602C73.28 16.1188 73.3705 16.3428 73.5515 16.5324C73.7325 16.7134 74.0125 16.8771 74.3917 17.0236L73.9005 17.9414C73.3748 17.726 72.9612 17.4373 72.6596 17.0753C72.3666 16.7048 72.2201 16.2868 72.2201 15.8214C72.2201 15.3992 72.3192 15.0502 72.5174 14.7744C72.7242 14.49 72.9827 14.2789 73.293 14.141C73.6118 14.0031 73.935 13.9342 74.2624 13.9342C74.7106 13.9342 75.1199 14.0117 75.4905 14.1668C75.861 14.322 76.2057 14.5331 76.5246 14.8002C76.8521 15.0674 77.1623 15.3776 77.4553 15.731L77.2743 15.7827C77.2485 15.5845 77.2312 15.3906 77.2226 15.201C77.214 15.0028 77.2097 14.8046 77.2097 14.6063V12.2796H71.4962V11.3618H79.5623ZM84.0287 11.3618V12.2796H83.7701C83.503 12.3399 83.2143 12.4735 82.9041 12.6803C82.5938 12.8785 82.3008 13.1413 82.025 13.4688C81.7493 13.7877 81.5209 14.1625 81.3399 14.5934C81.1676 15.0243 81.0814 15.4983 81.0814 16.0153C81.0814 16.6358 81.1719 17.1313 81.3529 17.5019C81.5425 17.8638 81.7751 18.1224 82.0509 18.2775C82.3267 18.4326 82.6024 18.5102 82.8782 18.5102C83.0936 18.5102 83.2746 18.4886 83.4211 18.4455C83.5676 18.4024 83.7357 18.3249 83.9252 18.2129L84.3777 19.0014C84.1536 19.1737 83.908 19.2944 83.6409 19.3633C83.3737 19.4323 83.1066 19.4667 82.8394 19.4667C82.2965 19.4667 81.8139 19.3245 81.3916 19.0402C80.978 18.7558 80.6505 18.3594 80.4092 17.8509C80.1765 17.3339 80.0602 16.7306 80.0602 16.0412C80.0602 15.3345 80.1938 14.6968 80.4609 14.1281C80.7281 13.5507 81.0857 13.0638 81.5338 12.6674C81.9906 12.2709 82.4947 11.9823 83.0462 11.8013L82.2189 12.2279C82.0638 12.2451 81.8958 12.258 81.7148 12.2666C81.5338 12.2753 81.3313 12.2796 81.1073 12.2796H79.2975V11.3618H84.0287ZM93.4741 11.3618V12.2796H92.1168V19.4021H91.1215V15.0717L91.1991 15.4078C91.0095 15.132 90.807 14.9123 90.5915 14.7485C90.3847 14.5848 90.1563 14.5029 89.9064 14.5029C89.7771 14.5029 89.6436 14.5288 89.5057 14.5805C89.3764 14.6236 89.2644 14.7098 89.1696 14.839C89.0834 14.9683 89.0403 15.1665 89.0403 15.4336C89.0403 15.5284 89.0403 15.6146 89.0403 15.6922C89.0489 15.7611 89.0576 15.8301 89.0662 15.899L88.226 15.9636C88.1915 15.6103 88.0967 15.313 87.9416 15.0717C87.7865 14.8218 87.5969 14.6322 87.3728 14.5029C87.1487 14.3737 86.9074 14.309 86.6489 14.309C86.4162 14.309 86.218 14.3564 86.0543 14.4512C85.8906 14.5374 85.7656 14.6581 85.6794 14.8132C85.5932 14.9597 85.5502 15.1277 85.5502 15.3173C85.5502 15.662 85.6751 15.955 85.925 16.1963C86.1836 16.4376 86.5455 16.6401 87.0109 16.8039L86.6618 17.7604C86.2482 17.6312 85.8776 17.4545 85.5502 17.2304C85.2227 17.0064 84.9642 16.7306 84.7746 16.4031C84.585 16.0757 84.4902 15.6965 84.4902 15.2656C84.4902 14.8778 84.585 14.546 84.7746 14.2703C84.9642 13.9859 85.2184 13.7661 85.5372 13.611C85.8561 13.4559 86.2051 13.3783 86.5843 13.3783C87.041 13.3783 87.4331 13.4645 87.7606 13.6369C88.0881 13.8006 88.3897 14.0677 88.6655 14.4383L88.4716 14.4512C88.5577 14.1668 88.7215 13.9514 88.9628 13.8049C89.2127 13.6498 89.4712 13.5722 89.7384 13.5722C90.0486 13.5722 90.3157 13.6325 90.5398 13.7532C90.7639 13.8738 91.0095 14.0462 91.2766 14.2703L91.1603 14.4642C91.1517 14.2832 91.143 14.1022 91.1344 13.9212C91.1258 13.7403 91.1215 13.555 91.1215 13.3654V12.2796H83.7663V11.3618H93.4741ZM96.9184 11.3618V12.2796H95.5611V19.4021H94.5657V13.3395C94.4623 13.0465 94.3072 12.7966 94.1004 12.5898C93.9022 12.383 93.6436 12.2796 93.3248 12.2796H93.2214V11.3618H93.4153C93.6221 11.3618 93.8375 11.4307 94.0616 11.5686C94.2856 11.6979 94.4666 11.9004 94.6045 12.1762C94.5959 12.1331 94.5873 12.034 94.5786 11.8788C94.57 11.7237 94.5657 11.5902 94.5657 11.4781V10.5086H95.2638L95.5481 11.3618H96.9184ZM106.117 11.3618V12.2796H101.386V14.5934C101.386 14.8433 101.425 15.0286 101.502 15.1493C101.58 15.2613 101.701 15.3173 101.864 15.3173C102.028 15.3173 102.196 15.2656 102.369 15.1622C102.549 15.0588 102.743 14.895 102.95 14.671C103.157 14.4469 103.381 14.1582 103.622 13.8049L104.398 13.6886C104.674 14.0936 104.885 14.5116 105.031 14.9424C105.187 15.3733 105.264 15.8042 105.264 16.2351C105.264 16.778 105.143 17.2649 104.902 17.6958C104.669 18.1267 104.32 18.4671 103.855 18.717C103.398 18.9669 102.838 19.0919 102.175 19.0919C101.606 19.0919 101.076 18.9928 100.585 18.7946C100.093 18.5963 99.641 18.2775 99.2274 17.838C98.8137 17.3899 98.4345 16.8039 98.0898 16.08C97.7451 15.3475 97.4349 14.4512 97.1591 13.3913L98.1415 13.1327C98.4518 14.3306 98.7922 15.2958 99.1627 16.0283C99.5419 16.7522 99.9728 17.2821 100.455 17.6182C100.938 17.9457 101.494 18.1094 102.123 18.1094C102.812 18.1094 103.342 17.9371 103.713 17.5924C104.092 17.2477 104.282 16.8039 104.282 16.2609C104.282 15.8731 104.226 15.5414 104.114 15.2656C104.01 14.9898 103.872 14.7615 103.7 14.5805L104.295 14.3349C104.036 14.7744 103.769 15.1363 103.493 15.4207C103.226 15.7051 102.955 15.9205 102.679 16.067C102.412 16.2049 102.144 16.2739 101.877 16.2739C101.679 16.2739 101.494 16.248 101.321 16.1963C101.149 16.136 101.003 16.0498 100.882 15.9378C100.744 15.8171 100.628 15.6491 100.533 15.4336C100.438 15.2096 100.391 14.839 100.391 14.322V12.2796H96.655V11.3618H106.117Z" fill="white"/>
<path d="M56.1232 26.1631V26.7138H53.6025V27.1947V27.3187V30.9873H53.0053C52.8554 30.6822 52.646 30.3953 52.3771 30.1264C52.1082 29.8575 51.8006 29.6326 51.4541 29.4516C51.1129 29.2655 50.7535 29.1491 50.3761 29.1026L50.0736 28.358C50.5751 28.0685 51.0767 27.81 51.5782 27.5824C52.0798 27.3549 52.6124 27.1533 53.176 26.9775L53.0053 27.3032V26.7138H49.7091V26.1631H56.1232ZM53.0053 27.3653L53.1682 27.5902C52.9045 27.6626 52.6305 27.7583 52.3461 27.8772C52.0669 27.9961 51.7928 28.1202 51.524 28.2495C51.2602 28.3787 51.0172 28.5054 50.7949 28.6295C51.0844 28.6864 51.3818 28.795 51.6868 28.9552C51.9971 29.1155 52.2789 29.312 52.5322 29.5447C52.7908 29.7722 52.9821 30.0204 53.1062 30.2893L53.0441 30.3048C53.0338 30.1859 53.0234 30.0669 53.0131 29.948C53.0079 29.8291 53.0053 29.6869 53.0053 29.5214V27.3653ZM55.6889 28.7536C55.6889 28.9242 55.6553 29.0871 55.5881 29.2422C55.5208 29.3922 55.4097 29.5163 55.2546 29.6145C55.0994 29.7127 54.8926 29.7619 54.6341 29.7619C54.5513 29.7619 54.4712 29.7593 54.3936 29.7541C54.3213 29.7489 54.2489 29.7386 54.1765 29.7231L54.223 29.1647C54.254 29.1698 54.2902 29.175 54.3316 29.1802C54.3781 29.1802 54.4298 29.1802 54.4867 29.1802C54.7349 29.1802 54.8952 29.1336 54.9676 29.0406C55.0451 28.9423 55.0839 28.826 55.0839 28.6915C55.0839 28.4175 54.9495 28.1848 54.6806 27.9935C54.4169 27.797 54.0239 27.6626 53.5017 27.5902L53.525 27.0085C53.9231 27.0499 54.2851 27.1507 54.6108 27.311C54.9366 27.4661 55.1977 27.6678 55.3942 27.916C55.5906 28.159 55.6889 28.4382 55.6889 28.7536ZM62.3484 26.1631V26.7138H59.9286V28.7536L59.9053 28.8622C59.9157 28.9604 59.9208 29.0612 59.9208 29.1647C59.926 29.2681 59.9286 29.3715 59.9286 29.4749V30.9873H59.3314C59.1763 30.6771 58.9617 30.3927 58.6876 30.1342C58.4188 29.8705 58.1085 29.6481 57.7569 29.4671C57.4053 29.2862 57.0305 29.1647 56.6323 29.1026L56.3298 28.358C56.8262 28.0581 57.3381 27.7867 57.8655 27.5437C58.3981 27.3007 58.9462 27.0938 59.5098 26.9232L59.3314 27.2489V26.7138H55.9653V26.1631H62.3484ZM59.3314 27.311L59.4943 27.5282C59.1013 27.6574 58.6876 27.8177 58.2533 28.009C57.819 28.1952 57.4183 28.402 57.0511 28.6295C57.3304 28.6915 57.6277 28.7975 57.9431 28.9475C58.2585 29.0974 58.5506 29.2862 58.8195 29.5137C59.0884 29.7412 59.2952 30.0049 59.44 30.3048H59.3702C59.3598 30.1859 59.3495 30.0669 59.3391 29.948C59.334 29.8291 59.3314 29.6869 59.3314 29.5214V27.311ZM60.9912 29.7153C60.7998 29.7153 60.6189 29.6766 60.4482 29.599C60.2776 29.5214 60.1225 29.3948 59.9829 29.219C59.8433 29.0432 59.7218 28.8131 59.6184 28.5287L59.9053 28.0013C59.9829 28.2753 60.0708 28.5002 60.169 28.676C60.2724 28.8467 60.3862 28.9733 60.5103 29.0561C60.6344 29.1388 60.7688 29.1802 60.9136 29.1802C61.0325 29.1802 61.1437 29.144 61.2471 29.0716C61.3505 28.994 61.4022 28.8622 61.4022 28.676C61.4022 28.5675 61.379 28.4666 61.3324 28.3736C61.2859 28.2805 61.2083 28.2003 61.0997 28.1331C60.9912 28.0607 60.8438 28.0064 60.6577 27.9702L60.774 27.3963C60.9912 27.4377 61.1902 27.5126 61.3712 27.6212C61.5573 27.7246 61.7073 27.8617 61.821 28.0323C61.9348 28.2029 61.9917 28.4149 61.9917 28.6683C61.9917 28.9837 61.9012 29.237 61.7202 29.4284C61.5392 29.6197 61.2962 29.7153 60.9912 29.7153ZM57.4777 31.0338C57.3485 31.0338 57.2373 30.9925 57.1442 30.9097C57.0563 30.827 57.0124 30.7184 57.0124 30.584C57.0124 30.4496 57.0563 30.3384 57.1442 30.2505C57.2373 30.1626 57.3485 30.1186 57.4777 30.1186C57.607 30.1186 57.7156 30.1626 57.8035 30.2505C57.8965 30.3384 57.9431 30.4496 57.9431 30.584C57.9431 30.7184 57.8965 30.827 57.8035 30.9097C57.7156 30.9925 57.607 31.0338 57.4777 31.0338ZM67.031 26.1631V26.7138H66.2166V30.9873H65.6194V29.1026L65.7435 29.5369C65.5729 29.2991 65.3867 29.0845 65.1851 28.8932C64.9834 28.7019 64.7766 28.5494 64.5646 28.4356C64.3526 28.3218 64.1458 28.265 63.9441 28.265C63.7528 28.265 63.5899 28.3167 63.4555 28.4201C63.3262 28.5183 63.2616 28.6657 63.2616 28.8622C63.2616 29.0173 63.3159 29.1517 63.4245 29.2655C63.533 29.3741 63.7011 29.4723 63.9286 29.5602L63.6339 30.1109C63.3185 29.9816 63.0703 29.8084 62.8893 29.5912C62.7135 29.3689 62.6256 29.1181 62.6256 28.8389C62.6256 28.5856 62.6851 28.3761 62.804 28.2107C62.9281 28.04 63.0832 27.9134 63.2693 27.8306C63.4607 27.7479 63.6546 27.7065 63.851 27.7065C64.1199 27.7065 64.3655 27.7531 64.5878 27.8462C64.8102 27.9392 65.017 28.0659 65.2083 28.2262C65.4048 28.3865 65.591 28.5726 65.7668 28.7846L65.6582 28.8156C65.6427 28.6967 65.6323 28.5804 65.6271 28.4666C65.622 28.3477 65.6194 28.2288 65.6194 28.1099V26.7138H62.1913V26.1631H67.031ZM75.8771 26.1631V26.7138H75.0627V30.9873H74.4655C74.3156 30.6822 74.1294 30.416 73.9071 30.1884C73.6848 29.9558 73.4469 29.7567 73.1935 29.5912L73.3874 29.0793C73.5839 29.1931 73.7882 29.3482 74.0002 29.5447C74.2122 29.7412 74.375 29.9403 74.4888 30.1419C74.4836 30.0643 74.4784 29.992 74.4733 29.9247C74.4733 29.8575 74.4707 29.7877 74.4655 29.7153C74.4655 29.6429 74.4655 29.5654 74.4655 29.4827V26.7138H68.7959V26.1631H75.8771ZM71.7897 30.2815C71.4381 30.2815 71.102 30.1988 70.7814 30.0333C70.4609 29.8679 70.1584 29.5887 69.874 29.1957C69.5948 28.7975 69.3363 28.252 69.0984 27.5592L69.6646 27.373C69.8507 27.9108 70.0446 28.3529 70.2463 28.6993C70.4531 29.0406 70.6832 29.2913 70.9366 29.4516C71.1899 29.6119 71.4795 29.6921 71.8052 29.6921C72.0896 29.6921 72.3171 29.6481 72.4878 29.5602C72.6636 29.4671 72.7902 29.343 72.8678 29.1879C72.9454 29.0276 72.9841 28.8518 72.9841 28.6605C72.9841 28.3606 72.9014 28.1176 72.7359 27.9315C72.5757 27.7453 72.374 27.6523 72.131 27.6523C71.9603 27.6523 71.8311 27.691 71.7432 27.7686C71.6553 27.841 71.6113 27.9521 71.6113 28.1021C71.6113 28.1383 71.6165 28.1874 71.6268 28.2495C71.6372 28.3115 71.6527 28.3684 71.6734 28.4201L71.0839 28.5364C71.0477 28.4278 71.0193 28.3296 70.9986 28.2417C70.9831 28.1486 70.9753 28.0607 70.9753 27.978C70.9753 27.7867 71.0271 27.6264 71.1305 27.4971C71.239 27.3679 71.3761 27.2722 71.5415 27.2102C71.7122 27.1429 71.8905 27.1093 72.0767 27.1093C72.3818 27.1093 72.6455 27.1791 72.8678 27.3187C73.0901 27.4532 73.2633 27.6393 73.3874 27.8772C73.5115 28.115 73.5736 28.3917 73.5736 28.7071C73.5736 28.9863 73.509 29.2474 73.3797 29.4904C73.2504 29.7283 73.0539 29.9196 72.7902 30.0643C72.5265 30.2091 72.193 30.2815 71.7897 30.2815ZM71.5415 27.3808C71.5157 27.2153 71.4381 27.0706 71.3089 26.9465C71.1848 26.8172 71.0012 26.7267 70.7582 26.675L70.9443 26.326L71.2933 26.4191C71.5881 26.5328 71.8001 26.6621 71.9293 26.8069C72.0586 26.9516 72.1336 27.1352 72.1542 27.3575L71.5415 27.3808ZM77.8516 26.1631V26.7138H77.3087L77.774 26.5432C77.562 26.7138 77.4017 26.8689 77.2932 27.0085C77.1846 27.1429 77.1122 27.28 77.076 27.4196C77.0398 27.5592 77.0217 27.7272 77.0217 27.9237C77.0217 28.0943 77.0424 28.2753 77.0837 28.4666C77.1251 28.6579 77.1665 28.857 77.2078 29.0638C77.2544 29.2655 77.2776 29.4775 77.2776 29.6998C77.2776 29.886 77.257 30.0669 77.2156 30.2427C77.1742 30.4134 77.0967 30.5737 76.9829 30.7236C76.8743 30.8684 76.7166 30.9976 76.5098 31.1114C76.3082 31.2252 76.0445 31.3182 75.7187 31.3906L75.5558 30.8555C75.8868 30.7779 76.1298 30.6822 76.2849 30.5685C76.4452 30.4496 76.5486 30.3151 76.5951 30.1652C76.6468 30.0152 76.6727 29.8549 76.6727 29.6843C76.6727 29.4775 76.652 29.2758 76.6106 29.0793C76.5693 28.8829 76.5253 28.689 76.4788 28.4977C76.4374 28.3063 76.4167 28.1202 76.4167 27.9392C76.4167 27.7427 76.4348 27.5721 76.471 27.4273C76.5072 27.2774 76.5693 27.1352 76.6572 27.0008C76.7451 26.8611 76.864 26.7112 77.0139 26.5509L77.1303 26.7138H75.7187V26.1631H77.8516ZM79.9138 26.1631V26.7138H79.0994V30.9873H78.5022V27.3498C78.4401 27.174 78.3471 27.024 78.223 26.8999C78.104 26.7758 77.9489 26.7138 77.7576 26.7138H77.6956V26.1631H77.8119C77.936 26.1631 78.0653 26.2045 78.1997 26.2872C78.3341 26.3648 78.4427 26.4863 78.5254 26.6517C78.5203 26.6259 78.5151 26.5664 78.5099 26.4734C78.5048 26.3803 78.5022 26.3001 78.5022 26.2329V25.6512H78.921L79.0916 26.1631H79.9138ZM85.4641 26.1631V26.7138H84.6497V30.9873H84.0525V27.916L84.2231 28.4123C84.0112 28.1021 83.8173 27.8384 83.6415 27.6212C83.4657 27.3989 83.2976 27.2179 83.1373 27.0783C82.9822 26.9387 82.8245 26.8379 82.6642 26.7758C82.5039 26.7086 82.3307 26.675 82.1446 26.675C81.9377 26.675 81.749 26.7138 81.5784 26.7913C81.4129 26.8689 81.2604 26.9723 81.1208 27.1016C80.9812 27.2308 80.8519 27.3705 80.733 27.5204L80.6709 27.5359C80.7537 27.4842 80.8338 27.4454 80.9114 27.4196C80.9941 27.3937 81.0846 27.3808 81.1828 27.3808C81.4827 27.3808 81.7025 27.4635 81.8421 27.629C81.9817 27.7893 82.0515 27.9883 82.0515 28.2262C82.0515 28.2831 82.0489 28.3374 82.0437 28.3891C82.0386 28.4408 82.0308 28.4796 82.0205 28.5054L81.8886 28.4589C81.9507 28.3917 82.0101 28.327 82.067 28.265C82.1239 28.2029 82.1833 28.1409 82.2454 28.0788C82.3126 28.0168 82.3798 27.9521 82.447 27.8849L83.4088 26.9852L83.7888 27.3963L81.5861 29.4749L81.1285 29.0483L81.7645 28.4434L81.4853 28.7769L81.2526 28.9552C81.3302 28.8673 81.3948 28.7743 81.4465 28.676C81.5034 28.5726 81.5318 28.4563 81.5318 28.327C81.5318 28.1978 81.4931 28.0943 81.4155 28.0168C81.3379 27.9392 81.2242 27.9004 81.0742 27.9004C80.9915 27.9004 80.9114 27.9108 80.8338 27.9315C80.7562 27.9521 80.6761 27.9883 80.5934 28.04L80.0039 27.4816C80.2107 27.2076 80.4227 26.9697 80.6399 26.7681C80.8571 26.5613 81.0846 26.401 81.3224 26.2872C81.5603 26.1683 81.8162 26.1088 82.0903 26.1088C82.3798 26.1088 82.6409 26.1631 82.8736 26.2717C83.1063 26.3803 83.3312 26.5432 83.5484 26.7603C83.7655 26.9723 83.9931 27.2412 84.2309 27.5669L84.0913 27.5282C84.0758 27.4041 84.0654 27.2696 84.0603 27.1248C84.0551 26.9801 84.0525 26.825 84.0525 26.6595V25.6512H84.4636L84.642 26.1631H85.4641ZM90.0701 26.1631V26.7138H89.915C89.7547 26.75 89.5815 26.8301 89.3953 26.9542C89.2092 27.0731 89.0334 27.2308 88.8679 27.4273C88.7025 27.6186 88.5654 27.8436 88.4569 28.1021C88.3534 28.3606 88.3017 28.645 88.3017 28.9552C88.3017 29.3275 88.356 29.6248 88.4646 29.8472C88.5784 30.0643 88.718 30.2195 88.8834 30.3125C89.0489 30.4056 89.2144 30.4521 89.3798 30.4521C89.5091 30.4521 89.6177 30.4392 89.7056 30.4134C89.7935 30.3875 89.8943 30.341 90.008 30.2738L90.2795 30.7469C90.1451 30.8503 89.9977 30.9227 89.8374 30.964C89.6771 31.0054 89.5142 31.0261 89.3488 31.0261C89.023 31.0261 88.7361 30.9408 88.4879 30.7701C88.2397 30.5995 88.0432 30.3617 87.8984 30.0566C87.7588 29.7464 87.689 29.3844 87.689 28.9708C87.689 28.5726 87.7511 28.2184 87.8752 27.9082C88.0044 27.5928 88.1699 27.3187 88.3715 27.0861C88.5784 26.8534 88.8007 26.6621 89.0386 26.5121C89.2764 26.357 89.5065 26.2407 89.7288 26.1631H90.0701ZM91.4483 30.0023C91.3087 30.0023 91.1743 29.9739 91.045 29.917C90.9209 29.8601 90.7943 29.767 90.665 29.6378C90.5409 29.5033 90.4065 29.3224 90.2617 29.0949L90.7348 28.8079C90.8744 29.0561 90.9907 29.219 91.0838 29.2965C91.1769 29.3741 91.2777 29.4129 91.3863 29.4129C91.4742 29.4129 91.5569 29.387 91.6345 29.3353C91.7172 29.2784 91.8051 29.1828 91.8982 29.0483C91.9964 28.9139 92.1076 28.7303 92.2317 28.4977L92.4101 28.2417C92.5497 27.9521 92.679 27.7583 92.7979 27.66C92.922 27.5566 93.059 27.5049 93.2089 27.5049C93.3796 27.5049 93.5321 27.554 93.6665 27.6523C93.8061 27.7453 93.9664 27.8901 94.1474 28.0866L94.1707 28.327L94.1164 28.7226C93.9613 28.5209 93.8242 28.3632 93.7053 28.2495C93.5916 28.1357 93.4804 28.0788 93.3718 28.0788C93.2994 28.0788 93.2322 28.0995 93.1702 28.1409C93.1081 28.1822 93.0383 28.2624 92.9607 28.3813C92.8832 28.4951 92.7798 28.6709 92.6505 28.9087C92.5109 29.1621 92.3842 29.3715 92.2705 29.5369C92.1567 29.6972 92.0352 29.8162 91.9059 29.8937C91.7818 29.9661 91.6293 30.0023 91.4483 30.0023ZM92.0921 28.8854C92.0404 28.5338 91.9861 28.2546 91.9292 28.0478C91.8775 27.841 91.7844 27.6807 91.65 27.5669C91.5207 27.448 91.3449 27.3601 91.1226 27.3032C90.9003 27.2412 90.621 27.1895 90.285 27.1481L90.4013 26.5587L90.8201 26.7138C91.1148 26.7603 91.3604 26.8198 91.5569 26.8922C91.7534 26.9646 91.9111 27.0602 92.03 27.1791C92.1541 27.2929 92.2472 27.4351 92.3093 27.6057C92.3713 27.7763 92.4127 27.9832 92.4333 28.2262L92.0921 28.8854ZM97.6919 26.1631V26.7138H94.5507V29.3973C94.5507 29.6248 94.5636 29.7851 94.5895 29.8782C94.6153 29.9713 94.6464 30.0385 94.6826 30.0799C94.7756 30.1884 94.9152 30.2427 95.1014 30.2427C95.3082 30.2427 95.5021 30.1936 95.6831 30.0954C95.8641 29.9971 96.0218 29.8756 96.1562 29.7308C96.3061 29.5706 96.4199 29.3999 96.4975 29.219C96.5802 29.038 96.6215 28.8544 96.6215 28.6683C96.6215 28.5028 96.5802 28.3787 96.4975 28.296C96.4147 28.2081 96.2777 28.1641 96.0864 28.1641C96.0243 28.1641 95.9571 28.1693 95.8847 28.1797C95.8123 28.19 95.7425 28.2029 95.6753 28.2184L95.59 27.6678C95.6883 27.6419 95.7891 27.6212 95.8925 27.6057C96.0011 27.5902 96.1148 27.5824 96.2338 27.5824C96.4251 27.5824 96.5957 27.6186 96.7456 27.691C96.8956 27.7634 97.0119 27.8772 97.0947 28.0323C97.1826 28.1874 97.2265 28.3891 97.2265 28.6373C97.2265 28.9423 97.1515 29.2396 97.0016 29.5292C96.8516 29.8136 96.6629 30.054 96.4354 30.2505C96.2441 30.416 96.0347 30.5504 95.8072 30.6538C95.5848 30.752 95.3392 30.8012 95.0704 30.8012C94.8791 30.8012 94.7136 30.7727 94.574 30.7158C94.4395 30.659 94.3284 30.5866 94.2405 30.4987C94.1577 30.4004 94.0879 30.2815 94.0311 30.1419C93.9794 30.0023 93.9535 29.7903 93.9535 29.5059V28.3736L93.9845 28.0943C93.9742 28.0013 93.9664 27.903 93.9613 27.7996C93.9561 27.691 93.9535 27.5695 93.9535 27.4351V26.7138H89.9127V26.1631H97.6919ZM96.2803 26.1631C96.2751 25.9511 96.2234 25.7986 96.1252 25.7055C96.0321 25.6124 95.877 25.5659 95.6598 25.5659H94.9308C94.5947 25.5659 94.3335 25.5426 94.1474 25.4961C93.9664 25.4496 93.8113 25.3772 93.6821 25.2789C93.5424 25.1755 93.4364 25.0437 93.3641 24.8834C93.2968 24.7179 93.2632 24.5318 93.2632 24.325C93.2632 24.2577 93.2658 24.1931 93.271 24.1311C93.2813 24.0638 93.2917 23.9915 93.302 23.9139L93.8759 23.9527C93.8656 24.0095 93.8579 24.0613 93.8527 24.1078C93.8475 24.1492 93.8449 24.1957 93.8449 24.2474C93.8449 24.3612 93.8553 24.462 93.8759 24.5499C93.9018 24.6378 93.9406 24.7102 93.9923 24.767C94.0647 24.8498 94.1681 24.9118 94.3025 24.9532C94.4421 24.9894 94.6386 25.0075 94.892 25.0075H95.4969C95.771 25.0075 95.9881 25.0282 96.1484 25.0695C96.3087 25.1109 96.4457 25.1859 96.5595 25.2944C96.6474 25.3772 96.7146 25.4909 96.7612 25.6357C96.8077 25.7753 96.8335 25.9511 96.8387 26.1631H96.2803ZM99.758 26.1631V26.7138H98.9437V30.9873H98.3465V27.3498C98.2844 27.174 98.1913 27.024 98.0672 26.8999C97.9483 26.7758 97.7932 26.7138 97.6019 26.7138H97.5398V26.1631H97.6562C97.7803 26.1631 97.9095 26.2045 98.044 26.2872C98.1784 26.3648 98.287 26.4863 98.3697 26.6517C98.3646 26.6259 98.3594 26.5664 98.3542 26.4734C98.349 26.3803 98.3465 26.3001 98.3465 26.2329V25.6512H98.7653L98.9359 26.1631H99.758ZM104.378 26.1631V26.7138H103.563V30.9873H102.966C102.811 30.6771 102.596 30.3927 102.322 30.1342C102.053 29.8705 101.743 29.6481 101.392 29.4671C101.04 29.2862 100.665 29.1647 100.267 29.1026L99.9645 28.358C100.461 28.0581 100.973 27.7867 101.5 27.5437C102.033 27.3007 102.581 27.0938 103.144 26.9232L102.966 27.2489V26.7138H99.6V26.1631H104.378ZM102.966 27.311L103.129 27.5282C102.736 27.6574 102.322 27.8177 101.888 28.009C101.454 28.1952 101.053 28.402 100.686 28.6295C100.965 28.6915 101.262 28.7975 101.578 28.9475C101.893 29.0974 102.185 29.2862 102.454 29.5137C102.723 29.7412 102.93 30.0049 103.075 30.3048H103.005C102.995 30.1859 102.984 30.0669 102.974 29.948C102.969 29.8291 102.966 29.6869 102.966 29.5214V27.311ZM101.112 31.0338C100.983 31.0338 100.872 30.9925 100.779 30.9097C100.691 30.827 100.647 30.7184 100.647 30.584C100.647 30.4496 100.691 30.3384 100.779 30.2505C100.872 30.1626 100.983 30.1186 101.112 30.1186C101.242 30.1186 101.35 30.1626 101.438 30.2505C101.531 30.3384 101.578 30.4496 101.578 30.584C101.578 30.7184 101.531 30.827 101.438 30.9097C101.35 30.9925 101.242 31.0338 101.112 31.0338ZM108.983 26.1631V26.7138H108.828C108.667 26.75 108.494 26.8301 108.308 26.9542C108.122 27.0731 107.946 27.2308 107.781 27.4273C107.615 27.6186 107.478 27.8436 107.37 28.1021C107.266 28.3606 107.214 28.645 107.214 28.9552C107.214 29.3275 107.269 29.6248 107.377 29.8472C107.491 30.0643 107.631 30.2195 107.796 30.3125C107.962 30.4056 108.127 30.4521 108.292 30.4521C108.422 30.4521 108.53 30.4392 108.618 30.4134C108.706 30.3875 108.807 30.341 108.921 30.2738L109.192 30.7469C109.058 30.8503 108.91 30.9227 108.75 30.964C108.59 31.0054 108.427 31.0261 108.261 31.0261C107.936 31.0261 107.649 30.9408 107.401 30.7701C107.152 30.5995 106.956 30.3617 106.811 30.0566C106.671 29.7464 106.602 29.3844 106.602 28.9708C106.602 28.5726 106.664 28.2184 106.788 27.9082C106.917 27.5928 107.083 27.3187 107.284 27.0861C107.491 26.8534 107.713 26.6621 107.951 26.5121C108.189 26.357 108.419 26.2407 108.641 26.1631H108.983ZM113.983 26.1631V26.7138H113.169V30.9873H112.571C112.375 30.7029 112.142 30.4366 111.873 30.1884C111.605 29.9351 111.297 29.7179 110.95 29.5369C110.609 29.3508 110.224 29.219 109.795 29.1414L109.616 28.4201L110.02 28.6915C110.454 28.7743 110.834 28.8984 111.16 29.0638C111.491 29.2241 111.775 29.4077 112.013 29.6145C112.251 29.8162 112.442 30.023 112.587 30.235C112.582 30.1161 112.577 29.9971 112.571 29.8782C112.571 29.7593 112.571 29.63 112.571 29.4904V25.6512H112.983L113.161 26.1631H113.983ZM110.539 26.1398C110.865 26.1398 111.137 26.1967 111.354 26.3105C111.571 26.4191 111.734 26.569 111.842 26.7603C111.951 26.9465 112.005 27.1559 112.005 27.3886C112.005 27.7919 111.837 28.1202 111.501 28.3736C111.17 28.6269 110.713 28.7872 110.128 28.8544L109.756 28.7769L109.616 28.4201C110.051 28.3891 110.397 28.327 110.656 28.2339C110.914 28.1357 111.098 28.0142 111.206 27.8694C111.32 27.7195 111.377 27.554 111.377 27.373C111.377 27.1507 111.305 26.9801 111.16 26.8611C111.015 26.7422 110.803 26.6828 110.524 26.6828C110.265 26.6828 110.079 26.7345 109.965 26.8379C109.857 26.9361 109.803 27.0421 109.803 27.1559C109.803 27.2283 109.821 27.2955 109.857 27.3575C109.898 27.4196 109.968 27.4765 110.066 27.5282L109.725 28.009C109.627 27.9418 109.536 27.8694 109.454 27.7919C109.376 27.7091 109.314 27.6135 109.267 27.5049C109.221 27.3963 109.198 27.2722 109.198 27.1326C109.198 26.9516 109.249 26.7862 109.353 26.6362C109.456 26.4863 109.609 26.3674 109.81 26.2795C110.012 26.1864 110.255 26.1398 110.539 26.1398ZM116.663 26.1631V26.7138H116.508C116.348 26.75 116.174 26.8301 115.988 26.9542C115.802 27.0731 115.626 27.2308 115.461 27.4273C115.295 27.6186 115.158 27.8436 115.05 28.1021C114.946 28.3606 114.895 28.645 114.895 28.9552C114.895 29.3275 114.949 29.6248 115.057 29.8472C115.171 30.0643 115.311 30.2195 115.476 30.3125C115.642 30.4056 115.807 30.4521 115.973 30.4521C116.102 30.4521 116.211 30.4392 116.298 30.4134C116.386 30.3875 116.487 30.341 116.601 30.2738L116.872 30.7469C116.738 30.8503 116.591 30.9227 116.43 30.964C116.27 31.0054 116.11 31.0261 115.949 31.0261C115.624 31.0261 115.334 30.9408 115.081 30.7701C114.833 30.5995 114.636 30.3617 114.491 30.0566C114.352 29.7464 114.282 29.3844 114.282 28.9708C114.282 28.5468 114.362 28.1641 114.522 27.8229C114.683 27.4765 114.897 27.1843 115.166 26.9465C115.44 26.7086 115.743 26.5354 116.073 26.4268L115.577 26.6828C115.484 26.6931 115.383 26.7009 115.275 26.706C115.166 26.7112 115.045 26.7138 114.91 26.7138H113.824V26.1631H116.663ZM122.92 26.1631V26.7138H120.399V27.1947V27.3187V30.9873H119.802C119.652 30.6822 119.442 30.3953 119.174 30.1264C118.905 29.8575 118.597 29.6326 118.251 29.4516C117.909 29.2655 117.55 29.1491 117.173 29.1026L116.87 28.358C117.372 28.0685 117.873 27.81 118.375 27.5824C118.876 27.3549 119.409 27.1533 119.972 26.9775L119.802 27.3032V26.7138H116.506V26.1631H122.92ZM119.802 27.3653L119.965 27.5902C119.701 27.6626 119.427 27.7583 119.143 27.8772C118.863 27.9961 118.589 28.1202 118.32 28.2495C118.057 28.3787 117.814 28.5054 117.591 28.6295C117.881 28.6864 118.178 28.795 118.483 28.9552C118.794 29.1155 119.075 29.312 119.329 29.5447C119.587 29.7722 119.779 30.0204 119.903 30.2893L119.841 30.3048C119.83 30.1859 119.82 30.0669 119.81 29.948C119.804 29.8291 119.802 29.6869 119.802 29.5214V27.3653ZM122.485 28.7536C122.485 28.9242 122.452 29.0871 122.385 29.2422C122.317 29.3922 122.206 29.5163 122.051 29.6145C121.896 29.7127 121.689 29.7619 121.431 29.7619C121.348 29.7619 121.268 29.7593 121.19 29.7541C121.118 29.7489 121.045 29.7386 120.973 29.7231L121.019 29.1647C121.051 29.1698 121.087 29.175 121.128 29.1802C121.175 29.1802 121.226 29.1802 121.283 29.1802C121.531 29.1802 121.692 29.1336 121.764 29.0406C121.842 28.9423 121.88 28.826 121.88 28.6915C121.88 28.4175 121.746 28.1848 121.477 27.9935C121.213 27.797 120.82 27.6626 120.298 27.5902L120.321 27.0085C120.72 27.0499 121.082 27.1507 121.407 27.311C121.733 27.4661 121.994 27.6678 122.191 27.916C122.387 28.159 122.485 28.4382 122.485 28.7536Z" fill="white"/>
</svg>
