<svg width="314" height="41" viewBox="0 0 314 41" fill="none" xmlns="http://www.w3.org/2000/svg">
<mask id="path-1-inside-1_3711_47826" fill="white">
<path d="M0 8C0 3.58172 3.58172 0 8 0L306 0C310.418 0 314 3.58172 314 8V41L0 41L0 8Z"/>
</mask>
<path d="M0 8C0 3.58172 3.58172 0 8 0L306 0C310.418 0 314 3.58172 314 8V41L0 41L0 8Z" fill="#1C1F26"/>
<path d="M-1 8C-1 3.02944 3.02944 -1 8 -1L306 -1C310.971 -1 315 3.02944 315 8L313 8C313 4.13401 309.866 1 306 1L8 1C4.13401 1 1 4.13401 1 8H-1ZM314 41L0 41L314 41ZM-1 41L-1 8C-1 3.02944 3.02944 -1 8 -1V1C4.13401 1 1 4.13401 1 8L1 41H-1ZM306 -1C310.971 -1 315 3.02944 315 8V41H313V8C313 4.13401 309.866 1 306 1V-1Z" fill="#3BAFDA" mask="url(#path-1-inside-1_3711_47826)"/>
<path d="M20.2313 19C20.1219 18.6652 19.9777 18.3653 19.7987 18.1001C19.6231 17.8317 19.4126 17.603 19.1673 17.4141C18.9254 17.2251 18.6503 17.081 18.3421 16.9815C18.0338 16.8821 17.6958 16.8324 17.3279 16.8324C16.7246 16.8324 16.1761 16.9882 15.6823 17.2997C15.1884 17.6113 14.7957 18.0703 14.504 18.6768C14.2123 19.2834 14.0665 20.0275 14.0665 20.9091C14.0665 21.7907 14.214 22.5348 14.509 23.1413C14.8039 23.7479 15.2033 24.2069 15.7071 24.5185C16.2109 24.83 16.7777 24.9858 17.4074 24.9858C17.9907 24.9858 18.5045 24.8615 18.9486 24.6129C19.396 24.361 19.7441 24.0064 19.9926 23.549C20.2445 23.0883 20.3705 22.5464 20.3705 21.9233L20.7483 22.0028H17.6858V20.9091H21.5637V22.0028C21.5637 22.8414 21.3847 23.5705 21.0267 24.1903C20.6721 24.8101 20.1816 25.2907 19.5551 25.6321C18.932 25.9702 18.2161 26.1392 17.4074 26.1392C16.5059 26.1392 15.7137 25.9271 15.031 25.5028C14.3515 25.0786 13.8212 24.4754 13.4401 23.6932C13.0622 22.911 12.8733 21.983 12.8733 20.9091C12.8733 20.1037 12.981 19.3795 13.1965 18.7365C13.4152 18.0902 13.7235 17.54 14.1212 17.0859C14.5189 16.6319 14.9896 16.2839 15.5331 16.0419C16.0767 15.8 16.6749 15.679 17.3279 15.679C17.8648 15.679 18.3653 15.7602 18.8293 15.9226C19.2966 16.0817 19.7126 16.3087 20.0771 16.6037C20.445 16.8954 20.7516 17.245 20.9969 17.6527C21.2422 18.0571 21.4112 18.5062 21.504 19H20.2313ZM26.6185 26.1591C25.9291 26.1591 25.3242 25.995 24.8039 25.6669C24.2868 25.3388 23.8825 24.8797 23.5908 24.2898C23.3025 23.6998 23.1583 23.0104 23.1583 22.2216C23.1583 21.4261 23.3025 20.7318 23.5908 20.1385C23.8825 19.5452 24.2868 19.0845 24.8039 18.7564C25.3242 18.4283 25.9291 18.2642 26.6185 18.2642C27.3079 18.2642 27.9111 18.4283 28.4282 18.7564C28.9485 19.0845 29.3529 19.5452 29.6412 20.1385C29.9329 20.7318 30.0787 21.4261 30.0787 22.2216C30.0787 23.0104 29.9329 23.6998 29.6412 24.2898C29.3529 24.8797 28.9485 25.3388 28.4282 25.6669C27.9111 25.995 27.3079 26.1591 26.6185 26.1591ZM26.6185 25.1051C27.1422 25.1051 27.5731 24.9709 27.9111 24.7024C28.2492 24.4339 28.4994 24.081 28.6618 23.6435C28.8242 23.206 28.9055 22.732 28.9055 22.2216C28.9055 21.7112 28.8242 21.2356 28.6618 20.7947C28.4994 20.3539 28.2492 19.9976 27.9111 19.7259C27.5731 19.4541 27.1422 19.3182 26.6185 19.3182C26.0948 19.3182 25.664 19.4541 25.3259 19.7259C24.9878 19.9976 24.7376 20.3539 24.5752 20.7947C24.4128 21.2356 24.3316 21.7112 24.3316 22.2216C24.3316 22.732 24.4128 23.206 24.5752 23.6435C24.7376 24.081 24.9878 24.4339 25.3259 24.7024C25.664 24.9709 26.0948 25.1051 26.6185 25.1051ZM34.972 26.1591C34.2826 26.1591 33.6778 25.995 33.1574 25.6669C32.6404 25.3388 32.236 24.8797 31.9443 24.2898C31.656 23.6998 31.5118 23.0104 31.5118 22.2216C31.5118 21.4261 31.656 20.7318 31.9443 20.1385C32.236 19.5452 32.6404 19.0845 33.1574 18.7564C33.6778 18.4283 34.2826 18.2642 34.972 18.2642C35.6614 18.2642 36.2646 18.4283 36.7817 18.7564C37.3021 19.0845 37.7064 19.5452 37.9948 20.1385C38.2864 20.7318 38.4323 21.4261 38.4323 22.2216C38.4323 23.0104 38.2864 23.6998 37.9948 24.2898C37.7064 24.8797 37.3021 25.3388 36.7817 25.6669C36.2646 25.995 35.6614 26.1591 34.972 26.1591ZM34.972 25.1051C35.4957 25.1051 35.9266 24.9709 36.2646 24.7024C36.6027 24.4339 36.853 24.081 37.0154 23.6435C37.1778 23.206 37.259 22.732 37.259 22.2216C37.259 21.7112 37.1778 21.2356 37.0154 20.7947C36.853 20.3539 36.6027 19.9976 36.2646 19.7259C35.9266 19.4541 35.4957 19.3182 34.972 19.3182C34.4484 19.3182 34.0175 19.4541 33.6794 19.7259C33.3414 19.9976 33.0911 20.3539 32.9287 20.7947C32.7663 21.2356 32.6851 21.7112 32.6851 22.2216C32.6851 22.732 32.7663 23.206 32.9287 23.6435C33.0911 24.081 33.3414 24.4339 33.6794 24.7024C34.0175 24.9709 34.4484 25.1051 34.972 25.1051ZM43.3057 29.0227C42.7389 29.0227 42.2517 28.9498 41.844 28.804C41.4363 28.6615 41.0966 28.4725 40.8248 28.2372C40.5564 28.0052 40.3426 27.7566 40.1835 27.4915L41.1182 26.8352C41.2242 26.9744 41.3585 27.1335 41.5209 27.3125C41.6833 27.4948 41.9053 27.6522 42.1871 27.7848C42.4721 27.9207 42.845 27.9886 43.3057 27.9886C43.9221 27.9886 44.4309 27.8395 44.8319 27.5412C45.233 27.2429 45.4335 26.7756 45.4335 26.1392V24.5881H45.3341C45.2479 24.7273 45.1253 24.8996 44.9662 25.1051C44.8104 25.3073 44.585 25.4879 44.29 25.647C43.9984 25.8028 43.604 25.8807 43.1068 25.8807C42.4903 25.8807 41.9368 25.7348 41.4463 25.4432C40.9591 25.1515 40.5729 24.7273 40.2879 24.1705C40.0062 23.6136 39.8653 22.9375 39.8653 22.142C39.8653 21.3598 40.0029 20.6787 40.278 20.0987C40.5531 19.5154 40.9359 19.0646 41.4264 18.7464C41.9169 18.425 42.4837 18.2642 43.1267 18.2642C43.6238 18.2642 44.0183 18.3471 44.3099 18.5128C44.6049 18.6752 44.8303 18.8608 44.9861 19.0696C45.1452 19.2751 45.2678 19.4441 45.354 19.5767H45.4733V18.3636H46.6068V26.2188C46.6068 26.875 46.4577 27.4086 46.1594 27.8196C45.8644 28.2339 45.4666 28.5372 44.9662 28.7294C44.469 28.925 43.9155 29.0227 43.3057 29.0227ZM43.2659 24.8267C43.7365 24.8267 44.1343 24.719 44.4591 24.5036C44.7839 24.2881 45.0308 23.9782 45.1998 23.5739C45.3689 23.1695 45.4534 22.6856 45.4534 22.1222C45.4534 21.572 45.3705 21.0864 45.2048 20.6655C45.0391 20.2446 44.7938 19.9148 44.469 19.6761C44.1442 19.4375 43.7432 19.3182 43.2659 19.3182C42.7687 19.3182 42.3544 19.4441 42.023 19.696C41.6949 19.9479 41.4479 20.286 41.2822 20.7102C41.1198 21.1345 41.0386 21.6051 41.0386 22.1222C41.0386 22.6525 41.1215 23.1214 41.2872 23.5291C41.4562 23.9335 41.7048 24.2517 42.0329 24.4837C42.3644 24.7124 42.7754 24.8267 43.2659 24.8267ZM49.9278 15.8182V26H48.7545V15.8182L49.9278 15.8182ZM55.2785 26.1591C54.5427 26.1591 53.908 25.9967 53.3744 25.6719C52.8441 25.3438 52.4347 24.8864 52.1464 24.2997C51.8614 23.7098 51.7188 23.0237 51.7188 22.2415C51.7188 21.4593 51.8614 20.7699 52.1464 20.1733C52.4347 19.5734 52.8358 19.1061 53.3495 18.7713C53.8666 18.4332 54.4698 18.2642 55.1592 18.2642C55.5569 18.2642 55.9497 18.3305 56.3374 18.4631C56.7252 18.5956 57.0782 18.8111 57.3964 19.1094C57.7146 19.4044 57.9681 19.7955 58.157 20.2827C58.346 20.7699 58.4404 21.3698 58.4404 22.0824V22.5795H52.5541V21.5653H57.2472C57.2472 21.1345 57.1611 20.75 56.9887 20.4119C56.8197 20.0739 56.5777 19.8071 56.2629 19.6115C55.9513 19.416 55.5834 19.3182 55.1592 19.3182C54.6919 19.3182 54.2875 19.4342 53.9461 19.6662C53.608 19.8949 53.3479 20.1932 53.1656 20.5611C52.9833 20.929 52.8921 21.3234 52.8921 21.7443V22.4205C52.8921 22.9972 52.9916 23.486 53.1904 23.8871C53.3926 24.2848 53.6727 24.5881 54.0306 24.7969C54.3886 25.0024 54.8045 25.1051 55.2785 25.1051C55.5867 25.1051 55.8651 25.062 56.1137 24.9759C56.3656 24.8864 56.5827 24.7538 56.765 24.5781C56.9473 24.3991 57.0882 24.1771 57.1876 23.9119L58.3211 24.2301C58.2018 24.6146 58.0013 24.9527 57.7195 25.2443C57.4378 25.5327 57.0898 25.758 56.6755 25.9205C56.2612 26.0795 55.7955 26.1591 55.2785 26.1591ZM67.0463 26.1392C66.3767 26.1392 65.8 26.0166 65.3161 25.7713C64.8322 25.526 64.4594 25.1896 64.1975 24.7621C63.9357 24.3345 63.8048 23.8456 63.8048 23.2955C63.8048 22.8712 63.8943 22.495 64.0732 22.1669C64.2555 21.8355 64.5058 21.5289 64.824 21.2472C65.1454 20.9621 65.515 20.6771 65.9326 20.392L67.4042 19.2983C67.6926 19.1094 67.9229 18.9072 68.0953 18.6918C68.2709 18.4763 68.3588 18.1946 68.3588 17.8466C68.3588 17.5881 68.2444 17.3378 68.0157 17.0959C67.7903 16.8539 67.4937 16.733 67.1258 16.733C66.8673 16.733 66.6386 16.7992 66.4397 16.9318C66.2442 17.0611 66.0901 17.2268 65.9774 17.429C65.868 17.6278 65.8133 17.8333 65.8133 18.0455C65.8133 18.2841 65.8779 18.526 66.0072 18.7713C66.1398 19.0133 66.3071 19.2618 66.5093 19.517C66.7148 19.7689 66.9269 20.0275 67.1457 20.2926L71.819 26H70.407L66.5491 21.3466C66.1911 20.9157 65.8663 20.5246 65.5747 20.1733C65.283 19.822 65.051 19.4756 64.8786 19.1342C64.7063 18.7929 64.6201 18.4233 64.6201 18.0256C64.6201 17.5682 64.7212 17.1671 64.9234 16.8224C65.1289 16.4744 65.4156 16.2043 65.7835 16.0121C66.1547 15.8165 66.5889 15.7188 67.086 15.7188C67.5964 15.7188 68.0356 15.8182 68.4035 16.017C68.7714 16.2126 69.0548 16.4728 69.2536 16.7976C69.4525 17.1191 69.5519 17.4688 69.5519 17.8466C69.5519 18.3338 69.431 18.7564 69.189 19.1143C68.9471 19.4723 68.6173 19.8054 68.1997 20.1136L66.1713 21.625C65.7139 21.9631 65.404 22.2912 65.2416 22.6094C65.0792 22.9276 64.998 23.1562 64.998 23.2955C64.998 23.6136 65.0808 23.9103 65.2465 24.1854C65.4123 24.4605 65.6459 24.6825 65.9475 24.8516C66.2491 25.0206 66.6021 25.1051 67.0065 25.1051C67.391 25.1051 67.7655 25.0239 68.1301 24.8615C68.4946 24.6958 68.8244 24.4571 69.1194 24.1456C69.4177 23.834 69.653 23.4595 69.8254 23.022C70.001 22.5845 70.0889 22.0923 70.0889 21.5455H71.2224C71.2224 22.2216 71.1445 22.7734 70.9887 23.201C70.8329 23.6286 70.6573 23.9633 70.4617 24.2053C70.2662 24.4472 70.1088 24.6278 69.9894 24.7472C69.9497 24.7969 69.9132 24.8466 69.8801 24.8963C69.8469 24.946 69.8105 24.9957 69.7707 25.0455C69.4426 25.4134 69.0283 25.6884 68.5278 25.8707C68.0273 26.0497 67.5335 26.1392 67.0463 26.1392ZM77.632 26H76.3394L80.078 15.8182H81.3508L85.0894 26L83.7968 26L80.7542 17.429H80.6746L77.632 26ZM78.1093 22.0227H83.3195V23.1165H78.1093V22.0227ZM86.5162 28.8636V18.3636L87.6498 18.3636V19.5767H87.789C87.8751 19.4441 87.9945 19.2751 88.1469 19.0696C88.3027 18.8608 88.5248 18.6752 88.8131 18.5128C89.1048 18.3471 89.4992 18.2642 89.9964 18.2642C90.6394 18.2642 91.2061 18.425 91.6966 18.7464C92.1872 19.0679 92.57 19.5237 92.8451 20.1136C93.1202 20.7036 93.2577 21.3996 93.2577 22.2017C93.2577 23.0104 93.1202 23.7114 92.8451 24.3047C92.57 24.8946 92.1888 25.352 91.7016 25.6768C91.2144 25.9983 90.6526 26.1591 90.0162 26.1591C89.5257 26.1591 89.133 26.0779 88.838 25.9155C88.543 25.7498 88.316 25.5625 88.1569 25.3537C87.9978 25.1416 87.8751 24.9659 87.789 24.8267H87.6895V28.8636H86.5162ZM87.6697 22.1818C87.6697 22.7585 87.7542 23.2673 87.9232 23.7081C88.0922 24.1456 88.3392 24.4886 88.664 24.7372C88.9888 24.9825 89.3865 25.1051 89.8572 25.1051C90.3477 25.1051 90.757 24.9759 91.0851 24.7173C91.4166 24.4555 91.6652 24.1042 91.8309 23.6634C91.9999 23.2192 92.0844 22.7254 92.0844 22.1818C92.0844 21.6449 92.0016 21.161 91.8358 20.7301C91.6734 20.2959 91.4265 19.9529 91.0951 19.701C90.767 19.4458 90.3543 19.3182 89.8572 19.3182C89.3799 19.3182 88.9788 19.4392 88.654 19.6811C88.3292 19.9197 88.084 20.2545 87.9182 20.6854C87.7525 21.1129 87.6697 21.6117 87.6697 22.1818ZM95.0475 28.8636V18.3636H96.181V19.5767H96.3202C96.4064 19.4441 96.5257 19.2751 96.6782 19.0696C96.834 18.8608 97.056 18.6752 97.3444 18.5128C97.636 18.3471 98.0305 18.2642 98.5276 18.2642C99.1706 18.2642 99.7374 18.425 100.228 18.7464C100.718 19.0679 101.101 19.5237 101.376 20.1136C101.651 20.7036 101.789 21.3996 101.789 22.2017C101.789 23.0104 101.651 23.7114 101.376 24.3047C101.101 24.8946 100.72 25.352 100.233 25.6768C99.7457 25.9983 99.1839 26.1591 98.5475 26.1591C98.057 26.1591 97.6642 26.0779 97.3692 25.9155C97.0742 25.7498 96.8472 25.5625 96.6881 25.3537C96.529 25.1416 96.4064 24.9659 96.3202 24.8267H96.2208V28.8636H95.0475ZM96.2009 22.1818C96.2009 22.7585 96.2854 23.2673 96.4545 23.7081C96.6235 24.1456 96.8704 24.4886 97.1952 24.7372C97.52 24.9825 97.9178 25.1051 98.3884 25.1051C98.8789 25.1051 99.2883 24.9759 99.6164 24.7173C99.9478 24.4555 100.196 24.1042 100.362 23.6634C100.531 23.2192 100.616 22.7254 100.616 22.1818C100.616 21.6449 100.533 21.161 100.367 20.7301C100.205 20.2959 99.9578 19.9529 99.6263 19.701C99.2982 19.4458 98.8856 19.3182 98.3884 19.3182C97.9111 19.3182 97.5101 19.4392 97.1853 19.6811C96.8605 19.9197 96.6152 20.2545 96.4495 20.6854C96.2838 21.1129 96.2009 21.6117 96.2009 22.1818ZM104.752 15.8182V26H103.579V15.8182H104.752ZM110.103 26.1591C109.367 26.1591 108.732 25.9967 108.199 25.6719C107.668 25.3438 107.259 24.8864 106.971 24.2997C106.686 23.7098 106.543 23.0237 106.543 22.2415C106.543 21.4593 106.686 20.7699 106.971 20.1733C107.259 19.5734 107.66 19.1061 108.174 18.7713C108.691 18.4332 109.294 18.2642 109.983 18.2642C110.381 18.2642 110.774 18.3305 111.162 18.4631C111.549 18.5956 111.902 18.8111 112.221 19.1094C112.539 19.4044 112.792 19.7955 112.981 20.2827C113.17 20.7699 113.265 21.3698 113.265 22.0824V22.5795H107.378V21.5653H112.071C112.071 21.1345 111.985 20.75 111.813 20.4119C111.644 20.0739 111.402 19.8071 111.087 19.6115C110.776 19.416 110.408 19.3182 109.983 19.3182C109.516 19.3182 109.112 19.4342 108.77 19.6662C108.432 19.8949 108.172 20.1932 107.99 20.5611C107.807 20.929 107.716 21.3234 107.716 21.7443V22.4205C107.716 22.9972 107.816 23.486 108.015 23.8871C108.217 24.2848 108.497 24.5881 108.855 24.7969C109.213 25.0024 109.629 25.1051 110.103 25.1051C110.411 25.1051 110.689 25.062 110.938 24.9759C111.19 24.8864 111.407 24.7538 111.589 24.5781C111.772 24.3991 111.912 24.1771 112.012 23.9119L113.145 24.2301C113.026 24.6146 112.825 24.9527 112.544 25.2443C112.262 25.5327 111.914 25.758 111.5 25.9205C111.085 26.0795 110.62 26.1591 110.103 26.1591ZM125.828 15.8182H127.061V22.5597C127.061 23.2557 126.897 23.8771 126.569 24.424C126.244 24.9676 125.785 25.3968 125.191 25.7116C124.598 26.0232 123.902 26.179 123.103 26.179C122.305 26.179 121.609 26.0232 121.015 25.7116C120.422 25.3968 119.961 24.9676 119.633 24.424C119.308 23.8771 119.146 23.2557 119.146 22.5597V15.8182H120.379V22.4602C120.379 22.9574 120.488 23.3999 120.707 23.7876C120.926 24.1721 121.237 24.4754 121.642 24.6974C122.049 24.9162 122.537 25.0256 123.103 25.0256C123.67 25.0256 124.157 24.9162 124.565 24.6974C124.973 24.4754 125.284 24.1721 125.5 23.7876C125.718 23.3999 125.828 22.9574 125.828 22.4602V15.8182ZM134.773 20.0739L133.719 20.3722C133.653 20.1965 133.555 20.0258 133.426 19.8601C133.3 19.6911 133.127 19.5518 132.909 19.4425C132.69 19.3331 132.41 19.2784 132.068 19.2784C131.601 19.2784 131.212 19.3861 130.9 19.6016C130.592 19.8137 130.438 20.0838 130.438 20.4119C130.438 20.7036 130.544 20.9339 130.756 21.103C130.968 21.272 131.3 21.4129 131.75 21.5256L132.884 21.804C133.567 21.9697 134.075 22.2232 134.41 22.5646C134.745 22.9027 134.912 23.3385 134.912 23.8722C134.912 24.3097 134.786 24.7008 134.534 25.0455C134.286 25.3902 133.938 25.6619 133.49 25.8608C133.043 26.0597 132.523 26.1591 131.929 26.1591C131.15 26.1591 130.506 25.9901 129.995 25.652C129.485 25.3139 129.162 24.8201 129.026 24.1705L130.139 23.892C130.246 24.303 130.446 24.6113 130.741 24.8168C131.039 25.0223 131.429 25.125 131.909 25.125C132.456 25.125 132.89 25.009 133.212 24.777C133.537 24.5417 133.699 24.2599 133.699 23.9318C133.699 23.6667 133.606 23.4446 133.421 23.2656C133.235 23.0833 132.95 22.9474 132.566 22.858L131.293 22.5597C130.594 22.3939 130.08 22.1371 129.752 21.7891C129.427 21.4377 129.264 20.9986 129.264 20.4716C129.264 20.0407 129.385 19.6596 129.627 19.3281C129.873 18.9967 130.206 18.7365 130.627 18.5476C131.051 18.3587 131.532 18.2642 132.068 18.2642C132.824 18.2642 133.417 18.4299 133.848 18.7614C134.282 19.0928 134.591 19.5303 134.773 20.0739ZM139.88 26.1591C139.144 26.1591 138.51 25.9967 137.976 25.6719C137.446 25.3438 137.036 24.8864 136.748 24.2997C136.463 23.7098 136.32 23.0237 136.32 22.2415C136.32 21.4593 136.463 20.7699 136.748 20.1733C137.036 19.5734 137.437 19.1061 137.951 18.7713C138.468 18.4332 139.071 18.2642 139.761 18.2642C140.158 18.2642 140.551 18.3305 140.939 18.4631C141.327 18.5956 141.68 18.8111 141.998 19.1094C142.316 19.4044 142.57 19.7955 142.759 20.2827C142.948 20.7699 143.042 21.3698 143.042 22.0824V22.5795H137.156V21.5653H141.849C141.849 21.1345 141.763 20.75 141.59 20.4119C141.421 20.0739 141.179 19.8071 140.864 19.6115C140.553 19.416 140.185 19.3182 139.761 19.3182C139.293 19.3182 138.889 19.4342 138.548 19.6662C138.21 19.8949 137.949 20.1932 137.767 20.5611C137.585 20.929 137.494 21.3234 137.494 21.7443V22.4205C137.494 22.9972 137.593 23.486 137.792 23.8871C137.994 24.2848 138.274 24.5881 138.632 24.7969C138.99 25.0024 139.406 25.1051 139.88 25.1051C140.188 25.1051 140.467 25.062 140.715 24.9759C140.967 24.8864 141.184 24.7538 141.367 24.5781C141.549 24.3991 141.69 24.1771 141.789 23.9119L142.923 24.2301C142.803 24.6146 142.603 24.9527 142.321 25.2443C142.039 25.5327 141.691 25.758 141.277 25.9205C140.863 26.0795 140.397 26.1591 139.88 26.1591ZM144.827 26V18.3636H145.96V19.517H146.04C146.179 19.1392 146.431 18.8326 146.796 18.5973C147.16 18.362 147.571 18.2443 148.028 18.2443C148.115 18.2443 148.222 18.246 148.352 18.2493C148.481 18.2526 148.579 18.2576 148.645 18.2642V19.4574C148.605 19.4474 148.514 19.4325 148.372 19.4126C148.232 19.3894 148.085 19.3778 147.929 19.3778C147.558 19.3778 147.226 19.4557 146.935 19.6115C146.646 19.764 146.418 19.9761 146.249 20.2479C146.083 20.5163 146 20.8229 146 21.1676V26H144.827Z" fill="white"/>
<path d="M159.233 26V15.8182H162.673C163.469 15.8182 164.122 15.9541 164.632 16.2259C165.143 16.4943 165.52 16.8639 165.766 17.3345C166.011 17.8052 166.134 18.3404 166.134 18.9403C166.134 19.5402 166.011 20.0722 165.766 20.5362C165.52 21.0002 165.144 21.3648 164.637 21.63C164.13 21.8918 163.482 22.0227 162.693 22.0227H159.909V20.9091H162.653C163.197 20.9091 163.634 20.8295 163.966 20.6705C164.301 20.5114 164.543 20.286 164.692 19.9943C164.844 19.6993 164.92 19.348 164.92 18.9403C164.92 18.5327 164.844 18.1764 164.692 17.8714C164.539 17.5665 164.296 17.3312 163.961 17.1655C163.626 16.9964 163.184 16.9119 162.634 16.9119H160.466V26H159.233ZM164.026 21.4261L166.531 26H165.099L162.634 21.4261H164.026ZM170.276 26.179C169.792 26.179 169.353 26.0878 168.959 25.9055C168.564 25.7199 168.251 25.4531 168.019 25.1051C167.787 24.7538 167.671 24.3295 167.671 23.8324C167.671 23.3949 167.757 23.0402 167.93 22.7685C168.102 22.4934 168.332 22.2779 168.621 22.1222C168.909 21.9664 169.227 21.8504 169.575 21.7741C169.926 21.6946 170.279 21.6316 170.634 21.5852C171.098 21.5256 171.474 21.4808 171.763 21.451C172.054 21.4179 172.266 21.3632 172.399 21.2869C172.535 21.2107 172.603 21.0781 172.603 20.8892V20.8494C172.603 20.3589 172.469 19.9777 172.2 19.706C171.935 19.4342 171.532 19.2983 170.992 19.2983C170.432 19.2983 169.993 19.4209 169.675 19.6662C169.356 19.9115 169.133 20.1733 169.003 20.4517L167.89 20.054C168.089 19.59 168.354 19.2287 168.685 18.9702C169.02 18.7083 169.385 18.526 169.779 18.4233C170.177 18.3172 170.568 18.2642 170.952 18.2642C171.198 18.2642 171.479 18.294 171.797 18.3537C172.119 18.41 172.429 18.5277 172.727 18.7067C173.029 18.8857 173.279 19.1558 173.478 19.517C173.677 19.8783 173.776 20.3622 173.776 20.9688V26H172.603V24.9659H172.543C172.464 25.1316 172.331 25.3089 172.145 25.4979C171.96 25.6868 171.713 25.8475 171.405 25.9801C171.096 26.1127 170.72 26.179 170.276 26.179ZM170.455 25.125C170.919 25.125 171.31 25.0339 171.628 24.8516C171.95 24.6693 172.192 24.4339 172.354 24.1456C172.52 23.8572 172.603 23.554 172.603 23.2358V22.1619C172.553 22.2216 172.444 22.2763 172.275 22.326C172.109 22.3724 171.917 22.4138 171.698 22.4503C171.483 22.4834 171.272 22.5133 171.067 22.5398C170.864 22.563 170.7 22.5829 170.574 22.5994C170.269 22.6392 169.984 22.7038 169.719 22.7933C169.457 22.8795 169.245 23.0104 169.083 23.1861C168.924 23.3584 168.844 23.5937 168.844 23.892C168.844 24.2997 168.995 24.608 169.297 24.8168C169.602 25.0223 169.988 25.125 170.455 25.125ZM179.239 18.3636V19.358H175.281V18.3636H179.239ZM176.435 16.5341H177.608V23.8125C177.608 24.1439 177.656 24.3925 177.752 24.5582C177.852 24.7206 177.978 24.83 178.13 24.8864C178.286 24.9394 178.45 24.9659 178.622 24.9659C178.751 24.9659 178.857 24.9593 178.94 24.946C179.023 24.9295 179.089 24.9162 179.139 24.9063L179.378 25.9602C179.298 25.9901 179.187 26.0199 179.045 26.0497C178.902 26.0829 178.722 26.0994 178.503 26.0994C178.171 26.0994 177.847 26.0282 177.528 25.8857C177.214 25.7431 176.952 25.526 176.743 25.2344C176.537 24.9427 176.435 24.5748 176.435 24.1307V16.5341ZM181.004 26V18.3636H182.177V26H181.004ZM181.6 17.0909C181.371 17.0909 181.174 17.013 181.009 16.8572C180.846 16.7015 180.765 16.5142 180.765 16.2955C180.765 16.0767 180.846 15.8894 181.009 15.7337C181.174 15.5779 181.371 15.5 181.6 15.5C181.829 15.5 182.024 15.5779 182.187 15.7337C182.353 15.8894 182.435 16.0767 182.435 16.2955C182.435 16.5142 182.353 16.7015 182.187 16.8572C182.024 17.013 181.829 17.0909 181.6 17.0909ZM185.499 21.4063V26H184.326V18.3636H185.459V19.5568H185.559C185.738 19.169 186.01 18.8575 186.374 18.6222C186.739 18.3835 187.209 18.2642 187.786 18.2642C188.303 18.2642 188.756 18.3703 189.143 18.5824C189.531 18.7912 189.833 19.1094 190.048 19.5369C190.264 19.9612 190.371 20.4981 190.371 21.1477V26H189.198V21.2273C189.198 20.6274 189.042 20.16 188.731 19.8253C188.419 19.4872 187.992 19.3182 187.448 19.3182C187.073 19.3182 186.739 19.3994 186.444 19.5618C186.152 19.7242 185.922 19.9612 185.753 20.2727C185.584 20.5843 185.499 20.9621 185.499 21.4063ZM195.598 29.0227C195.031 29.0227 194.544 28.9498 194.136 28.804C193.728 28.6615 193.389 28.4725 193.117 28.2372C192.848 28.0052 192.635 27.7566 192.475 27.4915L193.41 26.8352C193.516 26.9744 193.65 27.1335 193.813 27.3125C193.975 27.4948 194.197 27.6522 194.479 27.7848C194.764 27.9207 195.137 27.9886 195.598 27.9886C196.214 27.9886 196.723 27.8395 197.124 27.5412C197.525 27.2429 197.725 26.7756 197.725 26.1392V24.5881H197.626C197.54 24.7273 197.417 24.8996 197.258 25.1051C197.102 25.3073 196.877 25.4879 196.582 25.647C196.29 25.8028 195.896 25.8807 195.399 25.8807C194.782 25.8807 194.229 25.7348 193.738 25.4432C193.251 25.1515 192.865 24.7273 192.58 24.1705C192.298 23.6136 192.157 22.9375 192.157 22.142C192.157 21.3598 192.295 20.6787 192.57 20.0987C192.845 19.5154 193.228 19.0646 193.718 18.7464C194.209 18.425 194.776 18.2642 195.419 18.2642C195.916 18.2642 196.31 18.3471 196.602 18.5128C196.897 18.6752 197.122 18.8608 197.278 19.0696C197.437 19.2751 197.56 19.4441 197.646 19.5767H197.765V18.3636H198.899V26.2188C198.899 26.875 198.75 27.4086 198.451 27.8196C198.156 28.2339 197.759 28.5372 197.258 28.7294C196.761 28.925 196.208 29.0227 195.598 29.0227ZM195.558 24.8267C196.029 24.8267 196.426 24.719 196.751 24.5036C197.076 24.2881 197.323 23.9782 197.492 23.5739C197.661 23.1695 197.745 22.6856 197.745 22.1222C197.745 21.572 197.663 21.0864 197.497 20.6655C197.331 20.2446 197.086 19.9148 196.761 19.6761C196.436 19.4375 196.035 19.3182 195.558 19.3182C195.061 19.3182 194.646 19.4441 194.315 19.696C193.987 19.9479 193.74 20.286 193.574 20.7102C193.412 21.1345 193.331 21.6051 193.331 22.1222C193.331 22.6525 193.413 23.1214 193.579 23.5291C193.748 23.9335 193.997 24.2517 194.325 24.4837C194.656 24.7124 195.067 24.8267 195.558 24.8267Z" fill="#73FF00"/>
<path d="M215.231 14.813C214.775 13.729 213.222 13.729 212.766 14.813L211.597 17.591L208.562 17.8317C207.379 17.925 206.899 19.3857 207.801 20.1497L210.113 22.1077L209.406 25.0357C209.131 26.1777 210.387 27.0803 211.401 26.4683L213.999 24.8997L216.597 26.469C217.61 27.081 218.867 26.1783 218.591 25.0357L217.885 22.109L220.197 20.1503C221.099 19.3863 220.619 17.9263 219.435 17.8323L216.401 17.5923L215.231 14.813Z" fill="#2ECC71"/>
<path d="M235.231 14.813C234.775 13.729 233.222 13.729 232.766 14.813L231.597 17.591L228.562 17.8317C227.379 17.925 226.899 19.3857 227.801 20.1497L230.113 22.1077L229.406 25.0357C229.131 26.1777 230.387 27.0803 231.401 26.4683L233.999 24.8997L236.597 26.469C237.61 27.081 238.867 26.1783 238.591 25.0357L237.885 22.109L240.197 20.1503C241.099 19.3863 240.619 17.9263 239.435 17.8323L236.401 17.5923L235.231 14.813Z" fill="#2ECC71"/>
<path d="M255.233 14.813C254.777 13.729 253.224 13.729 252.768 14.813L251.599 17.591L248.564 17.8317C247.381 17.925 246.901 19.3857 247.803 20.1497L250.115 22.1077L249.408 25.0357C249.133 26.1777 250.389 27.0803 251.403 26.4683L254.001 24.8997L256.599 26.469C257.612 27.081 258.869 26.1783 258.593 25.0357L257.887 22.109L260.199 20.1503C261.101 19.3863 260.621 17.9263 259.437 17.8323L256.403 17.5923L255.233 14.813Z" fill="#2ECC71"/>
<path d="M275.233 14.813C274.777 13.729 273.224 13.729 272.768 14.813L271.599 17.591L268.564 17.8317C267.381 17.925 266.901 19.3857 267.803 20.1497L270.115 22.1077L269.408 25.0357C269.133 26.1777 270.389 27.0803 271.403 26.4683L274.001 24.8997L276.599 26.469C277.612 27.081 278.869 26.1783 278.593 25.0357L277.887 22.109L280.199 20.1503C281.101 19.3863 280.621 17.9263 279.437 17.8323L276.403 17.5923L275.233 14.813Z" fill="#2ECC71"/>
<path d="M295.233 14.813C294.777 13.729 293.224 13.729 292.768 14.813L291.599 17.591L288.564 17.8317C287.381 17.925 286.901 19.3857 287.803 20.1497L290.115 22.1077L289.408 25.0357C289.133 26.1777 290.389 27.0803 291.403 26.4683L294.001 24.8997L296.599 26.469C297.612 27.081 298.869 26.1783 298.593 25.0357L297.887 22.109L300.199 20.1503C301.101 19.3863 300.621 17.9263 299.437 17.8323L296.403 17.5923L295.233 14.813Z" fill="#2ECC71"/>
</svg>
