<svg width="1759" height="1129" viewBox="0 0 1759 1129" fill="none" xmlns="http://www.w3.org/2000/svg">
<path fill-rule="evenodd" clip-rule="evenodd" d="M24 0C10.7452 0 0 10.7452 0 24V1105C0 1118.25 10.7451 1129 24 1129H1732C1745.25 1129 1756 1118.25 1756 1105V24C1756 10.7452 1745.25 0 1732 0H24ZM40 16C26.7452 16 16 26.7451 16 40V1089C16 1102.25 26.7451 1113 40 1113H932C945.255 1113 956 1102.25 956 1089V40C956 26.7452 945.255 16 932 16H40Z" fill="url(#paint0_linear_6079_52068)"/>
<g opacity="0.5">
<g filter="url(#filter0_f_6079_52068)">
<path d="M976.972 414.273V423H975.915V415.381H975.864L973.733 416.795V415.722L975.915 414.273H976.972ZM982.328 423.119C981.686 423.119 981.139 422.945 980.688 422.595C980.236 422.243 979.891 421.733 979.652 421.065C979.413 420.395 979.294 419.585 979.294 418.636C979.294 417.693 979.413 416.888 979.652 416.22C979.893 415.55 980.24 415.038 980.692 414.686C981.146 414.331 981.692 414.153 982.328 414.153C982.964 414.153 983.509 414.331 983.96 414.686C984.415 415.038 984.761 415.55 985 416.22C985.241 416.888 985.362 417.693 985.362 418.636C985.362 419.585 985.243 420.395 985.004 421.065C984.766 421.733 984.42 422.243 983.969 422.595C983.517 422.945 982.97 423.119 982.328 423.119ZM982.328 422.182C982.964 422.182 983.459 421.875 983.811 421.261C984.163 420.648 984.339 419.773 984.339 418.636C984.339 417.881 984.259 417.237 984.097 416.706C983.938 416.175 983.707 415.77 983.406 415.491C983.108 415.213 982.749 415.074 982.328 415.074C981.697 415.074 981.205 415.385 980.849 416.007C980.494 416.626 980.317 417.503 980.317 418.636C980.317 419.392 980.396 420.034 980.555 420.562C980.714 421.091 980.943 421.493 981.241 421.768C981.543 422.044 981.905 422.182 982.328 422.182ZM989.828 423.119C989.186 423.119 988.639 422.945 988.188 422.595C987.736 422.243 987.391 421.733 987.152 421.065C986.913 420.395 986.794 419.585 986.794 418.636C986.794 417.693 986.913 416.888 987.152 416.22C987.393 415.55 987.74 415.038 988.192 414.686C988.646 414.331 989.192 414.153 989.828 414.153C990.464 414.153 991.009 414.331 991.46 414.686C991.915 415.038 992.261 415.55 992.5 416.22C992.741 416.888 992.862 417.693 992.862 418.636C992.862 419.585 992.743 420.395 992.504 421.065C992.266 421.733 991.92 422.243 991.469 422.595C991.017 422.945 990.47 423.119 989.828 423.119ZM989.828 422.182C990.464 422.182 990.959 421.875 991.311 421.261C991.663 420.648 991.839 419.773 991.839 418.636C991.839 417.881 991.759 417.237 991.597 416.706C991.438 416.175 991.207 415.77 990.906 415.491C990.608 415.213 990.249 415.074 989.828 415.074C989.197 415.074 988.705 415.385 988.349 416.007C987.994 416.626 987.817 417.503 987.817 418.636C987.817 419.392 987.896 420.034 988.055 420.562C988.214 421.091 988.443 421.493 988.741 421.768C989.043 422.044 989.405 422.182 989.828 422.182Z" fill="black" fill-opacity="0.7"/>
<path d="M982.682 479.153C983.04 479.156 983.398 479.224 983.756 479.358C984.114 479.491 984.44 479.713 984.736 480.023C985.031 480.33 985.268 480.749 985.447 481.28C985.626 481.811 985.716 482.477 985.716 483.278C985.716 484.054 985.642 484.743 985.494 485.345C985.349 485.945 985.139 486.45 984.864 486.862C984.591 487.274 984.259 487.587 983.866 487.8C983.477 488.013 983.037 488.119 982.545 488.119C982.057 488.119 981.621 488.023 981.237 487.83C980.857 487.634 980.544 487.362 980.3 487.016C980.058 486.666 979.903 486.261 979.835 485.801H980.875C980.969 486.202 981.155 486.533 981.433 486.794C981.714 487.053 982.085 487.182 982.545 487.182C983.219 487.182 983.75 486.888 984.139 486.3C984.531 485.712 984.727 484.881 984.727 483.807H984.659C984.5 484.045 984.311 484.251 984.092 484.425C983.874 484.598 983.631 484.732 983.364 484.825C983.097 484.919 982.813 484.966 982.511 484.966C982.011 484.966 981.553 484.842 981.135 484.595C980.72 484.345 980.388 484.003 980.138 483.568C979.891 483.131 979.767 482.631 979.767 482.068C979.767 481.534 979.886 481.045 980.125 480.602C980.366 480.156 980.705 479.801 981.139 479.537C981.577 479.273 982.091 479.145 982.682 479.153ZM982.682 480.091C982.324 480.091 982.001 480.18 981.714 480.359C981.43 480.536 981.205 480.774 981.037 481.075C980.872 481.374 980.79 481.705 980.79 482.068C980.79 482.432 980.869 482.763 981.028 483.061C981.19 483.357 981.411 483.592 981.689 483.768C981.97 483.942 982.29 484.028 982.648 484.028C982.918 484.028 983.169 483.976 983.402 483.871C983.635 483.763 983.838 483.616 984.011 483.432C984.188 483.244 984.325 483.033 984.425 482.797C984.524 482.558 984.574 482.31 984.574 482.051C984.574 481.71 984.491 481.391 984.327 481.092C984.165 480.794 983.94 480.553 983.653 480.368C983.369 480.183 983.045 480.091 982.682 480.091ZM990.238 488.119C989.596 488.119 989.049 487.945 988.598 487.595C988.146 487.243 987.801 486.733 987.562 486.065C987.324 485.395 987.204 484.585 987.204 483.636C987.204 482.693 987.324 481.888 987.562 481.22C987.804 480.55 988.15 480.038 988.602 479.686C989.056 479.331 989.602 479.153 990.238 479.153C990.875 479.153 991.419 479.331 991.87 479.686C992.325 480.038 992.672 480.55 992.91 481.22C993.152 481.888 993.272 482.693 993.272 483.636C993.272 484.585 993.153 485.395 992.914 486.065C992.676 486.733 992.331 487.243 991.879 487.595C991.427 487.945 990.88 488.119 990.238 488.119ZM990.238 487.182C990.875 487.182 991.369 486.875 991.721 486.261C992.074 485.648 992.25 484.773 992.25 483.636C992.25 482.881 992.169 482.237 992.007 481.706C991.848 481.175 991.618 480.77 991.316 480.491C991.018 480.213 990.659 480.074 990.238 480.074C989.608 480.074 989.115 480.385 988.76 481.007C988.404 481.626 988.227 482.503 988.227 483.636C988.227 484.392 988.306 485.034 988.466 485.562C988.625 486.091 988.853 486.493 989.152 486.768C989.453 487.044 989.815 487.182 990.238 487.182Z" fill="black" fill-opacity="0.7"/>
<path d="M982.699 553.119C982.114 553.119 981.597 553.016 981.148 552.808C980.702 552.598 980.354 552.31 980.104 551.943C979.854 551.574 979.73 551.153 979.733 550.682C979.73 550.312 979.803 549.972 979.95 549.659C980.098 549.344 980.3 549.081 980.555 548.871C980.814 548.658 981.102 548.523 981.42 548.466V548.415C981.003 548.307 980.67 548.072 980.423 547.712C980.176 547.348 980.054 546.935 980.057 546.472C980.054 546.028 980.166 545.632 980.393 545.283C980.621 544.933 980.933 544.658 981.331 544.456C981.732 544.254 982.188 544.153 982.699 544.153C983.205 544.153 983.656 544.254 984.054 544.456C984.452 544.658 984.764 544.933 984.991 545.283C985.222 545.632 985.338 546.028 985.341 546.472C985.338 546.935 985.212 547.348 984.962 547.712C984.714 548.072 984.386 548.307 983.977 548.415V548.466C984.293 548.523 984.577 548.658 984.83 548.871C985.082 549.081 985.284 549.344 985.435 549.659C985.585 549.972 985.662 550.312 985.665 550.682C985.662 551.153 985.534 551.574 985.281 551.943C985.031 552.31 984.683 552.598 984.237 552.808C983.794 553.016 983.281 553.119 982.699 553.119ZM982.699 552.182C983.094 552.182 983.435 552.118 983.722 551.99C984.009 551.862 984.23 551.682 984.386 551.449C984.543 551.216 984.622 550.943 984.625 550.631C984.622 550.301 984.537 550.01 984.369 549.757C984.202 549.504 983.973 549.305 983.683 549.161C983.396 549.016 983.068 548.943 982.699 548.943C982.327 548.943 981.994 549.016 981.702 549.161C981.412 549.305 981.183 549.504 981.016 549.757C980.851 550.01 980.77 550.301 980.773 550.631C980.77 550.943 980.845 551.216 980.999 551.449C981.155 551.682 981.378 551.862 981.668 551.99C981.957 552.118 982.301 552.182 982.699 552.182ZM982.699 548.04C983.011 548.04 983.288 547.977 983.53 547.852C983.774 547.727 983.966 547.553 984.105 547.328C984.244 547.104 984.315 546.841 984.318 546.54C984.315 546.244 984.246 545.987 984.109 545.768C983.973 545.547 983.784 545.376 983.543 545.257C983.301 545.135 983.02 545.074 982.699 545.074C982.372 545.074 982.087 545.135 981.842 545.257C981.598 545.376 981.409 545.547 981.276 545.768C981.142 545.987 981.077 546.244 981.08 546.54C981.077 546.841 981.143 547.104 981.28 547.328C981.419 547.553 981.611 547.727 981.855 547.852C982.099 547.977 982.381 548.04 982.699 548.04ZM990.145 553.119C989.502 553.119 988.956 552.945 988.504 552.595C988.052 552.243 987.707 551.733 987.468 551.065C987.23 550.395 987.11 549.585 987.11 548.636C987.11 547.693 987.23 546.888 987.468 546.22C987.71 545.55 988.056 545.038 988.508 544.686C988.963 544.331 989.508 544.153 990.145 544.153C990.781 544.153 991.325 544.331 991.777 544.686C992.231 545.038 992.578 545.55 992.816 546.22C993.058 546.888 993.179 547.693 993.179 548.636C993.179 549.585 993.059 550.395 992.821 551.065C992.582 551.733 992.237 552.243 991.785 552.595C991.333 552.945 990.787 553.119 990.145 553.119ZM990.145 552.182C990.781 552.182 991.275 551.875 991.627 551.261C991.98 550.648 992.156 549.773 992.156 548.636C992.156 547.881 992.075 547.237 991.913 546.706C991.754 546.175 991.524 545.77 991.223 545.491C990.924 545.213 990.565 545.074 990.145 545.074C989.514 545.074 989.021 545.385 988.666 546.007C988.311 546.626 988.133 547.503 988.133 548.636C988.133 549.392 988.213 550.034 988.372 550.562C988.531 551.091 988.76 551.493 989.058 551.768C989.359 552.044 989.721 552.182 990.145 552.182Z" fill="black" fill-opacity="0.7"/>
<path d="M980.176 618L984.08 610.278V610.21H979.58V609.273H985.17V610.261L981.284 618H980.176ZM989.418 618.119C988.776 618.119 988.229 617.945 987.777 617.595C987.326 617.243 986.98 616.733 986.742 616.065C986.503 615.395 986.384 614.585 986.384 613.636C986.384 612.693 986.503 611.888 986.742 611.22C986.983 610.55 987.33 610.038 987.782 609.686C988.236 609.331 988.782 609.153 989.418 609.153C990.054 609.153 990.598 609.331 991.05 609.686C991.505 610.038 991.851 610.55 992.09 611.22C992.331 611.888 992.452 612.693 992.452 613.636C992.452 614.585 992.333 615.395 992.094 616.065C991.855 616.733 991.51 617.243 991.059 617.595C990.607 617.945 990.06 618.119 989.418 618.119ZM989.418 617.182C990.054 617.182 990.549 616.875 990.901 616.261C991.253 615.648 991.429 614.773 991.429 613.636C991.429 612.881 991.348 612.237 991.186 611.706C991.027 611.175 990.797 610.77 990.496 610.491C990.198 610.213 989.838 610.074 989.418 610.074C988.787 610.074 988.294 610.385 987.939 611.007C987.584 611.626 987.407 612.503 987.407 613.636C987.407 614.392 987.486 615.034 987.645 615.562C987.804 616.091 988.033 616.493 988.331 616.768C988.632 617.044 988.995 617.182 989.418 617.182Z" fill="black" fill-opacity="0.7"/>
<path d="M982.801 683.119C982.443 683.114 982.085 683.045 981.727 682.915C981.369 682.784 981.043 682.564 980.747 682.254C980.452 681.942 980.214 681.52 980.036 680.989C979.857 680.455 979.767 679.784 979.767 678.977C979.767 678.205 979.839 677.52 979.984 676.923C980.129 676.324 980.339 675.82 980.615 675.411C980.891 674.999 981.223 674.686 981.612 674.473C982.004 674.26 982.446 674.153 982.938 674.153C983.426 674.153 983.861 674.251 984.241 674.447C984.625 674.641 984.938 674.911 985.179 675.257C985.42 675.604 985.577 676.003 985.648 676.455H984.608C984.511 676.062 984.324 675.737 984.045 675.479C983.767 675.22 983.398 675.091 982.938 675.091C982.261 675.091 981.729 675.385 981.339 675.973C980.953 676.561 980.759 677.386 980.756 678.449H980.824C980.983 678.207 981.172 678.001 981.391 677.831C981.612 677.658 981.857 677.524 982.124 677.43C982.391 677.337 982.673 677.29 982.972 677.29C983.472 677.29 983.929 677.415 984.344 677.665C984.759 677.912 985.091 678.254 985.341 678.692C985.591 679.126 985.716 679.625 985.716 680.188C985.716 680.727 985.595 681.222 985.354 681.67C985.112 682.116 984.773 682.472 984.335 682.736C983.901 682.997 983.389 683.125 982.801 683.119ZM982.801 682.182C983.159 682.182 983.48 682.092 983.764 681.913C984.051 681.734 984.277 681.494 984.442 681.193C984.609 680.892 984.693 680.557 984.693 680.188C984.693 679.827 984.612 679.499 984.45 679.203C984.291 678.905 984.071 678.668 983.79 678.491C983.511 678.315 983.193 678.227 982.835 678.227C982.565 678.227 982.314 678.281 982.081 678.389C981.848 678.494 981.643 678.639 981.467 678.824C981.294 679.009 981.158 679.22 981.058 679.459C980.959 679.695 980.909 679.943 980.909 680.205C980.909 680.551 980.99 680.875 981.152 681.176C981.317 681.477 981.541 681.72 981.825 681.905C982.112 682.089 982.438 682.182 982.801 682.182ZM990.238 683.119C989.596 683.119 989.049 682.945 988.598 682.595C988.146 682.243 987.801 681.733 987.562 681.065C987.324 680.395 987.204 679.585 987.204 678.636C987.204 677.693 987.324 676.888 987.562 676.22C987.804 675.55 988.15 675.038 988.602 674.686C989.056 674.331 989.602 674.153 990.238 674.153C990.875 674.153 991.419 674.331 991.87 674.686C992.325 675.038 992.672 675.55 992.91 676.22C993.152 676.888 993.272 677.693 993.272 678.636C993.272 679.585 993.153 680.395 992.914 681.065C992.676 681.733 992.331 682.243 991.879 682.595C991.427 682.945 990.88 683.119 990.238 683.119ZM990.238 682.182C990.875 682.182 991.369 681.875 991.721 681.261C992.074 680.648 992.25 679.773 992.25 678.636C992.25 677.881 992.169 677.237 992.007 676.706C991.848 676.175 991.618 675.77 991.316 675.491C991.018 675.213 990.659 675.074 990.238 675.074C989.608 675.074 989.115 675.385 988.76 676.007C988.404 676.626 988.227 677.503 988.227 678.636C988.227 679.392 988.306 680.034 988.466 680.562C988.625 681.091 988.853 681.493 989.152 681.768C989.453 682.044 989.815 682.182 990.238 682.182Z" fill="black" fill-opacity="0.7"/>
<path d="M982.631 748.119C982.131 748.119 981.68 748.02 981.28 747.821C980.879 747.622 980.558 747.349 980.317 747.003C980.075 746.656 979.943 746.261 979.92 745.818H980.943C980.983 746.213 981.162 746.54 981.48 746.798C981.801 747.054 982.185 747.182 982.631 747.182C982.989 747.182 983.307 747.098 983.585 746.93C983.866 746.763 984.087 746.533 984.246 746.24C984.408 745.945 984.489 745.611 984.489 745.239C984.489 744.858 984.405 744.518 984.237 744.22C984.072 743.919 983.845 743.682 983.555 743.509C983.266 743.335 982.935 743.247 982.562 743.244C982.295 743.241 982.021 743.283 981.74 743.368C981.459 743.45 981.227 743.557 981.045 743.688L980.057 743.568L980.585 739.273H985.119V740.21H981.472L981.165 742.784H981.216C981.395 742.642 981.619 742.524 981.889 742.43C982.159 742.337 982.44 742.29 982.733 742.29C983.267 742.29 983.743 742.418 984.161 742.673C984.581 742.926 984.911 743.273 985.149 743.713C985.391 744.153 985.511 744.656 985.511 745.222C985.511 745.778 985.386 746.276 985.136 746.713C984.889 747.148 984.548 747.491 984.114 747.744C983.679 747.994 983.185 748.119 982.631 748.119ZM990.051 748.119C989.409 748.119 988.862 747.945 988.41 747.595C987.958 747.243 987.613 746.733 987.375 746.065C987.136 745.395 987.017 744.585 987.017 743.636C987.017 742.693 987.136 741.888 987.375 741.22C987.616 740.55 987.963 740.038 988.414 739.686C988.869 739.331 989.414 739.153 990.051 739.153C990.687 739.153 991.231 739.331 991.683 739.686C992.137 740.038 992.484 740.55 992.723 741.22C992.964 741.888 993.085 742.693 993.085 743.636C993.085 744.585 992.966 745.395 992.727 746.065C992.488 746.733 992.143 747.243 991.691 747.595C991.24 747.945 990.693 748.119 990.051 748.119ZM990.051 747.182C990.687 747.182 991.181 746.875 991.534 746.261C991.886 745.648 992.062 744.773 992.062 743.636C992.062 742.881 991.981 742.237 991.819 741.706C991.66 741.175 991.43 740.77 991.129 740.491C990.831 740.213 990.471 740.074 990.051 740.074C989.42 740.074 988.927 740.385 988.572 741.007C988.217 741.626 988.039 742.503 988.039 743.636C988.039 744.392 988.119 745.034 988.278 745.562C988.437 746.091 988.666 746.493 988.964 746.768C989.265 747.044 989.627 747.182 990.051 747.182Z" fill="black" fill-opacity="0.7"/>
<path d="M978.699 811.21V810.341L982.534 804.273H983.165V805.619H982.739L979.841 810.205V810.273H985.006V811.21H978.699ZM982.807 813V810.946V810.541V804.273H983.812V813H982.807ZM989.449 813.119C988.807 813.119 988.26 812.945 987.809 812.595C987.357 812.243 987.012 811.733 986.773 811.065C986.534 810.395 986.415 809.585 986.415 808.636C986.415 807.693 986.534 806.888 986.773 806.22C987.015 805.55 987.361 805.038 987.813 804.686C988.267 804.331 988.813 804.153 989.449 804.153C990.086 804.153 990.63 804.331 991.081 804.686C991.536 805.038 991.882 805.55 992.121 806.22C992.363 806.888 992.483 807.693 992.483 808.636C992.483 809.585 992.364 810.395 992.125 811.065C991.887 811.733 991.542 812.243 991.09 812.595C990.638 812.945 990.091 813.119 989.449 813.119ZM989.449 812.182C990.086 812.182 990.58 811.875 990.932 811.261C991.284 810.648 991.461 809.773 991.461 808.636C991.461 807.881 991.38 807.237 991.218 806.706C991.059 806.175 990.828 805.77 990.527 805.491C990.229 805.213 989.87 805.074 989.449 805.074C988.819 805.074 988.326 805.385 987.971 806.007C987.615 806.626 987.438 807.503 987.438 808.636C987.438 809.392 987.517 810.034 987.676 810.562C987.836 811.091 988.064 811.493 988.363 811.768C988.664 812.044 989.026 812.182 989.449 812.182Z" fill="black" fill-opacity="0.7"/>
<path d="M981.852 878.119C981.29 878.119 980.788 878.023 980.348 877.83C979.911 877.636 979.563 877.368 979.304 877.024C979.048 876.678 978.909 876.276 978.886 875.818H979.96C979.983 876.099 980.08 876.342 980.25 876.547C980.42 876.749 980.643 876.905 980.919 877.016C981.195 877.126 981.5 877.182 981.835 877.182C982.21 877.182 982.543 877.116 982.832 876.986C983.122 876.855 983.349 876.673 983.514 876.44C983.679 876.207 983.761 875.938 983.761 875.631C983.761 875.31 983.682 875.027 983.523 874.783C983.364 874.536 983.131 874.342 982.824 874.203C982.517 874.064 982.142 873.994 981.699 873.994H981V873.057H981.699C982.045 873.057 982.349 872.994 982.611 872.869C982.875 872.744 983.081 872.568 983.229 872.341C983.379 872.114 983.455 871.847 983.455 871.54C983.455 871.244 983.389 870.987 983.259 870.768C983.128 870.55 982.943 870.379 982.705 870.257C982.469 870.135 982.19 870.074 981.869 870.074C981.568 870.074 981.284 870.129 981.017 870.24C980.753 870.348 980.537 870.506 980.369 870.713C980.202 870.918 980.111 871.165 980.097 871.455H979.074C979.091 870.997 979.229 870.597 979.487 870.253C979.746 869.906 980.084 869.636 980.501 869.443C980.922 869.25 981.384 869.153 981.886 869.153C982.426 869.153 982.889 869.263 983.276 869.482C983.662 869.697 983.959 869.983 984.166 870.338C984.374 870.693 984.477 871.077 984.477 871.489C984.477 871.98 984.348 872.399 984.089 872.746C983.834 873.092 983.486 873.332 983.045 873.466V873.534C983.597 873.625 984.027 873.859 984.337 874.237C984.646 874.612 984.801 875.077 984.801 875.631C984.801 876.105 984.672 876.531 984.413 876.909C984.158 877.284 983.808 877.58 983.365 877.795C982.922 878.011 982.418 878.119 981.852 878.119ZM989.391 878.119C988.749 878.119 988.202 877.945 987.75 877.595C987.298 877.243 986.953 876.733 986.714 876.065C986.476 875.395 986.357 874.585 986.357 873.636C986.357 872.693 986.476 871.888 986.714 871.22C986.956 870.55 987.303 870.038 987.754 869.686C988.209 869.331 988.754 869.153 989.391 869.153C990.027 869.153 990.571 869.331 991.023 869.686C991.477 870.038 991.824 870.55 992.062 871.22C992.304 871.888 992.425 872.693 992.425 873.636C992.425 874.585 992.305 875.395 992.067 876.065C991.828 876.733 991.483 877.243 991.031 877.595C990.58 877.945 990.033 878.119 989.391 878.119ZM989.391 877.182C990.027 877.182 990.521 876.875 990.874 876.261C991.226 875.648 991.402 874.773 991.402 873.636C991.402 872.881 991.321 872.237 991.159 871.706C991 871.175 990.77 870.77 990.469 870.491C990.17 870.213 989.811 870.074 989.391 870.074C988.76 870.074 988.267 870.385 987.912 871.007C987.557 871.626 987.379 872.503 987.379 873.636C987.379 874.392 987.459 875.034 987.618 875.562C987.777 876.091 988.006 876.493 988.304 876.768C988.605 877.044 988.967 877.182 989.391 877.182Z" fill="black" fill-opacity="0.7"/>
<path d="M979.903 943V942.233L982.784 939.08C983.122 938.71 983.401 938.389 983.619 938.116C983.838 937.841 984 937.582 984.105 937.341C984.213 937.097 984.267 936.841 984.267 936.574C984.267 936.267 984.193 936.001 984.045 935.777C983.901 935.553 983.702 935.379 983.449 935.257C983.196 935.135 982.912 935.074 982.597 935.074C982.261 935.074 981.969 935.143 981.719 935.283C981.472 935.419 981.28 935.611 981.143 935.858C981.01 936.105 980.943 936.395 980.943 936.727H979.938C979.938 936.216 980.055 935.767 980.291 935.381C980.527 934.994 980.848 934.693 981.254 934.477C981.663 934.261 982.122 934.153 982.631 934.153C983.142 934.153 983.595 934.261 983.99 934.477C984.385 934.693 984.695 934.984 984.919 935.351C985.143 935.717 985.256 936.125 985.256 936.574C985.256 936.895 985.197 937.209 985.081 937.516C984.967 937.82 984.768 938.159 984.484 938.534C984.203 938.906 983.812 939.361 983.312 939.898L981.352 941.994V942.062H985.409V943H979.903ZM990.016 943.119C989.374 943.119 988.827 942.945 988.375 942.595C987.923 942.243 987.578 941.733 987.339 941.065C987.101 940.395 986.982 939.585 986.982 938.636C986.982 937.693 987.101 936.888 987.339 936.22C987.581 935.55 987.928 935.038 988.379 934.686C988.834 934.331 989.379 934.153 990.016 934.153C990.652 934.153 991.196 934.331 991.648 934.686C992.102 935.038 992.449 935.55 992.688 936.22C992.929 936.888 993.05 937.693 993.05 938.636C993.05 939.585 992.93 940.395 992.692 941.065C992.453 941.733 992.108 942.243 991.656 942.595C991.205 942.945 990.658 943.119 990.016 943.119ZM990.016 942.182C990.652 942.182 991.146 941.875 991.499 941.261C991.851 940.648 992.027 939.773 992.027 938.636C992.027 937.881 991.946 937.237 991.784 936.706C991.625 936.175 991.395 935.77 991.094 935.491C990.795 935.213 990.436 935.074 990.016 935.074C989.385 935.074 988.892 935.385 988.537 936.007C988.182 936.626 988.004 937.503 988.004 938.636C988.004 939.392 988.084 940.034 988.243 940.562C988.402 941.091 988.631 941.493 988.929 941.768C989.23 942.044 989.592 942.182 990.016 942.182Z" fill="black" fill-opacity="0.7"/>
<path d="M983.972 999.273V1008H982.915V1000.38H982.864L980.733 1001.8V1000.72L982.915 999.273H983.972ZM989.328 1008.12C988.686 1008.12 988.139 1007.94 987.688 1007.6C987.236 1007.24 986.891 1006.73 986.652 1006.07C986.413 1005.39 986.294 1004.59 986.294 1003.64C986.294 1002.69 986.413 1001.89 986.652 1001.22C986.893 1000.55 987.24 1000.04 987.692 999.686C988.146 999.331 988.692 999.153 989.328 999.153C989.964 999.153 990.509 999.331 990.96 999.686C991.415 1000.04 991.761 1000.55 992 1001.22C992.241 1001.89 992.362 1002.69 992.362 1003.64C992.362 1004.59 992.243 1005.39 992.004 1006.07C991.766 1006.73 991.42 1007.24 990.969 1007.6C990.517 1007.94 989.97 1008.12 989.328 1008.12ZM989.328 1007.18C989.964 1007.18 990.459 1006.87 990.811 1006.26C991.163 1005.65 991.339 1004.77 991.339 1003.64C991.339 1002.88 991.259 1002.24 991.097 1001.71C990.938 1001.17 990.707 1000.77 990.406 1000.49C990.108 1000.21 989.749 1000.07 989.328 1000.07C988.697 1000.07 988.205 1000.38 987.849 1001.01C987.494 1001.63 987.317 1002.5 987.317 1003.64C987.317 1004.39 987.396 1005.03 987.555 1005.56C987.714 1006.09 987.943 1006.49 988.241 1006.77C988.543 1007.04 988.905 1007.18 989.328 1007.18Z" fill="black" fill-opacity="0.7"/>
<path d="M989.75 1073.12C989.108 1073.12 988.561 1072.94 988.109 1072.6C987.658 1072.24 987.313 1071.73 987.074 1071.07C986.835 1070.39 986.716 1069.59 986.716 1068.64C986.716 1067.69 986.835 1066.89 987.074 1066.22C987.315 1065.55 987.662 1065.04 988.114 1064.69C988.568 1064.33 989.114 1064.15 989.75 1064.15C990.386 1064.15 990.93 1064.33 991.382 1064.69C991.837 1065.04 992.183 1065.55 992.422 1066.22C992.663 1066.89 992.784 1067.69 992.784 1068.64C992.784 1069.59 992.665 1070.39 992.426 1071.07C992.188 1071.73 991.842 1072.24 991.391 1072.6C990.939 1072.94 990.392 1073.12 989.75 1073.12ZM989.75 1072.18C990.386 1072.18 990.881 1071.87 991.233 1071.26C991.585 1070.65 991.761 1069.77 991.761 1068.64C991.761 1067.88 991.68 1067.24 991.518 1066.71C991.359 1066.17 991.129 1065.77 990.828 1065.49C990.53 1065.21 990.17 1065.07 989.75 1065.07C989.119 1065.07 988.626 1065.38 988.271 1066.01C987.916 1066.63 987.739 1067.5 987.739 1068.64C987.739 1069.39 987.818 1070.03 987.977 1070.56C988.136 1071.09 988.365 1071.49 988.663 1071.77C988.964 1072.04 989.327 1072.18 989.75 1072.18Z" fill="black" fill-opacity="0.7"/>
<line x1="999" y1="416.5" x2="1755" y2="416.5" stroke="#00001A" stroke-opacity="0.15" stroke-dasharray="2"/>
<line x1="999" y1="481.8" x2="1755" y2="481.8" stroke="#00001A" stroke-opacity="0.15" stroke-dasharray="2"/>
<line x1="999" y1="547.1" x2="1755" y2="547.1" stroke="#00001A" stroke-opacity="0.15" stroke-dasharray="2"/>
<line x1="999" y1="612.4" x2="1755" y2="612.4" stroke="#00001A" stroke-opacity="0.15" stroke-dasharray="2"/>
<line x1="999" y1="677.7" x2="1755" y2="677.7" stroke="#00001A" stroke-opacity="0.15" stroke-dasharray="2"/>
<line x1="999" y1="743" x2="1755" y2="743" stroke="#00001A" stroke-opacity="0.15" stroke-dasharray="2"/>
<line x1="999" y1="808.3" x2="1755" y2="808.3" stroke="#00001A" stroke-opacity="0.15" stroke-dasharray="2"/>
<line x1="999" y1="873.6" x2="1755" y2="873.6" stroke="#00001A" stroke-opacity="0.15" stroke-dasharray="2"/>
<line x1="999" y1="938.9" x2="1755" y2="938.9" stroke="#00001A" stroke-opacity="0.15" stroke-dasharray="2"/>
<line x1="999" y1="1004.2" x2="1755" y2="1004.2" stroke="#00001A" stroke-opacity="0.15" stroke-dasharray="2"/>
<line x1="999" y1="1069.5" x2="1753" y2="1069.5" stroke="#00001A" stroke-opacity="0.3"/>
<line x1="998.5" y1="1070" x2="998.5" y2="417" stroke="#00001A" stroke-opacity="0.15" stroke-dasharray="2"/>
<line x1="1124.5" y1="1070" x2="1124.5" y2="417" stroke="#00001A" stroke-opacity="0.15" stroke-dasharray="2"/>
<line x1="1250.5" y1="1070" x2="1250.5" y2="417" stroke="#00001A" stroke-opacity="0.15" stroke-dasharray="2"/>
<line x1="1376.5" y1="1070" x2="1376.5" y2="417" stroke="#00001A" stroke-opacity="0.15" stroke-dasharray="2"/>
<line x1="1502.5" y1="1070" x2="1502.5" y2="417" stroke="#00001A" stroke-opacity="0.15" stroke-dasharray="2"/>
<line x1="1628.5" y1="1070" x2="1628.5" y2="417" stroke="#00001A" stroke-opacity="0.15" stroke-dasharray="2"/>
<line x1="1754.5" y1="1070" x2="1754.5" y2="417" stroke="#00001A" stroke-opacity="0.15" stroke-dasharray="2"/>
<path d="M1150.4 642.034C1074.7 642.034 1074.7 464.131 999 464.131V1069H1756V713.195C1680.3 713.195 1680.3 706.079 1604.6 706.079C1528.9 706.079 1528.9 983.607 1453.2 983.607C1377.5 983.607 1377.5 819.936 1301.8 819.936C1226.1 819.936 1226.1 642.034 1150.4 642.034Z" fill="url(#paint1_linear_6079_52068)"/>
<path d="M998.921 464.131C1074.37 464.131 1074.37 642.06 1149.82 642.06C1225.26 642.06 1225.26 819.989 1300.71 819.989C1376.16 819.989 1376.16 983.684 1451.61 983.684C1527.06 983.684 1527.06 706.115 1602.5 706.115C1677.95 706.115 1677.95 713.232 1753.4 713.232M1753.4 713.232V713.232Z" stroke="#3CC3DF" stroke-width="1.0938"/>
<circle cx="1156.29" cy="641.763" r="3.82828" fill="white" stroke="#3CC3DF" stroke-width="1.0938"/>
<circle cx="1305.65" cy="819.778" r="3.82828" fill="white" stroke="#3CC3DF" stroke-width="1.0938"/>
<circle cx="1455" cy="983.552" r="3.82828" fill="white" stroke="#3CC3DF" stroke-width="1.0938"/>
<circle cx="1604.36" cy="705.849" r="3.82828" fill="white" stroke="#3CC3DF" stroke-width="1.0938"/>
<circle cx="1751.84" cy="712.969" r="3.82828" fill="white" stroke="#3CC3DF" stroke-width="1.0938"/>
<circle cx="1003.47" cy="463.748" r="3.82828" fill="white" stroke="#3CC3DF" stroke-width="1.0938"/>
<path d="M1150.4 862.467C1074.7 862.467 1074.7 477.889 999.001 477.889V1069H1756V556.229C1680.3 556.229 1680.3 534.863 1604.6 534.863C1528.9 534.863 1528.9 563.351 1453.2 563.351C1377.5 563.351 1377.5 428.036 1301.8 428.036C1226.1 428.036 1226.1 862.467 1150.4 862.467Z" fill="url(#paint2_linear_6079_52068)"/>
<path d="M999.001 477.867C1074.7 477.867 1074.7 862.273 1150.4 862.273C1226.1 862.273 1226.1 428.036 1301.8 428.036C1377.5 428.036 1377.5 563.29 1453.2 563.29C1528.9 563.29 1528.9 534.816 1604.6 534.816C1680.3 534.816 1680.3 556.172 1756 556.172M1756 556.172V556.172Z" stroke="#FF928A" stroke-width="1.0938"/>
<circle cx="1002.61" cy="477.989" r="3.82828" fill="white" stroke="#FF928A" stroke-width="1.0938"/>
<circle cx="1187.5" cy="862.503" r="3.82828" fill="white" stroke="#FF928A" stroke-width="1.0938"/>
<circle cx="1313.83" cy="428.146" r="3.82828" fill="white" stroke="#FF928A" stroke-width="1.0938"/>
<circle cx="1440.17" cy="563.437" r="3.82828" fill="white" stroke="#FF928A" stroke-width="1.0938"/>
<circle cx="1566.5" cy="534.955" r="3.82828" fill="white" stroke="#FF928A" stroke-width="1.0938"/>
<circle cx="1751.72" cy="556.316" r="3.82828" fill="white" stroke="#FF928A" stroke-width="1.0938"/>
<path d="M1150.4 827.047C1074.7 827.047 1074.7 727.42 999 727.42V1069H1756V876.861C1680.3 876.861 1680.3 478.351 1604.6 478.351C1528.9 478.351 1528.9 770.117 1453.2 770.117C1377.5 770.117 1377.5 478.351 1301.8 478.351C1226.1 478.351 1226.1 827.047 1150.4 827.047Z" fill="url(#paint3_linear_6079_52068)"/>
<path d="M998 727.189C1073.7 727.189 1073.7 826.724 1149.4 826.724C1225.1 826.724 1225.1 478.351 1300.8 478.351C1376.5 478.351 1376.5 769.847 1452.2 769.847C1527.9 769.847 1527.9 478.351 1603.6 478.351C1679.3 478.351 1679.3 876.492 1755 876.492M1755 876.492V876.492Z" stroke="#8979FF" stroke-width="1.0938"/>
<circle cx="998" cy="727.211" r="3.82828" fill="white" stroke="#8979FF" stroke-width="1.0938"/>
<circle cx="1149.14" cy="826.9" r="3.82828" fill="#FF5E5E" stroke="#8979FF" stroke-width="1.0938"/>
<circle cx="1300.28" cy="477.989" r="3.82828" fill="white" stroke="#8979FF" stroke-width="1.0938"/>
<circle cx="1451.42" cy="769.935" r="3.82828" fill="white" stroke="#8979FF" stroke-width="1.0938"/>
<circle cx="1602.56" cy="477.989" r="3.82828" fill="white" stroke="#8979FF" stroke-width="1.0938"/>
<circle cx="1752" cy="876.744" r="3.82828" fill="white" stroke="#8979FF" stroke-width="1.0938"/>
<path d="M1028.89 1078.21V1077.27H1035.44V1078.21H1032.69V1086H1031.64V1078.21H1028.89ZM1038.73 1086.14C1038.1 1086.14 1037.55 1086 1037.1 1085.72C1036.64 1085.44 1036.29 1085.05 1036.04 1084.54C1035.8 1084.04 1035.68 1083.45 1035.68 1082.78C1035.68 1082.11 1035.8 1081.52 1036.04 1081.01C1036.29 1080.49 1036.63 1080.09 1037.07 1079.8C1037.52 1079.51 1038.03 1079.37 1038.63 1079.37C1038.97 1079.37 1039.3 1079.43 1039.64 1079.54C1039.97 1079.65 1040.27 1079.84 1040.54 1080.09C1040.82 1080.35 1041.03 1080.68 1041.2 1081.1C1041.36 1081.52 1041.44 1082.03 1041.44 1082.64V1083.07H1036.39V1082.2H1040.42C1040.42 1081.83 1040.34 1081.5 1040.19 1081.21C1040.05 1080.92 1039.84 1080.69 1039.57 1080.52C1039.3 1080.36 1038.99 1080.27 1038.63 1080.27C1038.23 1080.27 1037.88 1080.37 1037.59 1080.57C1037.3 1080.77 1037.07 1081.02 1036.92 1081.34C1036.76 1081.65 1036.68 1081.99 1036.68 1082.35V1082.93C1036.68 1083.43 1036.77 1083.85 1036.94 1084.19C1037.11 1084.53 1037.35 1084.79 1037.66 1084.97C1037.97 1085.14 1038.32 1085.23 1038.73 1085.23C1038.99 1085.23 1039.23 1085.2 1039.44 1085.12C1039.66 1085.05 1039.85 1084.93 1040 1084.78C1040.16 1084.63 1040.28 1084.44 1040.36 1084.21L1041.34 1084.48C1041.23 1084.81 1041.06 1085.1 1040.82 1085.35C1040.58 1085.6 1040.28 1085.79 1039.93 1085.93C1039.57 1086.07 1039.17 1086.14 1038.73 1086.14ZM1045.63 1086.14C1045.01 1086.14 1044.49 1085.99 1044.04 1085.7C1043.6 1085.41 1043.26 1085.01 1043.02 1084.5C1042.78 1084 1042.66 1083.41 1042.66 1082.76C1042.66 1082.1 1042.78 1081.51 1043.03 1081C1043.27 1080.49 1043.62 1080.09 1044.06 1079.8C1044.5 1079.51 1045.02 1079.37 1045.61 1079.37C1046.07 1079.37 1046.49 1079.45 1046.85 1079.62C1047.22 1079.8 1047.53 1080.03 1047.76 1080.34C1048 1080.65 1048.14 1081.01 1048.2 1081.41H1047.2C1047.12 1081.12 1046.95 1080.85 1046.68 1080.62C1046.42 1080.39 1046.07 1080.27 1045.63 1080.27C1045.24 1080.27 1044.89 1080.37 1044.6 1080.58C1044.3 1080.78 1044.07 1081.07 1043.91 1081.44C1043.75 1081.8 1043.67 1082.23 1043.67 1082.73C1043.67 1083.23 1043.75 1083.67 1043.91 1084.05C1044.07 1084.42 1044.29 1084.71 1044.59 1084.92C1044.88 1085.13 1045.23 1085.23 1045.63 1085.23C1045.89 1085.23 1046.13 1085.19 1046.34 1085.1C1046.55 1085.01 1046.73 1084.88 1046.88 1084.7C1047.03 1084.53 1047.13 1084.33 1047.2 1084.09H1048.2C1048.14 1084.48 1048 1084.83 1047.78 1085.13C1047.56 1085.44 1047.26 1085.69 1046.9 1085.87C1046.53 1086.05 1046.11 1086.14 1045.63 1086.14ZM1050.68 1082.06V1086H1049.67V1077.27H1050.68V1080.48H1050.76C1050.92 1080.14 1051.15 1079.87 1051.45 1079.67C1051.76 1079.47 1052.17 1079.37 1052.69 1079.37C1053.13 1079.37 1053.52 1079.46 1053.86 1079.64C1054.2 1079.81 1054.46 1080.09 1054.64 1080.45C1054.83 1080.82 1054.92 1081.28 1054.92 1081.84V1086H1053.92V1081.91C1053.92 1081.39 1053.78 1080.99 1053.51 1080.7C1053.24 1080.42 1052.87 1080.27 1052.4 1080.27C1052.07 1080.27 1051.77 1080.34 1051.51 1080.48C1051.25 1080.62 1051.05 1080.82 1050.9 1081.09C1050.75 1081.36 1050.68 1081.68 1050.68 1082.06ZM1057.77 1082.06V1086H1056.76V1079.45H1057.73V1080.48H1057.82C1057.97 1080.14 1058.2 1079.88 1058.52 1079.68C1058.83 1079.47 1059.23 1079.37 1059.73 1079.37C1060.17 1079.37 1060.56 1079.46 1060.89 1079.64C1061.22 1079.82 1061.48 1080.09 1061.67 1080.46C1061.85 1080.82 1061.94 1081.28 1061.94 1081.84V1086H1060.94V1081.91C1060.94 1081.39 1060.8 1080.99 1060.54 1080.71C1060.27 1080.42 1059.9 1080.27 1059.44 1080.27C1059.12 1080.27 1058.83 1080.34 1058.58 1080.48C1058.33 1080.62 1058.13 1080.82 1057.98 1081.09C1057.84 1081.36 1057.77 1081.68 1057.77 1082.06ZM1066.44 1086.14C1065.85 1086.14 1065.33 1086 1064.88 1085.71C1064.44 1085.43 1064.09 1085.04 1063.84 1084.53C1063.6 1084.03 1063.47 1083.44 1063.47 1082.76C1063.47 1082.08 1063.6 1081.48 1063.84 1080.98C1064.09 1080.47 1064.44 1080.07 1064.88 1079.79C1065.33 1079.51 1065.85 1079.37 1066.44 1079.37C1067.03 1079.37 1067.55 1079.51 1067.99 1079.79C1068.44 1080.07 1068.78 1080.47 1069.03 1080.98C1069.28 1081.48 1069.41 1082.08 1069.41 1082.76C1069.41 1083.44 1069.28 1084.03 1069.03 1084.53C1068.78 1085.04 1068.44 1085.43 1067.99 1085.71C1067.55 1086 1067.03 1086.14 1066.44 1086.14ZM1066.44 1085.23C1066.89 1085.23 1067.26 1085.12 1067.55 1084.89C1067.84 1084.66 1068.05 1084.36 1068.19 1083.98C1068.33 1083.61 1068.4 1083.2 1068.4 1082.76C1068.4 1082.32 1068.33 1081.92 1068.19 1081.54C1068.05 1081.16 1067.84 1080.86 1067.55 1080.62C1067.26 1080.39 1066.89 1080.27 1066.44 1080.27C1065.99 1080.27 1065.62 1080.39 1065.33 1080.62C1065.04 1080.86 1064.83 1081.16 1064.69 1081.54C1064.55 1081.92 1064.48 1082.32 1064.48 1082.76C1064.48 1083.2 1064.55 1083.61 1064.69 1083.98C1064.83 1084.36 1065.04 1084.66 1065.33 1084.89C1065.62 1085.12 1065.99 1085.23 1066.44 1085.23ZM1071.95 1077.27V1086H1070.94V1077.27H1071.95ZM1076.45 1086.14C1075.86 1086.14 1075.34 1086 1074.89 1085.71C1074.45 1085.43 1074.1 1085.04 1073.85 1084.53C1073.61 1084.03 1073.48 1083.44 1073.48 1082.76C1073.48 1082.08 1073.61 1081.48 1073.85 1080.98C1074.1 1080.47 1074.45 1080.07 1074.89 1079.79C1075.34 1079.51 1075.86 1079.37 1076.45 1079.37C1077.04 1079.37 1077.56 1079.51 1078 1079.79C1078.44 1080.07 1078.79 1080.47 1079.04 1080.98C1079.29 1081.48 1079.41 1082.08 1079.41 1082.76C1079.41 1083.44 1079.29 1084.03 1079.04 1084.53C1078.79 1085.04 1078.44 1085.43 1078 1085.71C1077.56 1086 1077.04 1086.14 1076.45 1086.14ZM1076.45 1085.23C1076.9 1085.23 1077.27 1085.12 1077.56 1084.89C1077.85 1084.66 1078.06 1084.36 1078.2 1083.98C1078.34 1083.61 1078.41 1083.2 1078.41 1082.76C1078.41 1082.32 1078.34 1081.92 1078.2 1081.54C1078.06 1081.16 1077.85 1080.86 1077.56 1080.62C1077.27 1080.39 1076.9 1080.27 1076.45 1080.27C1076 1080.27 1075.63 1080.39 1075.34 1080.62C1075.05 1080.86 1074.84 1081.16 1074.7 1081.54C1074.56 1081.92 1074.49 1082.32 1074.49 1082.76C1074.49 1083.2 1074.56 1083.61 1074.7 1083.98C1074.84 1084.36 1075.05 1084.66 1075.34 1084.89C1075.63 1085.12 1076 1085.23 1076.45 1085.23ZM1083.59 1088.59C1083.1 1088.59 1082.69 1088.53 1082.34 1088.4C1081.99 1088.28 1081.7 1088.12 1081.46 1087.92C1081.23 1087.72 1081.05 1087.51 1080.91 1087.28L1081.72 1086.72C1081.81 1086.84 1081.92 1086.97 1082.06 1087.12C1082.2 1087.28 1082.39 1087.42 1082.63 1087.53C1082.88 1087.65 1083.2 1087.7 1083.59 1087.7C1084.12 1087.7 1084.55 1087.58 1084.9 1087.32C1085.24 1087.07 1085.41 1086.66 1085.41 1086.12V1084.79H1085.33C1085.26 1084.91 1085.15 1085.06 1085.01 1085.23C1084.88 1085.41 1084.69 1085.56 1084.43 1085.7C1084.18 1085.83 1083.85 1085.9 1083.42 1085.9C1082.89 1085.9 1082.42 1085.77 1082 1085.52C1081.58 1085.27 1081.25 1084.91 1081 1084.43C1080.76 1083.95 1080.64 1083.37 1080.64 1082.69C1080.64 1082.02 1080.76 1081.44 1081 1080.94C1081.23 1080.44 1081.56 1080.06 1081.98 1079.78C1082.4 1079.51 1082.89 1079.37 1083.44 1079.37C1083.86 1079.37 1084.2 1079.44 1084.45 1079.58C1084.7 1079.72 1084.9 1079.88 1085.03 1080.06C1085.17 1080.24 1085.27 1080.38 1085.35 1080.49H1085.45V1079.45H1086.42V1086.19C1086.42 1086.75 1086.29 1087.21 1086.04 1087.56C1085.78 1087.91 1085.44 1088.17 1085.01 1088.34C1084.59 1088.51 1084.11 1088.59 1083.59 1088.59ZM1083.56 1084.99C1083.96 1084.99 1084.3 1084.9 1084.58 1084.72C1084.86 1084.53 1085.07 1084.27 1085.21 1083.92C1085.36 1083.57 1085.43 1083.16 1085.43 1082.68C1085.43 1082.2 1085.36 1081.79 1085.22 1081.43C1085.08 1081.07 1084.87 1080.78 1084.59 1080.58C1084.31 1080.37 1083.97 1080.27 1083.56 1080.27C1083.13 1080.27 1082.78 1080.38 1082.49 1080.6C1082.21 1080.81 1082 1081.1 1081.86 1081.47C1081.72 1081.83 1081.65 1082.23 1081.65 1082.68C1081.65 1083.13 1081.72 1083.53 1081.86 1083.88C1082.01 1084.23 1082.22 1084.5 1082.5 1084.7C1082.78 1084.9 1083.14 1084.99 1083.56 1084.99ZM1088.91 1088.45C1088.74 1088.45 1088.59 1088.44 1088.45 1088.41C1088.32 1088.39 1088.23 1088.36 1088.18 1088.34L1088.43 1087.45C1088.68 1087.51 1088.89 1087.53 1089.08 1087.52C1089.27 1087.5 1089.43 1087.42 1089.58 1087.27C1089.73 1087.12 1089.86 1086.88 1089.98 1086.55L1090.17 1086.03L1087.75 1079.45H1088.84L1090.65 1084.67H1090.72L1092.52 1079.45H1093.61L1090.83 1086.95C1090.71 1087.29 1090.55 1087.57 1090.37 1087.79C1090.19 1088.02 1089.97 1088.18 1089.73 1088.29C1089.49 1088.4 1089.21 1088.45 1088.91 1088.45Z" fill="black" fill-opacity="0.7"/>
<path d="M1164.03 1080H1162.97C1162.91 1079.7 1162.8 1079.43 1162.64 1079.2C1162.49 1078.97 1162.3 1078.78 1162.08 1078.62C1161.86 1078.46 1161.62 1078.34 1161.35 1078.26C1161.08 1078.18 1160.8 1078.14 1160.52 1078.14C1159.99 1078.14 1159.51 1078.28 1159.08 1078.54C1158.65 1078.81 1158.31 1079.2 1158.06 1079.72C1157.81 1080.24 1157.69 1080.88 1157.69 1081.64C1157.69 1082.39 1157.81 1083.03 1158.06 1083.55C1158.31 1084.07 1158.65 1084.46 1159.08 1084.73C1159.51 1085 1159.99 1085.13 1160.52 1085.13C1160.8 1085.13 1161.08 1085.09 1161.35 1085.01C1161.62 1084.93 1161.86 1084.81 1162.08 1084.66C1162.3 1084.5 1162.49 1084.3 1162.64 1084.07C1162.8 1083.84 1162.91 1083.57 1162.97 1083.27H1164.03C1163.95 1083.72 1163.8 1084.12 1163.59 1084.47C1163.38 1084.82 1163.12 1085.12 1162.81 1085.37C1162.5 1085.61 1162.14 1085.8 1161.76 1085.93C1161.37 1086.06 1160.96 1086.12 1160.52 1086.12C1159.77 1086.12 1159.11 1085.94 1158.53 1085.57C1157.95 1085.21 1157.49 1084.69 1157.16 1084.02C1156.83 1083.35 1156.66 1082.56 1156.66 1081.64C1156.66 1080.72 1156.83 1079.92 1157.16 1079.25C1157.49 1078.58 1157.95 1078.06 1158.53 1077.7C1159.11 1077.34 1159.77 1077.15 1160.52 1077.15C1160.96 1077.15 1161.37 1077.22 1161.76 1077.35C1162.14 1077.47 1162.5 1077.66 1162.81 1077.91C1163.12 1078.15 1163.38 1078.45 1163.59 1078.8C1163.8 1079.15 1163.95 1079.55 1164.03 1080ZM1167.52 1086.15C1167.11 1086.15 1166.73 1086.08 1166.39 1085.92C1166.06 1085.76 1165.79 1085.53 1165.59 1085.23C1165.39 1084.93 1165.29 1084.57 1165.29 1084.14C1165.29 1083.77 1165.36 1083.46 1165.51 1083.23C1165.66 1082.99 1165.86 1082.81 1166.1 1082.68C1166.35 1082.54 1166.62 1082.44 1166.92 1082.38C1167.22 1082.31 1167.53 1082.26 1167.83 1082.22C1168.23 1082.16 1168.55 1082.13 1168.8 1082.1C1169.05 1082.07 1169.23 1082.03 1169.34 1081.96C1169.46 1081.89 1169.52 1081.78 1169.52 1081.62V1081.59C1169.52 1081.16 1169.4 1080.84 1169.17 1080.61C1168.95 1080.37 1168.6 1080.26 1168.14 1080.26C1167.66 1080.26 1167.28 1080.36 1167.01 1080.57C1166.74 1080.78 1166.54 1081.01 1166.43 1081.24L1165.48 1080.9C1165.65 1080.51 1165.88 1080.2 1166.16 1079.97C1166.45 1079.75 1166.76 1079.59 1167.1 1079.51C1167.44 1079.41 1167.77 1079.37 1168.1 1079.37C1168.31 1079.37 1168.56 1079.39 1168.83 1079.45C1169.1 1079.49 1169.37 1079.6 1169.62 1079.75C1169.88 1079.9 1170.1 1080.13 1170.27 1080.44C1170.44 1080.75 1170.52 1081.17 1170.52 1081.69V1086H1169.52V1085.11H1169.47C1169.4 1085.26 1169.29 1085.41 1169.13 1085.57C1168.97 1085.73 1168.76 1085.87 1168.49 1085.98C1168.23 1086.1 1167.9 1086.15 1167.52 1086.15ZM1167.68 1085.25C1168.08 1085.25 1168.41 1085.17 1168.68 1085.02C1168.96 1084.86 1169.17 1084.66 1169.31 1084.41C1169.45 1084.16 1169.52 1083.9 1169.52 1083.63V1082.71C1169.48 1082.76 1169.38 1082.81 1169.24 1082.85C1169.1 1082.89 1168.93 1082.93 1168.74 1082.96C1168.56 1082.99 1168.38 1083.01 1168.2 1083.03C1168.03 1083.05 1167.89 1083.07 1167.78 1083.09C1167.52 1083.12 1167.27 1083.17 1167.05 1083.25C1166.82 1083.33 1166.64 1083.44 1166.5 1083.59C1166.36 1083.74 1166.3 1083.94 1166.3 1084.19C1166.3 1084.54 1166.43 1084.81 1166.68 1084.99C1166.95 1085.16 1167.28 1085.25 1167.68 1085.25ZM1172.36 1086V1079.45H1173.33V1080.44H1173.4C1173.52 1080.12 1173.73 1079.86 1174.05 1079.65C1174.36 1079.45 1174.71 1079.35 1175.1 1079.35C1175.18 1079.35 1175.27 1079.35 1175.38 1079.36C1175.49 1079.36 1175.58 1079.36 1175.63 1079.37V1080.39C1175.6 1080.38 1175.52 1080.37 1175.4 1080.35C1175.28 1080.33 1175.15 1080.32 1175.02 1080.32C1174.7 1080.32 1174.42 1080.39 1174.17 1080.52C1173.92 1080.65 1173.72 1080.84 1173.58 1081.07C1173.44 1081.3 1173.37 1081.56 1173.37 1081.86V1086H1172.36ZM1180.34 1086V1077.27H1183.39C1183.99 1077.27 1184.5 1077.38 1184.89 1077.59C1185.29 1077.8 1185.58 1078.08 1185.77 1078.43C1185.97 1078.78 1186.06 1079.16 1186.06 1079.59C1186.06 1079.97 1186 1080.28 1185.86 1080.52C1185.73 1080.76 1185.56 1080.96 1185.34 1081.1C1185.13 1081.24 1184.9 1081.35 1184.65 1081.41V1081.5C1184.92 1081.52 1185.18 1081.61 1185.45 1081.78C1185.72 1081.95 1185.95 1082.2 1186.13 1082.51C1186.31 1082.83 1186.4 1083.22 1186.4 1083.68C1186.4 1084.12 1186.3 1084.51 1186.11 1084.86C1185.91 1085.21 1185.59 1085.49 1185.16 1085.69C1184.73 1085.9 1184.18 1086 1183.49 1086H1180.34ZM1181.39 1085.06H1183.49C1184.18 1085.06 1184.67 1084.93 1184.96 1084.66C1185.25 1084.39 1185.4 1084.07 1185.4 1083.68C1185.4 1083.39 1185.32 1083.11 1185.17 1082.86C1185.02 1082.61 1184.81 1082.41 1184.53 1082.26C1184.25 1082.11 1183.92 1082.03 1183.54 1082.03H1181.39V1085.06ZM1181.39 1081.11H1183.35C1183.67 1081.11 1183.96 1081.05 1184.21 1080.92C1184.47 1080.8 1184.68 1080.62 1184.83 1080.39C1184.98 1080.16 1185.06 1079.9 1185.06 1079.59C1185.06 1079.21 1184.92 1078.88 1184.66 1078.62C1184.39 1078.35 1183.97 1078.21 1183.39 1078.21H1181.39V1081.11ZM1188 1086V1079.45H1188.98V1080.44H1189.04C1189.16 1080.12 1189.38 1079.86 1189.69 1079.65C1190 1079.45 1190.36 1079.35 1190.75 1079.35C1190.82 1079.35 1190.91 1079.35 1191.03 1079.36C1191.14 1079.36 1191.22 1079.36 1191.28 1079.37V1080.39C1191.24 1080.38 1191.16 1080.37 1191.04 1080.35C1190.92 1080.33 1190.8 1080.32 1190.66 1080.32C1190.35 1080.32 1190.06 1080.39 1189.81 1080.52C1189.56 1080.65 1189.37 1080.84 1189.22 1081.07C1189.08 1081.3 1189.01 1081.56 1189.01 1081.86V1086H1188ZM1194.4 1086.15C1193.98 1086.15 1193.6 1086.08 1193.27 1085.92C1192.93 1085.76 1192.66 1085.53 1192.46 1085.23C1192.26 1084.93 1192.16 1084.57 1192.16 1084.14C1192.16 1083.77 1192.24 1083.46 1192.38 1083.23C1192.53 1082.99 1192.73 1082.81 1192.98 1082.68C1193.22 1082.54 1193.5 1082.44 1193.79 1082.38C1194.1 1082.31 1194.4 1082.26 1194.7 1082.22C1195.1 1082.16 1195.42 1082.13 1195.67 1082.1C1195.92 1082.07 1196.1 1082.03 1196.21 1081.96C1196.33 1081.89 1196.39 1081.78 1196.39 1081.62V1081.59C1196.39 1081.16 1196.27 1080.84 1196.04 1080.61C1195.82 1080.37 1195.47 1080.26 1195.01 1080.26C1194.53 1080.26 1194.15 1080.36 1193.88 1080.57C1193.61 1080.78 1193.41 1081.01 1193.3 1081.24L1192.35 1080.9C1192.52 1080.51 1192.75 1080.2 1193.03 1079.97C1193.32 1079.75 1193.63 1079.59 1193.97 1079.51C1194.31 1079.41 1194.65 1079.37 1194.97 1079.37C1195.18 1079.37 1195.43 1079.39 1195.7 1079.45C1195.97 1079.49 1196.24 1079.6 1196.5 1079.75C1196.75 1079.9 1196.97 1080.13 1197.14 1080.44C1197.31 1080.75 1197.4 1081.17 1197.4 1081.69V1086H1196.39V1085.11H1196.34C1196.27 1085.26 1196.16 1085.41 1196 1085.57C1195.84 1085.73 1195.63 1085.87 1195.36 1085.98C1195.1 1086.1 1194.78 1086.15 1194.4 1086.15ZM1194.55 1085.25C1194.95 1085.25 1195.28 1085.17 1195.55 1085.02C1195.83 1084.86 1196.04 1084.66 1196.18 1084.41C1196.32 1084.16 1196.39 1083.9 1196.39 1083.63V1082.71C1196.35 1082.76 1196.25 1082.81 1196.11 1082.85C1195.97 1082.89 1195.8 1082.93 1195.61 1082.96C1195.43 1082.99 1195.25 1083.01 1195.07 1083.03C1194.9 1083.05 1194.76 1083.07 1194.65 1083.09C1194.39 1083.12 1194.15 1083.17 1193.92 1083.25C1193.69 1083.33 1193.51 1083.44 1193.37 1083.59C1193.24 1083.74 1193.17 1083.94 1193.17 1084.19C1193.17 1084.54 1193.3 1084.81 1193.56 1084.99C1193.82 1085.16 1194.15 1085.25 1194.55 1085.25ZM1200.24 1082.06V1086H1199.23V1079.45H1200.2V1080.48H1200.29C1200.44 1080.14 1200.67 1079.88 1200.99 1079.68C1201.3 1079.47 1201.7 1079.37 1202.2 1079.37C1202.64 1079.37 1203.03 1079.46 1203.36 1079.64C1203.69 1079.82 1203.95 1080.09 1204.14 1080.46C1204.32 1080.82 1204.41 1081.28 1204.41 1081.84V1086H1203.41V1081.91C1203.41 1081.39 1203.27 1080.99 1203.01 1080.71C1202.74 1080.42 1202.37 1080.27 1201.91 1080.27C1201.59 1080.27 1201.3 1080.34 1201.05 1080.48C1200.8 1080.62 1200.6 1080.82 1200.45 1081.09C1200.31 1081.36 1200.24 1081.68 1200.24 1082.06ZM1208.72 1086.14C1208.18 1086.14 1207.69 1086 1207.28 1085.72C1206.86 1085.44 1206.53 1085.05 1206.3 1084.55C1206.06 1084.04 1205.94 1083.44 1205.94 1082.74C1205.94 1082.06 1206.06 1081.46 1206.3 1080.95C1206.53 1080.45 1206.86 1080.06 1207.28 1079.78C1207.7 1079.51 1208.19 1079.37 1208.74 1079.37C1209.16 1079.37 1209.5 1079.44 1209.75 1079.58C1210 1079.72 1210.19 1079.88 1210.32 1080.06C1210.45 1080.24 1210.56 1080.38 1210.63 1080.49H1210.72V1077.27H1211.72V1086H1210.75V1084.99H1210.63C1210.56 1085.11 1210.45 1085.26 1210.32 1085.45C1210.18 1085.62 1209.98 1085.79 1209.73 1085.93C1209.48 1086.07 1209.14 1086.14 1208.72 1086.14ZM1208.86 1085.23C1209.26 1085.23 1209.6 1085.13 1209.88 1084.92C1210.16 1084.7 1210.37 1084.41 1210.52 1084.04C1210.66 1083.66 1210.73 1083.22 1210.73 1082.73C1210.73 1082.24 1210.66 1081.81 1210.52 1081.44C1210.38 1081.08 1210.17 1080.79 1209.89 1080.58C1209.61 1080.38 1209.27 1080.27 1208.86 1080.27C1208.43 1080.27 1208.08 1080.38 1207.79 1080.6C1207.51 1080.82 1207.3 1081.11 1207.16 1081.48C1207.02 1081.85 1206.95 1082.27 1206.95 1082.73C1206.95 1083.19 1207.02 1083.62 1207.16 1084C1207.31 1084.37 1207.52 1084.68 1207.8 1084.9C1208.09 1085.12 1208.44 1085.23 1208.86 1085.23ZM1218.34 1080.92L1217.44 1081.18C1217.38 1081.03 1217.3 1080.88 1217.18 1080.74C1217.08 1080.59 1216.93 1080.47 1216.74 1080.38C1216.55 1080.29 1216.31 1080.24 1216.02 1080.24C1215.62 1080.24 1215.29 1080.33 1215.02 1080.52C1214.76 1080.7 1214.62 1080.93 1214.62 1081.21C1214.62 1081.46 1214.71 1081.66 1214.9 1081.8C1215.08 1081.95 1215.36 1082.07 1215.75 1082.16L1216.72 1082.4C1217.31 1082.55 1217.74 1082.76 1218.03 1083.06C1218.32 1083.35 1218.46 1083.72 1218.46 1084.18C1218.46 1084.55 1218.35 1084.89 1218.14 1085.18C1217.92 1085.48 1217.62 1085.71 1217.24 1085.88C1216.86 1086.05 1216.41 1086.14 1215.9 1086.14C1215.23 1086.14 1214.68 1085.99 1214.24 1085.7C1213.81 1085.41 1213.53 1084.99 1213.41 1084.43L1214.37 1084.19C1214.46 1084.55 1214.63 1084.81 1214.88 1084.99C1215.14 1085.16 1215.47 1085.25 1215.89 1085.25C1216.35 1085.25 1216.73 1085.15 1217 1084.95C1217.28 1084.75 1217.42 1084.51 1217.42 1084.23C1217.42 1084 1217.34 1083.81 1217.18 1083.66C1217.02 1083.5 1216.78 1083.38 1216.45 1083.31L1215.36 1083.05C1214.76 1082.91 1214.32 1082.69 1214.04 1082.39C1213.76 1082.09 1213.62 1081.71 1213.62 1081.26C1213.62 1080.89 1213.72 1080.57 1213.93 1080.28C1214.14 1080 1214.42 1079.77 1214.79 1079.61C1215.15 1079.45 1215.56 1079.37 1216.02 1079.37C1216.67 1079.37 1217.18 1079.51 1217.55 1079.8C1217.92 1080.08 1218.18 1080.45 1218.34 1080.92Z" fill="black" fill-opacity="0.7"/>
<path d="M1294.52 1086H1293.41L1296.61 1077.27H1297.71L1300.91 1086H1299.8L1297.19 1078.65H1297.13L1294.52 1086ZM1294.93 1082.59H1299.39V1083.53H1294.93V1082.59ZM1302.2 1086V1079.45H1303.21V1086H1302.2ZM1302.71 1078.36C1302.52 1078.36 1302.35 1078.3 1302.21 1078.16C1302.07 1078.03 1302 1077.87 1302 1077.68C1302 1077.49 1302.07 1077.33 1302.21 1077.2C1302.35 1077.07 1302.52 1077 1302.71 1077C1302.91 1077 1303.08 1077.07 1303.22 1077.2C1303.36 1077.33 1303.43 1077.49 1303.43 1077.68C1303.43 1077.87 1303.36 1078.03 1303.22 1078.16C1303.08 1078.3 1302.91 1078.36 1302.71 1078.36ZM1305.05 1086V1079.45H1306.02V1080.44H1306.09C1306.21 1080.12 1306.43 1079.86 1306.74 1079.65C1307.05 1079.45 1307.4 1079.35 1307.8 1079.35C1307.87 1079.35 1307.96 1079.35 1308.07 1079.36C1308.18 1079.36 1308.27 1079.36 1308.32 1079.37V1080.39C1308.29 1080.38 1308.21 1080.37 1308.09 1080.35C1307.97 1080.33 1307.84 1080.32 1307.71 1080.32C1307.39 1080.32 1307.11 1080.39 1306.86 1080.52C1306.61 1080.65 1306.41 1080.84 1306.27 1081.07C1306.13 1081.3 1306.06 1081.56 1306.06 1081.86V1086H1305.05ZM1310.52 1077.27V1086H1309.52V1077.27H1310.52ZM1312.36 1086V1079.45H1313.37V1086H1312.36ZM1312.87 1078.36C1312.68 1078.36 1312.51 1078.3 1312.37 1078.16C1312.23 1078.03 1312.16 1077.87 1312.16 1077.68C1312.16 1077.49 1312.23 1077.33 1312.37 1077.2C1312.51 1077.07 1312.68 1077 1312.87 1077C1313.07 1077 1313.24 1077.07 1313.38 1077.2C1313.52 1077.33 1313.59 1077.49 1313.59 1077.68C1313.59 1077.87 1313.52 1078.03 1313.38 1078.16C1313.24 1078.3 1313.07 1078.36 1312.87 1078.36ZM1316.22 1082.06V1086H1315.21V1079.45H1316.18V1080.48H1316.27C1316.42 1080.14 1316.65 1079.88 1316.97 1079.68C1317.28 1079.47 1317.68 1079.37 1318.18 1079.37C1318.62 1079.37 1319.01 1079.46 1319.34 1079.64C1319.67 1079.82 1319.93 1080.09 1320.12 1080.46C1320.3 1080.82 1320.39 1081.28 1320.39 1081.84V1086H1319.39V1081.91C1319.39 1081.39 1319.25 1080.99 1318.99 1080.71C1318.72 1080.42 1318.35 1080.27 1317.89 1080.27C1317.57 1080.27 1317.28 1080.34 1317.03 1080.48C1316.78 1080.62 1316.58 1080.82 1316.43 1081.09C1316.29 1081.36 1316.22 1081.68 1316.22 1082.06ZM1324.97 1086.14C1324.34 1086.14 1323.8 1086 1323.34 1085.72C1322.89 1085.44 1322.54 1085.05 1322.29 1084.54C1322.05 1084.04 1321.92 1083.45 1321.92 1082.78C1321.92 1082.11 1322.05 1081.52 1322.29 1081.01C1322.54 1080.49 1322.88 1080.09 1323.32 1079.8C1323.76 1079.51 1324.28 1079.37 1324.87 1079.37C1325.21 1079.37 1325.55 1079.43 1325.88 1079.54C1326.22 1079.65 1326.52 1079.84 1326.79 1080.09C1327.06 1080.35 1327.28 1080.68 1327.44 1081.1C1327.6 1081.52 1327.69 1082.03 1327.69 1082.64V1083.07H1322.64V1082.2H1326.66C1326.66 1081.83 1326.59 1081.5 1326.44 1081.21C1326.3 1080.92 1326.09 1080.69 1325.82 1080.52C1325.55 1080.36 1325.24 1080.27 1324.87 1080.27C1324.47 1080.27 1324.13 1080.37 1323.83 1080.57C1323.54 1080.77 1323.32 1081.02 1323.16 1081.34C1323.01 1081.65 1322.93 1081.99 1322.93 1082.35V1082.93C1322.93 1083.43 1323.01 1083.85 1323.19 1084.19C1323.36 1084.53 1323.6 1084.79 1323.91 1084.97C1324.21 1085.14 1324.57 1085.23 1324.97 1085.23C1325.24 1085.23 1325.48 1085.2 1325.69 1085.12C1325.91 1085.05 1326.09 1084.93 1326.25 1084.78C1326.41 1084.63 1326.53 1084.44 1326.61 1084.21L1327.58 1084.48C1327.48 1084.81 1327.31 1085.1 1327.07 1085.35C1326.83 1085.6 1326.53 1085.79 1326.17 1085.93C1325.82 1086.07 1325.42 1086.14 1324.97 1086.14ZM1333.85 1080.92L1332.95 1081.18C1332.89 1081.03 1332.81 1080.88 1332.7 1080.74C1332.59 1080.59 1332.44 1080.47 1332.25 1080.38C1332.07 1080.29 1331.83 1080.24 1331.53 1080.24C1331.13 1080.24 1330.8 1080.33 1330.53 1080.52C1330.27 1080.7 1330.14 1080.93 1330.14 1081.21C1330.14 1081.46 1330.23 1081.66 1330.41 1081.8C1330.59 1081.95 1330.87 1082.07 1331.26 1082.16L1332.23 1082.4C1332.82 1082.55 1333.25 1082.76 1333.54 1083.06C1333.83 1083.35 1333.97 1083.72 1333.97 1084.18C1333.97 1084.55 1333.86 1084.89 1333.65 1085.18C1333.43 1085.48 1333.14 1085.71 1332.75 1085.88C1332.37 1086.05 1331.92 1086.14 1331.41 1086.14C1330.75 1086.14 1330.19 1085.99 1329.76 1085.7C1329.32 1085.41 1329.04 1084.99 1328.93 1084.43L1329.88 1084.19C1329.97 1084.55 1330.14 1084.81 1330.4 1084.99C1330.65 1085.16 1330.98 1085.25 1331.4 1085.25C1331.87 1085.25 1332.24 1085.15 1332.51 1084.95C1332.79 1084.75 1332.93 1084.51 1332.93 1084.23C1332.93 1084 1332.85 1083.81 1332.69 1083.66C1332.53 1083.5 1332.29 1083.38 1331.96 1083.31L1330.87 1083.05C1330.27 1082.91 1329.83 1082.69 1329.55 1082.39C1329.27 1082.09 1329.13 1081.71 1329.13 1081.26C1329.13 1080.89 1329.23 1080.57 1329.44 1080.28C1329.65 1080 1329.94 1079.77 1330.3 1079.61C1330.66 1079.45 1331.07 1079.37 1331.53 1079.37C1332.18 1079.37 1332.69 1079.51 1333.06 1079.8C1333.43 1080.08 1333.7 1080.45 1333.85 1080.92Z" fill="black" fill-opacity="0.7"/>
<path d="M1421.51 1086V1077.27H1426.77V1078.21H1422.56V1081.16H1426.5V1082.1H1422.56V1085.06H1426.84V1086H1421.51ZM1429.55 1082.06V1086H1428.54V1079.45H1429.51V1080.48H1429.6C1429.75 1080.14 1429.99 1079.88 1430.3 1079.68C1430.61 1079.47 1431.01 1079.37 1431.51 1079.37C1431.95 1079.37 1432.34 1079.46 1432.67 1079.64C1433 1079.82 1433.26 1080.09 1433.45 1080.46C1433.63 1080.82 1433.72 1081.28 1433.72 1081.84V1086H1432.72V1081.91C1432.72 1081.39 1432.58 1080.99 1432.32 1080.71C1432.05 1080.42 1431.68 1080.27 1431.22 1080.27C1430.9 1080.27 1430.61 1080.34 1430.36 1080.48C1430.11 1080.62 1429.91 1080.82 1429.77 1081.09C1429.62 1081.36 1429.55 1081.68 1429.55 1082.06ZM1438.31 1086.14C1437.68 1086.14 1437.13 1086 1436.67 1085.72C1436.22 1085.44 1435.87 1085.05 1435.62 1084.54C1435.38 1084.04 1435.25 1083.45 1435.25 1082.78C1435.25 1082.11 1435.38 1081.52 1435.62 1081.01C1435.87 1080.49 1436.21 1080.09 1436.65 1079.8C1437.1 1079.51 1437.61 1079.37 1438.2 1079.37C1438.54 1079.37 1438.88 1079.43 1439.21 1079.54C1439.55 1079.65 1439.85 1079.84 1440.12 1080.09C1440.39 1080.35 1440.61 1080.68 1440.77 1081.1C1440.94 1081.52 1441.02 1082.03 1441.02 1082.64V1083.07H1435.97V1082.2H1439.99C1439.99 1081.83 1439.92 1081.5 1439.77 1081.21C1439.63 1080.92 1439.42 1080.69 1439.15 1080.52C1438.88 1080.36 1438.57 1080.27 1438.2 1080.27C1437.8 1080.27 1437.46 1080.37 1437.16 1080.57C1436.87 1080.77 1436.65 1081.02 1436.49 1081.34C1436.34 1081.65 1436.26 1081.99 1436.26 1082.35V1082.93C1436.26 1083.43 1436.35 1083.85 1436.52 1084.19C1436.69 1084.53 1436.93 1084.79 1437.24 1084.97C1437.54 1085.14 1437.9 1085.23 1438.31 1085.23C1438.57 1085.23 1438.81 1085.2 1439.02 1085.12C1439.24 1085.05 1439.42 1084.93 1439.58 1084.78C1439.74 1084.63 1439.86 1084.44 1439.94 1084.21L1440.91 1084.48C1440.81 1084.81 1440.64 1085.1 1440.4 1085.35C1440.16 1085.6 1439.86 1085.79 1439.5 1085.93C1439.15 1086.07 1438.75 1086.14 1438.31 1086.14ZM1442.55 1086V1079.45H1443.52V1080.44H1443.59C1443.71 1080.12 1443.92 1079.86 1444.23 1079.65C1444.55 1079.45 1444.9 1079.35 1445.29 1079.35C1445.36 1079.35 1445.46 1079.35 1445.57 1079.36C1445.68 1079.36 1445.76 1079.36 1445.82 1079.37V1080.39C1445.78 1080.38 1445.71 1080.37 1445.58 1080.35C1445.47 1080.33 1445.34 1080.32 1445.21 1080.32C1444.89 1080.32 1444.6 1080.39 1444.35 1080.52C1444.11 1080.65 1443.91 1080.84 1443.76 1081.07C1443.62 1081.3 1443.55 1081.56 1443.55 1081.86V1086H1442.55ZM1449.45 1088.59C1448.97 1088.59 1448.55 1088.53 1448.2 1088.4C1447.85 1088.28 1447.56 1088.12 1447.33 1087.92C1447.1 1087.72 1446.91 1087.51 1446.78 1087.28L1447.58 1086.72C1447.67 1086.84 1447.78 1086.97 1447.92 1087.12C1448.06 1087.28 1448.25 1087.42 1448.49 1087.53C1448.74 1087.65 1449.06 1087.7 1449.45 1087.7C1449.98 1087.7 1450.42 1087.58 1450.76 1087.32C1451.11 1087.07 1451.28 1086.66 1451.28 1086.12V1084.79H1451.19C1451.12 1084.91 1451.01 1085.06 1450.88 1085.23C1450.74 1085.41 1450.55 1085.56 1450.3 1085.7C1450.05 1085.83 1449.71 1085.9 1449.28 1085.9C1448.75 1085.9 1448.28 1085.77 1447.86 1085.52C1447.44 1085.27 1447.11 1084.91 1446.87 1084.43C1446.63 1083.95 1446.5 1083.37 1446.5 1082.69C1446.5 1082.02 1446.62 1081.44 1446.86 1080.94C1447.09 1080.44 1447.42 1080.06 1447.84 1079.78C1448.26 1079.51 1448.75 1079.37 1449.3 1079.37C1449.73 1079.37 1450.06 1079.44 1450.31 1079.58C1450.57 1079.72 1450.76 1079.88 1450.89 1080.06C1451.03 1080.24 1451.14 1080.38 1451.21 1080.49H1451.31V1079.45H1452.28V1086.19C1452.28 1086.75 1452.16 1087.21 1451.9 1087.56C1451.65 1087.91 1451.31 1088.17 1450.88 1088.34C1450.45 1088.51 1449.98 1088.59 1449.45 1088.59ZM1449.42 1084.99C1449.82 1084.99 1450.16 1084.9 1450.44 1084.72C1450.72 1084.53 1450.93 1084.27 1451.08 1083.92C1451.22 1083.57 1451.29 1083.16 1451.29 1082.68C1451.29 1082.2 1451.22 1081.79 1451.08 1081.43C1450.94 1081.07 1450.73 1080.78 1450.45 1080.58C1450.17 1080.37 1449.83 1080.27 1449.42 1080.27C1448.99 1080.27 1448.64 1080.38 1448.35 1080.6C1448.07 1080.81 1447.86 1081.1 1447.72 1081.47C1447.58 1081.83 1447.51 1082.23 1447.51 1082.68C1447.51 1083.13 1447.58 1083.53 1447.72 1083.88C1447.87 1084.23 1448.08 1084.5 1448.36 1084.7C1448.65 1084.9 1449 1084.99 1449.42 1084.99ZM1454.77 1088.45C1454.6 1088.45 1454.45 1088.44 1454.32 1088.41C1454.18 1088.39 1454.09 1088.36 1454.04 1088.34L1454.29 1087.45C1454.54 1087.51 1454.75 1087.53 1454.94 1087.52C1455.13 1087.5 1455.3 1087.42 1455.44 1087.27C1455.59 1087.12 1455.72 1086.88 1455.85 1086.55L1456.03 1086.03L1453.61 1079.45H1454.7L1456.51 1084.67H1456.58L1458.39 1079.45H1459.48L1456.7 1086.95C1456.57 1087.29 1456.42 1087.57 1456.23 1087.79C1456.05 1088.02 1455.83 1088.18 1455.59 1088.29C1455.35 1088.4 1455.08 1088.45 1454.77 1088.45Z" fill="black" fill-opacity="0.7"/>
<path d="M1534.23 1078.21V1077.27H1540.77V1078.21H1538.03V1086H1536.97V1078.21H1534.23ZM1544.06 1086.14C1543.43 1086.14 1542.89 1086 1542.43 1085.72C1541.97 1085.44 1541.62 1085.05 1541.38 1084.54C1541.13 1084.04 1541.01 1083.45 1541.01 1082.78C1541.01 1082.11 1541.13 1081.52 1541.38 1081.01C1541.62 1080.49 1541.97 1080.09 1542.41 1079.8C1542.85 1079.51 1543.37 1079.37 1543.96 1079.37C1544.3 1079.37 1544.64 1079.43 1544.97 1079.54C1545.3 1079.65 1545.6 1079.84 1545.88 1080.09C1546.15 1080.35 1546.37 1080.68 1546.53 1081.1C1546.69 1081.52 1546.77 1082.03 1546.77 1082.64V1083.07H1541.73V1082.2H1545.75C1545.75 1081.83 1545.67 1081.5 1545.53 1081.21C1545.38 1080.92 1545.17 1080.69 1544.9 1080.52C1544.64 1080.36 1544.32 1080.27 1543.96 1080.27C1543.56 1080.27 1543.21 1080.37 1542.92 1080.57C1542.63 1080.77 1542.41 1081.02 1542.25 1081.34C1542.09 1081.65 1542.02 1081.99 1542.02 1082.35V1082.93C1542.02 1083.43 1542.1 1083.85 1542.27 1084.19C1542.44 1084.53 1542.68 1084.79 1542.99 1084.97C1543.3 1085.14 1543.65 1085.23 1544.06 1085.23C1544.33 1085.23 1544.56 1085.2 1544.78 1085.12C1544.99 1085.05 1545.18 1084.93 1545.34 1084.78C1545.49 1084.63 1545.61 1084.44 1545.7 1084.21L1546.67 1084.48C1546.57 1084.81 1546.39 1085.1 1546.15 1085.35C1545.91 1085.6 1545.61 1085.79 1545.26 1085.93C1544.9 1086.07 1544.5 1086.14 1544.06 1086.14ZM1550.96 1086.14C1550.35 1086.14 1549.82 1085.99 1549.37 1085.7C1548.93 1085.41 1548.59 1085.01 1548.35 1084.5C1548.11 1084 1547.99 1083.41 1547.99 1082.76C1547.99 1082.1 1548.12 1081.51 1548.36 1081C1548.61 1080.49 1548.95 1080.09 1549.39 1079.8C1549.84 1079.51 1550.35 1079.37 1550.94 1079.37C1551.4 1079.37 1551.82 1079.45 1552.19 1079.62C1552.56 1079.8 1552.86 1080.03 1553.1 1080.34C1553.33 1080.65 1553.48 1081.01 1553.53 1081.41H1552.53C1552.45 1081.12 1552.28 1080.85 1552.02 1080.62C1551.76 1080.39 1551.4 1080.27 1550.96 1080.27C1550.57 1080.27 1550.22 1080.37 1549.93 1080.58C1549.64 1080.78 1549.41 1081.07 1549.24 1081.44C1549.08 1081.8 1549 1082.23 1549 1082.73C1549 1083.23 1549.08 1083.67 1549.24 1084.05C1549.4 1084.42 1549.63 1084.71 1549.92 1084.92C1550.22 1085.13 1550.56 1085.23 1550.96 1085.23C1551.22 1085.23 1551.46 1085.19 1551.67 1085.1C1551.88 1085.01 1552.07 1084.88 1552.21 1084.7C1552.36 1084.53 1552.47 1084.33 1552.53 1084.09H1553.53C1553.48 1084.48 1553.34 1084.83 1553.11 1085.13C1552.89 1085.44 1552.6 1085.69 1552.23 1085.87C1551.87 1086.05 1551.44 1086.14 1550.96 1086.14ZM1556.01 1082.06V1086H1555V1077.27H1556.01V1080.48H1556.1C1556.25 1080.14 1556.48 1079.87 1556.79 1079.67C1557.1 1079.47 1557.51 1079.37 1558.02 1079.37C1558.47 1079.37 1558.86 1079.46 1559.19 1079.64C1559.53 1079.81 1559.79 1080.09 1559.97 1080.45C1560.16 1080.82 1560.25 1081.28 1560.25 1081.84V1086H1559.25V1081.91C1559.25 1081.39 1559.11 1080.99 1558.84 1080.7C1558.58 1080.42 1558.21 1080.27 1557.73 1080.27C1557.4 1080.27 1557.11 1080.34 1556.85 1080.48C1556.59 1080.62 1556.38 1080.82 1556.23 1081.09C1556.08 1081.36 1556.01 1081.68 1556.01 1082.06ZM1563.1 1082.06V1086H1562.09V1079.45H1563.07V1080.48H1563.15C1563.3 1080.14 1563.54 1079.88 1563.85 1079.68C1564.16 1079.47 1564.57 1079.37 1565.06 1079.37C1565.5 1079.37 1565.89 1079.46 1566.22 1079.64C1566.56 1079.82 1566.81 1080.09 1567 1080.46C1567.18 1080.82 1567.28 1081.28 1567.28 1081.84V1086H1566.27V1081.91C1566.27 1081.39 1566.14 1080.99 1565.87 1080.71C1565.6 1080.42 1565.24 1080.27 1564.77 1080.27C1564.45 1080.27 1564.16 1080.34 1563.91 1080.48C1563.66 1080.62 1563.46 1080.82 1563.32 1081.09C1563.17 1081.36 1563.1 1081.68 1563.1 1082.06ZM1571.77 1086.14C1571.18 1086.14 1570.66 1086 1570.22 1085.71C1569.77 1085.43 1569.43 1085.04 1569.18 1084.53C1568.93 1084.03 1568.81 1083.44 1568.81 1082.76C1568.81 1082.08 1568.93 1081.48 1569.18 1080.98C1569.43 1080.47 1569.77 1080.07 1570.22 1079.79C1570.66 1079.51 1571.18 1079.37 1571.77 1079.37C1572.36 1079.37 1572.88 1079.51 1573.32 1079.79C1573.77 1080.07 1574.12 1080.47 1574.36 1080.98C1574.61 1081.48 1574.74 1082.08 1574.74 1082.76C1574.74 1083.44 1574.61 1084.03 1574.36 1084.53C1574.12 1085.04 1573.77 1085.43 1573.32 1085.71C1572.88 1086 1572.36 1086.14 1571.77 1086.14ZM1571.77 1085.23C1572.22 1085.23 1572.59 1085.12 1572.88 1084.89C1573.17 1084.66 1573.38 1084.36 1573.52 1083.98C1573.66 1083.61 1573.73 1083.2 1573.73 1082.76C1573.73 1082.32 1573.66 1081.92 1573.52 1081.54C1573.38 1081.16 1573.17 1080.86 1572.88 1080.62C1572.59 1080.39 1572.22 1080.27 1571.77 1080.27C1571.32 1080.27 1570.95 1080.39 1570.66 1080.62C1570.37 1080.86 1570.16 1081.16 1570.02 1081.54C1569.88 1081.92 1569.81 1082.32 1569.81 1082.76C1569.81 1083.2 1569.88 1083.61 1570.02 1083.98C1570.16 1084.36 1570.37 1084.66 1570.66 1084.89C1570.95 1085.12 1571.32 1085.23 1571.77 1085.23ZM1577.28 1077.27V1086H1576.27V1077.27H1577.28ZM1581.78 1086.14C1581.19 1086.14 1580.67 1086 1580.22 1085.71C1579.78 1085.43 1579.44 1085.04 1579.19 1084.53C1578.94 1084.03 1578.81 1083.44 1578.81 1082.76C1578.81 1082.08 1578.94 1081.48 1579.19 1080.98C1579.44 1080.47 1579.78 1080.07 1580.22 1079.79C1580.67 1079.51 1581.19 1079.37 1581.78 1079.37C1582.37 1079.37 1582.89 1079.51 1583.33 1079.79C1583.78 1080.07 1584.12 1080.47 1584.37 1080.98C1584.62 1081.48 1584.75 1082.08 1584.75 1082.76C1584.75 1083.44 1584.62 1084.03 1584.37 1084.53C1584.12 1085.04 1583.78 1085.43 1583.33 1085.71C1582.89 1086 1582.37 1086.14 1581.78 1086.14ZM1581.78 1085.23C1582.23 1085.23 1582.6 1085.12 1582.89 1084.89C1583.18 1084.66 1583.39 1084.36 1583.53 1083.98C1583.67 1083.61 1583.74 1083.2 1583.74 1082.76C1583.74 1082.32 1583.67 1081.92 1583.53 1081.54C1583.39 1081.16 1583.18 1080.86 1582.89 1080.62C1582.6 1080.39 1582.23 1080.27 1581.78 1080.27C1581.33 1080.27 1580.96 1080.39 1580.67 1080.62C1580.38 1080.86 1580.17 1081.16 1580.03 1081.54C1579.89 1081.92 1579.82 1082.32 1579.82 1082.76C1579.82 1083.2 1579.89 1083.61 1580.03 1083.98C1580.17 1084.36 1580.38 1084.66 1580.67 1084.89C1580.96 1085.12 1581.33 1085.23 1581.78 1085.23ZM1588.92 1088.59C1588.44 1088.59 1588.02 1088.53 1587.67 1088.4C1587.32 1088.28 1587.03 1088.12 1586.8 1087.92C1586.57 1087.72 1586.38 1087.51 1586.25 1087.28L1587.05 1086.72C1587.14 1086.84 1587.25 1086.97 1587.39 1087.12C1587.53 1087.28 1587.72 1087.42 1587.96 1087.53C1588.21 1087.65 1588.53 1087.7 1588.92 1087.7C1589.45 1087.7 1589.89 1087.58 1590.23 1087.32C1590.58 1087.07 1590.75 1086.66 1590.75 1086.12V1084.79H1590.66C1590.59 1084.91 1590.48 1085.06 1590.35 1085.23C1590.21 1085.41 1590.02 1085.56 1589.77 1085.7C1589.52 1085.83 1589.18 1085.9 1588.75 1085.9C1588.22 1085.9 1587.75 1085.77 1587.33 1085.52C1586.91 1085.27 1586.58 1084.91 1586.34 1084.43C1586.1 1083.95 1585.97 1083.37 1585.97 1082.69C1585.97 1082.02 1586.09 1081.44 1586.33 1080.94C1586.56 1080.44 1586.89 1080.06 1587.31 1079.78C1587.73 1079.51 1588.22 1079.37 1588.77 1079.37C1589.2 1079.37 1589.53 1079.44 1589.78 1079.58C1590.04 1079.72 1590.23 1079.88 1590.36 1080.06C1590.5 1080.24 1590.61 1080.38 1590.68 1080.49H1590.78V1079.45H1591.75V1086.19C1591.75 1086.75 1591.63 1087.21 1591.37 1087.56C1591.12 1087.91 1590.78 1088.17 1590.35 1088.34C1589.92 1088.51 1589.45 1088.59 1588.92 1088.59ZM1588.89 1084.99C1589.29 1084.99 1589.63 1084.9 1589.91 1084.72C1590.19 1084.53 1590.4 1084.27 1590.55 1083.92C1590.69 1083.57 1590.76 1083.16 1590.76 1082.68C1590.76 1082.2 1590.69 1081.79 1590.55 1081.43C1590.41 1081.07 1590.2 1080.78 1589.92 1080.58C1589.64 1080.37 1589.3 1080.27 1588.89 1080.27C1588.46 1080.27 1588.11 1080.38 1587.82 1080.6C1587.54 1080.81 1587.33 1081.1 1587.19 1081.47C1587.05 1081.83 1586.98 1082.23 1586.98 1082.68C1586.98 1083.13 1587.05 1083.53 1587.19 1083.88C1587.34 1084.23 1587.55 1084.5 1587.83 1084.7C1588.12 1084.9 1588.47 1084.99 1588.89 1084.99ZM1594.24 1088.45C1594.07 1088.45 1593.92 1088.44 1593.79 1088.41C1593.65 1088.39 1593.56 1088.36 1593.51 1088.34L1593.76 1087.45C1594.01 1087.51 1594.22 1087.53 1594.41 1087.52C1594.6 1087.5 1594.77 1087.42 1594.91 1087.27C1595.06 1087.12 1595.19 1086.88 1595.32 1086.55L1595.5 1086.03L1593.08 1079.45H1594.17L1595.98 1084.67H1596.05L1597.86 1079.45H1598.95L1596.17 1086.95C1596.04 1087.29 1595.89 1087.57 1595.7 1087.79C1595.52 1088.02 1595.3 1088.18 1595.06 1088.29C1594.82 1088.4 1594.55 1088.45 1594.24 1088.45Z" fill="black" fill-opacity="0.7"/>
<path d="M1669.36 1080H1668.3C1668.24 1079.7 1668.13 1079.43 1667.98 1079.2C1667.82 1078.97 1667.63 1078.78 1667.41 1078.62C1667.19 1078.46 1666.95 1078.34 1666.68 1078.26C1666.42 1078.18 1666.14 1078.14 1665.85 1078.14C1665.32 1078.14 1664.84 1078.28 1664.41 1078.54C1663.99 1078.81 1663.65 1079.2 1663.39 1079.72C1663.14 1080.24 1663.02 1080.88 1663.02 1081.64C1663.02 1082.39 1663.14 1083.03 1663.39 1083.55C1663.65 1084.07 1663.99 1084.46 1664.41 1084.73C1664.84 1085 1665.32 1085.13 1665.85 1085.13C1666.14 1085.13 1666.42 1085.09 1666.68 1085.01C1666.95 1084.93 1667.19 1084.81 1667.41 1084.66C1667.63 1084.5 1667.82 1084.3 1667.98 1084.07C1668.13 1083.84 1668.24 1083.57 1668.3 1083.27H1669.36C1669.28 1083.72 1669.14 1084.12 1668.93 1084.47C1668.72 1084.82 1668.45 1085.12 1668.14 1085.37C1667.83 1085.61 1667.48 1085.8 1667.09 1085.93C1666.7 1086.06 1666.29 1086.12 1665.85 1086.12C1665.1 1086.12 1664.44 1085.94 1663.86 1085.57C1663.28 1085.21 1662.83 1084.69 1662.5 1084.02C1662.16 1083.35 1662 1082.56 1662 1081.64C1662 1080.72 1662.16 1079.92 1662.5 1079.25C1662.83 1078.58 1663.28 1078.06 1663.86 1077.7C1664.44 1077.34 1665.1 1077.15 1665.85 1077.15C1666.29 1077.15 1666.7 1077.22 1667.09 1077.35C1667.48 1077.47 1667.83 1077.66 1668.14 1077.91C1668.45 1078.15 1668.72 1078.45 1668.93 1078.8C1669.14 1079.15 1669.28 1079.55 1669.36 1080ZM1672.86 1086.15C1672.44 1086.15 1672.07 1086.08 1671.73 1085.92C1671.39 1085.76 1671.12 1085.53 1670.92 1085.23C1670.72 1084.93 1670.63 1084.57 1670.63 1084.14C1670.63 1083.77 1670.7 1083.46 1670.85 1083.23C1670.99 1082.99 1671.19 1082.81 1671.44 1082.68C1671.69 1082.54 1671.96 1082.44 1672.26 1082.38C1672.56 1082.31 1672.86 1082.26 1673.16 1082.22C1673.56 1082.16 1673.88 1082.13 1674.13 1082.1C1674.38 1082.07 1674.56 1082.03 1674.68 1081.96C1674.79 1081.89 1674.85 1081.78 1674.85 1081.62V1081.59C1674.85 1081.16 1674.74 1080.84 1674.51 1080.61C1674.28 1080.37 1673.93 1080.26 1673.47 1080.26C1672.99 1080.26 1672.62 1080.36 1672.34 1080.57C1672.07 1080.78 1671.88 1081.01 1671.77 1081.24L1670.81 1080.9C1670.98 1080.51 1671.21 1080.2 1671.49 1079.97C1671.78 1079.75 1672.09 1079.59 1672.43 1079.51C1672.77 1079.41 1673.11 1079.37 1673.44 1079.37C1673.65 1079.37 1673.89 1079.39 1674.16 1079.45C1674.44 1079.49 1674.7 1079.6 1674.96 1079.75C1675.22 1079.9 1675.43 1080.13 1675.6 1080.44C1675.77 1080.75 1675.86 1081.17 1675.86 1081.69V1086H1674.85V1085.11H1674.8C1674.73 1085.26 1674.62 1085.41 1674.46 1085.57C1674.3 1085.73 1674.09 1085.87 1673.83 1085.98C1673.56 1086.1 1673.24 1086.15 1672.86 1086.15ZM1673.01 1085.25C1673.41 1085.25 1673.74 1085.17 1674.02 1085.02C1674.29 1084.86 1674.5 1084.66 1674.64 1084.41C1674.78 1084.16 1674.85 1083.9 1674.85 1083.63V1082.71C1674.81 1082.76 1674.72 1082.81 1674.57 1082.85C1674.43 1082.89 1674.26 1082.93 1674.08 1082.96C1673.89 1082.99 1673.71 1083.01 1673.54 1083.03C1673.36 1083.05 1673.22 1083.07 1673.11 1083.09C1672.85 1083.12 1672.61 1083.17 1672.38 1083.25C1672.16 1083.33 1671.97 1083.44 1671.84 1083.59C1671.7 1083.74 1671.63 1083.94 1671.63 1084.19C1671.63 1084.54 1671.76 1084.81 1672.02 1084.99C1672.28 1085.16 1672.61 1085.25 1673.01 1085.25ZM1677.69 1086V1079.45H1678.67V1080.44H1678.73C1678.85 1080.12 1679.07 1079.86 1679.38 1079.65C1679.69 1079.45 1680.05 1079.35 1680.44 1079.35C1680.51 1079.35 1680.6 1079.35 1680.71 1079.36C1680.83 1079.36 1680.91 1079.36 1680.97 1079.37V1080.39C1680.93 1080.38 1680.85 1080.37 1680.73 1080.35C1680.61 1080.33 1680.49 1080.32 1680.35 1080.32C1680.03 1080.32 1679.75 1080.39 1679.5 1080.52C1679.25 1080.65 1679.06 1080.84 1678.91 1081.07C1678.77 1081.3 1678.7 1081.56 1678.7 1081.86V1086H1677.69ZM1685.67 1086V1077.27H1688.72C1689.33 1077.27 1689.83 1077.38 1690.23 1077.59C1690.62 1077.8 1690.91 1078.08 1691.11 1078.43C1691.3 1078.78 1691.4 1079.16 1691.4 1079.59C1691.4 1079.97 1691.33 1080.28 1691.2 1080.52C1691.07 1080.76 1690.89 1080.96 1690.68 1081.1C1690.46 1081.24 1690.23 1081.35 1689.98 1081.41V1081.5C1690.25 1081.52 1690.52 1081.61 1690.79 1081.78C1691.06 1081.95 1691.28 1082.2 1691.47 1082.51C1691.65 1082.83 1691.74 1083.22 1691.74 1083.68C1691.74 1084.12 1691.64 1084.51 1691.44 1084.86C1691.24 1085.21 1690.93 1085.49 1690.5 1085.69C1690.07 1085.9 1689.51 1086 1688.82 1086H1685.67ZM1686.73 1085.06H1688.82C1689.51 1085.06 1690 1084.93 1690.29 1084.66C1690.59 1084.39 1690.73 1084.07 1690.73 1083.68C1690.73 1083.39 1690.66 1083.11 1690.51 1082.86C1690.36 1082.61 1690.14 1082.41 1689.86 1082.26C1689.58 1082.11 1689.25 1082.03 1688.87 1082.03H1686.73V1085.06ZM1686.73 1081.11H1688.69C1689 1081.11 1689.29 1081.05 1689.55 1080.92C1689.81 1080.8 1690.01 1080.62 1690.16 1080.39C1690.31 1080.16 1690.39 1079.9 1690.39 1079.59C1690.39 1079.21 1690.26 1078.88 1689.99 1078.62C1689.72 1078.35 1689.3 1078.21 1688.72 1078.21H1686.73V1081.11ZM1693.34 1086V1079.45H1694.31V1080.44H1694.38C1694.5 1080.12 1694.71 1079.86 1695.03 1079.65C1695.34 1079.45 1695.69 1079.35 1696.08 1079.35C1696.16 1079.35 1696.25 1079.35 1696.36 1079.36C1696.47 1079.36 1696.55 1079.36 1696.61 1079.37V1080.39C1696.58 1080.38 1696.5 1080.37 1696.38 1080.35C1696.26 1080.33 1696.13 1080.32 1696 1080.32C1695.68 1080.32 1695.39 1080.39 1695.14 1080.52C1694.9 1080.65 1694.7 1080.84 1694.56 1081.07C1694.41 1081.3 1694.34 1081.56 1694.34 1081.86V1086H1693.34ZM1699.73 1086.15C1699.31 1086.15 1698.94 1086.08 1698.6 1085.92C1698.26 1085.76 1697.99 1085.53 1697.79 1085.23C1697.6 1084.93 1697.5 1084.57 1697.5 1084.14C1697.5 1083.77 1697.57 1083.46 1697.72 1083.23C1697.87 1082.99 1698.06 1082.81 1698.31 1082.68C1698.56 1082.54 1698.83 1082.44 1699.13 1082.38C1699.43 1082.31 1699.73 1082.26 1700.04 1082.22C1700.43 1082.16 1700.76 1082.13 1701 1082.1C1701.25 1082.07 1701.44 1082.03 1701.55 1081.96C1701.67 1081.89 1701.72 1081.78 1701.72 1081.62V1081.59C1701.72 1081.16 1701.61 1080.84 1701.38 1080.61C1701.15 1080.37 1700.81 1080.26 1700.34 1080.26C1699.86 1080.26 1699.49 1080.36 1699.21 1080.57C1698.94 1080.78 1698.75 1081.01 1698.64 1081.24L1697.68 1080.9C1697.85 1080.51 1698.08 1080.2 1698.37 1079.97C1698.65 1079.75 1698.96 1079.59 1699.3 1079.51C1699.64 1079.41 1699.98 1079.37 1700.31 1079.37C1700.52 1079.37 1700.76 1079.39 1701.03 1079.45C1701.31 1079.49 1701.57 1079.6 1701.83 1079.75C1702.09 1079.9 1702.3 1080.13 1702.47 1080.44C1702.64 1080.75 1702.73 1081.17 1702.73 1081.69V1086H1701.72V1085.11H1701.67C1701.6 1085.26 1701.49 1085.41 1701.33 1085.57C1701.17 1085.73 1700.96 1085.87 1700.7 1085.98C1700.43 1086.1 1700.11 1086.15 1699.73 1086.15ZM1699.88 1085.25C1700.28 1085.25 1700.62 1085.17 1700.89 1085.02C1701.16 1084.86 1701.37 1084.66 1701.51 1084.41C1701.65 1084.16 1701.72 1083.9 1701.72 1083.63V1082.71C1701.68 1082.76 1701.59 1082.81 1701.44 1082.85C1701.3 1082.89 1701.14 1082.93 1700.95 1082.96C1700.76 1082.99 1700.58 1083.01 1700.41 1083.03C1700.23 1083.05 1700.09 1083.07 1699.98 1083.09C1699.72 1083.12 1699.48 1083.17 1699.25 1083.25C1699.03 1083.33 1698.85 1083.44 1698.71 1083.59C1698.57 1083.74 1698.5 1083.94 1698.5 1084.19C1698.5 1084.54 1698.63 1084.81 1698.89 1084.99C1699.15 1085.16 1699.48 1085.25 1699.88 1085.25ZM1705.57 1082.06V1086H1704.56V1079.45H1705.54V1080.48H1705.62C1705.77 1080.14 1706.01 1079.88 1706.32 1079.68C1706.63 1079.47 1707.04 1079.37 1707.53 1079.37C1707.97 1079.37 1708.36 1079.46 1708.69 1079.64C1709.03 1079.82 1709.28 1080.09 1709.47 1080.46C1709.65 1080.82 1709.75 1081.28 1709.75 1081.84V1086H1708.74V1081.91C1708.74 1081.39 1708.61 1080.99 1708.34 1080.71C1708.07 1080.42 1707.71 1080.27 1707.24 1080.27C1706.92 1080.27 1706.63 1080.34 1706.38 1080.48C1706.13 1080.62 1705.93 1080.82 1705.79 1081.09C1705.64 1081.36 1705.57 1081.68 1705.57 1082.06ZM1714.06 1086.14C1713.51 1086.14 1713.03 1086 1712.61 1085.72C1712.19 1085.44 1711.87 1085.05 1711.63 1084.55C1711.4 1084.04 1711.28 1083.44 1711.28 1082.74C1711.28 1082.06 1711.4 1081.46 1711.63 1080.95C1711.87 1080.45 1712.19 1080.06 1712.62 1079.78C1713.04 1079.51 1713.52 1079.37 1714.07 1079.37C1714.5 1079.37 1714.84 1079.44 1715.08 1079.58C1715.33 1079.72 1715.52 1079.88 1715.65 1080.06C1715.79 1080.24 1715.89 1080.38 1715.96 1080.49H1716.05V1077.27H1717.06V1086H1716.08V1084.99H1715.96C1715.89 1085.11 1715.79 1085.26 1715.65 1085.45C1715.51 1085.62 1715.32 1085.79 1715.07 1085.93C1714.81 1086.07 1714.48 1086.14 1714.06 1086.14ZM1714.19 1085.23C1714.6 1085.23 1714.94 1085.13 1715.21 1084.92C1715.49 1084.7 1715.7 1084.41 1715.85 1084.04C1715.99 1083.66 1716.07 1083.22 1716.07 1082.73C1716.07 1082.24 1716 1081.81 1715.85 1081.44C1715.71 1081.08 1715.5 1080.79 1715.22 1080.58C1714.94 1080.38 1714.6 1080.27 1714.19 1080.27C1713.77 1080.27 1713.41 1080.38 1713.13 1080.6C1712.85 1080.82 1712.63 1081.11 1712.49 1081.48C1712.35 1081.85 1712.28 1082.27 1712.28 1082.73C1712.28 1083.19 1712.35 1083.62 1712.5 1084C1712.64 1084.37 1712.85 1084.68 1713.14 1084.9C1713.42 1085.12 1713.77 1085.23 1714.19 1085.23ZM1723.67 1080.92L1722.77 1081.18C1722.71 1081.03 1722.63 1080.88 1722.52 1080.74C1722.41 1080.59 1722.26 1080.47 1722.08 1080.38C1721.89 1080.29 1721.65 1080.24 1721.36 1080.24C1720.95 1080.24 1720.62 1080.33 1720.35 1080.52C1720.09 1080.7 1719.96 1080.93 1719.96 1081.21C1719.96 1081.46 1720.05 1081.66 1720.23 1081.8C1720.41 1081.95 1720.7 1082.07 1721.08 1082.16L1722.05 1082.4C1722.64 1082.55 1723.08 1082.76 1723.36 1083.06C1723.65 1083.35 1723.79 1083.72 1723.79 1084.18C1723.79 1084.55 1723.69 1084.89 1723.47 1085.18C1723.26 1085.48 1722.96 1085.71 1722.57 1085.88C1722.19 1086.05 1721.74 1086.14 1721.24 1086.14C1720.57 1086.14 1720.02 1085.99 1719.58 1085.7C1719.14 1085.41 1718.86 1084.99 1718.75 1084.43L1719.7 1084.19C1719.79 1084.55 1719.96 1084.81 1720.22 1084.99C1720.47 1085.16 1720.81 1085.25 1721.22 1085.25C1721.69 1085.25 1722.06 1085.15 1722.34 1084.95C1722.61 1084.75 1722.75 1084.51 1722.75 1084.23C1722.75 1084 1722.67 1083.81 1722.51 1083.66C1722.36 1083.5 1722.11 1083.38 1721.78 1083.31L1720.69 1083.05C1720.09 1082.91 1719.65 1082.69 1719.37 1082.39C1719.09 1082.09 1718.95 1081.71 1718.95 1081.26C1718.95 1080.89 1719.06 1080.57 1719.26 1080.28C1719.47 1080 1719.76 1079.77 1720.12 1079.61C1720.48 1079.45 1720.9 1079.37 1721.36 1079.37C1722 1079.37 1722.51 1079.51 1722.88 1079.8C1723.25 1080.08 1723.52 1080.45 1723.67 1080.92Z" fill="black" fill-opacity="0.7"/>
</g>
<rect x="1267.5" y="1108" width="16" height="2" fill="#8979FF"/>
<circle cx="1275.5" cy="1109" r="3.5" fill="white" stroke="#8979FF"/>
<path d="M1288.4 1113.5V1112.73L1291.28 1109.58C1291.62 1109.21 1291.9 1108.89 1292.12 1108.62C1292.34 1108.34 1292.5 1108.08 1292.61 1107.84C1292.71 1107.6 1292.77 1107.34 1292.77 1107.07C1292.77 1106.77 1292.69 1106.5 1292.55 1106.28C1292.4 1106.05 1292.2 1105.88 1291.95 1105.76C1291.7 1105.63 1291.41 1105.57 1291.1 1105.57C1290.76 1105.57 1290.47 1105.64 1290.22 1105.78C1289.97 1105.92 1289.78 1106.11 1289.64 1106.36C1289.51 1106.61 1289.44 1106.89 1289.44 1107.23H1288.44C1288.44 1106.72 1288.56 1106.27 1288.79 1105.88C1289.03 1105.49 1289.35 1105.19 1289.75 1104.98C1290.16 1104.76 1290.62 1104.65 1291.13 1104.65C1291.64 1104.65 1292.1 1104.76 1292.49 1104.98C1292.88 1105.19 1293.19 1105.48 1293.42 1105.85C1293.64 1106.22 1293.76 1106.62 1293.76 1107.07C1293.76 1107.39 1293.7 1107.71 1293.58 1108.02C1293.47 1108.32 1293.27 1108.66 1292.98 1109.03C1292.7 1109.41 1292.31 1109.86 1291.81 1110.4L1289.85 1112.49V1112.56H1293.91V1113.5H1288.4ZM1298.52 1113.62C1297.87 1113.62 1297.33 1113.44 1296.88 1113.1C1296.42 1112.74 1296.08 1112.23 1295.84 1111.57C1295.6 1110.89 1295.48 1110.09 1295.48 1109.14C1295.48 1108.19 1295.6 1107.39 1295.84 1106.72C1296.08 1106.05 1296.43 1105.54 1296.88 1105.19C1297.33 1104.83 1297.88 1104.65 1298.52 1104.65C1299.15 1104.65 1299.7 1104.83 1300.15 1105.19C1300.6 1105.54 1300.95 1106.05 1301.19 1106.72C1301.43 1107.39 1301.55 1108.19 1301.55 1109.14C1301.55 1110.09 1301.43 1110.89 1301.19 1111.57C1300.95 1112.23 1300.61 1112.74 1300.16 1113.1C1299.7 1113.44 1299.16 1113.62 1298.52 1113.62ZM1298.52 1112.68C1299.15 1112.68 1299.65 1112.37 1300 1111.76C1300.35 1111.15 1300.53 1110.27 1300.53 1109.14C1300.53 1108.38 1300.45 1107.74 1300.28 1107.21C1300.13 1106.67 1299.89 1106.27 1299.59 1105.99C1299.3 1105.71 1298.94 1105.57 1298.52 1105.57C1297.88 1105.57 1297.39 1105.88 1297.04 1106.51C1296.68 1107.13 1296.5 1108 1296.5 1109.14C1296.5 1109.89 1296.58 1110.53 1296.74 1111.06C1296.9 1111.59 1297.13 1111.99 1297.43 1112.27C1297.73 1112.54 1298.09 1112.68 1298.52 1112.68ZM1303.17 1113.5V1112.73L1306.05 1109.58C1306.39 1109.21 1306.67 1108.89 1306.88 1108.62C1307.1 1108.34 1307.27 1108.08 1307.37 1107.84C1307.48 1107.6 1307.53 1107.34 1307.53 1107.07C1307.53 1106.77 1307.46 1106.5 1307.31 1106.28C1307.17 1106.05 1306.97 1105.88 1306.71 1105.76C1306.46 1105.63 1306.18 1105.57 1305.86 1105.57C1305.53 1105.57 1305.23 1105.64 1304.98 1105.78C1304.74 1105.92 1304.55 1106.11 1304.41 1106.36C1304.28 1106.61 1304.21 1106.89 1304.21 1107.23H1303.2C1303.2 1106.72 1303.32 1106.27 1303.56 1105.88C1303.79 1105.49 1304.11 1105.19 1304.52 1104.98C1304.93 1104.76 1305.39 1104.65 1305.9 1104.65C1306.41 1104.65 1306.86 1104.76 1307.26 1104.98C1307.65 1105.19 1307.96 1105.48 1308.18 1105.85C1308.41 1106.22 1308.52 1106.62 1308.52 1107.07C1308.52 1107.39 1308.46 1107.71 1308.35 1108.02C1308.23 1108.32 1308.03 1108.66 1307.75 1109.03C1307.47 1109.41 1307.08 1109.86 1306.58 1110.4L1304.62 1112.49V1112.56H1308.67V1113.5H1303.17ZM1310.43 1113.5V1112.73L1313.32 1109.58C1313.65 1109.21 1313.93 1108.89 1314.15 1108.62C1314.37 1108.34 1314.53 1108.08 1314.64 1107.84C1314.74 1107.6 1314.8 1107.34 1314.8 1107.07C1314.8 1106.77 1314.72 1106.5 1314.58 1106.28C1314.43 1106.05 1314.23 1105.88 1313.98 1105.76C1313.73 1105.63 1313.44 1105.57 1313.13 1105.57C1312.79 1105.57 1312.5 1105.64 1312.25 1105.78C1312 1105.92 1311.81 1106.11 1311.67 1106.36C1311.54 1106.61 1311.47 1106.89 1311.47 1107.23H1310.47C1310.47 1106.72 1310.59 1106.27 1310.82 1105.88C1311.06 1105.49 1311.38 1105.19 1311.79 1104.98C1312.19 1104.76 1312.65 1104.65 1313.16 1104.65C1313.67 1104.65 1314.13 1104.76 1314.52 1104.98C1314.92 1105.19 1315.23 1105.48 1315.45 1105.85C1315.67 1106.22 1315.79 1106.62 1315.79 1107.07C1315.79 1107.39 1315.73 1107.71 1315.61 1108.02C1315.5 1108.32 1315.3 1108.66 1315.02 1109.03C1314.73 1109.41 1314.34 1109.86 1313.84 1110.4L1311.88 1112.49V1112.56H1315.94V1113.5H1310.43Z" fill="black" fill-opacity="0.7"/>
<rect x="1333.5" y="1108" width="16" height="2" fill="#FF928A"/>
<circle cx="1341.5" cy="1109" r="3.5" fill="white" stroke="#FF928A"/>
<path d="M1354.4 1113.5V1112.73L1357.28 1109.58C1357.62 1109.21 1357.9 1108.89 1358.12 1108.62C1358.34 1108.34 1358.5 1108.08 1358.61 1107.84C1358.71 1107.6 1358.77 1107.34 1358.77 1107.07C1358.77 1106.77 1358.69 1106.5 1358.55 1106.28C1358.4 1106.05 1358.2 1105.88 1357.95 1105.76C1357.7 1105.63 1357.41 1105.57 1357.1 1105.57C1356.76 1105.57 1356.47 1105.64 1356.22 1105.78C1355.97 1105.92 1355.78 1106.11 1355.64 1106.36C1355.51 1106.61 1355.44 1106.89 1355.44 1107.23H1354.44C1354.44 1106.72 1354.56 1106.27 1354.79 1105.88C1355.03 1105.49 1355.35 1105.19 1355.75 1104.98C1356.16 1104.76 1356.62 1104.65 1357.13 1104.65C1357.64 1104.65 1358.1 1104.76 1358.49 1104.98C1358.88 1105.19 1359.19 1105.48 1359.42 1105.85C1359.64 1106.22 1359.76 1106.62 1359.76 1107.07C1359.76 1107.39 1359.7 1107.71 1359.58 1108.02C1359.47 1108.32 1359.27 1108.66 1358.98 1109.03C1358.7 1109.41 1358.31 1109.86 1357.81 1110.4L1355.85 1112.49V1112.56H1359.91V1113.5H1354.4ZM1364.52 1113.62C1363.87 1113.62 1363.33 1113.44 1362.88 1113.1C1362.42 1112.74 1362.08 1112.23 1361.84 1111.57C1361.6 1110.89 1361.48 1110.09 1361.48 1109.14C1361.48 1108.19 1361.6 1107.39 1361.84 1106.72C1362.08 1106.05 1362.43 1105.54 1362.88 1105.19C1363.33 1104.83 1363.88 1104.65 1364.52 1104.65C1365.15 1104.65 1365.7 1104.83 1366.15 1105.19C1366.6 1105.54 1366.95 1106.05 1367.19 1106.72C1367.43 1107.39 1367.55 1108.19 1367.55 1109.14C1367.55 1110.09 1367.43 1110.89 1367.19 1111.57C1366.95 1112.23 1366.61 1112.74 1366.16 1113.1C1365.7 1113.44 1365.16 1113.62 1364.52 1113.62ZM1364.52 1112.68C1365.15 1112.68 1365.65 1112.37 1366 1111.76C1366.35 1111.15 1366.53 1110.27 1366.53 1109.14C1366.53 1108.38 1366.45 1107.74 1366.28 1107.21C1366.13 1106.67 1365.89 1106.27 1365.59 1105.99C1365.3 1105.71 1364.94 1105.57 1364.52 1105.57C1363.88 1105.57 1363.39 1105.88 1363.04 1106.51C1362.68 1107.13 1362.5 1108 1362.5 1109.14C1362.5 1109.89 1362.58 1110.53 1362.74 1111.06C1362.9 1111.59 1363.13 1111.99 1363.43 1112.27C1363.73 1112.54 1364.09 1112.68 1364.52 1112.68ZM1369.17 1113.5V1112.73L1372.05 1109.58C1372.39 1109.21 1372.67 1108.89 1372.88 1108.62C1373.1 1108.34 1373.27 1108.08 1373.37 1107.84C1373.48 1107.6 1373.53 1107.34 1373.53 1107.07C1373.53 1106.77 1373.46 1106.5 1373.31 1106.28C1373.17 1106.05 1372.97 1105.88 1372.71 1105.76C1372.46 1105.63 1372.18 1105.57 1371.86 1105.57C1371.53 1105.57 1371.23 1105.64 1370.98 1105.78C1370.74 1105.92 1370.55 1106.11 1370.41 1106.36C1370.28 1106.61 1370.21 1106.89 1370.21 1107.23H1369.2C1369.2 1106.72 1369.32 1106.27 1369.56 1105.88C1369.79 1105.49 1370.11 1105.19 1370.52 1104.98C1370.93 1104.76 1371.39 1104.65 1371.9 1104.65C1372.41 1104.65 1372.86 1104.76 1373.26 1104.98C1373.65 1105.19 1373.96 1105.48 1374.18 1105.85C1374.41 1106.22 1374.52 1106.62 1374.52 1107.07C1374.52 1107.39 1374.46 1107.71 1374.35 1108.02C1374.23 1108.32 1374.03 1108.66 1373.75 1109.03C1373.47 1109.41 1373.08 1109.86 1372.58 1110.4L1370.62 1112.49V1112.56H1374.67V1113.5H1369.17ZM1379.38 1113.62C1378.82 1113.62 1378.32 1113.52 1377.88 1113.33C1377.44 1113.14 1377.09 1112.87 1376.84 1112.52C1376.58 1112.18 1376.44 1111.78 1376.42 1111.32H1377.49C1377.51 1111.6 1377.61 1111.84 1377.78 1112.05C1377.95 1112.25 1378.17 1112.4 1378.45 1112.52C1378.73 1112.63 1379.03 1112.68 1379.37 1112.68C1379.74 1112.68 1380.07 1112.62 1380.36 1112.49C1380.65 1112.36 1380.88 1112.17 1381.05 1111.94C1381.21 1111.71 1381.29 1111.44 1381.29 1111.13C1381.29 1110.81 1381.21 1110.53 1381.05 1110.28C1380.89 1110.04 1380.66 1109.84 1380.36 1109.7C1380.05 1109.56 1379.67 1109.49 1379.23 1109.49H1378.53V1108.56H1379.23C1379.58 1108.56 1379.88 1108.49 1380.14 1108.37C1380.41 1108.24 1380.61 1108.07 1380.76 1107.84C1380.91 1107.61 1380.99 1107.35 1380.99 1107.04C1380.99 1106.74 1380.92 1106.49 1380.79 1106.27C1380.66 1106.05 1380.47 1105.88 1380.24 1105.76C1380 1105.63 1379.72 1105.57 1379.4 1105.57C1379.1 1105.57 1378.82 1105.63 1378.55 1105.74C1378.28 1105.85 1378.07 1106.01 1377.9 1106.21C1377.73 1106.42 1377.64 1106.66 1377.63 1106.95H1376.61C1376.62 1106.5 1376.76 1106.1 1377.02 1105.75C1377.28 1105.41 1377.62 1105.14 1378.03 1104.94C1378.45 1104.75 1378.91 1104.65 1379.42 1104.65C1379.96 1104.65 1380.42 1104.76 1380.81 1104.98C1381.19 1105.2 1381.49 1105.48 1381.7 1105.84C1381.9 1106.19 1382.01 1106.58 1382.01 1106.99C1382.01 1107.48 1381.88 1107.9 1381.62 1108.25C1381.37 1108.59 1381.02 1108.83 1380.58 1108.97V1109.03C1381.13 1109.12 1381.56 1109.36 1381.87 1109.74C1382.18 1110.11 1382.33 1110.58 1382.33 1111.13C1382.33 1111.61 1382.2 1112.03 1381.94 1112.41C1381.69 1112.78 1381.34 1113.08 1380.9 1113.3C1380.45 1113.51 1379.95 1113.62 1379.38 1113.62Z" fill="black" fill-opacity="0.7"/>
<rect x="1399.5" y="1108" width="16" height="2" fill="#3CC3DF"/>
<circle cx="1407.5" cy="1109" r="3.5" fill="white" stroke="#3CC3DF"/>
<path d="M1420.4 1113.5V1112.73L1423.28 1109.58C1423.62 1109.21 1423.9 1108.89 1424.12 1108.62C1424.34 1108.34 1424.5 1108.08 1424.61 1107.84C1424.71 1107.6 1424.77 1107.34 1424.77 1107.07C1424.77 1106.77 1424.69 1106.5 1424.55 1106.28C1424.4 1106.05 1424.2 1105.88 1423.95 1105.76C1423.7 1105.63 1423.41 1105.57 1423.1 1105.57C1422.76 1105.57 1422.47 1105.64 1422.22 1105.78C1421.97 1105.92 1421.78 1106.11 1421.64 1106.36C1421.51 1106.61 1421.44 1106.89 1421.44 1107.23H1420.44C1420.44 1106.72 1420.56 1106.27 1420.79 1105.88C1421.03 1105.49 1421.35 1105.19 1421.75 1104.98C1422.16 1104.76 1422.62 1104.65 1423.13 1104.65C1423.64 1104.65 1424.1 1104.76 1424.49 1104.98C1424.88 1105.19 1425.19 1105.48 1425.42 1105.85C1425.64 1106.22 1425.76 1106.62 1425.76 1107.07C1425.76 1107.39 1425.7 1107.71 1425.58 1108.02C1425.47 1108.32 1425.27 1108.66 1424.98 1109.03C1424.7 1109.41 1424.31 1109.86 1423.81 1110.4L1421.85 1112.49V1112.56H1425.91V1113.5H1420.4ZM1430.52 1113.62C1429.87 1113.62 1429.33 1113.44 1428.88 1113.1C1428.42 1112.74 1428.08 1112.23 1427.84 1111.57C1427.6 1110.89 1427.48 1110.09 1427.48 1109.14C1427.48 1108.19 1427.6 1107.39 1427.84 1106.72C1428.08 1106.05 1428.43 1105.54 1428.88 1105.19C1429.33 1104.83 1429.88 1104.65 1430.52 1104.65C1431.15 1104.65 1431.7 1104.83 1432.15 1105.19C1432.6 1105.54 1432.95 1106.05 1433.19 1106.72C1433.43 1107.39 1433.55 1108.19 1433.55 1109.14C1433.55 1110.09 1433.43 1110.89 1433.19 1111.57C1432.95 1112.23 1432.61 1112.74 1432.16 1113.1C1431.7 1113.44 1431.16 1113.62 1430.52 1113.62ZM1430.52 1112.68C1431.15 1112.68 1431.65 1112.37 1432 1111.76C1432.35 1111.15 1432.53 1110.27 1432.53 1109.14C1432.53 1108.38 1432.45 1107.74 1432.28 1107.21C1432.13 1106.67 1431.89 1106.27 1431.59 1105.99C1431.3 1105.71 1430.94 1105.57 1430.52 1105.57C1429.88 1105.57 1429.39 1105.88 1429.04 1106.51C1428.68 1107.13 1428.5 1108 1428.5 1109.14C1428.5 1109.89 1428.58 1110.53 1428.74 1111.06C1428.9 1111.59 1429.13 1111.99 1429.43 1112.27C1429.73 1112.54 1430.09 1112.68 1430.52 1112.68ZM1435.17 1113.5V1112.73L1438.05 1109.58C1438.39 1109.21 1438.67 1108.89 1438.88 1108.62C1439.1 1108.34 1439.27 1108.08 1439.37 1107.84C1439.48 1107.6 1439.53 1107.34 1439.53 1107.07C1439.53 1106.77 1439.46 1106.5 1439.31 1106.28C1439.17 1106.05 1438.97 1105.88 1438.71 1105.76C1438.46 1105.63 1438.18 1105.57 1437.86 1105.57C1437.53 1105.57 1437.23 1105.64 1436.98 1105.78C1436.74 1105.92 1436.55 1106.11 1436.41 1106.36C1436.28 1106.61 1436.21 1106.89 1436.21 1107.23H1435.2C1435.2 1106.72 1435.32 1106.27 1435.56 1105.88C1435.79 1105.49 1436.11 1105.19 1436.52 1104.98C1436.93 1104.76 1437.39 1104.65 1437.9 1104.65C1438.41 1104.65 1438.86 1104.76 1439.26 1104.98C1439.65 1105.19 1439.96 1105.48 1440.18 1105.85C1440.41 1106.22 1440.52 1106.62 1440.52 1107.07C1440.52 1107.39 1440.46 1107.71 1440.35 1108.02C1440.23 1108.32 1440.03 1108.66 1439.75 1109.03C1439.47 1109.41 1439.08 1109.86 1438.58 1110.4L1436.62 1112.49V1112.56H1440.67V1113.5H1435.17ZM1442.04 1111.71V1110.84L1445.88 1104.77H1446.51V1106.12H1446.08L1443.18 1110.7V1110.77H1448.35V1111.71H1442.04ZM1446.15 1113.5V1111.45V1111.04V1104.77H1447.16V1113.5H1446.15Z" fill="black" fill-opacity="0.7"/>
</g>
<defs>
<filter id="filter0_f_6079_52068" x="967" y="354.939" width="791.375" height="744.061" filterUnits="userSpaceOnUse" color-interpolation-filters="sRGB">
<feFlood flood-opacity="0" result="BackgroundImageFix"/>
<feBlend mode="normal" in="SourceGraphic" in2="BackgroundImageFix" result="shape"/>
<feGaussianBlur stdDeviation="1" result="effect1_foregroundBlur_6079_52068"/>
</filter>
<linearGradient id="paint0_linear_6079_52068" x1="1422.04" y1="-1.21334e-05" x2="302.902" y2="1097.33" gradientUnits="userSpaceOnUse">
<stop stop-color="#6C5B7B"/>
<stop offset="1" stop-color="#D1C4E9"/>
</linearGradient>
<linearGradient id="paint1_linear_6079_52068" x1="1377.5" y1="464.131" x2="1377.5" y2="1069" gradientUnits="userSpaceOnUse">
<stop stop-color="#3CC3DF" stop-opacity="0.3"/>
<stop offset="1" stop-color="#3CC3DF" stop-opacity="0.05"/>
</linearGradient>
<linearGradient id="paint2_linear_6079_52068" x1="1377.5" y1="428.036" x2="1377.5" y2="1069" gradientUnits="userSpaceOnUse">
<stop stop-color="#FF928A" stop-opacity="0.3"/>
<stop offset="1" stop-color="#FF928A" stop-opacity="0.05"/>
</linearGradient>
<linearGradient id="paint3_linear_6079_52068" x1="1377.5" y1="478.351" x2="1377.5" y2="1069" gradientUnits="userSpaceOnUse">
<stop stop-color="#8979FF" stop-opacity="0.3"/>
<stop offset="1" stop-color="#8979FF" stop-opacity="0.05"/>
</linearGradient>
</defs>
</svg>
