<svg width="289" height="207" viewBox="0 0 289 207" fill="none" xmlns="http://www.w3.org/2000/svg">
<rect x="1" width="288" height="207" rx="4.5866" fill="#141619"/>
<mask id="mask0_3762_55743" style="mask-type:alpha" maskUnits="userSpaceOnUse" x="0" y="0" width="289" height="207">
<rect width="289" height="207" rx="4.5866" fill="#141619"/>
</mask>
<g mask="url(#mask0_3762_55743)">
<line x1="1.00391" y1="8.33333" x2="290.004" y2="8.33333" stroke="#181D26" stroke-width="0.333333"/>
<line x1="1.00391" y1="8.33333" x2="290.004" y2="8.33333" stroke="#181D26" stroke-width="0.333333"/>
<line x1="1.00391" y1="21.6654" x2="290.004" y2="21.6654" stroke="#181D26" stroke-width="0.333333"/>
<line x1="1.00391" y1="34.9974" x2="290.004" y2="34.9974" stroke="#181D26" stroke-width="0.333333"/>
<line x1="1.00391" y1="48.3333" x2="290.004" y2="48.3333" stroke="#181D26" stroke-width="0.333333"/>
<line x1="1.00391" y1="61.6654" x2="290.004" y2="61.6654" stroke="#181D26" stroke-width="0.333333"/>
<line x1="1.00391" y1="75.0013" x2="290.004" y2="75.0013" stroke="#181D26" stroke-width="0.333333"/>
<line x1="1.00391" y1="88.0013" x2="290.004" y2="88.0013" stroke="#181D26" stroke-width="0.333333"/>
<line x1="1.00391" y1="101.001" x2="290.004" y2="101.001" stroke="#181D26" stroke-width="0.333333"/>
<line x1="1.00391" y1="114.001" x2="290.004" y2="114.001" stroke="#181D26" stroke-width="0.333333"/>
<line x1="1.00391" y1="127.001" x2="290.004" y2="127.001" stroke="#181D26" stroke-width="0.333333"/>
<line x1="1.00391" y1="140.001" x2="290.004" y2="140.001" stroke="#181D26" stroke-width="0.333333"/>
<line x1="1.00391" y1="153.001" x2="290.004" y2="153.001" stroke="#181D26" stroke-width="0.333333"/>
<line x1="1.00391" y1="166.001" x2="290.004" y2="166.001" stroke="#181D26" stroke-width="0.333333"/>
<line x1="1.00391" y1="179.001" x2="290.004" y2="179.001" stroke="#181D26" stroke-width="0.333333"/>
<line x1="1.00391" y1="192.001" x2="290.004" y2="192.001" stroke="#181D26" stroke-width="0.333333"/>
<line x1="12.2077" y1="7.72022e-09" x2="12.2077" y2="207" stroke="#181D26" stroke-width="0.333333"/>
<line x1="26.2565" y1="7.72022e-09" x2="26.2565" y2="207" stroke="#181D26" stroke-width="0.333333"/>
<line x1="40.3053" y1="7.72022e-09" x2="40.3053" y2="207" stroke="#181D26" stroke-width="0.333333"/>
<line x1="54.3542" y1="7.72022e-09" x2="54.3542" y2="207" stroke="#181D26" stroke-width="0.333333"/>
<line x1="68.403" y1="7.72022e-09" x2="68.403" y2="207" stroke="#181D26" stroke-width="0.333333"/>
<line x1="82.4518" y1="7.72022e-09" x2="82.4518" y2="207" stroke="#181D26" stroke-width="0.333333"/>
<line x1="96.5007" y1="7.72022e-09" x2="96.5006" y2="207" stroke="#181D26" stroke-width="0.333333"/>
<line x1="110.549" y1="7.72022e-09" x2="110.549" y2="207" stroke="#181D26" stroke-width="0.333333"/>
<line x1="124.596" y1="7.72022e-09" x2="124.596" y2="207" stroke="#181D26" stroke-width="0.333333"/>
<line x1="138.645" y1="7.72022e-09" x2="138.645" y2="207" stroke="#181D26" stroke-width="0.333333"/>
<line x1="152.694" y1="7.72022e-09" x2="152.694" y2="207" stroke="#181D26" stroke-width="0.333333"/>
<line x1="166.743" y1="7.72022e-09" x2="166.743" y2="207" stroke="#181D26" stroke-width="0.333333"/>
<line x1="180.792" y1="7.72022e-09" x2="180.792" y2="207" stroke="#181D26" stroke-width="0.333333"/>
<line x1="194.84" y1="7.72022e-09" x2="194.84" y2="207" stroke="#181D26" stroke-width="0.333333"/>
<line x1="208.889" y1="7.72022e-09" x2="208.889" y2="207" stroke="#181D26" stroke-width="0.333333"/>
<line x1="222.938" y1="7.72022e-09" x2="222.938" y2="207" stroke="#181D26" stroke-width="0.333333"/>
<line x1="236.987" y1="7.72022e-09" x2="236.987" y2="207" stroke="#181D26" stroke-width="0.333333"/>
<line x1="251.034" y1="7.72022e-09" x2="251.034" y2="207" stroke="#181D26" stroke-width="0.333333"/>
<line x1="265.083" y1="7.72022e-09" x2="265.083" y2="207" stroke="#181D26" stroke-width="0.333333"/>
<line x1="279.132" y1="7.72022e-09" x2="279.132" y2="207" stroke="#181D26" stroke-width="0.333333"/>
<rect x="223.773" y="35" width="13.7141" height="13.1667" fill="url(#paint0_linear_3762_55743)"/>
<rect x="180.959" y="61.8359" width="13.7141" height="13" fill="url(#paint1_linear_3762_55743)"/>
<rect x="250.867" y="88" width="13.7141" height="13" fill="url(#paint2_linear_3762_55743)"/>
<rect x="223.104" y="152.836" width="13.7141" height="13" fill="url(#paint3_linear_3762_55743)"/>
<rect x="82.6191" y="61.8359" width="13.7141" height="13" fill="url(#paint4_linear_3762_55743)"/>
<rect x="96.668" y="139.836" width="13.7141" height="13" fill="url(#paint5_linear_3762_55743)"/>
<rect x="40.4727" y="21.8359" width="13.7141" height="13" fill="url(#paint6_linear_3762_55743)"/>
<rect x="40.4727" y="100.836" width="13.7141" height="17" fill="url(#paint7_linear_3762_55743)"/>
<path d="M41.728 187.333C41.728 206.249 26.3407 221.583 7.3588 221.583C-11.6231 221.583 -27.0104 206.249 -27.0104 187.333C-27.0104 168.418 -11.6231 153.083 7.3588 153.083C26.3407 153.083 41.728 168.418 41.728 187.333Z" fill="url(#paint8_linear_3762_55743)" fill-opacity="0.8" stroke="#152028" stroke-width="0.166667"/>
<path d="M313.669 15.3333C313.669 34.2488 298.282 49.5833 279.3 49.5833C260.318 49.5833 244.931 34.2488 244.931 15.3333C244.931 -3.58215 260.318 -18.9167 279.3 -18.9167C298.282 -18.9167 313.669 -3.58215 313.669 15.3333Z" fill="url(#paint9_linear_3762_55743)" fill-opacity="0.8" stroke="#152028" stroke-width="0.166667"/>
</g>
<defs>
<linearGradient id="paint0_linear_3762_55743" x1="230.63" y1="35" x2="230.63" y2="48.1667" gradientUnits="userSpaceOnUse">
<stop stop-color="#131518"/>
<stop offset="1" stop-color="#181C20"/>
</linearGradient>
<linearGradient id="paint1_linear_3762_55743" x1="187.816" y1="61.8359" x2="187.816" y2="74.8359" gradientUnits="userSpaceOnUse">
<stop stop-color="#131518"/>
<stop offset="1" stop-color="#181C20"/>
</linearGradient>
<linearGradient id="paint2_linear_3762_55743" x1="257.724" y1="88" x2="257.724" y2="101" gradientUnits="userSpaceOnUse">
<stop stop-color="#131518"/>
<stop offset="1" stop-color="#181C20"/>
</linearGradient>
<linearGradient id="paint3_linear_3762_55743" x1="229.961" y1="152.836" x2="229.961" y2="165.836" gradientUnits="userSpaceOnUse">
<stop stop-color="#131518"/>
<stop offset="1" stop-color="#181C20"/>
</linearGradient>
<linearGradient id="paint4_linear_3762_55743" x1="89.4762" y1="61.8359" x2="89.4762" y2="74.8359" gradientUnits="userSpaceOnUse">
<stop stop-color="#131518"/>
<stop offset="1" stop-color="#181C20"/>
</linearGradient>
<linearGradient id="paint5_linear_3762_55743" x1="103.525" y1="139.836" x2="103.525" y2="152.836" gradientUnits="userSpaceOnUse">
<stop stop-color="#131518"/>
<stop offset="1" stop-color="#181C20"/>
</linearGradient>
<linearGradient id="paint6_linear_3762_55743" x1="47.3297" y1="21.8359" x2="47.3297" y2="34.8359" gradientUnits="userSpaceOnUse">
<stop stop-color="#131518"/>
<stop offset="1" stop-color="#181C20"/>
</linearGradient>
<linearGradient id="paint7_linear_3762_55743" x1="47.3297" y1="100.836" x2="47.3297" y2="117.836" gradientUnits="userSpaceOnUse">
<stop stop-color="#131518"/>
<stop offset="1" stop-color="#181C20"/>
</linearGradient>
<linearGradient id="paint8_linear_3762_55743" x1="7.3588" y1="153" x2="7.3588" y2="221.667" gradientUnits="userSpaceOnUse">
<stop offset="0.0100553" stop-color="#141619"/>
<stop offset="1" stop-color="#171A1E"/>
</linearGradient>
<linearGradient id="paint9_linear_3762_55743" x1="279.3" y1="-19" x2="279.3" y2="49.6667" gradientUnits="userSpaceOnUse">
<stop offset="0.0100553" stop-color="#141619"/>
<stop offset="1" stop-color="#171A1E"/>
</linearGradient>
</defs>
</svg>
