<svg width="188" height="48" viewBox="0 0 188 48" fill="none" xmlns="http://www.w3.org/2000/svg">
<rect x="-0.5" y="0.5" width="47" height="47" rx="23.5" transform="matrix(-1 0 0 1 47.5 0)" stroke="#21262B"/>
<path d="M21.698 33.5H25.698V25.49H29.302L29.698 21.51H25.698V19.5C25.698 19.2348 25.8034 18.9804 25.9909 18.7929C26.1784 18.6054 26.4328 18.5 26.698 18.5H29.698V14.5H26.698C25.3719 14.5 24.1001 15.0268 23.1625 15.9645C22.2248 16.9021 21.698 18.1739 21.698 19.5V21.51H19.698L19.302 25.49H21.698V33.5Z" fill="url(#paint0_linear_4_1235)"/>
<rect x="50" y="0.5" width="137" height="47" rx="23.5" stroke="#21262B"/>
<path d="M77.9588 22.8281H76.0923C76.0582 22.5866 75.9886 22.3722 75.8835 22.1847C75.7784 21.9943 75.6435 21.8324 75.4787 21.6989C75.3139 21.5653 75.1236 21.4631 74.9077 21.392C74.6946 21.321 74.4631 21.2855 74.2131 21.2855C73.7614 21.2855 73.3679 21.3977 73.0327 21.6222C72.6974 21.8437 72.4375 22.1676 72.2528 22.5938C72.0682 23.017 71.9759 23.5312 71.9759 24.1364C71.9759 24.7585 72.0682 25.2812 72.2528 25.7045C72.4403 26.1278 72.7017 26.4474 73.0369 26.6634C73.3722 26.8793 73.7599 26.9872 74.2003 26.9872C74.4474 26.9872 74.6761 26.9545 74.8864 26.8892C75.0994 26.8239 75.2884 26.7287 75.4531 26.6037C75.6179 26.4759 75.7543 26.321 75.8622 26.1392C75.973 25.9574 76.0497 25.75 76.0923 25.517L77.9588 25.5256C77.9105 25.9261 77.7898 26.3125 77.5966 26.6847C77.4063 27.054 77.1491 27.3849 76.8253 27.6776C76.5043 27.9673 76.1207 28.1974 75.6747 28.3679C75.2315 28.5355 74.7301 28.6193 74.1705 28.6193C73.392 28.6193 72.696 28.4432 72.0824 28.0909C71.4716 27.7386 70.9886 27.2287 70.6335 26.5611C70.2812 25.8935 70.1051 25.0852 70.1051 24.1364C70.1051 23.1847 70.2841 22.375 70.642 21.7074C71 21.0398 71.4858 20.5312 72.0994 20.1818C72.7131 19.8295 73.4034 19.6534 74.1705 19.6534C74.6761 19.6534 75.1449 19.7244 75.5767 19.8665C76.0114 20.0085 76.3963 20.2159 76.7315 20.4886C77.0668 20.7585 77.3395 21.0895 77.5497 21.4815C77.7628 21.8736 77.8991 22.3224 77.9588 22.8281ZM82.2053 28.6278C81.5433 28.6278 80.9709 28.4872 80.4879 28.206C80.0078 27.9219 79.6371 27.527 79.3757 27.0213C79.1143 26.5128 78.9837 25.9233 78.9837 25.2528C78.9837 24.5767 79.1143 23.9858 79.3757 23.4801C79.6371 22.9716 80.0078 22.5767 80.4879 22.2955C80.9709 22.0114 81.5433 21.8693 82.2053 21.8693C82.8672 21.8693 83.4382 22.0114 83.9183 22.2955C84.4013 22.5767 84.7734 22.9716 85.0348 23.4801C85.2962 23.9858 85.4268 24.5767 85.4268 25.2528C85.4268 25.9233 85.2962 26.5128 85.0348 27.0213C84.7734 27.527 84.4013 27.9219 83.9183 28.206C83.4382 28.4872 82.8672 28.6278 82.2053 28.6278ZM82.2138 27.2216C82.5149 27.2216 82.7663 27.1364 82.968 26.9659C83.1697 26.7926 83.3217 26.5568 83.424 26.2585C83.5291 25.9602 83.5817 25.6207 83.5817 25.2401C83.5817 24.8594 83.5291 24.5199 83.424 24.2216C83.3217 23.9233 83.1697 23.6875 82.968 23.5142C82.7663 23.3409 82.5149 23.2543 82.2138 23.2543C81.9098 23.2543 81.6541 23.3409 81.4467 23.5142C81.2422 23.6875 81.0874 23.9233 80.9822 24.2216C80.88 24.5199 80.8288 24.8594 80.8288 25.2401C80.8288 25.6207 80.88 25.9602 80.9822 26.2585C81.0874 26.5568 81.2422 26.7926 81.4467 26.9659C81.6541 27.1364 81.9098 27.2216 82.2138 27.2216ZM88.4226 24.7159V28.5H86.6072V21.9545H88.3374V23.1094H88.4141C88.5589 22.7287 88.8018 22.4276 89.1428 22.206C89.4837 21.9815 89.897 21.8693 90.3828 21.8693C90.8374 21.8693 91.2337 21.9688 91.5717 22.1676C91.9098 22.3665 92.1726 22.6506 92.3601 23.0199C92.5476 23.3864 92.6413 23.8239 92.6413 24.3324V28.5H90.826V24.6562C90.8288 24.2557 90.7266 23.9432 90.5192 23.7188C90.3118 23.4915 90.0263 23.3778 89.6626 23.3778C89.4183 23.3778 89.2024 23.4304 89.0149 23.5355C88.8303 23.6406 88.6854 23.794 88.5803 23.9957C88.478 24.1946 88.4254 24.4347 88.4226 24.7159ZM95.8874 24.7159V28.5H94.0721V21.9545H95.8022V23.1094H95.8789C96.0238 22.7287 96.2667 22.4276 96.6076 22.206C96.9485 21.9815 97.3619 21.8693 97.8477 21.8693C98.3022 21.8693 98.6985 21.9688 99.0366 22.1676C99.3746 22.3665 99.6374 22.6506 99.8249 23.0199C100.012 23.3864 100.106 23.8239 100.106 24.3324V28.5H98.2908V24.6562C98.2937 24.2557 98.1914 23.9432 97.984 23.7188C97.7766 23.4915 97.4911 23.3778 97.1275 23.3778C96.8832 23.3778 96.6673 23.4304 96.4798 23.5355C96.2951 23.6406 96.1502 23.794 96.0451 23.9957C95.9428 24.1946 95.8903 24.4347 95.8874 24.7159ZM104.52 28.6278C103.847 28.6278 103.267 28.4915 102.781 28.2188C102.298 27.9432 101.926 27.554 101.665 27.0511C101.403 26.5455 101.273 25.9474 101.273 25.2571C101.273 24.5838 101.403 23.9929 101.665 23.4844C101.926 22.9759 102.294 22.5795 102.768 22.2955C103.246 22.0114 103.805 21.8693 104.447 21.8693C104.879 21.8693 105.281 21.9389 105.653 22.0781C106.028 22.2145 106.355 22.4205 106.634 22.696C106.915 22.9716 107.134 23.3182 107.29 23.7358C107.446 24.1506 107.524 24.6364 107.524 25.1932V25.6918H101.997V24.5668H105.815C105.815 24.3054 105.759 24.0739 105.645 23.8722C105.531 23.6705 105.374 23.5128 105.172 23.3991C104.973 23.2827 104.741 23.2244 104.477 23.2244C104.202 23.2244 103.957 23.2884 103.744 23.4162C103.534 23.5412 103.369 23.7102 103.25 23.9233C103.131 24.1335 103.07 24.3679 103.067 24.6264V25.696C103.067 26.0199 103.126 26.2997 103.246 26.5355C103.368 26.7713 103.54 26.9531 103.761 27.081C103.983 27.2088 104.246 27.2727 104.55 27.2727C104.751 27.2727 104.936 27.2443 105.104 27.1875C105.271 27.1307 105.415 27.0455 105.534 26.9318C105.653 26.8182 105.744 26.679 105.807 26.5142L107.486 26.625C107.401 27.0284 107.226 27.3807 106.962 27.6818C106.7 27.9801 106.362 28.2131 105.947 28.3807C105.536 28.5455 105.06 28.6278 104.52 28.6278ZM111.666 28.6278C110.996 28.6278 110.419 28.4858 109.936 28.2017C109.456 27.9148 109.087 27.517 108.828 27.0085C108.572 26.5 108.445 25.9148 108.445 25.2528C108.445 24.5824 108.574 23.9943 108.832 23.4886C109.094 22.9801 109.464 22.5838 109.945 22.2997C110.425 22.0128 110.996 21.8693 111.658 21.8693C112.229 21.8693 112.729 21.973 113.158 22.1804C113.587 22.3878 113.926 22.679 114.176 23.054C114.426 23.429 114.564 23.8693 114.589 24.375H112.876C112.828 24.0483 112.7 23.7855 112.493 23.5866C112.288 23.3849 112.02 23.2841 111.688 23.2841C111.406 23.2841 111.161 23.3608 110.95 23.5142C110.743 23.6648 110.581 23.8849 110.464 24.1747C110.348 24.4645 110.29 24.8153 110.29 25.2273C110.29 25.6449 110.347 26 110.46 26.2926C110.577 26.5852 110.74 26.8082 110.95 26.9616C111.161 27.1151 111.406 27.1918 111.688 27.1918C111.895 27.1918 112.081 27.1491 112.246 27.0639C112.413 26.9787 112.551 26.8551 112.659 26.6932C112.77 26.5284 112.842 26.331 112.876 26.1009H114.589C114.561 26.6009 114.425 27.0412 114.18 27.4219C113.939 27.7997 113.605 28.0952 113.179 28.3082C112.753 28.5213 112.249 28.6278 111.666 28.6278ZM119.233 21.9545V23.3182H115.292V21.9545H119.233ZM116.186 20.3864H118.002V26.4886C118.002 26.6562 118.027 26.7869 118.078 26.8807C118.13 26.9716 118.201 27.0355 118.292 27.0724C118.385 27.1094 118.493 27.1278 118.615 27.1278C118.701 27.1278 118.786 27.1207 118.871 27.1065C118.956 27.0895 119.022 27.0767 119.067 27.0682L119.353 28.419C119.262 28.4474 119.134 28.4801 118.969 28.517C118.804 28.5568 118.604 28.581 118.368 28.5895C117.931 28.6065 117.547 28.5483 117.218 28.4148C116.891 28.2812 116.637 28.0739 116.455 27.7926C116.273 27.5114 116.184 27.1562 116.186 26.7273V20.3864ZM125.192 28.5L122.695 19.7727H124.71L126.155 25.8366H126.227L127.821 19.7727H129.547L131.136 25.8494H131.213L132.658 19.7727H134.673L132.176 28.5H130.378L128.716 22.794H128.648L126.99 28.5H125.192ZM135.627 28.5V21.9545H137.442V28.5H135.627ZM136.539 21.1108C136.269 21.1108 136.037 21.0213 135.844 20.8423C135.654 20.6605 135.559 20.4432 135.559 20.1903C135.559 19.9403 135.654 19.7259 135.844 19.5469C136.037 19.3651 136.269 19.2741 136.539 19.2741C136.809 19.2741 137.039 19.3651 137.229 19.5469C137.422 19.7259 137.519 19.9403 137.519 20.1903C137.519 20.4432 137.422 20.6605 137.229 20.8423C137.039 21.0213 136.809 21.1108 136.539 21.1108ZM142.378 21.9545V23.3182H138.436V21.9545H142.378ZM139.331 20.3864H141.146V26.4886C141.146 26.6562 141.172 26.7869 141.223 26.8807C141.274 26.9716 141.345 27.0355 141.436 27.0724C141.53 27.1094 141.638 27.1278 141.76 27.1278C141.845 27.1278 141.93 27.1207 142.016 27.1065C142.101 27.0895 142.166 27.0767 142.212 27.0682L142.497 28.419C142.406 28.4474 142.278 28.4801 142.114 28.517C141.949 28.5568 141.749 28.581 141.513 28.5895C141.075 28.6065 140.692 28.5483 140.362 28.4148C140.036 28.2812 139.781 28.0739 139.599 27.7926C139.418 27.5114 139.328 27.1562 139.331 26.7273V20.3864ZM145.516 24.7159V28.5H143.701V19.7727H145.465V23.1094H145.542C145.69 22.723 145.928 22.4205 146.258 22.2017C146.587 21.9801 147.001 21.8693 147.498 21.8693C147.952 21.8693 148.349 21.9688 148.687 22.1676C149.028 22.3636 149.292 22.6463 149.479 23.0156C149.67 23.3821 149.763 23.821 149.761 24.3324V28.5H147.945V24.6562C147.948 24.2528 147.846 23.9389 147.638 23.7145C147.434 23.4901 147.147 23.3778 146.778 23.3778C146.531 23.3778 146.312 23.4304 146.121 23.5355C145.934 23.6406 145.786 23.794 145.678 23.9957C145.573 24.1946 145.519 24.4347 145.516 24.7159ZM158.164 25.7131V21.9545H159.979V28.5H158.237V27.3111H158.168C158.021 27.6946 157.775 28.0028 157.431 28.2358C157.09 28.4687 156.674 28.5852 156.183 28.5852C155.745 28.5852 155.36 28.4858 155.028 28.2869C154.695 28.0881 154.435 27.8054 154.248 27.4389C154.063 27.0724 153.969 26.6335 153.967 26.1222V21.9545H155.782V25.7983C155.785 26.1847 155.888 26.4901 156.093 26.7145C156.298 26.9389 156.572 27.0511 156.915 27.0511C157.134 27.0511 157.339 27.0014 157.529 26.902C157.719 26.7997 157.873 26.6491 157.989 26.4503C158.109 26.2514 158.167 26.0057 158.164 25.7131ZM166.877 23.821L165.216 23.9233C165.187 23.7812 165.126 23.6534 165.032 23.5398C164.939 23.4233 164.815 23.331 164.662 23.2628C164.511 23.1918 164.331 23.1562 164.12 23.1562C163.839 23.1562 163.602 23.2159 163.409 23.3352C163.216 23.4517 163.119 23.608 163.119 23.804C163.119 23.9602 163.181 24.0923 163.306 24.2003C163.431 24.3082 163.646 24.3949 163.95 24.4602L165.135 24.6989C165.771 24.8295 166.245 25.0398 166.558 25.3295C166.87 25.6193 167.027 26 167.027 26.4716C167.027 26.9006 166.9 27.277 166.647 27.6009C166.397 27.9247 166.054 28.1776 165.616 28.3594C165.181 28.5384 164.68 28.6278 164.112 28.6278C163.245 28.6278 162.555 28.4474 162.041 28.0866C161.529 27.723 161.23 27.2287 161.142 26.6037L162.927 26.5099C162.981 26.7741 163.112 26.9759 163.319 27.1151C163.527 27.2514 163.792 27.3196 164.116 27.3196C164.434 27.3196 164.69 27.2585 164.883 27.1364C165.079 27.0114 165.179 26.8509 165.181 26.6548C165.179 26.4901 165.109 26.3551 164.973 26.25C164.836 26.142 164.626 26.0597 164.342 26.0028L163.208 25.777C162.569 25.6491 162.093 25.4276 161.781 25.1122C161.471 24.7969 161.316 24.3949 161.316 23.9062C161.316 23.4858 161.43 23.1236 161.657 22.8196C161.887 22.5156 162.21 22.2812 162.625 22.1165C163.042 21.9517 163.531 21.8693 164.091 21.8693C164.917 21.8693 165.568 22.044 166.042 22.3935C166.52 22.7429 166.798 23.2187 166.877 23.821Z" fill="url(#paint1_linear_4_1235)"/>
<defs>
<linearGradient id="paint0_linear_4_1235" x1="19.5978" y1="24.2317" x2="29.698" y2="24.2317" gradientUnits="userSpaceOnUse">
<stop stop-color="#2286DE"/>
<stop offset="1" stop-color="#3AAF75"/>
</linearGradient>
<linearGradient id="paint1_linear_4_1235" x1="72.2886" y1="24.1829" x2="167.5" y2="24.1829" gradientUnits="userSpaceOnUse">
<stop stop-color="#2286DE"/>
<stop offset="1" stop-color="#3AAF75"/>
</linearGradient>
</defs>
</svg>
