<svg width="1307" height="406" viewBox="0 0 1307 406" fill="none" xmlns="http://www.w3.org/2000/svg">
<g clip-path="url(#clip0_7_3182)">
<path d="M1285.61 0.241211H21.5266C10.0426 0.241211 0.73291 9.55087 0.73291 21.0349V384.448C0.73291 395.932 10.0426 405.241 21.5266 405.241H1285.61C1297.09 405.241 1306.4 395.932 1306.4 384.448V21.0349C1306.4 9.55087 1297.09 0.241211 1285.61 0.241211Z" fill="#141619"/>
<mask id="mask0_7_3182" style="mask-type:alpha" maskUnits="userSpaceOnUse" x="0" y="0" width="1307" height="406">
<path d="M1285.61 0.241211H21.5266C10.0426 0.241211 0.73291 9.55087 0.73291 21.0349V384.448C0.73291 395.932 10.0426 405.241 21.5266 405.241H1285.61C1297.09 405.241 1306.4 395.932 1306.4 384.448V21.0349C1306.4 9.55087 1297.09 0.241211 1285.61 0.241211Z" fill="#141619"/>
</mask>
<g mask="url(#mask0_7_3182)">
<path d="M0.733521 38.0186H1306.41" stroke="#181D26" stroke-width="1.51119"/>
<path d="M0.733521 38.0186H1306.41" stroke="#181D26" stroke-width="1.51119"/>
<path d="M0.733521 98.4652H1306.41" stroke="#181D26" stroke-width="1.51119"/>
<path d="M0.733521 158.912H1306.41" stroke="#181D26" stroke-width="1.51119"/>
<path d="M0.733521 219.363H1306.41" stroke="#181D26" stroke-width="1.51119"/>
<path d="M0.733521 279.809H1306.41" stroke="#181D26" stroke-width="1.51119"/>
<path d="M0.733521 340.26H1306.41" stroke="#181D26" stroke-width="1.51119"/>
<path d="M51.3584 0.241211V405.241" stroke="#181D26" stroke-width="1.51119"/>
<path d="M114.829 0.241211V405.241" stroke="#181D26" stroke-width="1.51119"/>
<path d="M178.299 0.241211V405.241" stroke="#181D26" stroke-width="1.51119"/>
<path d="M241.769 0.241211V405.241" stroke="#181D26" stroke-width="1.51119"/>
<path d="M305.24 0.241211V405.241" stroke="#181D26" stroke-width="1.51119"/>
<path d="M368.71 0.241211V405.241" stroke="#181D26" stroke-width="1.51119"/>
<path d="M432.178 0.241211V405.241" stroke="#181D26" stroke-width="1.51119"/>
<path d="M495.65 0.241211V405.241" stroke="#181D26" stroke-width="1.51119"/>
<path d="M559.119 0.241211V405.241" stroke="#181D26" stroke-width="1.51119"/>
<path d="M622.589 0.241211V405.241" stroke="#181D26" stroke-width="1.51119"/>
<path d="M686.061 0.241211V405.241" stroke="#181D26" stroke-width="1.51119"/>
<path d="M749.53 0.241211L749.529 405.241" stroke="#181D26" stroke-width="1.51119"/>
<path d="M813 0.241211V405.241" stroke="#181D26" stroke-width="1.51119"/>
<path d="M876.47 0.241211V405.241" stroke="#181D26" stroke-width="1.51119"/>
<path d="M939.94 0.241211V405.241" stroke="#181D26" stroke-width="1.51119"/>
<path d="M1003.41 0.241211V405.241" stroke="#181D26" stroke-width="1.51119"/>
<path d="M1066.88 0.241211V405.241" stroke="#181D26" stroke-width="1.51119"/>
<path d="M1130.35 0.241211V405.241" stroke="#181D26" stroke-width="1.51119"/>
<path d="M1193.82 0.241211V405.241" stroke="#181D26" stroke-width="1.51119"/>
<path d="M1257.29 0.241211V405.241" stroke="#181D26" stroke-width="1.51119"/>
<path d="M939.185 159.673H877.226V219.365H939.185V159.673Z" fill="url(#paint0_linear_7_3182)"/>
<path d="M875.715 280.566H813.756V339.503H875.715V280.566Z" fill="url(#paint1_linear_7_3182)"/>
<path d="M431.425 280.566H369.466V339.503H431.425V280.566Z" fill="url(#paint2_linear_7_3182)"/>
<path d="M241.012 99.2261H179.053V158.163H241.012V99.2261Z" fill="url(#paint3_linear_7_3182)"/>
<path d="M18.1112 419.972C103.867 419.972 173.386 350.453 173.386 264.697C173.386 178.941 103.867 109.422 18.1112 109.422C-67.6448 109.422 -137.164 178.941 -137.164 264.697C-137.164 350.453 -67.6448 419.972 18.1112 419.972Z" fill="url(#paint4_linear_7_3182)" fill-opacity="0.8" stroke="#152028" stroke-width="0.755597"/>
<path d="M1276.18 264.325C1361.94 264.325 1431.45 194.806 1431.45 109.05C1431.45 23.294 1361.94 -46.225 1276.18 -46.225C1190.42 -46.225 1120.91 23.294 1120.91 109.05C1120.91 194.806 1190.42 264.325 1276.18 264.325Z" fill="url(#paint5_linear_7_3182)" fill-opacity="0.8" stroke="#152028" stroke-width="0.755597"/>
</g>
</g>
<defs>
<linearGradient id="paint0_linear_7_3182" x1="908.206" y1="159.673" x2="908.206" y2="219.365" gradientUnits="userSpaceOnUse">
<stop stop-color="#131518"/>
<stop offset="1" stop-color="#181C20"/>
</linearGradient>
<linearGradient id="paint1_linear_7_3182" x1="844.735" y1="280.566" x2="844.735" y2="339.503" gradientUnits="userSpaceOnUse">
<stop stop-color="#131518"/>
<stop offset="1" stop-color="#181C20"/>
</linearGradient>
<linearGradient id="paint2_linear_7_3182" x1="400.446" y1="280.566" x2="400.446" y2="339.503" gradientUnits="userSpaceOnUse">
<stop stop-color="#131518"/>
<stop offset="1" stop-color="#181C20"/>
</linearGradient>
<linearGradient id="paint3_linear_7_3182" x1="210.033" y1="99.2261" x2="210.033" y2="158.163" gradientUnits="userSpaceOnUse">
<stop stop-color="#131518"/>
<stop offset="1" stop-color="#181C20"/>
</linearGradient>
<linearGradient id="paint4_linear_7_3182" x1="18.1112" y1="109.044" x2="18.1112" y2="420.35" gradientUnits="userSpaceOnUse">
<stop offset="0.0100553" stop-color="#141619"/>
<stop offset="1" stop-color="#171A1E"/>
</linearGradient>
<linearGradient id="paint5_linear_7_3182" x1="1276.18" y1="-46.6035" x2="1276.18" y2="264.703" gradientUnits="userSpaceOnUse">
<stop offset="0.0100553" stop-color="#141619"/>
<stop offset="1" stop-color="#171A1E"/>
</linearGradient>
<clipPath id="clip0_7_3182">
<rect width="1307" height="406" fill="white"/>
</clipPath>
</defs>
</svg>
