<svg width="179" height="49" viewBox="0 0 179 49" fill="none" xmlns="http://www.w3.org/2000/svg">
<rect x="0.5" y="1.32031" width="178" height="47" rx="23.5" stroke="#21262B"/>
<path d="M41.8686 23.7031H39.6911C39.6513 23.4214 39.5701 23.1712 39.4474 22.9524C39.3248 22.7303 39.1674 22.5414 38.9751 22.3857C38.7829 22.2299 38.5608 22.1106 38.3089 22.0277C38.0604 21.9448 37.7902 21.9034 37.4986 21.9034C36.9716 21.9034 36.5125 22.0343 36.1214 22.2962C35.7304 22.5547 35.4271 22.9325 35.2116 23.4297C34.9962 23.9235 34.8885 24.5234 34.8885 25.2294C34.8885 25.9553 34.9962 26.5651 35.2116 27.0589C35.4304 27.5528 35.7353 27.9257 36.1264 28.1776C36.5175 28.4295 36.9699 28.5554 37.4837 28.5554C37.772 28.5554 38.0388 28.5173 38.2841 28.4411C38.5327 28.3648 38.7531 28.2538 38.9453 28.108C39.1375 27.9588 39.2966 27.7782 39.4226 27.5661C39.5518 27.3539 39.6413 27.112 39.6911 26.8402L41.8686 26.8501C41.8123 27.3175 41.6714 27.7682 41.446 28.2024C41.224 28.6333 40.924 29.0194 40.5462 29.3608C40.1716 29.6989 39.7242 29.9673 39.2038 30.1662C38.6868 30.3617 38.1018 30.4595 37.4489 30.4595C36.5407 30.4595 35.7287 30.254 35.0128 29.843C34.3002 29.4321 33.7367 28.8371 33.3224 28.0582C32.9115 27.2794 32.706 26.3364 32.706 25.2294C32.706 24.1191 32.9148 23.1745 33.3324 22.3956C33.75 21.6167 34.3168 21.0234 35.0327 20.6158C35.7486 20.2048 36.554 19.9993 37.4489 19.9993C38.0388 19.9993 38.5857 20.0821 39.0895 20.2479C39.5966 20.4136 40.0457 20.6555 40.4368 20.9737C40.8279 21.2886 41.1461 21.6747 41.3913 22.1321C41.6399 22.5895 41.799 23.1132 41.8686 23.7031ZM46.8228 30.4695C46.0505 30.4695 45.3827 30.3054 44.8192 29.9773C44.2591 29.6458 43.8266 29.1851 43.5217 28.5952C43.2167 28.0019 43.0643 27.3142 43.0643 26.532C43.0643 25.7431 43.2167 25.0537 43.5217 24.4638C43.8266 23.8705 44.2591 23.4098 44.8192 23.0817C45.3827 22.7502 46.0505 22.5845 46.8228 22.5845C47.5951 22.5845 48.2612 22.7502 48.8214 23.0817C49.3848 23.4098 49.819 23.8705 50.1239 24.4638C50.4289 25.0537 50.5813 25.7431 50.5813 26.532C50.5813 27.3142 50.4289 28.0019 50.1239 28.5952C49.819 29.1851 49.3848 29.6458 48.8214 29.9773C48.2612 30.3054 47.5951 30.4695 46.8228 30.4695ZM46.8327 28.8288C47.1841 28.8288 47.4774 28.7294 47.7127 28.5305C47.948 28.3284 48.1254 28.0533 48.2447 27.7053C48.3673 27.3572 48.4286 26.9612 48.4286 26.517C48.4286 26.0729 48.3673 25.6768 48.2447 25.3288C48.1254 24.9808 47.948 24.7057 47.7127 24.5036C47.4774 24.3014 47.1841 24.2003 46.8327 24.2003C46.4781 24.2003 46.1798 24.3014 45.9379 24.5036C45.6992 24.7057 45.5186 24.9808 45.396 25.3288C45.2766 25.6768 45.217 26.0729 45.217 26.517C45.217 26.9612 45.2766 27.3572 45.396 27.7053C45.5186 28.0533 45.6992 28.3284 45.9379 28.5305C46.1798 28.7294 46.4781 28.8288 46.8327 28.8288ZM54.0763 25.9055V30.3203H51.9585V22.6839H53.9769V24.0312H54.0664C54.2354 23.5871 54.5188 23.2358 54.9165 22.9773C55.3143 22.7154 55.7965 22.5845 56.3633 22.5845C56.8936 22.5845 57.3559 22.7005 57.7504 22.9325C58.1448 23.1645 58.4513 23.496 58.6701 23.9268C58.8888 24.3544 58.9982 24.8648 58.9982 25.4581V30.3203H56.8803V25.8359C56.8836 25.3686 56.7643 25.004 56.5224 24.7422C56.2804 24.477 55.9473 24.3445 55.5231 24.3445C55.238 24.3445 54.9862 24.4058 54.7674 24.5284C54.552 24.651 54.3829 24.83 54.2603 25.0653C54.141 25.2973 54.0797 25.5774 54.0763 25.9055ZM62.7853 25.9055V30.3203H60.6674V22.6839H62.6859V24.0312H62.7754C62.9444 23.5871 63.2278 23.2358 63.6255 22.9773C64.0233 22.7154 64.5055 22.5845 65.0723 22.5845C65.6026 22.5845 66.0649 22.7005 66.4593 22.9325C66.8538 23.1645 67.1603 23.496 67.3791 23.9268C67.5978 24.3544 67.7072 24.8648 67.7072 25.4581V30.3203H65.5893V25.8359C65.5926 25.3686 65.4733 25.004 65.2314 24.7422C64.9894 24.477 64.6563 24.3445 64.2321 24.3445C63.947 24.3445 63.6951 24.4058 63.4764 24.5284C63.2609 24.651 63.0919 24.83 62.9693 25.0653C62.85 25.2973 62.7886 25.5774 62.7853 25.9055ZM72.8565 30.4695C72.071 30.4695 71.3949 30.3104 70.8281 29.9922C70.2647 29.6707 69.8305 29.2166 69.5256 28.63C69.2206 28.04 69.0682 27.3423 69.0682 26.5369C69.0682 25.7514 69.2206 25.062 69.5256 24.4688C69.8305 23.8755 70.2597 23.4131 70.8132 23.0817C71.37 22.7502 72.023 22.5845 72.772 22.5845C73.2758 22.5845 73.7448 22.6657 74.179 22.8281C74.6165 22.9872 74.9976 23.2275 75.3224 23.549C75.6506 23.8705 75.9058 24.2749 76.0881 24.7621C76.2704 25.246 76.3615 25.8127 76.3615 26.4624V27.044H69.9134V25.7315H74.3679C74.3679 25.4266 74.3016 25.1565 74.169 24.9212C74.0365 24.6858 73.8525 24.5019 73.6172 24.3693C73.3852 24.2334 73.1151 24.1655 72.8068 24.1655C72.4853 24.1655 72.2003 24.2401 71.9517 24.3892C71.7064 24.535 71.5142 24.7322 71.375 24.9808C71.2358 25.2261 71.1645 25.4995 71.1612 25.8011V27.049C71.1612 27.4268 71.2308 27.7533 71.37 28.0284C71.5125 28.3035 71.7131 28.5156 71.9716 28.6648C72.2301 28.8139 72.5367 28.8885 72.8913 28.8885C73.1267 28.8885 73.3421 28.8554 73.5376 28.7891C73.7332 28.7228 73.9006 28.6233 74.0398 28.4908C74.179 28.3582 74.285 28.1958 74.358 28.0036L76.3168 28.1328C76.2173 28.6035 76.0135 29.0144 75.7053 29.3658C75.4003 29.7138 75.0059 29.9856 74.522 30.1811C74.0414 30.3733 73.4863 30.4695 72.8565 30.4695ZM81.1939 30.4695C80.4117 30.4695 79.7389 30.3037 79.1754 29.9723C78.6153 29.6375 78.1844 29.1735 77.8828 28.5803C77.5845 27.987 77.4354 27.3042 77.4354 26.532C77.4354 25.7498 77.5862 25.0637 77.8878 24.4737C78.1927 23.8804 78.6252 23.4181 79.1854 23.0866C79.7455 22.7519 80.4117 22.5845 81.1839 22.5845C81.8501 22.5845 82.4335 22.7055 82.9339 22.9474C83.4344 23.1894 83.8305 23.5291 84.1222 23.9666C84.4138 24.4041 84.5746 24.9179 84.6044 25.5078H82.6058C82.5495 25.1267 82.4003 24.8201 82.1584 24.5881C81.9197 24.3527 81.6065 24.2351 81.2188 24.2351C80.8906 24.2351 80.6039 24.3246 80.3587 24.5036C80.1167 24.6792 79.9278 24.9361 79.7919 25.2741C79.656 25.6122 79.5881 26.0215 79.5881 26.5021C79.5881 26.9893 79.6544 27.4036 79.7869 27.745C79.9228 28.0864 80.1134 28.3466 80.3587 28.5256C80.6039 28.7045 80.8906 28.794 81.2188 28.794C81.4607 28.794 81.6778 28.7443 81.87 28.6449C82.0656 28.5455 82.2263 28.4013 82.3523 28.2124C82.4815 28.0201 82.5661 27.7898 82.6058 27.5213H84.6044C84.5713 28.1046 84.4122 28.6184 84.1271 29.0625C83.8454 29.5033 83.456 29.848 82.9588 30.0966C82.4616 30.3452 81.8733 30.4695 81.1939 30.4695ZM90.0222 22.6839V24.2749H85.4235V22.6839H90.0222ZM86.4675 20.8544H88.5854V27.9737C88.5854 28.1693 88.6152 28.3217 88.6749 28.4311C88.7346 28.5372 88.8174 28.6117 88.9235 28.6548C89.0328 28.6979 89.1588 28.7195 89.3013 28.7195C89.4007 28.7195 89.5002 28.7112 89.5996 28.6946C89.699 28.6747 89.7753 28.6598 89.8283 28.6499L90.1614 30.2259C90.0553 30.259 89.9062 30.2971 89.714 30.3402C89.5217 30.3866 89.2881 30.4148 89.013 30.4247C88.5025 30.4446 88.0551 30.3767 87.6706 30.2209C87.2895 30.0651 86.9928 29.8232 86.7807 29.495C86.5686 29.1669 86.4642 28.7526 86.4675 28.2521V20.8544ZM96.9737 30.3203L94.0604 20.1385H96.4119L98.0973 27.2131H98.1818L100.041 20.1385H102.055L103.909 27.228H103.999L105.684 20.1385H108.036L105.122 30.3203H103.024L101.085 23.6634H101.006L99.0717 30.3203H96.9737ZM109.148 30.3203V22.6839H111.266V30.3203H109.148ZM110.212 21.6996C109.897 21.6996 109.627 21.5952 109.401 21.3864C109.179 21.1742 109.068 20.9207 109.068 20.6257C109.068 20.334 109.179 20.0838 109.401 19.875C109.627 19.6629 109.897 19.5568 110.212 19.5568C110.527 19.5568 110.795 19.6629 111.017 19.875C111.243 20.0838 111.355 20.334 111.355 20.6257C111.355 20.9207 111.243 21.1742 111.017 21.3864C110.795 21.5952 110.527 21.6996 110.212 21.6996ZM117.024 22.6839V24.2749H112.425V22.6839H117.024ZM113.469 20.8544H115.587V27.9737C115.587 28.1693 115.617 28.3217 115.677 28.4311C115.737 28.5372 115.819 28.6117 115.925 28.6548C116.035 28.6979 116.161 28.7195 116.303 28.7195C116.403 28.7195 116.502 28.7112 116.602 28.6946C116.701 28.6747 116.777 28.6598 116.83 28.6499L117.163 30.2259C117.057 30.259 116.908 30.2971 116.716 30.3402C116.524 30.3866 116.29 30.4148 116.015 30.4247C115.504 30.4446 115.057 30.3767 114.673 30.2209C114.291 30.0651 113.995 29.8232 113.783 29.495C113.571 29.1669 113.466 28.7526 113.469 28.2521V20.8544ZM120.686 25.9055V30.3203H118.568V20.1385H120.626V24.0312H120.716C120.888 23.5805 121.166 23.2275 121.551 22.9723C121.935 22.7138 122.417 22.5845 122.998 22.5845C123.528 22.5845 123.99 22.7005 124.385 22.9325C124.782 23.1612 125.091 23.491 125.309 23.9219C125.531 24.3494 125.641 24.8615 125.637 25.4581V30.3203H123.52V25.8359C123.523 25.3653 123.404 24.9991 123.162 24.7372C122.923 24.4754 122.588 24.3445 122.157 24.3445C121.869 24.3445 121.614 24.4058 121.392 24.5284C121.173 24.651 121.001 24.83 120.875 25.0653C120.752 25.2973 120.689 25.5774 120.686 25.9055ZM135.441 27.0689V22.6839H137.559V30.3203H135.526V28.9332H135.446C135.274 29.3807 134.987 29.7403 134.586 30.0121C134.189 30.2839 133.703 30.4197 133.13 30.4197C132.619 30.4197 132.17 30.3037 131.782 30.0717C131.395 29.8397 131.091 29.5099 130.873 29.0824C130.657 28.6548 130.548 28.1428 130.544 27.5462V22.6839H132.662V27.1683C132.666 27.6191 132.787 27.9754 133.025 28.2372C133.264 28.4991 133.584 28.63 133.985 28.63C134.24 28.63 134.479 28.572 134.701 28.456C134.923 28.3366 135.102 28.161 135.238 27.929C135.377 27.697 135.445 27.4103 135.441 27.0689ZM145.607 24.8615L143.668 24.9808C143.635 24.8151 143.564 24.666 143.454 24.5334C143.345 24.3975 143.201 24.2898 143.022 24.2102C142.846 24.1274 142.636 24.0859 142.39 24.0859C142.062 24.0859 141.786 24.1555 141.56 24.2947C141.335 24.4306 141.222 24.6129 141.222 24.8416C141.222 25.0239 141.295 25.178 141.441 25.304C141.587 25.4299 141.837 25.531 142.192 25.6072L143.574 25.8857C144.316 26.0381 144.87 26.2834 145.234 26.6214C145.599 26.9595 145.781 27.4036 145.781 27.9538C145.781 28.4543 145.634 28.8935 145.339 29.2713C145.047 29.6491 144.646 29.9441 144.135 30.1562C143.628 30.3651 143.043 30.4695 142.381 30.4695C141.37 30.4695 140.564 30.259 139.964 29.8381C139.368 29.4138 139.018 28.8371 138.915 28.108L140.998 27.9986C141.061 28.3068 141.214 28.5421 141.456 28.7045C141.698 28.8636 142.008 28.9432 142.385 28.9432C142.757 28.9432 143.055 28.8719 143.28 28.7294C143.509 28.5836 143.625 28.3963 143.628 28.1676C143.625 27.9754 143.544 27.8179 143.385 27.6953C143.226 27.5694 142.98 27.4732 142.649 27.407L141.327 27.1435C140.581 26.9943 140.026 26.7358 139.661 26.3679C139.3 26 139.119 25.531 139.119 24.9609C139.119 24.4704 139.252 24.0478 139.517 23.6932C139.785 23.3385 140.162 23.0651 140.645 22.8729C141.133 22.6806 141.703 22.5845 142.356 22.5845C143.32 22.5845 144.079 22.7884 144.633 23.196C145.189 23.6037 145.514 24.1589 145.607 24.8615Z" fill="url(#paint0_linear_3711_48238)"/>
<defs>
<linearGradient id="paint0_linear_3711_48238" x1="35.2724" y1="25.0276" x2="147" y2="25.0276" gradientUnits="userSpaceOnUse">
<stop stop-color="#2286DE"/>
<stop offset="1" stop-color="#3AAF75"/>
</linearGradient>
</defs>
</svg>
