<svg width="137" height="38" viewBox="0 0 137 38" fill="none" xmlns="http://www.w3.org/2000/svg">
<rect x="1.1824" y="0.475368" width="135.604" height="36.5728" rx="3.36714" fill="black"/>
<rect x="1.1824" y="0.475368" width="135.604" height="36.5728" rx="3.36714" stroke="#3BAFDA" stroke-width="0.427299"/>
<g clip-path="url(#clip0_3749_55089)">
<path d="M26.3129 24.385L20.7539 29.957L26.3262 24.3983C29.387 21.3421 31.8941 18.8351 31.8941 18.8307C31.8941 18.8218 31.8896 18.8174 31.8808 18.8174C31.8764 18.8174 29.3693 21.3244 26.3129 24.385Z" fill="#C14015"/>
<path d="M26.3598 24.3585L20.8008 29.9172L20.9337 29.966C21.288 30.1077 21.8284 30.09 22.1429 29.935C22.329 29.8375 35.4934 22.4761 35.5244 22.4495C35.5333 22.4406 34.7271 21.6168 33.7305 20.6202L31.9144 18.8042L26.3598 24.3585Z" fill="#EC4015"/>
<path d="M33.7149 20.5991C34.725 21.6091 35.5623 22.4375 35.5756 22.4375C35.5889 22.4375 34.7693 21.6091 33.7592 20.5991C32.7492 19.5891 31.9119 18.7607 31.8986 18.7607C31.8853 18.7607 32.7049 19.5891 33.7149 20.5991Z" fill="#EC6B15"/>
<path d="M32.0568 18.8654C32.3359 19.1843 35.5915 22.3823 35.6491 22.3911C35.6846 22.4 35.7289 22.3911 35.7466 22.369C35.7599 22.3468 36.6901 21.8153 37.8107 21.1864C39.0111 20.5131 39.9192 19.9772 40.0166 19.8842C40.2248 19.6848 40.4374 19.2641 40.4728 18.9762L40.5039 18.768H36.2383H31.9727L32.0568 18.8654Z" fill="#EC9615"/>
<path d="M33.7518 16.9311L31.918 18.7648L32.0287 18.8622L32.135 18.9641L32.0553 18.8622L31.9711 18.7648H36.2367H40.5023L40.4713 18.973C40.4314 19.2742 40.21 19.6994 39.9885 19.8987C39.8866 19.9961 38.9166 20.5675 37.7826 21.2009C36.6708 21.821 35.7716 22.3348 35.7893 22.3436C35.8336 22.3614 39.7715 20.1467 39.9619 20.0006C40.3251 19.7171 40.5643 19.1413 40.52 18.6585C40.4625 18.0428 40.2188 17.6796 39.6164 17.312C39.4835 17.2367 39.3684 17.1703 39.3551 17.1703C39.3462 17.1703 39.2621 17.1215 39.169 17.0684C39.0805 17.0108 38.8457 16.8779 38.6508 16.7716C38.4559 16.6697 38.2388 16.5457 38.1635 16.5059C38.0927 16.4616 37.9022 16.3553 37.7427 16.2623C37.0473 15.8636 36.2766 15.4384 35.9444 15.2745L35.5856 15.0929L33.7518 16.9311Z" fill="#ECC115"/>
<path d="M34.4725 21.3078C35.0972 21.9368 35.6155 22.4462 35.6244 22.4374C35.6332 22.4241 35.1193 21.9058 34.4858 21.2856L33.334 20.156L34.4725 21.3078Z" fill="#ECC115"/>
<path d="M33.7054 16.9415L31.8672 18.793L33.7187 16.9548C35.4374 15.2451 35.5835 15.0945 35.5525 15.0945C35.5481 15.0945 34.7153 15.9272 33.7054 16.9415Z" fill="#6BC140"/>
<path d="M21.1963 7.47359C21.0989 7.49131 20.9616 7.53117 20.8907 7.56218L20.7578 7.6109L26.3257 13.1785L31.8935 18.7461L33.7096 16.9301C34.7063 15.9335 35.5257 15.1008 35.5257 15.0875C35.5257 15.0698 35.1935 14.8749 34.786 14.649C34.3741 14.4231 33.8248 14.1131 33.5546 13.9625C33.2888 13.8119 31.9733 13.0722 30.6311 12.3236C29.2934 11.5751 27.9557 10.8266 27.6634 10.6627C24.4033 8.83338 22.2373 7.62419 22.0867 7.56218C21.8652 7.46473 21.44 7.42044 21.1963 7.47359Z" fill="#15C16B"/>
<path d="M30.1002 20.5507L28.3281 22.3359L30.1135 20.564C31.0925 19.5894 31.8944 18.7876 31.8944 18.7831C31.8944 18.7521 31.7482 18.8939 30.1002 20.5507Z" fill="#4096C1"/>
<path d="M24.4981 26.1451L20.8438 29.8125L24.5114 26.1583C26.5268 24.1475 28.1746 22.4998 28.1746 22.4953C28.1746 22.4865 28.1701 22.4821 28.1613 22.4821C28.1568 22.4821 26.5091 24.1297 24.4981 26.1451Z" fill="#4096C1"/>
<path d="M19.8956 23.8092C19.9089 28.5353 19.9133 28.863 19.9886 29.0624C20.0329 29.1775 20.1171 29.3414 20.1746 29.4256C20.2898 29.5983 20.622 29.8906 20.6973 29.8906C20.7283 29.8906 23.2531 27.3881 26.3095 24.3319L31.8685 18.7731H25.8754H19.8867L19.8956 23.8092Z" fill="#4096EC"/>
<path d="M20.5 7.75054C20.3892 7.8347 20.2386 7.99858 20.1633 8.11817C19.8798 8.5611 19.8887 8.35292 19.8887 13.8098V18.7617H25.8995H31.9148L26.3336 13.1808C23.264 10.1113 20.7392 7.59995 20.7259 7.59995C20.7126 7.59995 20.6107 7.66639 20.5 7.75054Z" fill="#40C1EC"/>
</g>
<path d="M49.4864 10.8866V12.7505C49.4235 12.8437 49.3232 12.9486 49.1857 13.0652C49.0481 13.1794 48.8581 13.2797 48.6157 13.3659C48.3756 13.4498 48.0655 13.4918 47.6855 13.4918C47.3755 13.4918 47.0899 13.4382 46.8288 13.331C46.57 13.2214 46.3451 13.0629 46.1539 12.8554C45.9651 12.6456 45.8182 12.3915 45.7133 12.0931C45.6107 11.7923 45.5594 11.452 45.5594 11.072V10.6768C45.5594 10.2968 45.6037 9.95764 45.6923 9.65924C45.7832 9.36085 45.9161 9.1079 46.091 8.90042C46.2658 8.69061 46.4803 8.53209 46.7344 8.42485C46.9885 8.31528 47.2799 8.2605 47.6086 8.2605C47.9979 8.2605 48.3231 8.3281 48.5842 8.46332C48.8477 8.5962 49.0528 8.78036 49.1997 9.01582C49.3489 9.25128 49.4445 9.51937 49.4864 9.8201H48.8115C48.7812 9.63593 48.7206 9.46808 48.6297 9.31655C48.5411 9.16502 48.414 9.0438 48.2485 8.95288C48.083 8.85963 47.8697 8.813 47.6086 8.813C47.3731 8.813 47.1692 8.85613 46.9966 8.94239C46.8241 9.02864 46.6819 9.1522 46.57 9.31305C46.4581 9.47391 46.3742 9.66857 46.3183 9.89703C46.2646 10.1255 46.2378 10.3831 46.2378 10.6698V11.072C46.2378 11.3657 46.2716 11.628 46.3392 11.8588C46.4092 12.0896 46.5082 12.2866 46.6365 12.4497C46.7647 12.6106 46.9174 12.733 47.0946 12.8169C47.2741 12.9008 47.4722 12.9428 47.689 12.9428C47.9291 12.9428 48.1238 12.923 48.273 12.8834C48.4222 12.8414 48.5388 12.7924 48.6227 12.7365C48.7066 12.6782 48.7707 12.6234 48.815 12.5721V11.4322H47.6366V10.8866H49.4864ZM52.0776 13.4918C51.8142 13.4918 51.5752 13.4475 51.3607 13.3589C51.1486 13.268 50.9656 13.141 50.8117 12.9778C50.6602 12.8146 50.5436 12.6211 50.462 12.3973C50.3804 12.1735 50.3396 11.9287 50.3396 11.663V11.5161C50.3396 11.2084 50.3851 10.9344 50.476 10.6943C50.5669 10.4519 50.6905 10.2467 50.8467 10.0789C51.0029 9.91102 51.1801 9.78397 51.3782 9.69771C51.5764 9.61145 51.7815 9.56833 51.9937 9.56833C52.2641 9.56833 52.4972 9.61495 52.693 9.7082C52.8912 9.80145 53.0532 9.932 53.1791 10.0998C53.305 10.2654 53.3982 10.4612 53.4589 10.6873C53.5195 10.9111 53.5498 11.1559 53.5498 11.4217V11.7119H50.7243V11.1839H52.9029V11.1349C52.8935 10.9671 52.8586 10.8039 52.7979 10.6454C52.7397 10.4868 52.6464 10.3563 52.5182 10.2537C52.39 10.1511 52.2151 10.0998 51.9937 10.0998C51.8468 10.0998 51.7116 10.1313 51.588 10.1943C51.4645 10.2549 51.3584 10.3458 51.2698 10.467C51.1812 10.5882 51.1125 10.7363 51.0635 10.9111C51.0145 11.086 50.9901 11.2876 50.9901 11.5161V11.663C50.9901 11.8425 51.0145 12.0115 51.0635 12.17C51.1148 12.3262 51.1882 12.4637 51.2838 12.5826C51.3817 12.7015 51.4994 12.7948 51.637 12.8624C51.7769 12.93 51.9354 12.9638 52.1126 12.9638C52.341 12.9638 52.5345 12.9172 52.693 12.8239C52.8516 12.7307 52.9903 12.6059 53.1092 12.4497L53.5008 12.761C53.4192 12.8845 53.3155 13.0023 53.1896 13.1142C53.0637 13.2261 52.9087 13.317 52.7245 13.3869C52.5427 13.4568 52.327 13.4918 52.0776 13.4918ZM55.8892 9.63826V10.1348H53.8435V9.63826H55.8892ZM54.5359 8.71859H55.1828V12.4847C55.1828 12.6129 55.2026 12.7097 55.2423 12.775C55.2819 12.8402 55.3332 12.8834 55.3961 12.9043C55.4591 12.9253 55.5267 12.9358 55.5989 12.9358C55.6526 12.9358 55.7085 12.9311 55.7668 12.9218C55.8274 12.9102 55.8729 12.9008 55.9032 12.8938L55.9067 13.4219C55.8554 13.4382 55.7878 13.4533 55.7038 13.4673C55.6223 13.4837 55.5232 13.4918 55.4066 13.4918C55.2481 13.4918 55.1024 13.4603 54.9695 13.3974C54.8366 13.3345 54.7306 13.2295 54.6513 13.0827C54.5744 12.9335 54.5359 12.733 54.5359 12.4812V8.71859ZM59.2462 8.33043V13.4219H58.5713V8.33043H59.2462ZM61.9597 9.63826V10.1348H59.9141V9.63826H61.9597ZM60.6065 8.71859H61.2534V12.4847C61.2534 12.6129 61.2732 12.7097 61.3128 12.775C61.3525 12.8402 61.4037 12.8834 61.4667 12.9043C61.5296 12.9253 61.5972 12.9358 61.6695 12.9358C61.7231 12.9358 61.7791 12.9311 61.8374 12.9218C61.898 12.9102 61.9434 12.9008 61.9737 12.8938L61.9772 13.4219C61.9259 13.4382 61.8583 13.4533 61.7744 13.4673C61.6928 13.4837 61.5937 13.4918 61.4772 13.4918C61.3187 13.4918 61.1729 13.4603 61.0401 13.3974C60.9072 13.3345 60.8011 13.2295 60.7219 13.0827C60.6449 12.9335 60.6065 12.733 60.6065 12.4812V8.71859ZM68.5129 10.7153V11.037C68.5129 11.4193 68.4651 11.762 68.3695 12.0651C68.2739 12.3682 68.1364 12.6258 67.9569 12.8379C67.7774 13.05 67.5617 13.2121 67.31 13.324C67.0605 13.4359 66.7808 13.4918 66.4707 13.4918C66.17 13.4918 65.8937 13.4359 65.6419 13.324C65.3925 13.2121 65.1757 13.05 64.9915 12.8379C64.8097 12.6258 64.6687 12.3682 64.5684 12.0651C64.4682 11.762 64.418 11.4193 64.418 11.037V10.7153C64.418 10.333 64.467 9.99145 64.5649 9.69072C64.6652 9.38765 64.8062 9.13005 64.988 8.91791C65.1699 8.70343 65.3855 8.54025 65.635 8.42835C65.8867 8.31645 66.163 8.2605 66.4637 8.2605C66.7738 8.2605 67.0535 8.31645 67.303 8.42835C67.5547 8.54025 67.7704 8.70343 67.9499 8.91791C68.1317 9.13005 68.2704 9.38765 68.366 9.69072C68.4639 9.99145 68.5129 10.333 68.5129 10.7153ZM67.845 11.037V10.7083C67.845 10.4052 67.8135 10.1371 67.7506 9.90403C67.6899 9.6709 67.6002 9.47508 67.4813 9.31655C67.3624 9.15803 67.2167 9.03797 67.0442 8.95637C66.874 8.87478 66.6805 8.83398 66.4637 8.83398C66.2539 8.83398 66.0639 8.87478 65.8937 8.95637C65.7259 9.03797 65.5813 9.15803 65.4601 9.31655C65.3412 9.47508 65.2491 9.6709 65.1839 9.90403C65.1186 10.1371 65.0859 10.4052 65.0859 10.7083V11.037C65.0859 11.3424 65.1186 11.6128 65.1839 11.8483C65.2491 12.0814 65.3424 12.2784 65.4636 12.4393C65.5872 12.5978 65.7329 12.7178 65.9007 12.7994C66.0709 12.881 66.2609 12.9218 66.4707 12.9218C66.6898 12.9218 66.8845 12.881 67.0547 12.7994C67.2249 12.7178 67.3682 12.5978 67.4848 12.4393C67.6037 12.2784 67.6934 12.0814 67.7541 11.8483C67.8147 11.6128 67.845 11.3424 67.845 11.037ZM70.0725 10.446V13.4219H69.4256V9.63826H70.0375L70.0725 10.446ZM69.9186 11.3867L69.6494 11.3762C69.6517 11.1174 69.6902 10.8785 69.7648 10.6593C69.8394 10.4379 69.9443 10.2456 70.0795 10.0824C70.2147 9.91918 70.3755 9.79329 70.562 9.7047C70.7509 9.61379 70.9595 9.56833 71.188 9.56833C71.3745 9.56833 71.5423 9.59397 71.6915 9.64526C71.8407 9.69421 71.9678 9.77348 72.0727 9.88304C72.1799 9.99261 72.2615 10.1348 72.3175 10.3097C72.3734 10.4822 72.4014 10.6932 72.4014 10.9426V13.4219H71.751V10.9356C71.751 10.7374 71.7218 10.5789 71.6636 10.46C71.6053 10.3388 71.5202 10.2514 71.4083 10.1978C71.2964 10.1418 71.1588 10.1138 70.9957 10.1138C70.8348 10.1138 70.6879 10.1476 70.555 10.2152C70.4245 10.2829 70.3114 10.3761 70.2158 10.495C70.1226 10.6139 70.0492 10.7503 69.9955 10.9041C69.9443 11.0557 69.9186 11.2165 69.9186 11.3867Z" fill="white"/>
<path d="M52.3888 22.5832V25.6896C52.2839 25.845 52.1168 26.0199 51.8876 26.2141C51.6584 26.4045 51.3417 26.5716 50.9376 26.7153C50.5374 26.8552 50.0207 26.9252 49.3873 26.9252C48.8706 26.9252 48.3946 26.8358 47.9594 26.6571C47.5282 26.4744 47.1532 26.2102 46.8346 25.8644C46.5199 25.5148 46.2751 25.0912 46.1003 24.5939C45.9293 24.0927 45.8438 23.5254 45.8438 22.8921V22.2335C45.8438 21.6002 45.9177 21.0349 46.0653 20.5375C46.2168 20.0402 46.4383 19.6186 46.7297 19.2728C47.0211 18.9232 47.3786 18.6589 47.8021 18.4802C48.2256 18.2976 48.7113 18.2063 49.2591 18.2063C49.908 18.2063 50.45 18.319 50.8852 18.5443C51.3242 18.7658 51.6661 19.0727 51.9109 19.4652C52.1596 19.8576 52.3189 20.3044 52.3888 20.8056H51.264C51.2135 20.4987 51.1125 20.2189 50.9609 19.9664C50.8133 19.7138 50.6015 19.5118 50.3257 19.3603C50.0498 19.2048 49.6943 19.1271 49.2591 19.1271C48.8667 19.1271 48.5267 19.199 48.2392 19.3428C47.9517 19.4865 47.7147 19.6925 47.5282 19.9606C47.3417 20.2287 47.2018 20.5531 47.1085 20.9339C47.0192 21.3146 46.9745 21.744 46.9745 22.2219V22.8921C46.9745 23.3817 47.0308 23.8188 47.1435 24.2034C47.2601 24.5881 47.4252 24.9164 47.6389 25.1884C47.8526 25.4565 48.1071 25.6605 48.4024 25.8003C48.7016 25.9402 49.0318 26.0101 49.3932 26.0101C49.7934 26.0101 50.1178 25.9771 50.3665 25.9111C50.6151 25.8411 50.8094 25.7595 50.9493 25.6663C51.0891 25.5691 51.196 25.4778 51.2698 25.3924V23.4924H49.3057V22.5832H52.3888ZM53.805 23.7255V23.5915C53.805 23.1369 53.8711 22.7153 54.0032 22.3268C54.1353 21.9343 54.3257 21.5944 54.5744 21.3069C54.823 21.0154 55.1241 20.7901 55.4777 20.6308C55.8313 20.4676 56.2276 20.386 56.6667 20.386C57.1096 20.386 57.5078 20.4676 57.8614 20.6308C58.2189 20.7901 58.5219 21.0154 58.7706 21.3069C59.0232 21.5944 59.2155 21.9343 59.3476 22.3268C59.4797 22.7153 59.5457 23.1369 59.5457 23.5915V23.7255C59.5457 24.1801 59.4797 24.6017 59.3476 24.9902C59.2155 25.3788 59.0232 25.7187 58.7706 26.0101C58.5219 26.2977 58.2208 26.523 57.8672 26.6862C57.5176 26.8455 57.1212 26.9252 56.6783 26.9252C56.2354 26.9252 55.8371 26.8455 55.4835 26.6862C55.13 26.523 54.8269 26.2977 54.5744 26.0101C54.3257 25.7187 54.1353 25.3788 54.0032 24.9902C53.8711 24.6017 53.805 24.1801 53.805 23.7255ZM54.8832 23.5915V23.7255C54.8832 24.0402 54.9202 24.3375 54.994 24.6172C55.0678 24.8931 55.1785 25.1379 55.3262 25.3516C55.4777 25.5653 55.6662 25.7343 55.8915 25.8586C56.1169 25.9791 56.3791 26.0393 56.6783 26.0393C56.9736 26.0393 57.232 25.9791 57.4534 25.8586C57.6788 25.7343 57.8653 25.5653 58.0129 25.3516C58.1606 25.1379 58.2713 24.8931 58.3451 24.6172C58.4229 24.3375 58.4617 24.0402 58.4617 23.7255V23.5915C58.4617 23.2806 58.4229 22.9873 58.3451 22.7114C58.2713 22.4317 58.1586 22.185 58.0071 21.9713C57.8595 21.7537 57.673 21.5827 57.4476 21.4584C57.2262 21.3341 56.9658 21.2719 56.6667 21.2719C56.3714 21.2719 56.111 21.3341 55.8857 21.4584C55.6642 21.5827 55.4777 21.7537 55.3262 21.9713C55.1785 22.185 55.0678 22.4317 54.994 22.7114C54.9202 22.9873 54.8832 23.2806 54.8832 23.5915ZM60.6123 23.7255V23.5915C60.6123 23.1369 60.6783 22.7153 60.8104 22.3268C60.9425 21.9343 61.1329 21.5944 61.3816 21.3069C61.6303 21.0154 61.9314 20.7901 62.285 20.6308C62.6385 20.4676 63.0348 20.386 63.4739 20.386C63.9168 20.386 64.3151 20.4676 64.6687 20.6308C65.0261 20.7901 65.3292 21.0154 65.5778 21.3069C65.8304 21.5944 66.0227 21.9343 66.1548 22.3268C66.2869 22.7153 66.353 23.1369 66.353 23.5915V23.7255C66.353 24.1801 66.2869 24.6017 66.1548 24.9902C66.0227 25.3788 65.8304 25.7187 65.5778 26.0101C65.3292 26.2977 65.0281 26.523 64.6745 26.6862C64.3248 26.8455 63.9285 26.9252 63.4855 26.9252C63.0426 26.9252 62.6444 26.8455 62.2908 26.6862C61.9372 26.523 61.6341 26.2977 61.3816 26.0101C61.1329 25.7187 60.9425 25.3788 60.8104 24.9902C60.6783 24.6017 60.6123 24.1801 60.6123 23.7255ZM61.6905 23.5915V23.7255C61.6905 24.0402 61.7274 24.3375 61.8012 24.6172C61.875 24.8931 61.9858 25.1379 62.1334 25.3516C62.285 25.5653 62.4734 25.7343 62.6988 25.8586C62.9241 25.9791 63.1864 26.0393 63.4855 26.0393C63.7808 26.0393 64.0392 25.9791 64.2607 25.8586C64.486 25.7343 64.6725 25.5653 64.8202 25.3516C64.9678 25.1379 65.0786 24.8931 65.1524 24.6172C65.2301 24.3375 65.2689 24.0402 65.2689 23.7255V23.5915C65.2689 23.2806 65.2301 22.9873 65.1524 22.7114C65.0786 22.4317 64.9659 22.185 64.8144 21.9713C64.6667 21.7537 64.4802 21.5827 64.2549 21.4584C64.0334 21.3341 63.7731 21.2719 63.4739 21.2719C63.1786 21.2719 62.9183 21.3341 62.6929 21.4584C62.4715 21.5827 62.285 21.7537 62.1334 21.9713C61.9858 22.185 61.875 22.4317 61.8012 22.7114C61.7274 22.9873 61.6905 23.2806 61.6905 23.5915ZM71.7906 20.5026H72.7697V26.6745C72.7697 27.2302 72.6571 27.7042 72.4317 28.0966C72.2063 28.489 71.8916 28.7863 71.4875 28.9883C71.0874 29.1942 70.625 29.2972 70.1005 29.2972C69.8829 29.2972 69.6264 29.2622 69.3311 29.1923C69.0397 29.1262 68.7522 29.0116 68.4686 28.8484C68.1888 28.6891 67.9538 28.4735 67.7634 28.2015L68.3287 27.5604C68.5929 27.879 68.8688 28.1005 69.1563 28.2248C69.4477 28.3492 69.7352 28.4113 70.0189 28.4113C70.3608 28.4113 70.6561 28.3472 70.9047 28.219C71.1534 28.0908 71.3457 27.9004 71.4817 27.6478C71.6216 27.3992 71.6915 27.0922 71.6915 26.727V21.8897L71.7906 20.5026ZM67.4487 23.7255V23.6031C67.4487 23.1213 67.505 22.6842 67.6177 22.2918C67.7342 21.8955 67.8994 21.5555 68.1131 21.2719C68.3307 20.9882 68.5929 20.7707 68.8999 20.6191C69.2068 20.4637 69.5526 20.386 69.9373 20.386C70.3336 20.386 70.6794 20.4559 70.9747 20.5958C71.2739 20.7318 71.5264 20.9319 71.7323 21.1961C71.9421 21.4564 72.1073 21.7712 72.2277 22.1403C72.3482 22.5094 72.4317 22.9271 72.4783 23.3933V23.9295C72.4356 24.3919 72.3521 24.8076 72.2277 25.1767C72.1073 25.5458 71.9421 25.8606 71.7323 26.1209C71.5264 26.3812 71.2739 26.5813 70.9747 26.7212C70.6755 26.8572 70.3258 26.9252 69.9256 26.9252C69.5487 26.9252 69.2068 26.8455 68.8999 26.6862C68.5968 26.5269 68.3365 26.3035 68.1189 26.016C67.9013 25.7284 67.7342 25.3904 67.6177 25.0019C67.505 24.6095 67.4487 24.184 67.4487 23.7255ZM68.5269 23.6031V23.7255C68.5269 24.0402 68.5579 24.3355 68.6201 24.6114C68.6862 24.8873 68.7852 25.1301 68.9173 25.3399C69.0533 25.5497 69.2262 25.7149 69.4361 25.8353C69.6459 25.9519 69.8965 26.0101 70.1879 26.0101C70.5453 26.0101 70.8406 25.9344 71.0738 25.7828C71.3069 25.6313 71.4914 25.4312 71.6274 25.1825C71.7673 24.9339 71.8761 24.6638 71.9538 24.3724V22.9679C71.9111 22.7542 71.845 22.5482 71.7556 22.3501C71.6702 22.148 71.5575 21.9693 71.4176 21.8139C71.2816 21.6546 71.1126 21.5283 70.9106 21.4351C70.7085 21.3418 70.4715 21.2952 70.1995 21.2952C69.9042 21.2952 69.6497 21.3574 69.4361 21.4817C69.2262 21.6021 69.0533 21.7692 68.9173 21.9829C68.7852 22.1927 68.6862 22.4375 68.6201 22.7173C68.5579 22.9931 68.5269 23.2884 68.5269 23.6031ZM75.5789 17.8566V26.8086H74.4949V17.8566H75.5789ZM79.9267 26.9252C79.4876 26.9252 79.0894 26.8513 78.7319 26.7037C78.3783 26.5522 78.0733 26.3404 77.8169 26.0684C77.5643 25.7964 77.3701 25.474 77.2341 25.101C77.0981 24.728 77.0301 24.32 77.0301 23.8771V23.6323C77.0301 23.1194 77.1058 22.6629 77.2574 22.2627C77.4089 21.8586 77.6148 21.5167 77.8752 21.2369C78.1355 20.9572 78.4308 20.7454 78.761 20.6017C79.0913 20.4579 79.4332 20.386 79.7868 20.386C80.2375 20.386 80.626 20.4637 80.9524 20.6191C81.2827 20.7746 81.5527 20.9921 81.7625 21.2719C81.9723 21.5477 82.1277 21.8741 82.2288 22.251C82.3298 22.624 82.3803 23.032 82.3803 23.4749V23.9586H77.6712V23.0786H81.3021V22.997C81.2866 22.7173 81.2283 22.4453 81.1272 22.1811C81.0301 21.9169 80.8747 21.6993 80.661 21.5283C80.4473 21.3574 80.1559 21.2719 79.7868 21.2719C79.542 21.2719 79.3166 21.3243 79.1107 21.4292C78.9048 21.5303 78.728 21.6818 78.5804 21.8838C78.4327 22.0859 78.3181 22.3326 78.2365 22.624C78.1549 22.9154 78.1141 23.2515 78.1141 23.6323V23.8771C78.1141 24.1762 78.1549 24.4579 78.2365 24.7221C78.322 24.9825 78.4444 25.2117 78.6037 25.4098C78.7669 25.608 78.9631 25.7634 79.1923 25.8761C79.4254 25.9888 79.6896 26.0451 79.9849 26.0451C80.3657 26.0451 80.6882 25.9674 80.9524 25.812C81.2166 25.6566 81.4478 25.4487 81.646 25.1884L82.2987 25.7071C82.1627 25.913 81.9898 26.1092 81.78 26.2957C81.5702 26.4822 81.3118 26.6338 81.0049 26.7503C80.7018 26.8669 80.3424 26.9252 79.9267 26.9252ZM89.8927 23.4807H87.6256V22.5657H89.8927C90.3318 22.5657 90.6873 22.4958 90.9593 22.3559C91.2313 22.216 91.4294 22.0218 91.5537 21.7731C91.682 21.5244 91.7461 21.2408 91.7461 20.9222C91.7461 20.6308 91.682 20.3569 91.5537 20.1004C91.4294 19.844 91.2313 19.6381 90.9593 19.4827C90.6873 19.3234 90.3318 19.2437 89.8927 19.2437H87.8879V26.8086H86.763V18.3229H89.8927C90.5338 18.3229 91.0758 18.4336 91.5188 18.6551C91.9617 18.8765 92.2978 19.1835 92.527 19.5759C92.7563 19.9644 92.8709 20.4093 92.8709 20.9105C92.8709 21.4545 92.7563 21.9188 92.527 22.3035C92.2978 22.6881 91.9617 22.9815 91.5188 23.1835C91.0758 23.3817 90.5338 23.4807 89.8927 23.4807ZM95.3012 17.8566V26.8086H94.2172V17.8566H95.3012ZM100.751 25.7304V22.4841C100.751 22.2355 100.7 22.0198 100.599 21.8372C100.502 21.6507 100.354 21.507 100.156 21.4059C99.9579 21.3049 99.7131 21.2544 99.4217 21.2544C99.1497 21.2544 98.9108 21.301 98.7048 21.3943C98.5028 21.4875 98.3435 21.6099 98.2269 21.7614C98.1143 21.913 98.0579 22.0762 98.0579 22.251H96.9797C96.9797 22.0257 97.038 21.8022 97.1546 21.5808C97.2711 21.3593 97.4382 21.1592 97.6558 20.9805C97.8773 20.7979 98.1415 20.6541 98.4484 20.5492C98.7592 20.4404 99.105 20.386 99.4858 20.386C99.9443 20.386 100.348 20.4637 100.698 20.6191C101.052 20.7746 101.327 21.0096 101.526 21.3243C101.728 21.6352 101.829 22.0257 101.829 22.4958V25.4332C101.829 25.643 101.846 25.8664 101.881 26.1034C101.92 26.3404 101.976 26.5444 102.05 26.7153V26.8086H100.925C100.871 26.6843 100.828 26.5191 100.797 26.3132C100.766 26.1034 100.751 25.9091 100.751 25.7304ZM100.937 22.9854L100.949 23.743H99.8588C99.5519 23.743 99.2779 23.7683 99.037 23.8188C98.7962 23.8654 98.5941 23.9373 98.4309 24.0344C98.2677 24.1315 98.1434 24.2539 98.0579 24.4016C97.9724 24.5453 97.9297 24.7144 97.9297 24.9086C97.9297 25.1068 97.9744 25.2875 98.0638 25.4506C98.1531 25.6138 98.2872 25.744 98.4659 25.8411C98.6485 25.9344 98.8719 25.981 99.1361 25.981C99.4664 25.981 99.7578 25.9111 100.01 25.7712C100.263 25.6313 100.463 25.4604 100.611 25.2583C100.762 25.0563 100.844 24.8601 100.855 24.6697L101.316 25.1884C101.289 25.3516 101.215 25.5322 101.094 25.7304C100.974 25.9285 100.813 26.1189 100.611 26.3015C100.412 26.4803 100.175 26.6299 99.8996 26.7503C99.6276 26.8669 99.3207 26.9252 98.9788 26.9252C98.5514 26.9252 98.1764 26.8416 97.8539 26.6745C97.5353 26.5075 97.2867 26.2841 97.1079 26.0043C96.9331 25.7207 96.8457 25.404 96.8457 25.0543C96.8457 24.7163 96.9117 24.4191 97.0438 24.1626C97.1759 23.9023 97.3663 23.6867 97.615 23.5157C97.8637 23.3409 98.1628 23.2088 98.5125 23.1194C98.8622 23.03 99.2527 22.9854 99.684 22.9854H100.937ZM105.203 26.1558L106.957 20.5026H108.111L105.582 27.7819C105.524 27.9373 105.446 28.1044 105.349 28.2831C105.256 28.4657 105.135 28.6386 104.988 28.8018C104.84 28.965 104.661 29.0971 104.451 29.1981C104.245 29.303 103.999 29.3555 103.711 29.3555C103.626 29.3555 103.517 29.3438 103.385 29.3205C103.253 29.2972 103.159 29.2778 103.105 29.2622L103.099 28.388C103.13 28.3919 103.179 28.3958 103.245 28.3997C103.315 28.4074 103.363 28.4113 103.391 28.4113C103.635 28.4113 103.843 28.3783 104.014 28.3122C104.185 28.2501 104.329 28.1432 104.446 27.9917C104.566 27.8441 104.669 27.6401 104.754 27.3797L105.203 26.1558ZM103.915 20.5026L105.553 25.3982L105.833 26.5347L105.057 26.931L102.738 20.5026H103.915Z" fill="white"/>
<defs>
<clipPath id="clip0_3749_55089">
<rect width="22.679" height="22.6779" fill="white" transform="translate(18.873 7.42188)"/>
</clipPath>
</defs>
</svg>
