<svg width="320" height="237" viewBox="0 0 320 237" fill="none" xmlns="http://www.w3.org/2000/svg">
<line opacity="0.03" x1="2.77805" y1="5.20117" x2="2.77806" y2="212.249" stroke="url(#paint0_linear_3754_55622)" stroke-width="0.204545"/>
<line opacity="0.03" x1="15.7468" y1="23.5371" x2="15.7468" y2="212.246" stroke="url(#paint1_linear_3754_55622)" stroke-width="0.204545"/>
<line opacity="0.03" x1="28.7234" y1="41.2852" x2="28.7234" y2="212.247" stroke="url(#paint2_linear_3754_55622)" stroke-width="0.204545"/>
<line opacity="0.03" x1="41.698" y1="44.8379" x2="41.698" y2="212.251" stroke="url(#paint3_linear_3754_55622)" stroke-width="0.204545"/>
<line opacity="0.03" x1="54.6667" y1="37.1445" x2="54.6667" y2="212.248" stroke="url(#paint4_linear_3754_55622)" stroke-width="0.204545"/>
<line opacity="0.03" x1="67.6413" y1="52.5254" x2="67.6413" y2="212.248" stroke="url(#paint5_linear_3754_55622)" stroke-width="0.204545"/>
<line opacity="0.03" x1="80.6159" y1="69.0879" x2="80.616" y2="212.247" stroke="url(#paint6_linear_3754_55622)" stroke-width="0.204545"/>
<line opacity="0.03" x1="93.5847" y1="86.2422" x2="93.5847" y2="212.245" stroke="url(#paint7_linear_3754_55622)" stroke-width="0.204545"/>
<line opacity="0.03" x1="106.561" y1="101.623" x2="106.561" y2="212.246" stroke="url(#paint8_linear_3754_55622)" stroke-width="0.204545"/>
<line opacity="0.03" x1="119.536" y1="100.443" x2="119.536" y2="212.249" stroke="url(#paint9_linear_3754_55622)" stroke-width="0.204545"/>
<line opacity="0.03" x1="132.505" y1="98.0762" x2="132.505" y2="212.248" stroke="url(#paint10_linear_3754_55622)" stroke-width="0.204545"/>
<line opacity="0.03" x1="145.479" y1="106.357" x2="145.479" y2="212.247" stroke="url(#paint11_linear_3754_55622)" stroke-width="0.204545"/>
<line opacity="0.03" x1="158.454" y1="54.2988" x2="158.454" y2="212.247" stroke="url(#paint12_linear_3754_55622)" stroke-width="0.204545"/>
<line opacity="0.03" x1="171.425" y1="73.2285" x2="171.425" y2="212.246" stroke="url(#paint13_linear_3754_55622)" stroke-width="0.204545"/>
<line opacity="0.03" x1="184.399" y1="90.9766" x2="184.399" y2="212.247" stroke="url(#paint14_linear_3754_55622)" stroke-width="0.204545"/>
<line opacity="0.03" x1="197.374" y1="90.9766" x2="197.374" y2="212.247" stroke="url(#paint15_linear_3754_55622)" stroke-width="0.204545"/>
<line opacity="0.03" x1="210.343" y1="62.5801" x2="210.343" y2="212.246" stroke="url(#paint16_linear_3754_55622)" stroke-width="0.204545"/>
<line opacity="0.03" x1="223.317" y1="34.7773" x2="223.317" y2="212.247" stroke="url(#paint17_linear_3754_55622)" stroke-width="0.204545"/>
<line opacity="0.03" x1="236.292" y1="27.0898" x2="236.292" y2="212.25" stroke="url(#paint18_linear_3754_55622)" stroke-width="0.204545"/>
<line opacity="0.03" x1="249.262" y1="37.7383" x2="249.262" y2="212.25" stroke="url(#paint19_linear_3754_55622)" stroke-width="0.204545"/>
<line opacity="0.03" x1="262.237" y1="48.9785" x2="262.237" y2="212.25" stroke="url(#paint20_linear_3754_55622)" stroke-width="0.204545"/>
<line opacity="0.03" x1="275.212" y1="40.1035" x2="275.212" y2="212.249" stroke="url(#paint21_linear_3754_55622)" stroke-width="0.204545"/>
<line opacity="0.03" x1="288.18" y1="20.582" x2="288.18" y2="212.249" stroke="url(#paint22_linear_3754_55622)" stroke-width="0.204545"/>
<path opacity="0.1" d="M0 1C12.3979 7.16875 25.1532 32.8441 38.5623 52.4812L55.3786 32.433L120.336 108L138.141 93.5034L157.266 108L170.125 52.4812L208.044 101.215L248.601 20.4037L288.829 52.4812L320 8.59253" stroke="url(#paint23_linear_3754_55622)" stroke-width="0.818182" stroke-linecap="round" stroke-linejoin="round"/>
<path opacity="0.03" d="M37.9661 52.6359C24.8258 33.584 12.1494 6.98492 0 1V212.51L319.458 214L320 8.94344L289.085 52.6359L248.407 21.3561L208.139 99.8943L169.763 52.6359L157.288 107.748L137.763 92.8528L119.864 107.251L54.7797 32.7757L37.9661 52.6359Z" fill="url(#paint24_linear_3754_55622)" stroke="url(#paint25_linear_3754_55622)" stroke-width="1.7465" stroke-linecap="round" stroke-linejoin="round"/>
<path opacity="0.2" d="M3.31976 203C3.31976 202.823 3.1766 202.68 3 202.68C2.8234 202.68 2.68024 202.823 2.68024 203L3.31976 203ZM2.68024 213L2.68024 213.32L3.31976 213.32L3.31976 213L2.68024 213ZM2.68024 203L2.68024 213L3.31976 213L3.31976 203L2.68024 203Z" fill="url(#paint26_linear_3754_55622)"/>
<path opacity="0.2" d="M11.3198 203C11.3198 202.823 11.1766 202.68 11 202.68C10.8234 202.68 10.6802 202.823 10.6802 203L11.3198 203ZM10.6802 213L10.6802 213.32L11.3198 213.32L11.3198 213L10.6802 213ZM10.6802 203L10.6802 213L11.3198 213L11.3198 203L10.6802 203Z" fill="url(#paint27_linear_3754_55622)"/>
<path opacity="0.2" d="M19.3198 195C19.3198 194.823 19.1766 194.68 19 194.68C18.8234 194.68 18.6802 194.823 18.6802 195L19.3198 195ZM18.6802 213L18.6802 213.32L19.3198 213.32L19.3198 213L18.6802 213ZM18.6802 195L18.6802 213L19.3198 213L19.3198 195L18.6802 195Z" fill="url(#paint28_linear_3754_55622)"/>
<path opacity="0.2" d="M25.3198 177C25.3198 176.823 25.1766 176.68 25 176.68C24.8234 176.68 24.6802 176.823 24.6802 177L25.3198 177ZM24.6802 213L24.6802 213.32L25.3198 213.32L25.3198 213L24.6802 213ZM24.6802 177L24.6802 213L25.3198 213L25.3198 177L24.6802 177Z" fill="url(#paint29_linear_3754_55622)"/>
<path opacity="0.2" d="M33.3198 186C33.3198 185.823 33.1766 185.68 33 185.68C32.8234 185.68 32.6802 185.823 32.6802 186L33.3198 186ZM32.6802 213L32.6802 213.32L33.3198 213.32L33.3198 213L32.6802 213ZM32.6802 186L32.6802 213L33.3198 213L33.3198 186L32.6802 186Z" fill="url(#paint30_linear_3754_55622)"/>
<path opacity="0.2" d="M41.3198 159C41.3198 158.823 41.1766 158.68 41 158.68C40.8234 158.68 40.6802 158.823 40.6802 159L41.3198 159ZM40.6802 213L40.6802 213.32L41.3198 213.32L41.3198 213L40.6802 213ZM40.6802 159L40.6802 213L41.3198 213L41.3198 159L40.6802 159Z" fill="url(#paint31_linear_3754_55622)"/>
<path opacity="0.2" d="M49.3198 195C49.3198 194.823 49.1766 194.68 49 194.68C48.8234 194.68 48.6802 194.823 48.6802 195L49.3198 195ZM48.6802 213L48.6802 213.32L49.3198 213.32L49.3198 213L48.6802 213ZM48.6802 195L48.6802 213L49.3198 213L49.3198 195L48.6802 195Z" fill="url(#paint32_linear_3754_55622)"/>
<path opacity="0.2" d="M55.3198 174C55.3198 173.823 55.1766 173.68 55 173.68C54.8234 173.68 54.6802 173.823 54.6802 174L55.3198 174ZM54.6802 213L54.6802 213.32L55.3198 213.32L55.3198 213L54.6802 213ZM54.6802 174L54.6802 213L55.3198 213L55.3198 174L54.6802 174Z" fill="url(#paint33_linear_3754_55622)"/>
<path opacity="0.2" d="M63.3198 159C63.3198 158.823 63.1766 158.68 63 158.68C62.8234 158.68 62.6802 158.823 62.6802 159L63.3198 159ZM62.6802 213L62.6802 213.32L63.3198 213.32L63.3198 213L62.6802 213ZM62.6802 159L62.6802 213L63.3198 213L63.3198 159L62.6802 159Z" fill="url(#paint34_linear_3754_55622)"/>
<path opacity="0.2" d="M69.3198 177C69.3198 176.823 69.1766 176.68 69 176.68C68.8234 176.68 68.6802 176.823 68.6802 177L69.3198 177ZM68.6802 213L68.6802 213.32L69.3198 213.32L69.3198 213L68.6802 213ZM68.6802 177L68.6802 213L69.3198 213L69.3198 177L68.6802 177Z" fill="url(#paint35_linear_3754_55622)"/>
<path opacity="0.2" d="M77.3198 195C77.3198 194.823 77.1766 194.68 77 194.68C76.8234 194.68 76.6802 194.823 76.6802 195L77.3198 195ZM76.6802 213L76.6802 213.32L77.3198 213.32L77.3198 213L76.6802 213ZM76.6802 195L76.6802 213L77.3198 213L77.3198 195L76.6802 195Z" fill="url(#paint36_linear_3754_55622)"/>
<path opacity="0.2" d="M84.3198 204C84.3198 203.823 84.1766 203.68 84 203.68C83.8234 203.68 83.6802 203.823 83.6802 204L84.3198 204ZM83.6802 213L83.6802 213.32L84.3198 213.32L84.3198 213L83.6802 213ZM83.6802 204L83.6802 213L84.3198 213L84.3198 204L83.6802 204Z" fill="url(#paint37_linear_3754_55622)"/>
<path opacity="0.2" d="M91.3198 180C91.3198 179.823 91.1766 179.68 91 179.68C90.8234 179.68 90.6802 179.823 90.6802 180L91.3198 180ZM90.6802 213L90.6802 213.32L91.3198 213.32L91.3198 213L90.6802 213ZM90.6802 180L90.6802 213L91.3198 213L91.3198 180L90.6802 180Z" fill="url(#paint38_linear_3754_55622)"/>
<path opacity="0.2" d="M98.3198 167C98.3198 166.823 98.1766 166.68 98 166.68C97.8234 166.68 97.6802 166.823 97.6802 167L98.3198 167ZM97.6802 213L97.6802 213.32L98.3198 213.32L98.3198 213L97.6802 213ZM97.6802 167L97.6802 213L98.3198 213L98.3198 167L97.6802 167Z" fill="url(#paint39_linear_3754_55622)"/>
<path opacity="0.2" d="M106.32 190C106.32 189.823 106.177 189.68 106 189.68C105.823 189.68 105.68 189.823 105.68 190L106.32 190ZM105.68 213L105.68 213.32L106.32 213.32L106.32 213L105.68 213ZM105.68 190L105.68 213L106.32 213L106.32 190L105.68 190Z" fill="url(#paint40_linear_3754_55622)"/>
<path opacity="0.2" d="M112.32 190C112.32 189.823 112.177 189.68 112 189.68C111.823 189.68 111.68 189.823 111.68 190L112.32 190ZM111.68 213L111.68 213.32L112.32 213.32L112.32 213L111.68 213ZM111.68 190L111.68 213L112.32 213L112.32 190L111.68 190Z" fill="url(#paint41_linear_3754_55622)"/>
<path opacity="0.2" d="M120.32 180C120.32 179.823 120.177 179.68 120 179.68C119.823 179.68 119.68 179.823 119.68 180L120.32 180ZM119.68 213L119.68 213.32L120.32 213.32L120.32 213L119.68 213ZM119.68 180L119.68 213L120.32 213L120.32 180L119.68 180Z" fill="url(#paint42_linear_3754_55622)"/>
<path opacity="0.2" d="M127.32 197C127.32 196.823 127.177 196.68 127 196.68C126.823 196.68 126.68 196.823 126.68 197L127.32 197ZM126.68 213L126.68 213.32L127.32 213.32L127.32 213L126.68 213ZM126.68 197L126.68 213L127.32 213L127.32 197L126.68 197Z" fill="url(#paint43_linear_3754_55622)"/>
<path opacity="0.2" d="M134.32 186C134.32 185.823 134.177 185.68 134 185.68C133.823 185.68 133.68 185.823 133.68 186L134.32 186ZM133.68 213L133.68 213.32L134.32 213.32L134.32 213L133.68 213ZM133.68 186L133.68 213L134.32 213L134.32 186L133.68 186Z" fill="url(#paint44_linear_3754_55622)"/>
<path opacity="0.2" d="M141.32 171C141.32 170.823 141.177 170.68 141 170.68C140.823 170.68 140.68 170.823 140.68 171L141.32 171ZM140.68 213L140.68 213.32L141.32 213.32L141.32 213L140.68 213ZM140.68 171L140.68 213L141.32 213L141.32 171L140.68 171Z" fill="url(#paint45_linear_3754_55622)"/>
<path opacity="0.2" d="M149.32 159C149.32 158.823 149.177 158.68 149 158.68C148.823 158.68 148.68 158.823 148.68 159L149.32 159ZM148.68 213L148.68 213.32L149.32 213.32L149.32 213L148.68 213ZM148.68 159L148.68 213L149.32 213L149.32 159L148.68 159Z" fill="url(#paint46_linear_3754_55622)"/>
<path opacity="0.2" d="M155.32 168C155.32 167.823 155.177 167.68 155 167.68C154.823 167.68 154.68 167.823 154.68 168L155.32 168ZM154.68 213L154.68 213.32L155.32 213.32L155.32 213L154.68 213ZM154.68 168L154.68 213L155.32 213L155.32 168L154.68 168Z" fill="url(#paint47_linear_3754_55622)"/>
<path opacity="0.2" d="M163.32 177C163.32 176.823 163.177 176.68 163 176.68C162.823 176.68 162.68 176.823 162.68 177L163.32 177ZM162.68 213L162.68 213.32L163.32 213.32L163.32 213L162.68 213ZM162.68 177L162.68 213L163.32 213L163.32 177L162.68 177Z" fill="url(#paint48_linear_3754_55622)"/>
<path opacity="0.2" d="M169.32 186C169.32 185.823 169.177 185.68 169 185.68C168.823 185.68 168.68 185.823 168.68 186L169.32 186ZM168.68 213L168.68 213.32L169.32 213.32L169.32 213L168.68 213ZM168.68 186L168.68 213L169.32 213L169.32 186L168.68 186Z" fill="url(#paint49_linear_3754_55622)"/>
<path opacity="0.2" d="M177.32 197C177.32 196.823 177.177 196.68 177 196.68C176.823 196.68 176.68 196.823 176.68 197L177.32 197ZM176.68 213L176.68 213.32L177.32 213.32L177.32 213L176.68 213ZM176.68 197L176.68 213L177.32 213L177.32 197L176.68 197Z" fill="url(#paint50_linear_3754_55622)"/>
<path opacity="0.2" d="M184.32 206C184.32 205.823 184.177 205.68 184 205.68C183.823 205.68 183.68 205.823 183.68 206L184.32 206ZM183.68 213L183.68 213.32L184.32 213.32L184.32 213L183.68 213ZM183.68 206L183.68 213L184.32 213L184.32 206L183.68 206Z" fill="url(#paint51_linear_3754_55622)"/>
<path opacity="0.2" d="M191.32 159C191.32 158.823 191.177 158.68 191 158.68C190.823 158.68 190.68 158.823 190.68 159L191.32 159ZM190.68 213L190.68 213.32L191.32 213.32L191.32 213L190.68 213ZM190.68 159L190.68 213L191.32 213L191.32 159L190.68 159Z" fill="url(#paint52_linear_3754_55622)"/>
<path opacity="0.2" d="M198.32 181C198.32 180.823 198.177 180.68 198 180.68C197.823 180.68 197.68 180.823 197.68 181L198.32 181ZM197.68 213L197.68 213.32L198.32 213.32L198.32 213L197.68 213ZM197.68 181L197.68 213L198.32 213L198.32 181L197.68 181Z" fill="url(#paint53_linear_3754_55622)"/>
<path opacity="0.2" d="M206.32 191C206.32 190.823 206.177 190.68 206 190.68C205.823 190.68 205.68 190.823 205.68 191L206.32 191ZM205.68 213L205.68 213.32L206.32 213.32L206.32 213L205.68 213ZM205.68 191L205.68 213L206.32 213L206.32 191L205.68 191Z" fill="url(#paint54_linear_3754_55622)"/>
<path opacity="0.2" d="M212.32 181C212.32 180.823 212.177 180.68 212 180.68C211.823 180.68 211.68 180.823 211.68 181L212.32 181ZM211.68 213L211.68 213.32L212.32 213.32L212.32 213L211.68 213ZM211.68 181L211.68 213L212.32 213L212.32 181L211.68 181Z" fill="url(#paint55_linear_3754_55622)"/>
<path opacity="0.2" d="M220.32 159C220.32 158.823 220.177 158.68 220 158.68C219.823 158.68 219.68 158.823 219.68 159L220.32 159ZM219.68 213L219.68 213.32L220.32 213.32L220.32 213L219.68 213ZM219.68 159L219.68 213L220.32 213L220.32 159L219.68 159Z" fill="url(#paint56_linear_3754_55622)"/>
<path opacity="0.2" d="M227.32 176C227.32 175.823 227.177 175.68 227 175.68C226.823 175.68 226.68 175.823 226.68 176L227.32 176ZM226.68 213L226.68 213.32L227.32 213.32L227.32 213L226.68 213ZM226.68 176L226.68 213L227.32 213L227.32 176L226.68 176Z" fill="url(#paint57_linear_3754_55622)"/>
<path opacity="0.2" d="M234.32 186C234.32 185.823 234.177 185.68 234 185.68C233.823 185.68 233.68 185.823 233.68 186L234.32 186ZM233.68 213L233.68 213.32L234.32 213.32L234.32 213L233.68 213ZM233.68 186L233.68 213L234.32 213L234.32 186L233.68 186Z" fill="url(#paint58_linear_3754_55622)"/>
<path opacity="0.2" d="M241.32 186C241.32 185.823 241.177 185.68 241 185.68C240.823 185.68 240.68 185.823 240.68 186L241.32 186ZM240.68 213L240.68 213.32L241.32 213.32L241.32 213L240.68 213ZM240.68 186L240.68 213L241.32 213L241.32 186L240.68 186Z" fill="url(#paint59_linear_3754_55622)"/>
<path opacity="0.2" d="M249.32 176C249.32 175.823 249.177 175.68 249 175.68C248.823 175.68 248.68 175.823 248.68 176L249.32 176ZM248.68 213L248.68 213.32L249.32 213.32L249.32 213L248.68 213ZM248.68 176L248.68 213L249.32 213L249.32 176L248.68 176Z" fill="url(#paint60_linear_3754_55622)"/>
<path opacity="0.2" d="M255.32 202C255.32 201.823 255.177 201.68 255 201.68C254.823 201.68 254.68 201.823 254.68 202L255.32 202ZM254.68 213L254.68 213.32L255.32 213.32L255.32 213L254.68 213ZM254.68 202L254.68 213L255.32 213L255.32 202L254.68 202Z" fill="url(#paint61_linear_3754_55622)"/>
<path opacity="0.2" d="M263.32 198C263.32 197.823 263.177 197.68 263 197.68C262.823 197.68 262.68 197.823 262.68 198L263.32 198ZM262.68 213L262.68 213.32L263.32 213.32L263.32 213L262.68 213ZM262.68 198L262.68 213L263.32 213L263.32 198L262.68 198Z" fill="url(#paint62_linear_3754_55622)"/>
<path opacity="0.2" d="M269.32 208C269.32 207.823 269.177 207.68 269 207.68C268.823 207.68 268.68 207.823 268.68 208L269.32 208ZM268.68 213L268.68 213.32L269.32 213.32L269.32 213L268.68 213ZM268.68 208L268.68 213L269.32 213L269.32 208L268.68 208Z" fill="url(#paint63_linear_3754_55622)"/>
<path opacity="0.2" d="M277.32 202C277.32 201.823 277.177 201.68 277 201.68C276.823 201.68 276.68 201.823 276.68 202L277.32 202ZM276.68 213L276.68 213.32L277.32 213.32L277.32 213L276.68 213ZM276.68 202L276.68 213L277.32 213L277.32 202L276.68 202Z" fill="url(#paint64_linear_3754_55622)"/>
<path opacity="0.2" d="M284.32 198C284.32 197.823 284.177 197.68 284 197.68C283.823 197.68 283.68 197.823 283.68 198L284.32 198ZM283.68 213L283.68 213.32L284.32 213.32L284.32 213L283.68 213ZM283.68 198L283.68 213L284.32 213L284.32 198L283.68 198Z" fill="url(#paint65_linear_3754_55622)"/>
<path opacity="0.2" d="M291.32 198C291.32 197.823 291.177 197.68 291 197.68C290.823 197.68 290.68 197.823 290.68 198L291.32 198ZM290.68 213L290.68 213.32L291.32 213.32L291.32 213L290.68 213ZM290.68 198L290.68 213L291.32 213L291.32 198L290.68 198Z" fill="url(#paint66_linear_3754_55622)"/>
<path opacity="0.2" d="M298.32 186C298.32 185.823 298.177 185.68 298 185.68C297.823 185.68 297.68 185.823 297.68 186L298.32 186ZM297.68 213L297.68 213.32L298.32 213.32L298.32 213L297.68 213ZM297.68 186L297.68 213L298.32 213L298.32 186L297.68 186Z" fill="url(#paint67_linear_3754_55622)"/>
<path opacity="0.2" d="M306.32 181C306.32 180.823 306.177 180.68 306 180.68C305.823 180.68 305.68 180.823 305.68 181L306.32 181ZM305.68 213L305.68 213.32L306.32 213.32L306.32 213L305.68 213ZM305.68 181L305.68 213L306.32 213L306.32 181L305.68 181Z" fill="url(#paint68_linear_3754_55622)"/>
<path opacity="0.2" d="M312.32 176C312.32 175.823 312.177 175.68 312 175.68C311.823 175.68 311.68 175.823 311.68 176L312.32 176ZM311.68 213L311.68 213.32L312.32 213.32L312.32 213L311.68 213ZM311.68 176L311.68 213L312.32 213L312.32 176L311.68 176Z" fill="url(#paint69_linear_3754_55622)"/>
<path opacity="0.2" d="M320.32 159C320.32 158.823 320.177 158.68 320 158.68C319.823 158.68 319.68 158.823 319.68 159L320.32 159ZM319.68 213L319.68 213.32L320.32 213.32L320.32 213L319.68 213ZM319.68 159L319.68 213L320.32 213L320.32 159L319.68 159Z" fill="url(#paint70_linear_3754_55622)"/>
<path opacity="0.2" d="M274 21C274 20.4477 273.552 20 273 20C272.448 20 272 20.4477 272 21L274 21ZM272 212L272 213L274 213L274 212L272 212ZM272 21L272 212L274 212L274 21L272 21Z" fill="url(#paint71_linear_3754_55622)"/>
<path opacity="0.44" d="M1 224H321" stroke="#020007" stroke-width="26"/>
<defs>
<linearGradient id="paint0_linear_3754_55622" x1="2.16359" y1="11.0928" x2="2.16366" y2="212.249" gradientUnits="userSpaceOnUse">
<stop stop-color="#2286DE"/>
<stop offset="1" stop-color="#3AAF75"/>
</linearGradient>
<linearGradient id="paint1_linear_3754_55622" x1="15.1323" y1="28.9069" x2="15.1324" y2="212.246" gradientUnits="userSpaceOnUse">
<stop stop-color="#2286DE"/>
<stop offset="1" stop-color="#3AAF75"/>
</linearGradient>
<linearGradient id="paint2_linear_3754_55622" x1="28.1089" y1="46.1499" x2="28.109" y2="212.247" gradientUnits="userSpaceOnUse">
<stop stop-color="#2286DE"/>
<stop offset="1" stop-color="#3AAF75"/>
</linearGradient>
<linearGradient id="paint3_linear_3754_55622" x1="41.0835" y1="49.6017" x2="41.0836" y2="212.251" gradientUnits="userSpaceOnUse">
<stop stop-color="#2286DE"/>
<stop offset="1" stop-color="#3AAF75"/>
</linearGradient>
<linearGradient id="paint4_linear_3754_55622" x1="54.0523" y1="42.1271" x2="54.0523" y2="212.248" gradientUnits="userSpaceOnUse">
<stop stop-color="#2286DE"/>
<stop offset="1" stop-color="#3AAF75"/>
</linearGradient>
<linearGradient id="paint5_linear_3754_55622" x1="67.0269" y1="57.0703" x2="67.0269" y2="212.248" gradientUnits="userSpaceOnUse">
<stop stop-color="#2286DE"/>
<stop offset="1" stop-color="#3AAF75"/>
</linearGradient>
<linearGradient id="paint6_linear_3754_55622" x1="80.0015" y1="73.1615" x2="80.0015" y2="212.247" gradientUnits="userSpaceOnUse">
<stop stop-color="#2286DE"/>
<stop offset="1" stop-color="#3AAF75"/>
</linearGradient>
<linearGradient id="paint7_linear_3754_55622" x1="92.9702" y1="89.8276" x2="92.9703" y2="212.245" gradientUnits="userSpaceOnUse">
<stop stop-color="#2286DE"/>
<stop offset="1" stop-color="#3AAF75"/>
</linearGradient>
<linearGradient id="paint8_linear_3754_55622" x1="105.947" y1="104.771" x2="105.947" y2="212.246" gradientUnits="userSpaceOnUse">
<stop stop-color="#2286DE"/>
<stop offset="1" stop-color="#3AAF75"/>
</linearGradient>
<linearGradient id="paint9_linear_3754_55622" x1="118.921" y1="103.625" x2="118.921" y2="212.249" gradientUnits="userSpaceOnUse">
<stop stop-color="#2286DE"/>
<stop offset="1" stop-color="#3AAF75"/>
</linearGradient>
<linearGradient id="paint10_linear_3754_55622" x1="131.89" y1="101.325" x2="131.89" y2="212.248" gradientUnits="userSpaceOnUse">
<stop stop-color="#2286DE"/>
<stop offset="1" stop-color="#3AAF75"/>
</linearGradient>
<linearGradient id="paint11_linear_3754_55622" x1="144.865" y1="109.371" x2="144.865" y2="212.247" gradientUnits="userSpaceOnUse">
<stop stop-color="#2286DE"/>
<stop offset="1" stop-color="#3AAF75"/>
</linearGradient>
<linearGradient id="paint12_linear_3754_55622" x1="157.839" y1="58.7933" x2="157.839" y2="212.247" gradientUnits="userSpaceOnUse">
<stop stop-color="#2286DE"/>
<stop offset="1" stop-color="#3AAF75"/>
</linearGradient>
<linearGradient id="paint13_linear_3754_55622" x1="170.81" y1="77.1843" x2="170.81" y2="212.246" gradientUnits="userSpaceOnUse">
<stop stop-color="#2286DE"/>
<stop offset="1" stop-color="#3AAF75"/>
</linearGradient>
<linearGradient id="paint14_linear_3754_55622" x1="183.785" y1="94.4274" x2="183.785" y2="212.247" gradientUnits="userSpaceOnUse">
<stop stop-color="#2286DE"/>
<stop offset="1" stop-color="#3AAF75"/>
</linearGradient>
<linearGradient id="paint15_linear_3754_55622" x1="196.759" y1="94.4274" x2="196.759" y2="212.247" gradientUnits="userSpaceOnUse">
<stop stop-color="#2286DE"/>
<stop offset="1" stop-color="#3AAF75"/>
</linearGradient>
<linearGradient id="paint16_linear_3754_55622" x1="209.728" y1="66.8389" x2="209.728" y2="212.246" gradientUnits="userSpaceOnUse">
<stop stop-color="#2286DE"/>
<stop offset="1" stop-color="#3AAF75"/>
</linearGradient>
<linearGradient id="paint17_linear_3754_55622" x1="222.703" y1="39.8273" x2="222.703" y2="212.247" gradientUnits="userSpaceOnUse">
<stop stop-color="#2286DE"/>
<stop offset="1" stop-color="#3AAF75"/>
</linearGradient>
<linearGradient id="paint18_linear_3754_55622" x1="235.677" y1="32.3586" x2="235.677" y2="212.25" gradientUnits="userSpaceOnUse">
<stop stop-color="#2286DE"/>
<stop offset="1" stop-color="#3AAF75"/>
</linearGradient>
<linearGradient id="paint19_linear_3754_55622" x1="248.648" y1="42.7041" x2="248.648" y2="212.25" gradientUnits="userSpaceOnUse">
<stop stop-color="#2286DE"/>
<stop offset="1" stop-color="#3AAF75"/>
</linearGradient>
<linearGradient id="paint20_linear_3754_55622" x1="261.623" y1="53.6245" x2="261.623" y2="212.25" gradientUnits="userSpaceOnUse">
<stop stop-color="#2286DE"/>
<stop offset="1" stop-color="#3AAF75"/>
</linearGradient>
<linearGradient id="paint21_linear_3754_55622" x1="274.597" y1="45.002" x2="274.597" y2="212.249" gradientUnits="userSpaceOnUse">
<stop stop-color="#2286DE"/>
<stop offset="1" stop-color="#3AAF75"/>
</linearGradient>
<linearGradient id="paint22_linear_3754_55622" x1="287.566" y1="26.036" x2="287.566" y2="212.249" gradientUnits="userSpaceOnUse">
<stop stop-color="#2286DE"/>
<stop offset="1" stop-color="#3AAF75"/>
</linearGradient>
<linearGradient id="paint23_linear_3754_55622" x1="9.10569" y1="55.8049" x2="320" y2="55.8049" gradientUnits="userSpaceOnUse">
<stop stop-color="#2286DE"/>
<stop offset="1" stop-color="#3AAF75"/>
</linearGradient>
<linearGradient id="paint24_linear_3754_55622" x1="9.10569" y1="110.098" x2="320" y2="110.098" gradientUnits="userSpaceOnUse">
<stop stop-color="#2286DE"/>
<stop offset="1" stop-color="#3AAF75"/>
</linearGradient>
<linearGradient id="paint25_linear_3754_55622" x1="9.10569" y1="110.098" x2="320" y2="110.098" gradientUnits="userSpaceOnUse">
<stop stop-color="#2286DE"/>
<stop offset="1" stop-color="#3AAF75"/>
</linearGradient>
<linearGradient id="paint26_linear_3754_55622" x1="2.4878" y1="203.285" x2="2.48781" y2="213" gradientUnits="userSpaceOnUse">
<stop stop-color="#2286DE"/>
<stop offset="1" stop-color="#3AAF75"/>
</linearGradient>
<linearGradient id="paint27_linear_3754_55622" x1="10.4878" y1="203.285" x2="10.4878" y2="213" gradientUnits="userSpaceOnUse">
<stop stop-color="#2286DE"/>
<stop offset="1" stop-color="#3AAF75"/>
</linearGradient>
<linearGradient id="paint28_linear_3754_55622" x1="18.4878" y1="195.512" x2="18.4878" y2="213" gradientUnits="userSpaceOnUse">
<stop stop-color="#2286DE"/>
<stop offset="1" stop-color="#3AAF75"/>
</linearGradient>
<linearGradient id="paint29_linear_3754_55622" x1="24.4878" y1="178.024" x2="24.4878" y2="213" gradientUnits="userSpaceOnUse">
<stop stop-color="#2286DE"/>
<stop offset="1" stop-color="#3AAF75"/>
</linearGradient>
<linearGradient id="paint30_linear_3754_55622" x1="32.4878" y1="186.768" x2="32.4878" y2="213" gradientUnits="userSpaceOnUse">
<stop stop-color="#2286DE"/>
<stop offset="1" stop-color="#3AAF75"/>
</linearGradient>
<linearGradient id="paint31_linear_3754_55622" x1="40.4878" y1="160.537" x2="40.4878" y2="213" gradientUnits="userSpaceOnUse">
<stop stop-color="#2286DE"/>
<stop offset="1" stop-color="#3AAF75"/>
</linearGradient>
<linearGradient id="paint32_linear_3754_55622" x1="48.4878" y1="195.512" x2="48.4878" y2="213" gradientUnits="userSpaceOnUse">
<stop stop-color="#2286DE"/>
<stop offset="1" stop-color="#3AAF75"/>
</linearGradient>
<linearGradient id="paint33_linear_3754_55622" x1="54.4878" y1="175.11" x2="54.4878" y2="213" gradientUnits="userSpaceOnUse">
<stop stop-color="#2286DE"/>
<stop offset="1" stop-color="#3AAF75"/>
</linearGradient>
<linearGradient id="paint34_linear_3754_55622" x1="62.4878" y1="160.537" x2="62.4878" y2="213" gradientUnits="userSpaceOnUse">
<stop stop-color="#2286DE"/>
<stop offset="1" stop-color="#3AAF75"/>
</linearGradient>
<linearGradient id="paint35_linear_3754_55622" x1="68.4878" y1="178.024" x2="68.4878" y2="213" gradientUnits="userSpaceOnUse">
<stop stop-color="#2286DE"/>
<stop offset="1" stop-color="#3AAF75"/>
</linearGradient>
<linearGradient id="paint36_linear_3754_55622" x1="76.4878" y1="195.512" x2="76.4878" y2="213" gradientUnits="userSpaceOnUse">
<stop stop-color="#2286DE"/>
<stop offset="1" stop-color="#3AAF75"/>
</linearGradient>
<linearGradient id="paint37_linear_3754_55622" x1="83.4878" y1="204.256" x2="83.4878" y2="213" gradientUnits="userSpaceOnUse">
<stop stop-color="#2286DE"/>
<stop offset="1" stop-color="#3AAF75"/>
</linearGradient>
<linearGradient id="paint38_linear_3754_55622" x1="90.4878" y1="180.939" x2="90.4878" y2="213" gradientUnits="userSpaceOnUse">
<stop stop-color="#2286DE"/>
<stop offset="1" stop-color="#3AAF75"/>
</linearGradient>
<linearGradient id="paint39_linear_3754_55622" x1="97.4878" y1="168.309" x2="97.4878" y2="213" gradientUnits="userSpaceOnUse">
<stop stop-color="#2286DE"/>
<stop offset="1" stop-color="#3AAF75"/>
</linearGradient>
<linearGradient id="paint40_linear_3754_55622" x1="105.488" y1="190.654" x2="105.488" y2="213" gradientUnits="userSpaceOnUse">
<stop stop-color="#2286DE"/>
<stop offset="1" stop-color="#3AAF75"/>
</linearGradient>
<linearGradient id="paint41_linear_3754_55622" x1="111.488" y1="190.654" x2="111.488" y2="213" gradientUnits="userSpaceOnUse">
<stop stop-color="#2286DE"/>
<stop offset="1" stop-color="#3AAF75"/>
</linearGradient>
<linearGradient id="paint42_linear_3754_55622" x1="119.488" y1="180.939" x2="119.488" y2="213" gradientUnits="userSpaceOnUse">
<stop stop-color="#2286DE"/>
<stop offset="1" stop-color="#3AAF75"/>
</linearGradient>
<linearGradient id="paint43_linear_3754_55622" x1="126.488" y1="197.455" x2="126.488" y2="213" gradientUnits="userSpaceOnUse">
<stop stop-color="#2286DE"/>
<stop offset="1" stop-color="#3AAF75"/>
</linearGradient>
<linearGradient id="paint44_linear_3754_55622" x1="133.488" y1="186.768" x2="133.488" y2="213" gradientUnits="userSpaceOnUse">
<stop stop-color="#2286DE"/>
<stop offset="1" stop-color="#3AAF75"/>
</linearGradient>
<linearGradient id="paint45_linear_3754_55622" x1="140.488" y1="172.195" x2="140.488" y2="213" gradientUnits="userSpaceOnUse">
<stop stop-color="#2286DE"/>
<stop offset="1" stop-color="#3AAF75"/>
</linearGradient>
<linearGradient id="paint46_linear_3754_55622" x1="148.488" y1="160.537" x2="148.488" y2="213" gradientUnits="userSpaceOnUse">
<stop stop-color="#2286DE"/>
<stop offset="1" stop-color="#3AAF75"/>
</linearGradient>
<linearGradient id="paint47_linear_3754_55622" x1="154.488" y1="169.28" x2="154.488" y2="213" gradientUnits="userSpaceOnUse">
<stop stop-color="#2286DE"/>
<stop offset="1" stop-color="#3AAF75"/>
</linearGradient>
<linearGradient id="paint48_linear_3754_55622" x1="162.488" y1="178.024" x2="162.488" y2="213" gradientUnits="userSpaceOnUse">
<stop stop-color="#2286DE"/>
<stop offset="1" stop-color="#3AAF75"/>
</linearGradient>
<linearGradient id="paint49_linear_3754_55622" x1="168.488" y1="186.768" x2="168.488" y2="213" gradientUnits="userSpaceOnUse">
<stop stop-color="#2286DE"/>
<stop offset="1" stop-color="#3AAF75"/>
</linearGradient>
<linearGradient id="paint50_linear_3754_55622" x1="176.488" y1="197.455" x2="176.488" y2="213" gradientUnits="userSpaceOnUse">
<stop stop-color="#2286DE"/>
<stop offset="1" stop-color="#3AAF75"/>
</linearGradient>
<linearGradient id="paint51_linear_3754_55622" x1="183.488" y1="206.199" x2="183.488" y2="213" gradientUnits="userSpaceOnUse">
<stop stop-color="#2286DE"/>
<stop offset="1" stop-color="#3AAF75"/>
</linearGradient>
<linearGradient id="paint52_linear_3754_55622" x1="190.488" y1="160.537" x2="190.488" y2="213" gradientUnits="userSpaceOnUse">
<stop stop-color="#2286DE"/>
<stop offset="1" stop-color="#3AAF75"/>
</linearGradient>
<linearGradient id="paint53_linear_3754_55622" x1="197.488" y1="181.911" x2="197.488" y2="213" gradientUnits="userSpaceOnUse">
<stop stop-color="#2286DE"/>
<stop offset="1" stop-color="#3AAF75"/>
</linearGradient>
<linearGradient id="paint54_linear_3754_55622" x1="205.488" y1="191.626" x2="205.488" y2="213" gradientUnits="userSpaceOnUse">
<stop stop-color="#2286DE"/>
<stop offset="1" stop-color="#3AAF75"/>
</linearGradient>
<linearGradient id="paint55_linear_3754_55622" x1="211.488" y1="181.911" x2="211.488" y2="213" gradientUnits="userSpaceOnUse">
<stop stop-color="#2286DE"/>
<stop offset="1" stop-color="#3AAF75"/>
</linearGradient>
<linearGradient id="paint56_linear_3754_55622" x1="219.488" y1="160.537" x2="219.488" y2="213" gradientUnits="userSpaceOnUse">
<stop stop-color="#2286DE"/>
<stop offset="1" stop-color="#3AAF75"/>
</linearGradient>
<linearGradient id="paint57_linear_3754_55622" x1="226.488" y1="177.053" x2="226.488" y2="213" gradientUnits="userSpaceOnUse">
<stop stop-color="#2286DE"/>
<stop offset="1" stop-color="#3AAF75"/>
</linearGradient>
<linearGradient id="paint58_linear_3754_55622" x1="233.488" y1="186.768" x2="233.488" y2="213" gradientUnits="userSpaceOnUse">
<stop stop-color="#2286DE"/>
<stop offset="1" stop-color="#3AAF75"/>
</linearGradient>
<linearGradient id="paint59_linear_3754_55622" x1="240.488" y1="186.768" x2="240.488" y2="213" gradientUnits="userSpaceOnUse">
<stop stop-color="#2286DE"/>
<stop offset="1" stop-color="#3AAF75"/>
</linearGradient>
<linearGradient id="paint60_linear_3754_55622" x1="248.488" y1="177.053" x2="248.488" y2="213" gradientUnits="userSpaceOnUse">
<stop stop-color="#2286DE"/>
<stop offset="1" stop-color="#3AAF75"/>
</linearGradient>
<linearGradient id="paint61_linear_3754_55622" x1="254.488" y1="202.313" x2="254.488" y2="213" gradientUnits="userSpaceOnUse">
<stop stop-color="#2286DE"/>
<stop offset="1" stop-color="#3AAF75"/>
</linearGradient>
<linearGradient id="paint62_linear_3754_55622" x1="262.488" y1="198.427" x2="262.488" y2="213" gradientUnits="userSpaceOnUse">
<stop stop-color="#2286DE"/>
<stop offset="1" stop-color="#3AAF75"/>
</linearGradient>
<linearGradient id="paint63_linear_3754_55622" x1="268.488" y1="208.142" x2="268.488" y2="213" gradientUnits="userSpaceOnUse">
<stop stop-color="#2286DE"/>
<stop offset="1" stop-color="#3AAF75"/>
</linearGradient>
<linearGradient id="paint64_linear_3754_55622" x1="276.488" y1="202.313" x2="276.488" y2="213" gradientUnits="userSpaceOnUse">
<stop stop-color="#2286DE"/>
<stop offset="1" stop-color="#3AAF75"/>
</linearGradient>
<linearGradient id="paint65_linear_3754_55622" x1="283.488" y1="198.427" x2="283.488" y2="213" gradientUnits="userSpaceOnUse">
<stop stop-color="#2286DE"/>
<stop offset="1" stop-color="#3AAF75"/>
</linearGradient>
<linearGradient id="paint66_linear_3754_55622" x1="290.488" y1="198.427" x2="290.488" y2="213" gradientUnits="userSpaceOnUse">
<stop stop-color="#2286DE"/>
<stop offset="1" stop-color="#3AAF75"/>
</linearGradient>
<linearGradient id="paint67_linear_3754_55622" x1="297.488" y1="186.768" x2="297.488" y2="213" gradientUnits="userSpaceOnUse">
<stop stop-color="#2286DE"/>
<stop offset="1" stop-color="#3AAF75"/>
</linearGradient>
<linearGradient id="paint68_linear_3754_55622" x1="305.488" y1="181.911" x2="305.488" y2="213" gradientUnits="userSpaceOnUse">
<stop stop-color="#2286DE"/>
<stop offset="1" stop-color="#3AAF75"/>
</linearGradient>
<linearGradient id="paint69_linear_3754_55622" x1="311.488" y1="177.053" x2="311.488" y2="213" gradientUnits="userSpaceOnUse">
<stop stop-color="#2286DE"/>
<stop offset="1" stop-color="#3AAF75"/>
</linearGradient>
<linearGradient id="paint70_linear_3754_55622" x1="319.488" y1="160.537" x2="319.488" y2="213" gradientUnits="userSpaceOnUse">
<stop stop-color="#2286DE"/>
<stop offset="1" stop-color="#3AAF75"/>
</linearGradient>
<linearGradient id="paint71_linear_3754_55622" x1="272.488" y1="26.435" x2="272.488" y2="212" gradientUnits="userSpaceOnUse">
<stop stop-color="#2286DE"/>
<stop offset="1" stop-color="#3AAF75"/>
</linearGradient>
</defs>
</svg>
