<svg width="405" height="681" viewBox="0 0 405 681" fill="none" xmlns="http://www.w3.org/2000/svg">
<rect x="1" width="404" height="680" rx="7.19211" fill="#232323"/>
<path opacity="0.03" d="M53.3704 436.515C41.2866 417.571 29.6293 391.122 18.4568 385.17L1 379.701V673.039L1.99753 675.028L2.99506 676.023L3.99259 677.514L5.48889 678.508L7.98272 679.503L10.9753 680H398.017L403.005 677.017L405 672.542V380.199V327L388.042 360.311L377.568 339.43L326.694 412.515L312.23 393.125L284.299 436.515L246.891 405.412L209.862 483.508L174.57 436.515L163.099 491.317L145.143 476.506L128.684 490.823L68.8321 416.767L53.3704 436.515Z" fill="url(#paint0_linear_4188_52111)"/>
<path opacity="0.1" d="M2 377.279L19.3272 382.704C30.4167 388.608 41.9874 414.845 53.9815 433.638L69.3284 414.048L128.736 487.51L145.073 473.307L162.895 488L174.281 433.638L209.311 480.253L246.065 402.783L283.195 433.638L310.919 390.595L325.275 409.83L375.772 337.33L386.168 358.044L403 325" stroke="url(#paint1_linear_4188_52111)" stroke-width="3.59606" stroke-linecap="round" stroke-linejoin="round"/>
<g opacity="0.07">
<line x1="8.73218" y1="680" x2="8.73221" y2="-1.15898e-08" stroke="url(#paint2_linear_4188_52111)" stroke-width="0.535649"/>
<line x1="25.7322" y1="680" x2="25.7322" y2="-1.15898e-08" stroke="url(#paint3_linear_4188_52111)" stroke-width="0.535649"/>
<line x1="42.7322" y1="680" x2="42.7322" y2="-1.15898e-08" stroke="url(#paint4_linear_4188_52111)" stroke-width="0.535649"/>
<line x1="59.7322" y1="680" x2="59.7322" y2="-1.15898e-08" stroke="url(#paint5_linear_4188_52111)" stroke-width="0.535649"/>
<line x1="76.7322" y1="680" x2="76.7322" y2="-1.15898e-08" stroke="url(#paint6_linear_4188_52111)" stroke-width="0.535649"/>
<line x1="93.7322" y1="680" x2="93.7322" y2="-1.15898e-08" stroke="url(#paint7_linear_4188_52111)" stroke-width="0.535649"/>
<line x1="110.732" y1="680" x2="110.732" y2="-1.15898e-08" stroke="url(#paint8_linear_4188_52111)" stroke-width="0.535649"/>
<line x1="127.732" y1="680" x2="127.732" y2="-1.15898e-08" stroke="url(#paint9_linear_4188_52111)" stroke-width="0.535649"/>
<line x1="144.732" y1="680" x2="144.732" y2="-1.15898e-08" stroke="url(#paint10_linear_4188_52111)" stroke-width="0.535649"/>
<line x1="161.732" y1="680" x2="161.732" y2="-1.15898e-08" stroke="url(#paint11_linear_4188_52111)" stroke-width="0.535649"/>
<line x1="178.732" y1="680" x2="178.732" y2="-1.15898e-08" stroke="url(#paint12_linear_4188_52111)" stroke-width="0.535649"/>
<line x1="195.732" y1="680" x2="195.732" y2="-1.15898e-08" stroke="url(#paint13_linear_4188_52111)" stroke-width="0.535649"/>
<line x1="212.732" y1="680" x2="212.732" y2="-1.15898e-08" stroke="url(#paint14_linear_4188_52111)" stroke-width="0.535649"/>
<line x1="229.732" y1="680" x2="229.732" y2="-1.15898e-08" stroke="url(#paint15_linear_4188_52111)" stroke-width="0.535649"/>
<line x1="246.732" y1="680" x2="246.732" y2="-1.15898e-08" stroke="url(#paint16_linear_4188_52111)" stroke-width="0.535649"/>
<line x1="263.732" y1="680" x2="263.732" y2="-1.15898e-08" stroke="url(#paint17_linear_4188_52111)" stroke-width="0.535649"/>
<line x1="280.732" y1="680" x2="280.732" y2="-1.15898e-08" stroke="url(#paint18_linear_4188_52111)" stroke-width="0.535649"/>
<line x1="297.732" y1="680" x2="297.732" y2="-1.15898e-08" stroke="url(#paint19_linear_4188_52111)" stroke-width="0.535649"/>
<line x1="314.732" y1="680" x2="314.732" y2="-1.15898e-08" stroke="url(#paint20_linear_4188_52111)" stroke-width="0.535649"/>
<line x1="331.732" y1="680" x2="331.732" y2="-1.15898e-08" stroke="url(#paint21_linear_4188_52111)" stroke-width="0.535649"/>
<line x1="348.732" y1="680" x2="348.732" y2="-1.15898e-08" stroke="url(#paint22_linear_4188_52111)" stroke-width="0.535649"/>
<line x1="365.732" y1="680" x2="365.732" y2="-1.15898e-08" stroke="url(#paint23_linear_4188_52111)" stroke-width="0.535649"/>
<line x1="382.732" y1="680" x2="382.732" y2="-1.15898e-08" stroke="url(#paint24_linear_4188_52111)" stroke-width="0.535649"/>
<line x1="399.732" y1="680" x2="399.732" y2="-1.15898e-08" stroke="url(#paint25_linear_4188_52111)" stroke-width="0.535649"/>
<line x1="2" y1="20.7322" x2="405" y2="20.7321" stroke="url(#paint26_linear_4188_52111)" stroke-width="0.535649"/>
<line x1="2" y1="42.7322" x2="405" y2="42.7321" stroke="url(#paint27_linear_4188_52111)" stroke-width="0.535649"/>
<line x1="2" y1="64.7322" x2="405" y2="64.7321" stroke="url(#paint28_linear_4188_52111)" stroke-width="0.535649"/>
<line x1="2" y1="86.7322" x2="405" y2="86.7321" stroke="url(#paint29_linear_4188_52111)" stroke-width="0.535649"/>
<line x1="2" y1="108.732" x2="405" y2="108.732" stroke="url(#paint30_linear_4188_52111)" stroke-width="0.535649"/>
<line x1="2" y1="130.732" x2="405" y2="130.732" stroke="url(#paint31_linear_4188_52111)" stroke-width="0.535649"/>
<line x1="2" y1="152.732" x2="405" y2="152.732" stroke="url(#paint32_linear_4188_52111)" stroke-width="0.535649"/>
<line x1="2" y1="174.732" x2="405" y2="174.732" stroke="url(#paint33_linear_4188_52111)" stroke-width="0.535649"/>
<line x1="2" y1="196.732" x2="405" y2="196.732" stroke="url(#paint34_linear_4188_52111)" stroke-width="0.535649"/>
<line x1="2" y1="218.732" x2="405" y2="218.732" stroke="url(#paint35_linear_4188_52111)" stroke-width="0.535649"/>
<line x1="2" y1="240.732" x2="405" y2="240.732" stroke="url(#paint36_linear_4188_52111)" stroke-width="0.535649"/>
<line x1="2" y1="262.732" x2="405" y2="262.732" stroke="url(#paint37_linear_4188_52111)" stroke-width="0.535649"/>
<line x1="2" y1="284.732" x2="405" y2="284.732" stroke="url(#paint38_linear_4188_52111)" stroke-width="0.535649"/>
<line x1="2" y1="306.732" x2="405" y2="306.732" stroke="url(#paint39_linear_4188_52111)" stroke-width="0.535649"/>
<line x1="2" y1="328.732" x2="405" y2="328.732" stroke="url(#paint40_linear_4188_52111)" stroke-width="0.535649"/>
<line x1="2" y1="350.732" x2="405" y2="350.732" stroke="url(#paint41_linear_4188_52111)" stroke-width="0.535649"/>
<line x1="2" y1="372.732" x2="405" y2="372.732" stroke="url(#paint42_linear_4188_52111)" stroke-width="0.535649"/>
<line x1="2" y1="394.732" x2="405" y2="394.732" stroke="url(#paint43_linear_4188_52111)" stroke-width="0.535649"/>
<line x1="2" y1="416.732" x2="405" y2="416.732" stroke="url(#paint44_linear_4188_52111)" stroke-width="0.535649"/>
<line x1="2" y1="438.732" x2="405" y2="438.732" stroke="url(#paint45_linear_4188_52111)" stroke-width="0.535649"/>
<line x1="2" y1="460.732" x2="405" y2="460.732" stroke="url(#paint46_linear_4188_52111)" stroke-width="0.535649"/>
<line x1="2" y1="482.732" x2="405" y2="482.732" stroke="url(#paint47_linear_4188_52111)" stroke-width="0.535649"/>
<path d="M2 504.732L405 504.732" stroke="url(#paint48_linear_4188_52111)" stroke-width="0.535649"/>
<line x1="2" y1="526.732" x2="405" y2="526.732" stroke="url(#paint49_linear_4188_52111)" stroke-width="0.535649"/>
<line x1="2" y1="548.732" x2="405" y2="548.732" stroke="url(#paint50_linear_4188_52111)" stroke-width="0.535649"/>
<line x1="2" y1="570.732" x2="405" y2="570.732" stroke="url(#paint51_linear_4188_52111)" stroke-width="0.535649"/>
<line x1="2" y1="592.732" x2="405" y2="592.732" stroke="url(#paint52_linear_4188_52111)" stroke-width="0.535649"/>
<line x1="2" y1="614.732" x2="405" y2="614.732" stroke="url(#paint53_linear_4188_52111)" stroke-width="0.535649"/>
<line x1="2" y1="636.732" x2="405" y2="636.732" stroke="url(#paint54_linear_4188_52111)" stroke-width="0.535649"/>
<line x1="2" y1="658.732" x2="405" y2="658.732" stroke="url(#paint55_linear_4188_52111)" stroke-width="0.535649"/>
</g>
<g opacity="0.3">
<path d="M17.3198 670C17.3198 669.823 17.1766 669.68 17 669.68C16.8234 669.68 16.6802 669.823 16.6802 670L17.3198 670ZM16.6802 680L16.6802 680.32L17.3198 680.32L17.3198 680L16.6802 680ZM16.6802 670L16.6802 680L17.3198 680L17.3198 670L16.6802 670Z" fill="url(#paint56_linear_4188_52111)"/>
<path d="M24.3198 661C24.3198 660.823 24.1766 660.68 24 660.68C23.8234 660.68 23.6802 660.823 23.6802 661L24.3198 661ZM23.6802 680L23.6802 680.32L24.3198 680.32L24.3198 680L23.6802 680ZM23.6802 661L23.6802 680L24.3198 680L24.3198 661L23.6802 661Z" fill="url(#paint57_linear_4188_52111)"/>
<path d="M31.3198 653C31.3198 652.823 31.1766 652.68 31 652.68C30.8234 652.68 30.6802 652.823 30.6802 653L31.3198 653ZM30.6802 680L30.6802 680.32L31.3198 680.32L31.3198 680L30.6802 680ZM30.6802 653L30.6802 680L31.3198 680L31.3198 653L30.6802 653Z" fill="url(#paint58_linear_4188_52111)"/>
<path d="M38.3198 667C38.3198 666.823 38.1766 666.68 38 666.68C37.8234 666.68 37.6802 666.823 37.6802 667L38.3198 667ZM37.6802 680L37.6802 680.32L38.3198 680.32L38.3198 680L37.6802 680ZM37.6802 667L37.6802 680L38.3198 680L38.3198 667L37.6802 667Z" fill="url(#paint59_linear_4188_52111)"/>
<path d="M45.3198 670C45.3198 669.823 45.1766 669.68 45 669.68C44.8234 669.68 44.6802 669.823 44.6802 670L45.3198 670ZM44.6802 680L44.6802 680.32L45.3198 680.32L45.3198 680L44.6802 680ZM44.6802 670L44.6802 680L45.3198 680L45.3198 670L44.6802 670Z" fill="url(#paint60_linear_4188_52111)"/>
<path d="M52.3198 662C52.3198 661.823 52.1766 661.68 52 661.68C51.8234 661.68 51.6802 661.823 51.6802 662L52.3198 662ZM51.6802 680L51.6802 680.32L52.3198 680.32L52.3198 680L51.6802 680ZM51.6802 662L51.6802 680L52.3198 680L52.3198 662L51.6802 662Z" fill="url(#paint61_linear_4188_52111)"/>
<path d="M59.3198 644C59.3198 643.823 59.1766 643.68 59 643.68C58.8234 643.68 58.6802 643.823 58.6802 644L59.3198 644ZM58.6802 680L58.6802 680.32L59.3198 680.32L59.3198 680L58.6802 680ZM58.6802 644L58.6802 680L59.3198 680L59.3198 644L58.6802 644Z" fill="url(#paint62_linear_4188_52111)"/>
<path d="M66.3198 653C66.3198 652.823 66.1766 652.68 66 652.68C65.8234 652.68 65.6802 652.823 65.6802 653L66.3198 653ZM65.6802 680L65.6802 680.32L66.3198 680.32L66.3198 680L65.6802 680ZM65.6802 653L65.6802 680L66.3198 680L66.3198 653L65.6802 653Z" fill="url(#paint63_linear_4188_52111)"/>
<path d="M73.3198 653C73.3198 652.823 73.1766 652.68 73 652.68C72.8234 652.68 72.6802 652.823 72.6802 653L73.3198 653ZM72.6802 680L72.6802 680.32L73.3198 680.32L73.3198 680L72.6802 680ZM72.6802 653L72.6802 680L73.3198 680L73.3198 653L72.6802 653Z" fill="url(#paint64_linear_4188_52111)"/>
<path d="M80.3198 626C80.3198 625.823 80.1766 625.68 80 625.68C79.8234 625.68 79.6802 625.823 79.6802 626L80.3198 626ZM79.6802 680L79.6802 680.32L80.3198 680.32L80.3198 680L79.6802 680ZM79.6802 626L79.6802 680L80.3198 680L80.3198 626L79.6802 626Z" fill="url(#paint65_linear_4188_52111)"/>
<path d="M87.3198 662C87.3198 661.823 87.1766 661.68 87 661.68C86.8234 661.68 86.6802 661.823 86.6802 662L87.3198 662ZM86.6802 680L86.6802 680.32L87.3198 680.32L87.3198 680L86.6802 680ZM86.6802 662L86.6802 680L87.3198 680L87.3198 662L86.6802 662Z" fill="url(#paint66_linear_4188_52111)"/>
<path d="M94.3198 662C94.3198 661.823 94.1766 661.68 94 661.68C93.8234 661.68 93.6802 661.823 93.6802 662L94.3198 662ZM93.6802 680L93.6802 680.32L94.3198 680.32L94.3198 680L93.6802 680ZM93.6802 662L93.6802 680L94.3198 680L94.3198 662L93.6802 662Z" fill="url(#paint67_linear_4188_52111)"/>
<path d="M101.32 653C101.32 652.823 101.177 652.68 101 652.68C100.823 652.68 100.68 652.823 100.68 653L101.32 653ZM100.68 680L100.68 680.32L101.32 680.32L101.32 680L100.68 680ZM100.68 653L100.68 680L101.32 680L101.32 653L100.68 653Z" fill="url(#paint68_linear_4188_52111)"/>
<path d="M108.32 644C108.32 643.823 108.177 643.68 108 643.68C107.823 643.68 107.68 643.823 107.68 644L108.32 644ZM107.68 680L107.68 680.32L108.32 680.32L108.32 680L107.68 680ZM107.68 644L107.68 680L108.32 680L108.32 644L107.68 644Z" fill="url(#paint69_linear_4188_52111)"/>
<path d="M115.32 662C115.32 661.823 115.177 661.68 115 661.68C114.823 661.68 114.68 661.823 114.68 662L115.32 662ZM114.68 680L114.68 680.32L115.32 680.32L115.32 680L114.68 680ZM114.68 662L114.68 680L115.32 680L115.32 662L114.68 662Z" fill="url(#paint70_linear_4188_52111)"/>
<path d="M122.32 671C122.32 670.823 122.177 670.68 122 670.68C121.823 670.68 121.68 670.823 121.68 671L122.32 671ZM121.68 680L121.68 680.32L122.32 680.32L122.32 680L121.68 680ZM121.68 671L121.68 680L122.32 680L122.32 671L121.68 671Z" fill="url(#paint71_linear_4188_52111)"/>
<path d="M129.32 671C129.32 670.823 129.177 670.68 129 670.68C128.823 670.68 128.68 670.823 128.68 671L129.32 671ZM128.68 680L128.68 680.32L129.32 680.32L129.32 680L128.68 680ZM128.68 671L128.68 680L129.32 680L129.32 671L128.68 671Z" fill="url(#paint72_linear_4188_52111)"/>
<path d="M136.32 647C136.32 646.823 136.177 646.68 136 646.68C135.823 646.68 135.68 646.823 135.68 647L136.32 647ZM135.68 680L135.68 680.32L136.32 680.32L136.32 680L135.68 680ZM135.68 647L135.68 680L136.32 680L136.32 647L135.68 647Z" fill="url(#paint73_linear_4188_52111)"/>
<path d="M143.32 634C143.32 633.823 143.177 633.68 143 633.68C142.823 633.68 142.68 633.823 142.68 634L143.32 634ZM142.68 680L142.68 680.32L143.32 680.32L143.32 680L142.68 680ZM142.68 634L142.68 680L143.32 680L143.32 634L142.68 634Z" fill="url(#paint74_linear_4188_52111)"/>
<path d="M150.32 657C150.32 656.823 150.177 656.68 150 656.68C149.823 656.68 149.68 656.823 149.68 657L150.32 657ZM149.68 680L149.68 680.32L150.32 680.32L150.32 680L149.68 680ZM149.68 657L149.68 680L150.32 680L150.32 657L149.68 657Z" fill="url(#paint75_linear_4188_52111)"/>
<path d="M157.32 657C157.32 656.823 157.177 656.68 157 656.68C156.823 656.68 156.68 656.823 156.68 657L157.32 657ZM156.68 680L156.68 680.32L157.32 680.32L157.32 680L156.68 680ZM156.68 657L156.68 680L157.32 680L157.32 657L156.68 657Z" fill="url(#paint76_linear_4188_52111)"/>
<path d="M164.32 647C164.32 646.823 164.177 646.68 164 646.68C163.823 646.68 163.68 646.823 163.68 647L164.32 647ZM163.68 680L163.68 680.32L164.32 680.32L164.32 680L163.68 680ZM163.68 647L163.68 680L164.32 680L164.32 647L163.68 647Z" fill="url(#paint77_linear_4188_52111)"/>
<path d="M171.32 664C171.32 663.823 171.177 663.68 171 663.68C170.823 663.68 170.68 663.823 170.68 664L171.32 664ZM170.68 680L170.68 680.32L171.32 680.32L171.32 680L170.68 680ZM170.68 664L170.68 680L171.32 680L171.32 664L170.68 664Z" fill="url(#paint78_linear_4188_52111)"/>
<path d="M178.32 653C178.32 652.823 178.177 652.68 178 652.68C177.823 652.68 177.68 652.823 177.68 653L178.32 653ZM177.68 680L177.68 680.32L178.32 680.32L178.32 680L177.68 680ZM177.68 653L177.68 680L178.32 680L178.32 653L177.68 653Z" fill="url(#paint79_linear_4188_52111)"/>
<path d="M185.32 638C185.32 637.823 185.177 637.68 185 637.68C184.823 637.68 184.68 637.823 184.68 638L185.32 638ZM184.68 680L184.68 680.32L185.32 680.32L185.32 680L184.68 680ZM184.68 638L184.68 680L185.32 680L185.32 638L184.68 638Z" fill="url(#paint80_linear_4188_52111)"/>
<path d="M192.32 626C192.32 625.823 192.177 625.68 192 625.68C191.823 625.68 191.68 625.823 191.68 626L192.32 626ZM191.68 680L191.68 680.32L192.32 680.32L192.32 680L191.68 680ZM191.68 626L191.68 680L192.32 680L192.32 626L191.68 626Z" fill="url(#paint81_linear_4188_52111)"/>
<path d="M199.32 648C199.32 647.823 199.177 647.68 199 647.68C198.823 647.68 198.68 647.823 198.68 648L199.32 648ZM198.68 680L198.68 680.32L199.32 680.32L199.32 680L198.68 680ZM198.68 648L198.68 680L199.32 680L199.32 648L198.68 648Z" fill="url(#paint82_linear_4188_52111)"/>
<path d="M206.32 635C206.32 634.823 206.177 634.68 206 634.68C205.823 634.68 205.68 634.823 205.68 635L206.32 635ZM205.68 680L205.68 680.32L206.32 680.32L206.32 680L205.68 680ZM205.68 635L205.68 680L206.32 680L206.32 635L205.68 635Z" fill="url(#paint83_linear_4188_52111)"/>
<path d="M213.32 644C213.32 643.823 213.177 643.68 213 643.68C212.823 643.68 212.68 643.823 212.68 644L213.32 644ZM212.68 680L212.68 680.32L213.32 680.32L213.32 680L212.68 680ZM212.68 644L212.68 680L213.32 680L213.32 644L212.68 644Z" fill="url(#paint84_linear_4188_52111)"/>
<path d="M220.32 664C220.32 663.823 220.177 663.68 220 663.68C219.823 663.68 219.68 663.823 219.68 664L220.32 664ZM219.68 680L219.68 680.32L220.32 680.32L220.32 680L219.68 680ZM219.68 664L219.68 680L220.32 680L220.32 664L219.68 664Z" fill="url(#paint85_linear_4188_52111)"/>
<path d="M227.32 673C227.32 672.823 227.177 672.68 227 672.68C226.823 672.68 226.68 672.823 226.68 673L227.32 673ZM226.68 680L226.68 680.32L227.32 680.32L227.32 680L226.68 680ZM226.68 673L226.68 680L227.32 680L227.32 673L226.68 673Z" fill="url(#paint86_linear_4188_52111)"/>
<path d="M234.32 648C234.32 647.823 234.177 647.68 234 647.68C233.823 647.68 233.68 647.823 233.68 648L234.32 648ZM233.68 680L233.68 680.32L234.32 680.32L234.32 680L233.68 680ZM233.68 648L233.68 680L234.32 680L234.32 648L233.68 648Z" fill="url(#paint87_linear_4188_52111)"/>
<path d="M241.32 658C241.32 657.823 241.177 657.68 241 657.68C240.823 657.68 240.68 657.823 240.68 658L241.32 658ZM240.68 680L240.68 680.32L241.32 680.32L241.32 680L240.68 680ZM240.68 658L240.68 680L241.32 680L241.32 658L240.68 658Z" fill="url(#paint88_linear_4188_52111)"/>
<path d="M248.32 658C248.32 657.823 248.177 657.68 248 657.68C247.823 657.68 247.68 657.823 247.68 658L248.32 658ZM247.68 680L247.68 680.32L248.32 680.32L248.32 680L247.68 680ZM247.68 658L247.68 680L248.32 680L248.32 658L247.68 658Z" fill="url(#paint89_linear_4188_52111)"/>
<path d="M255.32 648C255.32 647.823 255.177 647.68 255 647.68C254.823 647.68 254.68 647.823 254.68 648L255.32 648ZM254.68 680L254.68 680.32L255.32 680.32L255.32 680L254.68 680ZM254.68 648L254.68 680L255.32 680L255.32 648L254.68 648Z" fill="url(#paint90_linear_4188_52111)"/>
<path d="M262.32 626C262.32 625.823 262.177 625.68 262 625.68C261.823 625.68 261.68 625.823 261.68 626L262.32 626ZM261.68 680L261.68 680.32L262.32 680.32L262.32 680L261.68 680ZM261.68 626L261.68 680L262.32 680L262.32 626L261.68 626Z" fill="url(#paint91_linear_4188_52111)"/>
<path d="M269.32 643C269.32 642.823 269.177 642.68 269 642.68C268.823 642.68 268.68 642.823 268.68 643L269.32 643ZM268.68 680L268.68 680.32L269.32 680.32L269.32 680L268.68 680ZM268.68 643L268.68 680L269.32 680L269.32 643L268.68 643Z" fill="url(#paint92_linear_4188_52111)"/>
<path d="M276.32 653C276.32 652.823 276.177 652.68 276 652.68C275.823 652.68 275.68 652.823 275.68 653L276.32 653ZM275.68 680L275.68 680.32L276.32 680.32L276.32 680L275.68 680ZM275.68 653L275.68 680L276.32 680L276.32 653L275.68 653Z" fill="url(#paint93_linear_4188_52111)"/>
<path d="M283.32 643C283.32 642.823 283.177 642.68 283 642.68C282.823 642.68 282.68 642.823 282.68 643L283.32 643ZM282.68 680L282.68 680.32L283.32 680.32L283.32 680L282.68 680ZM282.68 643L282.68 680L283.32 680L283.32 643L282.68 643Z" fill="url(#paint94_linear_4188_52111)"/>
<path d="M290.32 643C290.32 642.823 290.177 642.68 290 642.68C289.823 642.68 289.68 642.823 289.68 643L290.32 643ZM289.68 680L289.68 680.32L290.32 680.32L290.32 680L289.68 680ZM289.68 643L289.68 680L290.32 680L290.32 643L289.68 643Z" fill="url(#paint95_linear_4188_52111)"/>
<path d="M297.32 669C297.32 668.823 297.177 668.68 297 668.68C296.823 668.68 296.68 668.823 296.68 669L297.32 669ZM296.68 680L296.68 680.32L297.32 680.32L297.32 680L296.68 680ZM296.68 669L296.68 680L297.32 680L297.32 669L296.68 669Z" fill="url(#paint96_linear_4188_52111)"/>
<path d="M304.32 675C304.32 674.823 304.177 674.68 304 674.68C303.823 674.68 303.68 674.823 303.68 675L304.32 675ZM303.68 680L303.68 680.32L304.32 680.32L304.32 680L303.68 680ZM303.68 675L303.68 680L304.32 680L304.32 675L303.68 675Z" fill="url(#paint97_linear_4188_52111)"/>
<path d="M311.32 675C311.32 674.823 311.177 674.68 311 674.68C310.823 674.68 310.68 674.823 310.68 675L311.32 675ZM310.68 680L310.68 680.32L311.32 680.32L311.32 680L310.68 680ZM310.68 675L310.68 680L311.32 680L311.32 675L310.68 675Z" fill="url(#paint98_linear_4188_52111)"/>
<path d="M318.32 669C318.32 668.823 318.177 668.68 318 668.68C317.823 668.68 317.68 668.823 317.68 669L318.32 669ZM317.68 680L317.68 680.32L318.32 680.32L318.32 680L317.68 680ZM317.68 669L317.68 680L318.32 680L318.32 669L317.68 669Z" fill="url(#paint99_linear_4188_52111)"/>
<path d="M325.32 665C325.32 664.823 325.177 664.68 325 664.68C324.823 664.68 324.68 664.823 324.68 665L325.32 665ZM324.68 680L324.68 680.32L325.32 680.32L325.32 680L324.68 680ZM324.68 665L324.68 680L325.32 680L325.32 665L324.68 665Z" fill="url(#paint100_linear_4188_52111)"/>
<path d="M332.32 665C332.32 664.823 332.177 664.68 332 664.68C331.823 664.68 331.68 664.823 331.68 665L332.32 665ZM331.68 680L331.68 680.32L332.32 680.32L332.32 680L331.68 680ZM331.68 665L331.68 680L332.32 680L332.32 665L331.68 665Z" fill="url(#paint101_linear_4188_52111)"/>
<path d="M339.32 665C339.32 664.823 339.177 664.68 339 664.68C338.823 664.68 338.68 664.823 338.68 665L339.32 665ZM338.68 680L338.68 680.32L339.32 680.32L339.32 680L338.68 680ZM338.68 665L338.68 680L339.32 680L339.32 665L338.68 665Z" fill="url(#paint102_linear_4188_52111)"/>
<path d="M346.32 653C346.32 652.823 346.177 652.68 346 652.68C345.823 652.68 345.68 652.823 345.68 653L346.32 653ZM345.68 680L345.68 680.32L346.32 680.32L346.32 680L345.68 680ZM345.68 653L345.68 680L346.32 680L346.32 653L345.68 653Z" fill="url(#paint103_linear_4188_52111)"/>
<path d="M353.32 648C353.32 647.823 353.177 647.68 353 647.68C352.823 647.68 352.68 647.823 352.68 648L353.32 648ZM352.68 680L352.68 680.32L353.32 680.32L353.32 680L352.68 680ZM352.68 648L352.68 680L353.32 680L353.32 648L352.68 648Z" fill="url(#paint104_linear_4188_52111)"/>
<path d="M360.32 658C360.32 657.823 360.177 657.68 360 657.68C359.823 657.68 359.68 657.823 359.68 658L360.32 658ZM359.68 680L359.68 680.32L360.32 680.32L360.32 680L359.68 680ZM359.68 658L359.68 680L360.32 680L360.32 658L359.68 658Z" fill="url(#paint105_linear_4188_52111)"/>
<path d="M367.32 648C367.32 647.823 367.177 647.68 367 647.68C366.823 647.68 366.68 647.823 366.68 648L367.32 648ZM366.68 680L366.68 680.32L367.32 680.32L367.32 680L366.68 680ZM366.68 648L366.68 680L367.32 680L367.32 648L366.68 648Z" fill="url(#paint106_linear_4188_52111)"/>
<path d="M374.32 643C374.32 642.823 374.177 642.68 374 642.68C373.823 642.68 373.68 642.823 373.68 643L374.32 643ZM373.68 680L373.68 680.32L374.32 680.32L374.32 680L373.68 680ZM373.68 643L373.68 680L374.32 680L374.32 643L373.68 643Z" fill="url(#paint107_linear_4188_52111)"/>
<path d="M381.32 632C381.32 631.823 381.177 631.68 381 631.68C380.823 631.68 380.68 631.823 380.68 632L381.32 632ZM380.68 680L380.68 680.32L381.32 680.32L381.32 680L380.68 680ZM380.68 632L380.68 680L381.32 680L381.32 632L380.68 632Z" fill="url(#paint108_linear_4188_52111)"/>
<path d="M388.32 626C388.32 625.823 388.177 625.68 388 625.68C387.823 625.68 387.68 625.823 387.68 626L388.32 626ZM387.68 680L387.68 680.32L388.32 680.32L388.32 680L387.68 680ZM387.68 626L387.68 680L388.32 680L388.32 626L387.68 626Z" fill="url(#paint109_linear_4188_52111)"/>
</g>
<path opacity="0.1" d="M249.899 405C249.899 404.503 249.497 404.101 249 404.101C248.503 404.101 248.101 404.503 248.101 405L249.899 405ZM248.101 680L248.101 680.899L249.899 680.899L249.899 680L248.101 680ZM248.101 405L248.101 680L249.899 680L249.899 405L248.101 405Z" fill="url(#paint110_linear_4188_52111)"/>
<circle opacity="0.5" cx="249" cy="405" r="5.87768" fill="url(#paint111_linear_4188_52111)" stroke="#C7C6C6" stroke-width="0.244648"/>
<defs>
<linearGradient id="paint0_linear_4188_52111" x1="12.4959" y1="507.805" x2="405" y2="507.805" gradientUnits="userSpaceOnUse">
<stop stop-color="#2286DE"/>
<stop offset="1" stop-color="#3AAF75"/>
</linearGradient>
<linearGradient id="paint1_linear_4188_52111" x1="13.4106" y1="408.488" x2="403" y2="408.488" gradientUnits="userSpaceOnUse">
<stop stop-color="#2286DE"/>
<stop offset="1" stop-color="#3AAF75"/>
</linearGradient>
<linearGradient id="paint2_linear_4188_52111" x1="9.5122" y1="660.65" x2="9.51152" y2="-3.25153e-05" gradientUnits="userSpaceOnUse">
<stop stop-color="#2286DE"/>
<stop offset="1" stop-color="#3AAF75"/>
</linearGradient>
<linearGradient id="paint3_linear_4188_52111" x1="26.5122" y1="660.65" x2="26.5115" y2="-3.25153e-05" gradientUnits="userSpaceOnUse">
<stop stop-color="#2286DE"/>
<stop offset="1" stop-color="#3AAF75"/>
</linearGradient>
<linearGradient id="paint4_linear_4188_52111" x1="43.5122" y1="660.65" x2="43.5115" y2="-3.25153e-05" gradientUnits="userSpaceOnUse">
<stop stop-color="#2286DE"/>
<stop offset="1" stop-color="#3AAF75"/>
</linearGradient>
<linearGradient id="paint5_linear_4188_52111" x1="60.5122" y1="660.65" x2="60.5115" y2="-3.25153e-05" gradientUnits="userSpaceOnUse">
<stop stop-color="#2286DE"/>
<stop offset="1" stop-color="#3AAF75"/>
</linearGradient>
<linearGradient id="paint6_linear_4188_52111" x1="77.5122" y1="660.65" x2="77.5115" y2="-3.25153e-05" gradientUnits="userSpaceOnUse">
<stop stop-color="#2286DE"/>
<stop offset="1" stop-color="#3AAF75"/>
</linearGradient>
<linearGradient id="paint7_linear_4188_52111" x1="94.5122" y1="660.65" x2="94.5115" y2="-3.25153e-05" gradientUnits="userSpaceOnUse">
<stop stop-color="#2286DE"/>
<stop offset="1" stop-color="#3AAF75"/>
</linearGradient>
<linearGradient id="paint8_linear_4188_52111" x1="111.512" y1="660.65" x2="111.512" y2="-3.25153e-05" gradientUnits="userSpaceOnUse">
<stop stop-color="#2286DE"/>
<stop offset="1" stop-color="#3AAF75"/>
</linearGradient>
<linearGradient id="paint9_linear_4188_52111" x1="128.512" y1="660.65" x2="128.512" y2="-3.25153e-05" gradientUnits="userSpaceOnUse">
<stop stop-color="#2286DE"/>
<stop offset="1" stop-color="#3AAF75"/>
</linearGradient>
<linearGradient id="paint10_linear_4188_52111" x1="145.512" y1="660.65" x2="145.512" y2="-3.25153e-05" gradientUnits="userSpaceOnUse">
<stop stop-color="#2286DE"/>
<stop offset="1" stop-color="#3AAF75"/>
</linearGradient>
<linearGradient id="paint11_linear_4188_52111" x1="162.512" y1="660.65" x2="162.512" y2="-3.25153e-05" gradientUnits="userSpaceOnUse">
<stop stop-color="#2286DE"/>
<stop offset="1" stop-color="#3AAF75"/>
</linearGradient>
<linearGradient id="paint12_linear_4188_52111" x1="179.512" y1="660.65" x2="179.512" y2="-3.25153e-05" gradientUnits="userSpaceOnUse">
<stop stop-color="#2286DE"/>
<stop offset="1" stop-color="#3AAF75"/>
</linearGradient>
<linearGradient id="paint13_linear_4188_52111" x1="196.512" y1="660.65" x2="196.512" y2="-3.25153e-05" gradientUnits="userSpaceOnUse">
<stop stop-color="#2286DE"/>
<stop offset="1" stop-color="#3AAF75"/>
</linearGradient>
<linearGradient id="paint14_linear_4188_52111" x1="213.512" y1="660.65" x2="213.512" y2="-3.25153e-05" gradientUnits="userSpaceOnUse">
<stop stop-color="#2286DE"/>
<stop offset="1" stop-color="#3AAF75"/>
</linearGradient>
<linearGradient id="paint15_linear_4188_52111" x1="230.512" y1="660.65" x2="230.512" y2="-3.25153e-05" gradientUnits="userSpaceOnUse">
<stop stop-color="#2286DE"/>
<stop offset="1" stop-color="#3AAF75"/>
</linearGradient>
<linearGradient id="paint16_linear_4188_52111" x1="247.512" y1="660.65" x2="247.512" y2="-3.25153e-05" gradientUnits="userSpaceOnUse">
<stop stop-color="#2286DE"/>
<stop offset="1" stop-color="#3AAF75"/>
</linearGradient>
<linearGradient id="paint17_linear_4188_52111" x1="264.512" y1="660.65" x2="264.512" y2="-3.25153e-05" gradientUnits="userSpaceOnUse">
<stop stop-color="#2286DE"/>
<stop offset="1" stop-color="#3AAF75"/>
</linearGradient>
<linearGradient id="paint18_linear_4188_52111" x1="281.512" y1="660.65" x2="281.512" y2="-3.25153e-05" gradientUnits="userSpaceOnUse">
<stop stop-color="#2286DE"/>
<stop offset="1" stop-color="#3AAF75"/>
</linearGradient>
<linearGradient id="paint19_linear_4188_52111" x1="298.512" y1="660.65" x2="298.512" y2="-3.25153e-05" gradientUnits="userSpaceOnUse">
<stop stop-color="#2286DE"/>
<stop offset="1" stop-color="#3AAF75"/>
</linearGradient>
<linearGradient id="paint20_linear_4188_52111" x1="315.512" y1="660.65" x2="315.512" y2="-3.25153e-05" gradientUnits="userSpaceOnUse">
<stop stop-color="#2286DE"/>
<stop offset="1" stop-color="#3AAF75"/>
</linearGradient>
<linearGradient id="paint21_linear_4188_52111" x1="332.512" y1="660.65" x2="332.512" y2="-3.25153e-05" gradientUnits="userSpaceOnUse">
<stop stop-color="#2286DE"/>
<stop offset="1" stop-color="#3AAF75"/>
</linearGradient>
<linearGradient id="paint22_linear_4188_52111" x1="349.512" y1="660.65" x2="349.512" y2="-3.25153e-05" gradientUnits="userSpaceOnUse">
<stop stop-color="#2286DE"/>
<stop offset="1" stop-color="#3AAF75"/>
</linearGradient>
<linearGradient id="paint23_linear_4188_52111" x1="366.512" y1="660.65" x2="366.512" y2="-3.25153e-05" gradientUnits="userSpaceOnUse">
<stop stop-color="#2286DE"/>
<stop offset="1" stop-color="#3AAF75"/>
</linearGradient>
<linearGradient id="paint24_linear_4188_52111" x1="383.512" y1="660.65" x2="383.512" y2="-3.25153e-05" gradientUnits="userSpaceOnUse">
<stop stop-color="#2286DE"/>
<stop offset="1" stop-color="#3AAF75"/>
</linearGradient>
<linearGradient id="paint25_linear_4188_52111" x1="400.512" y1="660.65" x2="400.512" y2="-3.25153e-05" gradientUnits="userSpaceOnUse">
<stop stop-color="#2286DE"/>
<stop offset="1" stop-color="#3AAF75"/>
</linearGradient>
<linearGradient id="paint26_linear_4188_52111" x1="13.4675" y1="21.5122" x2="405" y2="21.5119" gradientUnits="userSpaceOnUse">
<stop stop-color="#2286DE"/>
<stop offset="1" stop-color="#3AAF75"/>
</linearGradient>
<linearGradient id="paint27_linear_4188_52111" x1="13.4675" y1="43.5122" x2="405" y2="43.5119" gradientUnits="userSpaceOnUse">
<stop stop-color="#2286DE"/>
<stop offset="1" stop-color="#3AAF75"/>
</linearGradient>
<linearGradient id="paint28_linear_4188_52111" x1="13.4675" y1="65.5122" x2="405" y2="65.5119" gradientUnits="userSpaceOnUse">
<stop stop-color="#2286DE"/>
<stop offset="1" stop-color="#3AAF75"/>
</linearGradient>
<linearGradient id="paint29_linear_4188_52111" x1="13.4675" y1="87.5122" x2="405" y2="87.5119" gradientUnits="userSpaceOnUse">
<stop stop-color="#2286DE"/>
<stop offset="1" stop-color="#3AAF75"/>
</linearGradient>
<linearGradient id="paint30_linear_4188_52111" x1="13.4675" y1="109.512" x2="405" y2="109.512" gradientUnits="userSpaceOnUse">
<stop stop-color="#2286DE"/>
<stop offset="1" stop-color="#3AAF75"/>
</linearGradient>
<linearGradient id="paint31_linear_4188_52111" x1="13.4675" y1="131.512" x2="405" y2="131.512" gradientUnits="userSpaceOnUse">
<stop stop-color="#2286DE"/>
<stop offset="1" stop-color="#3AAF75"/>
</linearGradient>
<linearGradient id="paint32_linear_4188_52111" x1="13.4675" y1="153.512" x2="405" y2="153.512" gradientUnits="userSpaceOnUse">
<stop stop-color="#2286DE"/>
<stop offset="1" stop-color="#3AAF75"/>
</linearGradient>
<linearGradient id="paint33_linear_4188_52111" x1="13.4675" y1="175.512" x2="405" y2="175.512" gradientUnits="userSpaceOnUse">
<stop stop-color="#2286DE"/>
<stop offset="1" stop-color="#3AAF75"/>
</linearGradient>
<linearGradient id="paint34_linear_4188_52111" x1="13.4675" y1="197.512" x2="405" y2="197.512" gradientUnits="userSpaceOnUse">
<stop stop-color="#2286DE"/>
<stop offset="1" stop-color="#3AAF75"/>
</linearGradient>
<linearGradient id="paint35_linear_4188_52111" x1="13.4675" y1="219.512" x2="405" y2="219.512" gradientUnits="userSpaceOnUse">
<stop stop-color="#2286DE"/>
<stop offset="1" stop-color="#3AAF75"/>
</linearGradient>
<linearGradient id="paint36_linear_4188_52111" x1="13.4675" y1="241.512" x2="405" y2="241.512" gradientUnits="userSpaceOnUse">
<stop stop-color="#2286DE"/>
<stop offset="1" stop-color="#3AAF75"/>
</linearGradient>
<linearGradient id="paint37_linear_4188_52111" x1="13.4675" y1="263.512" x2="405" y2="263.512" gradientUnits="userSpaceOnUse">
<stop stop-color="#2286DE"/>
<stop offset="1" stop-color="#3AAF75"/>
</linearGradient>
<linearGradient id="paint38_linear_4188_52111" x1="13.4675" y1="285.512" x2="405" y2="285.512" gradientUnits="userSpaceOnUse">
<stop stop-color="#2286DE"/>
<stop offset="1" stop-color="#3AAF75"/>
</linearGradient>
<linearGradient id="paint39_linear_4188_52111" x1="13.4675" y1="307.512" x2="405" y2="307.512" gradientUnits="userSpaceOnUse">
<stop stop-color="#2286DE"/>
<stop offset="1" stop-color="#3AAF75"/>
</linearGradient>
<linearGradient id="paint40_linear_4188_52111" x1="13.4675" y1="329.512" x2="405" y2="329.512" gradientUnits="userSpaceOnUse">
<stop stop-color="#2286DE"/>
<stop offset="1" stop-color="#3AAF75"/>
</linearGradient>
<linearGradient id="paint41_linear_4188_52111" x1="13.4675" y1="351.512" x2="405" y2="351.512" gradientUnits="userSpaceOnUse">
<stop stop-color="#2286DE"/>
<stop offset="1" stop-color="#3AAF75"/>
</linearGradient>
<linearGradient id="paint42_linear_4188_52111" x1="13.4675" y1="373.512" x2="405" y2="373.512" gradientUnits="userSpaceOnUse">
<stop stop-color="#2286DE"/>
<stop offset="1" stop-color="#3AAF75"/>
</linearGradient>
<linearGradient id="paint43_linear_4188_52111" x1="13.4675" y1="395.512" x2="405" y2="395.512" gradientUnits="userSpaceOnUse">
<stop stop-color="#2286DE"/>
<stop offset="1" stop-color="#3AAF75"/>
</linearGradient>
<linearGradient id="paint44_linear_4188_52111" x1="13.4675" y1="417.512" x2="405" y2="417.512" gradientUnits="userSpaceOnUse">
<stop stop-color="#2286DE"/>
<stop offset="1" stop-color="#3AAF75"/>
</linearGradient>
<linearGradient id="paint45_linear_4188_52111" x1="13.4675" y1="439.512" x2="405" y2="439.512" gradientUnits="userSpaceOnUse">
<stop stop-color="#2286DE"/>
<stop offset="1" stop-color="#3AAF75"/>
</linearGradient>
<linearGradient id="paint46_linear_4188_52111" x1="13.4675" y1="461.512" x2="405" y2="461.512" gradientUnits="userSpaceOnUse">
<stop stop-color="#2286DE"/>
<stop offset="1" stop-color="#3AAF75"/>
</linearGradient>
<linearGradient id="paint47_linear_4188_52111" x1="13.4675" y1="483.512" x2="405" y2="483.512" gradientUnits="userSpaceOnUse">
<stop stop-color="#2286DE"/>
<stop offset="1" stop-color="#3AAF75"/>
</linearGradient>
<linearGradient id="paint48_linear_4188_52111" x1="13.4675" y1="505.245" x2="405" y2="505.244" gradientUnits="userSpaceOnUse">
<stop stop-color="#2286DE"/>
<stop offset="1" stop-color="#3AAF75"/>
</linearGradient>
<linearGradient id="paint49_linear_4188_52111" x1="13.4675" y1="527.512" x2="405" y2="527.512" gradientUnits="userSpaceOnUse">
<stop stop-color="#2286DE"/>
<stop offset="1" stop-color="#3AAF75"/>
</linearGradient>
<linearGradient id="paint50_linear_4188_52111" x1="13.4675" y1="549.512" x2="405" y2="549.512" gradientUnits="userSpaceOnUse">
<stop stop-color="#2286DE"/>
<stop offset="1" stop-color="#3AAF75"/>
</linearGradient>
<linearGradient id="paint51_linear_4188_52111" x1="13.4675" y1="571.512" x2="405" y2="571.512" gradientUnits="userSpaceOnUse">
<stop stop-color="#2286DE"/>
<stop offset="1" stop-color="#3AAF75"/>
</linearGradient>
<linearGradient id="paint52_linear_4188_52111" x1="13.4675" y1="593.512" x2="405" y2="593.512" gradientUnits="userSpaceOnUse">
<stop stop-color="#2286DE"/>
<stop offset="1" stop-color="#3AAF75"/>
</linearGradient>
<linearGradient id="paint53_linear_4188_52111" x1="13.4675" y1="615.512" x2="405" y2="615.512" gradientUnits="userSpaceOnUse">
<stop stop-color="#2286DE"/>
<stop offset="1" stop-color="#3AAF75"/>
</linearGradient>
<linearGradient id="paint54_linear_4188_52111" x1="13.4675" y1="637.512" x2="405" y2="637.512" gradientUnits="userSpaceOnUse">
<stop stop-color="#2286DE"/>
<stop offset="1" stop-color="#3AAF75"/>
</linearGradient>
<linearGradient id="paint55_linear_4188_52111" x1="13.4675" y1="659.512" x2="405" y2="659.512" gradientUnits="userSpaceOnUse">
<stop stop-color="#2286DE"/>
<stop offset="1" stop-color="#3AAF75"/>
</linearGradient>
<linearGradient id="paint56_linear_4188_52111" x1="16.4878" y1="670.285" x2="16.4878" y2="680" gradientUnits="userSpaceOnUse">
<stop stop-color="#2286DE"/>
<stop offset="1" stop-color="#3AAF75"/>
</linearGradient>
<linearGradient id="paint57_linear_4188_52111" x1="23.4878" y1="661.541" x2="23.4878" y2="680" gradientUnits="userSpaceOnUse">
<stop stop-color="#2286DE"/>
<stop offset="1" stop-color="#3AAF75"/>
</linearGradient>
<linearGradient id="paint58_linear_4188_52111" x1="30.4878" y1="653.768" x2="30.4878" y2="680" gradientUnits="userSpaceOnUse">
<stop stop-color="#2286DE"/>
<stop offset="1" stop-color="#3AAF75"/>
</linearGradient>
<linearGradient id="paint59_linear_4188_52111" x1="37.4878" y1="667.37" x2="37.4878" y2="680" gradientUnits="userSpaceOnUse">
<stop stop-color="#2286DE"/>
<stop offset="1" stop-color="#3AAF75"/>
</linearGradient>
<linearGradient id="paint60_linear_4188_52111" x1="44.4878" y1="670.285" x2="44.4878" y2="680" gradientUnits="userSpaceOnUse">
<stop stop-color="#2286DE"/>
<stop offset="1" stop-color="#3AAF75"/>
</linearGradient>
<linearGradient id="paint61_linear_4188_52111" x1="51.4878" y1="662.512" x2="51.4878" y2="680" gradientUnits="userSpaceOnUse">
<stop stop-color="#2286DE"/>
<stop offset="1" stop-color="#3AAF75"/>
</linearGradient>
<linearGradient id="paint62_linear_4188_52111" x1="58.4878" y1="645.024" x2="58.4878" y2="680" gradientUnits="userSpaceOnUse">
<stop stop-color="#2286DE"/>
<stop offset="1" stop-color="#3AAF75"/>
</linearGradient>
<linearGradient id="paint63_linear_4188_52111" x1="65.4878" y1="653.768" x2="65.4878" y2="680" gradientUnits="userSpaceOnUse">
<stop stop-color="#2286DE"/>
<stop offset="1" stop-color="#3AAF75"/>
</linearGradient>
<linearGradient id="paint64_linear_4188_52111" x1="72.4878" y1="653.768" x2="72.4878" y2="680" gradientUnits="userSpaceOnUse">
<stop stop-color="#2286DE"/>
<stop offset="1" stop-color="#3AAF75"/>
</linearGradient>
<linearGradient id="paint65_linear_4188_52111" x1="79.4878" y1="627.537" x2="79.4878" y2="680" gradientUnits="userSpaceOnUse">
<stop stop-color="#2286DE"/>
<stop offset="1" stop-color="#3AAF75"/>
</linearGradient>
<linearGradient id="paint66_linear_4188_52111" x1="86.4878" y1="662.512" x2="86.4878" y2="680" gradientUnits="userSpaceOnUse">
<stop stop-color="#2286DE"/>
<stop offset="1" stop-color="#3AAF75"/>
</linearGradient>
<linearGradient id="paint67_linear_4188_52111" x1="93.4878" y1="662.512" x2="93.4878" y2="680" gradientUnits="userSpaceOnUse">
<stop stop-color="#2286DE"/>
<stop offset="1" stop-color="#3AAF75"/>
</linearGradient>
<linearGradient id="paint68_linear_4188_52111" x1="100.488" y1="653.768" x2="100.488" y2="680" gradientUnits="userSpaceOnUse">
<stop stop-color="#2286DE"/>
<stop offset="1" stop-color="#3AAF75"/>
</linearGradient>
<linearGradient id="paint69_linear_4188_52111" x1="107.488" y1="645.024" x2="107.488" y2="680" gradientUnits="userSpaceOnUse">
<stop stop-color="#2286DE"/>
<stop offset="1" stop-color="#3AAF75"/>
</linearGradient>
<linearGradient id="paint70_linear_4188_52111" x1="114.488" y1="662.512" x2="114.488" y2="680" gradientUnits="userSpaceOnUse">
<stop stop-color="#2286DE"/>
<stop offset="1" stop-color="#3AAF75"/>
</linearGradient>
<linearGradient id="paint71_linear_4188_52111" x1="121.488" y1="671.256" x2="121.488" y2="680" gradientUnits="userSpaceOnUse">
<stop stop-color="#2286DE"/>
<stop offset="1" stop-color="#3AAF75"/>
</linearGradient>
<linearGradient id="paint72_linear_4188_52111" x1="128.488" y1="671.256" x2="128.488" y2="680" gradientUnits="userSpaceOnUse">
<stop stop-color="#2286DE"/>
<stop offset="1" stop-color="#3AAF75"/>
</linearGradient>
<linearGradient id="paint73_linear_4188_52111" x1="135.488" y1="647.939" x2="135.488" y2="680" gradientUnits="userSpaceOnUse">
<stop stop-color="#2286DE"/>
<stop offset="1" stop-color="#3AAF75"/>
</linearGradient>
<linearGradient id="paint74_linear_4188_52111" x1="142.488" y1="635.309" x2="142.488" y2="680" gradientUnits="userSpaceOnUse">
<stop stop-color="#2286DE"/>
<stop offset="1" stop-color="#3AAF75"/>
</linearGradient>
<linearGradient id="paint75_linear_4188_52111" x1="149.488" y1="657.654" x2="149.488" y2="680" gradientUnits="userSpaceOnUse">
<stop stop-color="#2286DE"/>
<stop offset="1" stop-color="#3AAF75"/>
</linearGradient>
<linearGradient id="paint76_linear_4188_52111" x1="156.488" y1="657.654" x2="156.488" y2="680" gradientUnits="userSpaceOnUse">
<stop stop-color="#2286DE"/>
<stop offset="1" stop-color="#3AAF75"/>
</linearGradient>
<linearGradient id="paint77_linear_4188_52111" x1="163.488" y1="647.939" x2="163.488" y2="680" gradientUnits="userSpaceOnUse">
<stop stop-color="#2286DE"/>
<stop offset="1" stop-color="#3AAF75"/>
</linearGradient>
<linearGradient id="paint78_linear_4188_52111" x1="170.488" y1="664.455" x2="170.488" y2="680" gradientUnits="userSpaceOnUse">
<stop stop-color="#2286DE"/>
<stop offset="1" stop-color="#3AAF75"/>
</linearGradient>
<linearGradient id="paint79_linear_4188_52111" x1="177.488" y1="653.768" x2="177.488" y2="680" gradientUnits="userSpaceOnUse">
<stop stop-color="#2286DE"/>
<stop offset="1" stop-color="#3AAF75"/>
</linearGradient>
<linearGradient id="paint80_linear_4188_52111" x1="184.488" y1="639.195" x2="184.488" y2="680" gradientUnits="userSpaceOnUse">
<stop stop-color="#2286DE"/>
<stop offset="1" stop-color="#3AAF75"/>
</linearGradient>
<linearGradient id="paint81_linear_4188_52111" x1="191.488" y1="627.537" x2="191.488" y2="680" gradientUnits="userSpaceOnUse">
<stop stop-color="#2286DE"/>
<stop offset="1" stop-color="#3AAF75"/>
</linearGradient>
<linearGradient id="paint82_linear_4188_52111" x1="198.488" y1="648.911" x2="198.488" y2="680" gradientUnits="userSpaceOnUse">
<stop stop-color="#2286DE"/>
<stop offset="1" stop-color="#3AAF75"/>
</linearGradient>
<linearGradient id="paint83_linear_4188_52111" x1="205.488" y1="636.28" x2="205.488" y2="680" gradientUnits="userSpaceOnUse">
<stop stop-color="#2286DE"/>
<stop offset="1" stop-color="#3AAF75"/>
</linearGradient>
<linearGradient id="paint84_linear_4188_52111" x1="212.488" y1="645.024" x2="212.488" y2="680" gradientUnits="userSpaceOnUse">
<stop stop-color="#2286DE"/>
<stop offset="1" stop-color="#3AAF75"/>
</linearGradient>
<linearGradient id="paint85_linear_4188_52111" x1="219.488" y1="664.455" x2="219.488" y2="680" gradientUnits="userSpaceOnUse">
<stop stop-color="#2286DE"/>
<stop offset="1" stop-color="#3AAF75"/>
</linearGradient>
<linearGradient id="paint86_linear_4188_52111" x1="226.488" y1="673.199" x2="226.488" y2="680" gradientUnits="userSpaceOnUse">
<stop stop-color="#2286DE"/>
<stop offset="1" stop-color="#3AAF75"/>
</linearGradient>
<linearGradient id="paint87_linear_4188_52111" x1="233.488" y1="648.911" x2="233.488" y2="680" gradientUnits="userSpaceOnUse">
<stop stop-color="#2286DE"/>
<stop offset="1" stop-color="#3AAF75"/>
</linearGradient>
<linearGradient id="paint88_linear_4188_52111" x1="240.488" y1="658.626" x2="240.488" y2="680" gradientUnits="userSpaceOnUse">
<stop stop-color="#2286DE"/>
<stop offset="1" stop-color="#3AAF75"/>
</linearGradient>
<linearGradient id="paint89_linear_4188_52111" x1="247.488" y1="658.626" x2="247.488" y2="680" gradientUnits="userSpaceOnUse">
<stop stop-color="#2286DE"/>
<stop offset="1" stop-color="#3AAF75"/>
</linearGradient>
<linearGradient id="paint90_linear_4188_52111" x1="254.488" y1="648.911" x2="254.488" y2="680" gradientUnits="userSpaceOnUse">
<stop stop-color="#2286DE"/>
<stop offset="1" stop-color="#3AAF75"/>
</linearGradient>
<linearGradient id="paint91_linear_4188_52111" x1="261.488" y1="627.537" x2="261.488" y2="680" gradientUnits="userSpaceOnUse">
<stop stop-color="#2286DE"/>
<stop offset="1" stop-color="#3AAF75"/>
</linearGradient>
<linearGradient id="paint92_linear_4188_52111" x1="268.488" y1="644.053" x2="268.488" y2="680" gradientUnits="userSpaceOnUse">
<stop stop-color="#2286DE"/>
<stop offset="1" stop-color="#3AAF75"/>
</linearGradient>
<linearGradient id="paint93_linear_4188_52111" x1="275.488" y1="653.768" x2="275.488" y2="680" gradientUnits="userSpaceOnUse">
<stop stop-color="#2286DE"/>
<stop offset="1" stop-color="#3AAF75"/>
</linearGradient>
<linearGradient id="paint94_linear_4188_52111" x1="282.488" y1="644.053" x2="282.488" y2="680" gradientUnits="userSpaceOnUse">
<stop stop-color="#2286DE"/>
<stop offset="1" stop-color="#3AAF75"/>
</linearGradient>
<linearGradient id="paint95_linear_4188_52111" x1="289.488" y1="644.053" x2="289.488" y2="680" gradientUnits="userSpaceOnUse">
<stop stop-color="#2286DE"/>
<stop offset="1" stop-color="#3AAF75"/>
</linearGradient>
<linearGradient id="paint96_linear_4188_52111" x1="296.488" y1="669.313" x2="296.488" y2="680" gradientUnits="userSpaceOnUse">
<stop stop-color="#2286DE"/>
<stop offset="1" stop-color="#3AAF75"/>
</linearGradient>
<linearGradient id="paint97_linear_4188_52111" x1="303.488" y1="675.142" x2="303.488" y2="680" gradientUnits="userSpaceOnUse">
<stop stop-color="#2286DE"/>
<stop offset="1" stop-color="#3AAF75"/>
</linearGradient>
<linearGradient id="paint98_linear_4188_52111" x1="310.488" y1="675.142" x2="310.488" y2="680" gradientUnits="userSpaceOnUse">
<stop stop-color="#2286DE"/>
<stop offset="1" stop-color="#3AAF75"/>
</linearGradient>
<linearGradient id="paint99_linear_4188_52111" x1="317.488" y1="669.313" x2="317.488" y2="680" gradientUnits="userSpaceOnUse">
<stop stop-color="#2286DE"/>
<stop offset="1" stop-color="#3AAF75"/>
</linearGradient>
<linearGradient id="paint100_linear_4188_52111" x1="324.488" y1="665.427" x2="324.488" y2="680" gradientUnits="userSpaceOnUse">
<stop stop-color="#2286DE"/>
<stop offset="1" stop-color="#3AAF75"/>
</linearGradient>
<linearGradient id="paint101_linear_4188_52111" x1="331.488" y1="665.427" x2="331.488" y2="680" gradientUnits="userSpaceOnUse">
<stop stop-color="#2286DE"/>
<stop offset="1" stop-color="#3AAF75"/>
</linearGradient>
<linearGradient id="paint102_linear_4188_52111" x1="338.488" y1="665.427" x2="338.488" y2="680" gradientUnits="userSpaceOnUse">
<stop stop-color="#2286DE"/>
<stop offset="1" stop-color="#3AAF75"/>
</linearGradient>
<linearGradient id="paint103_linear_4188_52111" x1="345.488" y1="653.768" x2="345.488" y2="680" gradientUnits="userSpaceOnUse">
<stop stop-color="#2286DE"/>
<stop offset="1" stop-color="#3AAF75"/>
</linearGradient>
<linearGradient id="paint104_linear_4188_52111" x1="352.488" y1="648.911" x2="352.488" y2="680" gradientUnits="userSpaceOnUse">
<stop stop-color="#2286DE"/>
<stop offset="1" stop-color="#3AAF75"/>
</linearGradient>
<linearGradient id="paint105_linear_4188_52111" x1="359.488" y1="658.626" x2="359.488" y2="680" gradientUnits="userSpaceOnUse">
<stop stop-color="#2286DE"/>
<stop offset="1" stop-color="#3AAF75"/>
</linearGradient>
<linearGradient id="paint106_linear_4188_52111" x1="366.488" y1="648.911" x2="366.488" y2="680" gradientUnits="userSpaceOnUse">
<stop stop-color="#2286DE"/>
<stop offset="1" stop-color="#3AAF75"/>
</linearGradient>
<linearGradient id="paint107_linear_4188_52111" x1="373.488" y1="644.053" x2="373.488" y2="680" gradientUnits="userSpaceOnUse">
<stop stop-color="#2286DE"/>
<stop offset="1" stop-color="#3AAF75"/>
</linearGradient>
<linearGradient id="paint108_linear_4188_52111" x1="380.488" y1="633.366" x2="380.488" y2="680" gradientUnits="userSpaceOnUse">
<stop stop-color="#2286DE"/>
<stop offset="1" stop-color="#3AAF75"/>
</linearGradient>
<linearGradient id="paint109_linear_4188_52111" x1="387.488" y1="627.537" x2="387.488" y2="680" gradientUnits="userSpaceOnUse">
<stop stop-color="#2286DE"/>
<stop offset="1" stop-color="#3AAF75"/>
</linearGradient>
<linearGradient id="paint110_linear_4188_52111" x1="248.488" y1="412.825" x2="248.488" y2="680" gradientUnits="userSpaceOnUse">
<stop stop-color="#2286DE"/>
<stop offset="1" stop-color="#3AAF75"/>
</linearGradient>
<linearGradient id="paint111_linear_4188_52111" x1="243.341" y1="405.146" x2="255" y2="405.146" gradientUnits="userSpaceOnUse">
<stop stop-color="#2286DE"/>
<stop offset="1" stop-color="#3AAF75"/>
</linearGradient>
</defs>
</svg>
