<svg width="407" height="622" viewBox="0 0 407 622" fill="none" xmlns="http://www.w3.org/2000/svg">
<rect x="1" width="406" height="621" rx="8" fill="#232323"/>
<path opacity="0.03" d="M54 375.636C41.8863 356.584 30.2002 329.985 19 324L1.5 318.5V613.5L2.5 615.5L3.5 616.5L4.5 618L6 619L8.5 620L11.5 620.5H399.5L404.5 617.5L406.5 613V319V265.5L389.5 299L379 278L328 351.5L313.5 332L285.5 375.636L248 344.356L210.879 422.894L175.5 375.636L164 430.748L146 415.853L129.5 430.251L69.5 355.776L54 375.636Z" fill="url(#paint0_linear_4188_52109)"/>
<path opacity="0.1" d="M2 316.6L19.4136 322.058C30.5585 327.998 42.1869 354.396 54.2407 373.304L69.6642 353.594L129.368 427.507L145.786 413.217L163.698 428L175.141 373.304L210.345 420.206L247.283 342.261L284.598 373.304L312.459 329.998L326.888 349.351L377.636 276.406L388.084 297.247L405 264" stroke="url(#paint1_linear_4188_52109)" stroke-width="4" stroke-linecap="round" stroke-linejoin="round"/>
<g opacity="0.07">
<line x1="16.7322" y1="621" x2="16.7322" y2="-1.15898e-08" stroke="url(#paint2_linear_4188_52109)" stroke-width="0.535649"/>
<line x1="33.7322" y1="621" x2="33.7322" y2="-1.15898e-08" stroke="url(#paint3_linear_4188_52109)" stroke-width="0.535649"/>
<line x1="50.7322" y1="621" x2="50.7322" y2="-1.15898e-08" stroke="url(#paint4_linear_4188_52109)" stroke-width="0.535649"/>
<line x1="67.7322" y1="621" x2="67.7322" y2="-1.15898e-08" stroke="url(#paint5_linear_4188_52109)" stroke-width="0.535649"/>
<line x1="84.7322" y1="621" x2="84.7322" y2="-1.15898e-08" stroke="url(#paint6_linear_4188_52109)" stroke-width="0.535649"/>
<line x1="101.732" y1="621" x2="101.732" y2="-1.15898e-08" stroke="url(#paint7_linear_4188_52109)" stroke-width="0.535649"/>
<line x1="118.732" y1="621" x2="118.732" y2="-1.15898e-08" stroke="url(#paint8_linear_4188_52109)" stroke-width="0.535649"/>
<line x1="135.732" y1="621" x2="135.732" y2="-1.15898e-08" stroke="url(#paint9_linear_4188_52109)" stroke-width="0.535649"/>
<line x1="152.732" y1="621" x2="152.732" y2="-1.15898e-08" stroke="url(#paint10_linear_4188_52109)" stroke-width="0.535649"/>
<line x1="169.732" y1="621" x2="169.732" y2="-1.15898e-08" stroke="url(#paint11_linear_4188_52109)" stroke-width="0.535649"/>
<line x1="186.732" y1="621" x2="186.732" y2="-1.15898e-08" stroke="url(#paint12_linear_4188_52109)" stroke-width="0.535649"/>
<line x1="203.732" y1="621" x2="203.732" y2="-1.15898e-08" stroke="url(#paint13_linear_4188_52109)" stroke-width="0.535649"/>
<line x1="220.732" y1="621" x2="220.732" y2="-1.15898e-08" stroke="url(#paint14_linear_4188_52109)" stroke-width="0.535649"/>
<line x1="237.732" y1="621" x2="237.732" y2="-1.15898e-08" stroke="url(#paint15_linear_4188_52109)" stroke-width="0.535649"/>
<line x1="254.732" y1="621" x2="254.732" y2="-1.15898e-08" stroke="url(#paint16_linear_4188_52109)" stroke-width="0.535649"/>
<line x1="271.732" y1="621" x2="271.732" y2="-1.15898e-08" stroke="url(#paint17_linear_4188_52109)" stroke-width="0.535649"/>
<line x1="288.732" y1="621" x2="288.732" y2="-1.15898e-08" stroke="url(#paint18_linear_4188_52109)" stroke-width="0.535649"/>
<line x1="305.732" y1="621" x2="305.732" y2="-1.15898e-08" stroke="url(#paint19_linear_4188_52109)" stroke-width="0.535649"/>
<line x1="322.732" y1="621" x2="322.732" y2="-1.15898e-08" stroke="url(#paint20_linear_4188_52109)" stroke-width="0.535649"/>
<line x1="339.732" y1="621" x2="339.732" y2="-1.15898e-08" stroke="url(#paint21_linear_4188_52109)" stroke-width="0.535649"/>
<line x1="356.732" y1="621" x2="356.732" y2="-1.15898e-08" stroke="url(#paint22_linear_4188_52109)" stroke-width="0.535649"/>
<line x1="373.732" y1="621" x2="373.732" y2="-1.15898e-08" stroke="url(#paint23_linear_4188_52109)" stroke-width="0.535649"/>
<line x1="390.732" y1="621" x2="390.732" y2="-1.15898e-08" stroke="url(#paint24_linear_4188_52109)" stroke-width="0.535649"/>
<line x1="1" y1="8.73218" x2="406" y2="8.73214" stroke="url(#paint25_linear_4188_52109)" stroke-width="0.535649"/>
<line x1="1" y1="30.7322" x2="406" y2="30.7321" stroke="url(#paint26_linear_4188_52109)" stroke-width="0.535649"/>
<line x1="1" y1="52.7322" x2="406" y2="52.7321" stroke="url(#paint27_linear_4188_52109)" stroke-width="0.535649"/>
<line x1="1" y1="74.7322" x2="406" y2="74.7321" stroke="url(#paint28_linear_4188_52109)" stroke-width="0.535649"/>
<line x1="1" y1="96.7322" x2="406" y2="96.7321" stroke="url(#paint29_linear_4188_52109)" stroke-width="0.535649"/>
<line x1="1" y1="118.732" x2="406" y2="118.732" stroke="url(#paint30_linear_4188_52109)" stroke-width="0.535649"/>
<line x1="1" y1="140.732" x2="406" y2="140.732" stroke="url(#paint31_linear_4188_52109)" stroke-width="0.535649"/>
<line x1="1" y1="162.732" x2="406" y2="162.732" stroke="url(#paint32_linear_4188_52109)" stroke-width="0.535649"/>
<line x1="1" y1="184.732" x2="406" y2="184.732" stroke="url(#paint33_linear_4188_52109)" stroke-width="0.535649"/>
<line x1="1" y1="206.732" x2="406" y2="206.732" stroke="url(#paint34_linear_4188_52109)" stroke-width="0.535649"/>
<line x1="1" y1="228.732" x2="406" y2="228.732" stroke="url(#paint35_linear_4188_52109)" stroke-width="0.535649"/>
<line x1="1" y1="250.732" x2="406" y2="250.732" stroke="url(#paint36_linear_4188_52109)" stroke-width="0.535649"/>
<line x1="1" y1="272.732" x2="406" y2="272.732" stroke="url(#paint37_linear_4188_52109)" stroke-width="0.535649"/>
<line x1="1" y1="294.732" x2="406" y2="294.732" stroke="url(#paint38_linear_4188_52109)" stroke-width="0.535649"/>
<line x1="1" y1="316.732" x2="406" y2="316.732" stroke="url(#paint39_linear_4188_52109)" stroke-width="0.535649"/>
<line x1="1" y1="338.732" x2="406" y2="338.732" stroke="url(#paint40_linear_4188_52109)" stroke-width="0.535649"/>
<line x1="1" y1="360.732" x2="406" y2="360.732" stroke="url(#paint41_linear_4188_52109)" stroke-width="0.535649"/>
<line x1="1" y1="382.732" x2="406" y2="382.732" stroke="url(#paint42_linear_4188_52109)" stroke-width="0.535649"/>
<line x1="1" y1="404.732" x2="406" y2="404.732" stroke="url(#paint43_linear_4188_52109)" stroke-width="0.535649"/>
<line x1="1" y1="426.732" x2="406" y2="426.732" stroke="url(#paint44_linear_4188_52109)" stroke-width="0.535649"/>
<line x1="1" y1="448.732" x2="406" y2="448.732" stroke="url(#paint45_linear_4188_52109)" stroke-width="0.535649"/>
<line x1="1" y1="470.732" x2="406" y2="470.732" stroke="url(#paint46_linear_4188_52109)" stroke-width="0.535649"/>
<line x1="1" y1="492.732" x2="406" y2="492.732" stroke="url(#paint47_linear_4188_52109)" stroke-width="0.535649"/>
<line x1="1" y1="514.732" x2="406" y2="514.732" stroke="url(#paint48_linear_4188_52109)" stroke-width="0.535649"/>
<line x1="1" y1="536.732" x2="406" y2="536.732" stroke="url(#paint49_linear_4188_52109)" stroke-width="0.535649"/>
<line x1="1" y1="558.732" x2="406" y2="558.732" stroke="url(#paint50_linear_4188_52109)" stroke-width="0.535649"/>
<line x1="1" y1="580.732" x2="406" y2="580.732" stroke="url(#paint51_linear_4188_52109)" stroke-width="0.535649"/>
<line x1="1" y1="602.734" x2="406" y2="602.734" stroke="url(#paint52_linear_4188_52109)" stroke-width="0.535649"/>
</g>
<path opacity="0.1" d="M251 344C251 343.448 250.552 343 250 343C249.448 343 249 343.448 249 344L251 344ZM249 621L249 622L251 622L251 621L249 621ZM249 344L249 621L251 621L251 344L249 344Z" fill="url(#paint53_linear_4188_52109)"/>
<circle opacity="0.5" cx="250" cy="344" r="5.86393" fill="url(#paint54_linear_4188_52109)" stroke="#C7C6C6" stroke-width="0.27213"/>
<defs>
<linearGradient id="paint0_linear_4188_52109" x1="13.0244" y1="447.329" x2="406.5" y2="447.329" gradientUnits="userSpaceOnUse">
<stop stop-color="#2286DE"/>
<stop offset="1" stop-color="#3AAF75"/>
</linearGradient>
<linearGradient id="paint1_linear_4188_52109" x1="13.4675" y1="348" x2="405" y2="348" gradientUnits="userSpaceOnUse">
<stop stop-color="#2286DE"/>
<stop offset="1" stop-color="#3AAF75"/>
</linearGradient>
<linearGradient id="paint2_linear_4188_52109" x1="17.5122" y1="603.329" x2="17.5116" y2="-2.96923e-05" gradientUnits="userSpaceOnUse">
<stop stop-color="#2286DE"/>
<stop offset="1" stop-color="#3AAF75"/>
</linearGradient>
<linearGradient id="paint3_linear_4188_52109" x1="34.5122" y1="603.329" x2="34.5116" y2="-2.96923e-05" gradientUnits="userSpaceOnUse">
<stop stop-color="#2286DE"/>
<stop offset="1" stop-color="#3AAF75"/>
</linearGradient>
<linearGradient id="paint4_linear_4188_52109" x1="51.5122" y1="603.329" x2="51.5116" y2="-2.96923e-05" gradientUnits="userSpaceOnUse">
<stop stop-color="#2286DE"/>
<stop offset="1" stop-color="#3AAF75"/>
</linearGradient>
<linearGradient id="paint5_linear_4188_52109" x1="68.5122" y1="603.329" x2="68.5116" y2="-2.96923e-05" gradientUnits="userSpaceOnUse">
<stop stop-color="#2286DE"/>
<stop offset="1" stop-color="#3AAF75"/>
</linearGradient>
<linearGradient id="paint6_linear_4188_52109" x1="85.5122" y1="603.329" x2="85.5116" y2="-2.96923e-05" gradientUnits="userSpaceOnUse">
<stop stop-color="#2286DE"/>
<stop offset="1" stop-color="#3AAF75"/>
</linearGradient>
<linearGradient id="paint7_linear_4188_52109" x1="102.512" y1="603.329" x2="102.512" y2="-2.96923e-05" gradientUnits="userSpaceOnUse">
<stop stop-color="#2286DE"/>
<stop offset="1" stop-color="#3AAF75"/>
</linearGradient>
<linearGradient id="paint8_linear_4188_52109" x1="119.512" y1="603.329" x2="119.512" y2="-2.96923e-05" gradientUnits="userSpaceOnUse">
<stop stop-color="#2286DE"/>
<stop offset="1" stop-color="#3AAF75"/>
</linearGradient>
<linearGradient id="paint9_linear_4188_52109" x1="136.512" y1="603.329" x2="136.512" y2="-2.96923e-05" gradientUnits="userSpaceOnUse">
<stop stop-color="#2286DE"/>
<stop offset="1" stop-color="#3AAF75"/>
</linearGradient>
<linearGradient id="paint10_linear_4188_52109" x1="153.512" y1="603.329" x2="153.512" y2="-2.96923e-05" gradientUnits="userSpaceOnUse">
<stop stop-color="#2286DE"/>
<stop offset="1" stop-color="#3AAF75"/>
</linearGradient>
<linearGradient id="paint11_linear_4188_52109" x1="170.512" y1="603.329" x2="170.512" y2="-2.96923e-05" gradientUnits="userSpaceOnUse">
<stop stop-color="#2286DE"/>
<stop offset="1" stop-color="#3AAF75"/>
</linearGradient>
<linearGradient id="paint12_linear_4188_52109" x1="187.512" y1="603.329" x2="187.512" y2="-2.96923e-05" gradientUnits="userSpaceOnUse">
<stop stop-color="#2286DE"/>
<stop offset="1" stop-color="#3AAF75"/>
</linearGradient>
<linearGradient id="paint13_linear_4188_52109" x1="204.512" y1="603.329" x2="204.512" y2="-2.96923e-05" gradientUnits="userSpaceOnUse">
<stop stop-color="#2286DE"/>
<stop offset="1" stop-color="#3AAF75"/>
</linearGradient>
<linearGradient id="paint14_linear_4188_52109" x1="221.512" y1="603.329" x2="221.512" y2="-2.96923e-05" gradientUnits="userSpaceOnUse">
<stop stop-color="#2286DE"/>
<stop offset="1" stop-color="#3AAF75"/>
</linearGradient>
<linearGradient id="paint15_linear_4188_52109" x1="238.512" y1="603.329" x2="238.512" y2="-2.96923e-05" gradientUnits="userSpaceOnUse">
<stop stop-color="#2286DE"/>
<stop offset="1" stop-color="#3AAF75"/>
</linearGradient>
<linearGradient id="paint16_linear_4188_52109" x1="255.512" y1="603.329" x2="255.512" y2="-2.96923e-05" gradientUnits="userSpaceOnUse">
<stop stop-color="#2286DE"/>
<stop offset="1" stop-color="#3AAF75"/>
</linearGradient>
<linearGradient id="paint17_linear_4188_52109" x1="272.512" y1="603.329" x2="272.512" y2="-2.96923e-05" gradientUnits="userSpaceOnUse">
<stop stop-color="#2286DE"/>
<stop offset="1" stop-color="#3AAF75"/>
</linearGradient>
<linearGradient id="paint18_linear_4188_52109" x1="289.512" y1="603.329" x2="289.512" y2="-2.96923e-05" gradientUnits="userSpaceOnUse">
<stop stop-color="#2286DE"/>
<stop offset="1" stop-color="#3AAF75"/>
</linearGradient>
<linearGradient id="paint19_linear_4188_52109" x1="306.512" y1="603.329" x2="306.512" y2="-2.96923e-05" gradientUnits="userSpaceOnUse">
<stop stop-color="#2286DE"/>
<stop offset="1" stop-color="#3AAF75"/>
</linearGradient>
<linearGradient id="paint20_linear_4188_52109" x1="323.512" y1="603.329" x2="323.512" y2="-2.96923e-05" gradientUnits="userSpaceOnUse">
<stop stop-color="#2286DE"/>
<stop offset="1" stop-color="#3AAF75"/>
</linearGradient>
<linearGradient id="paint21_linear_4188_52109" x1="340.512" y1="603.329" x2="340.512" y2="-2.96923e-05" gradientUnits="userSpaceOnUse">
<stop stop-color="#2286DE"/>
<stop offset="1" stop-color="#3AAF75"/>
</linearGradient>
<linearGradient id="paint22_linear_4188_52109" x1="357.512" y1="603.329" x2="357.512" y2="-2.96923e-05" gradientUnits="userSpaceOnUse">
<stop stop-color="#2286DE"/>
<stop offset="1" stop-color="#3AAF75"/>
</linearGradient>
<linearGradient id="paint23_linear_4188_52109" x1="374.512" y1="603.329" x2="374.512" y2="-2.96923e-05" gradientUnits="userSpaceOnUse">
<stop stop-color="#2286DE"/>
<stop offset="1" stop-color="#3AAF75"/>
</linearGradient>
<linearGradient id="paint24_linear_4188_52109" x1="391.512" y1="603.329" x2="391.512" y2="-2.96923e-05" gradientUnits="userSpaceOnUse">
<stop stop-color="#2286DE"/>
<stop offset="1" stop-color="#3AAF75"/>
</linearGradient>
<linearGradient id="paint25_linear_4188_52109" x1="12.5244" y1="9.51219" x2="406" y2="9.51191" gradientUnits="userSpaceOnUse">
<stop stop-color="#2286DE"/>
<stop offset="1" stop-color="#3AAF75"/>
</linearGradient>
<linearGradient id="paint26_linear_4188_52109" x1="12.5244" y1="31.5122" x2="406" y2="31.5119" gradientUnits="userSpaceOnUse">
<stop stop-color="#2286DE"/>
<stop offset="1" stop-color="#3AAF75"/>
</linearGradient>
<linearGradient id="paint27_linear_4188_52109" x1="12.5244" y1="53.5122" x2="406" y2="53.5119" gradientUnits="userSpaceOnUse">
<stop stop-color="#2286DE"/>
<stop offset="1" stop-color="#3AAF75"/>
</linearGradient>
<linearGradient id="paint28_linear_4188_52109" x1="12.5244" y1="75.5122" x2="406" y2="75.5119" gradientUnits="userSpaceOnUse">
<stop stop-color="#2286DE"/>
<stop offset="1" stop-color="#3AAF75"/>
</linearGradient>
<linearGradient id="paint29_linear_4188_52109" x1="12.5244" y1="97.5122" x2="406" y2="97.5119" gradientUnits="userSpaceOnUse">
<stop stop-color="#2286DE"/>
<stop offset="1" stop-color="#3AAF75"/>
</linearGradient>
<linearGradient id="paint30_linear_4188_52109" x1="12.5244" y1="119.512" x2="406" y2="119.512" gradientUnits="userSpaceOnUse">
<stop stop-color="#2286DE"/>
<stop offset="1" stop-color="#3AAF75"/>
</linearGradient>
<linearGradient id="paint31_linear_4188_52109" x1="12.5244" y1="141.512" x2="406" y2="141.512" gradientUnits="userSpaceOnUse">
<stop stop-color="#2286DE"/>
<stop offset="1" stop-color="#3AAF75"/>
</linearGradient>
<linearGradient id="paint32_linear_4188_52109" x1="12.5244" y1="163.512" x2="406" y2="163.512" gradientUnits="userSpaceOnUse">
<stop stop-color="#2286DE"/>
<stop offset="1" stop-color="#3AAF75"/>
</linearGradient>
<linearGradient id="paint33_linear_4188_52109" x1="12.5244" y1="185.512" x2="406" y2="185.512" gradientUnits="userSpaceOnUse">
<stop stop-color="#2286DE"/>
<stop offset="1" stop-color="#3AAF75"/>
</linearGradient>
<linearGradient id="paint34_linear_4188_52109" x1="12.5244" y1="207.512" x2="406" y2="207.512" gradientUnits="userSpaceOnUse">
<stop stop-color="#2286DE"/>
<stop offset="1" stop-color="#3AAF75"/>
</linearGradient>
<linearGradient id="paint35_linear_4188_52109" x1="12.5244" y1="229.512" x2="406" y2="229.512" gradientUnits="userSpaceOnUse">
<stop stop-color="#2286DE"/>
<stop offset="1" stop-color="#3AAF75"/>
</linearGradient>
<linearGradient id="paint36_linear_4188_52109" x1="12.5244" y1="251.512" x2="406" y2="251.512" gradientUnits="userSpaceOnUse">
<stop stop-color="#2286DE"/>
<stop offset="1" stop-color="#3AAF75"/>
</linearGradient>
<linearGradient id="paint37_linear_4188_52109" x1="12.5244" y1="273.512" x2="406" y2="273.512" gradientUnits="userSpaceOnUse">
<stop stop-color="#2286DE"/>
<stop offset="1" stop-color="#3AAF75"/>
</linearGradient>
<linearGradient id="paint38_linear_4188_52109" x1="12.5244" y1="295.512" x2="406" y2="295.512" gradientUnits="userSpaceOnUse">
<stop stop-color="#2286DE"/>
<stop offset="1" stop-color="#3AAF75"/>
</linearGradient>
<linearGradient id="paint39_linear_4188_52109" x1="12.5244" y1="317.512" x2="406" y2="317.512" gradientUnits="userSpaceOnUse">
<stop stop-color="#2286DE"/>
<stop offset="1" stop-color="#3AAF75"/>
</linearGradient>
<linearGradient id="paint40_linear_4188_52109" x1="12.5244" y1="339.512" x2="406" y2="339.512" gradientUnits="userSpaceOnUse">
<stop stop-color="#2286DE"/>
<stop offset="1" stop-color="#3AAF75"/>
</linearGradient>
<linearGradient id="paint41_linear_4188_52109" x1="12.5244" y1="361.512" x2="406" y2="361.512" gradientUnits="userSpaceOnUse">
<stop stop-color="#2286DE"/>
<stop offset="1" stop-color="#3AAF75"/>
</linearGradient>
<linearGradient id="paint42_linear_4188_52109" x1="12.5244" y1="383.512" x2="406" y2="383.512" gradientUnits="userSpaceOnUse">
<stop stop-color="#2286DE"/>
<stop offset="1" stop-color="#3AAF75"/>
</linearGradient>
<linearGradient id="paint43_linear_4188_52109" x1="12.5244" y1="405.512" x2="406" y2="405.512" gradientUnits="userSpaceOnUse">
<stop stop-color="#2286DE"/>
<stop offset="1" stop-color="#3AAF75"/>
</linearGradient>
<linearGradient id="paint44_linear_4188_52109" x1="12.5244" y1="427.512" x2="406" y2="427.512" gradientUnits="userSpaceOnUse">
<stop stop-color="#2286DE"/>
<stop offset="1" stop-color="#3AAF75"/>
</linearGradient>
<linearGradient id="paint45_linear_4188_52109" x1="12.5244" y1="449.512" x2="406" y2="449.512" gradientUnits="userSpaceOnUse">
<stop stop-color="#2286DE"/>
<stop offset="1" stop-color="#3AAF75"/>
</linearGradient>
<linearGradient id="paint46_linear_4188_52109" x1="12.5244" y1="471.512" x2="406" y2="471.512" gradientUnits="userSpaceOnUse">
<stop stop-color="#2286DE"/>
<stop offset="1" stop-color="#3AAF75"/>
</linearGradient>
<linearGradient id="paint47_linear_4188_52109" x1="12.5244" y1="493.512" x2="406" y2="493.512" gradientUnits="userSpaceOnUse">
<stop stop-color="#2286DE"/>
<stop offset="1" stop-color="#3AAF75"/>
</linearGradient>
<linearGradient id="paint48_linear_4188_52109" x1="12.5244" y1="515.512" x2="406" y2="515.512" gradientUnits="userSpaceOnUse">
<stop stop-color="#2286DE"/>
<stop offset="1" stop-color="#3AAF75"/>
</linearGradient>
<linearGradient id="paint49_linear_4188_52109" x1="12.5244" y1="537.512" x2="406" y2="537.512" gradientUnits="userSpaceOnUse">
<stop stop-color="#2286DE"/>
<stop offset="1" stop-color="#3AAF75"/>
</linearGradient>
<linearGradient id="paint50_linear_4188_52109" x1="12.5244" y1="559.512" x2="406" y2="559.512" gradientUnits="userSpaceOnUse">
<stop stop-color="#2286DE"/>
<stop offset="1" stop-color="#3AAF75"/>
</linearGradient>
<linearGradient id="paint51_linear_4188_52109" x1="12.5244" y1="581.512" x2="406" y2="581.512" gradientUnits="userSpaceOnUse">
<stop stop-color="#2286DE"/>
<stop offset="1" stop-color="#3AAF75"/>
</linearGradient>
<linearGradient id="paint52_linear_4188_52109" x1="12.5244" y1="603.514" x2="406" y2="603.514" gradientUnits="userSpaceOnUse">
<stop stop-color="#2286DE"/>
<stop offset="1" stop-color="#3AAF75"/>
</linearGradient>
<linearGradient id="paint53_linear_4188_52109" x1="249.488" y1="351.882" x2="249.488" y2="621" gradientUnits="userSpaceOnUse">
<stop stop-color="#2286DE"/>
<stop offset="1" stop-color="#3AAF75"/>
</linearGradient>
<linearGradient id="paint54_linear_4188_52109" x1="244.341" y1="344.146" x2="256" y2="344.146" gradientUnits="userSpaceOnUse">
<stop stop-color="#2286DE"/>
<stop offset="1" stop-color="#3AAF75"/>
</linearGradient>
</defs>
</svg>
