<svg width="336" height="612" viewBox="0 0 336 612" fill="none" xmlns="http://www.w3.org/2000/svg">
<path d="M43.4958 549.658C43.4958 549.458 43.3333 549.295 43.1328 549.295C42.9323 549.295 42.7698 549.458 42.7698 549.658L43.4958 549.658ZM42.7698 610.956L42.7698 611.318L43.4958 611.318L43.4958 610.956L42.7698 610.956ZM42.7698 549.658L42.7698 610.956L43.4958 610.956L43.4958 549.658L42.7698 549.658Z" fill="url(#paint0_linear_4209_50726)"/>
<path d="M66.2028 549.658C66.2028 549.458 66.0403 549.295 65.8398 549.295C65.6394 549.295 65.4769 549.458 65.4769 549.658L66.2028 549.658ZM65.4769 610.956L65.4769 611.318L66.2028 611.318L66.2028 610.956L65.4769 610.956ZM65.4769 549.658L65.4769 610.956L66.2028 610.956L66.2028 549.658L65.4769 549.658Z" fill="url(#paint1_linear_4209_50726)"/>
<path d="M154.742 549.658C154.742 549.458 154.579 549.295 154.379 549.295C154.178 549.295 154.016 549.458 154.016 549.658L154.742 549.658ZM154.016 610.956L154.016 611.318L154.742 611.318L154.742 610.956L154.016 610.956ZM154.016 549.658L154.016 610.956L154.742 610.956L154.742 549.658L154.016 549.658Z" fill="url(#paint2_linear_4209_50726)"/>
<path d="M199.011 549.658C199.011 549.458 198.849 549.295 198.648 549.295C198.448 549.295 198.285 549.458 198.285 549.658L199.011 549.658ZM198.285 610.956L198.285 611.318L199.011 611.318L199.011 610.956L198.285 610.956ZM198.285 549.658L198.285 610.956L199.011 610.956L199.011 549.658L198.285 549.658Z" fill="url(#paint3_linear_4209_50726)"/>
<path d="M228.523 549.658C228.523 549.458 228.361 549.295 228.16 549.295C227.96 549.295 227.797 549.458 227.797 549.658L228.523 549.658ZM227.797 610.956L227.797 611.318L228.523 611.318L228.523 610.956L227.797 610.956ZM227.797 549.658L227.797 610.956L228.523 610.956L228.523 549.658L227.797 549.658Z" fill="url(#paint4_linear_4209_50726)"/>
<rect width="336" height="611.838" rx="9.08108" fill="#232323"/>
<line opacity="0.03" x1="3.72156" y1="374.824" x2="3.72157" y2="609.851" stroke="url(#paint5_linear_4209_50726)" stroke-width="0.232187"/>
<line opacity="0.03" x1="18.4442" y1="395.639" x2="18.4442" y2="609.849" stroke="url(#paint6_linear_4209_50726)" stroke-width="0.232187"/>
<line opacity="0.03" x1="33.1708" y1="415.785" x2="33.1708" y2="609.85" stroke="url(#paint7_linear_4209_50726)" stroke-width="0.232187"/>
<line opacity="0.03" x1="47.8973" y1="419.818" x2="47.8974" y2="609.854" stroke="url(#paint8_linear_4209_50726)" stroke-width="0.232187"/>
<line opacity="0.03" x1="62.62" y1="411.084" x2="62.62" y2="609.85" stroke="url(#paint9_linear_4209_50726)" stroke-width="0.232187"/>
<line opacity="0.03" x1="77.3466" y1="428.543" x2="77.3466" y2="609.849" stroke="url(#paint10_linear_4209_50726)" stroke-width="0.232187"/>
<line opacity="0.03" x1="92.0731" y1="447.344" x2="92.0731" y2="609.848" stroke="url(#paint11_linear_4209_50726)" stroke-width="0.232187"/>
<line opacity="0.03" x1="106.796" y1="466.818" x2="106.796" y2="609.849" stroke="url(#paint12_linear_4209_50726)" stroke-width="0.232187"/>
<line opacity="0.03" x1="121.522" y1="484.277" x2="121.522" y2="609.849" stroke="url(#paint13_linear_4209_50726)" stroke-width="0.232187"/>
<line opacity="0.03" x1="136.253" y1="482.936" x2="136.253" y2="609.85" stroke="url(#paint14_linear_4209_50726)" stroke-width="0.232187"/>
<line opacity="0.03" x1="150.979" y1="480.25" x2="150.979" y2="609.851" stroke="url(#paint15_linear_4209_50726)" stroke-width="0.232187"/>
<line opacity="0.03" x1="165.706" y1="489.652" x2="165.706" y2="609.852" stroke="url(#paint16_linear_4209_50726)" stroke-width="0.232187"/>
<line opacity="0.03" x1="180.432" y1="430.557" x2="180.433" y2="609.849" stroke="url(#paint17_linear_4209_50726)" stroke-width="0.232187"/>
<line opacity="0.03" x1="195.155" y1="452.045" x2="195.155" y2="609.849" stroke="url(#paint18_linear_4209_50726)" stroke-width="0.232187"/>
<line opacity="0.03" x1="209.886" y1="472.191" x2="209.886" y2="609.85" stroke="url(#paint19_linear_4209_50726)" stroke-width="0.232187"/>
<line opacity="0.03" x1="224.608" y1="472.191" x2="224.608" y2="609.85" stroke="url(#paint20_linear_4209_50726)" stroke-width="0.232187"/>
<line opacity="0.03" x1="239.331" y1="439.957" x2="239.331" y2="609.848" stroke="url(#paint21_linear_4209_50726)" stroke-width="0.232187"/>
<line opacity="0.03" x1="254.061" y1="408.398" x2="254.061" y2="609.85" stroke="url(#paint22_linear_4209_50726)" stroke-width="0.232187"/>
<line opacity="0.03" x1="268.784" y1="399.672" x2="268.784" y2="609.853" stroke="url(#paint23_linear_4209_50726)" stroke-width="0.232187"/>
<line opacity="0.03" x1="283.511" y1="411.758" x2="283.511" y2="609.852" stroke="url(#paint24_linear_4209_50726)" stroke-width="0.232187"/>
<line opacity="0.03" x1="298.241" y1="424.518" x2="298.241" y2="609.853" stroke="url(#paint25_linear_4209_50726)" stroke-width="0.232187"/>
<line opacity="0.03" x1="312.972" y1="414.443" x2="312.972" y2="609.852" stroke="url(#paint26_linear_4209_50726)" stroke-width="0.232187"/>
<line opacity="0.03" x1="327.69" y1="392.285" x2="327.69" y2="609.853" stroke="url(#paint27_linear_4209_50726)" stroke-width="0.232187"/>
<g opacity="0.05">
<line x1="-2.66104e-08" y1="587.696" x2="336" y2="587.696" stroke="url(#paint28_linear_4209_50726)" stroke-width="0.608034"/>
<line x1="-2.66104e-08" y1="562.696" x2="336" y2="562.696" stroke="url(#paint29_linear_4209_50726)" stroke-width="0.608034"/>
<line x1="-2.66104e-08" y1="538.696" x2="336" y2="538.696" stroke="url(#paint30_linear_4209_50726)" stroke-width="0.608034"/>
<line x1="-2.66104e-08" y1="514.696" x2="336" y2="514.696" stroke="url(#paint31_linear_4209_50726)" stroke-width="0.608034"/>
<line x1="-2.66104e-08" y1="489.696" x2="336" y2="489.696" stroke="url(#paint32_linear_4209_50726)" stroke-width="0.608034"/>
<line x1="-2.66104e-08" y1="465.696" x2="336" y2="465.696" stroke="url(#paint33_linear_4209_50726)" stroke-width="0.608034"/>
<line x1="-2.66104e-08" y1="441.696" x2="336" y2="441.696" stroke="url(#paint34_linear_4209_50726)" stroke-width="0.608034"/>
<line x1="-2.66104e-08" y1="416.696" x2="336" y2="416.696" stroke="url(#paint35_linear_4209_50726)" stroke-width="0.608034"/>
<line x1="-2.66104e-08" y1="392.696" x2="336" y2="392.696" stroke="url(#paint36_linear_4209_50726)" stroke-width="0.608034"/>
<line x1="-2.66104e-08" y1="368.696" x2="336" y2="368.696" stroke="url(#paint37_linear_4209_50726)" stroke-width="0.608034"/>
<line x1="-2.66104e-08" y1="343.696" x2="336" y2="343.696" stroke="url(#paint38_linear_4209_50726)" stroke-width="0.608034"/>
<line x1="-2.66104e-08" y1="319.696" x2="336" y2="319.696" stroke="url(#paint39_linear_4209_50726)" stroke-width="0.608034"/>
<line x1="-2.66104e-08" y1="295.696" x2="336" y2="295.696" stroke="url(#paint40_linear_4209_50726)" stroke-width="0.608034"/>
<line x1="-2.66104e-08" y1="270.696" x2="336" y2="270.696" stroke="url(#paint41_linear_4209_50726)" stroke-width="0.608034"/>
<line x1="-2.66104e-08" y1="246.696" x2="336" y2="246.696" stroke="url(#paint42_linear_4209_50726)" stroke-width="0.608034"/>
<line x1="-2.66104e-08" y1="222.696" x2="336" y2="222.696" stroke="url(#paint43_linear_4209_50726)" stroke-width="0.608034"/>
<line x1="-2.66104e-08" y1="198.696" x2="336" y2="198.696" stroke="url(#paint44_linear_4209_50726)" stroke-width="0.608034"/>
<line x1="-2.66104e-08" y1="173.696" x2="336" y2="173.696" stroke="url(#paint45_linear_4209_50726)" stroke-width="0.608034"/>
<line x1="-2.66104e-08" y1="149.696" x2="336" y2="149.696" stroke="url(#paint46_linear_4209_50726)" stroke-width="0.608034"/>
<line x1="-2.66104e-08" y1="125.696" x2="336" y2="125.696" stroke="url(#paint47_linear_4209_50726)" stroke-width="0.608034"/>
<line x1="-2.66104e-08" y1="100.696" x2="336" y2="100.696" stroke="url(#paint48_linear_4209_50726)" stroke-width="0.608034"/>
<line x1="-2.66104e-08" y1="76.696" x2="336" y2="76.696" stroke="url(#paint49_linear_4209_50726)" stroke-width="0.608034"/>
<line x1="-2.66104e-08" y1="52.696" x2="336" y2="52.696" stroke="url(#paint50_linear_4209_50726)" stroke-width="0.608034"/>
<line x1="-2.66104e-08" y1="27.696" x2="336" y2="27.696" stroke="url(#paint51_linear_4209_50726)" stroke-width="0.608034"/>
<line x1="20.1296" y1="606.195" x2="20.1296" y2="1.16827" stroke="url(#paint52_linear_4209_50726)" stroke-width="0.608034"/>
<line x1="39.4225" y1="606.195" x2="39.4226" y2="1.16827" stroke="url(#paint53_linear_4209_50726)" stroke-width="0.608034"/>
<line x1="58.7233" y1="606.195" x2="58.7234" y2="1.16827" stroke="url(#paint54_linear_4209_50726)" stroke-width="0.608034"/>
<line x1="78.0202" y1="606.195" x2="78.0202" y2="1.16827" stroke="url(#paint55_linear_4209_50726)" stroke-width="0.608034"/>
<line x1="98.4538" y1="606.195" x2="98.4538" y2="1.16827" stroke="url(#paint56_linear_4209_50726)" stroke-width="0.608034"/>
<line x1="117.751" y1="606.195" x2="117.751" y2="1.16827" stroke="url(#paint57_linear_4209_50726)" stroke-width="0.608034"/>
<line x1="137.048" y1="606.195" x2="137.048" y2="1.16827" stroke="url(#paint58_linear_4209_50726)" stroke-width="0.608034"/>
<line x1="156.344" y1="606.195" x2="156.344" y2="1.16827" stroke="url(#paint59_linear_4209_50726)" stroke-width="0.608034"/>
<line x1="175.641" y1="606.195" x2="175.641" y2="1.16827" stroke="url(#paint60_linear_4209_50726)" stroke-width="0.608034"/>
<line x1="194.938" y1="606.195" x2="194.938" y2="1.16827" stroke="url(#paint61_linear_4209_50726)" stroke-width="0.608034"/>
<line x1="214.235" y1="606.195" x2="214.235" y2="1.16827" stroke="url(#paint62_linear_4209_50726)" stroke-width="0.608034"/>
<line x1="234.669" y1="606.195" x2="234.669" y2="1.16827" stroke="url(#paint63_linear_4209_50726)" stroke-width="0.608034"/>
<line x1="253.969" y1="606.195" x2="253.969" y2="1.16827" stroke="url(#paint64_linear_4209_50726)" stroke-width="0.608034"/>
<line x1="273.262" y1="606.195" x2="273.262" y2="1.16827" stroke="url(#paint65_linear_4209_50726)" stroke-width="0.608034"/>
<line x1="292.563" y1="606.195" x2="292.563" y2="1.16827" stroke="url(#paint66_linear_4209_50726)" stroke-width="0.608034"/>
<line x1="311.856" y1="606.195" x2="311.856" y2="1.16827" stroke="url(#paint67_linear_4209_50726)" stroke-width="0.608034"/>
</g>
<circle opacity="0.5" cx="261.084" cy="392.487" r="6.65636" fill="url(#paint68_linear_4209_50726)" stroke="#C7C6C6" stroke-width="0.308904"/>
<path opacity="0.1" d="M262.082 392.756C262.082 392.204 261.634 391.756 261.082 391.756C260.53 391.756 260.082 392.204 260.082 392.756L262.082 392.756ZM260.082 609.567L260.082 610.567L262.082 610.567L262.082 609.567L260.082 609.567ZM260.082 392.756L260.082 609.567L262.082 609.567L262.082 392.756L260.082 392.756Z" fill="url(#paint69_linear_4209_50726)"/>
<g opacity="0.2">
<path d="M11.3483 604C11.3483 603.808 11.1923 603.652 11 603.652C10.8077 603.652 10.6517 603.808 10.6517 604L11.3483 604ZM10.6517 611L10.6517 611.348L11.3483 611.348L11.3483 611L10.6517 611ZM10.6517 604L10.6517 611L11.3483 611L11.3483 604L10.6517 604Z" fill="url(#paint70_linear_4209_50726)"/>
<path d="M18.3483 604C18.3483 603.808 18.1923 603.652 18 603.652C17.8077 603.652 17.6517 603.808 17.6517 604L18.3483 604ZM17.6517 611L17.6517 611.348L18.3483 611.348L18.3483 611L17.6517 611ZM17.6517 604L17.6517 611L18.3483 611L18.3483 604L17.6517 604Z" fill="url(#paint71_linear_4209_50726)"/>
<path d="M25.3483 597C25.3483 596.808 25.1923 596.652 25 596.652C24.8077 596.652 24.6517 596.808 24.6517 597L25.3483 597ZM24.6517 611L24.6517 611.348L25.3483 611.348L25.3483 611L24.6517 611ZM24.6517 597L24.6517 611L25.3483 611L25.3483 597L24.6517 597Z" fill="url(#paint72_linear_4209_50726)"/>
<path d="M32.3483 583C32.3483 582.808 32.1923 582.652 32 582.652C31.8077 582.652 31.6517 582.808 31.6517 583L32.3483 583ZM31.6517 611L31.6517 611.348L32.3483 611.348L32.3483 611L31.6517 611ZM31.6517 583L31.6517 611L32.3483 611L32.3483 583L31.6517 583Z" fill="url(#paint73_linear_4209_50726)"/>
<path d="M39.3483 589C39.3483 588.808 39.1923 588.652 39 588.652C38.8077 588.652 38.6517 588.808 38.6517 589L39.3483 589ZM38.6517 611L38.6517 611.348L39.3483 611.348L39.3483 611L38.6517 611ZM38.6517 589L38.6517 611L39.3483 611L39.3483 589L38.6517 589Z" fill="url(#paint74_linear_4209_50726)"/>
<path d="M46.3483 569C46.3483 568.808 46.1923 568.652 46 568.652C45.8077 568.652 45.6517 568.808 45.6517 569L46.3483 569ZM45.6517 611L45.6517 611.348L46.3483 611.348L46.3483 611L45.6517 611ZM45.6517 569L45.6517 611L46.3483 611L46.3483 569L45.6517 569Z" fill="url(#paint75_linear_4209_50726)"/>
<path d="M53.3483 597C53.3483 596.808 53.1923 596.652 53 596.652C52.8077 596.652 52.6517 596.808 52.6517 597L53.3483 597ZM52.6517 611L52.6517 611.348L53.3483 611.348L53.3483 611L52.6517 611ZM52.6517 597L52.6517 611L53.3483 611L53.3483 597L52.6517 597Z" fill="url(#paint76_linear_4209_50726)"/>
<path d="M60.3483 580C60.3483 579.808 60.1923 579.652 60 579.652C59.8077 579.652 59.6517 579.808 59.6517 580L60.3483 580ZM59.6517 611L59.6517 611.348L60.3483 611.348L60.3483 611L59.6517 611ZM59.6517 580L59.6517 611L60.3483 611L60.3483 580L59.6517 580Z" fill="url(#paint77_linear_4209_50726)"/>
<path d="M67.3483 569C67.3483 568.808 67.1923 568.652 67 568.652C66.8077 568.652 66.6517 568.808 66.6517 569L67.3483 569ZM66.6517 611L66.6517 611.348L67.3483 611.348L67.3483 611L66.6517 611ZM66.6517 569L66.6517 611L67.3483 611L67.3483 569L66.6517 569Z" fill="url(#paint78_linear_4209_50726)"/>
<path d="M74.3483 583C74.3483 582.808 74.1923 582.652 74 582.652C73.8077 582.652 73.6517 582.808 73.6517 583L74.3483 583ZM73.6517 611L73.6517 611.348L74.3483 611.348L74.3483 611L73.6517 611ZM73.6517 583L73.6517 611L74.3483 611L74.3483 583L73.6517 583Z" fill="url(#paint79_linear_4209_50726)"/>
<path d="M81.3483 597C81.3483 596.808 81.1923 596.652 81 596.652C80.8077 596.652 80.6517 596.808 80.6517 597L81.3483 597ZM80.6517 611L80.6517 611.348L81.3483 611.348L81.3483 611L80.6517 611ZM80.6517 597L80.6517 611L81.3483 611L81.3483 597L80.6517 597Z" fill="url(#paint80_linear_4209_50726)"/>
<path d="M88.3483 604C88.3483 603.808 88.1923 603.652 88 603.652C87.8077 603.652 87.6517 603.808 87.6517 604L88.3483 604ZM87.6517 611L87.6517 611.348L88.3483 611.348L88.3483 611L87.6517 611ZM87.6517 604L87.6517 611L88.3483 611L88.3483 604L87.6517 604Z" fill="url(#paint81_linear_4209_50726)"/>
<path d="M95.3483 586C95.3483 585.808 95.1923 585.652 95 585.652C94.8077 585.652 94.6517 585.808 94.6517 586L95.3483 586ZM94.6517 611L94.6517 611.348L95.3483 611.348L95.3483 611L94.6517 611ZM94.6517 586L94.6517 611L95.3483 611L95.3483 586L94.6517 586Z" fill="url(#paint82_linear_4209_50726)"/>
<path d="M102.348 576C102.348 575.808 102.192 575.652 102 575.652C101.808 575.652 101.652 575.808 101.652 576L102.348 576ZM101.652 611L101.652 611.348L102.348 611.348L102.348 611L101.652 611ZM101.652 576L101.652 611L102.348 611L102.348 576L101.652 576Z" fill="url(#paint83_linear_4209_50726)"/>
<path d="M109.348 593C109.348 592.808 109.192 592.652 109 592.652C108.808 592.652 108.652 592.808 108.652 593L109.348 593ZM108.652 611L108.652 611.348L109.348 611.348L109.348 611L108.652 611ZM108.652 593L108.652 611L109.348 611L109.348 593L108.652 593Z" fill="url(#paint84_linear_4209_50726)"/>
<path d="M116.348 593C116.348 592.808 116.192 592.652 116 592.652C115.808 592.652 115.652 592.808 115.652 593L116.348 593ZM115.652 611L115.652 611.348L116.348 611.348L116.348 611L115.652 611ZM115.652 593L115.652 611L116.348 611L116.348 593L115.652 593Z" fill="url(#paint85_linear_4209_50726)"/>
<path d="M123.348 586C123.348 585.808 123.192 585.652 123 585.652C122.808 585.652 122.652 585.808 122.652 586L123.348 586ZM122.652 611L122.652 611.348L123.348 611.348L123.348 611L122.652 611ZM122.652 586L122.652 611L123.348 611L123.348 586L122.652 586Z" fill="url(#paint86_linear_4209_50726)"/>
<path d="M130.348 599C130.348 598.808 130.192 598.652 130 598.652C129.808 598.652 129.652 598.808 129.652 599L130.348 599ZM129.652 611L129.652 611.348L130.348 611.348L130.348 611L129.652 611ZM129.652 599L129.652 611L130.348 611L130.348 599L129.652 599Z" fill="url(#paint87_linear_4209_50726)"/>
<path d="M137.348 589C137.348 588.808 137.192 588.652 137 588.652C136.808 588.652 136.652 588.808 136.652 589L137.348 589ZM136.652 611L136.652 611.348L137.348 611.348L137.348 611L136.652 611ZM136.652 589L136.652 611L137.348 611L137.348 589L136.652 589Z" fill="url(#paint88_linear_4209_50726)"/>
<path d="M144.348 579C144.348 578.808 144.192 578.652 144 578.652C143.808 578.652 143.652 578.808 143.652 579L144.348 579ZM143.652 611L143.652 611.348L144.348 611.348L144.348 611L143.652 611ZM143.652 579L143.652 611L144.348 611L144.348 579L143.652 579Z" fill="url(#paint89_linear_4209_50726)"/>
<path d="M151.348 569C151.348 568.808 151.192 568.652 151 568.652C150.808 568.652 150.652 568.808 150.652 569L151.348 569ZM150.652 611L150.652 611.348L151.348 611.348L151.348 611L150.652 611ZM150.652 569L150.652 611L151.348 611L151.348 569L150.652 569Z" fill="url(#paint90_linear_4209_50726)"/>
<path d="M158.348 576C158.348 575.808 158.192 575.652 158 575.652C157.808 575.652 157.652 575.808 157.652 576L158.348 576ZM157.652 611L157.652 611.348L158.348 611.348L158.348 611L157.652 611ZM157.652 576L157.652 611L158.348 611L158.348 576L157.652 576Z" fill="url(#paint91_linear_4209_50726)"/>
<path d="M165.348 583C165.348 582.808 165.192 582.652 165 582.652C164.808 582.652 164.652 582.808 164.652 583L165.348 583ZM164.652 611L164.652 611.348L165.348 611.348L165.348 611L164.652 611ZM164.652 583L164.652 611L165.348 611L165.348 583L164.652 583Z" fill="url(#paint92_linear_4209_50726)"/>
<path d="M172.348 589C172.348 588.808 172.192 588.652 172 588.652C171.808 588.652 171.652 588.808 171.652 589L172.348 589ZM171.652 611L171.652 611.348L172.348 611.348L172.348 611L171.652 611ZM171.652 589L171.652 611L172.348 611L172.348 589L171.652 589Z" fill="url(#paint93_linear_4209_50726)"/>
<path d="M179.348 599C179.348 598.808 179.192 598.652 179 598.652C178.808 598.652 178.652 598.808 178.652 599L179.348 599ZM178.652 611L178.652 611.348L179.348 611.348L179.348 611L178.652 611ZM178.652 599L178.652 611L179.348 611L179.348 599L178.652 599Z" fill="url(#paint94_linear_4209_50726)"/>
<path d="M186.348 605C186.348 604.808 186.192 604.652 186 604.652C185.808 604.652 185.652 604.808 185.652 605L186.348 605ZM185.652 611L185.652 611.348L186.348 611.348L186.348 611L185.652 611ZM185.652 605L185.652 611L186.348 611L186.348 605L185.652 605Z" fill="url(#paint95_linear_4209_50726)"/>
<path d="M193.348 569C193.348 568.808 193.192 568.652 193 568.652C192.808 568.652 192.652 568.808 192.652 569L193.348 569ZM192.652 611L192.652 611.348L193.348 611.348L193.348 611L192.652 611ZM192.652 569L192.652 611L193.348 611L193.348 569L192.652 569Z" fill="url(#paint96_linear_4209_50726)"/>
<path d="M200.348 586C200.348 585.808 200.192 585.652 200 585.652C199.808 585.652 199.652 585.808 199.652 586L200.348 586ZM199.652 611L199.652 611.348L200.348 611.348L200.348 611L199.652 611ZM199.652 586L199.652 611L200.348 611L200.348 586L199.652 586Z" fill="url(#paint97_linear_4209_50726)"/>
<path d="M207.348 594C207.348 593.808 207.192 593.652 207 593.652C206.808 593.652 206.652 593.808 206.652 594L207.348 594ZM206.652 611L206.652 611.348L207.348 611.348L207.348 611L206.652 611ZM206.652 594L206.652 611L207.348 611L207.348 594L206.652 594Z" fill="url(#paint98_linear_4209_50726)"/>
<path d="M214.348 586C214.348 585.808 214.192 585.652 214 585.652C213.808 585.652 213.652 585.808 213.652 586L214.348 586ZM213.652 611L213.652 611.348L214.348 611.348L214.348 611L213.652 611ZM213.652 586L213.652 611L214.348 611L214.348 586L213.652 586Z" fill="url(#paint99_linear_4209_50726)"/>
<path d="M221.348 569C221.348 568.808 221.192 568.652 221 568.652C220.808 568.652 220.652 568.808 220.652 569L221.348 569ZM220.652 611L220.652 611.348L221.348 611.348L221.348 611L220.652 611ZM220.652 569L220.652 611L221.348 611L221.348 569L220.652 569Z" fill="url(#paint100_linear_4209_50726)"/>
<path d="M228.348 583C228.348 582.808 228.192 582.652 228 582.652C227.808 582.652 227.652 582.808 227.652 583L228.348 583ZM227.652 611L227.652 611.348L228.348 611.348L228.348 611L227.652 611ZM227.652 583L227.652 611L228.348 611L228.348 583L227.652 583Z" fill="url(#paint101_linear_4209_50726)"/>
<path d="M235.348 589C235.348 588.808 235.192 588.652 235 588.652C234.808 588.652 234.652 588.808 234.652 589L235.348 589ZM234.652 611L234.652 611.348L235.348 611.348L235.348 611L234.652 611ZM234.652 589L234.652 611L235.348 611L235.348 589L234.652 589Z" fill="url(#paint102_linear_4209_50726)"/>
<path d="M242.348 589C242.348 588.808 242.192 588.652 242 588.652C241.808 588.652 241.652 588.808 241.652 589L242.348 589ZM241.652 611L241.652 611.348L242.348 611.348L242.348 611L241.652 611ZM241.652 589L241.652 611L242.348 611L242.348 589L241.652 589Z" fill="url(#paint103_linear_4209_50726)"/>
<path d="M249.348 583C249.348 582.808 249.192 582.652 249 582.652C248.808 582.652 248.652 582.808 248.652 583L249.348 583ZM248.652 611L248.652 611.348L249.348 611.348L249.348 611L248.652 611ZM248.652 583L248.652 611L249.348 611L249.348 583L248.652 583Z" fill="url(#paint104_linear_4209_50726)"/>
<path d="M256.348 603C256.348 602.808 256.192 602.652 256 602.652C255.808 602.652 255.652 602.808 255.652 603L256.348 603ZM255.652 611L255.652 611.348L256.348 611.348L256.348 611L255.652 611ZM255.652 603L255.652 611L256.348 611L256.348 603L255.652 603Z" fill="url(#paint105_linear_4209_50726)"/>
<path d="M263.348 600C263.348 599.808 263.192 599.652 263 599.652C262.808 599.652 262.652 599.808 262.652 600L263.348 600ZM262.652 611L262.652 611.348L263.348 611.348L263.348 611L262.652 611ZM262.652 600L262.652 611L263.348 611L263.348 600L262.652 600Z" fill="url(#paint106_linear_4209_50726)"/>
<path d="M270.348 608C270.348 607.808 270.192 607.652 270 607.652C269.808 607.652 269.652 607.808 269.652 608L270.348 608ZM269.652 611L269.652 611.348L270.348 611.348L270.348 611L269.652 611ZM269.652 608L269.652 611L270.348 611L270.348 608L269.652 608Z" fill="url(#paint107_linear_4209_50726)"/>
<path d="M277.348 603C277.348 602.808 277.192 602.652 277 602.652C276.808 602.652 276.652 602.808 276.652 603L277.348 603ZM276.652 611L276.652 611.348L277.348 611.348L277.348 611L276.652 611ZM276.652 603L276.652 611L277.348 611L277.348 603L276.652 603Z" fill="url(#paint108_linear_4209_50726)"/>
<path d="M284.348 600C284.348 599.808 284.192 599.652 284 599.652C283.808 599.652 283.652 599.808 283.652 600L284.348 600ZM283.652 611L283.652 611.348L284.348 611.348L284.348 611L283.652 611ZM283.652 600L283.652 611L284.348 611L284.348 600L283.652 600Z" fill="url(#paint109_linear_4209_50726)"/>
<path d="M291.348 600C291.348 599.808 291.192 599.652 291 599.652C290.808 599.652 290.652 599.808 290.652 600L291.348 600ZM290.652 611L290.652 611.348L291.348 611.348L291.348 611L290.652 611ZM290.652 600L290.652 611L291.348 611L291.348 600L290.652 600Z" fill="url(#paint110_linear_4209_50726)"/>
<path d="M298.348 589C298.348 588.808 298.192 588.652 298 588.652C297.808 588.652 297.652 588.808 297.652 589L298.348 589ZM297.652 611L297.652 611.348L298.348 611.348L298.348 611L297.652 611ZM297.652 589L297.652 611L298.348 611L298.348 589L297.652 589Z" fill="url(#paint111_linear_4209_50726)"/>
<path d="M305.348 586C305.348 585.808 305.192 585.652 305 585.652C304.808 585.652 304.652 585.808 304.652 586L305.348 586ZM304.652 611L304.652 611.348L305.348 611.348L305.348 611L304.652 611ZM304.652 586L304.652 611L305.348 611L305.348 586L304.652 586Z" fill="url(#paint112_linear_4209_50726)"/>
<path d="M312.348 583C312.348 582.808 312.192 582.652 312 582.652C311.808 582.652 311.652 582.808 311.652 583L312.348 583ZM311.652 611L311.652 611.348L312.348 611.348L312.348 611L311.652 611ZM311.652 583L311.652 611L312.348 611L312.348 583L311.652 583Z" fill="url(#paint113_linear_4209_50726)"/>
<path d="M319.348 569C319.348 568.808 319.192 568.652 319 568.652C318.808 568.652 318.652 568.808 318.652 569L319.348 569ZM318.652 611L318.652 611.348L319.348 611.348L319.348 611L318.652 611ZM318.652 569L318.652 611L319.348 611L319.348 569L318.652 569Z" fill="url(#paint114_linear_4209_50726)"/>
</g>
<defs>
<linearGradient id="paint0_linear_4209_50726" x1="42.6206" y1="551.402" x2="42.6206" y2="610.956" gradientUnits="userSpaceOnUse">
<stop stop-color="#2286DE"/>
<stop offset="1" stop-color="#3AAF75"/>
</linearGradient>
<linearGradient id="paint1_linear_4209_50726" x1="65.3276" y1="551.402" x2="65.3276" y2="610.956" gradientUnits="userSpaceOnUse">
<stop stop-color="#2286DE"/>
<stop offset="1" stop-color="#3AAF75"/>
</linearGradient>
<linearGradient id="paint2_linear_4209_50726" x1="153.867" y1="551.402" x2="153.867" y2="610.956" gradientUnits="userSpaceOnUse">
<stop stop-color="#2286DE"/>
<stop offset="1" stop-color="#3AAF75"/>
</linearGradient>
<linearGradient id="paint3_linear_4209_50726" x1="198.136" y1="551.402" x2="198.136" y2="610.956" gradientUnits="userSpaceOnUse">
<stop stop-color="#2286DE"/>
<stop offset="1" stop-color="#3AAF75"/>
</linearGradient>
<linearGradient id="paint4_linear_4209_50726" x1="227.648" y1="551.402" x2="227.648" y2="610.956" gradientUnits="userSpaceOnUse">
<stop stop-color="#2286DE"/>
<stop offset="1" stop-color="#3AAF75"/>
</linearGradient>
<linearGradient id="paint5_linear_4209_50726" x1="3.09327" y1="381.512" x2="3.09337" y2="609.851" gradientUnits="userSpaceOnUse">
<stop stop-color="#2286DE"/>
<stop offset="1" stop-color="#3AAF75"/>
</linearGradient>
<linearGradient id="paint6_linear_4209_50726" x1="17.8159" y1="401.734" x2="17.816" y2="609.849" gradientUnits="userSpaceOnUse">
<stop stop-color="#2286DE"/>
<stop offset="1" stop-color="#3AAF75"/>
</linearGradient>
<linearGradient id="paint7_linear_4209_50726" x1="32.5425" y1="421.307" x2="32.5426" y2="609.85" gradientUnits="userSpaceOnUse">
<stop stop-color="#2286DE"/>
<stop offset="1" stop-color="#3AAF75"/>
</linearGradient>
<linearGradient id="paint8_linear_4209_50726" x1="47.2691" y1="425.226" x2="47.2691" y2="609.854" gradientUnits="userSpaceOnUse">
<stop stop-color="#2286DE"/>
<stop offset="1" stop-color="#3AAF75"/>
</linearGradient>
<linearGradient id="paint9_linear_4209_50726" x1="61.9917" y1="416.74" x2="61.9918" y2="609.85" gradientUnits="userSpaceOnUse">
<stop stop-color="#2286DE"/>
<stop offset="1" stop-color="#3AAF75"/>
</linearGradient>
<linearGradient id="paint10_linear_4209_50726" x1="76.7183" y1="433.702" x2="76.7183" y2="609.85" gradientUnits="userSpaceOnUse">
<stop stop-color="#2286DE"/>
<stop offset="1" stop-color="#3AAF75"/>
</linearGradient>
<linearGradient id="paint11_linear_4209_50726" x1="91.4448" y1="451.968" x2="91.4449" y2="609.848" gradientUnits="userSpaceOnUse">
<stop stop-color="#2286DE"/>
<stop offset="1" stop-color="#3AAF75"/>
</linearGradient>
<linearGradient id="paint12_linear_4209_50726" x1="106.167" y1="470.888" x2="106.168" y2="609.849" gradientUnits="userSpaceOnUse">
<stop stop-color="#2286DE"/>
<stop offset="1" stop-color="#3AAF75"/>
</linearGradient>
<linearGradient id="paint13_linear_4209_50726" x1="120.894" y1="487.851" x2="120.894" y2="609.849" gradientUnits="userSpaceOnUse">
<stop stop-color="#2286DE"/>
<stop offset="1" stop-color="#3AAF75"/>
</linearGradient>
<linearGradient id="paint14_linear_4209_50726" x1="135.625" y1="486.547" x2="135.625" y2="609.85" gradientUnits="userSpaceOnUse">
<stop stop-color="#2286DE"/>
<stop offset="1" stop-color="#3AAF75"/>
</linearGradient>
<linearGradient id="paint15_linear_4209_50726" x1="150.351" y1="483.938" x2="150.351" y2="609.851" gradientUnits="userSpaceOnUse">
<stop stop-color="#2286DE"/>
<stop offset="1" stop-color="#3AAF75"/>
</linearGradient>
<linearGradient id="paint16_linear_4209_50726" x1="165.078" y1="493.073" x2="165.078" y2="609.852" gradientUnits="userSpaceOnUse">
<stop stop-color="#2286DE"/>
<stop offset="1" stop-color="#3AAF75"/>
</linearGradient>
<linearGradient id="paint17_linear_4209_50726" x1="179.804" y1="435.658" x2="179.804" y2="609.849" gradientUnits="userSpaceOnUse">
<stop stop-color="#2286DE"/>
<stop offset="1" stop-color="#3AAF75"/>
</linearGradient>
<linearGradient id="paint18_linear_4209_50726" x1="194.527" y1="456.535" x2="194.527" y2="609.849" gradientUnits="userSpaceOnUse">
<stop stop-color="#2286DE"/>
<stop offset="1" stop-color="#3AAF75"/>
</linearGradient>
<linearGradient id="paint19_linear_4209_50726" x1="209.257" y1="476.109" x2="209.257" y2="609.85" gradientUnits="userSpaceOnUse">
<stop stop-color="#2286DE"/>
<stop offset="1" stop-color="#3AAF75"/>
</linearGradient>
<linearGradient id="paint20_linear_4209_50726" x1="223.98" y1="476.109" x2="223.98" y2="609.85" gradientUnits="userSpaceOnUse">
<stop stop-color="#2286DE"/>
<stop offset="1" stop-color="#3AAF75"/>
</linearGradient>
<linearGradient id="paint21_linear_4209_50726" x1="238.703" y1="444.791" x2="238.703" y2="609.848" gradientUnits="userSpaceOnUse">
<stop stop-color="#2286DE"/>
<stop offset="1" stop-color="#3AAF75"/>
</linearGradient>
<linearGradient id="paint22_linear_4209_50726" x1="253.433" y1="414.131" x2="253.433" y2="609.85" gradientUnits="userSpaceOnUse">
<stop stop-color="#2286DE"/>
<stop offset="1" stop-color="#3AAF75"/>
</linearGradient>
<linearGradient id="paint23_linear_4209_50726" x1="268.156" y1="405.653" x2="268.156" y2="609.853" gradientUnits="userSpaceOnUse">
<stop stop-color="#2286DE"/>
<stop offset="1" stop-color="#3AAF75"/>
</linearGradient>
<linearGradient id="paint24_linear_4209_50726" x1="282.882" y1="417.395" x2="282.882" y2="609.852" gradientUnits="userSpaceOnUse">
<stop stop-color="#2286DE"/>
<stop offset="1" stop-color="#3AAF75"/>
</linearGradient>
<linearGradient id="paint25_linear_4209_50726" x1="297.613" y1="429.791" x2="297.613" y2="609.853" gradientUnits="userSpaceOnUse">
<stop stop-color="#2286DE"/>
<stop offset="1" stop-color="#3AAF75"/>
</linearGradient>
<linearGradient id="paint26_linear_4209_50726" x1="312.343" y1="420.004" x2="312.343" y2="609.852" gradientUnits="userSpaceOnUse">
<stop stop-color="#2286DE"/>
<stop offset="1" stop-color="#3AAF75"/>
</linearGradient>
<linearGradient id="paint27_linear_4209_50726" x1="327.062" y1="398.476" x2="327.062" y2="609.853" gradientUnits="userSpaceOnUse">
<stop stop-color="#2286DE"/>
<stop offset="1" stop-color="#3AAF75"/>
</linearGradient>
<linearGradient id="paint28_linear_4209_50726" x1="9.56097" y1="588.512" x2="336" y2="588.512" gradientUnits="userSpaceOnUse">
<stop stop-color="#2286DE"/>
<stop offset="1" stop-color="#3AAF75"/>
</linearGradient>
<linearGradient id="paint29_linear_4209_50726" x1="9.56097" y1="563.512" x2="336" y2="563.512" gradientUnits="userSpaceOnUse">
<stop stop-color="#2286DE"/>
<stop offset="1" stop-color="#3AAF75"/>
</linearGradient>
<linearGradient id="paint30_linear_4209_50726" x1="9.56097" y1="539.512" x2="336" y2="539.512" gradientUnits="userSpaceOnUse">
<stop stop-color="#2286DE"/>
<stop offset="1" stop-color="#3AAF75"/>
</linearGradient>
<linearGradient id="paint31_linear_4209_50726" x1="9.56097" y1="515.512" x2="336" y2="515.512" gradientUnits="userSpaceOnUse">
<stop stop-color="#2286DE"/>
<stop offset="1" stop-color="#3AAF75"/>
</linearGradient>
<linearGradient id="paint32_linear_4209_50726" x1="9.56097" y1="490.512" x2="336" y2="490.512" gradientUnits="userSpaceOnUse">
<stop stop-color="#2286DE"/>
<stop offset="1" stop-color="#3AAF75"/>
</linearGradient>
<linearGradient id="paint33_linear_4209_50726" x1="9.56097" y1="466.512" x2="336" y2="466.512" gradientUnits="userSpaceOnUse">
<stop stop-color="#2286DE"/>
<stop offset="1" stop-color="#3AAF75"/>
</linearGradient>
<linearGradient id="paint34_linear_4209_50726" x1="9.56097" y1="442.512" x2="336" y2="442.512" gradientUnits="userSpaceOnUse">
<stop stop-color="#2286DE"/>
<stop offset="1" stop-color="#3AAF75"/>
</linearGradient>
<linearGradient id="paint35_linear_4209_50726" x1="9.56097" y1="417.512" x2="336" y2="417.512" gradientUnits="userSpaceOnUse">
<stop stop-color="#2286DE"/>
<stop offset="1" stop-color="#3AAF75"/>
</linearGradient>
<linearGradient id="paint36_linear_4209_50726" x1="9.56097" y1="393.512" x2="336" y2="393.512" gradientUnits="userSpaceOnUse">
<stop stop-color="#2286DE"/>
<stop offset="1" stop-color="#3AAF75"/>
</linearGradient>
<linearGradient id="paint37_linear_4209_50726" x1="9.56097" y1="369.512" x2="336" y2="369.512" gradientUnits="userSpaceOnUse">
<stop stop-color="#2286DE"/>
<stop offset="1" stop-color="#3AAF75"/>
</linearGradient>
<linearGradient id="paint38_linear_4209_50726" x1="9.56097" y1="344.512" x2="336" y2="344.512" gradientUnits="userSpaceOnUse">
<stop stop-color="#2286DE"/>
<stop offset="1" stop-color="#3AAF75"/>
</linearGradient>
<linearGradient id="paint39_linear_4209_50726" x1="9.56097" y1="320.512" x2="336" y2="320.512" gradientUnits="userSpaceOnUse">
<stop stop-color="#2286DE"/>
<stop offset="1" stop-color="#3AAF75"/>
</linearGradient>
<linearGradient id="paint40_linear_4209_50726" x1="9.56097" y1="296.512" x2="336" y2="296.512" gradientUnits="userSpaceOnUse">
<stop stop-color="#2286DE"/>
<stop offset="1" stop-color="#3AAF75"/>
</linearGradient>
<linearGradient id="paint41_linear_4209_50726" x1="9.56097" y1="271.512" x2="336" y2="271.512" gradientUnits="userSpaceOnUse">
<stop stop-color="#2286DE"/>
<stop offset="1" stop-color="#3AAF75"/>
</linearGradient>
<linearGradient id="paint42_linear_4209_50726" x1="9.56097" y1="247.512" x2="336" y2="247.512" gradientUnits="userSpaceOnUse">
<stop stop-color="#2286DE"/>
<stop offset="1" stop-color="#3AAF75"/>
</linearGradient>
<linearGradient id="paint43_linear_4209_50726" x1="9.56097" y1="223.512" x2="336" y2="223.512" gradientUnits="userSpaceOnUse">
<stop stop-color="#2286DE"/>
<stop offset="1" stop-color="#3AAF75"/>
</linearGradient>
<linearGradient id="paint44_linear_4209_50726" x1="9.56097" y1="199.512" x2="336" y2="199.512" gradientUnits="userSpaceOnUse">
<stop stop-color="#2286DE"/>
<stop offset="1" stop-color="#3AAF75"/>
</linearGradient>
<linearGradient id="paint45_linear_4209_50726" x1="9.56097" y1="174.512" x2="336" y2="174.512" gradientUnits="userSpaceOnUse">
<stop stop-color="#2286DE"/>
<stop offset="1" stop-color="#3AAF75"/>
</linearGradient>
<linearGradient id="paint46_linear_4209_50726" x1="9.56097" y1="150.512" x2="336" y2="150.512" gradientUnits="userSpaceOnUse">
<stop stop-color="#2286DE"/>
<stop offset="1" stop-color="#3AAF75"/>
</linearGradient>
<linearGradient id="paint47_linear_4209_50726" x1="9.56097" y1="126.512" x2="336" y2="126.512" gradientUnits="userSpaceOnUse">
<stop stop-color="#2286DE"/>
<stop offset="1" stop-color="#3AAF75"/>
</linearGradient>
<linearGradient id="paint48_linear_4209_50726" x1="9.56097" y1="101.512" x2="336" y2="101.512" gradientUnits="userSpaceOnUse">
<stop stop-color="#2286DE"/>
<stop offset="1" stop-color="#3AAF75"/>
</linearGradient>
<linearGradient id="paint49_linear_4209_50726" x1="9.56097" y1="77.5122" x2="336" y2="77.512" gradientUnits="userSpaceOnUse">
<stop stop-color="#2286DE"/>
<stop offset="1" stop-color="#3AAF75"/>
</linearGradient>
<linearGradient id="paint50_linear_4209_50726" x1="9.56097" y1="53.5122" x2="336" y2="53.512" gradientUnits="userSpaceOnUse">
<stop stop-color="#2286DE"/>
<stop offset="1" stop-color="#3AAF75"/>
</linearGradient>
<linearGradient id="paint51_linear_4209_50726" x1="9.56097" y1="28.5122" x2="336" y2="28.512" gradientUnits="userSpaceOnUse">
<stop stop-color="#2286DE"/>
<stop offset="1" stop-color="#3AAF75"/>
</linearGradient>
<linearGradient id="paint52_linear_4209_50726" x1="20.9458" y1="588.979" x2="20.9453" y2="1.16824" gradientUnits="userSpaceOnUse">
<stop stop-color="#2286DE"/>
<stop offset="1" stop-color="#3AAF75"/>
</linearGradient>
<linearGradient id="paint53_linear_4209_50726" x1="40.2388" y1="588.979" x2="40.2382" y2="1.16824" gradientUnits="userSpaceOnUse">
<stop stop-color="#2286DE"/>
<stop offset="1" stop-color="#3AAF75"/>
</linearGradient>
<linearGradient id="paint54_linear_4209_50726" x1="59.5395" y1="588.979" x2="59.539" y2="1.16824" gradientUnits="userSpaceOnUse">
<stop stop-color="#2286DE"/>
<stop offset="1" stop-color="#3AAF75"/>
</linearGradient>
<linearGradient id="paint55_linear_4209_50726" x1="78.8364" y1="588.979" x2="78.8359" y2="1.16824" gradientUnits="userSpaceOnUse">
<stop stop-color="#2286DE"/>
<stop offset="1" stop-color="#3AAF75"/>
</linearGradient>
<linearGradient id="paint56_linear_4209_50726" x1="99.27" y1="588.979" x2="99.2695" y2="1.16824" gradientUnits="userSpaceOnUse">
<stop stop-color="#2286DE"/>
<stop offset="1" stop-color="#3AAF75"/>
</linearGradient>
<linearGradient id="paint57_linear_4209_50726" x1="118.567" y1="588.979" x2="118.566" y2="1.16824" gradientUnits="userSpaceOnUse">
<stop stop-color="#2286DE"/>
<stop offset="1" stop-color="#3AAF75"/>
</linearGradient>
<linearGradient id="paint58_linear_4209_50726" x1="137.864" y1="588.979" x2="137.863" y2="1.16824" gradientUnits="userSpaceOnUse">
<stop stop-color="#2286DE"/>
<stop offset="1" stop-color="#3AAF75"/>
</linearGradient>
<linearGradient id="paint59_linear_4209_50726" x1="157.161" y1="588.979" x2="157.16" y2="1.16824" gradientUnits="userSpaceOnUse">
<stop stop-color="#2286DE"/>
<stop offset="1" stop-color="#3AAF75"/>
</linearGradient>
<linearGradient id="paint60_linear_4209_50726" x1="176.458" y1="588.979" x2="176.457" y2="1.16824" gradientUnits="userSpaceOnUse">
<stop stop-color="#2286DE"/>
<stop offset="1" stop-color="#3AAF75"/>
</linearGradient>
<linearGradient id="paint61_linear_4209_50726" x1="195.754" y1="588.979" x2="195.754" y2="1.16824" gradientUnits="userSpaceOnUse">
<stop stop-color="#2286DE"/>
<stop offset="1" stop-color="#3AAF75"/>
</linearGradient>
<linearGradient id="paint62_linear_4209_50726" x1="215.051" y1="588.979" x2="215.051" y2="1.16824" gradientUnits="userSpaceOnUse">
<stop stop-color="#2286DE"/>
<stop offset="1" stop-color="#3AAF75"/>
</linearGradient>
<linearGradient id="paint63_linear_4209_50726" x1="235.485" y1="588.979" x2="235.484" y2="1.16824" gradientUnits="userSpaceOnUse">
<stop stop-color="#2286DE"/>
<stop offset="1" stop-color="#3AAF75"/>
</linearGradient>
<linearGradient id="paint64_linear_4209_50726" x1="254.786" y1="588.979" x2="254.785" y2="1.16824" gradientUnits="userSpaceOnUse">
<stop stop-color="#2286DE"/>
<stop offset="1" stop-color="#3AAF75"/>
</linearGradient>
<linearGradient id="paint65_linear_4209_50726" x1="274.079" y1="588.979" x2="274.078" y2="1.16824" gradientUnits="userSpaceOnUse">
<stop stop-color="#2286DE"/>
<stop offset="1" stop-color="#3AAF75"/>
</linearGradient>
<linearGradient id="paint66_linear_4209_50726" x1="293.379" y1="588.979" x2="293.379" y2="1.16824" gradientUnits="userSpaceOnUse">
<stop stop-color="#2286DE"/>
<stop offset="1" stop-color="#3AAF75"/>
</linearGradient>
<linearGradient id="paint67_linear_4209_50726" x1="312.672" y1="588.979" x2="312.672" y2="1.16824" gradientUnits="userSpaceOnUse">
<stop stop-color="#2286DE"/>
<stop offset="1" stop-color="#3AAF75"/>
</linearGradient>
<linearGradient id="paint68_linear_4209_50726" x1="254.661" y1="392.653" x2="267.895" y2="392.653" gradientUnits="userSpaceOnUse">
<stop stop-color="#2286DE"/>
<stop offset="1" stop-color="#3AAF75"/>
</linearGradient>
<linearGradient id="paint69_linear_4209_50726" x1="260.57" y1="398.925" x2="260.57" y2="609.567" gradientUnits="userSpaceOnUse">
<stop stop-color="#2286DE"/>
<stop offset="1" stop-color="#3AAF75"/>
</linearGradient>
<linearGradient id="paint70_linear_4209_50726" x1="10.4878" y1="604.199" x2="10.4878" y2="611" gradientUnits="userSpaceOnUse">
<stop stop-color="#2286DE"/>
<stop offset="1" stop-color="#3AAF75"/>
</linearGradient>
<linearGradient id="paint71_linear_4209_50726" x1="17.4878" y1="604.199" x2="17.4878" y2="611" gradientUnits="userSpaceOnUse">
<stop stop-color="#2286DE"/>
<stop offset="1" stop-color="#3AAF75"/>
</linearGradient>
<linearGradient id="paint72_linear_4209_50726" x1="24.4878" y1="597.398" x2="24.4878" y2="611" gradientUnits="userSpaceOnUse">
<stop stop-color="#2286DE"/>
<stop offset="1" stop-color="#3AAF75"/>
</linearGradient>
<linearGradient id="paint73_linear_4209_50726" x1="31.4878" y1="583.797" x2="31.4878" y2="611" gradientUnits="userSpaceOnUse">
<stop stop-color="#2286DE"/>
<stop offset="1" stop-color="#3AAF75"/>
</linearGradient>
<linearGradient id="paint74_linear_4209_50726" x1="38.4878" y1="589.626" x2="38.4878" y2="611" gradientUnits="userSpaceOnUse">
<stop stop-color="#2286DE"/>
<stop offset="1" stop-color="#3AAF75"/>
</linearGradient>
<linearGradient id="paint75_linear_4209_50726" x1="45.4878" y1="570.195" x2="45.4878" y2="611" gradientUnits="userSpaceOnUse">
<stop stop-color="#2286DE"/>
<stop offset="1" stop-color="#3AAF75"/>
</linearGradient>
<linearGradient id="paint76_linear_4209_50726" x1="52.4878" y1="597.398" x2="52.4878" y2="611" gradientUnits="userSpaceOnUse">
<stop stop-color="#2286DE"/>
<stop offset="1" stop-color="#3AAF75"/>
</linearGradient>
<linearGradient id="paint77_linear_4209_50726" x1="59.4878" y1="580.882" x2="59.4878" y2="611" gradientUnits="userSpaceOnUse">
<stop stop-color="#2286DE"/>
<stop offset="1" stop-color="#3AAF75"/>
</linearGradient>
<linearGradient id="paint78_linear_4209_50726" x1="66.4878" y1="570.195" x2="66.4878" y2="611" gradientUnits="userSpaceOnUse">
<stop stop-color="#2286DE"/>
<stop offset="1" stop-color="#3AAF75"/>
</linearGradient>
<linearGradient id="paint79_linear_4209_50726" x1="73.4878" y1="583.797" x2="73.4878" y2="611" gradientUnits="userSpaceOnUse">
<stop stop-color="#2286DE"/>
<stop offset="1" stop-color="#3AAF75"/>
</linearGradient>
<linearGradient id="paint80_linear_4209_50726" x1="80.4878" y1="597.398" x2="80.4878" y2="611" gradientUnits="userSpaceOnUse">
<stop stop-color="#2286DE"/>
<stop offset="1" stop-color="#3AAF75"/>
</linearGradient>
<linearGradient id="paint81_linear_4209_50726" x1="87.4878" y1="604.199" x2="87.4878" y2="611" gradientUnits="userSpaceOnUse">
<stop stop-color="#2286DE"/>
<stop offset="1" stop-color="#3AAF75"/>
</linearGradient>
<linearGradient id="paint82_linear_4209_50726" x1="94.4878" y1="586.711" x2="94.4878" y2="611" gradientUnits="userSpaceOnUse">
<stop stop-color="#2286DE"/>
<stop offset="1" stop-color="#3AAF75"/>
</linearGradient>
<linearGradient id="paint83_linear_4209_50726" x1="101.488" y1="576.996" x2="101.488" y2="611" gradientUnits="userSpaceOnUse">
<stop stop-color="#2286DE"/>
<stop offset="1" stop-color="#3AAF75"/>
</linearGradient>
<linearGradient id="paint84_linear_4209_50726" x1="108.488" y1="593.512" x2="108.488" y2="611" gradientUnits="userSpaceOnUse">
<stop stop-color="#2286DE"/>
<stop offset="1" stop-color="#3AAF75"/>
</linearGradient>
<linearGradient id="paint85_linear_4209_50726" x1="115.488" y1="593.512" x2="115.488" y2="611" gradientUnits="userSpaceOnUse">
<stop stop-color="#2286DE"/>
<stop offset="1" stop-color="#3AAF75"/>
</linearGradient>
<linearGradient id="paint86_linear_4209_50726" x1="122.488" y1="586.711" x2="122.488" y2="611" gradientUnits="userSpaceOnUse">
<stop stop-color="#2286DE"/>
<stop offset="1" stop-color="#3AAF75"/>
</linearGradient>
<linearGradient id="paint87_linear_4209_50726" x1="129.488" y1="599.341" x2="129.488" y2="611" gradientUnits="userSpaceOnUse">
<stop stop-color="#2286DE"/>
<stop offset="1" stop-color="#3AAF75"/>
</linearGradient>
<linearGradient id="paint88_linear_4209_50726" x1="136.488" y1="589.626" x2="136.488" y2="611" gradientUnits="userSpaceOnUse">
<stop stop-color="#2286DE"/>
<stop offset="1" stop-color="#3AAF75"/>
</linearGradient>
<linearGradient id="paint89_linear_4209_50726" x1="143.488" y1="579.911" x2="143.488" y2="611" gradientUnits="userSpaceOnUse">
<stop stop-color="#2286DE"/>
<stop offset="1" stop-color="#3AAF75"/>
</linearGradient>
<linearGradient id="paint90_linear_4209_50726" x1="150.488" y1="570.195" x2="150.488" y2="611" gradientUnits="userSpaceOnUse">
<stop stop-color="#2286DE"/>
<stop offset="1" stop-color="#3AAF75"/>
</linearGradient>
<linearGradient id="paint91_linear_4209_50726" x1="157.488" y1="576.996" x2="157.488" y2="611" gradientUnits="userSpaceOnUse">
<stop stop-color="#2286DE"/>
<stop offset="1" stop-color="#3AAF75"/>
</linearGradient>
<linearGradient id="paint92_linear_4209_50726" x1="164.488" y1="583.797" x2="164.488" y2="611" gradientUnits="userSpaceOnUse">
<stop stop-color="#2286DE"/>
<stop offset="1" stop-color="#3AAF75"/>
</linearGradient>
<linearGradient id="paint93_linear_4209_50726" x1="171.488" y1="589.626" x2="171.488" y2="611" gradientUnits="userSpaceOnUse">
<stop stop-color="#2286DE"/>
<stop offset="1" stop-color="#3AAF75"/>
</linearGradient>
<linearGradient id="paint94_linear_4209_50726" x1="178.488" y1="599.341" x2="178.488" y2="611" gradientUnits="userSpaceOnUse">
<stop stop-color="#2286DE"/>
<stop offset="1" stop-color="#3AAF75"/>
</linearGradient>
<linearGradient id="paint95_linear_4209_50726" x1="185.488" y1="605.171" x2="185.488" y2="611" gradientUnits="userSpaceOnUse">
<stop stop-color="#2286DE"/>
<stop offset="1" stop-color="#3AAF75"/>
</linearGradient>
<linearGradient id="paint96_linear_4209_50726" x1="192.488" y1="570.195" x2="192.488" y2="611" gradientUnits="userSpaceOnUse">
<stop stop-color="#2286DE"/>
<stop offset="1" stop-color="#3AAF75"/>
</linearGradient>
<linearGradient id="paint97_linear_4209_50726" x1="199.488" y1="586.711" x2="199.488" y2="611" gradientUnits="userSpaceOnUse">
<stop stop-color="#2286DE"/>
<stop offset="1" stop-color="#3AAF75"/>
</linearGradient>
<linearGradient id="paint98_linear_4209_50726" x1="206.488" y1="594.484" x2="206.488" y2="611" gradientUnits="userSpaceOnUse">
<stop stop-color="#2286DE"/>
<stop offset="1" stop-color="#3AAF75"/>
</linearGradient>
<linearGradient id="paint99_linear_4209_50726" x1="213.488" y1="586.711" x2="213.488" y2="611" gradientUnits="userSpaceOnUse">
<stop stop-color="#2286DE"/>
<stop offset="1" stop-color="#3AAF75"/>
</linearGradient>
<linearGradient id="paint100_linear_4209_50726" x1="220.488" y1="570.195" x2="220.488" y2="611" gradientUnits="userSpaceOnUse">
<stop stop-color="#2286DE"/>
<stop offset="1" stop-color="#3AAF75"/>
</linearGradient>
<linearGradient id="paint101_linear_4209_50726" x1="227.488" y1="583.797" x2="227.488" y2="611" gradientUnits="userSpaceOnUse">
<stop stop-color="#2286DE"/>
<stop offset="1" stop-color="#3AAF75"/>
</linearGradient>
<linearGradient id="paint102_linear_4209_50726" x1="234.488" y1="589.626" x2="234.488" y2="611" gradientUnits="userSpaceOnUse">
<stop stop-color="#2286DE"/>
<stop offset="1" stop-color="#3AAF75"/>
</linearGradient>
<linearGradient id="paint103_linear_4209_50726" x1="241.488" y1="589.626" x2="241.488" y2="611" gradientUnits="userSpaceOnUse">
<stop stop-color="#2286DE"/>
<stop offset="1" stop-color="#3AAF75"/>
</linearGradient>
<linearGradient id="paint104_linear_4209_50726" x1="248.488" y1="583.797" x2="248.488" y2="611" gradientUnits="userSpaceOnUse">
<stop stop-color="#2286DE"/>
<stop offset="1" stop-color="#3AAF75"/>
</linearGradient>
<linearGradient id="paint105_linear_4209_50726" x1="255.488" y1="603.228" x2="255.488" y2="611" gradientUnits="userSpaceOnUse">
<stop stop-color="#2286DE"/>
<stop offset="1" stop-color="#3AAF75"/>
</linearGradient>
<linearGradient id="paint106_linear_4209_50726" x1="262.488" y1="600.313" x2="262.488" y2="611" gradientUnits="userSpaceOnUse">
<stop stop-color="#2286DE"/>
<stop offset="1" stop-color="#3AAF75"/>
</linearGradient>
<linearGradient id="paint107_linear_4209_50726" x1="269.488" y1="608.085" x2="269.488" y2="611" gradientUnits="userSpaceOnUse">
<stop stop-color="#2286DE"/>
<stop offset="1" stop-color="#3AAF75"/>
</linearGradient>
<linearGradient id="paint108_linear_4209_50726" x1="276.488" y1="603.228" x2="276.488" y2="611" gradientUnits="userSpaceOnUse">
<stop stop-color="#2286DE"/>
<stop offset="1" stop-color="#3AAF75"/>
</linearGradient>
<linearGradient id="paint109_linear_4209_50726" x1="283.488" y1="600.313" x2="283.488" y2="611" gradientUnits="userSpaceOnUse">
<stop stop-color="#2286DE"/>
<stop offset="1" stop-color="#3AAF75"/>
</linearGradient>
<linearGradient id="paint110_linear_4209_50726" x1="290.488" y1="600.313" x2="290.488" y2="611" gradientUnits="userSpaceOnUse">
<stop stop-color="#2286DE"/>
<stop offset="1" stop-color="#3AAF75"/>
</linearGradient>
<linearGradient id="paint111_linear_4209_50726" x1="297.488" y1="589.626" x2="297.488" y2="611" gradientUnits="userSpaceOnUse">
<stop stop-color="#2286DE"/>
<stop offset="1" stop-color="#3AAF75"/>
</linearGradient>
<linearGradient id="paint112_linear_4209_50726" x1="304.488" y1="586.711" x2="304.488" y2="611" gradientUnits="userSpaceOnUse">
<stop stop-color="#2286DE"/>
<stop offset="1" stop-color="#3AAF75"/>
</linearGradient>
<linearGradient id="paint113_linear_4209_50726" x1="311.488" y1="583.797" x2="311.488" y2="611" gradientUnits="userSpaceOnUse">
<stop stop-color="#2286DE"/>
<stop offset="1" stop-color="#3AAF75"/>
</linearGradient>
<linearGradient id="paint114_linear_4209_50726" x1="318.488" y1="570.195" x2="318.488" y2="611" gradientUnits="userSpaceOnUse">
<stop stop-color="#2286DE"/>
<stop offset="1" stop-color="#3AAF75"/>
</linearGradient>
</defs>
</svg>
