<svg width="291" height="414" viewBox="0 0 291 414" fill="none" xmlns="http://www.w3.org/2000/svg">
<circle opacity="0.5" cx="191.359" cy="257.716" r="4.80221" fill="url(#paint0_linear_4188_52131)" stroke="#C7C6C6" stroke-width="0.222858"/>
<rect x="1" width="289" height="414" rx="5.13722" fill="#232323"/>
<path opacity="0.03" d="M38.463 255.931C29.8189 243.661 21.4799 226.53 13.4877 222.676L1 219.134V409.122L2 410.5L3.5 412.5L5.5 413.5H285.257C286.838 413 290 411.3 290 408.5V219.456V185L277.869 206.575L270.377 193.05L233.984 240.387L223.637 227.828L203.657 255.931L176.898 235.786L150.408 286.367L125.163 255.931L116.957 291.425L104.112 281.832L92.3383 291.105L49.5235 243.14L38.463 255.931Z" fill="url(#paint1_linear_4188_52131)"/>
<path opacity="0.1" d="M2 217.997L14.4012 221.525C22.3382 225.365 30.6194 242.427 39.2037 254.648L50.1877 241.908L92.7062 289.682L104.399 280.445L117.154 290L125.304 254.648L150.374 284.962L176.68 234.583L203.254 254.648L223.096 226.657L233.372 239.166L269.512 192.018L276.953 205.489L289 184" stroke="url(#paint2_linear_4188_52131)" stroke-width="2.56861" stroke-linecap="round" stroke-linejoin="round"/>
<g opacity="0.07">
<line x1="2.8087" y1="414" x2="2.80872" y2="-8.27845e-09" stroke="url(#paint3_linear_4188_52131)" stroke-width="0.382606"/>
<line x1="14.9532" y1="414" x2="14.9532" y2="-7.53249e-09" stroke="url(#paint4_linear_4188_52131)" stroke-width="0.382606"/>
<line x1="27.0939" y1="414" x2="27.0939" y2="-7.53249e-09" stroke="url(#paint5_linear_4188_52131)" stroke-width="0.382606"/>
<line x1="39.2384" y1="414" x2="39.2384" y2="-7.53249e-09" stroke="url(#paint6_linear_4188_52131)" stroke-width="0.382606"/>
<line x1="51.379" y1="414" x2="51.379" y2="-7.53249e-09" stroke="url(#paint7_linear_4188_52131)" stroke-width="0.382606"/>
<line x1="63.5235" y1="414" x2="63.5236" y2="-7.53249e-09" stroke="url(#paint8_linear_4188_52131)" stroke-width="0.382606"/>
<line x1="75.6642" y1="414" x2="75.6642" y2="-7.53249e-09" stroke="url(#paint9_linear_4188_52131)" stroke-width="0.382606"/>
<line x1="87.8087" y1="414" x2="87.8087" y2="-7.53249e-09" stroke="url(#paint10_linear_4188_52131)" stroke-width="0.382606"/>
<line x1="99.9532" y1="414" x2="99.9532" y2="-7.53249e-09" stroke="url(#paint11_linear_4188_52131)" stroke-width="0.382606"/>
<line x1="112.094" y1="414" x2="112.094" y2="-7.53249e-09" stroke="url(#paint12_linear_4188_52131)" stroke-width="0.382606"/>
<line x1="124.238" y1="414" x2="124.238" y2="-7.53249e-09" stroke="url(#paint13_linear_4188_52131)" stroke-width="0.382606"/>
<line x1="136.379" y1="414" x2="136.379" y2="-7.53249e-09" stroke="url(#paint14_linear_4188_52131)" stroke-width="0.382606"/>
<line x1="148.524" y1="414" x2="148.524" y2="-7.53249e-09" stroke="url(#paint15_linear_4188_52131)" stroke-width="0.382606"/>
<line x1="160.668" y1="414" x2="160.668" y2="-7.53249e-09" stroke="url(#paint16_linear_4188_52131)" stroke-width="0.382606"/>
<line x1="172.809" y1="414" x2="172.809" y2="-7.53249e-09" stroke="url(#paint17_linear_4188_52131)" stroke-width="0.382606"/>
<line x1="184.953" y1="414" x2="184.953" y2="-7.53249e-09" stroke="url(#paint18_linear_4188_52131)" stroke-width="0.382606"/>
<line x1="197.094" y1="414" x2="197.094" y2="-7.53249e-09" stroke="url(#paint19_linear_4188_52131)" stroke-width="0.382606"/>
<line x1="209.238" y1="414" x2="209.238" y2="-7.53249e-09" stroke="url(#paint20_linear_4188_52131)" stroke-width="0.382606"/>
<line x1="221.379" y1="414" x2="221.379" y2="-7.53249e-09" stroke="url(#paint21_linear_4188_52131)" stroke-width="0.382606"/>
<line x1="233.524" y1="414" x2="233.524" y2="-7.53249e-09" stroke="url(#paint22_linear_4188_52131)" stroke-width="0.382606"/>
<line x1="245.668" y1="414" x2="245.668" y2="-7.53249e-09" stroke="url(#paint23_linear_4188_52131)" stroke-width="0.382606"/>
<line x1="257.809" y1="414" x2="257.809" y2="-7.53249e-09" stroke="url(#paint24_linear_4188_52131)" stroke-width="0.382606"/>
<line x1="269.953" y1="414" x2="269.953" y2="-7.53249e-09" stroke="url(#paint25_linear_4188_52131)" stroke-width="0.382606"/>
<line x1="282.094" y1="414" x2="282.094" y2="-7.53249e-09" stroke="url(#paint26_linear_4188_52131)" stroke-width="0.382606"/>
<line x1="1" y1="8.23643" x2="290" y2="8.23641" stroke="url(#paint27_linear_4188_52131)" stroke-width="0.382606"/>
<line x1="1" y1="23.9513" x2="290" y2="23.9513" stroke="url(#paint28_linear_4188_52131)" stroke-width="0.382606"/>
<line x1="1" y1="39.6661" x2="290" y2="39.6661" stroke="url(#paint29_linear_4188_52131)" stroke-width="0.382606"/>
<line x1="1" y1="55.381" x2="290" y2="55.3809" stroke="url(#paint30_linear_4188_52131)" stroke-width="0.382606"/>
<line x1="1" y1="71.0939" x2="290" y2="71.0938" stroke="url(#paint31_linear_4188_52131)" stroke-width="0.382606"/>
<line x1="1" y1="86.8087" x2="290" y2="86.8087" stroke="url(#paint32_linear_4188_52131)" stroke-width="0.382606"/>
<line x1="1" y1="102.524" x2="290" y2="102.524" stroke="url(#paint33_linear_4188_52131)" stroke-width="0.382606"/>
<line x1="1" y1="118.238" x2="290" y2="118.238" stroke="url(#paint34_linear_4188_52131)" stroke-width="0.382606"/>
<line x1="1" y1="133.951" x2="290" y2="133.951" stroke="url(#paint35_linear_4188_52131)" stroke-width="0.382606"/>
<line x1="1" y1="149.666" x2="290" y2="149.666" stroke="url(#paint36_linear_4188_52131)" stroke-width="0.382606"/>
<line x1="1" y1="165.381" x2="290" y2="165.381" stroke="url(#paint37_linear_4188_52131)" stroke-width="0.382606"/>
<line x1="1" y1="181.094" x2="290" y2="181.094" stroke="url(#paint38_linear_4188_52131)" stroke-width="0.382606"/>
<line x1="1" y1="196.809" x2="290" y2="196.809" stroke="url(#paint39_linear_4188_52131)" stroke-width="0.382606"/>
<line x1="1" y1="212.524" x2="290" y2="212.524" stroke="url(#paint40_linear_4188_52131)" stroke-width="0.382606"/>
<line x1="1" y1="228.238" x2="290" y2="228.238" stroke="url(#paint41_linear_4188_52131)" stroke-width="0.382606"/>
<line x1="1" y1="243.951" x2="290" y2="243.951" stroke="url(#paint42_linear_4188_52131)" stroke-width="0.382606"/>
<line x1="1" y1="259.666" x2="290" y2="259.666" stroke="url(#paint43_linear_4188_52131)" stroke-width="0.382606"/>
<line x1="1" y1="275.381" x2="290" y2="275.381" stroke="url(#paint44_linear_4188_52131)" stroke-width="0.382606"/>
<line x1="1" y1="291.096" x2="290" y2="291.096" stroke="url(#paint45_linear_4188_52131)" stroke-width="0.382606"/>
<line x1="1" y1="306.809" x2="290" y2="306.809" stroke="url(#paint46_linear_4188_52131)" stroke-width="0.382606"/>
<line x1="1" y1="322.524" x2="290" y2="322.524" stroke="url(#paint47_linear_4188_52131)" stroke-width="0.382606"/>
<line x1="1" y1="338.238" x2="290" y2="338.238" stroke="url(#paint48_linear_4188_52131)" stroke-width="0.382606"/>
<line x1="1" y1="353.951" x2="290" y2="353.951" stroke="url(#paint49_linear_4188_52131)" stroke-width="0.382606"/>
<line x1="1" y1="369.666" x2="290" y2="369.666" stroke="url(#paint50_linear_4188_52131)" stroke-width="0.382606"/>
<line x1="1" y1="385.381" x2="290" y2="385.381" stroke="url(#paint51_linear_4188_52131)" stroke-width="0.382606"/>
<line x1="1" y1="401.096" x2="290" y2="401.096" stroke="url(#paint52_linear_4188_52131)" stroke-width="0.382606"/>
</g>
<g opacity="0.3">
<path d="M12.0346 403C12.0346 402.823 11.8914 402.68 11.7148 402.68C11.5382 402.68 11.3951 402.823 11.3951 403L12.0346 403ZM11.3951 413L11.3951 413.32L12.0346 413.32L12.0346 413L11.3951 413ZM11.3951 403L11.3951 413L12.0346 413L12.0346 403L11.3951 403Z" fill="url(#paint53_linear_4188_52131)"/>
<path d="M19.0346 403C19.0346 402.823 18.8914 402.68 18.7148 402.68C18.5382 402.68 18.3951 402.823 18.3951 403L19.0346 403ZM18.3951 413L18.3951 413.32L19.0346 413.32L19.0346 413L18.3951 413ZM18.3951 403L18.3951 413L19.0346 413L19.0346 403L18.3951 403Z" fill="url(#paint54_linear_4188_52131)"/>
<path d="M26.0346 395C26.0346 394.823 25.8914 394.68 25.7148 394.68C25.5382 394.68 25.3951 394.823 25.3951 395L26.0346 395ZM25.3951 413L25.3951 413.32L26.0346 413.32L26.0346 413L25.3951 413ZM25.3951 395L25.3951 413L26.0346 413L26.0346 395L25.3951 395Z" fill="url(#paint55_linear_4188_52131)"/>
<path d="M33.0346 377C33.0346 376.823 32.8914 376.68 32.7148 376.68C32.5382 376.68 32.3951 376.823 32.3951 377L33.0346 377ZM32.3951 413L32.3951 413.32L33.0346 413.32L33.0346 413L32.3951 413ZM32.3951 377L32.3951 413L33.0346 413L33.0346 377L32.3951 377Z" fill="url(#paint56_linear_4188_52131)"/>
<path d="M40.0346 386C40.0346 385.823 39.8914 385.68 39.7148 385.68C39.5382 385.68 39.3951 385.823 39.3951 386L40.0346 386ZM39.3951 413L39.3951 413.32L40.0346 413.32L40.0346 413L39.3951 413ZM39.3951 386L39.3951 413L40.0346 413L40.0346 386L39.3951 386Z" fill="url(#paint57_linear_4188_52131)"/>
<path d="M47.0346 359C47.0346 358.823 46.8914 358.68 46.7148 358.68C46.5382 358.68 46.3951 358.823 46.3951 359L47.0346 359ZM46.3951 413L46.3951 413.32L47.0346 413.32L47.0346 413L46.3951 413ZM46.3951 359L46.3951 413L47.0346 413L47.0346 359L46.3951 359Z" fill="url(#paint58_linear_4188_52131)"/>
<path d="M54.0346 395C54.0346 394.823 53.8914 394.68 53.7148 394.68C53.5382 394.68 53.3951 394.823 53.3951 395L54.0346 395ZM53.3951 413L53.3951 413.32L54.0346 413.32L54.0346 413L53.3951 413ZM53.3951 395L53.3951 413L54.0346 413L54.0346 395L53.3951 395Z" fill="url(#paint59_linear_4188_52131)"/>
<path d="M61.0346 374C61.0346 373.823 60.8914 373.68 60.7148 373.68C60.5382 373.68 60.3951 373.823 60.3951 374L61.0346 374ZM60.3951 413L60.3951 413.32L61.0346 413.32L61.0346 413L60.3951 413ZM60.3951 374L60.3951 413L61.0346 413L61.0346 374L60.3951 374Z" fill="url(#paint60_linear_4188_52131)"/>
<path d="M68.0346 377C68.0346 376.823 67.8914 376.68 67.7148 376.68C67.5382 376.68 67.3951 376.823 67.3951 377L68.0346 377ZM67.3951 413L67.3951 413.32L68.0346 413.32L68.0346 413L67.3951 413ZM67.3951 377L67.3951 413L68.0346 413L68.0346 377L67.3951 377Z" fill="url(#paint61_linear_4188_52131)"/>
<path d="M75.0346 395C75.0346 394.823 74.8914 394.68 74.7148 394.68C74.5382 394.68 74.3951 394.823 74.3951 395L75.0346 395ZM74.3951 413L74.3951 413.32L75.0346 413.32L75.0346 413L74.3951 413ZM74.3951 395L74.3951 413L75.0346 413L75.0346 395L74.3951 395Z" fill="url(#paint62_linear_4188_52131)"/>
<path d="M82.0346 404C82.0346 403.823 81.8914 403.68 81.7148 403.68C81.5382 403.68 81.3951 403.823 81.3951 404L82.0346 404ZM81.3951 413L81.3951 413.32L82.0346 413.32L82.0346 413L81.3951 413ZM81.3951 404L81.3951 413L82.0346 413L82.0346 404L81.3951 404Z" fill="url(#paint63_linear_4188_52131)"/>
<path d="M89.0346 380C89.0346 379.823 88.8914 379.68 88.7148 379.68C88.5382 379.68 88.3951 379.823 88.3951 380L89.0346 380ZM88.3951 413L88.3951 413.32L89.0346 413.32L89.0346 413L88.3951 413ZM88.3951 380L88.3951 413L89.0346 413L89.0346 380L88.3951 380Z" fill="url(#paint64_linear_4188_52131)"/>
<path d="M96.0346 367C96.0346 366.823 95.8914 366.68 95.7148 366.68C95.5382 366.68 95.3951 366.823 95.3951 367L96.0346 367ZM95.3951 413L95.3951 413.32L96.0346 413.32L96.0346 413L95.3951 413ZM95.3951 367L95.3951 413L96.0346 413L96.0346 367L95.3951 367Z" fill="url(#paint65_linear_4188_52131)"/>
<path d="M103.035 390C103.035 389.823 102.891 389.68 102.715 389.68C102.538 389.68 102.395 389.823 102.395 390L103.035 390ZM102.395 413L102.395 413.32L103.035 413.32L103.035 413L102.395 413ZM102.395 390L102.395 413L103.035 413L103.035 390L102.395 390Z" fill="url(#paint66_linear_4188_52131)"/>
<path d="M110.035 390C110.035 389.823 109.891 389.68 109.715 389.68C109.538 389.68 109.395 389.823 109.395 390L110.035 390ZM109.395 413L109.395 413.32L110.035 413.32L110.035 413L109.395 413ZM109.395 390L109.395 413L110.035 413L110.035 390L109.395 390Z" fill="url(#paint67_linear_4188_52131)"/>
<path d="M117.035 380C117.035 379.823 116.891 379.68 116.715 379.68C116.538 379.68 116.395 379.823 116.395 380L117.035 380ZM116.395 413L116.395 413.32L117.035 413.32L117.035 413L116.395 413ZM116.395 380L116.395 413L117.035 413L117.035 380L116.395 380Z" fill="url(#paint68_linear_4188_52131)"/>
<path d="M124.035 397C124.035 396.823 123.891 396.68 123.715 396.68C123.538 396.68 123.395 396.823 123.395 397L124.035 397ZM123.395 413L123.395 413.32L124.035 413.32L124.035 413L123.395 413ZM123.395 397L123.395 413L124.035 413L124.035 397L123.395 397Z" fill="url(#paint69_linear_4188_52131)"/>
<path d="M131.035 386C131.035 385.823 130.891 385.68 130.715 385.68C130.538 385.68 130.395 385.823 130.395 386L131.035 386ZM130.395 413L130.395 413.32L131.035 413.32L131.035 413L130.395 413ZM130.395 386L130.395 413L131.035 413L131.035 386L130.395 386Z" fill="url(#paint70_linear_4188_52131)"/>
<path d="M138.035 371C138.035 370.823 137.891 370.68 137.715 370.68C137.538 370.68 137.395 370.823 137.395 371L138.035 371ZM137.395 413L137.395 413.32L138.035 413.32L138.035 413L137.395 413ZM137.395 371L137.395 413L138.035 413L138.035 371L137.395 371Z" fill="url(#paint71_linear_4188_52131)"/>
<path d="M145.035 359C145.035 358.823 144.891 358.68 144.715 358.68C144.538 358.68 144.395 358.823 144.395 359L145.035 359ZM144.395 413L144.395 413.32L145.035 413.32L145.035 413L144.395 413ZM144.395 359L144.395 413L145.035 413L145.035 359L144.395 359Z" fill="url(#paint72_linear_4188_52131)"/>
<path d="M152.035 368C152.035 367.823 151.891 367.68 151.715 367.68C151.538 367.68 151.395 367.823 151.395 368L152.035 368ZM151.395 413L151.395 413.32L152.035 413.32L152.035 413L151.395 413ZM151.395 368L151.395 413L152.035 413L152.035 368L151.395 368Z" fill="url(#paint73_linear_4188_52131)"/>
<path d="M159.035 377C159.035 376.823 158.891 376.68 158.715 376.68C158.538 376.68 158.395 376.823 158.395 377L159.035 377ZM158.395 413L158.395 413.32L159.035 413.32L159.035 413L158.395 413ZM158.395 377L158.395 413L159.035 413L159.035 377L158.395 377Z" fill="url(#paint74_linear_4188_52131)"/>
<path d="M166.035 397C166.035 396.823 165.891 396.68 165.715 396.68C165.538 396.68 165.395 396.823 165.395 397L166.035 397ZM165.395 413L165.395 413.32L166.035 413.32L166.035 413L165.395 413ZM165.395 397L165.395 413L166.035 413L166.035 397L165.395 397Z" fill="url(#paint75_linear_4188_52131)"/>
<path d="M173.035 406C173.035 405.823 172.891 405.68 172.715 405.68C172.538 405.68 172.395 405.823 172.395 406L173.035 406ZM172.395 413L172.395 413.32L173.035 413.32L173.035 413L172.395 413ZM172.395 406L172.395 413L173.035 413L173.035 406L172.395 406Z" fill="url(#paint76_linear_4188_52131)"/>
<path d="M180.035 381C180.035 380.823 179.891 380.68 179.715 380.68C179.538 380.68 179.395 380.823 179.395 381L180.035 381ZM179.395 413L179.395 413.32L180.035 413.32L180.035 413L179.395 413ZM179.395 381L179.395 413L180.035 413L180.035 381L179.395 381Z" fill="url(#paint77_linear_4188_52131)"/>
<path d="M187.035 391C187.035 390.823 186.891 390.68 186.715 390.68C186.538 390.68 186.395 390.823 186.395 391L187.035 391ZM186.395 413L186.395 413.32L187.035 413.32L187.035 413L186.395 413ZM186.395 391L186.395 413L187.035 413L187.035 391L186.395 391Z" fill="url(#paint78_linear_4188_52131)"/>
<path d="M194.035 381C194.035 380.823 193.891 380.68 193.715 380.68C193.538 380.68 193.395 380.823 193.395 381L194.035 381ZM193.395 413L193.395 413.32L194.035 413.32L194.035 413L193.395 413ZM193.395 381L193.395 413L194.035 413L194.035 381L193.395 381Z" fill="url(#paint79_linear_4188_52131)"/>
<path d="M201.035 359C201.035 358.823 200.891 358.68 200.715 358.68C200.538 358.68 200.395 358.823 200.395 359L201.035 359ZM200.395 413L200.395 413.32L201.035 413.32L201.035 413L200.395 413ZM200.395 359L200.395 413L201.035 413L201.035 359L200.395 359Z" fill="url(#paint80_linear_4188_52131)"/>
<path d="M208.035 376C208.035 375.823 207.891 375.68 207.715 375.68C207.538 375.68 207.395 375.823 207.395 376L208.035 376ZM207.395 413L207.395 413.32L208.035 413.32L208.035 413L207.395 413ZM207.395 376L207.395 413L208.035 413L208.035 376L207.395 376Z" fill="url(#paint81_linear_4188_52131)"/>
<path d="M215.035 386C215.035 385.823 214.891 385.68 214.715 385.68C214.538 385.68 214.395 385.823 214.395 386L215.035 386ZM214.395 413L214.395 413.32L215.035 413.32L215.035 413L214.395 413ZM214.395 386L214.395 413L215.035 413L215.035 386L214.395 386Z" fill="url(#paint82_linear_4188_52131)"/>
<path d="M222.035 376C222.035 375.823 221.891 375.68 221.715 375.68C221.538 375.68 221.395 375.823 221.395 376L222.035 376ZM221.395 413L221.395 413.32L222.035 413.32L222.035 413L221.395 413ZM221.395 376L221.395 413L222.035 413L222.035 376L221.395 376Z" fill="url(#paint83_linear_4188_52131)"/>
<path d="M229.035 402C229.035 401.823 228.891 401.68 228.715 401.68C228.538 401.68 228.395 401.823 228.395 402L229.035 402ZM228.395 413L228.395 413.32L229.035 413.32L229.035 413L228.395 413ZM228.395 402L228.395 413L229.035 413L229.035 402L228.395 402Z" fill="url(#paint84_linear_4188_52131)"/>
<path d="M236.035 408C236.035 407.823 235.891 407.68 235.715 407.68C235.538 407.68 235.395 407.823 235.395 408L236.035 408ZM235.395 413L235.395 413.32L236.035 413.32L236.035 413L235.395 413ZM235.395 408L235.395 413L236.035 413L236.035 408L235.395 408Z" fill="url(#paint85_linear_4188_52131)"/>
<path d="M243.035 402C243.035 401.823 242.891 401.68 242.715 401.68C242.538 401.68 242.395 401.823 242.395 402L243.035 402ZM242.395 413L242.395 413.32L243.035 413.32L243.035 413L242.395 413ZM242.395 402L242.395 413L243.035 413L243.035 402L242.395 402Z" fill="url(#paint86_linear_4188_52131)"/>
<path d="M250.035 398C250.035 397.823 249.891 397.68 249.715 397.68C249.538 397.68 249.395 397.823 249.395 398L250.035 398ZM249.395 413L249.395 413.32L250.035 413.32L250.035 413L249.395 413ZM249.395 398L249.395 413L250.035 413L250.035 398L249.395 398Z" fill="url(#paint87_linear_4188_52131)"/>
<path d="M257.035 398C257.035 397.823 256.891 397.68 256.715 397.68C256.538 397.68 256.395 397.823 256.395 398L257.035 398ZM256.395 413L256.395 413.32L257.035 413.32L257.035 413L256.395 413ZM256.395 398L256.395 413L257.035 413L257.035 398L256.395 398Z" fill="url(#paint88_linear_4188_52131)"/>
<path d="M264.035 386C264.035 385.823 263.891 385.68 263.715 385.68C263.538 385.68 263.395 385.823 263.395 386L264.035 386ZM263.395 413L263.395 413.32L264.035 413.32L264.035 413L263.395 413ZM263.395 386L263.395 413L264.035 413L264.035 386L263.395 386Z" fill="url(#paint89_linear_4188_52131)"/>
<path d="M271.035 381C271.035 380.823 270.891 380.68 270.715 380.68C270.538 380.68 270.395 380.823 270.395 381L271.035 381ZM270.395 413L270.395 413.32L271.035 413.32L271.035 413L270.395 413ZM270.395 381L270.395 413L271.035 413L271.035 381L270.395 381Z" fill="url(#paint90_linear_4188_52131)"/>
<path d="M278.035 376C278.035 375.823 277.891 375.68 277.715 375.68C277.538 375.68 277.395 375.823 277.395 376L278.035 376ZM277.395 413L277.395 413.32L278.035 413.32L278.035 413L277.395 413ZM277.395 376L277.395 413L278.035 413L278.035 376L277.395 376Z" fill="url(#paint91_linear_4188_52131)"/>
<path d="M285.035 359C285.035 358.823 284.891 358.68 284.715 358.68C284.538 358.68 284.395 358.823 284.395 359L285.035 359ZM284.395 413L284.395 413.32L285.035 413.32L285.035 413L284.395 413ZM284.395 359L284.395 413L285.035 413L285.035 359L284.395 359Z" fill="url(#paint92_linear_4188_52131)"/>
</g>
<circle opacity="0.5" cx="176.853" cy="234.853" r="3.76554" fill="url(#paint93_linear_4188_52131)" stroke="#C7C6C6" stroke-width="0.174749"/>
<path opacity="0.1" d="M178 235C178 234.448 177.552 234 177 234C176.448 234 176 234.448 176 235L178 235ZM176 412L176 413L178 413L178 412L176 412ZM176 235L176 412L178 412L178 235L176 235Z" fill="url(#paint94_linear_4188_52131)"/>
<defs>
<linearGradient id="paint0_linear_4188_52131" x1="186.725" y1="257.836" x2="196.273" y2="257.836" gradientUnits="userSpaceOnUse">
<stop stop-color="#2286DE"/>
<stop offset="1" stop-color="#3AAF75"/>
</linearGradient>
<linearGradient id="paint1_linear_4188_52131" x1="9.22358" y1="302.037" x2="290" y2="302.037" gradientUnits="userSpaceOnUse">
<stop stop-color="#2286DE"/>
<stop offset="1" stop-color="#3AAF75"/>
</linearGradient>
<linearGradient id="paint2_linear_4188_52131" x1="10.1667" y1="238.293" x2="289" y2="238.293" gradientUnits="userSpaceOnUse">
<stop stop-color="#2286DE"/>
<stop offset="1" stop-color="#3AAF75"/>
</linearGradient>
<linearGradient id="paint3_linear_4188_52131" x1="3.5122" y1="402.22" x2="3.51195" y2="-1.97877e-05" gradientUnits="userSpaceOnUse">
<stop stop-color="#2286DE"/>
<stop offset="1" stop-color="#3AAF75"/>
</linearGradient>
<linearGradient id="paint4_linear_4188_52131" x1="15.6567" y1="402.22" x2="15.6565" y2="-1.97897e-05" gradientUnits="userSpaceOnUse">
<stop stop-color="#2286DE"/>
<stop offset="1" stop-color="#3AAF75"/>
</linearGradient>
<linearGradient id="paint5_linear_4188_52131" x1="27.7974" y1="402.22" x2="27.7971" y2="-1.97897e-05" gradientUnits="userSpaceOnUse">
<stop stop-color="#2286DE"/>
<stop offset="1" stop-color="#3AAF75"/>
</linearGradient>
<linearGradient id="paint6_linear_4188_52131" x1="39.9419" y1="402.22" x2="39.9416" y2="-1.97897e-05" gradientUnits="userSpaceOnUse">
<stop stop-color="#2286DE"/>
<stop offset="1" stop-color="#3AAF75"/>
</linearGradient>
<linearGradient id="paint7_linear_4188_52131" x1="52.0825" y1="402.22" x2="52.0823" y2="-1.97897e-05" gradientUnits="userSpaceOnUse">
<stop stop-color="#2286DE"/>
<stop offset="1" stop-color="#3AAF75"/>
</linearGradient>
<linearGradient id="paint8_linear_4188_52131" x1="64.227" y1="402.22" x2="64.2268" y2="-1.97897e-05" gradientUnits="userSpaceOnUse">
<stop stop-color="#2286DE"/>
<stop offset="1" stop-color="#3AAF75"/>
</linearGradient>
<linearGradient id="paint9_linear_4188_52131" x1="76.3677" y1="402.22" x2="76.3674" y2="-1.97897e-05" gradientUnits="userSpaceOnUse">
<stop stop-color="#2286DE"/>
<stop offset="1" stop-color="#3AAF75"/>
</linearGradient>
<linearGradient id="paint10_linear_4188_52131" x1="88.5122" y1="402.22" x2="88.512" y2="-1.97897e-05" gradientUnits="userSpaceOnUse">
<stop stop-color="#2286DE"/>
<stop offset="1" stop-color="#3AAF75"/>
</linearGradient>
<linearGradient id="paint11_linear_4188_52131" x1="100.657" y1="402.22" x2="100.656" y2="-1.97897e-05" gradientUnits="userSpaceOnUse">
<stop stop-color="#2286DE"/>
<stop offset="1" stop-color="#3AAF75"/>
</linearGradient>
<linearGradient id="paint12_linear_4188_52131" x1="112.797" y1="402.22" x2="112.797" y2="-1.97897e-05" gradientUnits="userSpaceOnUse">
<stop stop-color="#2286DE"/>
<stop offset="1" stop-color="#3AAF75"/>
</linearGradient>
<linearGradient id="paint13_linear_4188_52131" x1="124.942" y1="402.22" x2="124.942" y2="-1.97897e-05" gradientUnits="userSpaceOnUse">
<stop stop-color="#2286DE"/>
<stop offset="1" stop-color="#3AAF75"/>
</linearGradient>
<linearGradient id="paint14_linear_4188_52131" x1="137.083" y1="402.22" x2="137.082" y2="-1.97897e-05" gradientUnits="userSpaceOnUse">
<stop stop-color="#2286DE"/>
<stop offset="1" stop-color="#3AAF75"/>
</linearGradient>
<linearGradient id="paint15_linear_4188_52131" x1="149.227" y1="402.22" x2="149.227" y2="-1.97897e-05" gradientUnits="userSpaceOnUse">
<stop stop-color="#2286DE"/>
<stop offset="1" stop-color="#3AAF75"/>
</linearGradient>
<linearGradient id="paint16_linear_4188_52131" x1="161.372" y1="402.22" x2="161.371" y2="-1.97897e-05" gradientUnits="userSpaceOnUse">
<stop stop-color="#2286DE"/>
<stop offset="1" stop-color="#3AAF75"/>
</linearGradient>
<linearGradient id="paint17_linear_4188_52131" x1="173.512" y1="402.22" x2="173.512" y2="-1.97897e-05" gradientUnits="userSpaceOnUse">
<stop stop-color="#2286DE"/>
<stop offset="1" stop-color="#3AAF75"/>
</linearGradient>
<linearGradient id="paint18_linear_4188_52131" x1="185.657" y1="402.22" x2="185.656" y2="-1.97897e-05" gradientUnits="userSpaceOnUse">
<stop stop-color="#2286DE"/>
<stop offset="1" stop-color="#3AAF75"/>
</linearGradient>
<linearGradient id="paint19_linear_4188_52131" x1="197.797" y1="402.22" x2="197.797" y2="-1.97897e-05" gradientUnits="userSpaceOnUse">
<stop stop-color="#2286DE"/>
<stop offset="1" stop-color="#3AAF75"/>
</linearGradient>
<linearGradient id="paint20_linear_4188_52131" x1="209.942" y1="402.22" x2="209.942" y2="-1.97897e-05" gradientUnits="userSpaceOnUse">
<stop stop-color="#2286DE"/>
<stop offset="1" stop-color="#3AAF75"/>
</linearGradient>
<linearGradient id="paint21_linear_4188_52131" x1="222.083" y1="402.22" x2="222.082" y2="-1.97897e-05" gradientUnits="userSpaceOnUse">
<stop stop-color="#2286DE"/>
<stop offset="1" stop-color="#3AAF75"/>
</linearGradient>
<linearGradient id="paint22_linear_4188_52131" x1="234.227" y1="402.22" x2="234.227" y2="-1.97897e-05" gradientUnits="userSpaceOnUse">
<stop stop-color="#2286DE"/>
<stop offset="1" stop-color="#3AAF75"/>
</linearGradient>
<linearGradient id="paint23_linear_4188_52131" x1="246.372" y1="402.22" x2="246.371" y2="-1.97897e-05" gradientUnits="userSpaceOnUse">
<stop stop-color="#2286DE"/>
<stop offset="1" stop-color="#3AAF75"/>
</linearGradient>
<linearGradient id="paint24_linear_4188_52131" x1="258.512" y1="402.22" x2="258.512" y2="-1.97897e-05" gradientUnits="userSpaceOnUse">
<stop stop-color="#2286DE"/>
<stop offset="1" stop-color="#3AAF75"/>
</linearGradient>
<linearGradient id="paint25_linear_4188_52131" x1="270.657" y1="402.22" x2="270.656" y2="-1.97897e-05" gradientUnits="userSpaceOnUse">
<stop stop-color="#2286DE"/>
<stop offset="1" stop-color="#3AAF75"/>
</linearGradient>
<linearGradient id="paint26_linear_4188_52131" x1="282.797" y1="402.22" x2="282.797" y2="-1.97897e-05" gradientUnits="userSpaceOnUse">
<stop stop-color="#2286DE"/>
<stop offset="1" stop-color="#3AAF75"/>
</linearGradient>
<linearGradient id="paint27_linear_4188_52131" x1="9.22358" y1="8.93993" x2="290" y2="8.93977" gradientUnits="userSpaceOnUse">
<stop stop-color="#2286DE"/>
<stop offset="1" stop-color="#3AAF75"/>
</linearGradient>
<linearGradient id="paint28_linear_4188_52131" x1="9.22358" y1="24.6548" x2="290" y2="24.6546" gradientUnits="userSpaceOnUse">
<stop stop-color="#2286DE"/>
<stop offset="1" stop-color="#3AAF75"/>
</linearGradient>
<linearGradient id="paint29_linear_4188_52131" x1="9.22358" y1="40.3696" x2="290" y2="40.3695" gradientUnits="userSpaceOnUse">
<stop stop-color="#2286DE"/>
<stop offset="1" stop-color="#3AAF75"/>
</linearGradient>
<linearGradient id="paint30_linear_4188_52131" x1="9.22358" y1="56.0845" x2="290" y2="56.0843" gradientUnits="userSpaceOnUse">
<stop stop-color="#2286DE"/>
<stop offset="1" stop-color="#3AAF75"/>
</linearGradient>
<linearGradient id="paint31_linear_4188_52131" x1="9.22358" y1="71.7974" x2="290" y2="71.7972" gradientUnits="userSpaceOnUse">
<stop stop-color="#2286DE"/>
<stop offset="1" stop-color="#3AAF75"/>
</linearGradient>
<linearGradient id="paint32_linear_4188_52131" x1="9.22358" y1="87.5122" x2="290" y2="87.512" gradientUnits="userSpaceOnUse">
<stop stop-color="#2286DE"/>
<stop offset="1" stop-color="#3AAF75"/>
</linearGradient>
<linearGradient id="paint33_linear_4188_52131" x1="9.22358" y1="103.227" x2="290" y2="103.227" gradientUnits="userSpaceOnUse">
<stop stop-color="#2286DE"/>
<stop offset="1" stop-color="#3AAF75"/>
</linearGradient>
<linearGradient id="paint34_linear_4188_52131" x1="9.22358" y1="118.942" x2="290" y2="118.942" gradientUnits="userSpaceOnUse">
<stop stop-color="#2286DE"/>
<stop offset="1" stop-color="#3AAF75"/>
</linearGradient>
<linearGradient id="paint35_linear_4188_52131" x1="9.22358" y1="134.655" x2="290" y2="134.655" gradientUnits="userSpaceOnUse">
<stop stop-color="#2286DE"/>
<stop offset="1" stop-color="#3AAF75"/>
</linearGradient>
<linearGradient id="paint36_linear_4188_52131" x1="9.22358" y1="150.37" x2="290" y2="150.369" gradientUnits="userSpaceOnUse">
<stop stop-color="#2286DE"/>
<stop offset="1" stop-color="#3AAF75"/>
</linearGradient>
<linearGradient id="paint37_linear_4188_52131" x1="9.22358" y1="166.084" x2="290" y2="166.084" gradientUnits="userSpaceOnUse">
<stop stop-color="#2286DE"/>
<stop offset="1" stop-color="#3AAF75"/>
</linearGradient>
<linearGradient id="paint38_linear_4188_52131" x1="9.22358" y1="181.797" x2="290" y2="181.797" gradientUnits="userSpaceOnUse">
<stop stop-color="#2286DE"/>
<stop offset="1" stop-color="#3AAF75"/>
</linearGradient>
<linearGradient id="paint39_linear_4188_52131" x1="9.22358" y1="197.512" x2="290" y2="197.512" gradientUnits="userSpaceOnUse">
<stop stop-color="#2286DE"/>
<stop offset="1" stop-color="#3AAF75"/>
</linearGradient>
<linearGradient id="paint40_linear_4188_52131" x1="9.22358" y1="213.227" x2="290" y2="213.227" gradientUnits="userSpaceOnUse">
<stop stop-color="#2286DE"/>
<stop offset="1" stop-color="#3AAF75"/>
</linearGradient>
<linearGradient id="paint41_linear_4188_52131" x1="9.22358" y1="228.942" x2="290" y2="228.942" gradientUnits="userSpaceOnUse">
<stop stop-color="#2286DE"/>
<stop offset="1" stop-color="#3AAF75"/>
</linearGradient>
<linearGradient id="paint42_linear_4188_52131" x1="9.22358" y1="244.655" x2="290" y2="244.655" gradientUnits="userSpaceOnUse">
<stop stop-color="#2286DE"/>
<stop offset="1" stop-color="#3AAF75"/>
</linearGradient>
<linearGradient id="paint43_linear_4188_52131" x1="9.22358" y1="260.37" x2="290" y2="260.369" gradientUnits="userSpaceOnUse">
<stop stop-color="#2286DE"/>
<stop offset="1" stop-color="#3AAF75"/>
</linearGradient>
<linearGradient id="paint44_linear_4188_52131" x1="9.22358" y1="276.084" x2="290" y2="276.084" gradientUnits="userSpaceOnUse">
<stop stop-color="#2286DE"/>
<stop offset="1" stop-color="#3AAF75"/>
</linearGradient>
<linearGradient id="paint45_linear_4188_52131" x1="9.22358" y1="291.799" x2="290" y2="291.799" gradientUnits="userSpaceOnUse">
<stop stop-color="#2286DE"/>
<stop offset="1" stop-color="#3AAF75"/>
</linearGradient>
<linearGradient id="paint46_linear_4188_52131" x1="9.22358" y1="307.512" x2="290" y2="307.512" gradientUnits="userSpaceOnUse">
<stop stop-color="#2286DE"/>
<stop offset="1" stop-color="#3AAF75"/>
</linearGradient>
<linearGradient id="paint47_linear_4188_52131" x1="9.22358" y1="323.227" x2="290" y2="323.227" gradientUnits="userSpaceOnUse">
<stop stop-color="#2286DE"/>
<stop offset="1" stop-color="#3AAF75"/>
</linearGradient>
<linearGradient id="paint48_linear_4188_52131" x1="9.22358" y1="338.942" x2="290" y2="338.942" gradientUnits="userSpaceOnUse">
<stop stop-color="#2286DE"/>
<stop offset="1" stop-color="#3AAF75"/>
</linearGradient>
<linearGradient id="paint49_linear_4188_52131" x1="9.22358" y1="354.655" x2="290" y2="354.655" gradientUnits="userSpaceOnUse">
<stop stop-color="#2286DE"/>
<stop offset="1" stop-color="#3AAF75"/>
</linearGradient>
<linearGradient id="paint50_linear_4188_52131" x1="9.22358" y1="370.37" x2="290" y2="370.369" gradientUnits="userSpaceOnUse">
<stop stop-color="#2286DE"/>
<stop offset="1" stop-color="#3AAF75"/>
</linearGradient>
<linearGradient id="paint51_linear_4188_52131" x1="9.22358" y1="386.084" x2="290" y2="386.084" gradientUnits="userSpaceOnUse">
<stop stop-color="#2286DE"/>
<stop offset="1" stop-color="#3AAF75"/>
</linearGradient>
<linearGradient id="paint52_linear_4188_52131" x1="9.22358" y1="401.799" x2="290" y2="401.799" gradientUnits="userSpaceOnUse">
<stop stop-color="#2286DE"/>
<stop offset="1" stop-color="#3AAF75"/>
</linearGradient>
<linearGradient id="paint53_linear_4188_52131" x1="11.2026" y1="403.285" x2="11.2027" y2="413" gradientUnits="userSpaceOnUse">
<stop stop-color="#2286DE"/>
<stop offset="1" stop-color="#3AAF75"/>
</linearGradient>
<linearGradient id="paint54_linear_4188_52131" x1="18.2026" y1="403.285" x2="18.2027" y2="413" gradientUnits="userSpaceOnUse">
<stop stop-color="#2286DE"/>
<stop offset="1" stop-color="#3AAF75"/>
</linearGradient>
<linearGradient id="paint55_linear_4188_52131" x1="25.2026" y1="395.512" x2="25.2027" y2="413" gradientUnits="userSpaceOnUse">
<stop stop-color="#2286DE"/>
<stop offset="1" stop-color="#3AAF75"/>
</linearGradient>
<linearGradient id="paint56_linear_4188_52131" x1="32.2026" y1="378.024" x2="32.2027" y2="413" gradientUnits="userSpaceOnUse">
<stop stop-color="#2286DE"/>
<stop offset="1" stop-color="#3AAF75"/>
</linearGradient>
<linearGradient id="paint57_linear_4188_52131" x1="39.2026" y1="386.768" x2="39.2027" y2="413" gradientUnits="userSpaceOnUse">
<stop stop-color="#2286DE"/>
<stop offset="1" stop-color="#3AAF75"/>
</linearGradient>
<linearGradient id="paint58_linear_4188_52131" x1="46.2026" y1="360.537" x2="46.2026" y2="413" gradientUnits="userSpaceOnUse">
<stop stop-color="#2286DE"/>
<stop offset="1" stop-color="#3AAF75"/>
</linearGradient>
<linearGradient id="paint59_linear_4188_52131" x1="53.2026" y1="395.512" x2="53.2027" y2="413" gradientUnits="userSpaceOnUse">
<stop stop-color="#2286DE"/>
<stop offset="1" stop-color="#3AAF75"/>
</linearGradient>
<linearGradient id="paint60_linear_4188_52131" x1="60.2026" y1="375.11" x2="60.2027" y2="413" gradientUnits="userSpaceOnUse">
<stop stop-color="#2286DE"/>
<stop offset="1" stop-color="#3AAF75"/>
</linearGradient>
<linearGradient id="paint61_linear_4188_52131" x1="67.2026" y1="378.024" x2="67.2027" y2="413" gradientUnits="userSpaceOnUse">
<stop stop-color="#2286DE"/>
<stop offset="1" stop-color="#3AAF75"/>
</linearGradient>
<linearGradient id="paint62_linear_4188_52131" x1="74.2026" y1="395.512" x2="74.2027" y2="413" gradientUnits="userSpaceOnUse">
<stop stop-color="#2286DE"/>
<stop offset="1" stop-color="#3AAF75"/>
</linearGradient>
<linearGradient id="paint63_linear_4188_52131" x1="81.2026" y1="404.256" x2="81.2027" y2="413" gradientUnits="userSpaceOnUse">
<stop stop-color="#2286DE"/>
<stop offset="1" stop-color="#3AAF75"/>
</linearGradient>
<linearGradient id="paint64_linear_4188_52131" x1="88.2026" y1="380.939" x2="88.2027" y2="413" gradientUnits="userSpaceOnUse">
<stop stop-color="#2286DE"/>
<stop offset="1" stop-color="#3AAF75"/>
</linearGradient>
<linearGradient id="paint65_linear_4188_52131" x1="95.2026" y1="368.309" x2="95.2027" y2="413" gradientUnits="userSpaceOnUse">
<stop stop-color="#2286DE"/>
<stop offset="1" stop-color="#3AAF75"/>
</linearGradient>
<linearGradient id="paint66_linear_4188_52131" x1="102.203" y1="390.654" x2="102.203" y2="413" gradientUnits="userSpaceOnUse">
<stop stop-color="#2286DE"/>
<stop offset="1" stop-color="#3AAF75"/>
</linearGradient>
<linearGradient id="paint67_linear_4188_52131" x1="109.203" y1="390.654" x2="109.203" y2="413" gradientUnits="userSpaceOnUse">
<stop stop-color="#2286DE"/>
<stop offset="1" stop-color="#3AAF75"/>
</linearGradient>
<linearGradient id="paint68_linear_4188_52131" x1="116.203" y1="380.939" x2="116.203" y2="413" gradientUnits="userSpaceOnUse">
<stop stop-color="#2286DE"/>
<stop offset="1" stop-color="#3AAF75"/>
</linearGradient>
<linearGradient id="paint69_linear_4188_52131" x1="123.203" y1="397.455" x2="123.203" y2="413" gradientUnits="userSpaceOnUse">
<stop stop-color="#2286DE"/>
<stop offset="1" stop-color="#3AAF75"/>
</linearGradient>
<linearGradient id="paint70_linear_4188_52131" x1="130.203" y1="386.768" x2="130.203" y2="413" gradientUnits="userSpaceOnUse">
<stop stop-color="#2286DE"/>
<stop offset="1" stop-color="#3AAF75"/>
</linearGradient>
<linearGradient id="paint71_linear_4188_52131" x1="137.203" y1="372.195" x2="137.203" y2="413" gradientUnits="userSpaceOnUse">
<stop stop-color="#2286DE"/>
<stop offset="1" stop-color="#3AAF75"/>
</linearGradient>
<linearGradient id="paint72_linear_4188_52131" x1="144.203" y1="360.537" x2="144.203" y2="413" gradientUnits="userSpaceOnUse">
<stop stop-color="#2286DE"/>
<stop offset="1" stop-color="#3AAF75"/>
</linearGradient>
<linearGradient id="paint73_linear_4188_52131" x1="151.203" y1="369.28" x2="151.203" y2="413" gradientUnits="userSpaceOnUse">
<stop stop-color="#2286DE"/>
<stop offset="1" stop-color="#3AAF75"/>
</linearGradient>
<linearGradient id="paint74_linear_4188_52131" x1="158.203" y1="378.024" x2="158.203" y2="413" gradientUnits="userSpaceOnUse">
<stop stop-color="#2286DE"/>
<stop offset="1" stop-color="#3AAF75"/>
</linearGradient>
<linearGradient id="paint75_linear_4188_52131" x1="165.203" y1="397.455" x2="165.203" y2="413" gradientUnits="userSpaceOnUse">
<stop stop-color="#2286DE"/>
<stop offset="1" stop-color="#3AAF75"/>
</linearGradient>
<linearGradient id="paint76_linear_4188_52131" x1="172.203" y1="406.199" x2="172.203" y2="413" gradientUnits="userSpaceOnUse">
<stop stop-color="#2286DE"/>
<stop offset="1" stop-color="#3AAF75"/>
</linearGradient>
<linearGradient id="paint77_linear_4188_52131" x1="179.203" y1="381.911" x2="179.203" y2="413" gradientUnits="userSpaceOnUse">
<stop stop-color="#2286DE"/>
<stop offset="1" stop-color="#3AAF75"/>
</linearGradient>
<linearGradient id="paint78_linear_4188_52131" x1="186.203" y1="391.626" x2="186.203" y2="413" gradientUnits="userSpaceOnUse">
<stop stop-color="#2286DE"/>
<stop offset="1" stop-color="#3AAF75"/>
</linearGradient>
<linearGradient id="paint79_linear_4188_52131" x1="193.203" y1="381.911" x2="193.203" y2="413" gradientUnits="userSpaceOnUse">
<stop stop-color="#2286DE"/>
<stop offset="1" stop-color="#3AAF75"/>
</linearGradient>
<linearGradient id="paint80_linear_4188_52131" x1="200.203" y1="360.537" x2="200.203" y2="413" gradientUnits="userSpaceOnUse">
<stop stop-color="#2286DE"/>
<stop offset="1" stop-color="#3AAF75"/>
</linearGradient>
<linearGradient id="paint81_linear_4188_52131" x1="207.203" y1="377.053" x2="207.203" y2="413" gradientUnits="userSpaceOnUse">
<stop stop-color="#2286DE"/>
<stop offset="1" stop-color="#3AAF75"/>
</linearGradient>
<linearGradient id="paint82_linear_4188_52131" x1="214.203" y1="386.768" x2="214.203" y2="413" gradientUnits="userSpaceOnUse">
<stop stop-color="#2286DE"/>
<stop offset="1" stop-color="#3AAF75"/>
</linearGradient>
<linearGradient id="paint83_linear_4188_52131" x1="221.203" y1="377.053" x2="221.203" y2="413" gradientUnits="userSpaceOnUse">
<stop stop-color="#2286DE"/>
<stop offset="1" stop-color="#3AAF75"/>
</linearGradient>
<linearGradient id="paint84_linear_4188_52131" x1="228.203" y1="402.313" x2="228.203" y2="413" gradientUnits="userSpaceOnUse">
<stop stop-color="#2286DE"/>
<stop offset="1" stop-color="#3AAF75"/>
</linearGradient>
<linearGradient id="paint85_linear_4188_52131" x1="235.203" y1="408.142" x2="235.203" y2="413" gradientUnits="userSpaceOnUse">
<stop stop-color="#2286DE"/>
<stop offset="1" stop-color="#3AAF75"/>
</linearGradient>
<linearGradient id="paint86_linear_4188_52131" x1="242.203" y1="402.313" x2="242.203" y2="413" gradientUnits="userSpaceOnUse">
<stop stop-color="#2286DE"/>
<stop offset="1" stop-color="#3AAF75"/>
</linearGradient>
<linearGradient id="paint87_linear_4188_52131" x1="249.203" y1="398.427" x2="249.203" y2="413" gradientUnits="userSpaceOnUse">
<stop stop-color="#2286DE"/>
<stop offset="1" stop-color="#3AAF75"/>
</linearGradient>
<linearGradient id="paint88_linear_4188_52131" x1="256.203" y1="398.427" x2="256.203" y2="413" gradientUnits="userSpaceOnUse">
<stop stop-color="#2286DE"/>
<stop offset="1" stop-color="#3AAF75"/>
</linearGradient>
<linearGradient id="paint89_linear_4188_52131" x1="263.203" y1="386.768" x2="263.203" y2="413" gradientUnits="userSpaceOnUse">
<stop stop-color="#2286DE"/>
<stop offset="1" stop-color="#3AAF75"/>
</linearGradient>
<linearGradient id="paint90_linear_4188_52131" x1="270.203" y1="381.911" x2="270.203" y2="413" gradientUnits="userSpaceOnUse">
<stop stop-color="#2286DE"/>
<stop offset="1" stop-color="#3AAF75"/>
</linearGradient>
<linearGradient id="paint91_linear_4188_52131" x1="277.203" y1="377.053" x2="277.203" y2="413" gradientUnits="userSpaceOnUse">
<stop stop-color="#2286DE"/>
<stop offset="1" stop-color="#3AAF75"/>
</linearGradient>
<linearGradient id="paint92_linear_4188_52131" x1="284.203" y1="360.537" x2="284.203" y2="413" gradientUnits="userSpaceOnUse">
<stop stop-color="#2286DE"/>
<stop offset="1" stop-color="#3AAF75"/>
</linearGradient>
<linearGradient id="paint93_linear_4188_52131" x1="173.219" y1="234.947" x2="180.706" y2="234.947" gradientUnits="userSpaceOnUse">
<stop stop-color="#2286DE"/>
<stop offset="1" stop-color="#3AAF75"/>
</linearGradient>
<linearGradient id="paint94_linear_4188_52131" x1="176.488" y1="240.037" x2="176.488" y2="412" gradientUnits="userSpaceOnUse">
<stop stop-color="#2286DE"/>
<stop offset="1" stop-color="#3AAF75"/>
</linearGradient>
</defs>
</svg>
