<svg width="366" height="637" viewBox="0 0 366 637" fill="none" xmlns="http://www.w3.org/2000/svg">
<rect x="1" width="365" height="637" rx="7.19211" fill="#232323"/>
<path opacity="0.1" d="M225.899 309C225.899 308.503 225.497 308.101 225 308.101C224.503 308.101 224.101 308.503 224.101 309L225.899 309ZM224.101 634L224.101 634.899L225.899 634.899L225.899 634L224.101 634ZM224.101 309L224.101 634L225.899 634L225.899 309L224.101 309Z" fill="url(#paint0_linear_4188_52110)"/>
<circle opacity="0.5" cx="224.855" cy="309.259" r="5.27176" fill="url(#paint1_linear_4188_52110)" stroke="#C7C6C6" stroke-width="0.244648"/>
<path opacity="0.03" d="M48.1982 338.014C37.3078 320.886 26.8019 296.973 16.7327 291.592L1 286.648V551.857V630.811C2.35026 632.977 5.35078 637.211 6.55078 636.811C7.75078 636.411 8.05078 636.644 8.05078 636.811H11.0508H358.051C359.551 636.311 362.751 634.911 363.551 633.311C364.351 631.711 364.917 631.311 365.101 631.311V287.097V239L349.817 269.117L340.378 250.238L294.528 316.315L281.492 298.784L256.32 338.014L222.607 309.893L189.234 380.5L157.428 338.014L147.09 387.56L130.908 374.169L116.074 387.114L62.1329 320.159L48.1982 338.014Z" fill="url(#paint2_linear_4188_52110)"/>
<path opacity="0.1" d="M2 285.147L17.642 290.04C27.653 295.364 38.0984 319.026 48.9259 335.974L62.7802 318.307L116.41 384.558L131.158 371.75L147.247 385L157.526 335.974L189.148 378.014L222.328 308.148L255.847 335.974L280.874 297.157L293.835 314.503L339.42 249.12L348.805 267.801L364 238" stroke="url(#paint3_linear_4188_52110)" stroke-width="3.59606" stroke-linecap="round" stroke-linejoin="round"/>
<g opacity="0.07">
<line x1="3.73218" y1="637" x2="3.7322" y2="-1.15898e-08" stroke="url(#paint4_linear_4188_52110)" stroke-width="0.535649"/>
<line x1="20.7322" y1="637" x2="20.7322" y2="-1.15898e-08" stroke="url(#paint5_linear_4188_52110)" stroke-width="0.535649"/>
<line x1="37.7322" y1="637" x2="37.7322" y2="-1.15898e-08" stroke="url(#paint6_linear_4188_52110)" stroke-width="0.535649"/>
<line x1="54.7322" y1="637" x2="54.7322" y2="-1.15898e-08" stroke="url(#paint7_linear_4188_52110)" stroke-width="0.535649"/>
<line x1="71.7322" y1="637" x2="71.7322" y2="-1.15898e-08" stroke="url(#paint8_linear_4188_52110)" stroke-width="0.535649"/>
<line x1="88.7322" y1="637" x2="88.7322" y2="-1.15898e-08" stroke="url(#paint9_linear_4188_52110)" stroke-width="0.535649"/>
<line x1="105.732" y1="637" x2="105.732" y2="-1.15898e-08" stroke="url(#paint10_linear_4188_52110)" stroke-width="0.535649"/>
<line x1="122.732" y1="637" x2="122.732" y2="-1.15898e-08" stroke="url(#paint11_linear_4188_52110)" stroke-width="0.535649"/>
<line x1="139.732" y1="637" x2="139.732" y2="-1.15898e-08" stroke="url(#paint12_linear_4188_52110)" stroke-width="0.535649"/>
<line x1="156.732" y1="637" x2="156.732" y2="-1.15898e-08" stroke="url(#paint13_linear_4188_52110)" stroke-width="0.535649"/>
<line x1="173.732" y1="637" x2="173.732" y2="-1.15898e-08" stroke="url(#paint14_linear_4188_52110)" stroke-width="0.535649"/>
<line x1="190.732" y1="637" x2="190.732" y2="-1.15898e-08" stroke="url(#paint15_linear_4188_52110)" stroke-width="0.535649"/>
<line x1="207.732" y1="637" x2="207.732" y2="-1.15898e-08" stroke="url(#paint16_linear_4188_52110)" stroke-width="0.535649"/>
<line x1="224.5" y1="637" x2="224.5" y2="-2.1637e-08" stroke="url(#paint17_linear_4188_52110)"/>
<line x1="241.732" y1="637" x2="241.732" y2="-1.15898e-08" stroke="url(#paint18_linear_4188_52110)" stroke-width="0.535649"/>
<line x1="258.732" y1="637" x2="258.732" y2="-1.15898e-08" stroke="url(#paint19_linear_4188_52110)" stroke-width="0.535649"/>
<line x1="275.732" y1="637" x2="275.732" y2="-1.15898e-08" stroke="url(#paint20_linear_4188_52110)" stroke-width="0.535649"/>
<line x1="292.732" y1="637" x2="292.732" y2="-1.15898e-08" stroke="url(#paint21_linear_4188_52110)" stroke-width="0.535649"/>
<line x1="309.732" y1="637" x2="309.732" y2="-1.15898e-08" stroke="url(#paint22_linear_4188_52110)" stroke-width="0.535649"/>
<line x1="326.732" y1="637" x2="326.732" y2="-1.15898e-08" stroke="url(#paint23_linear_4188_52110)" stroke-width="0.535649"/>
<line x1="343.732" y1="637" x2="343.732" y2="-1.15898e-08" stroke="url(#paint24_linear_4188_52110)" stroke-width="0.535649"/>
<line x1="360.732" y1="637" x2="360.732" y2="-1.15898e-08" stroke="url(#paint25_linear_4188_52110)" stroke-width="0.535649"/>
<line x1="1" y1="24.7322" x2="366" y2="24.7321" stroke="url(#paint26_linear_4188_52110)" stroke-width="0.535649"/>
<line x1="1" y1="46.7322" x2="366" y2="46.7321" stroke="url(#paint27_linear_4188_52110)" stroke-width="0.535649"/>
<line x1="1" y1="68.7322" x2="366" y2="68.7321" stroke="url(#paint28_linear_4188_52110)" stroke-width="0.535649"/>
<line x1="1" y1="90.7322" x2="366" y2="90.7321" stroke="url(#paint29_linear_4188_52110)" stroke-width="0.535649"/>
<line x1="1" y1="112.732" x2="366" y2="112.732" stroke="url(#paint30_linear_4188_52110)" stroke-width="0.535649"/>
<line x1="1" y1="134.732" x2="366" y2="134.732" stroke="url(#paint31_linear_4188_52110)" stroke-width="0.535649"/>
<line x1="1" y1="156.732" x2="366" y2="156.732" stroke="url(#paint32_linear_4188_52110)" stroke-width="0.535649"/>
<line x1="1" y1="178.732" x2="366" y2="178.732" stroke="url(#paint33_linear_4188_52110)" stroke-width="0.535649"/>
<line x1="1" y1="200.732" x2="366" y2="200.732" stroke="url(#paint34_linear_4188_52110)" stroke-width="0.535649"/>
<line x1="1" y1="222.732" x2="366" y2="222.732" stroke="url(#paint35_linear_4188_52110)" stroke-width="0.535649"/>
<line x1="1" y1="244.732" x2="366" y2="244.732" stroke="url(#paint36_linear_4188_52110)" stroke-width="0.535649"/>
<line x1="1" y1="266.732" x2="366" y2="266.732" stroke="url(#paint37_linear_4188_52110)" stroke-width="0.535649"/>
<line x1="1" y1="288.732" x2="366" y2="288.732" stroke="url(#paint38_linear_4188_52110)" stroke-width="0.535649"/>
<line x1="1" y1="310.732" x2="366" y2="310.732" stroke="url(#paint39_linear_4188_52110)" stroke-width="0.535649"/>
<line x1="1" y1="332.732" x2="366" y2="332.732" stroke="url(#paint40_linear_4188_52110)" stroke-width="0.535649"/>
<line x1="1" y1="354.732" x2="366" y2="354.732" stroke="url(#paint41_linear_4188_52110)" stroke-width="0.535649"/>
<line x1="1" y1="376.732" x2="366" y2="376.732" stroke="url(#paint42_linear_4188_52110)" stroke-width="0.535649"/>
<line x1="1" y1="398.732" x2="366" y2="398.732" stroke="url(#paint43_linear_4188_52110)" stroke-width="0.535649"/>
<line x1="1" y1="420.732" x2="366" y2="420.732" stroke="url(#paint44_linear_4188_52110)" stroke-width="0.535649"/>
<line x1="1" y1="442.732" x2="366" y2="442.732" stroke="url(#paint45_linear_4188_52110)" stroke-width="0.535649"/>
<line x1="1" y1="464.732" x2="366" y2="464.732" stroke="url(#paint46_linear_4188_52110)" stroke-width="0.535649"/>
<line x1="1" y1="486.732" x2="366" y2="486.732" stroke="url(#paint47_linear_4188_52110)" stroke-width="0.535649"/>
<line x1="1" y1="508.732" x2="366" y2="508.732" stroke="url(#paint48_linear_4188_52110)" stroke-width="0.535649"/>
<line x1="1" y1="530.732" x2="366" y2="530.732" stroke="url(#paint49_linear_4188_52110)" stroke-width="0.535649"/>
<line x1="1" y1="552.732" x2="366" y2="552.732" stroke="url(#paint50_linear_4188_52110)" stroke-width="0.535649"/>
<line x1="1" y1="574.732" x2="366" y2="574.732" stroke="url(#paint51_linear_4188_52110)" stroke-width="0.535649"/>
<line x1="1" y1="596.732" x2="366" y2="596.732" stroke="url(#paint52_linear_4188_52110)" stroke-width="0.535649"/>
<line x1="1" y1="618.732" x2="366" y2="618.732" stroke="url(#paint53_linear_4188_52110)" stroke-width="0.535649"/>
</g>
<g opacity="0.3">
<path d="M11.3198 626C11.3198 625.823 11.1766 625.68 11 625.68C10.8234 625.68 10.6802 625.823 10.6802 626L11.3198 626ZM10.6802 636L10.6802 636.32L11.3198 636.32L11.3198 636L10.6802 636ZM10.6802 626L10.6802 636L11.3198 636L11.3198 626L10.6802 626Z" fill="url(#paint54_linear_4188_52110)"/>
<path d="M18.3198 626C18.3198 625.823 18.1766 625.68 18 625.68C17.8234 625.68 17.6802 625.823 17.6802 626L18.3198 626ZM17.6802 636L17.6802 636.32L18.3198 636.32L18.3198 636L17.6802 636ZM17.6802 626L17.6802 636L18.3198 636L18.3198 626L17.6802 626Z" fill="url(#paint55_linear_4188_52110)"/>
<path d="M25.3198 626C25.3198 625.823 25.1766 625.68 25 625.68C24.8234 625.68 24.6802 625.823 24.6802 626L25.3198 626ZM24.6802 636L24.6802 636.32L25.3198 636.32L25.3198 636L24.6802 636ZM24.6802 626L24.6802 636L25.3198 636L25.3198 626L24.6802 626Z" fill="url(#paint56_linear_4188_52110)"/>
<path d="M32.3198 618C32.3198 617.823 32.1766 617.68 32 617.68C31.8234 617.68 31.6802 617.823 31.6802 618L32.3198 618ZM31.6802 636L31.6802 636.32L32.3198 636.32L32.3198 636L31.6802 636ZM31.6802 618L31.6802 636L32.3198 636L32.3198 618L31.6802 618Z" fill="url(#paint57_linear_4188_52110)"/>
<path d="M39.3198 600C39.3198 599.823 39.1766 599.68 39 599.68C38.8234 599.68 38.6802 599.823 38.6802 600L39.3198 600ZM38.6802 636L38.6802 636.32L39.3198 636.32L39.3198 636L38.6802 636ZM38.6802 600L38.6802 636L39.3198 636L39.3198 600L38.6802 600Z" fill="url(#paint58_linear_4188_52110)"/>
<path d="M46.3198 609C46.3198 608.823 46.1766 608.68 46 608.68C45.8234 608.68 45.6802 608.823 45.6802 609L46.3198 609ZM45.6802 636L45.6802 636.32L46.3198 636.32L46.3198 636L45.6802 636ZM45.6802 609L45.6802 636L46.3198 636L46.3198 609L45.6802 609Z" fill="url(#paint59_linear_4188_52110)"/>
<path d="M53.3198 609C53.3198 608.823 53.1766 608.68 53 608.68C52.8234 608.68 52.6802 608.823 52.6802 609L53.3198 609ZM52.6802 636L52.6802 636.32L53.3198 636.32L53.3198 636L52.6802 636ZM52.6802 609L52.6802 636L53.3198 636L53.3198 609L52.6802 609Z" fill="url(#paint60_linear_4188_52110)"/>
<path d="M60.3198 582C60.3198 581.823 60.1766 581.68 60 581.68C59.8234 581.68 59.6802 581.823 59.6802 582L60.3198 582ZM59.6802 636L59.6802 636.32L60.3198 636.32L60.3198 636L59.6802 636ZM59.6802 582L59.6802 636L60.3198 636L60.3198 582L59.6802 582Z" fill="url(#paint61_linear_4188_52110)"/>
<path d="M67.3198 618C67.3198 617.823 67.1766 617.68 67 617.68C66.8234 617.68 66.6802 617.823 66.6802 618L67.3198 618ZM66.6802 636L66.6802 636.32L67.3198 636.32L67.3198 636L66.6802 636ZM66.6802 618L66.6802 636L67.3198 636L67.3198 618L66.6802 618Z" fill="url(#paint62_linear_4188_52110)"/>
<path d="M74.3198 618C74.3198 617.823 74.1766 617.68 74 617.68C73.8234 617.68 73.6802 617.823 73.6802 618L74.3198 618ZM73.6802 636L73.6802 636.32L74.3198 636.32L74.3198 636L73.6802 636ZM73.6802 618L73.6802 636L74.3198 636L74.3198 618L73.6802 618Z" fill="url(#paint63_linear_4188_52110)"/>
<path d="M81.3198 597C81.3198 596.823 81.1766 596.68 81 596.68C80.8234 596.68 80.6802 596.823 80.6802 597L81.3198 597ZM80.6802 636L80.6802 636.32L81.3198 636.32L81.3198 636L80.6802 636ZM80.6802 597L80.6802 636L81.3198 636L81.3198 597L80.6802 597Z" fill="url(#paint64_linear_4188_52110)"/>
<path d="M88.3198 600C88.3198 599.823 88.1766 599.68 88 599.68C87.8234 599.68 87.6802 599.823 87.6802 600L88.3198 600ZM87.6802 636L87.6802 636.32L88.3198 636.32L88.3198 636L87.6802 636ZM87.6802 600L87.6802 636L88.3198 636L88.3198 600L87.6802 600Z" fill="url(#paint65_linear_4188_52110)"/>
<path d="M95.3198 618C95.3198 617.823 95.1766 617.68 95 617.68C94.8234 617.68 94.6802 617.823 94.6802 618L95.3198 618ZM94.6802 636L94.6802 636.32L95.3198 636.32L95.3198 636L94.6802 636ZM94.6802 618L94.6802 636L95.3198 636L95.3198 618L94.6802 618Z" fill="url(#paint66_linear_4188_52110)"/>
<path d="M102.32 627C102.32 626.823 102.177 626.68 102 626.68C101.823 626.68 101.68 626.823 101.68 627L102.32 627ZM101.68 636L101.68 636.32L102.32 636.32L102.32 636L101.68 636ZM101.68 627L101.68 636L102.32 636L102.32 627L101.68 627Z" fill="url(#paint67_linear_4188_52110)"/>
<path d="M109.32 627C109.32 626.823 109.177 626.68 109 626.68C108.823 626.68 108.68 626.823 108.68 627L109.32 627ZM108.68 636L108.68 636.32L109.32 636.32L109.32 636L108.68 636ZM108.68 627L108.68 636L109.32 636L109.32 627L108.68 627Z" fill="url(#paint68_linear_4188_52110)"/>
<path d="M116.32 603C116.32 602.823 116.177 602.68 116 602.68C115.823 602.68 115.68 602.823 115.68 603L116.32 603ZM115.68 636L115.68 636.32L116.32 636.32L116.32 636L115.68 636ZM115.68 603L115.68 636L116.32 636L116.32 603L115.68 603Z" fill="url(#paint69_linear_4188_52110)"/>
<path d="M123.32 590C123.32 589.823 123.177 589.68 123 589.68C122.823 589.68 122.68 589.823 122.68 590L123.32 590ZM122.68 636L122.68 636.32L123.32 636.32L123.32 636L122.68 636ZM122.68 590L122.68 636L123.32 636L123.32 590L122.68 590Z" fill="url(#paint70_linear_4188_52110)"/>
<path d="M130.32 613C130.32 612.823 130.177 612.68 130 612.68C129.823 612.68 129.68 612.823 129.68 613L130.32 613ZM129.68 636L129.68 636.32L130.32 636.32L130.32 636L129.68 636ZM129.68 613L129.68 636L130.32 636L130.32 613L129.68 613Z" fill="url(#paint71_linear_4188_52110)"/>
<path d="M137.32 613C137.32 612.823 137.177 612.68 137 612.68C136.823 612.68 136.68 612.823 136.68 613L137.32 613ZM136.68 636L136.68 636.32L137.32 636.32L137.32 636L136.68 636ZM136.68 613L136.68 636L137.32 636L137.32 613L136.68 613Z" fill="url(#paint72_linear_4188_52110)"/>
<path d="M144.32 603C144.32 602.823 144.177 602.68 144 602.68C143.823 602.68 143.68 602.823 143.68 603L144.32 603ZM143.68 636L143.68 636.32L144.32 636.32L144.32 636L143.68 636ZM143.68 603L143.68 636L144.32 636L144.32 603L143.68 603Z" fill="url(#paint73_linear_4188_52110)"/>
<path d="M151.32 620C151.32 619.823 151.177 619.68 151 619.68C150.823 619.68 150.68 619.823 150.68 620L151.32 620ZM150.68 636L150.68 636.32L151.32 636.32L151.32 636L150.68 636ZM150.68 620L150.68 636L151.32 636L151.32 620L150.68 620Z" fill="url(#paint74_linear_4188_52110)"/>
<path d="M158.32 609C158.32 608.823 158.177 608.68 158 608.68C157.823 608.68 157.68 608.823 157.68 609L158.32 609ZM157.68 636L157.68 636.32L158.32 636.32L158.32 636L157.68 636ZM157.68 609L157.68 636L158.32 636L158.32 609L157.68 609Z" fill="url(#paint75_linear_4188_52110)"/>
<path d="M165.32 594C165.32 593.823 165.177 593.68 165 593.68C164.823 593.68 164.68 593.823 164.68 594L165.32 594ZM164.68 636L164.68 636.32L165.32 636.32L165.32 636L164.68 636ZM164.68 594L164.68 636L165.32 636L165.32 594L164.68 594Z" fill="url(#paint76_linear_4188_52110)"/>
<path d="M172.32 582C172.32 581.823 172.177 581.68 172 581.68C171.823 581.68 171.68 581.823 171.68 582L172.32 582ZM171.68 636L171.68 636.32L172.32 636.32L172.32 636L171.68 636ZM171.68 582L171.68 636L172.32 636L172.32 582L171.68 582Z" fill="url(#paint77_linear_4188_52110)"/>
<path d="M179.32 591C179.32 590.823 179.177 590.68 179 590.68C178.823 590.68 178.68 590.823 178.68 591L179.32 591ZM178.68 636L178.68 636.32L179.32 636.32L179.32 636L178.68 636ZM178.68 591L178.68 636L179.32 636L179.32 591L178.68 591Z" fill="url(#paint78_linear_4188_52110)"/>
<path d="M186.32 600C186.32 599.823 186.177 599.68 186 599.68C185.823 599.68 185.68 599.823 185.68 600L186.32 600ZM185.68 636L185.68 636.32L186.32 636.32L186.32 636L185.68 636ZM185.68 600L185.68 636L186.32 636L186.32 600L185.68 600Z" fill="url(#paint79_linear_4188_52110)"/>
<path d="M193.32 620C193.32 619.823 193.177 619.68 193 619.68C192.823 619.68 192.68 619.823 192.68 620L193.32 620ZM192.68 636L192.68 636.32L193.32 636.32L193.32 636L192.68 636ZM192.68 620L192.68 636L193.32 636L193.32 620L192.68 620Z" fill="url(#paint80_linear_4188_52110)"/>
<path d="M200.32 629C200.32 628.823 200.177 628.68 200 628.68C199.823 628.68 199.68 628.823 199.68 629L200.32 629ZM199.68 636L199.68 636.32L200.32 636.32L200.32 636L199.68 636ZM199.68 629L199.68 636L200.32 636L200.32 629L199.68 629Z" fill="url(#paint81_linear_4188_52110)"/>
<path d="M207.32 604C207.32 603.823 207.177 603.68 207 603.68C206.823 603.68 206.68 603.823 206.68 604L207.32 604ZM206.68 636L206.68 636.32L207.32 636.32L207.32 636L206.68 636ZM206.68 604L206.68 636L207.32 636L207.32 604L206.68 604Z" fill="url(#paint82_linear_4188_52110)"/>
<path d="M214.32 614C214.32 613.823 214.177 613.68 214 613.68C213.823 613.68 213.68 613.823 213.68 614L214.32 614ZM213.68 636L213.68 636.32L214.32 636.32L214.32 636L213.68 636ZM213.68 614L213.68 636L214.32 636L214.32 614L213.68 614Z" fill="url(#paint83_linear_4188_52110)"/>
<path d="M221.32 604C221.32 603.823 221.177 603.68 221 603.68C220.823 603.68 220.68 603.823 220.68 604L221.32 604ZM220.68 636L220.68 636.32L221.32 636.32L221.32 636L220.68 636ZM220.68 604L220.68 636L221.32 636L221.32 604L220.68 604Z" fill="url(#paint84_linear_4188_52110)"/>
<path d="M228.32 582C228.32 581.823 228.177 581.68 228 581.68C227.823 581.68 227.68 581.823 227.68 582L228.32 582ZM227.68 636L227.68 636.32L228.32 636.32L228.32 636L227.68 636ZM227.68 582L227.68 636L228.32 636L228.32 582L227.68 582Z" fill="url(#paint85_linear_4188_52110)"/>
<path d="M235.32 599C235.32 598.823 235.177 598.68 235 598.68C234.823 598.68 234.68 598.823 234.68 599L235.32 599ZM234.68 636L234.68 636.32L235.32 636.32L235.32 636L234.68 636ZM234.68 599L234.68 636L235.32 636L235.32 599L234.68 599Z" fill="url(#paint86_linear_4188_52110)"/>
<path d="M242.32 609C242.32 608.823 242.177 608.68 242 608.68C241.823 608.68 241.68 608.823 241.68 609L242.32 609ZM241.68 636L241.68 636.32L242.32 636.32L242.32 636L241.68 636ZM241.68 609L241.68 636L242.32 636L242.32 609L241.68 609Z" fill="url(#paint87_linear_4188_52110)"/>
<path d="M249.32 599C249.32 598.823 249.177 598.68 249 598.68C248.823 598.68 248.68 598.823 248.68 599L249.32 599ZM248.68 636L248.68 636.32L249.32 636.32L249.32 636L248.68 636ZM248.68 599L248.68 636L249.32 636L249.32 599L248.68 599Z" fill="url(#paint88_linear_4188_52110)"/>
<path d="M256.32 625C256.32 624.823 256.177 624.68 256 624.68C255.823 624.68 255.68 624.823 255.68 625L256.32 625ZM255.68 636L255.68 636.32L256.32 636.32L256.32 636L255.68 636ZM255.68 625L255.68 636L256.32 636L256.32 625L255.68 625Z" fill="url(#paint89_linear_4188_52110)"/>
<path d="M263.32 631C263.32 630.823 263.177 630.68 263 630.68C262.823 630.68 262.68 630.823 262.68 631L263.32 631ZM262.68 636L262.68 636.32L263.32 636.32L263.32 636L262.68 636ZM262.68 631L262.68 636L263.32 636L263.32 631L262.68 631Z" fill="url(#paint90_linear_4188_52110)"/>
<path d="M270.32 631C270.32 630.823 270.177 630.68 270 630.68C269.823 630.68 269.68 630.823 269.68 631L270.32 631ZM269.68 636L269.68 636.32L270.32 636.32L270.32 636L269.68 636ZM269.68 631L269.68 636L270.32 636L270.32 631L269.68 631Z" fill="url(#paint91_linear_4188_52110)"/>
<path d="M277.32 625C277.32 624.823 277.177 624.68 277 624.68C276.823 624.68 276.68 624.823 276.68 625L277.32 625ZM276.68 636L276.68 636.32L277.32 636.32L277.32 636L276.68 636ZM276.68 625L276.68 636L277.32 636L277.32 625L276.68 625Z" fill="url(#paint92_linear_4188_52110)"/>
<path d="M284.32 621C284.32 620.823 284.177 620.68 284 620.68C283.823 620.68 283.68 620.823 283.68 621L284.32 621ZM283.68 636L283.68 636.32L284.32 636.32L284.32 636L283.68 636ZM283.68 621L283.68 636L284.32 636L284.32 621L283.68 621Z" fill="url(#paint93_linear_4188_52110)"/>
<path d="M291.32 621C291.32 620.823 291.177 620.68 291 620.68C290.823 620.68 290.68 620.823 290.68 621L291.32 621ZM290.68 636L290.68 636.32L291.32 636.32L291.32 636L290.68 636ZM290.68 621L290.68 636L291.32 636L291.32 621L290.68 621Z" fill="url(#paint94_linear_4188_52110)"/>
<path d="M298.32 609C298.32 608.823 298.177 608.68 298 608.68C297.823 608.68 297.68 608.823 297.68 609L298.32 609ZM297.68 636L297.68 636.32L298.32 636.32L298.32 636L297.68 636ZM297.68 609L297.68 636L298.32 636L298.32 609L297.68 609Z" fill="url(#paint95_linear_4188_52110)"/>
<path d="M305.32 604C305.32 603.823 305.177 603.68 305 603.68C304.823 603.68 304.68 603.823 304.68 604L305.32 604ZM304.68 636L304.68 636.32L305.32 636.32L305.32 636L304.68 636ZM304.68 604L304.68 636L305.32 636L305.32 604L304.68 604Z" fill="url(#paint96_linear_4188_52110)"/>
<path d="M312.32 599C312.32 598.823 312.177 598.68 312 598.68C311.823 598.68 311.68 598.823 311.68 599L312.32 599ZM311.68 636L311.68 636.32L312.32 636.32L312.32 636L311.68 636ZM311.68 599L311.68 636L312.32 636L312.32 599L311.68 599Z" fill="url(#paint97_linear_4188_52110)"/>
<path d="M319.32 613C319.32 612.823 319.177 612.68 319 612.68C318.823 612.68 318.68 612.823 318.68 613L319.32 613ZM318.68 636L318.68 636.32L319.32 636.32L319.32 636L318.68 636ZM318.68 613L318.68 636L319.32 636L319.32 613L318.68 613Z" fill="url(#paint98_linear_4188_52110)"/>
<path d="M326.32 620C326.32 619.823 326.177 619.68 326 619.68C325.823 619.68 325.68 619.823 325.68 620L326.32 620ZM325.68 636L325.68 636.32L326.32 636.32L326.32 636L325.68 636ZM325.68 620L325.68 636L326.32 636L326.32 620L325.68 620Z" fill="url(#paint99_linear_4188_52110)"/>
<path d="M333.32 625C333.32 624.823 333.177 624.68 333 624.68C332.823 624.68 332.68 624.823 332.68 625L333.32 625ZM332.68 636L332.68 636.32L333.32 636.32L333.32 636L332.68 636ZM332.68 625L332.68 636L333.32 636L333.32 625L332.68 625Z" fill="url(#paint100_linear_4188_52110)"/>
<path d="M340.32 615C340.32 614.823 340.177 614.68 340 614.68C339.823 614.68 339.68 614.823 339.68 615L340.32 615ZM339.68 636L339.68 636.32L340.32 636.32L340.32 636L339.68 636ZM339.68 615L339.68 636L340.32 636L340.32 615L339.68 615Z" fill="url(#paint101_linear_4188_52110)"/>
<path d="M347.32 607C347.32 606.823 347.177 606.68 347 606.68C346.823 606.68 346.68 606.823 346.68 607L347.32 607ZM346.68 636L346.68 636.32L347.32 636.32L347.32 636L346.68 636ZM346.68 607L346.68 636L347.32 636L347.32 607L346.68 607Z" fill="url(#paint102_linear_4188_52110)"/>
<path d="M354.32 600C354.32 599.823 354.177 599.68 354 599.68C353.823 599.68 353.68 599.823 353.68 600L354.32 600ZM353.68 636L353.68 636.32L354.32 636.32L354.32 636L353.68 636ZM353.68 600L353.68 636L354.32 636L354.32 600L353.68 600Z" fill="url(#paint103_linear_4188_52110)"/>
<path d="M361.32 582C361.32 581.823 361.177 581.68 361 581.68C360.823 581.68 360.68 581.823 360.68 582L361.32 582ZM360.68 636L360.68 636.32L361.32 636.32L361.32 636L360.68 636ZM360.68 582L360.68 636L361.32 636L361.32 582L360.68 582Z" fill="url(#paint104_linear_4188_52110)"/>
</g>
<defs>
<linearGradient id="paint0_linear_4188_52110" x1="224.488" y1="318.248" x2="224.488" y2="634" gradientUnits="userSpaceOnUse">
<stop stop-color="#2286DE"/>
<stop offset="1" stop-color="#3AAF75"/>
</linearGradient>
<linearGradient id="paint1_linear_4188_52110" x1="219.768" y1="309.391" x2="230.249" y2="309.391" gradientUnits="userSpaceOnUse">
<stop stop-color="#2286DE"/>
<stop offset="1" stop-color="#3AAF75"/>
</linearGradient>
<linearGradient id="paint2_linear_4188_52110" x1="11.3606" y1="442.77" x2="365.101" y2="442.77" gradientUnits="userSpaceOnUse">
<stop stop-color="#2286DE"/>
<stop offset="1" stop-color="#3AAF75"/>
</linearGradient>
<linearGradient id="paint3_linear_4188_52110" x1="12.3008" y1="313.293" x2="364" y2="313.293" gradientUnits="userSpaceOnUse">
<stop stop-color="#2286DE"/>
<stop offset="1" stop-color="#3AAF75"/>
</linearGradient>
<linearGradient id="paint4_linear_4188_52110" x1="4.5122" y1="618.874" x2="4.51161" y2="-3.04578e-05" gradientUnits="userSpaceOnUse">
<stop stop-color="#2286DE"/>
<stop offset="1" stop-color="#3AAF75"/>
</linearGradient>
<linearGradient id="paint5_linear_4188_52110" x1="21.5122" y1="618.874" x2="21.5116" y2="-3.04578e-05" gradientUnits="userSpaceOnUse">
<stop stop-color="#2286DE"/>
<stop offset="1" stop-color="#3AAF75"/>
</linearGradient>
<linearGradient id="paint6_linear_4188_52110" x1="38.5122" y1="618.874" x2="38.5116" y2="-3.04578e-05" gradientUnits="userSpaceOnUse">
<stop stop-color="#2286DE"/>
<stop offset="1" stop-color="#3AAF75"/>
</linearGradient>
<linearGradient id="paint7_linear_4188_52110" x1="55.5122" y1="618.874" x2="55.5116" y2="-3.04578e-05" gradientUnits="userSpaceOnUse">
<stop stop-color="#2286DE"/>
<stop offset="1" stop-color="#3AAF75"/>
</linearGradient>
<linearGradient id="paint8_linear_4188_52110" x1="72.5122" y1="618.874" x2="72.5116" y2="-3.04578e-05" gradientUnits="userSpaceOnUse">
<stop stop-color="#2286DE"/>
<stop offset="1" stop-color="#3AAF75"/>
</linearGradient>
<linearGradient id="paint9_linear_4188_52110" x1="89.5122" y1="618.874" x2="89.5116" y2="-3.04578e-05" gradientUnits="userSpaceOnUse">
<stop stop-color="#2286DE"/>
<stop offset="1" stop-color="#3AAF75"/>
</linearGradient>
<linearGradient id="paint10_linear_4188_52110" x1="106.512" y1="618.874" x2="106.512" y2="-3.04578e-05" gradientUnits="userSpaceOnUse">
<stop stop-color="#2286DE"/>
<stop offset="1" stop-color="#3AAF75"/>
</linearGradient>
<linearGradient id="paint11_linear_4188_52110" x1="123.512" y1="618.874" x2="123.512" y2="-3.04578e-05" gradientUnits="userSpaceOnUse">
<stop stop-color="#2286DE"/>
<stop offset="1" stop-color="#3AAF75"/>
</linearGradient>
<linearGradient id="paint12_linear_4188_52110" x1="140.512" y1="618.874" x2="140.512" y2="-3.04578e-05" gradientUnits="userSpaceOnUse">
<stop stop-color="#2286DE"/>
<stop offset="1" stop-color="#3AAF75"/>
</linearGradient>
<linearGradient id="paint13_linear_4188_52110" x1="157.512" y1="618.874" x2="157.512" y2="-3.04578e-05" gradientUnits="userSpaceOnUse">
<stop stop-color="#2286DE"/>
<stop offset="1" stop-color="#3AAF75"/>
</linearGradient>
<linearGradient id="paint14_linear_4188_52110" x1="174.512" y1="618.874" x2="174.512" y2="-3.04578e-05" gradientUnits="userSpaceOnUse">
<stop stop-color="#2286DE"/>
<stop offset="1" stop-color="#3AAF75"/>
</linearGradient>
<linearGradient id="paint15_linear_4188_52110" x1="191.512" y1="618.874" x2="191.512" y2="-3.04578e-05" gradientUnits="userSpaceOnUse">
<stop stop-color="#2286DE"/>
<stop offset="1" stop-color="#3AAF75"/>
</linearGradient>
<linearGradient id="paint16_linear_4188_52110" x1="208.512" y1="618.874" x2="208.512" y2="-3.04578e-05" gradientUnits="userSpaceOnUse">
<stop stop-color="#2286DE"/>
<stop offset="1" stop-color="#3AAF75"/>
</linearGradient>
<linearGradient id="paint17_linear_4188_52110" x1="225.512" y1="618.874" x2="225.512" y2="-3.04578e-05" gradientUnits="userSpaceOnUse">
<stop stop-color="#2286DE"/>
<stop offset="1" stop-color="#3AAF75"/>
</linearGradient>
<linearGradient id="paint18_linear_4188_52110" x1="242.512" y1="618.874" x2="242.512" y2="-3.04578e-05" gradientUnits="userSpaceOnUse">
<stop stop-color="#2286DE"/>
<stop offset="1" stop-color="#3AAF75"/>
</linearGradient>
<linearGradient id="paint19_linear_4188_52110" x1="259.512" y1="618.874" x2="259.512" y2="-3.04578e-05" gradientUnits="userSpaceOnUse">
<stop stop-color="#2286DE"/>
<stop offset="1" stop-color="#3AAF75"/>
</linearGradient>
<linearGradient id="paint20_linear_4188_52110" x1="276.512" y1="618.874" x2="276.512" y2="-3.04578e-05" gradientUnits="userSpaceOnUse">
<stop stop-color="#2286DE"/>
<stop offset="1" stop-color="#3AAF75"/>
</linearGradient>
<linearGradient id="paint21_linear_4188_52110" x1="293.512" y1="618.874" x2="293.512" y2="-3.04578e-05" gradientUnits="userSpaceOnUse">
<stop stop-color="#2286DE"/>
<stop offset="1" stop-color="#3AAF75"/>
</linearGradient>
<linearGradient id="paint22_linear_4188_52110" x1="310.512" y1="618.874" x2="310.512" y2="-3.04578e-05" gradientUnits="userSpaceOnUse">
<stop stop-color="#2286DE"/>
<stop offset="1" stop-color="#3AAF75"/>
</linearGradient>
<linearGradient id="paint23_linear_4188_52110" x1="327.512" y1="618.874" x2="327.512" y2="-3.04578e-05" gradientUnits="userSpaceOnUse">
<stop stop-color="#2286DE"/>
<stop offset="1" stop-color="#3AAF75"/>
</linearGradient>
<linearGradient id="paint24_linear_4188_52110" x1="344.512" y1="618.874" x2="344.512" y2="-3.04578e-05" gradientUnits="userSpaceOnUse">
<stop stop-color="#2286DE"/>
<stop offset="1" stop-color="#3AAF75"/>
</linearGradient>
<linearGradient id="paint25_linear_4188_52110" x1="361.512" y1="618.874" x2="361.512" y2="-3.04578e-05" gradientUnits="userSpaceOnUse">
<stop stop-color="#2286DE"/>
<stop offset="1" stop-color="#3AAF75"/>
</linearGradient>
<linearGradient id="paint26_linear_4188_52110" x1="11.3862" y1="25.5122" x2="366" y2="25.512" gradientUnits="userSpaceOnUse">
<stop stop-color="#2286DE"/>
<stop offset="1" stop-color="#3AAF75"/>
</linearGradient>
<linearGradient id="paint27_linear_4188_52110" x1="11.3862" y1="47.5122" x2="366" y2="47.512" gradientUnits="userSpaceOnUse">
<stop stop-color="#2286DE"/>
<stop offset="1" stop-color="#3AAF75"/>
</linearGradient>
<linearGradient id="paint28_linear_4188_52110" x1="11.3862" y1="69.5122" x2="366" y2="69.512" gradientUnits="userSpaceOnUse">
<stop stop-color="#2286DE"/>
<stop offset="1" stop-color="#3AAF75"/>
</linearGradient>
<linearGradient id="paint29_linear_4188_52110" x1="11.3862" y1="91.5122" x2="366" y2="91.512" gradientUnits="userSpaceOnUse">
<stop stop-color="#2286DE"/>
<stop offset="1" stop-color="#3AAF75"/>
</linearGradient>
<linearGradient id="paint30_linear_4188_52110" x1="11.3862" y1="113.512" x2="366" y2="113.512" gradientUnits="userSpaceOnUse">
<stop stop-color="#2286DE"/>
<stop offset="1" stop-color="#3AAF75"/>
</linearGradient>
<linearGradient id="paint31_linear_4188_52110" x1="11.3862" y1="135.512" x2="366" y2="135.512" gradientUnits="userSpaceOnUse">
<stop stop-color="#2286DE"/>
<stop offset="1" stop-color="#3AAF75"/>
</linearGradient>
<linearGradient id="paint32_linear_4188_52110" x1="11.3862" y1="157.512" x2="366" y2="157.512" gradientUnits="userSpaceOnUse">
<stop stop-color="#2286DE"/>
<stop offset="1" stop-color="#3AAF75"/>
</linearGradient>
<linearGradient id="paint33_linear_4188_52110" x1="11.3862" y1="179.512" x2="366" y2="179.512" gradientUnits="userSpaceOnUse">
<stop stop-color="#2286DE"/>
<stop offset="1" stop-color="#3AAF75"/>
</linearGradient>
<linearGradient id="paint34_linear_4188_52110" x1="11.3862" y1="201.512" x2="366" y2="201.512" gradientUnits="userSpaceOnUse">
<stop stop-color="#2286DE"/>
<stop offset="1" stop-color="#3AAF75"/>
</linearGradient>
<linearGradient id="paint35_linear_4188_52110" x1="11.3862" y1="223.512" x2="366" y2="223.512" gradientUnits="userSpaceOnUse">
<stop stop-color="#2286DE"/>
<stop offset="1" stop-color="#3AAF75"/>
</linearGradient>
<linearGradient id="paint36_linear_4188_52110" x1="11.3862" y1="245.512" x2="366" y2="245.512" gradientUnits="userSpaceOnUse">
<stop stop-color="#2286DE"/>
<stop offset="1" stop-color="#3AAF75"/>
</linearGradient>
<linearGradient id="paint37_linear_4188_52110" x1="11.3862" y1="267.512" x2="366" y2="267.512" gradientUnits="userSpaceOnUse">
<stop stop-color="#2286DE"/>
<stop offset="1" stop-color="#3AAF75"/>
</linearGradient>
<linearGradient id="paint38_linear_4188_52110" x1="11.3862" y1="289.512" x2="366" y2="289.512" gradientUnits="userSpaceOnUse">
<stop stop-color="#2286DE"/>
<stop offset="1" stop-color="#3AAF75"/>
</linearGradient>
<linearGradient id="paint39_linear_4188_52110" x1="11.3862" y1="311.512" x2="366" y2="311.512" gradientUnits="userSpaceOnUse">
<stop stop-color="#2286DE"/>
<stop offset="1" stop-color="#3AAF75"/>
</linearGradient>
<linearGradient id="paint40_linear_4188_52110" x1="11.3862" y1="333.512" x2="366" y2="333.512" gradientUnits="userSpaceOnUse">
<stop stop-color="#2286DE"/>
<stop offset="1" stop-color="#3AAF75"/>
</linearGradient>
<linearGradient id="paint41_linear_4188_52110" x1="11.3862" y1="355.512" x2="366" y2="355.512" gradientUnits="userSpaceOnUse">
<stop stop-color="#2286DE"/>
<stop offset="1" stop-color="#3AAF75"/>
</linearGradient>
<linearGradient id="paint42_linear_4188_52110" x1="11.3862" y1="377.512" x2="366" y2="377.512" gradientUnits="userSpaceOnUse">
<stop stop-color="#2286DE"/>
<stop offset="1" stop-color="#3AAF75"/>
</linearGradient>
<linearGradient id="paint43_linear_4188_52110" x1="11.3862" y1="399.512" x2="366" y2="399.512" gradientUnits="userSpaceOnUse">
<stop stop-color="#2286DE"/>
<stop offset="1" stop-color="#3AAF75"/>
</linearGradient>
<linearGradient id="paint44_linear_4188_52110" x1="11.3862" y1="421.512" x2="366" y2="421.512" gradientUnits="userSpaceOnUse">
<stop stop-color="#2286DE"/>
<stop offset="1" stop-color="#3AAF75"/>
</linearGradient>
<linearGradient id="paint45_linear_4188_52110" x1="11.3862" y1="443.512" x2="366" y2="443.512" gradientUnits="userSpaceOnUse">
<stop stop-color="#2286DE"/>
<stop offset="1" stop-color="#3AAF75"/>
</linearGradient>
<linearGradient id="paint46_linear_4188_52110" x1="11.3862" y1="465.512" x2="366" y2="465.512" gradientUnits="userSpaceOnUse">
<stop stop-color="#2286DE"/>
<stop offset="1" stop-color="#3AAF75"/>
</linearGradient>
<linearGradient id="paint47_linear_4188_52110" x1="11.3862" y1="487.512" x2="366" y2="487.512" gradientUnits="userSpaceOnUse">
<stop stop-color="#2286DE"/>
<stop offset="1" stop-color="#3AAF75"/>
</linearGradient>
<linearGradient id="paint48_linear_4188_52110" x1="11.3862" y1="509.512" x2="366" y2="509.512" gradientUnits="userSpaceOnUse">
<stop stop-color="#2286DE"/>
<stop offset="1" stop-color="#3AAF75"/>
</linearGradient>
<linearGradient id="paint49_linear_4188_52110" x1="11.3862" y1="531.512" x2="366" y2="531.512" gradientUnits="userSpaceOnUse">
<stop stop-color="#2286DE"/>
<stop offset="1" stop-color="#3AAF75"/>
</linearGradient>
<linearGradient id="paint50_linear_4188_52110" x1="11.3862" y1="553.512" x2="366" y2="553.512" gradientUnits="userSpaceOnUse">
<stop stop-color="#2286DE"/>
<stop offset="1" stop-color="#3AAF75"/>
</linearGradient>
<linearGradient id="paint51_linear_4188_52110" x1="11.3862" y1="575.512" x2="366" y2="575.512" gradientUnits="userSpaceOnUse">
<stop stop-color="#2286DE"/>
<stop offset="1" stop-color="#3AAF75"/>
</linearGradient>
<linearGradient id="paint52_linear_4188_52110" x1="11.3862" y1="597.512" x2="366" y2="597.512" gradientUnits="userSpaceOnUse">
<stop stop-color="#2286DE"/>
<stop offset="1" stop-color="#3AAF75"/>
</linearGradient>
<linearGradient id="paint53_linear_4188_52110" x1="11.3862" y1="619.512" x2="366" y2="619.512" gradientUnits="userSpaceOnUse">
<stop stop-color="#2286DE"/>
<stop offset="1" stop-color="#3AAF75"/>
</linearGradient>
<linearGradient id="paint54_linear_4188_52110" x1="10.4878" y1="626.285" x2="10.4878" y2="636" gradientUnits="userSpaceOnUse">
<stop stop-color="#2286DE"/>
<stop offset="1" stop-color="#3AAF75"/>
</linearGradient>
<linearGradient id="paint55_linear_4188_52110" x1="17.4878" y1="626.285" x2="17.4878" y2="636" gradientUnits="userSpaceOnUse">
<stop stop-color="#2286DE"/>
<stop offset="1" stop-color="#3AAF75"/>
</linearGradient>
<linearGradient id="paint56_linear_4188_52110" x1="24.4878" y1="626.285" x2="24.4878" y2="636" gradientUnits="userSpaceOnUse">
<stop stop-color="#2286DE"/>
<stop offset="1" stop-color="#3AAF75"/>
</linearGradient>
<linearGradient id="paint57_linear_4188_52110" x1="31.4878" y1="618.512" x2="31.4878" y2="636" gradientUnits="userSpaceOnUse">
<stop stop-color="#2286DE"/>
<stop offset="1" stop-color="#3AAF75"/>
</linearGradient>
<linearGradient id="paint58_linear_4188_52110" x1="38.4878" y1="601.024" x2="38.4878" y2="636" gradientUnits="userSpaceOnUse">
<stop stop-color="#2286DE"/>
<stop offset="1" stop-color="#3AAF75"/>
</linearGradient>
<linearGradient id="paint59_linear_4188_52110" x1="45.4878" y1="609.768" x2="45.4878" y2="636" gradientUnits="userSpaceOnUse">
<stop stop-color="#2286DE"/>
<stop offset="1" stop-color="#3AAF75"/>
</linearGradient>
<linearGradient id="paint60_linear_4188_52110" x1="52.4878" y1="609.768" x2="52.4878" y2="636" gradientUnits="userSpaceOnUse">
<stop stop-color="#2286DE"/>
<stop offset="1" stop-color="#3AAF75"/>
</linearGradient>
<linearGradient id="paint61_linear_4188_52110" x1="59.4878" y1="583.537" x2="59.4878" y2="636" gradientUnits="userSpaceOnUse">
<stop stop-color="#2286DE"/>
<stop offset="1" stop-color="#3AAF75"/>
</linearGradient>
<linearGradient id="paint62_linear_4188_52110" x1="66.4878" y1="618.512" x2="66.4878" y2="636" gradientUnits="userSpaceOnUse">
<stop stop-color="#2286DE"/>
<stop offset="1" stop-color="#3AAF75"/>
</linearGradient>
<linearGradient id="paint63_linear_4188_52110" x1="73.4878" y1="618.512" x2="73.4878" y2="636" gradientUnits="userSpaceOnUse">
<stop stop-color="#2286DE"/>
<stop offset="1" stop-color="#3AAF75"/>
</linearGradient>
<linearGradient id="paint64_linear_4188_52110" x1="80.4878" y1="598.11" x2="80.4878" y2="636" gradientUnits="userSpaceOnUse">
<stop stop-color="#2286DE"/>
<stop offset="1" stop-color="#3AAF75"/>
</linearGradient>
<linearGradient id="paint65_linear_4188_52110" x1="87.4878" y1="601.024" x2="87.4878" y2="636" gradientUnits="userSpaceOnUse">
<stop stop-color="#2286DE"/>
<stop offset="1" stop-color="#3AAF75"/>
</linearGradient>
<linearGradient id="paint66_linear_4188_52110" x1="94.4878" y1="618.512" x2="94.4878" y2="636" gradientUnits="userSpaceOnUse">
<stop stop-color="#2286DE"/>
<stop offset="1" stop-color="#3AAF75"/>
</linearGradient>
<linearGradient id="paint67_linear_4188_52110" x1="101.488" y1="627.256" x2="101.488" y2="636" gradientUnits="userSpaceOnUse">
<stop stop-color="#2286DE"/>
<stop offset="1" stop-color="#3AAF75"/>
</linearGradient>
<linearGradient id="paint68_linear_4188_52110" x1="108.488" y1="627.256" x2="108.488" y2="636" gradientUnits="userSpaceOnUse">
<stop stop-color="#2286DE"/>
<stop offset="1" stop-color="#3AAF75"/>
</linearGradient>
<linearGradient id="paint69_linear_4188_52110" x1="115.488" y1="603.939" x2="115.488" y2="636" gradientUnits="userSpaceOnUse">
<stop stop-color="#2286DE"/>
<stop offset="1" stop-color="#3AAF75"/>
</linearGradient>
<linearGradient id="paint70_linear_4188_52110" x1="122.488" y1="591.309" x2="122.488" y2="636" gradientUnits="userSpaceOnUse">
<stop stop-color="#2286DE"/>
<stop offset="1" stop-color="#3AAF75"/>
</linearGradient>
<linearGradient id="paint71_linear_4188_52110" x1="129.488" y1="613.654" x2="129.488" y2="636" gradientUnits="userSpaceOnUse">
<stop stop-color="#2286DE"/>
<stop offset="1" stop-color="#3AAF75"/>
</linearGradient>
<linearGradient id="paint72_linear_4188_52110" x1="136.488" y1="613.654" x2="136.488" y2="636" gradientUnits="userSpaceOnUse">
<stop stop-color="#2286DE"/>
<stop offset="1" stop-color="#3AAF75"/>
</linearGradient>
<linearGradient id="paint73_linear_4188_52110" x1="143.488" y1="603.939" x2="143.488" y2="636" gradientUnits="userSpaceOnUse">
<stop stop-color="#2286DE"/>
<stop offset="1" stop-color="#3AAF75"/>
</linearGradient>
<linearGradient id="paint74_linear_4188_52110" x1="150.488" y1="620.455" x2="150.488" y2="636" gradientUnits="userSpaceOnUse">
<stop stop-color="#2286DE"/>
<stop offset="1" stop-color="#3AAF75"/>
</linearGradient>
<linearGradient id="paint75_linear_4188_52110" x1="157.488" y1="609.768" x2="157.488" y2="636" gradientUnits="userSpaceOnUse">
<stop stop-color="#2286DE"/>
<stop offset="1" stop-color="#3AAF75"/>
</linearGradient>
<linearGradient id="paint76_linear_4188_52110" x1="164.488" y1="595.195" x2="164.488" y2="636" gradientUnits="userSpaceOnUse">
<stop stop-color="#2286DE"/>
<stop offset="1" stop-color="#3AAF75"/>
</linearGradient>
<linearGradient id="paint77_linear_4188_52110" x1="171.488" y1="583.537" x2="171.488" y2="636" gradientUnits="userSpaceOnUse">
<stop stop-color="#2286DE"/>
<stop offset="1" stop-color="#3AAF75"/>
</linearGradient>
<linearGradient id="paint78_linear_4188_52110" x1="178.488" y1="592.28" x2="178.488" y2="636" gradientUnits="userSpaceOnUse">
<stop stop-color="#2286DE"/>
<stop offset="1" stop-color="#3AAF75"/>
</linearGradient>
<linearGradient id="paint79_linear_4188_52110" x1="185.488" y1="601.024" x2="185.488" y2="636" gradientUnits="userSpaceOnUse">
<stop stop-color="#2286DE"/>
<stop offset="1" stop-color="#3AAF75"/>
</linearGradient>
<linearGradient id="paint80_linear_4188_52110" x1="192.488" y1="620.455" x2="192.488" y2="636" gradientUnits="userSpaceOnUse">
<stop stop-color="#2286DE"/>
<stop offset="1" stop-color="#3AAF75"/>
</linearGradient>
<linearGradient id="paint81_linear_4188_52110" x1="199.488" y1="629.199" x2="199.488" y2="636" gradientUnits="userSpaceOnUse">
<stop stop-color="#2286DE"/>
<stop offset="1" stop-color="#3AAF75"/>
</linearGradient>
<linearGradient id="paint82_linear_4188_52110" x1="206.488" y1="604.911" x2="206.488" y2="636" gradientUnits="userSpaceOnUse">
<stop stop-color="#2286DE"/>
<stop offset="1" stop-color="#3AAF75"/>
</linearGradient>
<linearGradient id="paint83_linear_4188_52110" x1="213.488" y1="614.626" x2="213.488" y2="636" gradientUnits="userSpaceOnUse">
<stop stop-color="#2286DE"/>
<stop offset="1" stop-color="#3AAF75"/>
</linearGradient>
<linearGradient id="paint84_linear_4188_52110" x1="220.488" y1="604.911" x2="220.488" y2="636" gradientUnits="userSpaceOnUse">
<stop stop-color="#2286DE"/>
<stop offset="1" stop-color="#3AAF75"/>
</linearGradient>
<linearGradient id="paint85_linear_4188_52110" x1="227.488" y1="583.537" x2="227.488" y2="636" gradientUnits="userSpaceOnUse">
<stop stop-color="#2286DE"/>
<stop offset="1" stop-color="#3AAF75"/>
</linearGradient>
<linearGradient id="paint86_linear_4188_52110" x1="234.488" y1="600.053" x2="234.488" y2="636" gradientUnits="userSpaceOnUse">
<stop stop-color="#2286DE"/>
<stop offset="1" stop-color="#3AAF75"/>
</linearGradient>
<linearGradient id="paint87_linear_4188_52110" x1="241.488" y1="609.768" x2="241.488" y2="636" gradientUnits="userSpaceOnUse">
<stop stop-color="#2286DE"/>
<stop offset="1" stop-color="#3AAF75"/>
</linearGradient>
<linearGradient id="paint88_linear_4188_52110" x1="248.488" y1="600.053" x2="248.488" y2="636" gradientUnits="userSpaceOnUse">
<stop stop-color="#2286DE"/>
<stop offset="1" stop-color="#3AAF75"/>
</linearGradient>
<linearGradient id="paint89_linear_4188_52110" x1="255.488" y1="625.313" x2="255.488" y2="636" gradientUnits="userSpaceOnUse">
<stop stop-color="#2286DE"/>
<stop offset="1" stop-color="#3AAF75"/>
</linearGradient>
<linearGradient id="paint90_linear_4188_52110" x1="262.488" y1="631.142" x2="262.488" y2="636" gradientUnits="userSpaceOnUse">
<stop stop-color="#2286DE"/>
<stop offset="1" stop-color="#3AAF75"/>
</linearGradient>
<linearGradient id="paint91_linear_4188_52110" x1="269.488" y1="631.142" x2="269.488" y2="636" gradientUnits="userSpaceOnUse">
<stop stop-color="#2286DE"/>
<stop offset="1" stop-color="#3AAF75"/>
</linearGradient>
<linearGradient id="paint92_linear_4188_52110" x1="276.488" y1="625.313" x2="276.488" y2="636" gradientUnits="userSpaceOnUse">
<stop stop-color="#2286DE"/>
<stop offset="1" stop-color="#3AAF75"/>
</linearGradient>
<linearGradient id="paint93_linear_4188_52110" x1="283.488" y1="621.427" x2="283.488" y2="636" gradientUnits="userSpaceOnUse">
<stop stop-color="#2286DE"/>
<stop offset="1" stop-color="#3AAF75"/>
</linearGradient>
<linearGradient id="paint94_linear_4188_52110" x1="290.488" y1="621.427" x2="290.488" y2="636" gradientUnits="userSpaceOnUse">
<stop stop-color="#2286DE"/>
<stop offset="1" stop-color="#3AAF75"/>
</linearGradient>
<linearGradient id="paint95_linear_4188_52110" x1="297.488" y1="609.768" x2="297.488" y2="636" gradientUnits="userSpaceOnUse">
<stop stop-color="#2286DE"/>
<stop offset="1" stop-color="#3AAF75"/>
</linearGradient>
<linearGradient id="paint96_linear_4188_52110" x1="304.488" y1="604.911" x2="304.488" y2="636" gradientUnits="userSpaceOnUse">
<stop stop-color="#2286DE"/>
<stop offset="1" stop-color="#3AAF75"/>
</linearGradient>
<linearGradient id="paint97_linear_4188_52110" x1="311.488" y1="600.053" x2="311.488" y2="636" gradientUnits="userSpaceOnUse">
<stop stop-color="#2286DE"/>
<stop offset="1" stop-color="#3AAF75"/>
</linearGradient>
<linearGradient id="paint98_linear_4188_52110" x1="318.488" y1="613.654" x2="318.488" y2="636" gradientUnits="userSpaceOnUse">
<stop stop-color="#2286DE"/>
<stop offset="1" stop-color="#3AAF75"/>
</linearGradient>
<linearGradient id="paint99_linear_4188_52110" x1="325.488" y1="620.455" x2="325.488" y2="636" gradientUnits="userSpaceOnUse">
<stop stop-color="#2286DE"/>
<stop offset="1" stop-color="#3AAF75"/>
</linearGradient>
<linearGradient id="paint100_linear_4188_52110" x1="332.488" y1="625.313" x2="332.488" y2="636" gradientUnits="userSpaceOnUse">
<stop stop-color="#2286DE"/>
<stop offset="1" stop-color="#3AAF75"/>
</linearGradient>
<linearGradient id="paint101_linear_4188_52110" x1="339.488" y1="615.598" x2="339.488" y2="636" gradientUnits="userSpaceOnUse">
<stop stop-color="#2286DE"/>
<stop offset="1" stop-color="#3AAF75"/>
</linearGradient>
<linearGradient id="paint102_linear_4188_52110" x1="346.488" y1="607.825" x2="346.488" y2="636" gradientUnits="userSpaceOnUse">
<stop stop-color="#2286DE"/>
<stop offset="1" stop-color="#3AAF75"/>
</linearGradient>
<linearGradient id="paint103_linear_4188_52110" x1="353.488" y1="601.024" x2="353.488" y2="636" gradientUnits="userSpaceOnUse">
<stop stop-color="#2286DE"/>
<stop offset="1" stop-color="#3AAF75"/>
</linearGradient>
<linearGradient id="paint104_linear_4188_52110" x1="360.488" y1="583.537" x2="360.488" y2="636" gradientUnits="userSpaceOnUse">
<stop stop-color="#2286DE"/>
<stop offset="1" stop-color="#3AAF75"/>
</linearGradient>
</defs>
</svg>
