<svg width="428" height="717" viewBox="0 0 428 717" fill="none" xmlns="http://www.w3.org/2000/svg">
<g filter="url(#filter0_d_4188_52111)">
<rect x="12" y="11" width="404" height="680" rx="7.19211" fill="#232323"/>
</g>
<path opacity="0.1" d="M260.899 416C260.899 415.503 260.497 415.101 260 415.101C259.503 415.101 259.101 415.503 259.101 416L260.899 416ZM259.101 691L259.101 691.899L260.899 691.899L260.899 691L259.101 691ZM259.101 416L259.101 691L260.899 691L260.899 416L259.101 416Z" fill="url(#paint0_linear_4188_52111)"/>
<circle opacity="0.5" cx="260" cy="416" r="5.87768" fill="url(#paint1_linear_4188_52111)" stroke="#C7C6C6" stroke-width="0.244648"/>
<path opacity="0.03" d="M64.3704 447.515C52.2866 428.571 40.6293 402.122 29.4568 396.17L12 390.701V684.039L12.9975 686.028L13.9951 687.023L14.9926 688.514L16.4889 689.508L18.9827 690.503L21.9753 691H409.017L414.005 688.017L416 683.542V391.199V338L399.042 371.311L388.568 350.43L337.694 423.515L323.23 404.125L295.299 447.515L257.891 416.412L220.862 494.508L185.57 447.515L174.099 502.317L156.143 487.506L139.684 501.823L79.8321 427.767L64.3704 447.515Z" fill="url(#paint2_linear_4188_52111)" stroke="url(#paint3_linear_4188_52111)" stroke-width="1.79803" stroke-linecap="round" stroke-linejoin="round"/>
<path opacity="0.1" d="M13 387.6L30.4136 393.058C41.5585 398.998 53.1869 425.396 65.2407 444.304L80.6642 424.594L140.368 498.507L156.786 484.217L174.698 499L186.141 444.304L221.345 491.206L258.283 413.261L295.598 444.304L323.459 400.998L337.888 420.351L388.636 347.406L399.084 368.247L416 335" stroke="url(#paint4_linear_4188_52111)" stroke-width="3.59606" stroke-linecap="round" stroke-linejoin="round"/>
<g opacity="0.07">
<line x1="19.7322" y1="691" x2="19.7322" y2="11" stroke="url(#paint5_linear_4188_52111)" stroke-width="0.535649"/>
<line x1="36.7322" y1="691" x2="36.7322" y2="11" stroke="url(#paint6_linear_4188_52111)" stroke-width="0.535649"/>
<line x1="53.7322" y1="691" x2="53.7322" y2="11" stroke="url(#paint7_linear_4188_52111)" stroke-width="0.535649"/>
<line x1="70.7322" y1="691" x2="70.7322" y2="11" stroke="url(#paint8_linear_4188_52111)" stroke-width="0.535649"/>
<line x1="87.7322" y1="691" x2="87.7322" y2="11" stroke="url(#paint9_linear_4188_52111)" stroke-width="0.535649"/>
<line x1="104.732" y1="691" x2="104.732" y2="11" stroke="url(#paint10_linear_4188_52111)" stroke-width="0.535649"/>
<line x1="121.732" y1="691" x2="121.732" y2="11" stroke="url(#paint11_linear_4188_52111)" stroke-width="0.535649"/>
<line x1="138.732" y1="691" x2="138.732" y2="11" stroke="url(#paint12_linear_4188_52111)" stroke-width="0.535649"/>
<line x1="155.732" y1="691" x2="155.732" y2="11" stroke="url(#paint13_linear_4188_52111)" stroke-width="0.535649"/>
<line x1="172.732" y1="691" x2="172.732" y2="11" stroke="url(#paint14_linear_4188_52111)" stroke-width="0.535649"/>
<line x1="189.732" y1="691" x2="189.732" y2="11" stroke="url(#paint15_linear_4188_52111)" stroke-width="0.535649"/>
<line x1="206.732" y1="691" x2="206.732" y2="11" stroke="url(#paint16_linear_4188_52111)" stroke-width="0.535649"/>
<line x1="223.732" y1="691" x2="223.732" y2="11" stroke="url(#paint17_linear_4188_52111)" stroke-width="0.535649"/>
<line x1="240.732" y1="691" x2="240.732" y2="11" stroke="url(#paint18_linear_4188_52111)" stroke-width="0.535649"/>
<line x1="257.732" y1="691" x2="257.732" y2="11" stroke="url(#paint19_linear_4188_52111)" stroke-width="0.535649"/>
<line x1="274.732" y1="691" x2="274.732" y2="11" stroke="url(#paint20_linear_4188_52111)" stroke-width="0.535649"/>
<line x1="291.732" y1="691" x2="291.732" y2="11" stroke="url(#paint21_linear_4188_52111)" stroke-width="0.535649"/>
<line x1="308.732" y1="691" x2="308.732" y2="11" stroke="url(#paint22_linear_4188_52111)" stroke-width="0.535649"/>
<line x1="325.732" y1="691" x2="325.732" y2="11" stroke="url(#paint23_linear_4188_52111)" stroke-width="0.535649"/>
<line x1="342.732" y1="691" x2="342.732" y2="11" stroke="url(#paint24_linear_4188_52111)" stroke-width="0.535649"/>
<line x1="359.732" y1="691" x2="359.732" y2="11" stroke="url(#paint25_linear_4188_52111)" stroke-width="0.535649"/>
<line x1="376.732" y1="691" x2="376.732" y2="11" stroke="url(#paint26_linear_4188_52111)" stroke-width="0.535649"/>
<line x1="393.732" y1="691" x2="393.732" y2="11" stroke="url(#paint27_linear_4188_52111)" stroke-width="0.535649"/>
<line x1="410.732" y1="691" x2="410.732" y2="11" stroke="url(#paint28_linear_4188_52111)" stroke-width="0.535649"/>
<line x1="13" y1="31.7322" x2="416" y2="31.7321" stroke="url(#paint29_linear_4188_52111)" stroke-width="0.535649"/>
<line x1="13" y1="53.7322" x2="416" y2="53.7321" stroke="url(#paint30_linear_4188_52111)" stroke-width="0.535649"/>
<line x1="13" y1="75.7322" x2="416" y2="75.7321" stroke="url(#paint31_linear_4188_52111)" stroke-width="0.535649"/>
<line x1="13" y1="97.7322" x2="416" y2="97.7321" stroke="url(#paint32_linear_4188_52111)" stroke-width="0.535649"/>
<line x1="13" y1="119.732" x2="416" y2="119.732" stroke="url(#paint33_linear_4188_52111)" stroke-width="0.535649"/>
<line x1="13" y1="141.732" x2="416" y2="141.732" stroke="url(#paint34_linear_4188_52111)" stroke-width="0.535649"/>
<line x1="13" y1="163.732" x2="416" y2="163.732" stroke="url(#paint35_linear_4188_52111)" stroke-width="0.535649"/>
<line x1="13" y1="185.732" x2="416" y2="185.732" stroke="url(#paint36_linear_4188_52111)" stroke-width="0.535649"/>
<line x1="13" y1="207.732" x2="416" y2="207.732" stroke="url(#paint37_linear_4188_52111)" stroke-width="0.535649"/>
<line x1="13" y1="229.732" x2="416" y2="229.732" stroke="url(#paint38_linear_4188_52111)" stroke-width="0.535649"/>
<line x1="13" y1="251.732" x2="416" y2="251.732" stroke="url(#paint39_linear_4188_52111)" stroke-width="0.535649"/>
<line x1="13" y1="273.732" x2="416" y2="273.732" stroke="url(#paint40_linear_4188_52111)" stroke-width="0.535649"/>
<line x1="13" y1="295.732" x2="416" y2="295.732" stroke="url(#paint41_linear_4188_52111)" stroke-width="0.535649"/>
<line x1="13" y1="317.732" x2="416" y2="317.732" stroke="url(#paint42_linear_4188_52111)" stroke-width="0.535649"/>
<line x1="13" y1="339.732" x2="416" y2="339.732" stroke="url(#paint43_linear_4188_52111)" stroke-width="0.535649"/>
<line x1="13" y1="361.732" x2="416" y2="361.732" stroke="url(#paint44_linear_4188_52111)" stroke-width="0.535649"/>
<line x1="13" y1="383.732" x2="416" y2="383.732" stroke="url(#paint45_linear_4188_52111)" stroke-width="0.535649"/>
<line x1="13" y1="405.732" x2="416" y2="405.732" stroke="url(#paint46_linear_4188_52111)" stroke-width="0.535649"/>
<line x1="13" y1="427.732" x2="416" y2="427.732" stroke="url(#paint47_linear_4188_52111)" stroke-width="0.535649"/>
<line x1="13" y1="449.732" x2="416" y2="449.732" stroke="url(#paint48_linear_4188_52111)" stroke-width="0.535649"/>
<line x1="13" y1="471.732" x2="416" y2="471.732" stroke="url(#paint49_linear_4188_52111)" stroke-width="0.535649"/>
<line x1="13" y1="493.732" x2="416" y2="493.732" stroke="url(#paint50_linear_4188_52111)" stroke-width="0.535649"/>
<line x1="13" y1="515.732" x2="416" y2="515.732" stroke="url(#paint51_linear_4188_52111)" stroke-width="0.535649"/>
<line x1="13" y1="537.732" x2="416" y2="537.732" stroke="url(#paint52_linear_4188_52111)" stroke-width="0.535649"/>
<line x1="13" y1="559.732" x2="416" y2="559.732" stroke="url(#paint53_linear_4188_52111)" stroke-width="0.535649"/>
<line x1="13" y1="581.732" x2="416" y2="581.732" stroke="url(#paint54_linear_4188_52111)" stroke-width="0.535649"/>
<line x1="13" y1="603.732" x2="416" y2="603.732" stroke="url(#paint55_linear_4188_52111)" stroke-width="0.535649"/>
<line x1="13" y1="625.732" x2="416" y2="625.732" stroke="url(#paint56_linear_4188_52111)" stroke-width="0.535649"/>
<line x1="13" y1="647.732" x2="416" y2="647.732" stroke="url(#paint57_linear_4188_52111)" stroke-width="0.535649"/>
<line x1="13" y1="669.732" x2="416" y2="669.732" stroke="url(#paint58_linear_4188_52111)" stroke-width="0.535649"/>
</g>
<g opacity="0.3">
<path d="M28.3198 681C28.3198 680.823 28.1766 680.68 28 680.68C27.8234 680.68 27.6802 680.823 27.6802 681L28.3198 681ZM27.6802 691L27.6802 691.32L28.3198 691.32L28.3198 691L27.6802 691ZM27.6802 681L27.6802 691L28.3198 691L28.3198 681L27.6802 681Z" fill="url(#paint59_linear_4188_52111)"/>
<path d="M35.3198 672C35.3198 671.823 35.1766 671.68 35 671.68C34.8234 671.68 34.6802 671.823 34.6802 672L35.3198 672ZM34.6802 691L34.6802 691.32L35.3198 691.32L35.3198 691L34.6802 691ZM34.6802 672L34.6802 691L35.3198 691L35.3198 672L34.6802 672Z" fill="url(#paint60_linear_4188_52111)"/>
<path d="M42.3198 664C42.3198 663.823 42.1766 663.68 42 663.68C41.8234 663.68 41.6802 663.823 41.6802 664L42.3198 664ZM41.6802 691L41.6802 691.32L42.3198 691.32L42.3198 691L41.6802 691ZM41.6802 664L41.6802 691L42.3198 691L42.3198 664L41.6802 664Z" fill="url(#paint61_linear_4188_52111)"/>
<path d="M49.3198 678C49.3198 677.823 49.1766 677.68 49 677.68C48.8234 677.68 48.6802 677.823 48.6802 678L49.3198 678ZM48.6802 691L48.6802 691.32L49.3198 691.32L49.3198 691L48.6802 691ZM48.6802 678L48.6802 691L49.3198 691L49.3198 678L48.6802 678Z" fill="url(#paint62_linear_4188_52111)"/>
<path d="M56.3198 681C56.3198 680.823 56.1766 680.68 56 680.68C55.8234 680.68 55.6802 680.823 55.6802 681L56.3198 681ZM55.6802 691L55.6802 691.32L56.3198 691.32L56.3198 691L55.6802 691ZM55.6802 681L55.6802 691L56.3198 691L56.3198 681L55.6802 681Z" fill="url(#paint63_linear_4188_52111)"/>
<path d="M63.3198 673C63.3198 672.823 63.1766 672.68 63 672.68C62.8234 672.68 62.6802 672.823 62.6802 673L63.3198 673ZM62.6802 691L62.6802 691.32L63.3198 691.32L63.3198 691L62.6802 691ZM62.6802 673L62.6802 691L63.3198 691L63.3198 673L62.6802 673Z" fill="url(#paint64_linear_4188_52111)"/>
<path d="M70.3198 655C70.3198 654.823 70.1766 654.68 70 654.68C69.8234 654.68 69.6802 654.823 69.6802 655L70.3198 655ZM69.6802 691L69.6802 691.32L70.3198 691.32L70.3198 691L69.6802 691ZM69.6802 655L69.6802 691L70.3198 691L70.3198 655L69.6802 655Z" fill="url(#paint65_linear_4188_52111)"/>
<path d="M77.3198 664C77.3198 663.823 77.1766 663.68 77 663.68C76.8234 663.68 76.6802 663.823 76.6802 664L77.3198 664ZM76.6802 691L76.6802 691.32L77.3198 691.32L77.3198 691L76.6802 691ZM76.6802 664L76.6802 691L77.3198 691L77.3198 664L76.6802 664Z" fill="url(#paint66_linear_4188_52111)"/>
<path d="M84.3198 664C84.3198 663.823 84.1766 663.68 84 663.68C83.8234 663.68 83.6802 663.823 83.6802 664L84.3198 664ZM83.6802 691L83.6802 691.32L84.3198 691.32L84.3198 691L83.6802 691ZM83.6802 664L83.6802 691L84.3198 691L84.3198 664L83.6802 664Z" fill="url(#paint67_linear_4188_52111)"/>
<path d="M91.3198 637C91.3198 636.823 91.1766 636.68 91 636.68C90.8234 636.68 90.6802 636.823 90.6802 637L91.3198 637ZM90.6802 691L90.6802 691.32L91.3198 691.32L91.3198 691L90.6802 691ZM90.6802 637L90.6802 691L91.3198 691L91.3198 637L90.6802 637Z" fill="url(#paint68_linear_4188_52111)"/>
<path d="M98.3198 673C98.3198 672.823 98.1766 672.68 98 672.68C97.8234 672.68 97.6802 672.823 97.6802 673L98.3198 673ZM97.6802 691L97.6802 691.32L98.3198 691.32L98.3198 691L97.6802 691ZM97.6802 673L97.6802 691L98.3198 691L98.3198 673L97.6802 673Z" fill="url(#paint69_linear_4188_52111)"/>
<path d="M105.32 673C105.32 672.823 105.177 672.68 105 672.68C104.823 672.68 104.68 672.823 104.68 673L105.32 673ZM104.68 691L104.68 691.32L105.32 691.32L105.32 691L104.68 691ZM104.68 673L104.68 691L105.32 691L105.32 673L104.68 673Z" fill="url(#paint70_linear_4188_52111)"/>
<path d="M112.32 664C112.32 663.823 112.177 663.68 112 663.68C111.823 663.68 111.68 663.823 111.68 664L112.32 664ZM111.68 691L111.68 691.32L112.32 691.32L112.32 691L111.68 691ZM111.68 664L111.68 691L112.32 691L112.32 664L111.68 664Z" fill="url(#paint71_linear_4188_52111)"/>
<path d="M119.32 655C119.32 654.823 119.177 654.68 119 654.68C118.823 654.68 118.68 654.823 118.68 655L119.32 655ZM118.68 691L118.68 691.32L119.32 691.32L119.32 691L118.68 691ZM118.68 655L118.68 691L119.32 691L119.32 655L118.68 655Z" fill="url(#paint72_linear_4188_52111)"/>
<path d="M126.32 673C126.32 672.823 126.177 672.68 126 672.68C125.823 672.68 125.68 672.823 125.68 673L126.32 673ZM125.68 691L125.68 691.32L126.32 691.32L126.32 691L125.68 691ZM125.68 673L125.68 691L126.32 691L126.32 673L125.68 673Z" fill="url(#paint73_linear_4188_52111)"/>
<path d="M133.32 682C133.32 681.823 133.177 681.68 133 681.68C132.823 681.68 132.68 681.823 132.68 682L133.32 682ZM132.68 691L132.68 691.32L133.32 691.32L133.32 691L132.68 691ZM132.68 682L132.68 691L133.32 691L133.32 682L132.68 682Z" fill="url(#paint74_linear_4188_52111)"/>
<path d="M140.32 682C140.32 681.823 140.177 681.68 140 681.68C139.823 681.68 139.68 681.823 139.68 682L140.32 682ZM139.68 691L139.68 691.32L140.32 691.32L140.32 691L139.68 691ZM139.68 682L139.68 691L140.32 691L140.32 682L139.68 682Z" fill="url(#paint75_linear_4188_52111)"/>
<path d="M147.32 658C147.32 657.823 147.177 657.68 147 657.68C146.823 657.68 146.68 657.823 146.68 658L147.32 658ZM146.68 691L146.68 691.32L147.32 691.32L147.32 691L146.68 691ZM146.68 658L146.68 691L147.32 691L147.32 658L146.68 658Z" fill="url(#paint76_linear_4188_52111)"/>
<path d="M154.32 645C154.32 644.823 154.177 644.68 154 644.68C153.823 644.68 153.68 644.823 153.68 645L154.32 645ZM153.68 691L153.68 691.32L154.32 691.32L154.32 691L153.68 691ZM153.68 645L153.68 691L154.32 691L154.32 645L153.68 645Z" fill="url(#paint77_linear_4188_52111)"/>
<path d="M161.32 668C161.32 667.823 161.177 667.68 161 667.68C160.823 667.68 160.68 667.823 160.68 668L161.32 668ZM160.68 691L160.68 691.32L161.32 691.32L161.32 691L160.68 691ZM160.68 668L160.68 691L161.32 691L161.32 668L160.68 668Z" fill="url(#paint78_linear_4188_52111)"/>
<path d="M168.32 668C168.32 667.823 168.177 667.68 168 667.68C167.823 667.68 167.68 667.823 167.68 668L168.32 668ZM167.68 691L167.68 691.32L168.32 691.32L168.32 691L167.68 691ZM167.68 668L167.68 691L168.32 691L168.32 668L167.68 668Z" fill="url(#paint79_linear_4188_52111)"/>
<path d="M175.32 658C175.32 657.823 175.177 657.68 175 657.68C174.823 657.68 174.68 657.823 174.68 658L175.32 658ZM174.68 691L174.68 691.32L175.32 691.32L175.32 691L174.68 691ZM174.68 658L174.68 691L175.32 691L175.32 658L174.68 658Z" fill="url(#paint80_linear_4188_52111)"/>
<path d="M182.32 675C182.32 674.823 182.177 674.68 182 674.68C181.823 674.68 181.68 674.823 181.68 675L182.32 675ZM181.68 691L181.68 691.32L182.32 691.32L182.32 691L181.68 691ZM181.68 675L181.68 691L182.32 691L182.32 675L181.68 675Z" fill="url(#paint81_linear_4188_52111)"/>
<path d="M189.32 664C189.32 663.823 189.177 663.68 189 663.68C188.823 663.68 188.68 663.823 188.68 664L189.32 664ZM188.68 691L188.68 691.32L189.32 691.32L189.32 691L188.68 691ZM188.68 664L188.68 691L189.32 691L189.32 664L188.68 664Z" fill="url(#paint82_linear_4188_52111)"/>
<path d="M196.32 649C196.32 648.823 196.177 648.68 196 648.68C195.823 648.68 195.68 648.823 195.68 649L196.32 649ZM195.68 691L195.68 691.32L196.32 691.32L196.32 691L195.68 691ZM195.68 649L195.68 691L196.32 691L196.32 649L195.68 649Z" fill="url(#paint83_linear_4188_52111)"/>
<path d="M203.32 637C203.32 636.823 203.177 636.68 203 636.68C202.823 636.68 202.68 636.823 202.68 637L203.32 637ZM202.68 691L202.68 691.32L203.32 691.32L203.32 691L202.68 691ZM202.68 637L202.68 691L203.32 691L203.32 637L202.68 637Z" fill="url(#paint84_linear_4188_52111)"/>
<path d="M210.32 659C210.32 658.823 210.177 658.68 210 658.68C209.823 658.68 209.68 658.823 209.68 659L210.32 659ZM209.68 691L209.68 691.32L210.32 691.32L210.32 691L209.68 691ZM209.68 659L209.68 691L210.32 691L210.32 659L209.68 659Z" fill="url(#paint85_linear_4188_52111)"/>
<path d="M217.32 646C217.32 645.823 217.177 645.68 217 645.68C216.823 645.68 216.68 645.823 216.68 646L217.32 646ZM216.68 691L216.68 691.32L217.32 691.32L217.32 691L216.68 691ZM216.68 646L216.68 691L217.32 691L217.32 646L216.68 646Z" fill="url(#paint86_linear_4188_52111)"/>
<path d="M224.32 655C224.32 654.823 224.177 654.68 224 654.68C223.823 654.68 223.68 654.823 223.68 655L224.32 655ZM223.68 691L223.68 691.32L224.32 691.32L224.32 691L223.68 691ZM223.68 655L223.68 691L224.32 691L224.32 655L223.68 655Z" fill="url(#paint87_linear_4188_52111)"/>
<path d="M231.32 675C231.32 674.823 231.177 674.68 231 674.68C230.823 674.68 230.68 674.823 230.68 675L231.32 675ZM230.68 691L230.68 691.32L231.32 691.32L231.32 691L230.68 691ZM230.68 675L230.68 691L231.32 691L231.32 675L230.68 675Z" fill="url(#paint88_linear_4188_52111)"/>
<path d="M238.32 684C238.32 683.823 238.177 683.68 238 683.68C237.823 683.68 237.68 683.823 237.68 684L238.32 684ZM237.68 691L237.68 691.32L238.32 691.32L238.32 691L237.68 691ZM237.68 684L237.68 691L238.32 691L238.32 684L237.68 684Z" fill="url(#paint89_linear_4188_52111)"/>
<path d="M245.32 659C245.32 658.823 245.177 658.68 245 658.68C244.823 658.68 244.68 658.823 244.68 659L245.32 659ZM244.68 691L244.68 691.32L245.32 691.32L245.32 691L244.68 691ZM244.68 659L244.68 691L245.32 691L245.32 659L244.68 659Z" fill="url(#paint90_linear_4188_52111)"/>
<path d="M252.32 669C252.32 668.823 252.177 668.68 252 668.68C251.823 668.68 251.68 668.823 251.68 669L252.32 669ZM251.68 691L251.68 691.32L252.32 691.32L252.32 691L251.68 691ZM251.68 669L251.68 691L252.32 691L252.32 669L251.68 669Z" fill="url(#paint91_linear_4188_52111)"/>
<path d="M259.32 669C259.32 668.823 259.177 668.68 259 668.68C258.823 668.68 258.68 668.823 258.68 669L259.32 669ZM258.68 691L258.68 691.32L259.32 691.32L259.32 691L258.68 691ZM258.68 669L258.68 691L259.32 691L259.32 669L258.68 669Z" fill="url(#paint92_linear_4188_52111)"/>
<path d="M266.32 659C266.32 658.823 266.177 658.68 266 658.68C265.823 658.68 265.68 658.823 265.68 659L266.32 659ZM265.68 691L265.68 691.32L266.32 691.32L266.32 691L265.68 691ZM265.68 659L265.68 691L266.32 691L266.32 659L265.68 659Z" fill="url(#paint93_linear_4188_52111)"/>
<path d="M273.32 637C273.32 636.823 273.177 636.68 273 636.68C272.823 636.68 272.68 636.823 272.68 637L273.32 637ZM272.68 691L272.68 691.32L273.32 691.32L273.32 691L272.68 691ZM272.68 637L272.68 691L273.32 691L273.32 637L272.68 637Z" fill="url(#paint94_linear_4188_52111)"/>
<path d="M280.32 654C280.32 653.823 280.177 653.68 280 653.68C279.823 653.68 279.68 653.823 279.68 654L280.32 654ZM279.68 691L279.68 691.32L280.32 691.32L280.32 691L279.68 691ZM279.68 654L279.68 691L280.32 691L280.32 654L279.68 654Z" fill="url(#paint95_linear_4188_52111)"/>
<path d="M287.32 664C287.32 663.823 287.177 663.68 287 663.68C286.823 663.68 286.68 663.823 286.68 664L287.32 664ZM286.68 691L286.68 691.32L287.32 691.32L287.32 691L286.68 691ZM286.68 664L286.68 691L287.32 691L287.32 664L286.68 664Z" fill="url(#paint96_linear_4188_52111)"/>
<path d="M294.32 654C294.32 653.823 294.177 653.68 294 653.68C293.823 653.68 293.68 653.823 293.68 654L294.32 654ZM293.68 691L293.68 691.32L294.32 691.32L294.32 691L293.68 691ZM293.68 654L293.68 691L294.32 691L294.32 654L293.68 654Z" fill="url(#paint97_linear_4188_52111)"/>
<path d="M301.32 654C301.32 653.823 301.177 653.68 301 653.68C300.823 653.68 300.68 653.823 300.68 654L301.32 654ZM300.68 691L300.68 691.32L301.32 691.32L301.32 691L300.68 691ZM300.68 654L300.68 691L301.32 691L301.32 654L300.68 654Z" fill="url(#paint98_linear_4188_52111)"/>
<path d="M308.32 680C308.32 679.823 308.177 679.68 308 679.68C307.823 679.68 307.68 679.823 307.68 680L308.32 680ZM307.68 691L307.68 691.32L308.32 691.32L308.32 691L307.68 691ZM307.68 680L307.68 691L308.32 691L308.32 680L307.68 680Z" fill="url(#paint99_linear_4188_52111)"/>
<path d="M315.32 686C315.32 685.823 315.177 685.68 315 685.68C314.823 685.68 314.68 685.823 314.68 686L315.32 686ZM314.68 691L314.68 691.32L315.32 691.32L315.32 691L314.68 691ZM314.68 686L314.68 691L315.32 691L315.32 686L314.68 686Z" fill="url(#paint100_linear_4188_52111)"/>
<path d="M322.32 686C322.32 685.823 322.177 685.68 322 685.68C321.823 685.68 321.68 685.823 321.68 686L322.32 686ZM321.68 691L321.68 691.32L322.32 691.32L322.32 691L321.68 691ZM321.68 686L321.68 691L322.32 691L322.32 686L321.68 686Z" fill="url(#paint101_linear_4188_52111)"/>
<path d="M329.32 680C329.32 679.823 329.177 679.68 329 679.68C328.823 679.68 328.68 679.823 328.68 680L329.32 680ZM328.68 691L328.68 691.32L329.32 691.32L329.32 691L328.68 691ZM328.68 680L328.68 691L329.32 691L329.32 680L328.68 680Z" fill="url(#paint102_linear_4188_52111)"/>
<path d="M336.32 676C336.32 675.823 336.177 675.68 336 675.68C335.823 675.68 335.68 675.823 335.68 676L336.32 676ZM335.68 691L335.68 691.32L336.32 691.32L336.32 691L335.68 691ZM335.68 676L335.68 691L336.32 691L336.32 676L335.68 676Z" fill="url(#paint103_linear_4188_52111)"/>
<path d="M343.32 676C343.32 675.823 343.177 675.68 343 675.68C342.823 675.68 342.68 675.823 342.68 676L343.32 676ZM342.68 691L342.68 691.32L343.32 691.32L343.32 691L342.68 691ZM342.68 676L342.68 691L343.32 691L343.32 676L342.68 676Z" fill="url(#paint104_linear_4188_52111)"/>
<path d="M350.32 676C350.32 675.823 350.177 675.68 350 675.68C349.823 675.68 349.68 675.823 349.68 676L350.32 676ZM349.68 691L349.68 691.32L350.32 691.32L350.32 691L349.68 691ZM349.68 676L349.68 691L350.32 691L350.32 676L349.68 676Z" fill="url(#paint105_linear_4188_52111)"/>
<path d="M357.32 664C357.32 663.823 357.177 663.68 357 663.68C356.823 663.68 356.68 663.823 356.68 664L357.32 664ZM356.68 691L356.68 691.32L357.32 691.32L357.32 691L356.68 691ZM356.68 664L356.68 691L357.32 691L357.32 664L356.68 664Z" fill="url(#paint106_linear_4188_52111)"/>
<path d="M364.32 659C364.32 658.823 364.177 658.68 364 658.68C363.823 658.68 363.68 658.823 363.68 659L364.32 659ZM363.68 691L363.68 691.32L364.32 691.32L364.32 691L363.68 691ZM363.68 659L363.68 691L364.32 691L364.32 659L363.68 659Z" fill="url(#paint107_linear_4188_52111)"/>
<path d="M371.32 669C371.32 668.823 371.177 668.68 371 668.68C370.823 668.68 370.68 668.823 370.68 669L371.32 669ZM370.68 691L370.68 691.32L371.32 691.32L371.32 691L370.68 691ZM370.68 669L370.68 691L371.32 691L371.32 669L370.68 669Z" fill="url(#paint108_linear_4188_52111)"/>
<path d="M378.32 659C378.32 658.823 378.177 658.68 378 658.68C377.823 658.68 377.68 658.823 377.68 659L378.32 659ZM377.68 691L377.68 691.32L378.32 691.32L378.32 691L377.68 691ZM377.68 659L377.68 691L378.32 691L378.32 659L377.68 659Z" fill="url(#paint109_linear_4188_52111)"/>
<path d="M385.32 654C385.32 653.823 385.177 653.68 385 653.68C384.823 653.68 384.68 653.823 384.68 654L385.32 654ZM384.68 691L384.68 691.32L385.32 691.32L385.32 691L384.68 691ZM384.68 654L384.68 691L385.32 691L385.32 654L384.68 654Z" fill="url(#paint110_linear_4188_52111)"/>
<path d="M392.32 643C392.32 642.823 392.177 642.68 392 642.68C391.823 642.68 391.68 642.823 391.68 643L392.32 643ZM391.68 691L391.68 691.32L392.32 691.32L392.32 691L391.68 691ZM391.68 643L391.68 691L392.32 691L392.32 643L391.68 643Z" fill="url(#paint111_linear_4188_52111)"/>
<path d="M399.32 637C399.32 636.823 399.177 636.68 399 636.68C398.823 636.68 398.68 636.823 398.68 637L399.32 637ZM398.68 691L398.68 691.32L399.32 691.32L399.32 691L398.68 691ZM398.68 637L398.68 691L399.32 691L399.32 637L398.68 637Z" fill="url(#paint112_linear_4188_52111)"/>
</g>
<defs>
<filter id="filter0_d_4188_52111" x="-5.98028" y="0.211832" width="439.961" height="715.961" filterUnits="userSpaceOnUse" color-interpolation-filters="sRGB">
<feFlood flood-opacity="0" result="BackgroundImageFix"/>
<feColorMatrix in="SourceAlpha" type="matrix" values="0 0 0 0 0 0 0 0 0 0 0 0 0 0 0 0 0 0 127 0" result="hardAlpha"/>
<feOffset dy="7.19211"/>
<feGaussianBlur stdDeviation="8.99014"/>
<feComposite in2="hardAlpha" operator="out"/>
<feColorMatrix type="matrix" values="0 0 0 0 0 0 0 0 0 0 0 0 0 0 0 0 0 0 0.4 0"/>
<feBlend mode="normal" in2="BackgroundImageFix" result="effect1_dropShadow_4188_52111"/>
<feBlend mode="normal" in="SourceGraphic" in2="effect1_dropShadow_4188_52111" result="shape"/>
</filter>
<linearGradient id="paint0_linear_4188_52111" x1="259.488" y1="423.825" x2="259.488" y2="691" gradientUnits="userSpaceOnUse">
<stop stop-color="#2286DE"/>
<stop offset="1" stop-color="#3AAF75"/>
</linearGradient>
<linearGradient id="paint1_linear_4188_52111" x1="254.341" y1="416.146" x2="266" y2="416.146" gradientUnits="userSpaceOnUse">
<stop stop-color="#2286DE"/>
<stop offset="1" stop-color="#3AAF75"/>
</linearGradient>
<linearGradient id="paint2_linear_4188_52111" x1="23.4959" y1="518.805" x2="416" y2="518.805" gradientUnits="userSpaceOnUse">
<stop stop-color="#2286DE"/>
<stop offset="1" stop-color="#3AAF75"/>
</linearGradient>
<linearGradient id="paint3_linear_4188_52111" x1="23.4959" y1="518.805" x2="416" y2="518.805" gradientUnits="userSpaceOnUse">
<stop stop-color="#2286DE"/>
<stop offset="1" stop-color="#3AAF75"/>
</linearGradient>
<linearGradient id="paint4_linear_4188_52111" x1="24.4675" y1="419" x2="416" y2="419" gradientUnits="userSpaceOnUse">
<stop stop-color="#2286DE"/>
<stop offset="1" stop-color="#3AAF75"/>
</linearGradient>
<linearGradient id="paint5_linear_4188_52111" x1="20.5122" y1="671.65" x2="20.5115" y2="11" gradientUnits="userSpaceOnUse">
<stop stop-color="#2286DE"/>
<stop offset="1" stop-color="#3AAF75"/>
</linearGradient>
<linearGradient id="paint6_linear_4188_52111" x1="37.5122" y1="671.65" x2="37.5115" y2="11" gradientUnits="userSpaceOnUse">
<stop stop-color="#2286DE"/>
<stop offset="1" stop-color="#3AAF75"/>
</linearGradient>
<linearGradient id="paint7_linear_4188_52111" x1="54.5122" y1="671.65" x2="54.5115" y2="11" gradientUnits="userSpaceOnUse">
<stop stop-color="#2286DE"/>
<stop offset="1" stop-color="#3AAF75"/>
</linearGradient>
<linearGradient id="paint8_linear_4188_52111" x1="71.5122" y1="671.65" x2="71.5115" y2="11" gradientUnits="userSpaceOnUse">
<stop stop-color="#2286DE"/>
<stop offset="1" stop-color="#3AAF75"/>
</linearGradient>
<linearGradient id="paint9_linear_4188_52111" x1="88.5122" y1="671.65" x2="88.5115" y2="11" gradientUnits="userSpaceOnUse">
<stop stop-color="#2286DE"/>
<stop offset="1" stop-color="#3AAF75"/>
</linearGradient>
<linearGradient id="paint10_linear_4188_52111" x1="105.512" y1="671.65" x2="105.512" y2="11" gradientUnits="userSpaceOnUse">
<stop stop-color="#2286DE"/>
<stop offset="1" stop-color="#3AAF75"/>
</linearGradient>
<linearGradient id="paint11_linear_4188_52111" x1="122.512" y1="671.65" x2="122.512" y2="11" gradientUnits="userSpaceOnUse">
<stop stop-color="#2286DE"/>
<stop offset="1" stop-color="#3AAF75"/>
</linearGradient>
<linearGradient id="paint12_linear_4188_52111" x1="139.512" y1="671.65" x2="139.512" y2="11" gradientUnits="userSpaceOnUse">
<stop stop-color="#2286DE"/>
<stop offset="1" stop-color="#3AAF75"/>
</linearGradient>
<linearGradient id="paint13_linear_4188_52111" x1="156.512" y1="671.65" x2="156.512" y2="11" gradientUnits="userSpaceOnUse">
<stop stop-color="#2286DE"/>
<stop offset="1" stop-color="#3AAF75"/>
</linearGradient>
<linearGradient id="paint14_linear_4188_52111" x1="173.512" y1="671.65" x2="173.512" y2="11" gradientUnits="userSpaceOnUse">
<stop stop-color="#2286DE"/>
<stop offset="1" stop-color="#3AAF75"/>
</linearGradient>
<linearGradient id="paint15_linear_4188_52111" x1="190.512" y1="671.65" x2="190.512" y2="11" gradientUnits="userSpaceOnUse">
<stop stop-color="#2286DE"/>
<stop offset="1" stop-color="#3AAF75"/>
</linearGradient>
<linearGradient id="paint16_linear_4188_52111" x1="207.512" y1="671.65" x2="207.512" y2="11" gradientUnits="userSpaceOnUse">
<stop stop-color="#2286DE"/>
<stop offset="1" stop-color="#3AAF75"/>
</linearGradient>
<linearGradient id="paint17_linear_4188_52111" x1="224.512" y1="671.65" x2="224.512" y2="11" gradientUnits="userSpaceOnUse">
<stop stop-color="#2286DE"/>
<stop offset="1" stop-color="#3AAF75"/>
</linearGradient>
<linearGradient id="paint18_linear_4188_52111" x1="241.512" y1="671.65" x2="241.512" y2="11" gradientUnits="userSpaceOnUse">
<stop stop-color="#2286DE"/>
<stop offset="1" stop-color="#3AAF75"/>
</linearGradient>
<linearGradient id="paint19_linear_4188_52111" x1="258.512" y1="671.65" x2="258.512" y2="11" gradientUnits="userSpaceOnUse">
<stop stop-color="#2286DE"/>
<stop offset="1" stop-color="#3AAF75"/>
</linearGradient>
<linearGradient id="paint20_linear_4188_52111" x1="275.512" y1="671.65" x2="275.512" y2="11" gradientUnits="userSpaceOnUse">
<stop stop-color="#2286DE"/>
<stop offset="1" stop-color="#3AAF75"/>
</linearGradient>
<linearGradient id="paint21_linear_4188_52111" x1="292.512" y1="671.65" x2="292.512" y2="11" gradientUnits="userSpaceOnUse">
<stop stop-color="#2286DE"/>
<stop offset="1" stop-color="#3AAF75"/>
</linearGradient>
<linearGradient id="paint22_linear_4188_52111" x1="309.512" y1="671.65" x2="309.512" y2="11" gradientUnits="userSpaceOnUse">
<stop stop-color="#2286DE"/>
<stop offset="1" stop-color="#3AAF75"/>
</linearGradient>
<linearGradient id="paint23_linear_4188_52111" x1="326.512" y1="671.65" x2="326.512" y2="11" gradientUnits="userSpaceOnUse">
<stop stop-color="#2286DE"/>
<stop offset="1" stop-color="#3AAF75"/>
</linearGradient>
<linearGradient id="paint24_linear_4188_52111" x1="343.512" y1="671.65" x2="343.512" y2="11" gradientUnits="userSpaceOnUse">
<stop stop-color="#2286DE"/>
<stop offset="1" stop-color="#3AAF75"/>
</linearGradient>
<linearGradient id="paint25_linear_4188_52111" x1="360.512" y1="671.65" x2="360.512" y2="11" gradientUnits="userSpaceOnUse">
<stop stop-color="#2286DE"/>
<stop offset="1" stop-color="#3AAF75"/>
</linearGradient>
<linearGradient id="paint26_linear_4188_52111" x1="377.512" y1="671.65" x2="377.512" y2="11" gradientUnits="userSpaceOnUse">
<stop stop-color="#2286DE"/>
<stop offset="1" stop-color="#3AAF75"/>
</linearGradient>
<linearGradient id="paint27_linear_4188_52111" x1="394.512" y1="671.65" x2="394.512" y2="11" gradientUnits="userSpaceOnUse">
<stop stop-color="#2286DE"/>
<stop offset="1" stop-color="#3AAF75"/>
</linearGradient>
<linearGradient id="paint28_linear_4188_52111" x1="411.512" y1="671.65" x2="411.512" y2="11" gradientUnits="userSpaceOnUse">
<stop stop-color="#2286DE"/>
<stop offset="1" stop-color="#3AAF75"/>
</linearGradient>
<linearGradient id="paint29_linear_4188_52111" x1="24.4675" y1="32.5122" x2="416" y2="32.5119" gradientUnits="userSpaceOnUse">
<stop stop-color="#2286DE"/>
<stop offset="1" stop-color="#3AAF75"/>
</linearGradient>
<linearGradient id="paint30_linear_4188_52111" x1="24.4675" y1="54.5122" x2="416" y2="54.5119" gradientUnits="userSpaceOnUse">
<stop stop-color="#2286DE"/>
<stop offset="1" stop-color="#3AAF75"/>
</linearGradient>
<linearGradient id="paint31_linear_4188_52111" x1="24.4675" y1="76.5122" x2="416" y2="76.5119" gradientUnits="userSpaceOnUse">
<stop stop-color="#2286DE"/>
<stop offset="1" stop-color="#3AAF75"/>
</linearGradient>
<linearGradient id="paint32_linear_4188_52111" x1="24.4675" y1="98.5122" x2="416" y2="98.5119" gradientUnits="userSpaceOnUse">
<stop stop-color="#2286DE"/>
<stop offset="1" stop-color="#3AAF75"/>
</linearGradient>
<linearGradient id="paint33_linear_4188_52111" x1="24.4675" y1="120.512" x2="416" y2="120.512" gradientUnits="userSpaceOnUse">
<stop stop-color="#2286DE"/>
<stop offset="1" stop-color="#3AAF75"/>
</linearGradient>
<linearGradient id="paint34_linear_4188_52111" x1="24.4675" y1="142.512" x2="416" y2="142.512" gradientUnits="userSpaceOnUse">
<stop stop-color="#2286DE"/>
<stop offset="1" stop-color="#3AAF75"/>
</linearGradient>
<linearGradient id="paint35_linear_4188_52111" x1="24.4675" y1="164.512" x2="416" y2="164.512" gradientUnits="userSpaceOnUse">
<stop stop-color="#2286DE"/>
<stop offset="1" stop-color="#3AAF75"/>
</linearGradient>
<linearGradient id="paint36_linear_4188_52111" x1="24.4675" y1="186.512" x2="416" y2="186.512" gradientUnits="userSpaceOnUse">
<stop stop-color="#2286DE"/>
<stop offset="1" stop-color="#3AAF75"/>
</linearGradient>
<linearGradient id="paint37_linear_4188_52111" x1="24.4675" y1="208.512" x2="416" y2="208.512" gradientUnits="userSpaceOnUse">
<stop stop-color="#2286DE"/>
<stop offset="1" stop-color="#3AAF75"/>
</linearGradient>
<linearGradient id="paint38_linear_4188_52111" x1="24.4675" y1="230.512" x2="416" y2="230.512" gradientUnits="userSpaceOnUse">
<stop stop-color="#2286DE"/>
<stop offset="1" stop-color="#3AAF75"/>
</linearGradient>
<linearGradient id="paint39_linear_4188_52111" x1="24.4675" y1="252.512" x2="416" y2="252.512" gradientUnits="userSpaceOnUse">
<stop stop-color="#2286DE"/>
<stop offset="1" stop-color="#3AAF75"/>
</linearGradient>
<linearGradient id="paint40_linear_4188_52111" x1="24.4675" y1="274.512" x2="416" y2="274.512" gradientUnits="userSpaceOnUse">
<stop stop-color="#2286DE"/>
<stop offset="1" stop-color="#3AAF75"/>
</linearGradient>
<linearGradient id="paint41_linear_4188_52111" x1="24.4675" y1="296.512" x2="416" y2="296.512" gradientUnits="userSpaceOnUse">
<stop stop-color="#2286DE"/>
<stop offset="1" stop-color="#3AAF75"/>
</linearGradient>
<linearGradient id="paint42_linear_4188_52111" x1="24.4675" y1="318.512" x2="416" y2="318.512" gradientUnits="userSpaceOnUse">
<stop stop-color="#2286DE"/>
<stop offset="1" stop-color="#3AAF75"/>
</linearGradient>
<linearGradient id="paint43_linear_4188_52111" x1="24.4675" y1="340.512" x2="416" y2="340.512" gradientUnits="userSpaceOnUse">
<stop stop-color="#2286DE"/>
<stop offset="1" stop-color="#3AAF75"/>
</linearGradient>
<linearGradient id="paint44_linear_4188_52111" x1="24.4675" y1="362.512" x2="416" y2="362.512" gradientUnits="userSpaceOnUse">
<stop stop-color="#2286DE"/>
<stop offset="1" stop-color="#3AAF75"/>
</linearGradient>
<linearGradient id="paint45_linear_4188_52111" x1="24.4675" y1="384.512" x2="416" y2="384.512" gradientUnits="userSpaceOnUse">
<stop stop-color="#2286DE"/>
<stop offset="1" stop-color="#3AAF75"/>
</linearGradient>
<linearGradient id="paint46_linear_4188_52111" x1="24.4675" y1="406.512" x2="416" y2="406.512" gradientUnits="userSpaceOnUse">
<stop stop-color="#2286DE"/>
<stop offset="1" stop-color="#3AAF75"/>
</linearGradient>
<linearGradient id="paint47_linear_4188_52111" x1="24.4675" y1="428.512" x2="416" y2="428.512" gradientUnits="userSpaceOnUse">
<stop stop-color="#2286DE"/>
<stop offset="1" stop-color="#3AAF75"/>
</linearGradient>
<linearGradient id="paint48_linear_4188_52111" x1="24.4675" y1="450.512" x2="416" y2="450.512" gradientUnits="userSpaceOnUse">
<stop stop-color="#2286DE"/>
<stop offset="1" stop-color="#3AAF75"/>
</linearGradient>
<linearGradient id="paint49_linear_4188_52111" x1="24.4675" y1="472.512" x2="416" y2="472.512" gradientUnits="userSpaceOnUse">
<stop stop-color="#2286DE"/>
<stop offset="1" stop-color="#3AAF75"/>
</linearGradient>
<linearGradient id="paint50_linear_4188_52111" x1="24.4675" y1="494.512" x2="416" y2="494.512" gradientUnits="userSpaceOnUse">
<stop stop-color="#2286DE"/>
<stop offset="1" stop-color="#3AAF75"/>
</linearGradient>
<linearGradient id="paint51_linear_4188_52111" x1="24.4675" y1="516.512" x2="416" y2="516.512" gradientUnits="userSpaceOnUse">
<stop stop-color="#2286DE"/>
<stop offset="1" stop-color="#3AAF75"/>
</linearGradient>
<linearGradient id="paint52_linear_4188_52111" x1="24.4675" y1="538.512" x2="416" y2="538.512" gradientUnits="userSpaceOnUse">
<stop stop-color="#2286DE"/>
<stop offset="1" stop-color="#3AAF75"/>
</linearGradient>
<linearGradient id="paint53_linear_4188_52111" x1="24.4675" y1="560.512" x2="416" y2="560.512" gradientUnits="userSpaceOnUse">
<stop stop-color="#2286DE"/>
<stop offset="1" stop-color="#3AAF75"/>
</linearGradient>
<linearGradient id="paint54_linear_4188_52111" x1="24.4675" y1="582.512" x2="416" y2="582.512" gradientUnits="userSpaceOnUse">
<stop stop-color="#2286DE"/>
<stop offset="1" stop-color="#3AAF75"/>
</linearGradient>
<linearGradient id="paint55_linear_4188_52111" x1="24.4675" y1="604.512" x2="416" y2="604.512" gradientUnits="userSpaceOnUse">
<stop stop-color="#2286DE"/>
<stop offset="1" stop-color="#3AAF75"/>
</linearGradient>
<linearGradient id="paint56_linear_4188_52111" x1="24.4675" y1="626.512" x2="416" y2="626.512" gradientUnits="userSpaceOnUse">
<stop stop-color="#2286DE"/>
<stop offset="1" stop-color="#3AAF75"/>
</linearGradient>
<linearGradient id="paint57_linear_4188_52111" x1="24.4675" y1="648.512" x2="416" y2="648.512" gradientUnits="userSpaceOnUse">
<stop stop-color="#2286DE"/>
<stop offset="1" stop-color="#3AAF75"/>
</linearGradient>
<linearGradient id="paint58_linear_4188_52111" x1="24.4675" y1="670.512" x2="416" y2="670.512" gradientUnits="userSpaceOnUse">
<stop stop-color="#2286DE"/>
<stop offset="1" stop-color="#3AAF75"/>
</linearGradient>
<linearGradient id="paint59_linear_4188_52111" x1="27.4878" y1="681.285" x2="27.4878" y2="691" gradientUnits="userSpaceOnUse">
<stop stop-color="#2286DE"/>
<stop offset="1" stop-color="#3AAF75"/>
</linearGradient>
<linearGradient id="paint60_linear_4188_52111" x1="34.4878" y1="672.541" x2="34.4878" y2="691" gradientUnits="userSpaceOnUse">
<stop stop-color="#2286DE"/>
<stop offset="1" stop-color="#3AAF75"/>
</linearGradient>
<linearGradient id="paint61_linear_4188_52111" x1="41.4878" y1="664.768" x2="41.4878" y2="691" gradientUnits="userSpaceOnUse">
<stop stop-color="#2286DE"/>
<stop offset="1" stop-color="#3AAF75"/>
</linearGradient>
<linearGradient id="paint62_linear_4188_52111" x1="48.4878" y1="678.37" x2="48.4878" y2="691" gradientUnits="userSpaceOnUse">
<stop stop-color="#2286DE"/>
<stop offset="1" stop-color="#3AAF75"/>
</linearGradient>
<linearGradient id="paint63_linear_4188_52111" x1="55.4878" y1="681.285" x2="55.4878" y2="691" gradientUnits="userSpaceOnUse">
<stop stop-color="#2286DE"/>
<stop offset="1" stop-color="#3AAF75"/>
</linearGradient>
<linearGradient id="paint64_linear_4188_52111" x1="62.4878" y1="673.512" x2="62.4878" y2="691" gradientUnits="userSpaceOnUse">
<stop stop-color="#2286DE"/>
<stop offset="1" stop-color="#3AAF75"/>
</linearGradient>
<linearGradient id="paint65_linear_4188_52111" x1="69.4878" y1="656.024" x2="69.4878" y2="691" gradientUnits="userSpaceOnUse">
<stop stop-color="#2286DE"/>
<stop offset="1" stop-color="#3AAF75"/>
</linearGradient>
<linearGradient id="paint66_linear_4188_52111" x1="76.4878" y1="664.768" x2="76.4878" y2="691" gradientUnits="userSpaceOnUse">
<stop stop-color="#2286DE"/>
<stop offset="1" stop-color="#3AAF75"/>
</linearGradient>
<linearGradient id="paint67_linear_4188_52111" x1="83.4878" y1="664.768" x2="83.4878" y2="691" gradientUnits="userSpaceOnUse">
<stop stop-color="#2286DE"/>
<stop offset="1" stop-color="#3AAF75"/>
</linearGradient>
<linearGradient id="paint68_linear_4188_52111" x1="90.4878" y1="638.537" x2="90.4878" y2="691" gradientUnits="userSpaceOnUse">
<stop stop-color="#2286DE"/>
<stop offset="1" stop-color="#3AAF75"/>
</linearGradient>
<linearGradient id="paint69_linear_4188_52111" x1="97.4878" y1="673.512" x2="97.4878" y2="691" gradientUnits="userSpaceOnUse">
<stop stop-color="#2286DE"/>
<stop offset="1" stop-color="#3AAF75"/>
</linearGradient>
<linearGradient id="paint70_linear_4188_52111" x1="104.488" y1="673.512" x2="104.488" y2="691" gradientUnits="userSpaceOnUse">
<stop stop-color="#2286DE"/>
<stop offset="1" stop-color="#3AAF75"/>
</linearGradient>
<linearGradient id="paint71_linear_4188_52111" x1="111.488" y1="664.768" x2="111.488" y2="691" gradientUnits="userSpaceOnUse">
<stop stop-color="#2286DE"/>
<stop offset="1" stop-color="#3AAF75"/>
</linearGradient>
<linearGradient id="paint72_linear_4188_52111" x1="118.488" y1="656.024" x2="118.488" y2="691" gradientUnits="userSpaceOnUse">
<stop stop-color="#2286DE"/>
<stop offset="1" stop-color="#3AAF75"/>
</linearGradient>
<linearGradient id="paint73_linear_4188_52111" x1="125.488" y1="673.512" x2="125.488" y2="691" gradientUnits="userSpaceOnUse">
<stop stop-color="#2286DE"/>
<stop offset="1" stop-color="#3AAF75"/>
</linearGradient>
<linearGradient id="paint74_linear_4188_52111" x1="132.488" y1="682.256" x2="132.488" y2="691" gradientUnits="userSpaceOnUse">
<stop stop-color="#2286DE"/>
<stop offset="1" stop-color="#3AAF75"/>
</linearGradient>
<linearGradient id="paint75_linear_4188_52111" x1="139.488" y1="682.256" x2="139.488" y2="691" gradientUnits="userSpaceOnUse">
<stop stop-color="#2286DE"/>
<stop offset="1" stop-color="#3AAF75"/>
</linearGradient>
<linearGradient id="paint76_linear_4188_52111" x1="146.488" y1="658.939" x2="146.488" y2="691" gradientUnits="userSpaceOnUse">
<stop stop-color="#2286DE"/>
<stop offset="1" stop-color="#3AAF75"/>
</linearGradient>
<linearGradient id="paint77_linear_4188_52111" x1="153.488" y1="646.309" x2="153.488" y2="691" gradientUnits="userSpaceOnUse">
<stop stop-color="#2286DE"/>
<stop offset="1" stop-color="#3AAF75"/>
</linearGradient>
<linearGradient id="paint78_linear_4188_52111" x1="160.488" y1="668.654" x2="160.488" y2="691" gradientUnits="userSpaceOnUse">
<stop stop-color="#2286DE"/>
<stop offset="1" stop-color="#3AAF75"/>
</linearGradient>
<linearGradient id="paint79_linear_4188_52111" x1="167.488" y1="668.654" x2="167.488" y2="691" gradientUnits="userSpaceOnUse">
<stop stop-color="#2286DE"/>
<stop offset="1" stop-color="#3AAF75"/>
</linearGradient>
<linearGradient id="paint80_linear_4188_52111" x1="174.488" y1="658.939" x2="174.488" y2="691" gradientUnits="userSpaceOnUse">
<stop stop-color="#2286DE"/>
<stop offset="1" stop-color="#3AAF75"/>
</linearGradient>
<linearGradient id="paint81_linear_4188_52111" x1="181.488" y1="675.455" x2="181.488" y2="691" gradientUnits="userSpaceOnUse">
<stop stop-color="#2286DE"/>
<stop offset="1" stop-color="#3AAF75"/>
</linearGradient>
<linearGradient id="paint82_linear_4188_52111" x1="188.488" y1="664.768" x2="188.488" y2="691" gradientUnits="userSpaceOnUse">
<stop stop-color="#2286DE"/>
<stop offset="1" stop-color="#3AAF75"/>
</linearGradient>
<linearGradient id="paint83_linear_4188_52111" x1="195.488" y1="650.195" x2="195.488" y2="691" gradientUnits="userSpaceOnUse">
<stop stop-color="#2286DE"/>
<stop offset="1" stop-color="#3AAF75"/>
</linearGradient>
<linearGradient id="paint84_linear_4188_52111" x1="202.488" y1="638.537" x2="202.488" y2="691" gradientUnits="userSpaceOnUse">
<stop stop-color="#2286DE"/>
<stop offset="1" stop-color="#3AAF75"/>
</linearGradient>
<linearGradient id="paint85_linear_4188_52111" x1="209.488" y1="659.911" x2="209.488" y2="691" gradientUnits="userSpaceOnUse">
<stop stop-color="#2286DE"/>
<stop offset="1" stop-color="#3AAF75"/>
</linearGradient>
<linearGradient id="paint86_linear_4188_52111" x1="216.488" y1="647.28" x2="216.488" y2="691" gradientUnits="userSpaceOnUse">
<stop stop-color="#2286DE"/>
<stop offset="1" stop-color="#3AAF75"/>
</linearGradient>
<linearGradient id="paint87_linear_4188_52111" x1="223.488" y1="656.024" x2="223.488" y2="691" gradientUnits="userSpaceOnUse">
<stop stop-color="#2286DE"/>
<stop offset="1" stop-color="#3AAF75"/>
</linearGradient>
<linearGradient id="paint88_linear_4188_52111" x1="230.488" y1="675.455" x2="230.488" y2="691" gradientUnits="userSpaceOnUse">
<stop stop-color="#2286DE"/>
<stop offset="1" stop-color="#3AAF75"/>
</linearGradient>
<linearGradient id="paint89_linear_4188_52111" x1="237.488" y1="684.199" x2="237.488" y2="691" gradientUnits="userSpaceOnUse">
<stop stop-color="#2286DE"/>
<stop offset="1" stop-color="#3AAF75"/>
</linearGradient>
<linearGradient id="paint90_linear_4188_52111" x1="244.488" y1="659.911" x2="244.488" y2="691" gradientUnits="userSpaceOnUse">
<stop stop-color="#2286DE"/>
<stop offset="1" stop-color="#3AAF75"/>
</linearGradient>
<linearGradient id="paint91_linear_4188_52111" x1="251.488" y1="669.626" x2="251.488" y2="691" gradientUnits="userSpaceOnUse">
<stop stop-color="#2286DE"/>
<stop offset="1" stop-color="#3AAF75"/>
</linearGradient>
<linearGradient id="paint92_linear_4188_52111" x1="258.488" y1="669.626" x2="258.488" y2="691" gradientUnits="userSpaceOnUse">
<stop stop-color="#2286DE"/>
<stop offset="1" stop-color="#3AAF75"/>
</linearGradient>
<linearGradient id="paint93_linear_4188_52111" x1="265.488" y1="659.911" x2="265.488" y2="691" gradientUnits="userSpaceOnUse">
<stop stop-color="#2286DE"/>
<stop offset="1" stop-color="#3AAF75"/>
</linearGradient>
<linearGradient id="paint94_linear_4188_52111" x1="272.488" y1="638.537" x2="272.488" y2="691" gradientUnits="userSpaceOnUse">
<stop stop-color="#2286DE"/>
<stop offset="1" stop-color="#3AAF75"/>
</linearGradient>
<linearGradient id="paint95_linear_4188_52111" x1="279.488" y1="655.053" x2="279.488" y2="691" gradientUnits="userSpaceOnUse">
<stop stop-color="#2286DE"/>
<stop offset="1" stop-color="#3AAF75"/>
</linearGradient>
<linearGradient id="paint96_linear_4188_52111" x1="286.488" y1="664.768" x2="286.488" y2="691" gradientUnits="userSpaceOnUse">
<stop stop-color="#2286DE"/>
<stop offset="1" stop-color="#3AAF75"/>
</linearGradient>
<linearGradient id="paint97_linear_4188_52111" x1="293.488" y1="655.053" x2="293.488" y2="691" gradientUnits="userSpaceOnUse">
<stop stop-color="#2286DE"/>
<stop offset="1" stop-color="#3AAF75"/>
</linearGradient>
<linearGradient id="paint98_linear_4188_52111" x1="300.488" y1="655.053" x2="300.488" y2="691" gradientUnits="userSpaceOnUse">
<stop stop-color="#2286DE"/>
<stop offset="1" stop-color="#3AAF75"/>
</linearGradient>
<linearGradient id="paint99_linear_4188_52111" x1="307.488" y1="680.313" x2="307.488" y2="691" gradientUnits="userSpaceOnUse">
<stop stop-color="#2286DE"/>
<stop offset="1" stop-color="#3AAF75"/>
</linearGradient>
<linearGradient id="paint100_linear_4188_52111" x1="314.488" y1="686.142" x2="314.488" y2="691" gradientUnits="userSpaceOnUse">
<stop stop-color="#2286DE"/>
<stop offset="1" stop-color="#3AAF75"/>
</linearGradient>
<linearGradient id="paint101_linear_4188_52111" x1="321.488" y1="686.142" x2="321.488" y2="691" gradientUnits="userSpaceOnUse">
<stop stop-color="#2286DE"/>
<stop offset="1" stop-color="#3AAF75"/>
</linearGradient>
<linearGradient id="paint102_linear_4188_52111" x1="328.488" y1="680.313" x2="328.488" y2="691" gradientUnits="userSpaceOnUse">
<stop stop-color="#2286DE"/>
<stop offset="1" stop-color="#3AAF75"/>
</linearGradient>
<linearGradient id="paint103_linear_4188_52111" x1="335.488" y1="676.427" x2="335.488" y2="691" gradientUnits="userSpaceOnUse">
<stop stop-color="#2286DE"/>
<stop offset="1" stop-color="#3AAF75"/>
</linearGradient>
<linearGradient id="paint104_linear_4188_52111" x1="342.488" y1="676.427" x2="342.488" y2="691" gradientUnits="userSpaceOnUse">
<stop stop-color="#2286DE"/>
<stop offset="1" stop-color="#3AAF75"/>
</linearGradient>
<linearGradient id="paint105_linear_4188_52111" x1="349.488" y1="676.427" x2="349.488" y2="691" gradientUnits="userSpaceOnUse">
<stop stop-color="#2286DE"/>
<stop offset="1" stop-color="#3AAF75"/>
</linearGradient>
<linearGradient id="paint106_linear_4188_52111" x1="356.488" y1="664.768" x2="356.488" y2="691" gradientUnits="userSpaceOnUse">
<stop stop-color="#2286DE"/>
<stop offset="1" stop-color="#3AAF75"/>
</linearGradient>
<linearGradient id="paint107_linear_4188_52111" x1="363.488" y1="659.911" x2="363.488" y2="691" gradientUnits="userSpaceOnUse">
<stop stop-color="#2286DE"/>
<stop offset="1" stop-color="#3AAF75"/>
</linearGradient>
<linearGradient id="paint108_linear_4188_52111" x1="370.488" y1="669.626" x2="370.488" y2="691" gradientUnits="userSpaceOnUse">
<stop stop-color="#2286DE"/>
<stop offset="1" stop-color="#3AAF75"/>
</linearGradient>
<linearGradient id="paint109_linear_4188_52111" x1="377.488" y1="659.911" x2="377.488" y2="691" gradientUnits="userSpaceOnUse">
<stop stop-color="#2286DE"/>
<stop offset="1" stop-color="#3AAF75"/>
</linearGradient>
<linearGradient id="paint110_linear_4188_52111" x1="384.488" y1="655.053" x2="384.488" y2="691" gradientUnits="userSpaceOnUse">
<stop stop-color="#2286DE"/>
<stop offset="1" stop-color="#3AAF75"/>
</linearGradient>
<linearGradient id="paint111_linear_4188_52111" x1="391.488" y1="644.366" x2="391.488" y2="691" gradientUnits="userSpaceOnUse">
<stop stop-color="#2286DE"/>
<stop offset="1" stop-color="#3AAF75"/>
</linearGradient>
<linearGradient id="paint112_linear_4188_52111" x1="398.488" y1="638.537" x2="398.488" y2="691" gradientUnits="userSpaceOnUse">
<stop stop-color="#2286DE"/>
<stop offset="1" stop-color="#3AAF75"/>
</linearGradient>
</defs>
</svg>
