<svg width="893" height="997" viewBox="0 0 893 997" fill="none" xmlns="http://www.w3.org/2000/svg">
<circle opacity="0.5" cx="458.439" cy="620.662" r="11.5652" fill="url(#paint0_linear_4258_50769)" stroke="#C7C6C6" stroke-width="0.536709"/>
<rect width="892" height="997" rx="12.372" fill="#232323"/>
<path opacity="0.03" d="M90.222 616.36C69.4045 586.81 49.3217 545.554 30.074 536.272L0 527.741V985.291L2.4083 988.609L6.02075 993.425L10.8373 995.834H684.577C747.385 996.056 874.7 996.5 881.5 996.5C888.3 996.5 891 989.833 891.5 986.5V335.5L850 479L801 362L730.5 525L695.999 445.537L666.784 497.496L648.739 464.925L561.095 578.925L536.177 548.68L488.058 616.36L423.614 567.844L359.82 689.658L299.022 616.36L279.259 701.84L248.325 678.737L219.97 701.069L116.859 585.556L90.222 616.36Z" fill="url(#paint1_linear_4258_50769)"/>
<g opacity="0.3">
<path d="M38.7701 967.965C38.7701 967.54 38.4253 967.195 38 967.195C37.5747 967.195 37.2299 967.54 37.2299 967.965L38.7701 967.965ZM37.2299 992.048L37.2299 992.818L38.7701 992.818L38.7701 992.048L37.2299 992.048ZM37.2299 967.965L37.2299 992.048L38.7701 992.048L38.7701 967.965L37.2299 967.965Z" fill="url(#paint2_linear_4258_50769)"/>
<path d="M55.6295 967.965C55.6295 967.54 55.2847 967.195 54.8594 967.195C54.4341 967.195 54.0893 967.54 54.0893 967.965L55.6295 967.965ZM54.0893 992.048L54.0893 992.818L55.6295 992.818L55.6295 992.048L54.0893 992.048ZM54.0893 967.965L54.0893 992.048L55.6295 992.048L55.6295 967.965L54.0893 967.965Z" fill="url(#paint3_linear_4258_50769)"/>
<path d="M72.4849 948.699C72.4849 948.274 72.1402 947.929 71.7148 947.929C71.2895 947.929 70.9448 948.274 70.9448 948.699L72.4849 948.699ZM70.9448 992.049L70.9448 992.819L72.4849 992.819L72.4849 992.049L70.9448 992.049ZM70.9448 948.699L70.9448 992.049L72.4849 992.049L72.4849 948.699L70.9448 948.699Z" fill="url(#paint4_linear_4258_50769)"/>
<path d="M89.3443 905.348C89.3443 904.922 88.9995 904.578 88.5742 904.578C88.1489 904.578 87.8041 904.922 87.8041 905.348L89.3443 905.348ZM87.8041 992.046L87.8041 992.817L89.3443 992.817L89.3443 992.046L87.8041 992.046ZM87.8041 905.348L87.8041 992.046L89.3443 992.046L89.3443 905.348L87.8041 905.348Z" fill="url(#paint5_linear_4258_50769)"/>
<path d="M106.204 927.023C106.204 926.598 105.859 926.253 105.434 926.253C105.008 926.253 104.664 926.598 104.664 927.023L106.204 927.023ZM104.664 992.048L104.664 992.818L106.204 992.818L106.204 992.048L104.664 992.048ZM104.664 927.023L104.664 992.048L106.204 992.048L106.204 927.023L104.664 927.023Z" fill="url(#paint6_linear_4258_50769)"/>
<path d="M123.059 862C123.059 861.575 122.714 861.23 122.289 861.23C121.864 861.23 121.519 861.575 121.519 862L123.059 862ZM121.519 992.048L121.519 992.818L123.059 992.818L123.059 992.048L121.519 992.048ZM121.519 862L121.519 992.048L123.059 992.048L123.059 862L121.519 862Z" fill="url(#paint7_linear_4258_50769)"/>
<path d="M139.919 948.699C139.919 948.274 139.574 947.929 139.148 947.929C138.723 947.929 138.378 948.274 138.378 948.699L139.919 948.699ZM138.378 992.049L138.378 992.819L139.919 992.819L139.919 992.049L138.378 992.049ZM138.378 948.699L138.378 992.049L139.919 992.049L139.919 948.699L138.378 948.699Z" fill="url(#paint8_linear_4258_50769)"/>
<path d="M156.778 898.125C156.778 897.7 156.433 897.355 156.008 897.355C155.583 897.355 155.238 897.7 155.238 898.125L156.778 898.125ZM155.238 992.049L155.238 992.819L156.778 992.819L156.778 992.049L155.238 992.049ZM155.238 898.125L155.238 992.049L156.778 992.049L156.778 898.125L155.238 898.125Z" fill="url(#paint9_linear_4258_50769)"/>
<path d="M173.633 905.348C173.633 904.922 173.289 904.578 172.863 904.578C172.438 904.578 172.093 904.922 172.093 905.348L173.633 905.348ZM172.093 992.046L172.093 992.817L173.633 992.817L173.633 992.046L172.093 992.046ZM172.093 905.348L172.093 992.046L173.633 992.046L173.633 905.348L172.093 905.348Z" fill="url(#paint10_linear_4258_50769)"/>
<path d="M190.493 948.699C190.493 948.274 190.148 947.929 189.723 947.929C189.297 947.929 188.953 948.274 188.953 948.699L190.493 948.699ZM188.953 992.049L188.953 992.819L190.493 992.819L190.493 992.049L188.953 992.049ZM188.953 948.699L188.953 992.049L190.493 992.049L190.493 948.699L188.953 948.699Z" fill="url(#paint11_linear_4258_50769)"/>
<path d="M207.352 970.375C207.352 969.95 207.007 969.605 206.582 969.605C206.157 969.605 205.812 969.95 205.812 970.375L207.352 970.375ZM205.812 992.05L205.812 992.82L207.352 992.82L207.352 992.05L205.812 992.05ZM205.812 970.375L205.812 992.05L207.352 992.05L207.352 970.375L205.812 970.375Z" fill="url(#paint12_linear_4258_50769)"/>
<path d="M224.208 912.574C224.208 912.149 223.863 911.804 223.437 911.804C223.012 911.804 222.667 912.149 222.667 912.574L224.208 912.574ZM222.667 992.048L222.667 992.818L224.208 992.818L224.208 992.048L222.667 992.048ZM222.667 912.574L222.667 992.048L224.208 992.048L224.208 912.574L222.667 912.574Z" fill="url(#paint13_linear_4258_50769)"/>
<path d="M241.067 881.266C241.067 880.84 240.722 880.496 240.297 880.496C239.872 880.496 239.527 880.84 239.527 881.266L241.067 881.266ZM239.527 992.047L239.527 992.817L241.067 992.817L241.067 992.047L239.527 992.047ZM239.527 881.266L239.527 992.047L241.067 992.047L241.067 881.266L239.527 881.266Z" fill="url(#paint14_linear_4258_50769)"/>
<path d="M257.926 936.656C257.926 936.231 257.582 935.886 257.156 935.886C256.731 935.886 256.386 936.231 256.386 936.656L257.926 936.656ZM256.386 992.047L256.386 992.817L257.926 992.817L257.926 992.047L256.386 992.047ZM256.386 936.656L256.386 992.047L257.926 992.047L257.926 936.656L256.386 936.656Z" fill="url(#paint15_linear_4258_50769)"/>
<path d="M274.782 936.656C274.782 936.231 274.437 935.886 274.012 935.886C273.586 935.886 273.242 936.231 273.242 936.656L274.782 936.656ZM273.242 992.047L273.242 992.817L274.782 992.817L274.782 992.047L273.242 992.047ZM273.242 936.656L273.242 992.047L274.782 992.047L274.782 936.656L273.242 936.656Z" fill="url(#paint16_linear_4258_50769)"/>
<path d="M291.641 912.574C291.641 912.149 291.296 911.804 290.871 911.804C290.446 911.804 290.101 912.149 290.101 912.574L291.641 912.574ZM290.101 992.048L290.101 992.818L291.641 992.818L291.641 992.048L290.101 992.048ZM290.101 912.574L290.101 992.048L291.641 992.048L291.641 912.574L290.101 912.574Z" fill="url(#paint17_linear_4258_50769)"/>
<path d="M308.501 953.516C308.501 953.09 308.156 952.746 307.73 952.746C307.305 952.746 306.96 953.09 306.96 953.516L308.501 953.516ZM306.96 992.048L306.96 992.819L308.501 992.819L308.501 992.048L306.96 992.048ZM306.96 953.516L306.96 992.048L308.501 992.048L308.501 953.516L306.96 953.516Z" fill="url(#paint18_linear_4258_50769)"/>
<path d="M325.356 927.023C325.356 926.598 325.011 926.253 324.586 926.253C324.161 926.253 323.816 926.598 323.816 927.023L325.356 927.023ZM323.816 992.048L323.816 992.818L325.356 992.818L325.356 992.048L323.816 992.048ZM323.816 927.023L323.816 992.048L325.356 992.048L325.356 927.023L323.816 927.023Z" fill="url(#paint19_linear_4258_50769)"/>
<path d="M342.215 890.898C342.215 890.473 341.871 890.128 341.445 890.128C341.02 890.128 340.675 890.473 340.675 890.898L342.215 890.898ZM340.675 992.047L340.675 992.817L342.215 992.817L342.215 992.047L340.675 992.047ZM340.675 890.898L340.675 992.047L342.215 992.047L342.215 890.898L340.675 890.898Z" fill="url(#paint20_linear_4258_50769)"/>
<path d="M359.075 862C359.075 861.575 358.73 861.23 358.305 861.23C357.879 861.23 357.535 861.575 357.535 862L359.075 862ZM357.535 992.048L357.535 992.818L359.075 992.818L359.075 992.048L357.535 992.048ZM357.535 862L357.535 992.048L359.075 992.048L359.075 862L357.535 862Z" fill="url(#paint21_linear_4258_50769)"/>
<path d="M375.93 883.676C375.93 883.25 375.585 882.906 375.16 882.906C374.735 882.906 374.39 883.25 374.39 883.676L375.93 883.676ZM374.39 992.049L374.39 992.819L375.93 992.819L375.93 992.049L374.39 992.049ZM374.39 883.676L374.39 992.049L375.93 992.049L375.93 883.676L374.39 883.676Z" fill="url(#paint22_linear_4258_50769)"/>
<path d="M392.79 905.348C392.79 904.922 392.445 904.578 392.02 904.578C391.594 904.578 391.249 904.922 391.249 905.348L392.79 905.348ZM391.249 992.046L391.249 992.817L392.79 992.817L392.79 992.046L391.249 992.046ZM391.249 905.348L391.249 992.046L392.79 992.046L392.79 905.348L391.249 905.348Z" fill="url(#paint23_linear_4258_50769)"/>
<path d="M409.649 953.516C409.649 953.09 409.304 952.746 408.879 952.746C408.454 952.746 408.109 953.09 408.109 953.516L409.649 953.516ZM408.109 992.048L408.109 992.819L409.649 992.819L409.649 992.048L408.109 992.048ZM408.109 953.516L408.109 992.048L409.649 992.048L409.649 953.516L408.109 953.516Z" fill="url(#paint24_linear_4258_50769)"/>
<path d="M426.504 975.191C426.504 974.766 426.16 974.421 425.734 974.421C425.309 974.421 424.964 974.766 424.964 975.191L426.504 975.191ZM424.964 992.05L424.964 992.82L426.504 992.82L426.504 992.05L424.964 992.05ZM424.964 975.191L424.964 992.05L426.504 992.05L426.504 975.191L424.964 975.191Z" fill="url(#paint25_linear_4258_50769)"/>
<path d="M443.364 914.984C443.364 914.559 443.019 914.214 442.594 914.214C442.168 914.214 441.824 914.559 441.824 914.984L443.364 914.984ZM441.824 992.05L441.824 992.82L443.364 992.82L443.364 992.05L441.824 992.05ZM441.824 914.984L441.824 992.05L443.364 992.05L443.364 914.984L441.824 914.984Z" fill="url(#paint26_linear_4258_50769)"/>
<path d="M460.223 939.066C460.223 938.641 459.878 938.296 459.453 938.296C459.028 938.296 458.683 938.641 458.683 939.066L460.223 939.066ZM458.683 992.049L458.683 992.819L460.223 992.819L460.223 992.049L458.683 992.049ZM458.683 939.066L458.683 992.049L460.223 992.049L460.223 939.066L458.683 939.066Z" fill="url(#paint27_linear_4258_50769)"/>
<path d="M477.079 961.047C477.079 960.622 476.734 960.277 476.309 960.277C475.883 960.277 475.539 960.622 475.539 961.047L477.079 961.047ZM475.539 992.047L475.539 992.817L477.079 992.817L477.079 992.047L475.539 992.047ZM475.539 961.047L475.539 992.047L477.079 992.047L477.079 961.047L475.539 961.047Z" fill="url(#paint28_linear_4258_50769)"/>
<path d="M493.938 973.047C493.938 972.622 493.593 972.277 493.168 972.277C492.743 972.277 492.398 972.622 492.398 973.047L493.938 973.047ZM492.398 992.047L492.398 992.817L493.938 992.817L493.938 992.047L492.398 992.047ZM492.398 973.047L492.398 992.047L493.938 992.047L493.938 973.047L492.398 973.047Z" fill="url(#paint29_linear_4258_50769)"/>
<path d="M510.797 983.047C510.797 982.622 510.453 982.277 510.027 982.277C509.602 982.277 509.257 982.622 509.257 983.047L510.797 983.047ZM509.257 992.047L509.257 992.817L510.797 992.817L510.797 992.047L509.257 992.047ZM509.257 983.047L509.257 992.047L510.797 992.047L510.797 983.047L509.257 983.047Z" fill="url(#paint30_linear_4258_50769)"/>
<path d="M527.653 966.047C527.653 965.622 527.308 965.277 526.883 965.277C526.458 965.277 526.113 965.622 526.113 966.047L527.653 966.047ZM526.113 992.047L526.113 992.817L527.653 992.817L527.653 992.047L526.113 992.047ZM526.113 966.047L526.113 992.047L527.653 992.047L527.653 966.047L526.113 966.047Z" fill="url(#paint31_linear_4258_50769)"/>
<path d="M544.512 954.047C544.512 953.622 544.167 953.277 543.742 953.277C543.317 953.277 542.972 953.622 542.972 954.047L544.512 954.047ZM542.972 992.047L542.972 992.817L544.512 992.817L544.512 992.047L542.972 992.047ZM542.972 954.047L542.972 992.047L544.512 992.047L544.512 954.047L542.972 954.047Z" fill="url(#paint32_linear_4258_50769)"/>
<path d="M561.372 966.047C561.372 965.622 561.027 965.277 560.602 965.277C560.176 965.277 559.831 965.622 559.831 966.047L561.372 966.047ZM559.831 992.047L559.831 992.817L561.372 992.817L561.372 992.047L559.831 992.047ZM559.831 966.047L559.831 992.047L561.372 992.047L561.372 966.047L559.831 966.047Z" fill="url(#paint33_linear_4258_50769)"/>
<path d="M578.231 956.047C578.231 955.622 577.886 955.277 577.461 955.277C577.036 955.277 576.691 955.622 576.691 956.047L578.231 956.047ZM576.691 992.047L576.691 992.817L578.231 992.817L578.231 992.047L576.691 992.047ZM576.691 956.047L576.691 992.047L578.231 992.047L578.231 956.047L576.691 956.047Z" fill="url(#paint34_linear_4258_50769)"/>
<path d="M595.086 969.047C595.086 968.622 594.742 968.277 594.316 968.277C593.891 968.277 593.546 968.622 593.546 969.047L595.086 969.047ZM593.546 992.047L593.546 992.817L595.086 992.817L595.086 992.047L593.546 992.047ZM593.546 969.047L593.546 992.047L595.086 992.047L595.086 969.047L593.546 969.047Z" fill="url(#paint35_linear_4258_50769)"/>
<path d="M611.946 914.984C611.946 914.559 611.601 914.214 611.176 914.214C610.75 914.214 610.406 914.559 610.406 914.984L611.946 914.984ZM610.406 992.05L610.406 992.82L611.946 992.82L611.946 992.05L610.406 992.05ZM610.406 914.984L610.406 992.05L611.946 992.05L611.946 914.984L610.406 914.984Z" fill="url(#paint36_linear_4258_50769)"/>
<path d="M628.805 862C628.805 861.575 628.46 861.23 628.035 861.23C627.61 861.23 627.265 861.575 627.265 862L628.805 862ZM627.265 992.048L627.265 992.818L628.805 992.818L628.805 992.048L627.265 992.048ZM627.265 862L627.265 992.048L628.805 992.048L628.805 862L627.265 862Z" fill="url(#paint37_linear_4258_50769)"/>
<path d="M645.661 902.941C645.661 902.516 645.316 902.171 644.891 902.171C644.465 902.171 644.121 902.516 644.121 902.941L645.661 902.941ZM644.121 992.048L644.121 992.819L645.661 992.819L645.661 992.048L644.121 992.048ZM644.121 902.941L644.121 992.048L645.661 992.048L645.661 902.941L644.121 902.941Z" fill="url(#paint38_linear_4258_50769)"/>
<path d="M662.52 927.023C662.52 926.598 662.175 926.253 661.75 926.253C661.325 926.253 660.98 926.598 660.98 927.023L662.52 927.023ZM660.98 992.048L660.98 992.818L662.52 992.818L662.52 992.048L660.98 992.048ZM660.98 927.023L660.98 992.048L662.52 992.048L662.52 927.023L660.98 927.023Z" fill="url(#paint39_linear_4258_50769)"/>
<path d="M679.379 902.941C679.379 902.516 679.035 902.171 678.609 902.171C678.184 902.171 677.839 902.516 677.839 902.941L679.379 902.941ZM677.839 992.048L677.839 992.819L679.379 992.819L679.379 992.048L677.839 992.048ZM677.839 902.941L677.839 992.048L679.379 992.048L679.379 902.941L677.839 902.941Z" fill="url(#paint40_linear_4258_50769)"/>
<path d="M696.235 965.559C696.235 965.133 695.89 964.789 695.465 964.789C695.04 964.789 694.695 965.133 694.695 965.559L696.235 965.559ZM694.695 992.05L694.695 992.82L696.235 992.82L696.235 992.05L694.695 992.05ZM694.695 965.559L694.695 992.05L696.235 992.05L696.235 965.559L694.695 965.559Z" fill="url(#paint41_linear_4258_50769)"/>
<path d="M713.094 980.008C713.094 979.583 712.75 979.238 712.324 979.238C711.899 979.238 711.554 979.583 711.554 980.008L713.094 980.008ZM711.554 992.049L711.554 992.819L713.094 992.819L713.094 992.049L711.554 992.049ZM711.554 980.008L711.554 992.049L713.094 992.049L713.094 980.008L711.554 980.008Z" fill="url(#paint42_linear_4258_50769)"/>
<path d="M729.954 965.559C729.954 965.133 729.609 964.789 729.184 964.789C728.758 964.789 728.414 965.133 728.414 965.559L729.954 965.559ZM728.414 992.05L728.414 992.82L729.954 992.82L729.954 992.05L728.414 992.05ZM728.414 965.559L728.414 992.05L729.954 992.05L729.954 965.559L728.414 965.559Z" fill="url(#paint43_linear_4258_50769)"/>
<path d="M746.809 955.922C746.809 955.497 746.464 955.152 746.039 955.152C745.614 955.152 745.269 955.497 745.269 955.922L746.809 955.922ZM745.269 992.046L745.269 992.816L746.809 992.816L746.809 992.046L745.269 992.046ZM745.269 955.922L745.269 992.046L746.809 992.046L746.809 955.922L745.269 955.922Z" fill="url(#paint44_linear_4258_50769)"/>
<path d="M763.669 955.922C763.669 955.497 763.324 955.152 762.898 955.152C762.473 955.152 762.128 955.497 762.128 955.922L763.669 955.922ZM762.128 992.046L762.128 992.816L763.669 992.816L763.669 992.046L762.128 992.046ZM762.128 955.922L762.128 992.046L763.669 992.046L763.669 955.922L762.128 955.922Z" fill="url(#paint45_linear_4258_50769)"/>
<path d="M780.528 927.023C780.528 926.598 780.183 926.253 779.758 926.253C779.333 926.253 778.988 926.598 778.988 927.023L780.528 927.023ZM778.988 992.048L778.988 992.818L780.528 992.818L780.528 992.048L778.988 992.048ZM778.988 927.023L778.988 992.048L780.528 992.048L780.528 927.023L778.988 927.023Z" fill="url(#paint46_linear_4258_50769)"/>
<path d="M797.383 914.984C797.383 914.559 797.039 914.214 796.613 914.214C796.188 914.214 795.843 914.559 795.843 914.984L797.383 914.984ZM795.843 992.05L795.843 992.82L797.383 992.82L797.383 992.05L795.843 992.05ZM795.843 914.984L795.843 992.05L797.383 992.05L797.383 914.984L795.843 914.984Z" fill="url(#paint47_linear_4258_50769)"/>
<path d="M814.243 902.941C814.243 902.516 813.898 902.171 813.473 902.171C813.047 902.171 812.703 902.516 812.703 902.941L814.243 902.941ZM812.703 992.048L812.703 992.819L814.243 992.819L814.243 992.048L812.703 992.048ZM812.703 902.941L812.703 992.048L814.243 992.048L814.243 902.941L812.703 902.941Z" fill="url(#paint48_linear_4258_50769)"/>
<path d="M831.102 862C831.102 861.575 830.757 861.23 830.332 861.23C829.907 861.23 829.562 861.575 829.562 862L831.102 862ZM829.562 992.048L829.562 992.818L831.102 992.818L831.102 992.048L829.562 992.048ZM829.562 862L829.562 992.048L831.102 992.048L831.102 862L829.562 862Z" fill="url(#paint49_linear_4258_50769)"/>
</g>
<circle opacity="0.5" cx="696.279" cy="446.279" r="9.06855" fill="url(#paint50_linear_4258_50769)" stroke="#C7C6C6" stroke-width="0.420848"/>
<path opacity="0.1" d="M698.408 446C698.408 444.67 697.33 443.592 696 443.592C694.67 443.592 693.592 444.67 693.592 446L698.408 446ZM693.592 992L693.592 994.408L698.408 994.408L698.408 992L693.592 992ZM693.592 446L693.592 992L698.408 992L698.408 446L693.592 446Z" fill="url(#paint51_linear_4258_50769)"/>
<path opacity="0.1" d="M1.5 526.5L30.074 534.772C49.3217 544.054 69.4045 585.31 90.222 614.86L116.859 584.056L219.97 699.569L248.325 677.237L279.259 700.34L299.022 614.86L359.82 688.158L423.614 566.344L488.058 614.86L536.177 547.18L561.095 577.425L648.739 463.425L666.784 495.996L695.999 444.037L730.5 523.5L801 360.5L850 477.5L891.5 334" stroke="url(#paint52_linear_4258_50769)" stroke-width="3" stroke-linecap="round" stroke-linejoin="round"/>
<line opacity="0.05" x1="874.539" y1="994" x2="874.539" y2="-2.01385e-08" stroke="url(#paint53_linear_4258_50769)" stroke-width="0.921431"/>
<g opacity="0.05">
<line x1="4.53928" y1="959.469" x2="4.53933" y2="0.99884" stroke="url(#paint54_linear_4258_50769)" stroke-width="0.921431"/>
<line x1="33.5393" y1="959.469" x2="33.5393" y2="0.99884" stroke="url(#paint55_linear_4258_50769)" stroke-width="0.921431"/>
<line x1="62.5393" y1="959.469" x2="62.5393" y2="0.99884" stroke="url(#paint56_linear_4258_50769)" stroke-width="0.921431"/>
<line x1="91.5393" y1="959.469" x2="91.5393" y2="0.99884" stroke="url(#paint57_linear_4258_50769)" stroke-width="0.921431"/>
<line x1="120.539" y1="959.469" x2="120.539" y2="0.99884" stroke="url(#paint58_linear_4258_50769)" stroke-width="0.921431"/>
<line x1="149.539" y1="959.469" x2="149.539" y2="0.99884" stroke="url(#paint59_linear_4258_50769)" stroke-width="0.921431"/>
<line x1="178.539" y1="959.469" x2="178.539" y2="0.99884" stroke="url(#paint60_linear_4258_50769)" stroke-width="0.921431"/>
<line x1="207.539" y1="959.469" x2="207.539" y2="0.99884" stroke="url(#paint61_linear_4258_50769)" stroke-width="0.921431"/>
<line x1="236.539" y1="959.469" x2="236.539" y2="0.99884" stroke="url(#paint62_linear_4258_50769)" stroke-width="0.921431"/>
<line x1="265.539" y1="959.469" x2="265.539" y2="0.99884" stroke="url(#paint63_linear_4258_50769)" stroke-width="0.921431"/>
<line x1="294.539" y1="959.469" x2="294.539" y2="0.99884" stroke="url(#paint64_linear_4258_50769)" stroke-width="0.921431"/>
<line x1="323.539" y1="959.469" x2="323.539" y2="0.99884" stroke="url(#paint65_linear_4258_50769)" stroke-width="0.921431"/>
<line x1="352.539" y1="959.469" x2="352.539" y2="0.99884" stroke="url(#paint66_linear_4258_50769)" stroke-width="0.921431"/>
<line x1="381.539" y1="959.469" x2="381.539" y2="0.99884" stroke="url(#paint67_linear_4258_50769)" stroke-width="0.921431"/>
<line x1="410.539" y1="959.469" x2="410.539" y2="0.99884" stroke="url(#paint68_linear_4258_50769)" stroke-width="0.921431"/>
<line x1="439.539" y1="959.469" x2="439.539" y2="0.99884" stroke="url(#paint69_linear_4258_50769)" stroke-width="0.921431"/>
<line x1="468.539" y1="959.469" x2="468.539" y2="0.99884" stroke="url(#paint70_linear_4258_50769)" stroke-width="0.921431"/>
<line x1="497.539" y1="959.469" x2="497.539" y2="0.99884" stroke="url(#paint71_linear_4258_50769)" stroke-width="0.921431"/>
<line x1="526.539" y1="959.469" x2="526.539" y2="0.99884" stroke="url(#paint72_linear_4258_50769)" stroke-width="0.921431"/>
<line x1="555.539" y1="959.469" x2="555.539" y2="0.99884" stroke="url(#paint73_linear_4258_50769)" stroke-width="0.921431"/>
<line x1="584.539" y1="959.469" x2="584.539" y2="0.99884" stroke="url(#paint74_linear_4258_50769)" stroke-width="0.921431"/>
<line x1="613.539" y1="959.469" x2="613.539" y2="0.99884" stroke="url(#paint75_linear_4258_50769)" stroke-width="0.921431"/>
<line x1="642.539" y1="959.469" x2="642.539" y2="0.99884" stroke="url(#paint76_linear_4258_50769)" stroke-width="0.921431"/>
<line x1="671.539" y1="959.469" x2="671.539" y2="0.99884" stroke="url(#paint77_linear_4258_50769)" stroke-width="0.921431"/>
<line x1="700.539" y1="959.469" x2="700.539" y2="0.99884" stroke="url(#paint78_linear_4258_50769)" stroke-width="0.921431"/>
<line x1="729.539" y1="959.469" x2="729.539" y2="0.99884" stroke="url(#paint79_linear_4258_50769)" stroke-width="0.921431"/>
<line x1="758.539" y1="959.469" x2="758.539" y2="0.99884" stroke="url(#paint80_linear_4258_50769)" stroke-width="0.921431"/>
<line x1="787.539" y1="959.469" x2="787.539" y2="0.99884" stroke="url(#paint81_linear_4258_50769)" stroke-width="0.921431"/>
<line x1="816.539" y1="959.469" x2="816.539" y2="0.99884" stroke="url(#paint82_linear_4258_50769)" stroke-width="0.921431"/>
<line x1="845.539" y1="959.469" x2="845.539" y2="0.99884" stroke="url(#paint83_linear_4258_50769)" stroke-width="0.921431"/>
<line x1="-4.43819e-08" y1="3.67991" x2="892" y2="3.67984" stroke="url(#paint84_linear_4258_50769)" stroke-width="0.921431"/>
<line x1="-4.43819e-08" y1="43.4416" x2="892" y2="43.4416" stroke="url(#paint85_linear_4258_50769)" stroke-width="0.921431"/>
<line x1="-4.45638e-08" y1="83.2033" x2="892" y2="83.2033" stroke="url(#paint86_linear_4258_50769)" stroke-width="0.921431"/>
<line x1="-4.43819e-08" y1="122.965" x2="892" y2="122.965" stroke="url(#paint87_linear_4258_50769)" stroke-width="0.921431"/>
<line x1="-4.43819e-08" y1="162.727" x2="892" y2="162.727" stroke="url(#paint88_linear_4258_50769)" stroke-width="0.921431"/>
<line x1="-4.43819e-08" y1="202.489" x2="892" y2="202.488" stroke="url(#paint89_linear_4258_50769)" stroke-width="0.921431"/>
<line x1="-4.43819e-08" y1="241.203" x2="892" y2="241.203" stroke="url(#paint90_linear_4258_50769)" stroke-width="0.921431"/>
<line x1="-4.43819e-08" y1="280.965" x2="892" y2="280.965" stroke="url(#paint91_linear_4258_50769)" stroke-width="0.921431"/>
<line x1="-4.43819e-08" y1="320.727" x2="892" y2="320.727" stroke="url(#paint92_linear_4258_50769)" stroke-width="0.921431"/>
<line x1="-4.43819e-08" y1="360.489" x2="892" y2="360.488" stroke="url(#paint93_linear_4258_50769)" stroke-width="0.921431"/>
<line x1="-4.43819e-08" y1="400.25" x2="892" y2="400.25" stroke="url(#paint94_linear_4258_50769)" stroke-width="0.921431"/>
<line x1="-4.43819e-08" y1="440.012" x2="892" y2="440.012" stroke="url(#paint95_linear_4258_50769)" stroke-width="0.921431"/>
<line x1="-4.43819e-08" y1="478.727" x2="892" y2="478.727" stroke="url(#paint96_linear_4258_50769)" stroke-width="0.921431"/>
<line x1="-4.43819e-08" y1="518.489" x2="892" y2="518.488" stroke="url(#paint97_linear_4258_50769)" stroke-width="0.921431"/>
<line x1="-4.43819e-08" y1="558.25" x2="892" y2="558.25" stroke="url(#paint98_linear_4258_50769)" stroke-width="0.921431"/>
<line x1="-4.43819e-08" y1="598.012" x2="892" y2="598.012" stroke="url(#paint99_linear_4258_50769)" stroke-width="0.921431"/>
<line x1="-4.43819e-08" y1="637.774" x2="892" y2="637.774" stroke="url(#paint100_linear_4258_50769)" stroke-width="0.921431"/>
<line x1="-4.43819e-08" y1="677.535" x2="892" y2="677.535" stroke="url(#paint101_linear_4258_50769)" stroke-width="0.921431"/>
<line x1="-4.43819e-08" y1="717.297" x2="892" y2="717.297" stroke="url(#paint102_linear_4258_50769)" stroke-width="0.921431"/>
<line x1="-4.43819e-08" y1="756.016" x2="892" y2="756.016" stroke="url(#paint103_linear_4258_50769)" stroke-width="0.921431"/>
<line x1="-4.43819e-08" y1="795.778" x2="892" y2="795.777" stroke="url(#paint104_linear_4258_50769)" stroke-width="0.921431"/>
<line x1="-4.43819e-08" y1="835.539" x2="892" y2="835.539" stroke="url(#paint105_linear_4258_50769)" stroke-width="0.921431"/>
<line x1="-4.43819e-08" y1="875.301" x2="892" y2="875.301" stroke="url(#paint106_linear_4258_50769)" stroke-width="0.921431"/>
<line x1="-4.43819e-08" y1="915.063" x2="892" y2="915.063" stroke="url(#paint107_linear_4258_50769)" stroke-width="0.921431"/>
<line x1="-4.43819e-08" y1="954.824" x2="892" y2="954.824" stroke="url(#paint108_linear_4258_50769)" stroke-width="0.921431"/>
<line x1="7" y1="993.539" x2="887" y2="993.539" stroke="url(#paint109_linear_4258_50769)" stroke-width="0.921431"/>
</g>
<defs>
<linearGradient id="paint0_linear_4258_50769" x1="447.279" y1="620.95" x2="470.273" y2="620.95" gradientUnits="userSpaceOnUse">
<stop stop-color="#2286DE"/>
<stop offset="1" stop-color="#3AAF75"/>
</linearGradient>
<linearGradient id="paint1_linear_4258_50769" x1="19.8048" y1="727.396" x2="695.999" y2="727.396" gradientUnits="userSpaceOnUse">
<stop stop-color="#2286DE"/>
<stop offset="1" stop-color="#3AAF75"/>
</linearGradient>
<linearGradient id="paint2_linear_4258_50769" x1="37.4878" y1="968.65" x2="37.4878" y2="992.048" gradientUnits="userSpaceOnUse">
<stop stop-color="#2286DE"/>
<stop offset="1" stop-color="#3AAF75"/>
</linearGradient>
<linearGradient id="paint3_linear_4258_50769" x1="54.3472" y1="968.65" x2="54.3472" y2="992.048" gradientUnits="userSpaceOnUse">
<stop stop-color="#2286DE"/>
<stop offset="1" stop-color="#3AAF75"/>
</linearGradient>
<linearGradient id="paint4_linear_4258_50769" x1="71.2026" y1="949.933" x2="71.2027" y2="992.049" gradientUnits="userSpaceOnUse">
<stop stop-color="#2286DE"/>
<stop offset="1" stop-color="#3AAF75"/>
</linearGradient>
<linearGradient id="paint5_linear_4258_50769" x1="88.062" y1="907.815" x2="88.0621" y2="992.046" gradientUnits="userSpaceOnUse">
<stop stop-color="#2286DE"/>
<stop offset="1" stop-color="#3AAF75"/>
</linearGradient>
<linearGradient id="paint6_linear_4258_50769" x1="104.921" y1="928.874" x2="104.921" y2="992.048" gradientUnits="userSpaceOnUse">
<stop stop-color="#2286DE"/>
<stop offset="1" stop-color="#3AAF75"/>
</linearGradient>
<linearGradient id="paint7_linear_4258_50769" x1="121.777" y1="865.701" x2="121.777" y2="992.048" gradientUnits="userSpaceOnUse">
<stop stop-color="#2286DE"/>
<stop offset="1" stop-color="#3AAF75"/>
</linearGradient>
<linearGradient id="paint8_linear_4258_50769" x1="138.636" y1="949.933" x2="138.636" y2="992.049" gradientUnits="userSpaceOnUse">
<stop stop-color="#2286DE"/>
<stop offset="1" stop-color="#3AAF75"/>
</linearGradient>
<linearGradient id="paint9_linear_4258_50769" x1="155.496" y1="900.798" x2="155.496" y2="992.049" gradientUnits="userSpaceOnUse">
<stop stop-color="#2286DE"/>
<stop offset="1" stop-color="#3AAF75"/>
</linearGradient>
<linearGradient id="paint10_linear_4258_50769" x1="172.351" y1="907.815" x2="172.351" y2="992.046" gradientUnits="userSpaceOnUse">
<stop stop-color="#2286DE"/>
<stop offset="1" stop-color="#3AAF75"/>
</linearGradient>
<linearGradient id="paint11_linear_4258_50769" x1="189.21" y1="949.933" x2="189.21" y2="992.049" gradientUnits="userSpaceOnUse">
<stop stop-color="#2286DE"/>
<stop offset="1" stop-color="#3AAF75"/>
</linearGradient>
<linearGradient id="paint12_linear_4258_50769" x1="206.07" y1="970.992" x2="206.07" y2="992.05" gradientUnits="userSpaceOnUse">
<stop stop-color="#2286DE"/>
<stop offset="1" stop-color="#3AAF75"/>
</linearGradient>
<linearGradient id="paint13_linear_4258_50769" x1="222.925" y1="914.836" x2="222.925" y2="992.048" gradientUnits="userSpaceOnUse">
<stop stop-color="#2286DE"/>
<stop offset="1" stop-color="#3AAF75"/>
</linearGradient>
<linearGradient id="paint14_linear_4258_50769" x1="239.785" y1="884.418" x2="239.785" y2="992.047" gradientUnits="userSpaceOnUse">
<stop stop-color="#2286DE"/>
<stop offset="1" stop-color="#3AAF75"/>
</linearGradient>
<linearGradient id="paint15_linear_4258_50769" x1="256.644" y1="938.232" x2="256.644" y2="992.047" gradientUnits="userSpaceOnUse">
<stop stop-color="#2286DE"/>
<stop offset="1" stop-color="#3AAF75"/>
</linearGradient>
<linearGradient id="paint16_linear_4258_50769" x1="273.5" y1="938.232" x2="273.5" y2="992.047" gradientUnits="userSpaceOnUse">
<stop stop-color="#2286DE"/>
<stop offset="1" stop-color="#3AAF75"/>
</linearGradient>
<linearGradient id="paint17_linear_4258_50769" x1="290.359" y1="914.836" x2="290.359" y2="992.048" gradientUnits="userSpaceOnUse">
<stop stop-color="#2286DE"/>
<stop offset="1" stop-color="#3AAF75"/>
</linearGradient>
<linearGradient id="paint18_linear_4258_50769" x1="307.218" y1="954.612" x2="307.218" y2="992.048" gradientUnits="userSpaceOnUse">
<stop stop-color="#2286DE"/>
<stop offset="1" stop-color="#3AAF75"/>
</linearGradient>
<linearGradient id="paint19_linear_4258_50769" x1="324.074" y1="928.874" x2="324.074" y2="992.048" gradientUnits="userSpaceOnUse">
<stop stop-color="#2286DE"/>
<stop offset="1" stop-color="#3AAF75"/>
</linearGradient>
<linearGradient id="paint20_linear_4258_50769" x1="340.933" y1="893.777" x2="340.933" y2="992.047" gradientUnits="userSpaceOnUse">
<stop stop-color="#2286DE"/>
<stop offset="1" stop-color="#3AAF75"/>
</linearGradient>
<linearGradient id="paint21_linear_4258_50769" x1="357.792" y1="865.701" x2="357.792" y2="992.048" gradientUnits="userSpaceOnUse">
<stop stop-color="#2286DE"/>
<stop offset="1" stop-color="#3AAF75"/>
</linearGradient>
<linearGradient id="paint22_linear_4258_50769" x1="374.648" y1="886.76" x2="374.648" y2="992.049" gradientUnits="userSpaceOnUse">
<stop stop-color="#2286DE"/>
<stop offset="1" stop-color="#3AAF75"/>
</linearGradient>
<linearGradient id="paint23_linear_4258_50769" x1="391.507" y1="907.815" x2="391.507" y2="992.046" gradientUnits="userSpaceOnUse">
<stop stop-color="#2286DE"/>
<stop offset="1" stop-color="#3AAF75"/>
</linearGradient>
<linearGradient id="paint24_linear_4258_50769" x1="408.367" y1="954.612" x2="408.367" y2="992.048" gradientUnits="userSpaceOnUse">
<stop stop-color="#2286DE"/>
<stop offset="1" stop-color="#3AAF75"/>
</linearGradient>
<linearGradient id="paint25_linear_4258_50769" x1="425.222" y1="975.671" x2="425.222" y2="992.05" gradientUnits="userSpaceOnUse">
<stop stop-color="#2286DE"/>
<stop offset="1" stop-color="#3AAF75"/>
</linearGradient>
<linearGradient id="paint26_linear_4258_50769" x1="442.082" y1="917.177" x2="442.082" y2="992.05" gradientUnits="userSpaceOnUse">
<stop stop-color="#2286DE"/>
<stop offset="1" stop-color="#3AAF75"/>
</linearGradient>
<linearGradient id="paint27_linear_4258_50769" x1="458.941" y1="940.574" x2="458.941" y2="992.049" gradientUnits="userSpaceOnUse">
<stop stop-color="#2286DE"/>
<stop offset="1" stop-color="#3AAF75"/>
</linearGradient>
<linearGradient id="paint28_linear_4258_50769" x1="475.796" y1="961.929" x2="475.796" y2="992.047" gradientUnits="userSpaceOnUse">
<stop stop-color="#2286DE"/>
<stop offset="1" stop-color="#3AAF75"/>
</linearGradient>
<linearGradient id="paint29_linear_4258_50769" x1="492.656" y1="973.588" x2="492.656" y2="992.047" gradientUnits="userSpaceOnUse">
<stop stop-color="#2286DE"/>
<stop offset="1" stop-color="#3AAF75"/>
</linearGradient>
<linearGradient id="paint30_linear_4258_50769" x1="509.515" y1="983.303" x2="509.515" y2="992.047" gradientUnits="userSpaceOnUse">
<stop stop-color="#2286DE"/>
<stop offset="1" stop-color="#3AAF75"/>
</linearGradient>
<linearGradient id="paint31_linear_4258_50769" x1="526.371" y1="966.787" x2="526.371" y2="992.047" gradientUnits="userSpaceOnUse">
<stop stop-color="#2286DE"/>
<stop offset="1" stop-color="#3AAF75"/>
</linearGradient>
<linearGradient id="paint32_linear_4258_50769" x1="543.23" y1="955.128" x2="543.23" y2="992.047" gradientUnits="userSpaceOnUse">
<stop stop-color="#2286DE"/>
<stop offset="1" stop-color="#3AAF75"/>
</linearGradient>
<linearGradient id="paint33_linear_4258_50769" x1="560.089" y1="966.787" x2="560.089" y2="992.047" gradientUnits="userSpaceOnUse">
<stop stop-color="#2286DE"/>
<stop offset="1" stop-color="#3AAF75"/>
</linearGradient>
<linearGradient id="paint34_linear_4258_50769" x1="576.949" y1="957.071" x2="576.949" y2="992.047" gradientUnits="userSpaceOnUse">
<stop stop-color="#2286DE"/>
<stop offset="1" stop-color="#3AAF75"/>
</linearGradient>
<linearGradient id="paint35_linear_4258_50769" x1="593.804" y1="969.701" x2="593.804" y2="992.047" gradientUnits="userSpaceOnUse">
<stop stop-color="#2286DE"/>
<stop offset="1" stop-color="#3AAF75"/>
</linearGradient>
<linearGradient id="paint36_linear_4258_50769" x1="610.664" y1="917.177" x2="610.664" y2="992.05" gradientUnits="userSpaceOnUse">
<stop stop-color="#2286DE"/>
<stop offset="1" stop-color="#3AAF75"/>
</linearGradient>
<linearGradient id="paint37_linear_4258_50769" x1="627.523" y1="865.701" x2="627.523" y2="992.048" gradientUnits="userSpaceOnUse">
<stop stop-color="#2286DE"/>
<stop offset="1" stop-color="#3AAF75"/>
</linearGradient>
<linearGradient id="paint38_linear_4258_50769" x1="644.378" y1="905.477" x2="644.378" y2="992.048" gradientUnits="userSpaceOnUse">
<stop stop-color="#2286DE"/>
<stop offset="1" stop-color="#3AAF75"/>
</linearGradient>
<linearGradient id="paint39_linear_4258_50769" x1="661.238" y1="928.874" x2="661.238" y2="992.048" gradientUnits="userSpaceOnUse">
<stop stop-color="#2286DE"/>
<stop offset="1" stop-color="#3AAF75"/>
</linearGradient>
<linearGradient id="paint40_linear_4258_50769" x1="678.097" y1="905.477" x2="678.097" y2="992.048" gradientUnits="userSpaceOnUse">
<stop stop-color="#2286DE"/>
<stop offset="1" stop-color="#3AAF75"/>
</linearGradient>
<linearGradient id="paint41_linear_4258_50769" x1="694.953" y1="966.312" x2="694.953" y2="992.05" gradientUnits="userSpaceOnUse">
<stop stop-color="#2286DE"/>
<stop offset="1" stop-color="#3AAF75"/>
</linearGradient>
<linearGradient id="paint42_linear_4258_50769" x1="711.812" y1="980.35" x2="711.812" y2="992.049" gradientUnits="userSpaceOnUse">
<stop stop-color="#2286DE"/>
<stop offset="1" stop-color="#3AAF75"/>
</linearGradient>
<linearGradient id="paint43_linear_4258_50769" x1="728.671" y1="966.312" x2="728.671" y2="992.05" gradientUnits="userSpaceOnUse">
<stop stop-color="#2286DE"/>
<stop offset="1" stop-color="#3AAF75"/>
</linearGradient>
<linearGradient id="paint44_linear_4258_50769" x1="745.527" y1="956.95" x2="745.527" y2="992.046" gradientUnits="userSpaceOnUse">
<stop stop-color="#2286DE"/>
<stop offset="1" stop-color="#3AAF75"/>
</linearGradient>
<linearGradient id="paint45_linear_4258_50769" x1="762.386" y1="956.95" x2="762.386" y2="992.046" gradientUnits="userSpaceOnUse">
<stop stop-color="#2286DE"/>
<stop offset="1" stop-color="#3AAF75"/>
</linearGradient>
<linearGradient id="paint46_linear_4258_50769" x1="779.246" y1="928.874" x2="779.246" y2="992.048" gradientUnits="userSpaceOnUse">
<stop stop-color="#2286DE"/>
<stop offset="1" stop-color="#3AAF75"/>
</linearGradient>
<linearGradient id="paint47_linear_4258_50769" x1="796.101" y1="917.177" x2="796.101" y2="992.05" gradientUnits="userSpaceOnUse">
<stop stop-color="#2286DE"/>
<stop offset="1" stop-color="#3AAF75"/>
</linearGradient>
<linearGradient id="paint48_linear_4258_50769" x1="812.96" y1="905.477" x2="812.96" y2="992.048" gradientUnits="userSpaceOnUse">
<stop stop-color="#2286DE"/>
<stop offset="1" stop-color="#3AAF75"/>
</linearGradient>
<linearGradient id="paint49_linear_4258_50769" x1="829.82" y1="865.701" x2="829.82" y2="992.048" gradientUnits="userSpaceOnUse">
<stop stop-color="#2286DE"/>
<stop offset="1" stop-color="#3AAF75"/>
</linearGradient>
<linearGradient id="paint50_linear_4258_50769" x1="687.528" y1="446.505" x2="705.558" y2="446.505" gradientUnits="userSpaceOnUse">
<stop stop-color="#2286DE"/>
<stop offset="1" stop-color="#3AAF75"/>
</linearGradient>
<linearGradient id="paint51_linear_4258_50769" x1="695.488" y1="461.537" x2="695.488" y2="992" gradientUnits="userSpaceOnUse">
<stop stop-color="#2286DE"/>
<stop offset="1" stop-color="#3AAF75"/>
</linearGradient>
<linearGradient id="paint52_linear_4258_50769" x1="26.8252" y1="521.637" x2="891.5" y2="521.637" gradientUnits="userSpaceOnUse">
<stop stop-color="#2286DE"/>
<stop offset="1" stop-color="#3AAF75"/>
</linearGradient>
<linearGradient id="paint53_linear_4258_50769" x1="875.512" y1="965.715" x2="875.511" y2="-4.75384e-05" gradientUnits="userSpaceOnUse">
<stop stop-color="#2286DE"/>
<stop offset="1" stop-color="#3AAF75"/>
</linearGradient>
<linearGradient id="paint54_linear_4258_50769" x1="5.5122" y1="932.195" x2="5.51084" y2="0.998794" gradientUnits="userSpaceOnUse">
<stop stop-color="#2286DE"/>
<stop offset="1" stop-color="#3AAF75"/>
</linearGradient>
<linearGradient id="paint55_linear_4258_50769" x1="34.5122" y1="932.195" x2="34.5108" y2="0.998794" gradientUnits="userSpaceOnUse">
<stop stop-color="#2286DE"/>
<stop offset="1" stop-color="#3AAF75"/>
</linearGradient>
<linearGradient id="paint56_linear_4258_50769" x1="63.5122" y1="932.195" x2="63.5108" y2="0.998794" gradientUnits="userSpaceOnUse">
<stop stop-color="#2286DE"/>
<stop offset="1" stop-color="#3AAF75"/>
</linearGradient>
<linearGradient id="paint57_linear_4258_50769" x1="92.5122" y1="932.195" x2="92.5108" y2="0.998794" gradientUnits="userSpaceOnUse">
<stop stop-color="#2286DE"/>
<stop offset="1" stop-color="#3AAF75"/>
</linearGradient>
<linearGradient id="paint58_linear_4258_50769" x1="121.512" y1="932.195" x2="121.511" y2="0.998794" gradientUnits="userSpaceOnUse">
<stop stop-color="#2286DE"/>
<stop offset="1" stop-color="#3AAF75"/>
</linearGradient>
<linearGradient id="paint59_linear_4258_50769" x1="150.512" y1="932.195" x2="150.511" y2="0.998794" gradientUnits="userSpaceOnUse">
<stop stop-color="#2286DE"/>
<stop offset="1" stop-color="#3AAF75"/>
</linearGradient>
<linearGradient id="paint60_linear_4258_50769" x1="179.512" y1="932.195" x2="179.511" y2="0.998794" gradientUnits="userSpaceOnUse">
<stop stop-color="#2286DE"/>
<stop offset="1" stop-color="#3AAF75"/>
</linearGradient>
<linearGradient id="paint61_linear_4258_50769" x1="208.512" y1="932.195" x2="208.511" y2="0.998794" gradientUnits="userSpaceOnUse">
<stop stop-color="#2286DE"/>
<stop offset="1" stop-color="#3AAF75"/>
</linearGradient>
<linearGradient id="paint62_linear_4258_50769" x1="237.512" y1="932.195" x2="237.511" y2="0.998794" gradientUnits="userSpaceOnUse">
<stop stop-color="#2286DE"/>
<stop offset="1" stop-color="#3AAF75"/>
</linearGradient>
<linearGradient id="paint63_linear_4258_50769" x1="266.512" y1="932.195" x2="266.511" y2="0.998794" gradientUnits="userSpaceOnUse">
<stop stop-color="#2286DE"/>
<stop offset="1" stop-color="#3AAF75"/>
</linearGradient>
<linearGradient id="paint64_linear_4258_50769" x1="295.512" y1="932.195" x2="295.511" y2="0.998794" gradientUnits="userSpaceOnUse">
<stop stop-color="#2286DE"/>
<stop offset="1" stop-color="#3AAF75"/>
</linearGradient>
<linearGradient id="paint65_linear_4258_50769" x1="324.512" y1="932.195" x2="324.511" y2="0.998794" gradientUnits="userSpaceOnUse">
<stop stop-color="#2286DE"/>
<stop offset="1" stop-color="#3AAF75"/>
</linearGradient>
<linearGradient id="paint66_linear_4258_50769" x1="353.512" y1="932.195" x2="353.511" y2="0.998794" gradientUnits="userSpaceOnUse">
<stop stop-color="#2286DE"/>
<stop offset="1" stop-color="#3AAF75"/>
</linearGradient>
<linearGradient id="paint67_linear_4258_50769" x1="382.512" y1="932.195" x2="382.511" y2="0.998794" gradientUnits="userSpaceOnUse">
<stop stop-color="#2286DE"/>
<stop offset="1" stop-color="#3AAF75"/>
</linearGradient>
<linearGradient id="paint68_linear_4258_50769" x1="411.512" y1="932.195" x2="411.511" y2="0.998794" gradientUnits="userSpaceOnUse">
<stop stop-color="#2286DE"/>
<stop offset="1" stop-color="#3AAF75"/>
</linearGradient>
<linearGradient id="paint69_linear_4258_50769" x1="440.512" y1="932.195" x2="440.511" y2="0.998794" gradientUnits="userSpaceOnUse">
<stop stop-color="#2286DE"/>
<stop offset="1" stop-color="#3AAF75"/>
</linearGradient>
<linearGradient id="paint70_linear_4258_50769" x1="469.512" y1="932.195" x2="469.511" y2="0.998794" gradientUnits="userSpaceOnUse">
<stop stop-color="#2286DE"/>
<stop offset="1" stop-color="#3AAF75"/>
</linearGradient>
<linearGradient id="paint71_linear_4258_50769" x1="498.512" y1="932.195" x2="498.511" y2="0.998794" gradientUnits="userSpaceOnUse">
<stop stop-color="#2286DE"/>
<stop offset="1" stop-color="#3AAF75"/>
</linearGradient>
<linearGradient id="paint72_linear_4258_50769" x1="527.512" y1="932.195" x2="527.511" y2="0.998794" gradientUnits="userSpaceOnUse">
<stop stop-color="#2286DE"/>
<stop offset="1" stop-color="#3AAF75"/>
</linearGradient>
<linearGradient id="paint73_linear_4258_50769" x1="556.512" y1="932.195" x2="556.511" y2="0.998794" gradientUnits="userSpaceOnUse">
<stop stop-color="#2286DE"/>
<stop offset="1" stop-color="#3AAF75"/>
</linearGradient>
<linearGradient id="paint74_linear_4258_50769" x1="585.512" y1="932.195" x2="585.511" y2="0.998794" gradientUnits="userSpaceOnUse">
<stop stop-color="#2286DE"/>
<stop offset="1" stop-color="#3AAF75"/>
</linearGradient>
<linearGradient id="paint75_linear_4258_50769" x1="614.512" y1="932.195" x2="614.511" y2="0.998794" gradientUnits="userSpaceOnUse">
<stop stop-color="#2286DE"/>
<stop offset="1" stop-color="#3AAF75"/>
</linearGradient>
<linearGradient id="paint76_linear_4258_50769" x1="643.512" y1="932.195" x2="643.511" y2="0.998794" gradientUnits="userSpaceOnUse">
<stop stop-color="#2286DE"/>
<stop offset="1" stop-color="#3AAF75"/>
</linearGradient>
<linearGradient id="paint77_linear_4258_50769" x1="672.512" y1="932.195" x2="672.511" y2="0.998794" gradientUnits="userSpaceOnUse">
<stop stop-color="#2286DE"/>
<stop offset="1" stop-color="#3AAF75"/>
</linearGradient>
<linearGradient id="paint78_linear_4258_50769" x1="701.512" y1="932.195" x2="701.511" y2="0.998794" gradientUnits="userSpaceOnUse">
<stop stop-color="#2286DE"/>
<stop offset="1" stop-color="#3AAF75"/>
</linearGradient>
<linearGradient id="paint79_linear_4258_50769" x1="730.512" y1="932.195" x2="730.511" y2="0.998794" gradientUnits="userSpaceOnUse">
<stop stop-color="#2286DE"/>
<stop offset="1" stop-color="#3AAF75"/>
</linearGradient>
<linearGradient id="paint80_linear_4258_50769" x1="759.512" y1="932.195" x2="759.511" y2="0.998794" gradientUnits="userSpaceOnUse">
<stop stop-color="#2286DE"/>
<stop offset="1" stop-color="#3AAF75"/>
</linearGradient>
<linearGradient id="paint81_linear_4258_50769" x1="788.512" y1="932.195" x2="788.511" y2="0.998794" gradientUnits="userSpaceOnUse">
<stop stop-color="#2286DE"/>
<stop offset="1" stop-color="#3AAF75"/>
</linearGradient>
<linearGradient id="paint82_linear_4258_50769" x1="817.512" y1="932.195" x2="817.511" y2="0.998794" gradientUnits="userSpaceOnUse">
<stop stop-color="#2286DE"/>
<stop offset="1" stop-color="#3AAF75"/>
</linearGradient>
<linearGradient id="paint83_linear_4258_50769" x1="846.512" y1="932.195" x2="846.511" y2="0.998794" gradientUnits="userSpaceOnUse">
<stop stop-color="#2286DE"/>
<stop offset="1" stop-color="#3AAF75"/>
</linearGradient>
<linearGradient id="paint84_linear_4258_50769" x1="25.3821" y1="4.65282" x2="892" y2="4.65153" gradientUnits="userSpaceOnUse">
<stop stop-color="#2286DE"/>
<stop offset="1" stop-color="#3AAF75"/>
</linearGradient>
<linearGradient id="paint85_linear_4258_50769" x1="25.3821" y1="44.4145" x2="892" y2="44.4132" gradientUnits="userSpaceOnUse">
<stop stop-color="#2286DE"/>
<stop offset="1" stop-color="#3AAF75"/>
</linearGradient>
<linearGradient id="paint86_linear_4258_50769" x1="25.3821" y1="84.1763" x2="892" y2="84.175" gradientUnits="userSpaceOnUse">
<stop stop-color="#2286DE"/>
<stop offset="1" stop-color="#3AAF75"/>
</linearGradient>
<linearGradient id="paint87_linear_4258_50769" x1="25.3821" y1="123.938" x2="892" y2="123.937" gradientUnits="userSpaceOnUse">
<stop stop-color="#2286DE"/>
<stop offset="1" stop-color="#3AAF75"/>
</linearGradient>
<linearGradient id="paint88_linear_4258_50769" x1="25.3821" y1="163.7" x2="892" y2="163.698" gradientUnits="userSpaceOnUse">
<stop stop-color="#2286DE"/>
<stop offset="1" stop-color="#3AAF75"/>
</linearGradient>
<linearGradient id="paint89_linear_4258_50769" x1="25.3821" y1="203.461" x2="892" y2="203.46" gradientUnits="userSpaceOnUse">
<stop stop-color="#2286DE"/>
<stop offset="1" stop-color="#3AAF75"/>
</linearGradient>
<linearGradient id="paint90_linear_4258_50769" x1="25.3821" y1="242.176" x2="892" y2="242.175" gradientUnits="userSpaceOnUse">
<stop stop-color="#2286DE"/>
<stop offset="1" stop-color="#3AAF75"/>
</linearGradient>
<linearGradient id="paint91_linear_4258_50769" x1="25.3821" y1="281.938" x2="892" y2="281.937" gradientUnits="userSpaceOnUse">
<stop stop-color="#2286DE"/>
<stop offset="1" stop-color="#3AAF75"/>
</linearGradient>
<linearGradient id="paint92_linear_4258_50769" x1="25.3821" y1="321.7" x2="892" y2="321.698" gradientUnits="userSpaceOnUse">
<stop stop-color="#2286DE"/>
<stop offset="1" stop-color="#3AAF75"/>
</linearGradient>
<linearGradient id="paint93_linear_4258_50769" x1="25.3821" y1="361.461" x2="892" y2="361.46" gradientUnits="userSpaceOnUse">
<stop stop-color="#2286DE"/>
<stop offset="1" stop-color="#3AAF75"/>
</linearGradient>
<linearGradient id="paint94_linear_4258_50769" x1="25.3821" y1="401.223" x2="892" y2="401.222" gradientUnits="userSpaceOnUse">
<stop stop-color="#2286DE"/>
<stop offset="1" stop-color="#3AAF75"/>
</linearGradient>
<linearGradient id="paint95_linear_4258_50769" x1="25.3821" y1="440.985" x2="892" y2="440.984" gradientUnits="userSpaceOnUse">
<stop stop-color="#2286DE"/>
<stop offset="1" stop-color="#3AAF75"/>
</linearGradient>
<linearGradient id="paint96_linear_4258_50769" x1="25.3821" y1="479.7" x2="892" y2="479.698" gradientUnits="userSpaceOnUse">
<stop stop-color="#2286DE"/>
<stop offset="1" stop-color="#3AAF75"/>
</linearGradient>
<linearGradient id="paint97_linear_4258_50769" x1="25.3821" y1="519.461" x2="892" y2="519.46" gradientUnits="userSpaceOnUse">
<stop stop-color="#2286DE"/>
<stop offset="1" stop-color="#3AAF75"/>
</linearGradient>
<linearGradient id="paint98_linear_4258_50769" x1="25.3821" y1="559.223" x2="892" y2="559.222" gradientUnits="userSpaceOnUse">
<stop stop-color="#2286DE"/>
<stop offset="1" stop-color="#3AAF75"/>
</linearGradient>
<linearGradient id="paint99_linear_4258_50769" x1="25.3821" y1="598.985" x2="892" y2="598.984" gradientUnits="userSpaceOnUse">
<stop stop-color="#2286DE"/>
<stop offset="1" stop-color="#3AAF75"/>
</linearGradient>
<linearGradient id="paint100_linear_4258_50769" x1="25.3821" y1="638.747" x2="892" y2="638.745" gradientUnits="userSpaceOnUse">
<stop stop-color="#2286DE"/>
<stop offset="1" stop-color="#3AAF75"/>
</linearGradient>
<linearGradient id="paint101_linear_4258_50769" x1="25.3821" y1="678.508" x2="892" y2="678.507" gradientUnits="userSpaceOnUse">
<stop stop-color="#2286DE"/>
<stop offset="1" stop-color="#3AAF75"/>
</linearGradient>
<linearGradient id="paint102_linear_4258_50769" x1="25.3821" y1="718.27" x2="892" y2="718.269" gradientUnits="userSpaceOnUse">
<stop stop-color="#2286DE"/>
<stop offset="1" stop-color="#3AAF75"/>
</linearGradient>
<linearGradient id="paint103_linear_4258_50769" x1="25.3821" y1="756.989" x2="892" y2="756.987" gradientUnits="userSpaceOnUse">
<stop stop-color="#2286DE"/>
<stop offset="1" stop-color="#3AAF75"/>
</linearGradient>
<linearGradient id="paint104_linear_4258_50769" x1="25.3821" y1="796.75" x2="892" y2="796.749" gradientUnits="userSpaceOnUse">
<stop stop-color="#2286DE"/>
<stop offset="1" stop-color="#3AAF75"/>
</linearGradient>
<linearGradient id="paint105_linear_4258_50769" x1="25.3821" y1="836.512" x2="892" y2="836.511" gradientUnits="userSpaceOnUse">
<stop stop-color="#2286DE"/>
<stop offset="1" stop-color="#3AAF75"/>
</linearGradient>
<linearGradient id="paint106_linear_4258_50769" x1="25.3821" y1="876.274" x2="892" y2="876.273" gradientUnits="userSpaceOnUse">
<stop stop-color="#2286DE"/>
<stop offset="1" stop-color="#3AAF75"/>
</linearGradient>
<linearGradient id="paint107_linear_4258_50769" x1="25.3821" y1="916.036" x2="892" y2="916.034" gradientUnits="userSpaceOnUse">
<stop stop-color="#2286DE"/>
<stop offset="1" stop-color="#3AAF75"/>
</linearGradient>
<linearGradient id="paint108_linear_4258_50769" x1="25.3821" y1="955.797" x2="892" y2="955.796" gradientUnits="userSpaceOnUse">
<stop stop-color="#2286DE"/>
<stop offset="1" stop-color="#3AAF75"/>
</linearGradient>
<linearGradient id="paint109_linear_4258_50769" x1="32.0406" y1="994.512" x2="887" y2="994.511" gradientUnits="userSpaceOnUse">
<stop stop-color="#2286DE"/>
<stop offset="1" stop-color="#3AAF75"/>
</linearGradient>
</defs>
</svg>
