<svg width="582" height="17" viewBox="0 0 582 17" fill="none" xmlns="http://www.w3.org/2000/svg">
<path d="M1 8.5H241" stroke="url(#paint0_linear_5208_54360)" stroke-linecap="round"/>
<path d="M254.219 12.7734V14H248.531V12.7734H254.219ZM248.828 2.625V14H247.32V2.625H248.828ZM259.234 14.1562C258.646 14.1562 258.112 14.0573 257.633 13.8594C257.159 13.6562 256.75 13.3724 256.406 13.0078C256.068 12.6432 255.807 12.2109 255.625 11.7109C255.443 11.2109 255.352 10.6641 255.352 10.0703V9.74219C255.352 9.05469 255.453 8.44271 255.656 7.90625C255.859 7.36458 256.135 6.90625 256.484 6.53125C256.833 6.15625 257.229 5.8724 257.672 5.67969C258.115 5.48698 258.573 5.39062 259.047 5.39062C259.651 5.39062 260.172 5.49479 260.609 5.70312C261.052 5.91146 261.414 6.20312 261.695 6.57812C261.977 6.94792 262.185 7.38542 262.32 7.89062C262.456 8.39062 262.523 8.9375 262.523 9.53125V10.1797H256.211V9H261.078V8.89062C261.057 8.51562 260.979 8.15104 260.844 7.79688C260.714 7.44271 260.505 7.15104 260.219 6.92188C259.932 6.69271 259.542 6.57812 259.047 6.57812C258.719 6.57812 258.417 6.64844 258.141 6.78906C257.865 6.92448 257.628 7.1276 257.43 7.39844C257.232 7.66927 257.078 8 256.969 8.39062C256.859 8.78125 256.805 9.23177 256.805 9.74219V10.0703C256.805 10.4714 256.859 10.849 256.969 11.2031C257.083 11.5521 257.247 11.8594 257.461 12.125C257.68 12.3906 257.943 12.599 258.25 12.75C258.562 12.901 258.917 12.9766 259.312 12.9766C259.823 12.9766 260.255 12.8724 260.609 12.6641C260.964 12.4557 261.273 12.1771 261.539 11.8281L262.414 12.5234C262.232 12.7995 262 13.0625 261.719 13.3125C261.438 13.5625 261.091 13.7656 260.68 13.9219C260.273 14.0781 259.792 14.1562 259.234 14.1562ZM269.195 12.5547V8.20312C269.195 7.86979 269.128 7.58073 268.992 7.33594C268.862 7.08594 268.664 6.89323 268.398 6.75781C268.133 6.6224 267.805 6.55469 267.414 6.55469C267.049 6.55469 266.729 6.61719 266.453 6.74219C266.182 6.86719 265.969 7.03125 265.812 7.23438C265.661 7.4375 265.586 7.65625 265.586 7.89062H264.141C264.141 7.58854 264.219 7.28906 264.375 6.99219C264.531 6.69531 264.755 6.42708 265.047 6.1875C265.344 5.94271 265.698 5.75 266.109 5.60938C266.526 5.46354 266.99 5.39062 267.5 5.39062C268.115 5.39062 268.656 5.49479 269.125 5.70312C269.599 5.91146 269.969 6.22656 270.234 6.64844C270.505 7.0651 270.641 7.58854 270.641 8.21875V12.1562C270.641 12.4375 270.664 12.737 270.711 13.0547C270.763 13.3724 270.839 13.6458 270.938 13.875V14H269.43C269.357 13.8333 269.299 13.612 269.258 13.3359C269.216 13.0547 269.195 12.7943 269.195 12.5547ZM269.445 8.875L269.461 9.89062H268C267.589 9.89062 267.221 9.92448 266.898 9.99219C266.576 10.0547 266.305 10.151 266.086 10.2812C265.867 10.4115 265.701 10.5755 265.586 10.7734C265.471 10.9661 265.414 11.1927 265.414 11.4531C265.414 11.7188 265.474 11.9609 265.594 12.1797C265.714 12.3984 265.893 12.5729 266.133 12.7031C266.378 12.8281 266.677 12.8906 267.031 12.8906C267.474 12.8906 267.865 12.7969 268.203 12.6094C268.542 12.4219 268.81 12.1927 269.008 11.9219C269.211 11.651 269.32 11.388 269.336 11.1328L269.953 11.8281C269.917 12.0469 269.818 12.2891 269.656 12.5547C269.495 12.8203 269.279 13.0755 269.008 13.3203C268.742 13.5599 268.424 13.7604 268.055 13.9219C267.69 14.0781 267.279 14.1562 266.82 14.1562C266.247 14.1562 265.745 14.0443 265.312 13.8203C264.885 13.5964 264.552 13.2969 264.312 12.9219C264.078 12.5417 263.961 12.1172 263.961 11.6484C263.961 11.1953 264.049 10.7969 264.227 10.4531C264.404 10.1042 264.659 9.8151 264.992 9.58594C265.326 9.35156 265.727 9.17448 266.195 9.05469C266.664 8.9349 267.188 8.875 267.766 8.875H269.445ZM278.242 12.3594V2H279.695V14H278.367L278.242 12.3594ZM272.555 9.86719V9.70312C272.555 9.05729 272.633 8.47135 272.789 7.94531C272.951 7.41406 273.177 6.95833 273.469 6.57812C273.766 6.19792 274.117 5.90625 274.523 5.70312C274.935 5.49479 275.393 5.39062 275.898 5.39062C276.43 5.39062 276.893 5.48438 277.289 5.67188C277.69 5.85417 278.029 6.1224 278.305 6.47656C278.586 6.82552 278.807 7.2474 278.969 7.74219C279.13 8.23698 279.242 8.79688 279.305 9.42188V10.1406C279.247 10.7604 279.135 11.3177 278.969 11.8125C278.807 12.3073 278.586 12.7292 278.305 13.0781C278.029 13.4271 277.69 13.6953 277.289 13.8828C276.888 14.0651 276.419 14.1562 275.883 14.1562C275.388 14.1562 274.935 14.0495 274.523 13.8359C274.117 13.6224 273.766 13.3229 273.469 12.9375C273.177 12.5521 272.951 12.099 272.789 11.5781C272.633 11.0521 272.555 10.4818 272.555 9.86719ZM274.008 9.70312V9.86719C274.008 10.2891 274.049 10.6849 274.133 11.0547C274.221 11.4245 274.357 11.75 274.539 12.0312C274.721 12.3125 274.953 12.5339 275.234 12.6953C275.516 12.8516 275.852 12.9297 276.242 12.9297C276.721 12.9297 277.115 12.8281 277.422 12.625C277.734 12.4219 277.984 12.1536 278.172 11.8203C278.359 11.487 278.505 11.125 278.609 10.7344V8.85156C278.547 8.5651 278.456 8.28906 278.336 8.02344C278.221 7.7526 278.07 7.51302 277.883 7.30469C277.701 7.09115 277.474 6.92188 277.203 6.79688C276.938 6.67188 276.622 6.60938 276.258 6.60938C275.862 6.60938 275.521 6.69271 275.234 6.85938C274.953 7.02083 274.721 7.24479 274.539 7.53125C274.357 7.8125 274.221 8.14062 274.133 8.51562C274.049 8.88542 274.008 9.28125 274.008 9.70312ZM285.453 14.1562C284.865 14.1562 284.331 14.0573 283.852 13.8594C283.378 13.6562 282.969 13.3724 282.625 13.0078C282.286 12.6432 282.026 12.2109 281.844 11.7109C281.661 11.2109 281.57 10.6641 281.57 10.0703V9.74219C281.57 9.05469 281.672 8.44271 281.875 7.90625C282.078 7.36458 282.354 6.90625 282.703 6.53125C283.052 6.15625 283.448 5.8724 283.891 5.67969C284.333 5.48698 284.792 5.39062 285.266 5.39062C285.87 5.39062 286.391 5.49479 286.828 5.70312C287.271 5.91146 287.633 6.20312 287.914 6.57812C288.195 6.94792 288.404 7.38542 288.539 7.89062C288.674 8.39062 288.742 8.9375 288.742 9.53125V10.1797H282.43V9H287.297V8.89062C287.276 8.51562 287.198 8.15104 287.062 7.79688C286.932 7.44271 286.724 7.15104 286.438 6.92188C286.151 6.69271 285.76 6.57812 285.266 6.57812C284.938 6.57812 284.635 6.64844 284.359 6.78906C284.083 6.92448 283.846 7.1276 283.648 7.39844C283.451 7.66927 283.297 8 283.188 8.39062C283.078 8.78125 283.023 9.23177 283.023 9.74219V10.0703C283.023 10.4714 283.078 10.849 283.188 11.2031C283.302 11.5521 283.466 11.8594 283.68 12.125C283.898 12.3906 284.161 12.599 284.469 12.75C284.781 12.901 285.135 12.9766 285.531 12.9766C286.042 12.9766 286.474 12.8724 286.828 12.6641C287.182 12.4557 287.492 12.1771 287.758 11.8281L288.633 12.5234C288.451 12.7995 288.219 13.0625 287.938 13.3125C287.656 13.5625 287.31 13.7656 286.898 13.9219C286.492 14.0781 286.01 14.1562 285.453 14.1562ZM291.875 6.875V14H290.43V5.54688H291.836L291.875 6.875ZM294.516 5.5L294.508 6.84375C294.388 6.81771 294.273 6.80208 294.164 6.79688C294.06 6.78646 293.94 6.78125 293.805 6.78125C293.471 6.78125 293.177 6.83333 292.922 6.9375C292.667 7.04167 292.451 7.1875 292.273 7.375C292.096 7.5625 291.956 7.78646 291.852 8.04688C291.753 8.30208 291.688 8.58333 291.656 8.89062L291.25 9.125C291.25 8.61458 291.299 8.13542 291.398 7.6875C291.503 7.23958 291.661 6.84375 291.875 6.5C292.089 6.15104 292.359 5.88021 292.688 5.6875C293.021 5.48958 293.417 5.39062 293.875 5.39062C293.979 5.39062 294.099 5.40365 294.234 5.42969C294.37 5.45052 294.464 5.47396 294.516 5.5ZM295.844 2H297.297V12.3594L297.172 14H295.844V2ZM303.008 9.70312V9.86719C303.008 10.4818 302.935 11.0521 302.789 11.5781C302.643 12.099 302.43 12.5521 302.148 12.9375C301.867 13.3229 301.523 13.6224 301.117 13.8359C300.711 14.0495 300.245 14.1562 299.719 14.1562C299.182 14.1562 298.711 14.0651 298.305 13.8828C297.904 13.6953 297.565 13.4271 297.289 13.0781C297.013 12.7292 296.792 12.3073 296.625 11.8125C296.464 11.3177 296.352 10.7604 296.289 10.1406V9.42188C296.352 8.79688 296.464 8.23698 296.625 7.74219C296.792 7.2474 297.013 6.82552 297.289 6.47656C297.565 6.1224 297.904 5.85417 298.305 5.67188C298.706 5.48438 299.172 5.39062 299.703 5.39062C300.234 5.39062 300.706 5.49479 301.117 5.70312C301.529 5.90625 301.872 6.19792 302.148 6.57812C302.43 6.95833 302.643 7.41406 302.789 7.94531C302.935 8.47135 303.008 9.05729 303.008 9.70312ZM301.555 9.86719V9.70312C301.555 9.28125 301.516 8.88542 301.438 8.51562C301.359 8.14062 301.234 7.8125 301.062 7.53125C300.891 7.24479 300.664 7.02083 300.383 6.85938C300.102 6.69271 299.755 6.60938 299.344 6.60938C298.979 6.60938 298.661 6.67188 298.391 6.79688C298.125 6.92188 297.898 7.09115 297.711 7.30469C297.523 7.51302 297.37 7.7526 297.25 8.02344C297.135 8.28906 297.049 8.5651 296.992 8.85156V10.7344C297.076 11.099 297.211 11.4505 297.398 11.7891C297.591 12.1224 297.846 12.3958 298.164 12.6094C298.487 12.8229 298.885 12.9297 299.359 12.9297C299.75 12.9297 300.083 12.8516 300.359 12.6953C300.641 12.5339 300.867 12.3125 301.039 12.0312C301.216 11.75 301.346 11.4245 301.43 11.0547C301.513 10.6849 301.555 10.2891 301.555 9.86719ZM304.453 9.86719V9.6875C304.453 9.07812 304.542 8.51302 304.719 7.99219C304.896 7.46615 305.151 7.01042 305.484 6.625C305.818 6.23438 306.221 5.93229 306.695 5.71875C307.169 5.5 307.701 5.39062 308.289 5.39062C308.883 5.39062 309.417 5.5 309.891 5.71875C310.37 5.93229 310.776 6.23438 311.109 6.625C311.448 7.01042 311.706 7.46615 311.883 7.99219C312.06 8.51302 312.148 9.07812 312.148 9.6875V9.86719C312.148 10.4766 312.06 11.0417 311.883 11.5625C311.706 12.0833 311.448 12.5391 311.109 12.9297C310.776 13.3151 310.372 13.6172 309.898 13.8359C309.43 14.0495 308.898 14.1562 308.305 14.1562C307.711 14.1562 307.177 14.0495 306.703 13.8359C306.229 13.6172 305.823 13.3151 305.484 12.9297C305.151 12.5391 304.896 12.0833 304.719 11.5625C304.542 11.0417 304.453 10.4766 304.453 9.86719ZM305.898 9.6875V9.86719C305.898 10.2891 305.948 10.6875 306.047 11.0625C306.146 11.4323 306.294 11.7604 306.492 12.0469C306.695 12.3333 306.948 12.5599 307.25 12.7266C307.552 12.888 307.904 12.9688 308.305 12.9688C308.701 12.9688 309.047 12.888 309.344 12.7266C309.646 12.5599 309.896 12.3333 310.094 12.0469C310.292 11.7604 310.44 11.4323 310.539 11.0625C310.643 10.6875 310.695 10.2891 310.695 9.86719V9.6875C310.695 9.27083 310.643 8.8776 310.539 8.50781C310.44 8.13281 310.289 7.80208 310.086 7.51562C309.888 7.22396 309.638 6.99479 309.336 6.82812C309.039 6.66146 308.69 6.57812 308.289 6.57812C307.893 6.57812 307.544 6.66146 307.242 6.82812C306.945 6.99479 306.695 7.22396 306.492 7.51562C306.294 7.80208 306.146 8.13281 306.047 8.50781C305.948 8.8776 305.898 9.27083 305.898 9.6875ZM318.945 12.5547V8.20312C318.945 7.86979 318.878 7.58073 318.742 7.33594C318.612 7.08594 318.414 6.89323 318.148 6.75781C317.883 6.6224 317.555 6.55469 317.164 6.55469C316.799 6.55469 316.479 6.61719 316.203 6.74219C315.932 6.86719 315.719 7.03125 315.562 7.23438C315.411 7.4375 315.336 7.65625 315.336 7.89062H313.891C313.891 7.58854 313.969 7.28906 314.125 6.99219C314.281 6.69531 314.505 6.42708 314.797 6.1875C315.094 5.94271 315.448 5.75 315.859 5.60938C316.276 5.46354 316.74 5.39062 317.25 5.39062C317.865 5.39062 318.406 5.49479 318.875 5.70312C319.349 5.91146 319.719 6.22656 319.984 6.64844C320.255 7.0651 320.391 7.58854 320.391 8.21875V12.1562C320.391 12.4375 320.414 12.737 320.461 13.0547C320.513 13.3724 320.589 13.6458 320.688 13.875V14H319.18C319.107 13.8333 319.049 13.612 319.008 13.3359C318.966 13.0547 318.945 12.7943 318.945 12.5547ZM319.195 8.875L319.211 9.89062H317.75C317.339 9.89062 316.971 9.92448 316.648 9.99219C316.326 10.0547 316.055 10.151 315.836 10.2812C315.617 10.4115 315.451 10.5755 315.336 10.7734C315.221 10.9661 315.164 11.1927 315.164 11.4531C315.164 11.7188 315.224 11.9609 315.344 12.1797C315.464 12.3984 315.643 12.5729 315.883 12.7031C316.128 12.8281 316.427 12.8906 316.781 12.8906C317.224 12.8906 317.615 12.7969 317.953 12.6094C318.292 12.4219 318.56 12.1927 318.758 11.9219C318.961 11.651 319.07 11.388 319.086 11.1328L319.703 11.8281C319.667 12.0469 319.568 12.2891 319.406 12.5547C319.245 12.8203 319.029 13.0755 318.758 13.3203C318.492 13.5599 318.174 13.7604 317.805 13.9219C317.44 14.0781 317.029 14.1562 316.57 14.1562C315.997 14.1562 315.495 14.0443 315.062 13.8203C314.635 13.5964 314.302 13.2969 314.062 12.9219C313.828 12.5417 313.711 12.1172 313.711 11.6484C313.711 11.1953 313.799 10.7969 313.977 10.4531C314.154 10.1042 314.409 9.8151 314.742 9.58594C315.076 9.35156 315.477 9.17448 315.945 9.05469C316.414 8.9349 316.938 8.875 317.516 8.875H319.195ZM324.109 6.875V14H322.664V5.54688H324.07L324.109 6.875ZM326.75 5.5L326.742 6.84375C326.622 6.81771 326.508 6.80208 326.398 6.79688C326.294 6.78646 326.174 6.78125 326.039 6.78125C325.706 6.78125 325.411 6.83333 325.156 6.9375C324.901 7.04167 324.685 7.1875 324.508 7.375C324.331 7.5625 324.19 7.78646 324.086 8.04688C323.987 8.30208 323.922 8.58333 323.891 8.89062L323.484 9.125C323.484 8.61458 323.534 8.13542 323.633 7.6875C323.737 7.23958 323.896 6.84375 324.109 6.5C324.323 6.15104 324.594 5.88021 324.922 5.6875C325.255 5.48958 325.651 5.39062 326.109 5.39062C326.214 5.39062 326.333 5.40365 326.469 5.42969C326.604 5.45052 326.698 5.47396 326.75 5.5ZM333.258 12.3594V2H334.711V14H333.383L333.258 12.3594ZM327.57 9.86719V9.70312C327.57 9.05729 327.648 8.47135 327.805 7.94531C327.966 7.41406 328.193 6.95833 328.484 6.57812C328.781 6.19792 329.133 5.90625 329.539 5.70312C329.951 5.49479 330.409 5.39062 330.914 5.39062C331.445 5.39062 331.909 5.48438 332.305 5.67188C332.706 5.85417 333.044 6.1224 333.32 6.47656C333.602 6.82552 333.823 7.2474 333.984 7.74219C334.146 8.23698 334.258 8.79688 334.32 9.42188V10.1406C334.263 10.7604 334.151 11.3177 333.984 11.8125C333.823 12.3073 333.602 12.7292 333.32 13.0781C333.044 13.4271 332.706 13.6953 332.305 13.8828C331.904 14.0651 331.435 14.1562 330.898 14.1562C330.404 14.1562 329.951 14.0495 329.539 13.8359C329.133 13.6224 328.781 13.3229 328.484 12.9375C328.193 12.5521 327.966 12.099 327.805 11.5781C327.648 11.0521 327.57 10.4818 327.57 9.86719ZM329.023 9.70312V9.86719C329.023 10.2891 329.065 10.6849 329.148 11.0547C329.237 11.4245 329.372 11.75 329.555 12.0312C329.737 12.3125 329.969 12.5339 330.25 12.6953C330.531 12.8516 330.867 12.9297 331.258 12.9297C331.737 12.9297 332.13 12.8281 332.438 12.625C332.75 12.4219 333 12.1536 333.188 11.8203C333.375 11.487 333.521 11.125 333.625 10.7344V8.85156C333.562 8.5651 333.471 8.28906 333.352 8.02344C333.237 7.7526 333.086 7.51302 332.898 7.30469C332.716 7.09115 332.49 6.92188 332.219 6.79688C331.953 6.67188 331.638 6.60938 331.273 6.60938C330.878 6.60938 330.536 6.69271 330.25 6.85938C329.969 7.02083 329.737 7.24479 329.555 7.53125C329.372 7.8125 329.237 8.14062 329.148 8.51562C329.065 8.88542 329.023 9.28125 329.023 9.70312Z" fill="url(#paint1_linear_5208_54360)"/>
<path d="M341 8.5H581" stroke="url(#paint2_linear_5208_54360)" stroke-linecap="round"/>
<defs>
<linearGradient id="paint0_linear_5208_54360" x1="1" y1="9" x2="241" y2="9" gradientUnits="userSpaceOnUse">
<stop stop-color="#FFD700"/>
<stop offset="1" stop-color="#F0F2F5"/>
</linearGradient>
<linearGradient id="paint1_linear_5208_54360" x1="246" y1="8.5" x2="336" y2="8.5" gradientUnits="userSpaceOnUse">
<stop stop-color="#FFD700"/>
<stop offset="1" stop-color="#F0F2F5"/>
</linearGradient>
<linearGradient id="paint2_linear_5208_54360" x1="341" y1="9" x2="581" y2="9" gradientUnits="userSpaceOnUse">
<stop stop-color="#FFD700"/>
<stop offset="1" stop-color="#F0F2F5"/>
</linearGradient>
</defs>
</svg>
