<svg width="580" height="18" viewBox="0 0 580 18" fill="none" xmlns="http://www.w3.org/2000/svg">
<path d="M0 9.37012H240" stroke="url(#paint0_linear_4414_71174)" stroke-linecap="round"/>
<path d="M253.219 13.6436V14.8701H247.531V13.6436H253.219ZM247.828 3.49512V14.8701H246.32V3.49512H247.828ZM258.234 15.0264C257.646 15.0264 257.112 14.9274 256.633 14.7295C256.159 14.5264 255.75 14.2425 255.406 13.8779C255.068 13.5133 254.807 13.0811 254.625 12.5811C254.443 12.0811 254.352 11.5342 254.352 10.9404V10.6123C254.352 9.9248 254.453 9.31283 254.656 8.77637C254.859 8.2347 255.135 7.77637 255.484 7.40137C255.833 7.02637 256.229 6.74251 256.672 6.5498C257.115 6.3571 257.573 6.26074 258.047 6.26074C258.651 6.26074 259.172 6.36491 259.609 6.57324C260.052 6.78158 260.414 7.07324 260.695 7.44824C260.977 7.81803 261.185 8.25553 261.32 8.76074C261.456 9.26074 261.523 9.80762 261.523 10.4014V11.0498H255.211V9.87012H260.078V9.76074C260.057 9.38574 259.979 9.02116 259.844 8.66699C259.714 8.31283 259.505 8.02116 259.219 7.79199C258.932 7.56283 258.542 7.44824 258.047 7.44824C257.719 7.44824 257.417 7.51855 257.141 7.65918C256.865 7.7946 256.628 7.99772 256.43 8.26855C256.232 8.53939 256.078 8.87012 255.969 9.26074C255.859 9.65137 255.805 10.1019 255.805 10.6123V10.9404C255.805 11.3415 255.859 11.7191 255.969 12.0732C256.083 12.4222 256.247 12.7295 256.461 12.9951C256.68 13.2607 256.943 13.4691 257.25 13.6201C257.562 13.7712 257.917 13.8467 258.312 13.8467C258.823 13.8467 259.255 13.7425 259.609 13.5342C259.964 13.3258 260.273 13.0472 260.539 12.6982L261.414 13.3936C261.232 13.6696 261 13.9326 260.719 14.1826C260.438 14.4326 260.091 14.6357 259.68 14.792C259.273 14.9482 258.792 15.0264 258.234 15.0264ZM268.195 13.4248V9.07324C268.195 8.73991 268.128 8.45085 267.992 8.20605C267.862 7.95605 267.664 7.76335 267.398 7.62793C267.133 7.49251 266.805 7.4248 266.414 7.4248C266.049 7.4248 265.729 7.4873 265.453 7.6123C265.182 7.7373 264.969 7.90137 264.812 8.10449C264.661 8.30762 264.586 8.52637 264.586 8.76074H263.141C263.141 8.45866 263.219 8.15918 263.375 7.8623C263.531 7.56543 263.755 7.2972 264.047 7.05762C264.344 6.81283 264.698 6.62012 265.109 6.47949C265.526 6.33366 265.99 6.26074 266.5 6.26074C267.115 6.26074 267.656 6.36491 268.125 6.57324C268.599 6.78158 268.969 7.09668 269.234 7.51855C269.505 7.93522 269.641 8.45866 269.641 9.08887V13.0264C269.641 13.3076 269.664 13.6071 269.711 13.9248C269.763 14.2425 269.839 14.516 269.938 14.7451V14.8701H268.43C268.357 14.7035 268.299 14.4821 268.258 14.2061C268.216 13.9248 268.195 13.6644 268.195 13.4248ZM268.445 9.74512L268.461 10.7607H267C266.589 10.7607 266.221 10.7946 265.898 10.8623C265.576 10.9248 265.305 11.0212 265.086 11.1514C264.867 11.2816 264.701 11.4456 264.586 11.6436C264.471 11.8363 264.414 12.0628 264.414 12.3232C264.414 12.5889 264.474 12.8311 264.594 13.0498C264.714 13.2686 264.893 13.443 265.133 13.5732C265.378 13.6982 265.677 13.7607 266.031 13.7607C266.474 13.7607 266.865 13.667 267.203 13.4795C267.542 13.292 267.81 13.0628 268.008 12.792C268.211 12.5212 268.32 12.2581 268.336 12.0029L268.953 12.6982C268.917 12.917 268.818 13.1592 268.656 13.4248C268.495 13.6904 268.279 13.9456 268.008 14.1904C267.742 14.43 267.424 14.6305 267.055 14.792C266.69 14.9482 266.279 15.0264 265.82 15.0264C265.247 15.0264 264.745 14.9144 264.312 14.6904C263.885 14.4665 263.552 14.167 263.312 13.792C263.078 13.4118 262.961 12.9873 262.961 12.5186C262.961 12.0654 263.049 11.667 263.227 11.3232C263.404 10.9743 263.659 10.6852 263.992 10.4561C264.326 10.2217 264.727 10.0446 265.195 9.9248C265.664 9.80501 266.188 9.74512 266.766 9.74512H268.445ZM277.242 13.2295V2.87012H278.695V14.8701H277.367L277.242 13.2295ZM271.555 10.7373V10.5732C271.555 9.92741 271.633 9.34147 271.789 8.81543C271.951 8.28418 272.177 7.82845 272.469 7.44824C272.766 7.06803 273.117 6.77637 273.523 6.57324C273.935 6.36491 274.393 6.26074 274.898 6.26074C275.43 6.26074 275.893 6.35449 276.289 6.54199C276.69 6.72428 277.029 6.99251 277.305 7.34668C277.586 7.69564 277.807 8.11751 277.969 8.6123C278.13 9.1071 278.242 9.66699 278.305 10.292V11.0107C278.247 11.6305 278.135 12.1878 277.969 12.6826C277.807 13.1774 277.586 13.5993 277.305 13.9482C277.029 14.2972 276.69 14.5654 276.289 14.7529C275.888 14.9352 275.419 15.0264 274.883 15.0264C274.388 15.0264 273.935 14.9196 273.523 14.7061C273.117 14.4925 272.766 14.193 272.469 13.8076C272.177 13.4222 271.951 12.9691 271.789 12.4482C271.633 11.9222 271.555 11.3519 271.555 10.7373ZM273.008 10.5732V10.7373C273.008 11.1592 273.049 11.555 273.133 11.9248C273.221 12.2946 273.357 12.6201 273.539 12.9014C273.721 13.1826 273.953 13.404 274.234 13.5654C274.516 13.7217 274.852 13.7998 275.242 13.7998C275.721 13.7998 276.115 13.6982 276.422 13.4951C276.734 13.292 276.984 13.0238 277.172 12.6904C277.359 12.3571 277.505 11.9951 277.609 11.6045V9.72168C277.547 9.43522 277.456 9.15918 277.336 8.89355C277.221 8.62272 277.07 8.38314 276.883 8.1748C276.701 7.96126 276.474 7.79199 276.203 7.66699C275.938 7.54199 275.622 7.47949 275.258 7.47949C274.862 7.47949 274.521 7.56283 274.234 7.72949C273.953 7.89095 273.721 8.11491 273.539 8.40137C273.357 8.68262 273.221 9.01074 273.133 9.38574C273.049 9.75553 273.008 10.1514 273.008 10.5732ZM284.453 15.0264C283.865 15.0264 283.331 14.9274 282.852 14.7295C282.378 14.5264 281.969 14.2425 281.625 13.8779C281.286 13.5133 281.026 13.0811 280.844 12.5811C280.661 12.0811 280.57 11.5342 280.57 10.9404V10.6123C280.57 9.9248 280.672 9.31283 280.875 8.77637C281.078 8.2347 281.354 7.77637 281.703 7.40137C282.052 7.02637 282.448 6.74251 282.891 6.5498C283.333 6.3571 283.792 6.26074 284.266 6.26074C284.87 6.26074 285.391 6.36491 285.828 6.57324C286.271 6.78158 286.633 7.07324 286.914 7.44824C287.195 7.81803 287.404 8.25553 287.539 8.76074C287.674 9.26074 287.742 9.80762 287.742 10.4014V11.0498H281.43V9.87012H286.297V9.76074C286.276 9.38574 286.198 9.02116 286.062 8.66699C285.932 8.31283 285.724 8.02116 285.438 7.79199C285.151 7.56283 284.76 7.44824 284.266 7.44824C283.938 7.44824 283.635 7.51855 283.359 7.65918C283.083 7.7946 282.846 7.99772 282.648 8.26855C282.451 8.53939 282.297 8.87012 282.188 9.26074C282.078 9.65137 282.023 10.1019 282.023 10.6123V10.9404C282.023 11.3415 282.078 11.7191 282.188 12.0732C282.302 12.4222 282.466 12.7295 282.68 12.9951C282.898 13.2607 283.161 13.4691 283.469 13.6201C283.781 13.7712 284.135 13.8467 284.531 13.8467C285.042 13.8467 285.474 13.7425 285.828 13.5342C286.182 13.3258 286.492 13.0472 286.758 12.6982L287.633 13.3936C287.451 13.6696 287.219 13.9326 286.938 14.1826C286.656 14.4326 286.31 14.6357 285.898 14.792C285.492 14.9482 285.01 15.0264 284.453 15.0264ZM290.875 7.74512V14.8701H289.43V6.41699H290.836L290.875 7.74512ZM293.516 6.37012L293.508 7.71387C293.388 7.68783 293.273 7.6722 293.164 7.66699C293.06 7.65658 292.94 7.65137 292.805 7.65137C292.471 7.65137 292.177 7.70345 291.922 7.80762C291.667 7.91178 291.451 8.05762 291.273 8.24512C291.096 8.43262 290.956 8.65658 290.852 8.91699C290.753 9.1722 290.688 9.45345 290.656 9.76074L290.25 9.99512C290.25 9.4847 290.299 9.00553 290.398 8.55762C290.503 8.1097 290.661 7.71387 290.875 7.37012C291.089 7.02116 291.359 6.75033 291.688 6.55762C292.021 6.3597 292.417 6.26074 292.875 6.26074C292.979 6.26074 293.099 6.27376 293.234 6.2998C293.37 6.32064 293.464 6.34408 293.516 6.37012ZM294.844 2.87012H296.297V13.2295L296.172 14.8701H294.844V2.87012ZM302.008 10.5732V10.7373C302.008 11.3519 301.935 11.9222 301.789 12.4482C301.643 12.9691 301.43 13.4222 301.148 13.8076C300.867 14.193 300.523 14.4925 300.117 14.7061C299.711 14.9196 299.245 15.0264 298.719 15.0264C298.182 15.0264 297.711 14.9352 297.305 14.7529C296.904 14.5654 296.565 14.2972 296.289 13.9482C296.013 13.5993 295.792 13.1774 295.625 12.6826C295.464 12.1878 295.352 11.6305 295.289 11.0107V10.292C295.352 9.66699 295.464 9.1071 295.625 8.6123C295.792 8.11751 296.013 7.69564 296.289 7.34668C296.565 6.99251 296.904 6.72428 297.305 6.54199C297.706 6.35449 298.172 6.26074 298.703 6.26074C299.234 6.26074 299.706 6.36491 300.117 6.57324C300.529 6.77637 300.872 7.06803 301.148 7.44824C301.43 7.82845 301.643 8.28418 301.789 8.81543C301.935 9.34147 302.008 9.92741 302.008 10.5732ZM300.555 10.7373V10.5732C300.555 10.1514 300.516 9.75553 300.438 9.38574C300.359 9.01074 300.234 8.68262 300.062 8.40137C299.891 8.11491 299.664 7.89095 299.383 7.72949C299.102 7.56283 298.755 7.47949 298.344 7.47949C297.979 7.47949 297.661 7.54199 297.391 7.66699C297.125 7.79199 296.898 7.96126 296.711 8.1748C296.523 8.38314 296.37 8.62272 296.25 8.89355C296.135 9.15918 296.049 9.43522 295.992 9.72168V11.6045C296.076 11.9691 296.211 12.3206 296.398 12.6592C296.591 12.9925 296.846 13.266 297.164 13.4795C297.487 13.693 297.885 13.7998 298.359 13.7998C298.75 13.7998 299.083 13.7217 299.359 13.5654C299.641 13.404 299.867 13.1826 300.039 12.9014C300.216 12.6201 300.346 12.2946 300.43 11.9248C300.513 11.555 300.555 11.1592 300.555 10.7373ZM303.453 10.7373V10.5576C303.453 9.94824 303.542 9.38314 303.719 8.8623C303.896 8.33626 304.151 7.88053 304.484 7.49512C304.818 7.10449 305.221 6.80241 305.695 6.58887C306.169 6.37012 306.701 6.26074 307.289 6.26074C307.883 6.26074 308.417 6.37012 308.891 6.58887C309.37 6.80241 309.776 7.10449 310.109 7.49512C310.448 7.88053 310.706 8.33626 310.883 8.8623C311.06 9.38314 311.148 9.94824 311.148 10.5576V10.7373C311.148 11.3467 311.06 11.9118 310.883 12.4326C310.706 12.9535 310.448 13.4092 310.109 13.7998C309.776 14.1852 309.372 14.4873 308.898 14.7061C308.43 14.9196 307.898 15.0264 307.305 15.0264C306.711 15.0264 306.177 14.9196 305.703 14.7061C305.229 14.4873 304.823 14.1852 304.484 13.7998C304.151 13.4092 303.896 12.9535 303.719 12.4326C303.542 11.9118 303.453 11.3467 303.453 10.7373ZM304.898 10.5576V10.7373C304.898 11.1592 304.948 11.5576 305.047 11.9326C305.146 12.3024 305.294 12.6305 305.492 12.917C305.695 13.2035 305.948 13.43 306.25 13.5967C306.552 13.7581 306.904 13.8389 307.305 13.8389C307.701 13.8389 308.047 13.7581 308.344 13.5967C308.646 13.43 308.896 13.2035 309.094 12.917C309.292 12.6305 309.44 12.3024 309.539 11.9326C309.643 11.5576 309.695 11.1592 309.695 10.7373V10.5576C309.695 10.141 309.643 9.74772 309.539 9.37793C309.44 9.00293 309.289 8.6722 309.086 8.38574C308.888 8.09408 308.638 7.86491 308.336 7.69824C308.039 7.53158 307.69 7.44824 307.289 7.44824C306.893 7.44824 306.544 7.53158 306.242 7.69824C305.945 7.86491 305.695 8.09408 305.492 8.38574C305.294 8.6722 305.146 9.00293 305.047 9.37793C304.948 9.74772 304.898 10.141 304.898 10.5576ZM317.945 13.4248V9.07324C317.945 8.73991 317.878 8.45085 317.742 8.20605C317.612 7.95605 317.414 7.76335 317.148 7.62793C316.883 7.49251 316.555 7.4248 316.164 7.4248C315.799 7.4248 315.479 7.4873 315.203 7.6123C314.932 7.7373 314.719 7.90137 314.562 8.10449C314.411 8.30762 314.336 8.52637 314.336 8.76074H312.891C312.891 8.45866 312.969 8.15918 313.125 7.8623C313.281 7.56543 313.505 7.2972 313.797 7.05762C314.094 6.81283 314.448 6.62012 314.859 6.47949C315.276 6.33366 315.74 6.26074 316.25 6.26074C316.865 6.26074 317.406 6.36491 317.875 6.57324C318.349 6.78158 318.719 7.09668 318.984 7.51855C319.255 7.93522 319.391 8.45866 319.391 9.08887V13.0264C319.391 13.3076 319.414 13.6071 319.461 13.9248C319.513 14.2425 319.589 14.516 319.688 14.7451V14.8701H318.18C318.107 14.7035 318.049 14.4821 318.008 14.2061C317.966 13.9248 317.945 13.6644 317.945 13.4248ZM318.195 9.74512L318.211 10.7607H316.75C316.339 10.7607 315.971 10.7946 315.648 10.8623C315.326 10.9248 315.055 11.0212 314.836 11.1514C314.617 11.2816 314.451 11.4456 314.336 11.6436C314.221 11.8363 314.164 12.0628 314.164 12.3232C314.164 12.5889 314.224 12.8311 314.344 13.0498C314.464 13.2686 314.643 13.443 314.883 13.5732C315.128 13.6982 315.427 13.7607 315.781 13.7607C316.224 13.7607 316.615 13.667 316.953 13.4795C317.292 13.292 317.56 13.0628 317.758 12.792C317.961 12.5212 318.07 12.2581 318.086 12.0029L318.703 12.6982C318.667 12.917 318.568 13.1592 318.406 13.4248C318.245 13.6904 318.029 13.9456 317.758 14.1904C317.492 14.43 317.174 14.6305 316.805 14.792C316.44 14.9482 316.029 15.0264 315.57 15.0264C314.997 15.0264 314.495 14.9144 314.062 14.6904C313.635 14.4665 313.302 14.167 313.062 13.792C312.828 13.4118 312.711 12.9873 312.711 12.5186C312.711 12.0654 312.799 11.667 312.977 11.3232C313.154 10.9743 313.409 10.6852 313.742 10.4561C314.076 10.2217 314.477 10.0446 314.945 9.9248C315.414 9.80501 315.938 9.74512 316.516 9.74512H318.195ZM323.109 7.74512V14.8701H321.664V6.41699H323.07L323.109 7.74512ZM325.75 6.37012L325.742 7.71387C325.622 7.68783 325.508 7.6722 325.398 7.66699C325.294 7.65658 325.174 7.65137 325.039 7.65137C324.706 7.65137 324.411 7.70345 324.156 7.80762C323.901 7.91178 323.685 8.05762 323.508 8.24512C323.331 8.43262 323.19 8.65658 323.086 8.91699C322.987 9.1722 322.922 9.45345 322.891 9.76074L322.484 9.99512C322.484 9.4847 322.534 9.00553 322.633 8.55762C322.737 8.1097 322.896 7.71387 323.109 7.37012C323.323 7.02116 323.594 6.75033 323.922 6.55762C324.255 6.3597 324.651 6.26074 325.109 6.26074C325.214 6.26074 325.333 6.27376 325.469 6.2998C325.604 6.32064 325.698 6.34408 325.75 6.37012ZM332.258 13.2295V2.87012H333.711V14.8701H332.383L332.258 13.2295ZM326.57 10.7373V10.5732C326.57 9.92741 326.648 9.34147 326.805 8.81543C326.966 8.28418 327.193 7.82845 327.484 7.44824C327.781 7.06803 328.133 6.77637 328.539 6.57324C328.951 6.36491 329.409 6.26074 329.914 6.26074C330.445 6.26074 330.909 6.35449 331.305 6.54199C331.706 6.72428 332.044 6.99251 332.32 7.34668C332.602 7.69564 332.823 8.11751 332.984 8.6123C333.146 9.1071 333.258 9.66699 333.32 10.292V11.0107C333.263 11.6305 333.151 12.1878 332.984 12.6826C332.823 13.1774 332.602 13.5993 332.32 13.9482C332.044 14.2972 331.706 14.5654 331.305 14.7529C330.904 14.9352 330.435 15.0264 329.898 15.0264C329.404 15.0264 328.951 14.9196 328.539 14.7061C328.133 14.4925 327.781 14.193 327.484 13.8076C327.193 13.4222 326.966 12.9691 326.805 12.4482C326.648 11.9222 326.57 11.3519 326.57 10.7373ZM328.023 10.5732V10.7373C328.023 11.1592 328.065 11.555 328.148 11.9248C328.237 12.2946 328.372 12.6201 328.555 12.9014C328.737 13.1826 328.969 13.404 329.25 13.5654C329.531 13.7217 329.867 13.7998 330.258 13.7998C330.737 13.7998 331.13 13.6982 331.438 13.4951C331.75 13.292 332 13.0238 332.188 12.6904C332.375 12.3571 332.521 11.9951 332.625 11.6045V9.72168C332.562 9.43522 332.471 9.15918 332.352 8.89355C332.237 8.62272 332.086 8.38314 331.898 8.1748C331.716 7.96126 331.49 7.79199 331.219 7.66699C330.953 7.54199 330.638 7.47949 330.273 7.47949C329.878 7.47949 329.536 7.56283 329.25 7.72949C328.969 7.89095 328.737 8.11491 328.555 8.40137C328.372 8.68262 328.237 9.01074 328.148 9.38574C328.065 9.75553 328.023 10.1514 328.023 10.5732Z" fill="#8B7500"/>
<path d="M340 9.37012H580" stroke="url(#paint1_linear_4414_71174)" stroke-linecap="round"/>
<defs>
<linearGradient id="paint0_linear_4414_71174" x1="0" y1="9.87012" x2="240" y2="9.87012" gradientUnits="userSpaceOnUse">
<stop stop-color="#FFD700"/>
<stop offset="1" stop-color="#F0F2F5"/>
</linearGradient>
<linearGradient id="paint1_linear_4414_71174" x1="340" y1="9.87012" x2="580" y2="9.87012" gradientUnits="userSpaceOnUse">
<stop stop-color="#FFD700"/>
<stop offset="1" stop-color="#F0F2F5"/>
</linearGradient>
</defs>
</svg>
