<svg width="1024" height="1024" viewBox="0 0 1024 1024" fill="none" xmlns="http://www.w3.org/2000/svg">
<rect width="1024" height="1024" rx="512" fill="url(#paint0_linear_2900_44697)"/>
<g filter="url(#filter0_di_2900_44697)">
<path d="M451.931 156.546C493.62 133.499 544.438 134.444 585.241 159.025L789.797 282.252C830.601 306.832 855.191 351.314 854.306 398.941L849.866 637.706C848.981 685.333 822.753 728.87 781.064 751.917L572.068 867.454C530.379 890.501 479.562 889.556 438.758 864.975L234.202 741.748C193.398 717.168 168.808 672.686 169.693 625.059L174.133 386.294C175.019 338.667 201.246 295.13 242.935 272.083L451.931 156.546Z" fill="url(#paint1_radial_2900_44697)" fill-opacity="0.2"/>
<path d="M451.931 156.546C493.62 133.499 544.438 134.444 585.241 159.025L789.797 282.252C830.601 306.832 855.191 351.314 854.306 398.941L849.866 637.706C848.981 685.333 822.753 728.87 781.064 751.917L572.068 867.454C530.379 890.501 479.562 889.556 438.758 864.975L234.202 741.748C193.398 717.168 168.808 672.686 169.693 625.059L174.133 386.294C175.019 338.667 201.246 295.13 242.935 272.083L451.931 156.546Z" fill="url(#paint2_linear_2900_44697)"/>
<path d="M462.116 174.971C497.223 155.563 540.017 156.359 574.378 177.058L778.934 300.285C813.295 320.985 834.003 358.443 833.257 398.55L828.817 637.315C828.071 677.422 805.985 714.084 770.879 733.492L561.883 849.029C526.776 868.437 483.982 867.641 449.621 846.942L245.065 723.715C210.704 703.016 189.996 665.557 190.742 625.45L195.182 386.685C195.928 346.578 218.014 309.916 253.12 290.508L462.116 174.971Z" stroke="url(#paint3_linear_2900_44697)" stroke-width="42.1053"/>
</g>
<g filter="url(#filter1_d_2900_44697)">
<rect x="359.232" y="469.858" width="69.1493" height="190.161" rx="5.67377" fill="#66FF66"/>
<path d="M388.034 423.668C388.034 420.535 390.574 417.995 393.708 417.995H393.885C397.019 417.995 399.559 420.535 399.559 423.668V469.856H388.034V423.668Z" fill="#66FF66"/>
<path d="M388.033 660.013H399.558V706.201C399.558 709.335 397.018 711.875 393.884 711.875H393.707C390.573 711.875 388.033 709.335 388.033 706.201V660.013Z" fill="#66FF66"/>
</g>
<g filter="url(#filter2_d_2900_44697)">
<rect x="473.775" y="420.568" width="69.1493" height="190.161" rx="5.67377" fill="#00FF00"/>
<path d="M502.577 374.377C502.577 371.243 505.117 368.703 508.251 368.703H508.428C511.562 368.703 514.102 371.243 514.102 374.377V420.565H502.577V374.377Z" fill="#00FF00"/>
<path d="M502.589 610.729H514.114V656.918C514.114 660.051 511.574 662.591 508.44 662.591H508.263C505.129 662.591 502.589 660.051 502.589 656.918V610.729Z" fill="#00FF00"/>
</g>
<g filter="url(#filter3_d_2900_44697)">
<rect x="588.313" y="368.11" width="69.1493" height="190.161" rx="5.67377" fill="#00CC00"/>
<path d="M617.117 321.921C617.117 318.787 619.657 316.247 622.791 316.247H622.968C626.102 316.247 628.642 318.787 628.642 321.921V368.109H617.117V321.921Z" fill="#00CC00"/>
<path d="M617.117 558.267H628.642V604.455C628.642 607.588 626.102 610.128 622.968 610.128H622.791C619.657 610.128 617.117 607.588 617.117 604.455V558.267Z" fill="#00CC00"/>
</g>
<defs>
<filter id="filter0_di_2900_44697" x="135.627" y="105.859" width="752.744" height="812.281" filterUnits="userSpaceOnUse" color-interpolation-filters="sRGB">
<feFlood flood-opacity="0" result="BackgroundImageFix"/>
<feColorMatrix in="SourceAlpha" type="matrix" values="0 0 0 0 0 0 0 0 0 0 0 0 0 0 0 0 0 0 127 0" result="hardAlpha"/>
<feOffset/>
<feGaussianBlur stdDeviation="17.0213"/>
<feComposite in2="hardAlpha" operator="out"/>
<feColorMatrix type="matrix" values="0 0 0 0 0.0941176 0 0 0 0 1 0 0 0 0 1 0 0 0 1 0"/>
<feBlend mode="normal" in2="BackgroundImageFix" result="effect1_dropShadow_2900_44697"/>
<feBlend mode="normal" in="SourceGraphic" in2="effect1_dropShadow_2900_44697" result="shape"/>
<feColorMatrix in="SourceAlpha" type="matrix" values="0 0 0 0 0 0 0 0 0 0 0 0 0 0 0 0 0 0 127 0" result="hardAlpha"/>
<feOffset/>
<feGaussianBlur stdDeviation="93.3333"/>
<feComposite in2="hardAlpha" operator="arithmetic" k2="-1" k3="1"/>
<feColorMatrix type="matrix" values="0 0 0 0 0.101306 0 0 0 0 0 0 0 0 0 0.723611 0 0 0 1 0"/>
<feBlend mode="normal" in2="shape" result="effect2_innerShadow_2900_44697"/>
</filter>
<filter id="filter1_d_2900_44697" x="329.232" y="387.995" width="129.149" height="353.88" filterUnits="userSpaceOnUse" color-interpolation-filters="sRGB">
<feFlood flood-opacity="0" result="BackgroundImageFix"/>
<feColorMatrix in="SourceAlpha" type="matrix" values="0 0 0 0 0 0 0 0 0 0 0 0 0 0 0 0 0 0 127 0" result="hardAlpha"/>
<feOffset/>
<feGaussianBlur stdDeviation="15"/>
<feComposite in2="hardAlpha" operator="out"/>
<feColorMatrix type="matrix" values="0 0 0 0 0.4 0 0 0 0 1 0 0 0 0 0.4 0 0 0 0.6 0"/>
<feBlend mode="normal" in2="BackgroundImageFix" result="effect1_dropShadow_2900_44697"/>
<feBlend mode="normal" in="SourceGraphic" in2="effect1_dropShadow_2900_44697" result="shape"/>
</filter>
<filter id="filter2_d_2900_44697" x="443.775" y="338.703" width="129.149" height="353.889" filterUnits="userSpaceOnUse" color-interpolation-filters="sRGB">
<feFlood flood-opacity="0" result="BackgroundImageFix"/>
<feColorMatrix in="SourceAlpha" type="matrix" values="0 0 0 0 0 0 0 0 0 0 0 0 0 0 0 0 0 0 127 0" result="hardAlpha"/>
<feOffset/>
<feGaussianBlur stdDeviation="15"/>
<feComposite in2="hardAlpha" operator="out"/>
<feColorMatrix type="matrix" values="0 0 0 0 0 0 0 0 0 1 0 0 0 0 0 0 0 0 0.7 0"/>
<feBlend mode="normal" in2="BackgroundImageFix" result="effect1_dropShadow_2900_44697"/>
<feBlend mode="normal" in="SourceGraphic" in2="effect1_dropShadow_2900_44697" result="shape"/>
</filter>
<filter id="filter3_d_2900_44697" x="558.313" y="286.247" width="129.149" height="353.881" filterUnits="userSpaceOnUse" color-interpolation-filters="sRGB">
<feFlood flood-opacity="0" result="BackgroundImageFix"/>
<feColorMatrix in="SourceAlpha" type="matrix" values="0 0 0 0 0 0 0 0 0 0 0 0 0 0 0 0 0 0 127 0" result="hardAlpha"/>
<feOffset/>
<feGaussianBlur stdDeviation="15"/>
<feComposite in2="hardAlpha" operator="out"/>
<feColorMatrix type="matrix" values="0 0 0 0 0.0941176 0 0 0 0 1 0 0 0 0 1 0 0 0 0.8 0"/>
<feBlend mode="normal" in2="BackgroundImageFix" result="effect1_dropShadow_2900_44697"/>
<feBlend mode="normal" in="SourceGraphic" in2="effect1_dropShadow_2900_44697" result="shape"/>
</filter>
<linearGradient id="paint0_linear_2900_44697" x1="512" y1="0" x2="512" y2="1024" gradientUnits="userSpaceOnUse">
<stop stop-color="#008B8B"/>
<stop offset="1" stop-color="#0000CD"/>
</linearGradient>
<radialGradient id="paint1_radial_2900_44697" cx="0" cy="0" r="1" gradientUnits="userSpaceOnUse" gradientTransform="translate(512.001 132) rotate(90.5415) scale(772.733)">
<stop offset="0.311305" stop-color="#9F8FEF"/>
<stop offset="1" stop-color="#9F8FEF" stop-opacity="0"/>
</radialGradient>
<linearGradient id="paint2_linear_2900_44697" x1="519.302" y1="119.302" x2="504.698" y2="904.698" gradientUnits="userSpaceOnUse">
<stop stop-color="#0F1021"/>
<stop offset="1" stop-color="#2A2B2A"/>
</linearGradient>
<linearGradient id="paint3_linear_2900_44697" x1="512.001" y1="72" x2="512.001" y2="975.333" gradientUnits="userSpaceOnUse">
<stop stop-color="#18FFFF"/>
<stop offset="1" stop-color="#8A2BE2"/>
</linearGradient>
</defs>
</svg>
