<svg width="20" height="20" viewBox="0 0 20 20" fill="none" xmlns="http://www.w3.org/2000/svg">
<path d="M5.85194 0.0752535C5.66834 0.192441 5.59022 0.333066 5.47303 0.770566C5.2035 1.75885 4.82459 2.48932 4.17225 3.26666C3.36756 4.22369 2.266 4.90728 0.961311 5.25494C0.547249 5.36822 0.375374 5.47369 0.273811 5.68853C0.176155 5.88385 0.176155 6.02838 0.269905 6.23541C0.363655 6.43853 0.508186 6.55182 0.777717 6.62603C1.7074 6.87994 2.44569 7.20807 3.05115 7.64166C4.28162 8.52057 5.14881 9.84088 5.54725 11.4346C5.65662 11.8682 6.12537 12.0792 6.50037 11.8643C6.72303 11.7393 6.78553 11.6299 6.91444 11.1417C7.19178 10.1065 7.68787 9.20807 8.39881 8.46588C9.30116 7.51666 10.1644 7.02057 11.6176 6.62213C12.1254 6.4815 12.3324 5.9815 12.0433 5.59478C11.9027 5.40728 11.8129 5.36041 11.3441 5.23541C9.0785 4.62603 7.391 2.86432 6.84022 0.528378C6.75819 0.184628 6.51991 -0.00287151 6.16444 0.00494099C6.03944 0.00494099 5.91444 0.0322847 5.85194 0.0752535Z" fill="url(#paint0_linear_5047_56094)"/>
<path d="M15.2935 6.46094C15.1255 6.53516 14.9732 6.73047 14.9224 6.92578C14.5357 8.45703 13.4849 9.55078 12.0278 9.94141C11.6411 10.043 11.5005 10.1406 11.3872 10.3711C11.313 10.5352 11.313 10.6992 11.3911 10.8945C11.4771 11.1133 11.6411 11.2227 12.0591 11.3398C12.7974 11.5508 13.3169 11.8594 13.8482 12.3984C14.3716 12.9258 14.6607 13.4258 14.8638 14.168C15.0083 14.6719 15.1919 14.8555 15.5669 14.8555C15.9107 14.8555 16.1294 14.6562 16.231 14.2617C16.5903 12.8398 17.6411 11.75 19.0435 11.3477C19.4653 11.2266 19.6255 11.125 19.7271 10.9141C19.8286 10.7109 19.8247 10.5625 19.7192 10.3516C19.5982 10.1211 19.4888 10.0508 19.0786 9.9375C17.731 9.5625 16.7036 8.5625 16.3091 7.24609C16.1646 6.75391 16.1177 6.66406 15.9575 6.53906C15.7896 6.41016 15.481 6.375 15.2935 6.46094Z" fill="url(#paint1_linear_5047_56094)"/>
<path d="M7.34442 13.25C7.15301 13.3828 7.0788 13.5 6.98895 13.8281C6.7077 14.8281 5.92255 15.6133 4.90302 15.8984C4.4577 16.0234 4.25848 16.2305 4.25848 16.5703C4.25848 16.9531 4.43427 17.1289 4.99286 17.3047C5.97723 17.6172 6.65692 18.293 6.9577 19.2695C7.12958 19.8242 7.30926 20 7.69208 20C8.04364 20 8.23895 19.8164 8.36786 19.3633C8.66864 18.3047 9.40301 17.5742 10.4811 17.2695C10.903 17.1484 11.0983 16.9414 11.1022 16.6016C11.1022 16.2227 10.9382 16.0586 10.3561 15.8594C9.8288 15.6797 9.56317 15.5273 9.2077 15.1953C8.77801 14.793 8.54755 14.4102 8.36395 13.7852C8.23114 13.3438 8.03192 13.1641 7.66473 13.1641C7.53192 13.1641 7.43426 13.1914 7.34442 13.25Z" fill="url(#paint2_linear_5047_56094)"/>
<defs>
<linearGradient id="paint0_linear_5047_56094" x1="0.540822" y1="5.8313" x2="12.175" y2="5.8313" gradientUnits="userSpaceOnUse">
<stop stop-color="#2286DE"/>
<stop offset="1" stop-color="#3AAF75"/>
</linearGradient>
<linearGradient id="paint1_linear_5047_56094" x1="11.573" y1="10.5317" x2="19.8009" y2="10.5317" gradientUnits="userSpaceOnUse">
<stop stop-color="#2286DE"/>
<stop offset="1" stop-color="#3AAF75"/>
</linearGradient>
<linearGradient id="paint2_linear_5047_56094" x1="4.45322" y1="16.4987" x2="11.1022" y2="16.4987" gradientUnits="userSpaceOnUse">
<stop stop-color="#2286DE"/>
<stop offset="1" stop-color="#3AAF75"/>
</linearGradient>
</defs>
</svg>
