<svg width="20" height="21" viewBox="0 0 20 21" fill="none" xmlns="http://www.w3.org/2000/svg">
<g clip-path="url(#clip0_5177_54414)">
<path d="M5.85206 0.575253C5.66846 0.692441 5.59034 0.833066 5.47315 1.27057C5.20362 2.25885 4.82471 2.98932 4.17237 3.76666C3.36768 4.72369 2.26612 5.40728 0.961433 5.75494C0.547371 5.86822 0.375496 5.97369 0.273933 6.18853C0.176277 6.38385 0.176277 6.52838 0.270027 6.73541C0.363777 6.93853 0.508308 7.05182 0.777839 7.12603C1.70753 7.37994 2.44581 7.70807 3.05128 8.14166C4.28175 9.02057 5.14893 10.3409 5.54737 11.9346C5.65675 12.3682 6.1255 12.5792 6.5005 12.3643C6.72315 12.2393 6.78565 12.1299 6.91456 11.6417C7.1919 10.6065 7.688 9.70807 8.39893 8.96588C9.30128 8.01666 10.1646 7.52057 11.6177 7.12213C12.1255 6.9815 12.3325 6.4815 12.0435 6.09478C11.9028 5.90728 11.813 5.86041 11.3442 5.73541C9.07862 5.12603 7.39112 3.36432 6.84034 1.02838C6.75831 0.684628 6.52003 0.497128 6.16456 0.504941C6.03956 0.504941 5.91456 0.532285 5.85206 0.575253Z" fill="#D1D1D1"/>
<path d="M15.2935 6.96094C15.1255 7.03516 14.9732 7.23047 14.9224 7.42578C14.5357 8.95703 13.4849 10.0508 12.0278 10.4414C11.6411 10.543 11.5005 10.6406 11.3872 10.8711C11.313 11.0352 11.313 11.1992 11.3911 11.3945C11.4771 11.6133 11.6411 11.7227 12.0591 11.8398C12.7974 12.0508 13.3169 12.3594 13.8482 12.8984C14.3716 13.4258 14.6607 13.9258 14.8638 14.668C15.0083 15.1719 15.1919 15.3555 15.5669 15.3555C15.9107 15.3555 16.1294 15.1562 16.231 14.7617C16.5903 13.3398 17.6411 12.25 19.0435 11.8477C19.4653 11.7266 19.6255 11.625 19.7271 11.4141C19.8286 11.2109 19.8247 11.0625 19.7192 10.8516C19.5982 10.6211 19.4888 10.5508 19.0786 10.4375C17.731 10.0625 16.7036 9.0625 16.3091 7.74609C16.1646 7.25391 16.1177 7.16406 15.9575 7.03906C15.7896 6.91016 15.481 6.875 15.2935 6.96094Z" fill="#D1D1D1"/>
<path d="M7.34473 13.75C7.15332 13.8828 7.0791 14 6.98926 14.3281C6.70801 15.3281 5.92285 16.1133 4.90332 16.3984C4.45801 16.5234 4.25879 16.7305 4.25879 17.0703C4.25879 17.4531 4.43457 17.6289 4.99316 17.8047C5.97754 18.1172 6.65723 18.793 6.95801 19.7695C7.12988 20.3242 7.30957 20.5 7.69238 20.5C8.04395 20.5 8.23926 20.3164 8.36816 19.8633C8.66894 18.8047 9.40332 18.0742 10.4814 17.7695C10.9033 17.6484 11.0986 17.4414 11.1025 17.1016C11.1025 16.7227 10.9385 16.5586 10.3564 16.3594C9.8291 16.1797 9.56348 16.0273 9.20801 15.6953C8.77832 15.293 8.54785 14.9102 8.36426 14.2852C8.23145 13.8438 8.03223 13.6641 7.66504 13.6641C7.53223 13.6641 7.43457 13.6914 7.34473 13.75Z" fill="#D1D1D1"/>
</g>
<defs>
<clipPath id="clip0_5177_54414">
<rect width="20" height="20" fill="white" transform="translate(0 0.5)"/>
</clipPath>
</defs>
</svg>
