<svg width="3028" height="840" viewBox="0 0 3028 840" fill="none" xmlns="http://www.w3.org/2000/svg">
<g opacity="0.5">
<line opacity="0.03" x1="315.229" y1="685.992" x2="315.229" y2="833" stroke="url(#paint0_linear_4171_49924)" stroke-width="2.16188"/>
<line opacity="0.03" x1="362.79" y1="746.523" x2="362.79" y2="832.999" stroke="url(#paint1_linear_4171_49924)" stroke-width="2.16188"/>
<line opacity="0.03" x1="410.35" y1="753.012" x2="410.35" y2="833.001" stroke="url(#paint2_linear_4171_49924)" stroke-width="2.16188"/>
<line opacity="0.03" x1="457.913" y1="623.299" x2="457.913" y2="833.001" stroke="url(#paint3_linear_4171_49924)" stroke-width="2.16188"/>
<line opacity="0.03" x1="505.474" y1="469.801" x2="505.474" y2="832.997" stroke="url(#paint4_linear_4171_49924)" stroke-width="2.16188"/>
<line opacity="0.03" x1="553.036" y1="294.691" x2="553.036" y2="832.999" stroke="url(#paint5_linear_4171_49924)" stroke-width="2.16188"/>
<line opacity="0.03" x1="600.599" y1="350.898" x2="600.599" y2="832.998" stroke="url(#paint6_linear_4171_49924)" stroke-width="2.16188"/>
<line opacity="0.03" x1="648.157" y1="433.051" x2="648.157" y2="832.999" stroke="url(#paint7_linear_4171_49924)" stroke-width="2.16188"/>
<line opacity="0.03" x1="695.72" y1="387.65" x2="695.72" y2="832.998" stroke="url(#paint8_linear_4171_49924)" stroke-width="2.16188"/>
<line opacity="0.03" x1="743.282" y1="493.586" x2="743.282" y2="833.001" stroke="url(#paint9_linear_4171_49924)" stroke-width="2.16188"/>
<line opacity="0.03" x1="790.841" y1="593.031" x2="790.841" y2="833" stroke="url(#paint10_linear_4171_49924)" stroke-width="2.16188"/>
<line opacity="0.03" x1="838.403" y1="402.787" x2="838.403" y2="833.001" stroke="url(#paint11_linear_4171_49924)" stroke-width="2.16188"/>
<line opacity="0.03" x1="885.966" y1="458.996" x2="885.966" y2="833.001" stroke="url(#paint12_linear_4171_49924)" stroke-width="2.16188"/>
<line opacity="0.03" x1="933.526" y1="532.5" x2="933.526" y2="833.001" stroke="url(#paint13_linear_4171_49924)" stroke-width="2.16188"/>
<line opacity="0.03" x1="981.089" y1="588.709" x2="981.089" y2="833.001" stroke="url(#paint14_linear_4171_49924)" stroke-width="2.16188"/>
<line opacity="0.03" x1="1028.65" y1="569.252" x2="1028.65" y2="833.001" stroke="url(#paint15_linear_4171_49924)" stroke-width="2.16188"/>
<line opacity="0.03" x1="1076.21" y1="476.291" x2="1076.21" y2="833.001" stroke="url(#paint16_linear_4171_49924)" stroke-width="2.16188"/>
<line opacity="0.03" x1="1123.77" y1="376.846" x2="1123.77" y2="833.002" stroke="url(#paint17_linear_4171_49924)" stroke-width="2.16188"/>
<line opacity="0.03" x1="1171.33" y1="266.588" x2="1171.33" y2="833" stroke="url(#paint18_linear_4171_49924)" stroke-width="2.16188"/>
<line opacity="0.03" x1="1218.89" y1="275.234" x2="1218.89" y2="832.999" stroke="url(#paint19_linear_4171_49924)" stroke-width="2.16188"/>
<line opacity="0.03" x1="1266.46" y1="307.662" x2="1266.46" y2="832.999" stroke="url(#paint20_linear_4171_49924)" stroke-width="2.16188"/>
<line opacity="0.03" x1="1314.02" y1="266.588" x2="1314.02" y2="833" stroke="url(#paint21_linear_4171_49924)" stroke-width="2.16188"/>
<line opacity="0.03" x1="1361.58" y1="169.303" x2="1361.58" y2="833" stroke="url(#paint22_linear_4171_49924)" stroke-width="2.16188"/>
<line opacity="0.03" x1="1409.14" y1="132.551" x2="1409.14" y2="833" stroke="url(#paint23_linear_4171_49924)" stroke-width="2.16188"/>
<line opacity="0.03" x1="1456.7" y1="169.303" x2="1456.7" y2="833" stroke="url(#paint24_linear_4171_49924)" stroke-width="2.16188"/>
<line opacity="0.03" x1="1504.26" y1="221.187" x2="1504.26" y2="833" stroke="url(#paint25_linear_4171_49924)" stroke-width="2.16188"/>
<line opacity="0.03" x1="1551.83" y1="279.559" x2="1551.83" y2="833" stroke="url(#paint26_linear_4171_49924)" stroke-width="2.16188"/>
<line opacity="0.03" x1="1599.39" y1="333.607" x2="1599.39" y2="833.002" stroke="url(#paint27_linear_4171_49924)" stroke-width="2.16188"/>
<line opacity="0.03" x1="1646.95" y1="383.33" x2="1646.95" y2="833.001" stroke="url(#paint28_linear_4171_49924)" stroke-width="2.16188"/>
<line opacity="0.03" x1="1694.51" y1="396.297" x2="1694.51" y2="832.997" stroke="url(#paint29_linear_4171_49924)" stroke-width="2.16188"/>
<line opacity="0.03" x1="1742.07" y1="273.074" x2="1742.07" y2="833.001" stroke="url(#paint30_linear_4171_49924)" stroke-width="2.16188"/>
<line opacity="0.03" x1="1789.63" y1="132.551" x2="1789.63" y2="833" stroke="url(#paint31_linear_4171_49924)" stroke-width="2.16188"/>
<line opacity="0.03" x1="1837.19" y1="24.457" x2="1837.19" y2="833" stroke="url(#paint32_linear_4171_49924)" stroke-width="2.16188"/>
<line opacity="0.03" x1="1884.75" y1="24.457" x2="1884.75" y2="833" stroke="url(#paint33_linear_4171_49924)" stroke-width="2.16188"/>
<line opacity="0.03" x1="1932.32" y1="76.3398" x2="1932.32" y2="832.998" stroke="url(#paint34_linear_4171_49924)" stroke-width="2.16188"/>
<line opacity="0.03" x1="1979.88" y1="143.361" x2="1979.88" y2="833.001" stroke="url(#paint35_linear_4171_49924)" stroke-width="2.16188"/>
<line opacity="0.03" x1="2027.44" y1="208.217" x2="2027.44" y2="833" stroke="url(#paint36_linear_4171_49924)" stroke-width="2.16188"/>
<line opacity="0.03" x1="2075" y1="221.187" x2="2075" y2="833" stroke="url(#paint37_linear_4171_49924)" stroke-width="2.16188"/>
<line opacity="0.03" x1="2122.56" y1="193.084" x2="2122.56" y2="833" stroke="url(#paint38_linear_4171_49924)" stroke-width="2.16188"/>
<line opacity="0.03" x1="2170.12" y1="249.293" x2="2170.12" y2="833.001" stroke="url(#paint39_linear_4171_49924)" stroke-width="2.16188"/>
<line opacity="0.03" x1="2217.68" y1="309.826" x2="2217.68" y2="833.001" stroke="url(#paint40_linear_4171_49924)" stroke-width="2.16188"/>
<line opacity="0.03" x1="2265.25" y1="372.52" x2="2265.25" y2="833" stroke="url(#paint41_linear_4171_49924)" stroke-width="2.16188"/>
<line opacity="0.03" x1="2312.81" y1="428.729" x2="2312.81" y2="833" stroke="url(#paint42_linear_4171_49924)" stroke-width="2.16188"/>
<line opacity="0.03" x1="2360.37" y1="424.402" x2="2360.37" y2="832.998" stroke="url(#paint43_linear_4171_49924)" stroke-width="2.16188"/>
<line opacity="0.03" x1="2407.93" y1="415.756" x2="2407.93" y2="832.999" stroke="url(#paint44_linear_4171_49924)" stroke-width="2.16188"/>
<line opacity="0.03" x1="2455.49" y1="446.023" x2="2455.49" y2="833" stroke="url(#paint45_linear_4171_49924)" stroke-width="2.16188"/>
<line opacity="0.03" x1="2503.05" y1="255.777" x2="2503.05" y2="832.999" stroke="url(#paint46_linear_4171_49924)" stroke-width="2.16188"/>
<line opacity="0.03" x1="2550.61" y1="324.957" x2="2550.61" y2="832.999" stroke="url(#paint47_linear_4171_49924)" stroke-width="2.16188"/>
<line opacity="0.03" x1="2598.17" y1="389.814" x2="2598.17" y2="833" stroke="url(#paint48_linear_4171_49924)" stroke-width="2.16188"/>
<line opacity="0.03" x1="2645.74" y1="389.814" x2="2645.74" y2="833" stroke="url(#paint49_linear_4171_49924)" stroke-width="2.16188"/>
<line opacity="0.03" x1="2693.3" y1="286.045" x2="2693.3" y2="833.001" stroke="url(#paint50_linear_4171_49924)" stroke-width="2.16188"/>
<line opacity="0.03" x1="2740.86" y1="184.436" x2="2740.86" y2="833" stroke="url(#paint51_linear_4171_49924)" stroke-width="2.16188"/>
<line opacity="0.03" x1="2788.42" y1="156.332" x2="2788.42" y2="833" stroke="url(#paint52_linear_4171_49924)" stroke-width="2.16188"/>
<line opacity="0.03" x1="2835.98" y1="195.246" x2="2835.98" y2="833.001" stroke="url(#paint53_linear_4171_49924)" stroke-width="2.16188"/>
<line opacity="0.03" x1="2883.54" y1="236.322" x2="2883.54" y2="833.001" stroke="url(#paint54_linear_4171_49924)" stroke-width="2.16188"/>
<line opacity="0.03" x1="2931.1" y1="203.895" x2="2931.1" y2="833.002" stroke="url(#paint55_linear_4171_49924)" stroke-width="2.16188"/>
<line opacity="0.03" x1="2978.66" y1="132.551" x2="2978.67" y2="833" stroke="url(#paint56_linear_4171_49924)" stroke-width="2.16188"/>
<line opacity="0.03" x1="267.667" y1="623.299" x2="267.667" y2="833.001" stroke="url(#paint57_linear_4171_49924)" stroke-width="2.16188"/>
<line opacity="0.03" x1="220.104" y1="562.764" x2="220.104" y2="837.322" stroke="url(#paint58_linear_4171_49924)" stroke-width="2.16188"/>
<line opacity="0.03" x1="172.546" y1="515.205" x2="172.546" y2="833.001" stroke="url(#paint59_linear_4171_49924)" stroke-width="2.16188"/>
<line opacity="0.03" x1="124.983" y1="571.41" x2="124.983" y2="832.998" stroke="url(#paint60_linear_4171_49924)" stroke-width="2.16188"/>
<line opacity="0.03" x1="77.4208" y1="668.697" x2="77.4208" y2="833" stroke="url(#paint61_linear_4171_49924)" stroke-width="2.16188"/>
<path opacity="0.05" d="M3004.61 89.3133L2899.09 249.246L2762.93 132.354L2625.65 426.833L2497.29 249.246L2453.76 451.559L2389.03 398.733L2328.76 451.559L2108.88 176.189L2051.96 249.246C2006.57 177.687 1905.3 28.9505 1863.34 6.4712C1810.88 -21.6279 1731.64 361.642 1691.45 398.733C1651.27 435.824 1462.65 148.089 1410.19 132.354C1368.23 119.765 1315.32 253.742 1294.12 322.303L1176.92 249.246C1128.93 365.014 1025.8 596.55 997.229 596.55C961.513 596.55 864.411 418.964 844.321 398.733C828.249 382.548 800.42 523.867 788.515 596.55L683.6 361.642L635.607 451.559L563.059 249.246C516.182 429.829 416.178 787.624 391.177 774.136C359.926 757.277 198.088 520.122 170.186 512.254C147.863 505.96 50.7609 711.195 5 814.6V833" stroke="url(#paint62_linear_4171_49924)" stroke-width="8.64752" stroke-linecap="round" stroke-linejoin="round"/>
<path opacity="0.03" d="M175.962 512.254C153.735 505.96 57.0505 711.195 11.4863 814.6V833H3016.5V83.9086L2893.14 249.246L2757.56 132.354L2620.87 426.833L2493.07 249.246L2449.73 451.559L2385.27 398.733L2325.26 451.559L2106.33 176.189L2049.65 249.246C2004.46 177.687 1903.62 28.9505 1861.84 6.4712C1809.6 -21.6279 1730.7 361.642 1690.69 398.733C1650.69 435.824 1462.87 148.089 1410.64 132.354C1368.85 119.765 1316.18 253.742 1295.06 322.303L1178.37 249.246C1130.59 365.014 1027.9 596.55 999.451 596.55C963.889 596.55 867.204 418.964 847.2 398.733C831.197 382.548 803.488 523.867 791.634 596.55L687.17 361.642L639.383 451.559L567.147 249.246C520.472 429.829 420.897 787.624 396.004 774.136C364.887 757.277 203.745 520.122 175.962 512.254Z" fill="url(#paint63_linear_4171_49924)" stroke="url(#paint64_linear_4171_49924)" stroke-width="6.48564" stroke-linecap="round" stroke-linejoin="round"/>
</g>
<g opacity="0.1">
<path d="M1014 829.266C1014 828.437 1013.33 827.766 1012.5 827.766C1011.67 827.766 1011 828.437 1011 829.266L1014 829.266ZM1011 838.266L1011 839.766L1014 839.766L1014 838.266L1011 838.266ZM1011 829.266L1011 838.266L1014 838.266L1014 829.266L1011 829.266Z" fill="url(#paint65_linear_4171_49924)"/>
<path d="M1046 829.266C1046 828.437 1045.33 827.766 1044.5 827.766C1043.67 827.766 1043 828.437 1043 829.266L1046 829.266ZM1043 838.266L1043 839.766L1046 839.766L1046 838.266L1043 838.266ZM1043 829.266L1043 838.266L1046 838.266L1046 829.266L1043 829.266Z" fill="url(#paint66_linear_4171_49924)"/>
<path d="M1078 821.266C1078 820.437 1077.33 819.766 1076.5 819.766C1075.67 819.766 1075 820.437 1075 821.266L1078 821.266ZM1075 838.266L1075 839.766L1078 839.766L1078 838.266L1075 838.266ZM1075 821.266L1075 838.266L1078 838.266L1078 821.266L1075 821.266Z" fill="url(#paint67_linear_4171_49924)"/>
<path d="M1110 805.266C1110 804.437 1109.33 803.766 1108.5 803.766C1107.67 803.766 1107 804.437 1107 805.266L1110 805.266ZM1107 838.266L1107 839.766L1110 839.766L1110 838.266L1107 838.266ZM1107 805.266L1107 838.266L1110 838.266L1110 805.266L1107 805.266Z" fill="url(#paint68_linear_4171_49924)"/>
<path d="M1142 813.266C1142 812.437 1141.33 811.766 1140.5 811.766C1139.67 811.766 1139 812.437 1139 813.266L1142 813.266ZM1139 838.266L1139 839.766L1142 839.766L1142 838.266L1139 838.266ZM1139 813.266L1139 838.266L1142 838.266L1142 813.266L1139 813.266Z" fill="url(#paint69_linear_4171_49924)"/>
<path d="M1174.5 789C1174.5 788.172 1173.83 787.5 1173 787.5C1172.17 787.5 1171.5 788.172 1171.5 789L1174.5 789ZM1171.5 838L1171.5 839.5L1174.5 839.5L1174.5 838L1171.5 838ZM1171.5 789L1171.5 838L1174.5 838L1174.5 789L1171.5 789Z" fill="url(#paint70_linear_4171_49924)"/>
<path d="M1206 821.266C1206 820.437 1205.33 819.766 1204.5 819.766C1203.67 819.766 1203 820.437 1203 821.266L1206 821.266ZM1203 838.266L1203 839.766L1206 839.766L1206 838.266L1203 838.266ZM1203 821.266L1203 838.266L1206 838.266L1206 821.266L1203 821.266Z" fill="url(#paint71_linear_4171_49924)"/>
<path d="M1237 802.266C1237 801.437 1236.33 800.766 1235.5 800.766C1234.67 800.766 1234 801.437 1234 802.266L1237 802.266ZM1234 838.266L1234 839.766L1237 839.766L1237 838.266L1234 838.266ZM1234 802.266L1234 838.266L1237 838.266L1237 802.266L1234 802.266Z" fill="url(#paint72_linear_4171_49924)"/>
<path d="M1267.5 789C1267.5 788.172 1266.83 787.5 1266 787.5C1265.17 787.5 1264.5 788.172 1264.5 789L1267.5 789ZM1264.5 838L1264.5 839.5L1267.5 839.5L1267.5 838L1264.5 838ZM1264.5 789L1264.5 838L1267.5 838L1267.5 789L1264.5 789Z" fill="url(#paint73_linear_4171_49924)"/>
<path d="M1298 805.266C1298 804.437 1297.33 803.766 1296.5 803.766C1295.67 803.766 1295 804.437 1295 805.266L1298 805.266ZM1295 838.266L1295 839.766L1298 839.766L1298 838.266L1295 838.266ZM1295 805.266L1295 838.266L1298 838.266L1298 805.266L1295 805.266Z" fill="url(#paint74_linear_4171_49924)"/>
<path d="M1328 821.266C1328 820.437 1327.33 819.766 1326.5 819.766C1325.67 819.766 1325 820.437 1325 821.266L1328 821.266ZM1325 838.266L1325 839.766L1328 839.766L1328 838.266L1325 838.266ZM1325 821.266L1325 838.266L1328 838.266L1328 821.266L1325 821.266Z" fill="url(#paint75_linear_4171_49924)"/>
<path d="M1359 830.266C1359 829.437 1358.33 828.766 1357.5 828.766C1356.67 828.766 1356 829.437 1356 830.266L1359 830.266ZM1356 838.266L1356 839.766L1359 839.766L1359 838.266L1356 838.266ZM1356 830.266L1356 838.266L1359 838.266L1359 830.266L1356 830.266Z" fill="url(#paint76_linear_4171_49924)"/>
<path d="M1389 808.266C1389 807.437 1388.33 806.766 1387.5 806.766C1386.67 806.766 1386 807.437 1386 808.266L1389 808.266ZM1386 838.266L1386 839.766L1389 839.766L1389 838.266L1386 838.266ZM1386 808.266L1386 838.266L1389 838.266L1389 808.266L1386 808.266Z" fill="url(#paint77_linear_4171_49924)"/>
<path d="M1420 796.266C1420 795.437 1419.33 794.766 1418.5 794.766C1417.67 794.766 1417 795.437 1417 796.266L1420 796.266ZM1417 838.266L1417 839.766L1420 839.766L1420 838.266L1417 838.266ZM1417 796.266L1417 838.266L1420 838.266L1420 796.266L1417 796.266Z" fill="url(#paint78_linear_4171_49924)"/>
<path d="M1450 817.266C1450 816.437 1449.33 815.766 1448.5 815.766C1447.67 815.766 1447 816.437 1447 817.266L1450 817.266ZM1447 838.266L1447 839.766L1450 839.766L1450 838.266L1447 838.266ZM1447 817.266L1447 838.266L1450 838.266L1450 817.266L1447 817.266Z" fill="url(#paint79_linear_4171_49924)"/>
<path d="M1481 817.266C1481 816.437 1480.33 815.766 1479.5 815.766C1478.67 815.766 1478 816.437 1478 817.266L1481 817.266ZM1478 838.266L1478 839.766L1481 839.766L1481 838.266L1478 838.266ZM1478 817.266L1478 838.266L1481 838.266L1481 817.266L1478 817.266Z" fill="url(#paint80_linear_4171_49924)"/>
<path d="M1511 808.266C1511 807.437 1510.33 806.766 1509.5 806.766C1508.67 806.766 1508 807.437 1508 808.266L1511 808.266ZM1508 838.266L1508 839.766L1511 839.766L1511 838.266L1508 838.266ZM1508 808.266L1508 838.266L1511 838.266L1511 808.266L1508 808.266Z" fill="url(#paint81_linear_4171_49924)"/>
<path d="M1542 823.266C1542 822.437 1541.33 821.766 1540.5 821.766C1539.67 821.766 1539 822.437 1539 823.266L1542 823.266ZM1539 838.266L1539 839.766L1542 839.766L1542 838.266L1539 838.266ZM1539 823.266L1539 838.266L1542 838.266L1542 823.266L1539 823.266Z" fill="url(#paint82_linear_4171_49924)"/>
<path d="M1572 813.266C1572 812.437 1571.33 811.766 1570.5 811.766C1569.67 811.766 1569 812.437 1569 813.266L1572 813.266ZM1569 838.266L1569 839.766L1572 839.766L1572 838.266L1569 838.266ZM1569 813.266L1569 838.266L1572 838.266L1572 813.266L1569 813.266Z" fill="url(#paint83_linear_4171_49924)"/>
<path d="M1603 800.266C1603 799.437 1602.33 798.766 1601.5 798.766C1600.67 798.766 1600 799.437 1600 800.266L1603 800.266ZM1600 838.266L1600 839.766L1603 839.766L1603 838.266L1600 838.266ZM1600 800.266L1600 838.266L1603 838.266L1603 800.266L1600 800.266Z" fill="url(#paint84_linear_4171_49924)"/>
<path d="M1633.5 789C1633.5 788.172 1632.83 787.5 1632 787.5C1631.17 787.5 1630.5 788.172 1630.5 789L1633.5 789ZM1630.5 838L1630.5 839.5L1633.5 839.5L1633.5 838L1630.5 838ZM1630.5 789L1630.5 838L1633.5 838L1633.5 789L1630.5 789Z" fill="url(#paint85_linear_4171_49924)"/>
<path d="M1664 797.266C1664 796.437 1663.33 795.766 1662.5 795.766C1661.67 795.766 1661 796.437 1661 797.266L1664 797.266ZM1661 838.266L1661 839.766L1664 839.766L1664 838.266L1661 838.266ZM1661 797.266L1661 838.266L1664 838.266L1664 797.266L1661 797.266Z" fill="url(#paint86_linear_4171_49924)"/>
<path d="M1694 805.266C1694 804.437 1693.33 803.766 1692.5 803.766C1691.67 803.766 1691 804.437 1691 805.266L1694 805.266ZM1691 838.266L1691 839.766L1694 839.766L1694 838.266L1691 838.266ZM1691 805.266L1691 838.266L1694 838.266L1694 805.266L1691 805.266Z" fill="url(#paint87_linear_4171_49924)"/>
<path d="M1725 813.266C1725 812.437 1724.33 811.766 1723.5 811.766C1722.67 811.766 1722 812.437 1722 813.266L1725 813.266ZM1722 838.266L1722 839.766L1725 839.766L1725 838.266L1722 838.266ZM1722 813.266L1722 838.266L1725 838.266L1725 813.266L1722 813.266Z" fill="url(#paint88_linear_4171_49924)"/>
<path d="M1755 823.266C1755 822.437 1754.33 821.766 1753.5 821.766C1752.67 821.766 1752 822.437 1752 823.266L1755 823.266ZM1752 838.266L1752 839.766L1755 839.766L1755 838.266L1752 838.266ZM1752 823.266L1752 838.266L1755 838.266L1755 823.266L1752 823.266Z" fill="url(#paint89_linear_4171_49924)"/>
<path d="M1786 831.266C1786 830.437 1785.33 829.766 1784.5 829.766C1783.67 829.766 1783 830.437 1783 831.266L1786 831.266ZM1783 838.266L1783 839.766L1786 839.766L1786 838.266L1783 838.266ZM1783 831.266L1783 838.266L1786 838.266L1786 831.266L1783 831.266Z" fill="url(#paint90_linear_4171_49924)"/>
<path d="M1816.5 789C1816.5 788.172 1815.83 787.5 1815 787.5C1814.17 787.5 1813.5 788.172 1813.5 789L1816.5 789ZM1813.5 838L1813.5 839.5L1816.5 839.5L1816.5 838L1813.5 838ZM1813.5 789L1813.5 838L1816.5 838L1816.5 789L1813.5 789Z" fill="url(#paint91_linear_4171_49924)"/>
<path d="M1847 809.266C1847 808.437 1846.33 807.766 1845.5 807.766C1844.67 807.766 1844 808.437 1844 809.266L1847 809.266ZM1844 838.266L1844 839.766L1847 839.766L1847 838.266L1844 838.266ZM1844 809.266L1844 838.266L1847 838.266L1847 809.266L1844 809.266Z" fill="url(#paint92_linear_4171_49924)"/>
<path d="M1877 818.266C1877 817.437 1876.33 816.766 1875.5 816.766C1874.67 816.766 1874 817.437 1874 818.266L1877 818.266ZM1874 838.266L1874 839.766L1877 839.766L1877 838.266L1874 838.266ZM1874 818.266L1874 838.266L1877 838.266L1877 818.266L1874 818.266Z" fill="url(#paint93_linear_4171_49924)"/>
<path d="M1908 809.266C1908 808.437 1907.33 807.766 1906.5 807.766C1905.67 807.766 1905 808.437 1905 809.266L1908 809.266ZM1905 838.266L1905 839.766L1908 839.766L1908 838.266L1905 838.266ZM1905 809.266L1905 838.266L1908 838.266L1908 809.266L1905 809.266Z" fill="url(#paint94_linear_4171_49924)"/>
<path d="M1938.5 789C1938.5 788.172 1937.83 787.5 1937 787.5C1936.17 787.5 1935.5 788.172 1935.5 789L1938.5 789ZM1935.5 838L1935.5 839.5L1938.5 839.5L1938.5 838L1935.5 838ZM1935.5 789L1935.5 838L1938.5 838L1938.5 789L1935.5 789Z" fill="url(#paint95_linear_4171_49924)"/>
<path d="M1969 804.266C1969 803.437 1968.33 802.766 1967.5 802.766C1966.67 802.766 1966 803.437 1966 804.266L1969 804.266ZM1966 838.266L1966 839.766L1969 839.766L1969 838.266L1966 838.266ZM1966 804.266L1966 838.266L1969 838.266L1969 804.266L1966 804.266Z" fill="url(#paint96_linear_4171_49924)"/>
<path d="M1999 813.266C1999 812.437 1998.33 811.766 1997.5 811.766C1996.67 811.766 1996 812.437 1996 813.266L1999 813.266ZM1996 838.266L1996 839.766L1999 839.766L1999 838.266L1996 838.266ZM1996 813.266L1996 838.266L1999 838.266L1999 813.266L1996 813.266Z" fill="url(#paint97_linear_4171_49924)"/>
<path d="M2030 813.266C2030 812.437 2029.33 811.766 2028.5 811.766C2027.67 811.766 2027 812.437 2027 813.266L2030 813.266ZM2027 838.266L2027 839.766L2030 839.766L2030 838.266L2027 838.266ZM2027 813.266L2027 838.266L2030 838.266L2030 813.266L2027 813.266Z" fill="url(#paint98_linear_4171_49924)"/>
<path d="M2060 804.266C2060 803.437 2059.33 802.766 2058.5 802.766C2057.67 802.766 2057 803.437 2057 804.266L2060 804.266ZM2057 838.266L2057 839.766L2060 839.766L2060 838.266L2057 838.266ZM2057 804.266L2057 838.266L2060 838.266L2060 804.266L2057 804.266Z" fill="url(#paint99_linear_4171_49924)"/>
<path d="M2091 828.266C2091 827.437 2090.33 826.766 2089.5 826.766C2088.67 826.766 2088 827.437 2088 828.266L2091 828.266ZM2088 838.266L2088 839.766L2091 839.766L2091 838.266L2088 838.266ZM2088 828.266L2088 838.266L2091 838.266L2091 828.266L2088 828.266Z" fill="url(#paint100_linear_4171_49924)"/>
<path d="M2121 824.266C2121 823.437 2120.33 822.766 2119.5 822.766C2118.67 822.766 2118 823.437 2118 824.266L2121 824.266ZM2118 838.266L2118 839.766L2121 839.766L2121 838.266L2118 838.266ZM2118 824.266L2118 838.266L2121 838.266L2121 824.266L2118 824.266Z" fill="url(#paint101_linear_4171_49924)"/>
<path d="M2152 833.266C2152 832.437 2151.33 831.766 2150.5 831.766C2149.67 831.766 2149 832.437 2149 833.266L2152 833.266ZM2149 838.266L2149 839.766L2152 839.766L2152 838.266L2149 838.266ZM2149 833.266L2149 838.266L2152 838.266L2152 833.266L2149 833.266Z" fill="url(#paint102_linear_4171_49924)"/>
<path d="M2182 828.266C2182 827.437 2181.33 826.766 2180.5 826.766C2179.67 826.766 2179 827.437 2179 828.266L2182 828.266ZM2179 838.266L2179 839.766L2182 839.766L2182 838.266L2179 838.266ZM2179 828.266L2179 838.266L2182 838.266L2182 828.266L2179 828.266Z" fill="url(#paint103_linear_4171_49924)"/>
<path d="M2213 824.266C2213 823.437 2212.33 822.766 2211.5 822.766C2210.67 822.766 2210 823.437 2210 824.266L2213 824.266ZM2210 838.266L2210 839.766L2213 839.766L2213 838.266L2210 838.266ZM2210 824.266L2210 838.266L2213 838.266L2213 824.266L2210 824.266Z" fill="url(#paint104_linear_4171_49924)"/>
<path d="M2243 824.266C2243 823.437 2242.33 822.766 2241.5 822.766C2240.67 822.766 2240 823.437 2240 824.266L2243 824.266ZM2240 838.266L2240 839.766L2243 839.766L2243 838.266L2240 838.266ZM2240 824.266L2240 838.266L2243 838.266L2243 824.266L2240 824.266Z" fill="url(#paint105_linear_4171_49924)"/>
<path d="M2274 813.266C2274 812.437 2273.33 811.766 2272.5 811.766C2271.67 811.766 2271 812.437 2271 813.266L2274 813.266ZM2271 838.266L2271 839.766L2274 839.766L2274 838.266L2271 838.266ZM2271 813.266L2271 838.266L2274 838.266L2274 813.266L2271 813.266Z" fill="url(#paint106_linear_4171_49924)"/>
<path d="M2304 809.266C2304 808.437 2303.33 807.766 2302.5 807.766C2301.67 807.766 2301 808.437 2301 809.266L2304 809.266ZM2301 838.266L2301 839.766L2304 839.766L2304 838.266L2301 838.266ZM2301 809.266L2301 838.266L2304 838.266L2304 809.266L2301 809.266Z" fill="url(#paint107_linear_4171_49924)"/>
<path d="M2335 804.266C2335 803.437 2334.33 802.766 2333.5 802.766C2332.67 802.766 2332 803.437 2332 804.266L2335 804.266ZM2332 838.266L2332 839.766L2335 839.766L2335 838.266L2332 838.266ZM2332 804.266L2332 838.266L2335 838.266L2335 804.266L2332 804.266Z" fill="url(#paint108_linear_4171_49924)"/>
<path d="M2365.5 789C2365.5 788.172 2364.83 787.5 2364 787.5C2363.17 787.5 2362.5 788.172 2362.5 789L2365.5 789ZM2362.5 838L2362.5 839.5L2365.5 839.5L2365.5 838L2362.5 838ZM2362.5 789L2362.5 838L2365.5 838L2365.5 789L2362.5 789Z" fill="url(#paint109_linear_4171_49924)"/>
</g>
<defs>
<linearGradient id="paint0_linear_4171_49924" x1="313.636" y1="690.175" x2="313.636" y2="833" gradientUnits="userSpaceOnUse">
<stop stop-color="#2286DE"/>
<stop offset="1" stop-color="#3AAF75"/>
</linearGradient>
<linearGradient id="paint1_linear_4171_49924" x1="361.197" y1="748.984" x2="361.197" y2="832.999" gradientUnits="userSpaceOnUse">
<stop stop-color="#2286DE"/>
<stop offset="1" stop-color="#3AAF75"/>
</linearGradient>
<linearGradient id="paint2_linear_4171_49924" x1="408.757" y1="755.288" x2="408.757" y2="833.001" gradientUnits="userSpaceOnUse">
<stop stop-color="#2286DE"/>
<stop offset="1" stop-color="#3AAF75"/>
</linearGradient>
<linearGradient id="paint3_linear_4171_49924" x1="456.32" y1="629.266" x2="456.32" y2="833.001" gradientUnits="userSpaceOnUse">
<stop stop-color="#2286DE"/>
<stop offset="1" stop-color="#3AAF75"/>
</linearGradient>
<linearGradient id="paint4_linear_4171_49924" x1="503.88" y1="480.136" x2="503.881" y2="832.997" gradientUnits="userSpaceOnUse">
<stop stop-color="#2286DE"/>
<stop offset="1" stop-color="#3AAF75"/>
</linearGradient>
<linearGradient id="paint5_linear_4171_49924" x1="551.443" y1="310.009" x2="551.443" y2="832.999" gradientUnits="userSpaceOnUse">
<stop stop-color="#2286DE"/>
<stop offset="1" stop-color="#3AAF75"/>
</linearGradient>
<linearGradient id="paint6_linear_4171_49924" x1="599.005" y1="364.617" x2="599.006" y2="832.998" gradientUnits="userSpaceOnUse">
<stop stop-color="#2286DE"/>
<stop offset="1" stop-color="#3AAF75"/>
</linearGradient>
<linearGradient id="paint7_linear_4171_49924" x1="646.564" y1="444.431" x2="646.564" y2="832.999" gradientUnits="userSpaceOnUse">
<stop stop-color="#2286DE"/>
<stop offset="1" stop-color="#3AAF75"/>
</linearGradient>
<linearGradient id="paint8_linear_4171_49924" x1="694.126" y1="400.323" x2="694.127" y2="832.998" gradientUnits="userSpaceOnUse">
<stop stop-color="#2286DE"/>
<stop offset="1" stop-color="#3AAF75"/>
</linearGradient>
<linearGradient id="paint9_linear_4171_49924" x1="741.689" y1="503.244" x2="741.689" y2="833.001" gradientUnits="userSpaceOnUse">
<stop stop-color="#2286DE"/>
<stop offset="1" stop-color="#3AAF75"/>
</linearGradient>
<linearGradient id="paint10_linear_4171_49924" x1="789.248" y1="599.86" x2="789.248" y2="833" gradientUnits="userSpaceOnUse">
<stop stop-color="#2286DE"/>
<stop offset="1" stop-color="#3AAF75"/>
</linearGradient>
<linearGradient id="paint11_linear_4171_49924" x1="836.81" y1="415.029" x2="836.81" y2="833.001" gradientUnits="userSpaceOnUse">
<stop stop-color="#2286DE"/>
<stop offset="1" stop-color="#3AAF75"/>
</linearGradient>
<linearGradient id="paint12_linear_4171_49924" x1="884.373" y1="469.639" x2="884.373" y2="833.001" gradientUnits="userSpaceOnUse">
<stop stop-color="#2286DE"/>
<stop offset="1" stop-color="#3AAF75"/>
</linearGradient>
<linearGradient id="paint13_linear_4171_49924" x1="931.933" y1="541.051" x2="931.933" y2="833.001" gradientUnits="userSpaceOnUse">
<stop stop-color="#2286DE"/>
<stop offset="1" stop-color="#3AAF75"/>
</linearGradient>
<linearGradient id="paint14_linear_4171_49924" x1="979.496" y1="595.66" x2="979.496" y2="833.001" gradientUnits="userSpaceOnUse">
<stop stop-color="#2286DE"/>
<stop offset="1" stop-color="#3AAF75"/>
</linearGradient>
<linearGradient id="paint15_linear_4171_49924" x1="1027.06" y1="576.757" x2="1027.06" y2="833.001" gradientUnits="userSpaceOnUse">
<stop stop-color="#2286DE"/>
<stop offset="1" stop-color="#3AAF75"/>
</linearGradient>
<linearGradient id="paint16_linear_4171_49924" x1="1074.62" y1="486.441" x2="1074.62" y2="833.001" gradientUnits="userSpaceOnUse">
<stop stop-color="#2286DE"/>
<stop offset="1" stop-color="#3AAF75"/>
</linearGradient>
<linearGradient id="paint17_linear_4171_49924" x1="1122.18" y1="389.826" x2="1122.18" y2="833.002" gradientUnits="userSpaceOnUse">
<stop stop-color="#2286DE"/>
<stop offset="1" stop-color="#3AAF75"/>
</linearGradient>
<linearGradient id="paint18_linear_4171_49924" x1="1169.74" y1="282.705" x2="1169.74" y2="833" gradientUnits="userSpaceOnUse">
<stop stop-color="#2286DE"/>
<stop offset="1" stop-color="#3AAF75"/>
</linearGradient>
<linearGradient id="paint19_linear_4171_49924" x1="1217.3" y1="291.106" x2="1217.3" y2="832.999" gradientUnits="userSpaceOnUse">
<stop stop-color="#2286DE"/>
<stop offset="1" stop-color="#3AAF75"/>
</linearGradient>
<linearGradient id="paint20_linear_4171_49924" x1="1264.86" y1="322.611" x2="1264.86" y2="832.999" gradientUnits="userSpaceOnUse">
<stop stop-color="#2286DE"/>
<stop offset="1" stop-color="#3AAF75"/>
</linearGradient>
<linearGradient id="paint21_linear_4171_49924" x1="1312.43" y1="282.705" x2="1312.43" y2="833" gradientUnits="userSpaceOnUse">
<stop stop-color="#2286DE"/>
<stop offset="1" stop-color="#3AAF75"/>
</linearGradient>
<linearGradient id="paint22_linear_4171_49924" x1="1359.98" y1="188.188" x2="1359.98" y2="833" gradientUnits="userSpaceOnUse">
<stop stop-color="#2286DE"/>
<stop offset="1" stop-color="#3AAF75"/>
</linearGradient>
<linearGradient id="paint23_linear_4171_49924" x1="1407.55" y1="152.482" x2="1407.55" y2="833" gradientUnits="userSpaceOnUse">
<stop stop-color="#2286DE"/>
<stop offset="1" stop-color="#3AAF75"/>
</linearGradient>
<linearGradient id="paint24_linear_4171_49924" x1="1455.11" y1="188.188" x2="1455.11" y2="833" gradientUnits="userSpaceOnUse">
<stop stop-color="#2286DE"/>
<stop offset="1" stop-color="#3AAF75"/>
</linearGradient>
<linearGradient id="paint25_linear_4171_49924" x1="1502.67" y1="238.597" x2="1502.67" y2="833" gradientUnits="userSpaceOnUse">
<stop stop-color="#2286DE"/>
<stop offset="1" stop-color="#3AAF75"/>
</linearGradient>
<linearGradient id="paint26_linear_4171_49924" x1="1550.23" y1="295.307" x2="1550.23" y2="833" gradientUnits="userSpaceOnUse">
<stop stop-color="#2286DE"/>
<stop offset="1" stop-color="#3AAF75"/>
</linearGradient>
<linearGradient id="paint27_linear_4171_49924" x1="1597.79" y1="347.818" x2="1597.79" y2="833.002" gradientUnits="userSpaceOnUse">
<stop stop-color="#2286DE"/>
<stop offset="1" stop-color="#3AAF75"/>
</linearGradient>
<linearGradient id="paint28_linear_4171_49924" x1="1645.35" y1="396.126" x2="1645.35" y2="833.001" gradientUnits="userSpaceOnUse">
<stop stop-color="#2286DE"/>
<stop offset="1" stop-color="#3AAF75"/>
</linearGradient>
<linearGradient id="paint29_linear_4171_49924" x1="1692.92" y1="408.723" x2="1692.92" y2="832.997" gradientUnits="userSpaceOnUse">
<stop stop-color="#2286DE"/>
<stop offset="1" stop-color="#3AAF75"/>
</linearGradient>
<linearGradient id="paint30_linear_4171_49924" x1="1740.48" y1="289.007" x2="1740.48" y2="833.001" gradientUnits="userSpaceOnUse">
<stop stop-color="#2286DE"/>
<stop offset="1" stop-color="#3AAF75"/>
</linearGradient>
<linearGradient id="paint31_linear_4171_49924" x1="1788.04" y1="152.482" x2="1788.04" y2="833" gradientUnits="userSpaceOnUse">
<stop stop-color="#2286DE"/>
<stop offset="1" stop-color="#3AAF75"/>
</linearGradient>
<linearGradient id="paint32_linear_4171_49924" x1="1835.6" y1="47.4644" x2="1835.6" y2="833" gradientUnits="userSpaceOnUse">
<stop stop-color="#2286DE"/>
<stop offset="1" stop-color="#3AAF75"/>
</linearGradient>
<linearGradient id="paint33_linear_4171_49924" x1="1883.16" y1="47.4644" x2="1883.16" y2="833" gradientUnits="userSpaceOnUse">
<stop stop-color="#2286DE"/>
<stop offset="1" stop-color="#3AAF75"/>
</linearGradient>
<linearGradient id="paint34_linear_4171_49924" x1="1930.72" y1="97.8708" x2="1930.72" y2="832.998" gradientUnits="userSpaceOnUse">
<stop stop-color="#2286DE"/>
<stop offset="1" stop-color="#3AAF75"/>
</linearGradient>
<linearGradient id="paint35_linear_4171_49924" x1="1978.28" y1="162.985" x2="1978.28" y2="833.001" gradientUnits="userSpaceOnUse">
<stop stop-color="#2286DE"/>
<stop offset="1" stop-color="#3AAF75"/>
</linearGradient>
<linearGradient id="paint36_linear_4171_49924" x1="2025.85" y1="225.995" x2="2025.85" y2="833" gradientUnits="userSpaceOnUse">
<stop stop-color="#2286DE"/>
<stop offset="1" stop-color="#3AAF75"/>
</linearGradient>
<linearGradient id="paint37_linear_4171_49924" x1="2073.41" y1="238.597" x2="2073.41" y2="833" gradientUnits="userSpaceOnUse">
<stop stop-color="#2286DE"/>
<stop offset="1" stop-color="#3AAF75"/>
</linearGradient>
<linearGradient id="paint38_linear_4171_49924" x1="2120.97" y1="211.293" x2="2120.97" y2="833" gradientUnits="userSpaceOnUse">
<stop stop-color="#2286DE"/>
<stop offset="1" stop-color="#3AAF75"/>
</linearGradient>
<linearGradient id="paint39_linear_4171_49924" x1="2168.53" y1="265.903" x2="2168.53" y2="833.001" gradientUnits="userSpaceOnUse">
<stop stop-color="#2286DE"/>
<stop offset="1" stop-color="#3AAF75"/>
</linearGradient>
<linearGradient id="paint40_linear_4171_49924" x1="2216.09" y1="324.713" x2="2216.09" y2="833.001" gradientUnits="userSpaceOnUse">
<stop stop-color="#2286DE"/>
<stop offset="1" stop-color="#3AAF75"/>
</linearGradient>
<linearGradient id="paint41_linear_4171_49924" x1="2263.65" y1="385.623" x2="2263.65" y2="833" gradientUnits="userSpaceOnUse">
<stop stop-color="#2286DE"/>
<stop offset="1" stop-color="#3AAF75"/>
</linearGradient>
<linearGradient id="paint42_linear_4171_49924" x1="2311.21" y1="440.232" x2="2311.21" y2="833" gradientUnits="userSpaceOnUse">
<stop stop-color="#2286DE"/>
<stop offset="1" stop-color="#3AAF75"/>
</linearGradient>
<linearGradient id="paint43_linear_4171_49924" x1="2358.77" y1="436.029" x2="2358.77" y2="832.998" gradientUnits="userSpaceOnUse">
<stop stop-color="#2286DE"/>
<stop offset="1" stop-color="#3AAF75"/>
</linearGradient>
<linearGradient id="paint44_linear_4171_49924" x1="2406.34" y1="427.629" x2="2406.34" y2="832.999" gradientUnits="userSpaceOnUse">
<stop stop-color="#2286DE"/>
<stop offset="1" stop-color="#3AAF75"/>
</linearGradient>
<linearGradient id="paint45_linear_4171_49924" x1="2453.9" y1="457.035" x2="2453.9" y2="833" gradientUnits="userSpaceOnUse">
<stop stop-color="#2286DE"/>
<stop offset="1" stop-color="#3AAF75"/>
</linearGradient>
<linearGradient id="paint46_linear_4171_49924" x1="2501.46" y1="272.202" x2="2501.46" y2="832.999" gradientUnits="userSpaceOnUse">
<stop stop-color="#2286DE"/>
<stop offset="1" stop-color="#3AAF75"/>
</linearGradient>
<linearGradient id="paint47_linear_4171_49924" x1="2549.02" y1="339.414" x2="2549.02" y2="832.999" gradientUnits="userSpaceOnUse">
<stop stop-color="#2286DE"/>
<stop offset="1" stop-color="#3AAF75"/>
</linearGradient>
<linearGradient id="paint48_linear_4171_49924" x1="2596.58" y1="402.425" x2="2596.58" y2="833" gradientUnits="userSpaceOnUse">
<stop stop-color="#2286DE"/>
<stop offset="1" stop-color="#3AAF75"/>
</linearGradient>
<linearGradient id="paint49_linear_4171_49924" x1="2644.14" y1="402.425" x2="2644.14" y2="833" gradientUnits="userSpaceOnUse">
<stop stop-color="#2286DE"/>
<stop offset="1" stop-color="#3AAF75"/>
</linearGradient>
<linearGradient id="paint50_linear_4171_49924" x1="2691.7" y1="301.609" x2="2691.71" y2="833.001" gradientUnits="userSpaceOnUse">
<stop stop-color="#2286DE"/>
<stop offset="1" stop-color="#3AAF75"/>
</linearGradient>
<linearGradient id="paint51_linear_4171_49924" x1="2739.27" y1="202.891" x2="2739.27" y2="833" gradientUnits="userSpaceOnUse">
<stop stop-color="#2286DE"/>
<stop offset="1" stop-color="#3AAF75"/>
</linearGradient>
<linearGradient id="paint52_linear_4171_49924" x1="2786.83" y1="175.587" x2="2786.83" y2="833.001" gradientUnits="userSpaceOnUse">
<stop stop-color="#2286DE"/>
<stop offset="1" stop-color="#3AAF75"/>
</linearGradient>
<linearGradient id="paint53_linear_4171_49924" x1="2834.39" y1="213.394" x2="2834.39" y2="833.001" gradientUnits="userSpaceOnUse">
<stop stop-color="#2286DE"/>
<stop offset="1" stop-color="#3AAF75"/>
</linearGradient>
<linearGradient id="paint54_linear_4171_49924" x1="2881.95" y1="253.301" x2="2881.95" y2="833.001" gradientUnits="userSpaceOnUse">
<stop stop-color="#2286DE"/>
<stop offset="1" stop-color="#3AAF75"/>
</linearGradient>
<linearGradient id="paint55_linear_4171_49924" x1="2929.51" y1="221.796" x2="2929.51" y2="833.002" gradientUnits="userSpaceOnUse">
<stop stop-color="#2286DE"/>
<stop offset="1" stop-color="#3AAF75"/>
</linearGradient>
<linearGradient id="paint56_linear_4171_49924" x1="2977.07" y1="152.482" x2="2977.07" y2="833" gradientUnits="userSpaceOnUse">
<stop stop-color="#2286DE"/>
<stop offset="1" stop-color="#3AAF75"/>
</linearGradient>
<linearGradient id="paint57_linear_4171_49924" x1="266.074" y1="629.266" x2="266.074" y2="833.001" gradientUnits="userSpaceOnUse">
<stop stop-color="#2286DE"/>
<stop offset="1" stop-color="#3AAF75"/>
</linearGradient>
<linearGradient id="paint58_linear_4171_49924" x1="218.511" y1="570.576" x2="218.511" y2="837.322" gradientUnits="userSpaceOnUse">
<stop stop-color="#2286DE"/>
<stop offset="1" stop-color="#3AAF75"/>
</linearGradient>
<linearGradient id="paint59_linear_4171_49924" x1="170.953" y1="524.248" x2="170.953" y2="833.001" gradientUnits="userSpaceOnUse">
<stop stop-color="#2286DE"/>
<stop offset="1" stop-color="#3AAF75"/>
</linearGradient>
<linearGradient id="paint60_linear_4171_49924" x1="123.39" y1="578.854" x2="123.39" y2="832.998" gradientUnits="userSpaceOnUse">
<stop stop-color="#2286DE"/>
<stop offset="1" stop-color="#3AAF75"/>
</linearGradient>
<linearGradient id="paint61_linear_4171_49924" x1="75.8276" y1="673.373" x2="75.8277" y2="833" gradientUnits="userSpaceOnUse">
<stop stop-color="#2286DE"/>
<stop offset="1" stop-color="#3AAF75"/>
</linearGradient>
<linearGradient id="paint62_linear_4171_49924" x1="90.3547" y1="429.098" x2="3004.61" y2="429.098" gradientUnits="userSpaceOnUse">
<stop stop-color="#2286DE"/>
<stop offset="1" stop-color="#3AAF75"/>
</linearGradient>
<linearGradient id="paint63_linear_4171_49924" x1="96.9948" y1="429.098" x2="3016.5" y2="429.098" gradientUnits="userSpaceOnUse">
<stop stop-color="#2286DE"/>
<stop offset="1" stop-color="#3AAF75"/>
</linearGradient>
<linearGradient id="paint64_linear_4171_49924" x1="96.9948" y1="429.098" x2="3016.5" y2="429.098" gradientUnits="userSpaceOnUse">
<stop stop-color="#2286DE"/>
<stop offset="1" stop-color="#3AAF75"/>
</linearGradient>
<linearGradient id="paint65_linear_4171_49924" x1="1011.99" y1="829.522" x2="1011.99" y2="838.266" gradientUnits="userSpaceOnUse">
<stop stop-color="#2286DE"/>
<stop offset="1" stop-color="#3AAF75"/>
</linearGradient>
<linearGradient id="paint66_linear_4171_49924" x1="1043.99" y1="829.522" x2="1043.99" y2="838.266" gradientUnits="userSpaceOnUse">
<stop stop-color="#2286DE"/>
<stop offset="1" stop-color="#3AAF75"/>
</linearGradient>
<linearGradient id="paint67_linear_4171_49924" x1="1075.99" y1="821.749" x2="1075.99" y2="838.266" gradientUnits="userSpaceOnUse">
<stop stop-color="#2286DE"/>
<stop offset="1" stop-color="#3AAF75"/>
</linearGradient>
<linearGradient id="paint68_linear_4171_49924" x1="1107.99" y1="806.205" x2="1107.99" y2="838.266" gradientUnits="userSpaceOnUse">
<stop stop-color="#2286DE"/>
<stop offset="1" stop-color="#3AAF75"/>
</linearGradient>
<linearGradient id="paint69_linear_4171_49924" x1="1139.99" y1="813.977" x2="1139.99" y2="838.266" gradientUnits="userSpaceOnUse">
<stop stop-color="#2286DE"/>
<stop offset="1" stop-color="#3AAF75"/>
</linearGradient>
<linearGradient id="paint70_linear_4171_49924" x1="1172.49" y1="790.394" x2="1172.49" y2="838" gradientUnits="userSpaceOnUse">
<stop stop-color="#2286DE"/>
<stop offset="1" stop-color="#3AAF75"/>
</linearGradient>
<linearGradient id="paint71_linear_4171_49924" x1="1203.99" y1="821.749" x2="1203.99" y2="838.266" gradientUnits="userSpaceOnUse">
<stop stop-color="#2286DE"/>
<stop offset="1" stop-color="#3AAF75"/>
</linearGradient>
<linearGradient id="paint72_linear_4171_49924" x1="1234.99" y1="803.29" x2="1234.99" y2="838.266" gradientUnits="userSpaceOnUse">
<stop stop-color="#2286DE"/>
<stop offset="1" stop-color="#3AAF75"/>
</linearGradient>
<linearGradient id="paint73_linear_4171_49924" x1="1265.49" y1="790.394" x2="1265.49" y2="838" gradientUnits="userSpaceOnUse">
<stop stop-color="#2286DE"/>
<stop offset="1" stop-color="#3AAF75"/>
</linearGradient>
<linearGradient id="paint74_linear_4171_49924" x1="1295.99" y1="806.205" x2="1295.99" y2="838.266" gradientUnits="userSpaceOnUse">
<stop stop-color="#2286DE"/>
<stop offset="1" stop-color="#3AAF75"/>
</linearGradient>
<linearGradient id="paint75_linear_4171_49924" x1="1325.99" y1="821.749" x2="1325.99" y2="838.266" gradientUnits="userSpaceOnUse">
<stop stop-color="#2286DE"/>
<stop offset="1" stop-color="#3AAF75"/>
</linearGradient>
<linearGradient id="paint76_linear_4171_49924" x1="1356.99" y1="830.493" x2="1356.99" y2="838.266" gradientUnits="userSpaceOnUse">
<stop stop-color="#2286DE"/>
<stop offset="1" stop-color="#3AAF75"/>
</linearGradient>
<linearGradient id="paint77_linear_4171_49924" x1="1386.99" y1="809.119" x2="1386.99" y2="838.266" gradientUnits="userSpaceOnUse">
<stop stop-color="#2286DE"/>
<stop offset="1" stop-color="#3AAF75"/>
</linearGradient>
<linearGradient id="paint78_linear_4171_49924" x1="1417.99" y1="797.461" x2="1417.99" y2="838.266" gradientUnits="userSpaceOnUse">
<stop stop-color="#2286DE"/>
<stop offset="1" stop-color="#3AAF75"/>
</linearGradient>
<linearGradient id="paint79_linear_4171_49924" x1="1447.99" y1="817.863" x2="1447.99" y2="838.266" gradientUnits="userSpaceOnUse">
<stop stop-color="#2286DE"/>
<stop offset="1" stop-color="#3AAF75"/>
</linearGradient>
<linearGradient id="paint80_linear_4171_49924" x1="1478.99" y1="817.863" x2="1478.99" y2="838.266" gradientUnits="userSpaceOnUse">
<stop stop-color="#2286DE"/>
<stop offset="1" stop-color="#3AAF75"/>
</linearGradient>
<linearGradient id="paint81_linear_4171_49924" x1="1508.99" y1="809.119" x2="1508.99" y2="838.266" gradientUnits="userSpaceOnUse">
<stop stop-color="#2286DE"/>
<stop offset="1" stop-color="#3AAF75"/>
</linearGradient>
<linearGradient id="paint82_linear_4171_49924" x1="1539.99" y1="823.692" x2="1539.99" y2="838.266" gradientUnits="userSpaceOnUse">
<stop stop-color="#2286DE"/>
<stop offset="1" stop-color="#3AAF75"/>
</linearGradient>
<linearGradient id="paint83_linear_4171_49924" x1="1569.99" y1="813.977" x2="1569.99" y2="838.266" gradientUnits="userSpaceOnUse">
<stop stop-color="#2286DE"/>
<stop offset="1" stop-color="#3AAF75"/>
</linearGradient>
<linearGradient id="paint84_linear_4171_49924" x1="1600.99" y1="801.347" x2="1600.99" y2="838.266" gradientUnits="userSpaceOnUse">
<stop stop-color="#2286DE"/>
<stop offset="1" stop-color="#3AAF75"/>
</linearGradient>
<linearGradient id="paint85_linear_4171_49924" x1="1631.49" y1="790.394" x2="1631.49" y2="838" gradientUnits="userSpaceOnUse">
<stop stop-color="#2286DE"/>
<stop offset="1" stop-color="#3AAF75"/>
</linearGradient>
<linearGradient id="paint86_linear_4171_49924" x1="1661.99" y1="798.432" x2="1661.99" y2="838.266" gradientUnits="userSpaceOnUse">
<stop stop-color="#2286DE"/>
<stop offset="1" stop-color="#3AAF75"/>
</linearGradient>
<linearGradient id="paint87_linear_4171_49924" x1="1691.99" y1="806.205" x2="1691.99" y2="838.266" gradientUnits="userSpaceOnUse">
<stop stop-color="#2286DE"/>
<stop offset="1" stop-color="#3AAF75"/>
</linearGradient>
<linearGradient id="paint88_linear_4171_49924" x1="1722.99" y1="813.977" x2="1722.99" y2="838.266" gradientUnits="userSpaceOnUse">
<stop stop-color="#2286DE"/>
<stop offset="1" stop-color="#3AAF75"/>
</linearGradient>
<linearGradient id="paint89_linear_4171_49924" x1="1752.99" y1="823.692" x2="1752.99" y2="838.266" gradientUnits="userSpaceOnUse">
<stop stop-color="#2286DE"/>
<stop offset="1" stop-color="#3AAF75"/>
</linearGradient>
<linearGradient id="paint90_linear_4171_49924" x1="1783.99" y1="831.465" x2="1783.99" y2="838.266" gradientUnits="userSpaceOnUse">
<stop stop-color="#2286DE"/>
<stop offset="1" stop-color="#3AAF75"/>
</linearGradient>
<linearGradient id="paint91_linear_4171_49924" x1="1814.49" y1="790.394" x2="1814.49" y2="838" gradientUnits="userSpaceOnUse">
<stop stop-color="#2286DE"/>
<stop offset="1" stop-color="#3AAF75"/>
</linearGradient>
<linearGradient id="paint92_linear_4171_49924" x1="1844.99" y1="810.091" x2="1844.99" y2="838.266" gradientUnits="userSpaceOnUse">
<stop stop-color="#2286DE"/>
<stop offset="1" stop-color="#3AAF75"/>
</linearGradient>
<linearGradient id="paint93_linear_4171_49924" x1="1874.99" y1="818.835" x2="1874.99" y2="838.266" gradientUnits="userSpaceOnUse">
<stop stop-color="#2286DE"/>
<stop offset="1" stop-color="#3AAF75"/>
</linearGradient>
<linearGradient id="paint94_linear_4171_49924" x1="1905.99" y1="810.091" x2="1905.99" y2="838.266" gradientUnits="userSpaceOnUse">
<stop stop-color="#2286DE"/>
<stop offset="1" stop-color="#3AAF75"/>
</linearGradient>
<linearGradient id="paint95_linear_4171_49924" x1="1936.49" y1="790.394" x2="1936.49" y2="838" gradientUnits="userSpaceOnUse">
<stop stop-color="#2286DE"/>
<stop offset="1" stop-color="#3AAF75"/>
</linearGradient>
<linearGradient id="paint96_linear_4171_49924" x1="1966.99" y1="805.233" x2="1966.99" y2="838.266" gradientUnits="userSpaceOnUse">
<stop stop-color="#2286DE"/>
<stop offset="1" stop-color="#3AAF75"/>
</linearGradient>
<linearGradient id="paint97_linear_4171_49924" x1="1996.99" y1="813.977" x2="1996.99" y2="838.266" gradientUnits="userSpaceOnUse">
<stop stop-color="#2286DE"/>
<stop offset="1" stop-color="#3AAF75"/>
</linearGradient>
<linearGradient id="paint98_linear_4171_49924" x1="2027.99" y1="813.977" x2="2027.99" y2="838.266" gradientUnits="userSpaceOnUse">
<stop stop-color="#2286DE"/>
<stop offset="1" stop-color="#3AAF75"/>
</linearGradient>
<linearGradient id="paint99_linear_4171_49924" x1="2057.99" y1="805.233" x2="2057.99" y2="838.266" gradientUnits="userSpaceOnUse">
<stop stop-color="#2286DE"/>
<stop offset="1" stop-color="#3AAF75"/>
</linearGradient>
<linearGradient id="paint100_linear_4171_49924" x1="2088.99" y1="828.55" x2="2088.99" y2="838.266" gradientUnits="userSpaceOnUse">
<stop stop-color="#2286DE"/>
<stop offset="1" stop-color="#3AAF75"/>
</linearGradient>
<linearGradient id="paint101_linear_4171_49924" x1="2118.99" y1="824.664" x2="2118.99" y2="838.266" gradientUnits="userSpaceOnUse">
<stop stop-color="#2286DE"/>
<stop offset="1" stop-color="#3AAF75"/>
</linearGradient>
<linearGradient id="paint102_linear_4171_49924" x1="2149.99" y1="833.408" x2="2149.99" y2="838.266" gradientUnits="userSpaceOnUse">
<stop stop-color="#2286DE"/>
<stop offset="1" stop-color="#3AAF75"/>
</linearGradient>
<linearGradient id="paint103_linear_4171_49924" x1="2179.99" y1="828.55" x2="2179.99" y2="838.266" gradientUnits="userSpaceOnUse">
<stop stop-color="#2286DE"/>
<stop offset="1" stop-color="#3AAF75"/>
</linearGradient>
<linearGradient id="paint104_linear_4171_49924" x1="2210.99" y1="824.664" x2="2210.99" y2="838.266" gradientUnits="userSpaceOnUse">
<stop stop-color="#2286DE"/>
<stop offset="1" stop-color="#3AAF75"/>
</linearGradient>
<linearGradient id="paint105_linear_4171_49924" x1="2240.99" y1="824.664" x2="2240.99" y2="838.266" gradientUnits="userSpaceOnUse">
<stop stop-color="#2286DE"/>
<stop offset="1" stop-color="#3AAF75"/>
</linearGradient>
<linearGradient id="paint106_linear_4171_49924" x1="2271.99" y1="813.977" x2="2271.99" y2="838.266" gradientUnits="userSpaceOnUse">
<stop stop-color="#2286DE"/>
<stop offset="1" stop-color="#3AAF75"/>
</linearGradient>
<linearGradient id="paint107_linear_4171_49924" x1="2301.99" y1="810.091" x2="2301.99" y2="838.266" gradientUnits="userSpaceOnUse">
<stop stop-color="#2286DE"/>
<stop offset="1" stop-color="#3AAF75"/>
</linearGradient>
<linearGradient id="paint108_linear_4171_49924" x1="2332.99" y1="805.233" x2="2332.99" y2="838.266" gradientUnits="userSpaceOnUse">
<stop stop-color="#2286DE"/>
<stop offset="1" stop-color="#3AAF75"/>
</linearGradient>
<linearGradient id="paint109_linear_4171_49924" x1="2363.49" y1="790.394" x2="2363.49" y2="838" gradientUnits="userSpaceOnUse">
<stop stop-color="#2286DE"/>
<stop offset="1" stop-color="#3AAF75"/>
</linearGradient>
</defs>
</svg>
