<svg width="154" height="176" viewBox="0 0 154 176" fill="none" xmlns="http://www.w3.org/2000/svg">
<path d="M1 8.76075C1 3.92233 4.92232 0 9.76074 0H144.239C149.078 0 153 3.92232 153 8.76074V167.239C153 172.078 149.078 176 144.239 176H9.76074C4.92232 176 1 172.078 1 167.239V8.76075Z" fill="white"/>
<path d="M6.08207 115.332C6.08207 115.734 5.15805 116.538 3.77204 116.136C2.48045 115.762 1 116.615 1 117.959V167.238C1 172.077 4.92232 175.999 9.76074 175.999H146.973C150.302 175.999 153 173.301 153 169.972V117.42C153 116.844 152.832 116.281 152.515 115.8L151.801 114.713C151.426 114.142 150.694 113.924 150.068 114.197C149.218 114.566 148.239 114.025 147.981 113.135C147.672 112.072 147.196 110.879 146.532 110.109C145.544 108.964 144.727 110.497 144.343 111.697C144.273 111.916 144.031 112.035 143.82 111.943C143.573 111.836 143.298 112.017 143.298 112.286V115.643C143.298 116.473 142.479 117.056 141.694 116.783C141.261 116.633 140.782 116.741 140.449 117.055C139.082 118.344 136.873 120.275 135.906 120.555C134.52 120.957 134.058 118.145 132.21 116.136C131.003 114.824 130.74 117.884 130.768 120.51C130.771 120.803 130.337 120.892 130.232 120.618C130.138 120.374 129.784 120.408 129.738 120.665L129.031 124.659C128.995 124.867 129.007 125.079 129.06 125.283C129.497 126.969 129.903 129.896 128.514 130.198C126.666 130.599 125.742 127.385 124.356 126.984C122.97 126.582 122.508 131.001 121.122 131.001C120.013 131.001 118.812 129.126 118.35 128.189L118.176 127.924C117.408 126.756 115.708 126.87 114.653 127.787C114.518 127.905 114.359 127.953 114.186 127.947C112.26 127.879 111.881 125.136 111.881 123.209V118.145C111.881 117.339 111.518 116.174 111.133 115.187C110.75 114.204 110.104 113.354 109.324 112.644C107.21 110.72 104.334 108.235 104.027 108.502C103.687 108.798 102.276 110.252 101.453 111.108C101.322 111.245 101.22 111.406 101.153 111.582C100.775 112.568 99.4925 112.813 98.7777 112.036L98.711 111.964C98.562 111.802 98.3716 111.684 98.1602 111.623L97.6775 111.483C97.3495 111.388 97.0033 111.56 96.881 111.879L96.7819 112.137C96.702 112.346 96.4643 112.446 96.2596 112.357C96.0007 112.244 95.7113 112.434 95.7113 112.716V118.538C95.7113 118.802 95.3776 118.915 95.2176 118.706C95.0648 118.507 94.747 118.599 94.7249 118.849L93.9021 128.151C93.8801 128.4 93.6716 128.591 93.4216 128.591H93.341C93.1191 128.591 92.9392 128.77 92.9392 128.992C92.9392 129.214 92.7593 129.394 92.5374 129.394H92.417C92.1951 129.394 92.0152 129.214 92.0152 128.992C92.0152 128.77 91.8353 128.591 91.6134 128.591H91.493C91.2711 128.591 91.0912 128.411 91.0912 128.189V127.104C91.0912 126.594 90.6775 126.18 90.1672 126.18H90.0467C89.6029 126.18 89.2432 126.54 89.2432 126.984V127.325C89.2432 127.58 89.0363 127.787 88.7812 127.787H88.7209C88.499 127.787 88.3192 127.967 88.3192 128.189V129.736C88.3192 129.991 88.1123 130.198 87.8571 130.198H87.2747C86.8309 130.198 86.4711 129.838 86.4711 129.394V129.053C86.4711 128.797 86.2643 128.591 86.0091 128.591C85.754 128.591 85.5471 128.384 85.5471 128.129V126.984V126.18V125.838C85.5471 125.583 85.3403 125.376 85.0851 125.376H85.0249C84.803 125.376 84.6231 125.556 84.6231 125.778C84.6231 126 84.4432 126.18 84.2213 126.18H84.1611C83.9059 126.18 83.6991 126.387 83.6991 126.642V127.385V127.787V128.591V129.394V129.736C83.6991 129.991 83.4922 130.198 83.2371 130.198H83.1768C82.955 130.198 82.7751 130.018 82.7751 129.796C82.7751 129.574 82.5952 129.394 82.3733 129.394H81.8511H81.3288C81.1069 129.394 80.9271 129.574 80.9271 129.796C80.9271 130.018 80.7472 130.198 80.5253 130.198H80.465C80.2099 130.198 80.003 130.404 80.003 130.66V131.001V131.805V132.146C80.003 132.401 79.7962 132.608 79.541 132.608H79.4808C79.2589 132.608 79.079 132.788 79.079 133.01C79.079 133.232 78.8992 133.412 78.6773 133.412H78.5568C78.3349 133.412 78.155 133.592 78.155 133.814C78.155 134.035 77.9751 134.215 77.7532 134.215H77.6328C77.4109 134.215 77.231 134.035 77.231 133.814V132.206C77.231 131.985 77.0511 131.805 76.8292 131.805H76.769C76.5138 131.805 76.307 131.598 76.307 131.343V129.515C76.307 129.004 75.8933 128.591 75.383 128.591C74.8727 128.591 74.459 129.004 74.459 129.515V129.796V130.198V131.001C74.459 131.445 74.0992 131.805 73.6554 131.805H73.535H73.0127C72.7908 131.805 72.6109 131.625 72.6109 131.403C72.6109 131.181 72.4311 131.001 72.2092 131.001H72.1489C71.8938 131.001 71.6869 130.794 71.6869 130.539V127.847C71.6869 127.592 71.4801 127.385 71.2249 127.385C70.9698 127.385 70.7629 127.178 70.7629 126.923V124.347C70.7629 124.231 70.7416 124.115 70.7 124.007C70.4906 123.461 69.8423 123.232 69.3363 123.525L69.1687 123.622C69.0024 123.719 68.8645 123.857 68.7687 124.024C68.5733 124.363 68.2113 124.573 67.8194 124.573H66.4241C65.7585 124.573 65.2188 124.033 65.2188 123.368V122.624C65.2188 122.369 65.012 122.162 64.7568 122.162C64.5017 122.162 64.2948 121.955 64.2948 121.7V121.235C64.2948 121.053 64.2419 120.876 64.1424 120.725L62.6041 118.384C62.4997 118.225 62.3741 118.081 62.2307 117.957L61.8052 117.587C60.9713 116.862 59.6746 117.141 59.2128 118.145C58.6168 119.181 57.6671 119.968 56.5379 120.361L55.9787 120.555L55.3808 120.815C55.1816 120.902 54.9503 120.866 54.7864 120.724C54.6634 120.617 54.5927 120.462 54.5927 120.299V120.27C54.5927 120.193 54.5786 120.117 54.5512 120.045L54.3449 119.507C54.2159 119.17 53.8927 118.948 53.5322 118.948C53.3223 118.948 53.1195 119.024 52.9611 119.162L52.7901 119.31C52.4678 119.591 52.2827 119.997 52.2827 120.424V121.7C52.2827 121.955 52.0758 122.162 51.8207 122.162C51.5655 122.162 51.3587 122.369 51.3587 122.624V123.845C51.3587 124.247 51.0326 124.573 50.6305 124.573C50.5022 124.573 50.3762 124.539 50.2652 124.475L49.5573 124.064C49.2767 123.902 48.9173 123.998 48.7556 124.279C48.6511 124.461 48.4574 124.573 48.2477 124.573H48.0786C47.5937 124.573 47.2006 124.18 47.2006 123.695V118.86C47.2006 118.417 46.9649 118.008 46.582 117.786L46.5057 117.742C46.0923 117.502 45.5724 117.552 45.2118 117.865C45.0049 118.045 44.8714 118.295 44.8366 118.567L44.0846 124.453C44.0171 124.981 43.5677 125.376 43.0352 125.376C42.5091 125.376 42.063 125.763 41.9881 126.284L41.2864 131.166C41.2337 131.532 40.9195 131.805 40.5491 131.805C40.3694 131.805 40.1962 131.869 40.0607 131.987L37.9605 133.814C37.0359 134.618 33.691 131.194 31.355 128.481C30.6769 127.693 29.4664 127.633 28.7369 128.373L27.8289 129.294C27.5676 129.559 27.1322 129.532 26.9058 129.237C26.6577 128.913 26.1693 128.916 25.9248 129.243C24.4454 131.218 22.1207 134.215 21.7903 134.215C20.7539 134.215 19.7298 134.645 19.4732 135.649L19.1186 137.037C19.0519 137.298 19.007 137.606 18.7625 137.718C18.6202 137.783 18.4068 137.831 18.0942 137.831C17.355 137.831 17.1702 137.028 17.1702 136.626V135.519C17.1702 135.243 16.9465 135.019 16.6705 135.019C16.4258 135.019 16.2171 134.842 16.1774 134.6L15.934 133.118C15.8476 132.592 15.3931 132.206 14.8602 132.206C14.3273 132.206 13.8728 131.821 13.7864 131.295L12.666 124.475C12.5889 124.005 12.5502 123.53 12.5502 123.055V120.555C12.5502 120.153 11.6261 117.743 11.6261 117.341C11.6261 117.245 11.5989 117.1 11.5565 116.932C11.3566 116.141 10.779 115.511 10.0729 115.101C9.87682 114.988 9.6921 114.856 9.52108 114.707L7.93009 113.324C7.66785 113.096 7.176 113.301 6.84861 113.418C6.67617 113.479 6.54407 113.576 6.54407 113.725C6.54407 114.127 6.08207 114.931 6.08207 115.332Z" fill="url(#paint0_linear_3776_60051)"/>
<path d="M1 114.589C1.46201 114.857 2.66322 115.473 3.77204 115.794C5.15805 116.196 6.08207 115.392 6.08207 114.991C6.08207 114.589 6.54407 113.785 6.54407 113.384C6.54407 113.235 6.67617 113.138 6.84861 113.076C7.176 112.96 7.66785 112.754 7.93009 112.982V112.982C8.24104 113.252 9.00981 113.921 9.52108 114.365C9.6921 114.514 9.87682 114.646 10.0729 114.76V114.76C10.779 115.169 11.3566 115.799 11.5565 116.591C11.5989 116.758 11.6261 116.904 11.6261 116.999C11.6261 117.401 12.5502 119.812 12.5502 120.213C12.5502 120.466 12.5502 121.729 12.5502 122.713C12.5502 123.189 12.5889 123.663 12.666 124.133L13.7864 130.953C13.8728 131.479 14.3273 131.865 14.8602 131.865V131.865C15.3931 131.865 15.8476 132.251 15.934 132.776L16.1774 134.258C16.2171 134.5 16.4258 134.677 16.6705 134.677V134.677C16.9465 134.677 17.1702 134.901 17.1702 135.177V136.284C17.1702 136.686 17.355 137.489 18.0942 137.489C18.4068 137.489 18.6202 137.442 18.7625 137.376C19.007 137.264 19.0519 136.956 19.1186 136.695L19.4732 135.307C19.7298 134.303 20.7539 133.874 21.7903 133.874V133.874C22.1207 133.874 24.4454 130.876 25.9248 128.901C26.1693 128.575 26.6577 128.571 26.9058 128.895V128.895C27.1322 129.19 27.5676 129.217 27.8289 128.952L28.7369 128.031C29.4664 127.291 30.6769 127.352 31.355 128.139C33.691 130.852 37.0358 134.276 37.9605 133.472C38.878 132.674 39.6478 132.004 40.0607 131.645C40.1962 131.528 40.3695 131.463 40.5491 131.463V131.463C40.9195 131.463 41.2337 131.191 41.2864 130.824L41.9881 125.942C42.063 125.421 42.5091 125.035 43.0352 125.035V125.035C43.5677 125.035 44.0171 124.639 44.0846 124.111L44.8366 118.225C44.8714 117.953 45.0049 117.703 45.2118 117.523V117.523C45.5724 117.21 46.0923 117.16 46.5057 117.4L46.582 117.444C46.9649 117.666 47.2006 118.075 47.2006 118.518V123.353C47.2006 123.838 47.5937 124.231 48.0786 124.231H48.2477C48.4574 124.231 48.6511 124.119 48.7556 123.937V123.937C48.9173 123.656 49.2767 123.56 49.5573 123.722L50.2652 124.133C50.3762 124.197 50.5022 124.231 50.6305 124.231V124.231C51.0326 124.231 51.3587 123.905 51.3587 123.503V122.283C51.3587 122.027 51.5655 121.821 51.8207 121.821V121.821C52.0758 121.821 52.2827 121.614 52.2827 121.359V120.082C52.2827 119.655 52.4678 119.249 52.7901 118.969L52.9611 118.82C53.1195 118.682 53.3223 118.606 53.5322 118.606V118.606C53.8927 118.606 54.2159 118.829 54.3449 119.165L54.5512 119.703C54.5786 119.775 54.5927 119.851 54.5927 119.928V119.957C54.5927 120.12 54.6634 120.275 54.7864 120.382V120.382C54.9503 120.524 55.1816 120.56 55.3808 120.473L55.9787 120.213L56.5379 120.019C57.6671 119.626 58.6168 118.839 59.2128 117.803V117.803V117.803C59.6746 116.799 60.9713 116.52 61.8052 117.245L62.2307 117.615C62.3741 117.74 62.4997 117.883 62.6041 118.042L64.1424 120.383C64.2419 120.535 64.2948 120.712 64.2948 120.893V121.359C64.2948 121.614 64.5017 121.821 64.7568 121.821V121.821C65.012 121.821 65.2188 122.027 65.2188 122.283V123.026C65.2188 123.691 65.7585 124.231 66.4241 124.231H67.8194C68.2113 124.231 68.5733 124.022 68.7687 123.682V123.682C68.8645 123.515 69.0024 123.377 69.1687 123.28L69.3363 123.183C69.8423 122.89 70.4906 123.119 70.7 123.665V123.665C70.7416 123.774 70.7629 123.889 70.7629 124.005V126.581C70.7629 126.837 70.9698 127.043 71.2249 127.043V127.043C71.4801 127.043 71.6869 127.25 71.6869 127.505V130.197C71.6869 130.453 71.8938 130.659 72.1489 130.659H72.2092C72.4311 130.659 72.6109 130.839 72.6109 131.061V131.061C72.6109 131.283 72.7908 131.463 73.0127 131.463H73.535H73.6554C74.0992 131.463 74.459 131.103 74.459 130.659V130.659V129.856V129.454V129.173C74.459 128.662 74.8727 128.249 75.383 128.249V128.249V128.249C75.8933 128.249 76.307 128.662 76.307 129.173V131.001C76.307 131.256 76.5138 131.463 76.769 131.463H76.8292C77.0511 131.463 77.231 131.643 77.231 131.865V131.865V133.472V133.472C77.231 133.694 77.4109 133.874 77.6328 133.874H77.7532C77.9751 133.874 78.155 133.694 78.155 133.472V133.472C78.155 133.25 78.3349 133.07 78.5568 133.07H78.6773C78.8992 133.07 79.079 132.89 79.079 132.668V132.668C79.079 132.446 79.2589 132.266 79.4808 132.266H79.541C79.7962 132.266 80.003 132.06 80.003 131.804V131.463V130.659V130.318C80.003 130.063 80.2099 129.856 80.465 129.856H80.5253C80.7472 129.856 80.9271 129.676 80.9271 129.454V129.454C80.9271 129.232 81.1069 129.052 81.3288 129.052H81.8511H82.3733C82.5952 129.052 82.7751 129.232 82.7751 129.454V129.454C82.7751 129.676 82.955 129.856 83.1768 129.856H83.2371C83.4922 129.856 83.6991 129.649 83.6991 129.394V129.052V128.249V127.445V127.043V126.3C83.6991 126.045 83.9059 125.838 84.1611 125.838H84.2213C84.4432 125.838 84.6231 125.658 84.6231 125.436V125.436C84.6231 125.215 84.803 125.035 85.0249 125.035H85.0851C85.3403 125.035 85.5471 125.241 85.5471 125.497V125.838V126.642V127.787C85.5471 128.042 85.754 128.249 86.0091 128.249V128.249C86.2643 128.249 86.4711 128.456 86.4711 128.711V129.052V129.052C86.4711 129.496 86.8309 129.856 87.2747 129.856H87.8571V129.856C88.1123 129.856 88.3192 129.649 88.3192 129.394V127.847V127.847C88.3192 127.625 88.499 127.445 88.7209 127.445H88.7812C89.0363 127.445 89.2432 127.238 89.2432 126.983V126.642C89.2432 126.198 89.6029 125.838 90.0467 125.838H90.1672C90.6775 125.838 91.0912 126.252 91.0912 126.762V127.847V127.847C91.0912 128.069 91.2711 128.249 91.493 128.249H91.6134C91.8353 128.249 92.0152 128.429 92.0152 128.651V128.651C92.0152 128.872 92.1951 129.052 92.417 129.052H92.5374C92.7593 129.052 92.9392 128.872 92.9392 128.651V128.651C92.9392 128.429 93.1191 128.249 93.341 128.249H93.4216C93.6716 128.249 93.8801 128.058 93.9021 127.809L94.7249 118.507C94.747 118.257 95.0648 118.165 95.2175 118.364V118.364C95.3776 118.573 95.7113 118.46 95.7113 118.197V112.374C95.7113 112.092 96.0007 111.902 96.2596 112.015V112.015C96.4643 112.104 96.702 112.004 96.7819 111.796L96.881 111.537C97.0033 111.218 97.3495 111.046 97.6775 111.141L98.1602 111.281C98.3716 111.342 98.562 111.46 98.711 111.622L98.7777 111.695C99.4925 112.472 100.775 112.226 101.153 111.241V111.241C101.22 111.064 101.322 110.903 101.453 110.766C102.276 109.911 103.687 108.456 104.027 108.16C104.334 107.894 107.21 110.378 109.324 112.302C110.104 113.012 110.75 113.862 111.133 114.845C111.518 115.833 111.881 116.997 111.881 117.803C111.881 118.63 111.881 120.831 111.881 122.867C111.881 124.794 112.26 127.537 114.186 127.605C114.359 127.611 114.518 127.563 114.653 127.445V127.445C115.708 126.528 117.408 126.414 118.176 127.582L118.35 127.847C118.812 128.784 120.013 130.659 121.122 130.659C122.508 130.659 122.97 126.24 124.356 126.642C125.742 127.043 126.666 130.258 128.514 129.856C129.903 129.554 129.497 126.627 129.06 124.941C129.007 124.737 128.995 124.525 129.031 124.318L129.738 120.323C129.784 120.066 130.138 120.032 130.232 120.276V120.276C130.337 120.55 130.771 120.461 130.768 120.168C130.74 117.542 131.003 114.483 132.21 115.794C134.058 117.803 134.52 120.615 135.906 120.213C136.873 119.933 139.082 118.002 140.449 116.713C140.782 116.399 141.261 116.291 141.694 116.441V116.441C142.479 116.714 143.298 116.132 143.298 115.301V111.944C143.298 111.675 143.573 111.494 143.82 111.602V111.602C144.031 111.693 144.273 111.575 144.343 111.356C144.727 110.155 145.544 108.622 146.532 109.767C147.196 110.537 147.672 111.73 147.981 112.793C148.239 113.683 149.218 114.224 150.068 113.855V113.855C150.694 113.582 151.426 113.8 151.801 114.371L153 116.196" stroke="#D83535" stroke-width="1.64264"/>
<defs>
<linearGradient id="paint0_linear_3776_60051" x1="77" y1="100.447" x2="77" y2="179.193" gradientUnits="userSpaceOnUse">
<stop offset="0.356089" stop-color="#FD4141"/>
<stop offset="0.953856" stop-color="#F0F2F5"/>
</linearGradient>
</defs>
</svg>
