<svg width="154" height="176" viewBox="0 0 154 176" fill="none" xmlns="http://www.w3.org/2000/svg">
<path d="M1 8C1 3.58172 4.58172 0 9 0H145C149.418 0 153 3.58172 153 8V167C153 171.971 148.971 176 144 176H14C6.82029 176 1 170.18 1 163V8Z" fill="#1A1A1A"/>
<path d="M6.08207 106.373C6.08207 106.834 5.15805 107.757 3.77204 107.296C2.51175 106.876 1 107.69 1 109.018V168C1 172.418 4.58172 176 9 176H146.083C149.903 176 153 172.903 153 169.083V108.574C153 108.038 152.86 107.512 152.594 107.047L151.769 105.606C151.423 105.002 150.665 104.772 150.041 105.083C149.23 105.488 148.25 104.97 148.039 104.089C147.734 102.812 147.239 101.32 146.532 100.379C145.534 99.0511 144.711 100.859 144.332 102.242C144.271 102.466 144.021 102.584 143.814 102.481C143.577 102.362 143.298 102.535 143.298 102.8V106.992C143.298 107.8 142.482 108.353 141.732 108.053C141.285 107.875 140.776 107.996 140.45 108.349C139.083 109.828 136.873 112.046 135.906 112.368C134.52 112.829 134.058 109.601 132.21 107.296C130.998 105.784 130.738 109.329 130.768 112.35C130.771 112.647 130.328 112.726 130.234 112.445C130.149 112.191 129.78 112.222 129.739 112.487L129.019 117.16C128.99 117.344 128.999 117.531 129.042 117.713C129.486 119.633 129.922 123.083 128.514 123.434C126.666 123.895 125.742 120.206 124.356 119.745C122.97 119.284 122.508 124.356 121.122 124.356C120.013 124.356 118.812 122.204 118.35 121.128L118.16 120.798C117.45 119.558 115.664 119.658 114.653 120.667C114.354 120.966 113.944 120.872 113.521 120.593C112.201 119.722 111.881 117.979 111.881 116.398V109.601C111.881 108.569 111.429 107.025 110.999 105.822C110.69 104.957 110.178 104.184 109.544 103.519C107.416 101.284 104.345 98.2174 104.027 98.5345C103.684 98.8774 102.248 100.576 101.43 101.554C101.314 101.692 101.226 101.85 101.169 102.02L101.138 102.115C100.79 103.156 99.4264 103.4 98.7393 102.543L98.6917 102.483C98.5556 102.314 98.3735 102.187 98.1672 102.118L97.7401 101.976C97.3849 101.858 97.0012 102.05 96.8827 102.405L96.7713 102.738C96.6995 102.953 96.4539 103.055 96.2509 102.954C96.0029 102.83 95.7113 103.01 95.7113 103.287V110.098C95.7113 110.364 95.3666 110.468 95.219 110.247C95.0772 110.035 94.7471 110.121 94.7275 110.376L93.8974 121.147C93.8781 121.397 93.6697 121.59 93.419 121.59H93.4003C93.1457 121.59 92.9392 121.796 92.9392 122.051C92.9392 122.305 92.7319 122.512 92.4772 122.512C92.2225 122.512 92.0152 122.305 92.0152 122.051C92.0152 121.796 91.8079 121.59 91.5532 121.59C91.2985 121.59 91.0912 121.383 91.0912 121.128V119.747C91.0912 119.237 90.6766 118.823 90.1663 118.823C89.657 118.823 89.2432 119.236 89.2432 119.745V120.205C89.2432 120.461 89.0359 120.667 88.7807 120.667C88.526 120.667 88.3192 120.874 88.3192 121.128V122.972C88.3192 123.227 88.1123 123.434 87.8571 123.434H87.3933C86.884 123.434 86.4711 123.021 86.4711 122.512V122.052C86.4711 121.796 86.2643 121.59 86.0091 121.59C85.754 121.59 85.5471 121.383 85.5471 121.128V119.745V118.823V118.363C85.5471 118.108 85.3398 117.901 85.0847 117.901C84.83 117.901 84.6231 118.107 84.6231 118.362C84.6231 118.617 84.4162 118.823 84.1615 118.823C83.9064 118.823 83.6991 119.03 83.6991 119.285V120.206V120.667V121.59V122.512V122.972C83.6991 123.227 83.4918 123.434 83.2366 123.434C82.982 123.434 82.7751 123.228 82.7751 122.973C82.7751 122.718 82.5686 122.512 82.314 122.512H81.8511H81.3882C81.1335 122.512 80.9271 122.718 80.9271 122.973C80.9271 123.228 80.7202 123.434 80.4655 123.434C80.2103 123.434 80.003 123.641 80.003 123.896V124.356V125.278V125.739C80.003 125.994 79.7957 126.201 79.5406 126.201C79.2859 126.201 79.079 126.407 79.079 126.662C79.079 126.916 78.8717 127.123 78.617 127.123C78.3624 127.123 78.155 127.329 78.155 127.584C78.155 127.839 77.9477 128.045 77.693 128.045C77.4383 128.045 77.231 127.839 77.231 127.584V125.74C77.231 125.485 77.0241 125.278 76.7694 125.278C76.5143 125.278 76.307 125.072 76.307 124.816V122.514C76.307 122.003 75.8933 121.59 75.383 121.59C74.8727 121.59 74.459 122.003 74.459 122.514V122.973V123.434V124.356C74.459 124.866 74.0443 125.278 73.535 125.278H73.072C72.8174 125.278 72.6109 125.072 72.6109 124.817C72.6109 124.563 72.4041 124.356 72.1494 124.356C71.8942 124.356 71.6869 124.149 71.6869 123.894V120.668C71.6869 120.413 71.4801 120.206 71.2249 120.206C70.9698 120.206 70.7629 119.999 70.7629 119.744V116.679C70.7629 116.572 70.7457 116.466 70.7118 116.364C70.5047 115.744 69.7652 115.491 69.221 115.853L69.149 115.901C68.9956 116.003 68.8715 116.143 68.789 116.308L68.7759 116.334C68.5779 116.729 68.1737 116.979 67.7317 116.979H66.6022C65.8382 116.979 65.2188 116.359 65.2188 115.595V114.674C65.2188 114.419 65.012 114.212 64.7568 114.212C64.5017 114.212 64.2948 114.005 64.2948 113.75V113.119C64.2948 112.929 64.245 112.742 64.1504 112.576L62.5787 109.831C62.4912 109.678 62.3836 109.538 62.2589 109.413L61.8948 109.05C61.0619 108.219 59.6506 108.509 59.2128 109.601C58.6175 110.789 57.607 111.717 56.3729 112.21L55.9787 112.368L55.4252 112.644C55.2039 112.754 54.9367 112.711 54.7617 112.536C54.6535 112.428 54.5927 112.282 54.5927 112.129V112.036C54.5927 111.95 54.5788 111.865 54.5516 111.783L54.3166 111.08C54.2056 110.747 53.8943 110.523 53.5437 110.523C53.3279 110.523 53.1209 110.609 52.9681 110.761L52.7453 110.984C52.4491 111.279 52.2827 111.68 52.2827 112.099V113.75C52.2827 114.005 52.0758 114.212 51.8207 114.212C51.5655 114.212 51.3587 114.419 51.3587 114.674V116.269C51.3587 116.661 51.041 116.979 50.6491 116.979C50.5093 116.979 50.3725 116.937 50.2561 116.86L49.6041 116.426C49.309 116.23 48.9086 116.336 48.7498 116.653C48.6498 116.852 48.4456 116.979 48.2223 116.979H48.0575C47.5843 116.979 47.2006 116.595 47.2006 116.122V110.26C47.2006 109.848 46.9948 109.464 46.6522 109.236L46.5751 109.185C46.1327 108.89 45.5442 108.949 45.1681 109.324C44.9885 109.503 44.8753 109.738 44.8472 109.991L44.0695 116.976C44.0109 117.503 43.5659 117.901 43.0362 117.901C42.5119 117.901 42.0697 118.291 42.0045 118.811L41.2727 124.654C41.228 125.011 40.9248 125.278 40.5654 125.278C40.3766 125.278 40.1958 125.353 40.0622 125.486L37.9605 127.584C37.034 128.509 33.6777 124.562 31.3412 121.445C30.7018 120.592 29.4312 120.531 28.7367 121.34L27.8368 122.388C27.5844 122.682 27.1212 122.654 26.906 122.332C26.6719 121.981 26.1558 121.984 25.9255 122.337C24.4461 124.604 22.1208 128.045 21.7903 128.045C20.769 128.045 19.7493 128.45 19.5274 129.447L19.1017 131.359C19.0462 131.608 19.0254 131.902 18.8094 132.038C18.6686 132.126 18.4432 132.195 18.0942 132.195C17.355 132.195 17.1702 131.273 17.1702 130.812V129.462C17.1702 129.189 16.9486 128.967 16.6753 128.967C16.4291 128.967 16.2203 128.786 16.1854 128.542L15.9151 126.654C15.84 126.129 15.3904 125.74 14.8602 125.74C14.33 125.74 13.8804 125.35 13.8052 124.825L12.6309 116.62C12.5771 116.245 12.5502 115.866 12.5502 115.487V112.368C12.5502 111.906 11.6261 109.14 11.6261 108.679C11.6261 108.544 11.5851 108.323 11.5254 108.075C11.33 107.26 10.7855 106.582 10.0883 106.118C9.882 105.981 9.68996 105.824 9.5146 105.649L7.93009 104.068C7.66966 103.808 7.15276 104.038 6.81747 104.19C6.66052 104.26 6.54407 104.369 6.54407 104.529C6.54407 104.99 6.08207 105.912 6.08207 106.373Z" fill="url(#paint0_linear_3776_59974)"/>
<path d="M1 105.912C1.46201 106.22 2.66322 106.927 3.77204 107.296C5.15805 107.757 6.08207 106.834 6.08207 106.373C6.08207 105.912 6.54407 104.99 6.54407 104.529C6.54407 104.369 6.66052 104.26 6.81747 104.19C7.15276 104.038 7.66966 103.808 7.93009 104.068V104.068C8.23973 104.377 9.00333 105.139 9.5146 105.649C9.68996 105.824 9.882 105.981 10.0882 106.118V106.118C10.7855 106.582 11.33 107.26 11.5254 108.075C11.5851 108.323 11.6261 108.544 11.6261 108.679C11.6261 109.14 12.5502 111.906 12.5502 112.368C12.5502 112.68 12.5502 114.333 12.5502 115.487C12.5502 115.866 12.5771 116.245 12.6309 116.62L13.8052 124.825C13.8804 125.35 14.33 125.74 14.8602 125.74V125.74C15.3904 125.74 15.84 126.129 15.9151 126.654L16.1854 128.542C16.2203 128.786 16.4291 128.967 16.6753 128.967V128.967C16.9486 128.967 17.1702 129.189 17.1702 129.462V130.812C17.1702 131.273 17.355 132.195 18.0942 132.195C18.4432 132.195 18.6686 132.126 18.8094 132.038C19.0254 131.902 19.0462 131.608 19.1017 131.359L19.5274 129.447C19.7493 128.45 20.769 128.045 21.7903 128.045V128.045C22.1208 128.045 24.4461 124.604 25.9255 122.337C26.1558 121.984 26.6719 121.981 26.906 122.332V122.332C27.1212 122.654 27.5844 122.682 27.8368 122.388L28.7367 121.34C29.4312 120.531 30.7018 120.592 31.3412 121.445C33.6777 124.562 37.034 128.509 37.9605 127.584C38.8791 126.667 39.6497 125.898 40.0622 125.486C40.1958 125.353 40.3766 125.278 40.5654 125.278V125.278C40.9248 125.278 41.228 125.011 41.2727 124.654L42.0045 118.811C42.0697 118.291 42.5119 117.901 43.0362 117.901V117.901C43.5659 117.901 44.0109 117.503 44.0695 116.976L44.8472 109.991C44.8753 109.738 44.9885 109.503 45.1681 109.324V109.324C45.5442 108.949 46.1327 108.89 46.5751 109.185L46.6522 109.236C46.9948 109.464 47.2006 109.848 47.2006 110.26V116.122C47.2006 116.595 47.5843 116.979 48.0575 116.979H48.2223C48.4456 116.979 48.6498 116.852 48.7498 116.653V116.653C48.9086 116.336 49.309 116.23 49.6041 116.426L50.2561 116.86C50.3725 116.937 50.5093 116.979 50.6491 116.979V116.979C51.041 116.979 51.3587 116.661 51.3587 116.269V114.674C51.3587 114.419 51.5655 114.212 51.8207 114.212V114.212C52.0758 114.212 52.2827 114.005 52.2827 113.75V112.099C52.2827 111.68 52.4491 111.279 52.7453 110.984L52.9681 110.761C53.1209 110.609 53.3279 110.523 53.5437 110.523V110.523C53.8943 110.523 54.2056 110.747 54.3166 111.08L54.5516 111.783C54.5788 111.865 54.5927 111.95 54.5927 112.036V112.129C54.5927 112.282 54.6535 112.428 54.7617 112.536V112.536C54.9367 112.711 55.2039 112.754 55.4252 112.644L55.9787 112.368L56.3729 112.21C57.607 111.717 58.6175 110.789 59.2128 109.601V109.601V109.601C59.6506 108.509 61.0619 108.219 61.8948 109.05L62.2589 109.413C62.3836 109.538 62.4912 109.678 62.5787 109.831L64.1504 112.576C64.245 112.742 64.2948 112.929 64.2948 113.119V113.75C64.2948 114.005 64.5017 114.212 64.7568 114.212V114.212C65.012 114.212 65.2188 114.419 65.2188 114.674V115.595C65.2188 116.359 65.8382 116.979 66.6022 116.979H67.7317C68.1737 116.979 68.5779 116.729 68.7759 116.334L68.789 116.308C68.8715 116.143 68.9956 116.003 69.149 115.901L69.221 115.853C69.7652 115.491 70.5047 115.744 70.7118 116.364V116.364C70.7457 116.466 70.7629 116.572 70.7629 116.679V119.744C70.7629 119.999 70.9698 120.206 71.2249 120.206V120.206C71.4801 120.206 71.6869 120.413 71.6869 120.668V123.894C71.6869 124.149 71.8942 124.356 72.1494 124.356V124.356C72.4041 124.356 72.6109 124.563 72.6109 124.817V124.817C72.6109 125.072 72.8174 125.278 73.072 125.278H73.535V125.278C74.0443 125.278 74.459 124.866 74.459 124.356V124.356V123.434V122.973V122.514C74.459 122.003 74.8727 121.59 75.383 121.59V121.59V121.59C75.8933 121.59 76.307 122.003 76.307 122.514V124.816C76.307 125.072 76.5143 125.278 76.7694 125.278V125.278C77.0241 125.278 77.231 125.485 77.231 125.74V125.74V127.584V127.584C77.231 127.839 77.4383 128.045 77.693 128.045V128.045C77.9477 128.045 78.155 127.839 78.155 127.584V127.584C78.155 127.329 78.3624 127.123 78.617 127.123V127.123C78.8717 127.123 79.079 126.916 79.079 126.662V126.662C79.079 126.407 79.2859 126.201 79.5406 126.201V126.201C79.7957 126.201 80.003 125.994 80.003 125.739V125.278V124.356V123.896C80.003 123.641 80.2103 123.434 80.4655 123.434V123.434C80.7202 123.434 80.9271 123.228 80.9271 122.973V122.973C80.9271 122.718 81.1335 122.512 81.3882 122.512H81.8511H82.314C82.5686 122.512 82.7751 122.718 82.7751 122.973V122.973C82.7751 123.228 82.982 123.434 83.2366 123.434V123.434C83.4918 123.434 83.6991 123.227 83.6991 122.972V122.512V121.59V120.667V120.206V119.285C83.6991 119.03 83.9064 118.823 84.1615 118.823V118.823C84.4162 118.823 84.6231 118.617 84.6231 118.362V118.362C84.6231 118.107 84.83 117.901 85.0847 117.901V117.901C85.3398 117.901 85.5471 118.108 85.5471 118.363V118.823V119.745V121.128C85.5471 121.383 85.754 121.59 86.0091 121.59V121.59C86.2643 121.59 86.4711 121.796 86.4711 122.052V122.512V122.512C86.4711 123.021 86.884 123.434 87.3933 123.434H87.8571V123.434C88.1123 123.434 88.3192 123.227 88.3192 122.972V121.128V121.128C88.3192 120.874 88.526 120.667 88.7807 120.667V120.667C89.0359 120.667 89.2432 120.461 89.2432 120.205V119.745C89.2432 119.236 89.657 118.823 90.1663 118.823V118.823C90.6766 118.823 91.0912 119.237 91.0912 119.747V121.128V121.128C91.0912 121.383 91.2985 121.59 91.5532 121.59V121.59C91.8079 121.59 92.0152 121.796 92.0152 122.051V122.051C92.0152 122.305 92.2225 122.512 92.4772 122.512V122.512C92.7319 122.512 92.9392 122.305 92.9392 122.051V122.051C92.9392 121.796 93.1457 121.59 93.4003 121.59H93.419C93.6697 121.59 93.8781 121.397 93.8974 121.147L94.7275 110.376C94.7471 110.121 95.0772 110.035 95.219 110.247V110.247C95.3666 110.468 95.7113 110.364 95.7113 110.098V103.287C95.7113 103.01 96.0029 102.83 96.2509 102.954V102.954C96.4539 103.055 96.6995 102.953 96.7713 102.738L96.8827 102.405C97.0012 102.05 97.3849 101.858 97.7401 101.976L98.1672 102.118C98.3735 102.187 98.5556 102.314 98.6916 102.483L98.7393 102.543C99.4264 103.4 100.79 103.156 101.138 102.115L101.169 102.02C101.226 101.85 101.314 101.692 101.43 101.554C102.248 100.576 103.684 98.8774 104.027 98.5345C104.345 98.2174 107.416 101.284 109.544 103.519C110.178 104.184 110.69 104.957 110.999 105.822C111.429 107.025 111.881 108.569 111.881 109.601C111.881 110.686 111.881 113.831 111.881 116.398C111.881 117.979 112.201 119.722 113.521 120.593C113.944 120.872 114.354 120.966 114.653 120.667V120.667C115.664 119.658 117.45 119.558 118.16 120.798L118.35 121.128C118.812 122.204 120.013 124.356 121.122 124.356C122.508 124.356 122.97 119.284 124.356 119.745C125.742 120.206 126.666 123.895 128.514 123.434C129.922 123.083 129.486 119.633 129.042 117.713C129 117.531 128.99 117.344 129.019 117.16L129.739 112.487C129.78 112.222 130.149 112.191 130.233 112.445V112.445C130.328 112.726 130.771 112.647 130.768 112.35C130.738 109.329 130.998 105.784 132.21 107.296C134.058 109.601 134.52 112.829 135.906 112.368C136.873 112.046 139.083 109.828 140.45 108.349C140.776 107.996 141.285 107.875 141.732 108.053V108.053C142.482 108.353 143.298 107.8 143.298 106.992V102.8C143.298 102.535 143.577 102.362 143.814 102.481V102.481C144.021 102.584 144.271 102.466 144.332 102.242C144.711 100.859 145.534 99.0511 146.532 100.379C147.239 101.32 147.734 102.812 148.039 104.089C148.25 104.97 149.23 105.488 150.041 105.083V105.083C150.665 104.772 151.423 105.002 151.769 105.606L153 107.756" stroke="#FF4C4C" stroke-width="1.5"/>
<defs>
<linearGradient id="paint0_linear_3776_59974" x1="77" y1="89.2897" x2="77" y2="179.666" gradientUnits="userSpaceOnUse">
<stop stop-color="#3E0000"/>
<stop offset="1" stop-color="#1E1E1E"/>
</linearGradient>
</defs>
</svg>
