<svg width="131" height="41" viewBox="0 0 131 41" fill="none" xmlns="http://www.w3.org/2000/svg">
<rect x="0.765137" width="130.235" height="40.0723" rx="3.87797" fill="#151515"/>
<g clip-path="url(#clip0_8576_29191)">
<path d="M28.2138 26.1139L22.1936 32.1484L28.2282 26.1282C31.5429 22.8183 34.258 20.1033 34.258 20.0985C34.258 20.0889 34.2532 20.0841 34.2436 20.0841C34.2388 20.0841 31.5237 22.7992 28.2138 26.1139Z" fill="#C14015"/>
<path d="M28.2665 26.0994L22.2463 32.1195L22.3902 32.1723C22.774 32.3258 23.3592 32.3066 23.6998 32.1387C23.9013 32.0332 38.1579 24.0606 38.1914 24.0319C38.201 24.0223 37.328 23.13 36.2487 22.0507L34.2819 20.084L28.2665 26.0994Z" fill="#EC4015"/>
<path d="M36.2247 22.0268C37.3184 23.1205 38.2251 24.0176 38.2395 24.0176C38.2539 24.0176 37.3664 23.1205 36.2727 22.0268C35.179 20.9331 34.2724 20.0361 34.258 20.0361C34.2436 20.0361 35.131 20.9331 36.2247 22.0268Z" fill="#EC6B15"/>
<path d="M34.4305 20.1413C34.7327 20.4867 38.2585 23.9501 38.3208 23.9597C38.3592 23.9693 38.4072 23.9597 38.4264 23.9357C38.4408 23.9117 39.4481 23.3361 40.6618 22.6549C41.9617 21.9258 42.9451 21.3454 43.0506 21.2446C43.2761 21.0288 43.5064 20.573 43.5447 20.2612L43.5783 20.0358H38.9588H34.3394L34.4305 20.1413Z" fill="#EC9615"/>
<path d="M36.2679 18.0499L34.282 20.0358L34.4019 20.1413L34.517 20.2517L34.4307 20.1413L34.3395 20.0358H38.959H43.5785L43.5449 20.2613C43.5017 20.5875 43.2619 21.048 43.022 21.2638C42.9117 21.3694 41.8612 21.9882 40.6332 22.6741C39.4291 23.3457 38.4553 23.9022 38.4745 23.9118C38.5225 23.9309 42.787 21.5325 42.9933 21.3742C43.3866 21.0672 43.6457 20.4435 43.5977 19.9207C43.5353 19.2539 43.2715 18.8605 42.6191 18.4624C42.4752 18.3809 42.3505 18.3089 42.3361 18.3089C42.3265 18.3089 42.2353 18.2561 42.1346 18.1986C42.0387 18.1362 41.7844 17.9923 41.5734 17.8772C41.3623 17.7668 41.1272 17.6325 41.0457 17.5894C40.9689 17.5414 40.7627 17.4263 40.59 17.3255C39.8369 16.8938 39.0022 16.4333 38.6424 16.2558L38.2539 16.0591L36.2679 18.0499Z" fill="#ECC115"/>
<path d="M37.0497 22.7942C37.7261 23.4754 38.2873 24.027 38.2969 24.0175C38.3065 24.0031 37.7501 23.4418 37.0641 22.7702L35.8169 21.547L37.0497 22.7942Z" fill="#ECC115"/>
<path d="M36.2246 18.0549L34.2339 20.0601L36.239 18.0693C38.1002 16.2177 38.2585 16.0546 38.225 16.0546C38.2202 16.0546 37.3183 16.9564 36.2246 18.0549Z" fill="#6BC140"/>
<path d="M22.6734 7.80369C22.5679 7.82288 22.4191 7.86605 22.3424 7.89963L22.1985 7.9524L28.2283 13.9822L34.2581 20.012L36.2248 18.0452C37.3041 16.9659 38.1916 16.0641 38.1916 16.0497C38.1916 16.0305 37.8318 15.8194 37.3905 15.5748C36.9444 15.3301 36.3495 14.9943 36.0569 14.8312C35.7691 14.6681 34.3444 13.8671 32.8909 13.0564C31.4422 12.2457 29.9936 11.435 29.677 11.2575C26.1464 9.27636 23.8007 7.96679 23.6376 7.89963C23.3977 7.7941 22.9372 7.74613 22.6734 7.80369Z" fill="#15C16B"/>
<path d="M32.3153 21.9645L30.3965 23.8977L32.3297 21.9789C33.3898 20.9236 34.258 20.0553 34.258 20.0505C34.258 20.017 34.0997 20.1705 32.3153 21.9645Z" fill="#4096C1"/>
<path d="M26.247 28.0325L22.2896 32.0044L26.2614 28.0469C28.4441 25.8691 30.2285 24.0846 30.2285 24.0798C30.2285 24.0702 30.2237 24.0654 30.2141 24.0654C30.2093 24.0654 28.4249 25.8499 26.247 28.0325Z" fill="#4096C1"/>
<path d="M21.2679 25.4902C21.2823 30.6085 21.2871 30.9635 21.3686 31.1794C21.4166 31.3041 21.5077 31.4816 21.5701 31.5727C21.6948 31.7598 22.0546 32.0764 22.1361 32.0764C22.1697 32.0764 24.904 29.3661 28.2139 26.0562L34.2341 20.036H27.7438H21.2583L21.2679 25.4902Z" fill="#4096EC"/>
<path d="M21.9203 8.11088C21.8004 8.20202 21.6373 8.37951 21.5557 8.50903C21.2487 8.98873 21.2583 8.76327 21.2583 14.6731V20.0361H27.7678H34.2821L28.2379 13.992C24.9136 10.6677 22.1794 7.94779 22.165 7.94779C22.1506 7.94779 22.0402 8.01974 21.9203 8.11088Z" fill="#40C1EC"/>
</g>
<path d="M57.9262 10.7155V11.6333H53.1951V13.9472C53.1951 14.1971 53.2339 14.3824 53.3115 14.503C53.389 14.6151 53.5097 14.6711 53.6734 14.6711C53.8371 14.6711 54.0052 14.6194 54.1775 14.5159C54.3585 14.4125 54.5524 14.2488 54.7592 14.0247C54.9661 13.8007 55.1901 13.512 55.4314 13.1587L56.207 13.0423C56.4828 13.4474 56.6939 13.8653 56.8404 14.2962C56.9955 14.7271 57.0731 15.158 57.0731 15.5889C57.0731 16.1318 56.9524 16.6187 56.7111 17.0496C56.4785 17.4804 56.1294 17.8208 55.6641 18.0708C55.2073 18.3207 54.6472 18.4456 53.9836 18.4456C53.4149 18.4456 52.8849 18.3465 52.3937 18.1483C51.9025 17.9501 51.45 17.6312 51.0364 17.1917C50.6227 16.7436 50.2436 16.1576 49.8988 15.4337C49.5541 14.7012 49.2439 13.805 48.9681 12.745L49.9506 12.4865C50.2608 13.6843 50.6012 14.6495 50.9717 15.382C51.3509 16.1059 51.7818 16.6359 52.2644 16.972C52.747 17.2995 53.3028 17.4632 53.9319 17.4632C54.6213 17.4632 55.1513 17.2908 55.5219 16.9461C55.9011 16.6014 56.0907 16.1576 56.0907 15.6147C56.0907 15.2269 56.0346 14.8951 55.9226 14.6194C55.8192 14.3436 55.6813 14.1152 55.509 13.9343L56.1036 13.6886C55.8451 14.1282 55.5779 14.4901 55.3021 14.7745C55.035 15.0589 54.7635 15.2743 54.4878 15.4208C54.2206 15.5587 53.9535 15.6276 53.6863 15.6276C53.4881 15.6276 53.3028 15.6018 53.1305 15.5501C52.9581 15.4897 52.8116 15.4036 52.691 15.2915C52.5531 15.1709 52.4368 15.0028 52.342 14.7874C52.2472 14.5633 52.1998 14.1928 52.1998 13.6757V11.6333H48.464V10.7155H57.9262ZM61.3636 10.7155V11.6333H60.0063V18.7559H59.011V12.6933C58.9075 12.4003 58.7524 12.1504 58.5456 11.9436C58.3474 11.7367 58.0889 11.6333 57.77 11.6333H57.6666V10.7155H57.8605C58.0673 10.7155 58.2828 10.7845 58.5068 10.9224C58.7309 11.0516 58.9118 11.2541 59.0497 11.5299C59.0411 11.4868 59.0325 11.3877 59.0239 11.2326C59.0153 11.0775 59.011 10.9439 59.011 10.8319V9.86239H59.709L59.9934 10.7155H61.3636ZM67.7962 10.7155C67.7875 10.3622 67.7014 10.108 67.5376 9.95287C67.3825 9.79776 67.124 9.7202 66.762 9.7202H64.9523C64.3922 9.7202 63.957 9.68142 63.6467 9.60386C63.3451 9.5263 63.0866 9.40565 62.8711 9.24191C62.6385 9.06956 62.4618 8.84981 62.3412 8.58266C62.2291 8.30689 62.1731 7.99666 62.1731 7.65195C62.1731 7.53992 62.1774 7.42789 62.186 7.31586C62.2033 7.20383 62.2205 7.08749 62.2377 6.96684L63.1943 7.03147C63.1771 7.13489 63.1641 7.22537 63.1555 7.30293C63.1469 7.38049 63.1426 7.45374 63.1426 7.52268C63.1426 7.71227 63.1598 7.88032 63.1943 8.02682C63.2374 8.17332 63.302 8.29397 63.3882 8.38876C63.5089 8.52665 63.6812 8.63006 63.9053 8.699C64.1293 8.75932 64.4568 8.78949 64.8877 8.78949H66.4906C66.9473 8.78949 67.3093 8.82396 67.5764 8.8929C67.8436 8.96184 68.0719 9.0868 68.2615 9.26777C68.408 9.40565 68.5201 9.59524 68.5976 9.83654C68.6752 10.0692 68.7183 10.3622 68.7269 10.7155H67.7962ZM70.5624 10.7155V11.6333H65.8313V13.9472C65.8313 14.1971 65.8701 14.3824 65.9477 14.503C66.0252 14.6151 66.1459 14.6711 66.3096 14.6711C66.4733 14.6711 66.6414 14.6194 66.8137 14.5159C66.9947 14.4125 67.1886 14.2488 67.3954 14.0247C67.6023 13.8007 67.8263 13.512 68.0676 13.1587L68.8432 13.0423C69.119 13.4474 69.3301 13.8653 69.4766 14.2962C69.6317 14.7271 69.7093 15.158 69.7093 15.5889C69.7093 16.1318 69.5886 16.6187 69.3473 17.0496C69.1147 17.4804 68.7657 17.8208 68.3003 18.0708C67.8436 18.3207 67.2834 18.4456 66.6198 18.4456C66.0511 18.4456 65.5211 18.3465 65.0299 18.1483C64.5387 17.9501 64.0862 17.6312 63.6726 17.1917C63.2589 16.7436 62.8798 16.1576 62.5351 15.4337C62.1903 14.7012 61.8801 13.805 61.6043 12.745L62.5868 12.4865C62.897 13.6843 63.2374 14.6495 63.608 15.382C63.9871 16.1059 64.418 16.6359 64.9006 16.972C65.3832 17.2995 65.939 17.4632 66.5681 17.4632C67.2576 17.4632 67.7875 17.2908 68.1581 16.9461C68.5373 16.6014 68.7269 16.1576 68.7269 15.6147C68.7269 15.2269 68.6709 14.8951 68.5588 14.6194C68.4554 14.3436 68.3175 14.1152 68.1452 13.9343L68.7398 13.6886C68.4813 14.1282 68.2141 14.4901 67.9384 14.7745C67.6712 15.0589 67.3997 15.2743 67.124 15.4208C66.8568 15.5587 66.5897 15.6276 66.3225 15.6276C66.1243 15.6276 65.939 15.6018 65.7667 15.5501C65.5943 15.4897 65.4478 15.4036 65.3272 15.2915C65.1893 15.1709 65.073 15.0028 64.9782 14.7874C64.8834 14.5633 64.836 14.1928 64.836 13.6757V11.6333H61.1002V10.7155H70.5624ZM78.369 10.7155V11.6333H77.0117V18.7559H76.0163V15.6147L76.2232 16.3386C75.9388 15.9422 75.6285 15.5845 75.2925 15.2657C74.9564 14.9468 74.6117 14.6926 74.2583 14.503C73.905 14.3134 73.5603 14.2186 73.2242 14.2186C72.9054 14.2186 72.6339 14.3048 72.4098 14.4772C72.1944 14.6409 72.0867 14.8865 72.0867 15.214C72.0867 15.4725 72.1772 15.6966 72.3581 15.8862C72.5391 16.0671 72.8192 16.2309 73.1984 16.3774L72.7071 17.2952C72.1815 17.0797 71.7678 16.791 71.4662 16.4291C71.1732 16.0585 71.0267 15.6406 71.0267 15.1752C71.0267 14.7529 71.1258 14.4039 71.324 14.1282C71.5308 13.8438 71.7894 13.6326 72.0996 13.4948C72.4185 13.3569 72.7416 13.2879 73.0691 13.2879C73.5172 13.2879 73.9265 13.3655 74.2971 13.5206C74.6677 13.6757 75.0124 13.8869 75.3312 14.154C75.6587 14.4212 75.9689 14.7314 76.2619 15.0847L76.081 15.1364C76.0551 14.9382 76.0379 14.7443 76.0293 14.5547C76.0207 14.3565 76.0163 14.1583 76.0163 13.9601V11.6333H70.3028V10.7155H78.369ZM82.8353 10.7155V11.6333H82.5768C82.3096 11.6937 82.0209 11.8272 81.7107 12.0341C81.4005 12.2323 81.1075 12.4951 80.8317 12.8226C80.5559 13.1414 80.3276 13.5163 80.1466 13.9472C79.9742 14.3781 79.888 14.852 79.888 15.3691C79.888 15.9896 79.9785 16.4851 80.1595 16.8557C80.3491 17.2176 80.5818 17.4761 80.8575 17.6312C81.1333 17.7864 81.4091 17.8639 81.6848 17.8639C81.9003 17.8639 82.0813 17.8424 82.2278 17.7993C82.3743 17.7562 82.5423 17.6786 82.7319 17.5666L83.1843 18.3551C82.9603 18.5275 82.7147 18.6481 82.4475 18.7171C82.1804 18.786 81.9132 18.8205 81.6461 18.8205C81.1031 18.8205 80.6206 18.6783 80.1983 18.3939C79.7846 18.1095 79.4572 17.7131 79.2159 17.2047C78.9832 16.6876 78.8668 16.0844 78.8668 15.395C78.8668 14.6883 79.0004 14.0506 79.2676 13.4818C79.5347 12.9044 79.8924 12.4175 80.3405 12.0211C80.7972 11.6247 81.3014 11.336 81.8529 11.155L81.0256 11.5816C80.8705 11.5989 80.7024 11.6118 80.5214 11.6204C80.3405 11.629 80.138 11.6333 79.9139 11.6333H78.1042V10.7155H82.8353ZM92.2808 10.7155V11.6333H90.9235V18.7559H89.9281V14.4255L90.0057 14.7616C89.8161 14.4858 89.6136 14.266 89.3982 14.1023C89.1913 13.9386 88.963 13.8567 88.713 13.8567C88.5838 13.8567 88.4502 13.8825 88.3123 13.9343C88.1831 13.9773 88.071 14.0635 87.9762 14.1928C87.8901 14.3221 87.847 14.5203 87.847 14.7874C87.847 14.8822 87.847 14.9684 87.847 15.0459C87.8556 15.1149 87.8642 15.1838 87.8728 15.2528L87.0326 15.3174C86.9981 14.9641 86.9033 14.6668 86.7482 14.4255C86.5931 14.1755 86.4035 13.986 86.1794 13.8567C85.9554 13.7274 85.7141 13.6628 85.4556 13.6628C85.2229 13.6628 85.0247 13.7102 84.8609 13.805C84.6972 13.8912 84.5722 14.0118 84.4861 14.1669C84.3999 14.3134 84.3568 14.4815 84.3568 14.6711C84.3568 15.0158 84.4818 15.3088 84.7317 15.5501C84.9902 15.7914 85.3521 15.9939 85.8175 16.1576L85.4685 17.1142C85.0548 16.9849 84.6843 16.8083 84.3568 16.5842C84.0293 16.3601 83.7708 16.0844 83.5812 15.7569C83.3916 15.4294 83.2968 15.0502 83.2968 14.6194C83.2968 14.2316 83.3916 13.8998 83.5812 13.624C83.7708 13.3396 84.025 13.1199 84.3439 12.9648C84.6627 12.8096 85.0117 12.7321 85.3909 12.7321C85.8477 12.7321 86.2398 12.8183 86.5672 12.9906C86.8947 13.1544 87.1963 13.4215 87.4721 13.7921L87.2782 13.805C87.3644 13.5206 87.5281 13.3052 87.7694 13.1587C88.0193 13.0035 88.2779 12.926 88.545 12.926C88.8552 12.926 89.1224 12.9863 89.3464 13.107C89.5705 13.2276 89.8161 13.4 90.0833 13.624L89.9669 13.8179C89.9583 13.6369 89.9497 13.456 89.9411 13.275C89.9325 13.094 89.9281 12.9087 89.9281 12.7192V11.6333H82.5729V10.7155H92.2808ZM95.725 10.7155V11.6333H94.3677V18.7559H93.3724V12.6933C93.2689 12.4003 93.1138 12.1504 92.907 11.9436C92.7088 11.7367 92.4503 11.6333 92.1314 11.6333H92.028V10.7155H92.2219C92.4287 10.7155 92.6442 10.7845 92.8682 10.9224C93.0923 11.0516 93.2733 11.2541 93.4111 11.5299C93.4025 11.4868 93.3939 11.3877 93.3853 11.2326C93.3767 11.0775 93.3724 10.9439 93.3724 10.8319V9.86239H94.0704L94.3548 10.7155H95.725ZM104.924 10.7155V11.6333H100.193V13.9472C100.193 14.1971 100.232 14.3824 100.309 14.503C100.387 14.6151 100.507 14.6711 100.671 14.6711C100.835 14.6711 101.003 14.6194 101.175 14.5159C101.356 14.4125 101.55 14.2488 101.757 14.0247C101.964 13.8007 102.188 13.512 102.429 13.1587L103.205 13.0423C103.48 13.4474 103.692 13.8653 103.838 14.2962C103.993 14.7271 104.071 15.158 104.071 15.5889C104.071 16.1318 103.95 16.6187 103.709 17.0496C103.476 17.4804 103.127 17.8208 102.662 18.0708C102.205 18.3207 101.645 18.4456 100.981 18.4456C100.412 18.4456 99.8825 18.3465 99.3913 18.1483C98.9001 17.9501 98.4477 17.6312 98.034 17.1917C97.6204 16.7436 97.2412 16.1576 96.8965 15.4337C96.5518 14.7012 96.2415 13.805 95.9658 12.745L96.9482 12.4865C97.2584 13.6843 97.5988 14.6495 97.9694 15.382C98.3485 16.1059 98.7794 16.6359 99.262 16.972C99.7446 17.2995 100.3 17.4632 100.93 17.4632C101.619 17.4632 102.149 17.2908 102.52 16.9461C102.899 16.6014 103.088 16.1576 103.088 15.6147C103.088 15.2269 103.032 14.8951 102.92 14.6194C102.817 14.3436 102.679 14.1152 102.507 13.9343L103.101 13.6886C102.843 14.1282 102.576 14.4901 102.3 14.7745C102.033 15.0589 101.761 15.2743 101.485 15.4208C101.218 15.5587 100.951 15.6276 100.684 15.6276C100.486 15.6276 100.3 15.6018 100.128 15.5501C99.9557 15.4897 99.8092 15.4036 99.6886 15.2915C99.5507 15.1709 99.4344 15.0028 99.3396 14.7874C99.2448 14.5633 99.1974 14.1928 99.1974 13.6757V11.6333H95.4616V10.7155H104.924Z" fill="white"/>
<path d="M54.9299 25.5169V26.0675H52.4092V26.5484V26.6725V30.3411H51.812C51.662 30.036 51.4526 29.749 51.1837 29.4802C50.9149 29.2113 50.6072 28.9864 50.2608 28.8054C49.9195 28.6192 49.5602 28.5029 49.1827 28.4564L48.8802 27.7118C49.3818 27.4222 49.8833 27.1637 50.3849 26.9362C50.8864 26.7087 51.419 26.507 51.9826 26.3312L51.812 26.657V26.0675H48.5157V25.5169H54.9299ZM51.812 26.719L51.9748 26.944C51.7111 27.0164 51.4371 27.112 51.1527 27.2309C50.8735 27.3499 50.5995 27.474 50.3306 27.6032C50.0669 27.7325 49.8239 27.8592 49.6015 27.9833C49.8911 28.0401 50.1884 28.1487 50.4935 28.309C50.8037 28.4693 51.0855 28.6658 51.3389 28.8985C51.5974 29.126 51.7887 29.3742 51.9128 29.643L51.8508 29.6585C51.8404 29.5396 51.8301 29.4207 51.8197 29.3018C51.8146 29.1828 51.812 29.0407 51.812 28.8752V26.719ZM54.4955 28.1074C54.4955 28.278 54.4619 28.4409 54.3947 28.596C54.3275 28.7459 54.2163 28.87 54.0612 28.9683C53.9061 29.0665 53.6993 29.1156 53.4407 29.1156C53.358 29.1156 53.2778 29.113 53.2003 29.1079C53.1279 29.1027 53.0555 29.0924 52.9831 29.0768L53.0297 28.5184C53.0607 28.5236 53.0969 28.5288 53.1382 28.5339C53.1848 28.5339 53.2365 28.5339 53.2934 28.5339C53.5415 28.5339 53.7018 28.4874 53.7742 28.3943C53.8518 28.2961 53.8906 28.1797 53.8906 28.0453C53.8906 27.7713 53.7561 27.5386 53.4873 27.3473C53.2236 27.1508 52.8306 27.0164 52.3084 26.944L52.3316 26.3623C52.7298 26.4036 53.0917 26.5045 53.4175 26.6648C53.7432 26.8199 54.0043 27.0215 54.2008 27.2697C54.3973 27.5127 54.4955 27.7919 54.4955 28.1074ZM61.1551 25.5169V26.0675H58.7352V28.1074L58.712 28.2159C58.7223 28.3142 58.7275 28.415 58.7275 28.5184C58.7327 28.6218 58.7352 28.7252 58.7352 28.8287V30.3411H58.138C57.9829 30.0308 57.7683 29.7464 57.4943 29.4879C57.2254 29.2242 56.9152 29.0019 56.5636 28.8209C56.212 28.6399 55.8371 28.5184 55.439 28.4564L55.1365 27.7118C55.6329 27.4119 56.1448 27.1404 56.6722 26.8974C57.2047 26.6544 57.7528 26.4476 58.3164 26.277L58.138 26.6027V26.0675H54.772V25.5169H61.1551ZM58.138 26.6648L58.3009 26.8819C57.9079 27.0112 57.4943 27.1715 57.06 27.3628C56.6256 27.5489 56.2249 27.7558 55.8578 27.9833C56.137 28.0453 56.4343 28.1513 56.7497 28.3013C57.0651 28.4512 57.3573 28.6399 57.6261 28.8674C57.895 29.0949 58.1018 29.3586 58.2466 29.6585H58.1768C58.1665 29.5396 58.1561 29.4207 58.1458 29.3018C58.1406 29.1828 58.138 29.0407 58.138 28.8752V26.6648ZM59.7978 29.0691C59.6065 29.0691 59.4255 29.0303 59.2549 28.9528C59.0843 28.8752 58.9291 28.7485 58.7895 28.5727C58.6499 28.3969 58.5284 28.1668 58.425 27.8824L58.712 27.355C58.7895 27.6291 58.8774 27.854 58.9757 28.0298C59.0791 28.2004 59.1928 28.3271 59.3169 28.4098C59.441 28.4926 59.5755 28.5339 59.7202 28.5339C59.8392 28.5339 59.9503 28.4977 60.0537 28.4253C60.1572 28.3478 60.2089 28.2159 60.2089 28.0298C60.2089 27.9212 60.1856 27.8204 60.1391 27.7273C60.0925 27.6342 60.015 27.5541 59.9064 27.4869C59.7978 27.4145 59.6504 27.3602 59.4643 27.324L59.5806 26.7501C59.7978 26.7914 59.9969 26.8664 60.1778 26.975C60.364 27.0784 60.5139 27.2154 60.6277 27.3861C60.7414 27.5567 60.7983 27.7687 60.7983 28.022C60.7983 28.3374 60.7078 28.5908 60.5269 28.7821C60.3459 28.9734 60.1029 29.0691 59.7978 29.0691ZM56.2844 30.3876C56.1551 30.3876 56.0439 30.3462 55.9509 30.2635C55.863 30.1808 55.819 30.0722 55.819 29.9378C55.819 29.8033 55.863 29.6922 55.9509 29.6043C56.0439 29.5164 56.1551 29.4724 56.2844 29.4724C56.4136 29.4724 56.5222 29.5164 56.6101 29.6043C56.7032 29.6922 56.7497 29.8033 56.7497 29.9378C56.7497 30.0722 56.7032 30.1808 56.6101 30.2635C56.5222 30.3462 56.4136 30.3876 56.2844 30.3876ZM65.8376 25.5169V26.0675H65.0232V30.3411H64.426V28.4564L64.5501 28.8907C64.3795 28.6529 64.1934 28.4383 63.9917 28.247C63.79 28.0556 63.5832 27.9031 63.3712 27.7894C63.1592 27.6756 62.9524 27.6187 62.7507 27.6187C62.5594 27.6187 62.3966 27.6704 62.2621 27.7739C62.1329 27.8721 62.0682 28.0195 62.0682 28.2159C62.0682 28.3711 62.1225 28.5055 62.2311 28.6192C62.3397 28.7278 62.5077 28.8261 62.7352 28.914L62.4405 29.4646C62.1251 29.3354 61.8769 29.1622 61.6959 28.945C61.5201 28.7227 61.4322 28.4719 61.4322 28.1927C61.4322 27.9393 61.4917 27.7299 61.6106 27.5644C61.7347 27.3938 61.8898 27.2671 62.076 27.1844C62.2673 27.1017 62.4612 27.0603 62.6577 27.0603C62.9265 27.0603 63.1722 27.1068 63.3945 27.1999C63.6168 27.293 63.8237 27.4197 64.015 27.58C64.2114 27.7402 64.3976 27.9264 64.5734 28.1384L64.4648 28.1694C64.4493 28.0505 64.439 27.9341 64.4338 27.8204C64.4286 27.7015 64.426 27.5825 64.426 27.4636V26.0675H60.9979V25.5169H65.8376ZM70.4412 25.5169V26.0675H70.2861C70.1258 26.1037 69.9526 26.1839 69.7665 26.308C69.5803 26.4269 69.4045 26.5846 69.2391 26.7811C69.0736 26.9724 68.9366 27.1973 68.828 27.4559C68.7246 27.7144 68.6729 27.9988 68.6729 28.309C68.6729 28.6813 68.7272 28.9786 68.8358 29.2009C68.9495 29.4181 69.0891 29.5732 69.2546 29.6663C69.42 29.7594 69.5855 29.8059 69.751 29.8059C69.8802 29.8059 69.9888 29.793 70.0767 29.7671C70.1646 29.7413 70.2654 29.6947 70.3792 29.6275L70.6507 30.1006C70.5162 30.204 70.3689 30.2764 70.2086 30.3178C70.0483 30.3592 69.8854 30.3798 69.7199 30.3798C69.3942 30.3798 69.1072 30.2945 68.859 30.1239C68.6108 29.9533 68.4144 29.7154 68.2696 29.4104C68.13 29.1001 68.0602 28.7382 68.0602 28.3245C68.0602 27.9264 68.1222 27.5722 68.2463 27.262C68.3756 26.9466 68.541 26.6725 68.7427 26.4398C68.9495 26.2072 69.1719 26.0158 69.4097 25.8659C69.6475 25.7108 69.8776 25.5944 70.1 25.5169H70.4412ZM72.6184 25.4626C72.9389 25.4626 73.2207 25.5272 73.4638 25.6565C73.7068 25.7806 73.9472 25.9719 74.1851 26.2304C74.4281 26.489 74.7047 26.8225 75.0149 27.2309L74.5884 27.5334C74.3971 27.2645 74.2212 27.037 74.061 26.8509C73.9058 26.6596 73.7533 26.5045 73.6034 26.3855C73.4586 26.2614 73.3086 26.171 73.1535 26.1141C72.9984 26.0572 72.8304 26.0288 72.6494 26.0288C72.4581 26.0288 72.2771 26.0572 72.1065 26.1141C71.9358 26.171 71.7781 26.2459 71.6334 26.339C71.4937 26.4321 71.3645 26.5303 71.2456 26.6337L71.1835 26.6415C71.2662 26.5949 71.3541 26.5588 71.4472 26.5329C71.5455 26.5019 71.654 26.4864 71.773 26.4864C72.047 26.4864 72.2435 26.5665 72.3624 26.7268C72.4813 26.8819 72.5408 27.0629 72.5408 27.2697C72.5408 27.3059 72.5382 27.3473 72.533 27.3938C72.533 27.4403 72.5279 27.4843 72.5175 27.5257L71.6721 28.022C71.7807 27.929 71.8686 27.8359 71.9358 27.7428C72.0031 27.6446 72.0367 27.5205 72.0367 27.3705C72.0367 27.2775 72.0031 27.1896 71.9358 27.1068C71.8686 27.0189 71.7574 26.975 71.6023 26.975C71.5196 26.975 71.4343 26.9905 71.3464 27.0215C71.2637 27.0474 71.1809 27.0862 71.0982 27.1379L70.532 26.5794C70.7388 26.3571 70.9508 26.1632 71.168 25.9977C71.3852 25.8323 71.6127 25.703 71.8505 25.6099C72.0884 25.5117 72.3443 25.4626 72.6184 25.4626ZM74.2238 26.6648L72.0367 28.4952L71.6178 28.0376L72.3314 27.4869L72.4245 27.4714C72.4813 27.4145 72.5356 27.3628 72.5873 27.3163C72.6442 27.2697 72.7011 27.2232 72.758 27.1766C72.8148 27.1249 72.8769 27.0732 72.9441 27.0215L73.8593 26.2614L74.2238 26.6648ZM75.9922 25.5169V26.0675H75.1778V28.5494H74.5806V27.2697L74.6194 26.8819C74.6039 26.7578 74.5935 26.6234 74.5884 26.4786C74.5832 26.3338 74.5806 26.1787 74.5806 26.0133V25.005H74.9917L75.1701 25.5169H75.9922ZM72.4632 28.5727C72.6752 28.5727 72.8691 28.6167 73.0449 28.7046C73.2259 28.7873 73.3655 28.9088 73.4638 29.0691C73.5206 28.9502 73.5956 28.8649 73.6887 28.8131C73.7869 28.7563 73.9007 28.7278 74.0299 28.7278C74.1851 28.7278 74.3298 28.7666 74.4643 28.8442C74.5987 28.9166 74.7383 29.0174 74.8831 29.1467L74.5884 29.0303C74.5832 28.9734 74.5806 28.9166 74.5806 28.8597C74.5806 28.7976 74.5806 28.7382 74.5806 28.6813V28.3555L75.1778 28.3633V30.3411H74.5806V29.0691L74.8366 29.7361C74.7073 29.5913 74.5884 29.475 74.4798 29.3871C74.3712 29.2992 74.2523 29.2552 74.123 29.2552C74.0144 29.2552 73.9239 29.2888 73.8515 29.3561C73.7792 29.4181 73.743 29.5241 73.743 29.6741C73.743 29.7206 73.743 29.7645 73.743 29.8059C73.7481 29.8473 73.7533 29.886 73.7585 29.9222L73.2854 29.9455C73.2492 29.6766 73.1613 29.4698 73.0217 29.325C72.8872 29.1751 72.7192 29.1001 72.5175 29.1001C72.3676 29.1001 72.2512 29.1389 72.1685 29.2165C72.091 29.294 72.0522 29.3871 72.0522 29.4957C72.0522 29.6404 72.1013 29.7594 72.1995 29.8524C72.3029 29.9403 72.471 30.0282 72.7037 30.1161L72.4787 30.6435C72.1685 30.5298 71.9177 30.3824 71.7264 30.2015C71.5403 30.0153 71.4472 29.7697 71.4472 29.4646C71.4472 29.2113 71.5429 28.9993 71.7342 28.8287C71.9255 28.658 72.1685 28.5727 72.4632 28.5727ZM78.6743 25.5169V26.0675H78.5192C78.3589 26.1037 78.1857 26.1839 77.9996 26.308C77.8134 26.4269 77.6376 26.5846 77.4722 26.7811C77.3067 26.9724 77.1697 27.1973 77.0611 27.4559C76.9577 27.7144 76.906 27.9988 76.906 28.309C76.906 28.6813 76.9603 28.9786 77.0689 29.2009C77.1826 29.4181 77.3222 29.5732 77.4877 29.6663C77.6531 29.7594 77.8186 29.8059 77.9841 29.8059C78.1133 29.8059 78.2219 29.793 78.3098 29.7671C78.3977 29.7413 78.4985 29.6947 78.6123 29.6275L78.8838 30.1006C78.7493 30.204 78.602 30.2764 78.4417 30.3178C78.2814 30.3592 78.1211 30.3798 77.9608 30.3798C77.6351 30.3798 77.3455 30.2945 77.0921 30.1239C76.8439 29.9533 76.6475 29.7154 76.5027 29.4104C76.3631 29.1001 76.2933 28.7382 76.2933 28.3245C76.2933 27.9005 76.3734 27.5179 76.5337 27.1766C76.694 26.8302 76.9086 26.5381 77.1775 26.3002C77.4515 26.0624 77.754 25.8892 78.0849 25.7806L77.5885 26.0365C77.4954 26.0469 77.3946 26.0546 77.286 26.0598C77.1775 26.065 77.0559 26.0675 76.9215 26.0675H75.8357V25.5169H78.6743ZM80.0526 29.3561C79.913 29.3561 79.7786 29.3276 79.6493 29.2707C79.5252 29.2139 79.3985 29.1208 79.2693 28.9915C79.1452 28.8571 79.0107 28.6761 78.8659 28.4486L79.3391 28.1616C79.4787 28.4098 79.595 28.5727 79.6881 28.6503C79.7811 28.7278 79.882 28.7666 79.9906 28.7666C80.0785 28.7666 80.1612 28.7408 80.2387 28.6891C80.3215 28.6322 80.4094 28.5365 80.5024 28.4021C80.6007 28.2676 80.7119 28.0841 80.8359 27.8514L81.0143 27.5955C81.1539 27.3059 81.2832 27.112 81.4021 27.0138C81.5262 26.9104 81.6632 26.8587 81.8132 26.8587C81.9838 26.8587 82.1364 26.9078 82.2708 27.006C82.4104 27.0991 82.5707 27.2439 82.7517 27.4403L82.7749 27.6808L82.7206 28.0763C82.5655 27.8747 82.4285 27.717 82.3096 27.6032C82.1958 27.4895 82.0847 27.4326 81.9761 27.4326C81.9037 27.4326 81.8365 27.4533 81.7744 27.4946C81.7124 27.536 81.6426 27.6161 81.565 27.7351C81.4874 27.8488 81.384 28.0246 81.2548 28.2625C81.1152 28.5158 80.9885 28.7252 80.8747 28.8907C80.761 29.051 80.6395 29.1699 80.5102 29.2475C80.3861 29.3199 80.2336 29.3561 80.0526 29.3561ZM80.6963 28.2392C80.6446 27.8876 80.5903 27.6084 80.5335 27.4016C80.4818 27.1947 80.3887 27.0345 80.2543 26.9207C80.125 26.8018 79.9492 26.7139 79.7269 26.657C79.5045 26.5949 79.2253 26.5432 78.8892 26.5019L79.0055 25.9124L79.4244 26.0675C79.7191 26.1141 79.9647 26.1735 80.1612 26.2459C80.3577 26.3183 80.5154 26.414 80.6343 26.5329C80.7584 26.6467 80.8515 26.7888 80.9135 26.9595C80.9756 27.1301 81.0169 27.3369 81.0376 27.58L80.6963 28.2392ZM86.2961 25.5169V26.0675H83.155V28.7511C83.155 28.9786 83.1679 29.1389 83.1938 29.232C83.2196 29.325 83.2506 29.3923 83.2868 29.4336C83.3799 29.5422 83.5195 29.5965 83.7056 29.5965C83.9125 29.5965 84.1064 29.5474 84.2873 29.4491C84.4683 29.3509 84.626 29.2294 84.7605 29.0846C84.9104 28.9243 85.0242 28.7537 85.1017 28.5727C85.1844 28.3917 85.2258 28.2082 85.2258 28.022C85.2258 27.8566 85.1844 27.7325 85.1017 27.6498C85.019 27.5619 84.882 27.5179 84.6906 27.5179C84.6286 27.5179 84.5614 27.5231 84.489 27.5334C84.4166 27.5438 84.3468 27.5567 84.2796 27.5722L84.1943 27.0215C84.2925 26.9957 84.3933 26.975 84.4967 26.9595C84.6053 26.944 84.7191 26.9362 84.838 26.9362C85.0293 26.9362 85.2 26.9724 85.3499 27.0448C85.4999 27.1172 85.6162 27.2309 85.6989 27.3861C85.7868 27.5412 85.8308 27.7428 85.8308 27.991C85.8308 28.2961 85.7558 28.5934 85.6058 28.8829C85.4559 29.1673 85.2672 29.4078 85.0397 29.6043C84.8484 29.7697 84.6389 29.9041 84.4114 30.0076C84.1891 30.1058 83.9435 30.1549 83.6746 30.1549C83.4833 30.1549 83.3178 30.1265 83.1782 30.0696C83.0438 30.0127 82.9326 29.9403 82.8447 29.8524C82.762 29.7542 82.6922 29.6353 82.6353 29.4957C82.5836 29.3561 82.5578 29.1441 82.5578 28.8597V27.7273L82.5888 27.4481C82.5784 27.355 82.5707 27.2568 82.5655 27.1534C82.5604 27.0448 82.5578 26.9233 82.5578 26.7888V26.0675H78.5169V25.5169H86.2961ZM84.8845 25.5169C84.8794 25.3049 84.8277 25.1523 84.7294 25.0593C84.6364 24.9662 84.4812 24.9197 84.2641 24.9197H83.535C83.1989 24.9197 82.9378 24.8964 82.7517 24.8499C82.5707 24.8033 82.4156 24.7309 82.2863 24.6327C82.1467 24.5293 82.0407 24.3974 81.9683 24.2371C81.9011 24.0717 81.8675 23.8855 81.8675 23.6787C81.8675 23.6115 81.8701 23.5469 81.8752 23.4848C81.8856 23.4176 81.8959 23.3452 81.9063 23.2677L82.4802 23.3064C82.4699 23.3633 82.4621 23.415 82.4569 23.4616C82.4518 23.5029 82.4492 23.5495 82.4492 23.6012C82.4492 23.7149 82.4595 23.8157 82.4802 23.9036C82.5061 23.9915 82.5448 24.0639 82.5965 24.1208C82.6689 24.2035 82.7723 24.2656 82.9068 24.3069C83.0464 24.3431 83.2429 24.3612 83.4962 24.3612H84.1012C84.3752 24.3612 84.5924 24.3819 84.7527 24.4233C84.913 24.4647 85.05 24.5396 85.1638 24.6482C85.2517 24.7309 85.3189 24.8447 85.3654 24.9895C85.4119 25.1291 85.4378 25.3049 85.443 25.5169H84.8845ZM88.3623 25.5169V26.0675H87.5479V30.3411H86.9507V26.7035C86.8887 26.5277 86.7956 26.3778 86.6715 26.2537C86.5526 26.1296 86.3975 26.0675 86.2061 26.0675H86.1441V25.5169H86.2604C86.3845 25.5169 86.5138 25.5582 86.6482 25.641C86.7827 25.7185 86.8913 25.84 86.974 26.0055C86.9688 25.9796 86.9636 25.9202 86.9585 25.8271C86.9533 25.734 86.9507 25.6539 86.9507 25.5867V25.005H87.3695L87.5402 25.5169H88.3623ZM92.9819 25.5169V26.0675H92.1675V30.3411H91.5703C91.4152 30.0308 91.2006 29.7464 90.9266 29.4879C90.6577 29.2242 90.3475 29.0019 89.9959 28.8209C89.6443 28.6399 89.2694 28.5184 88.8713 28.4564L88.5688 27.7118C89.0652 27.4119 89.5771 27.1404 90.1045 26.8974C90.637 26.6544 91.1851 26.4476 91.7487 26.277L91.5703 26.6027V26.0675H88.2043V25.5169H92.9819ZM91.5703 26.6648L91.7332 26.8819C91.3402 27.0112 90.9266 27.1715 90.4923 27.3628C90.0579 27.5489 89.6572 27.7558 89.2901 27.9833C89.5693 28.0453 89.8666 28.1513 90.182 28.3013C90.4974 28.4512 90.7896 28.6399 91.0585 28.8674C91.3273 29.0949 91.5341 29.3586 91.6789 29.6585H91.6091C91.5988 29.5396 91.5884 29.4207 91.5781 29.3018C91.5729 29.1828 91.5703 29.0407 91.5703 28.8752V26.6648ZM89.7167 30.3876C89.5874 30.3876 89.4762 30.3462 89.3832 30.2635C89.2953 30.1808 89.2513 30.0722 89.2513 29.9378C89.2513 29.8033 89.2953 29.6922 89.3832 29.6043C89.4762 29.5164 89.5874 29.4724 89.7167 29.4724C89.8459 29.4724 89.9545 29.5164 90.0424 29.6043C90.1355 29.6922 90.182 29.8033 90.182 29.9378C90.182 30.0722 90.1355 30.1808 90.0424 30.2635C89.9545 30.3462 89.8459 30.3876 89.7167 30.3876ZM97.587 25.5169V26.0675H97.4319C97.2716 26.1037 97.0984 26.1839 96.9122 26.308C96.7261 26.4269 96.5503 26.5846 96.3848 26.7811C96.2194 26.9724 96.0824 27.1973 95.9738 27.4559C95.8704 27.7144 95.8187 27.9988 95.8187 28.309C95.8187 28.6813 95.8729 28.9786 95.9815 29.2009C96.0953 29.4181 96.2349 29.5732 96.4003 29.6663C96.5658 29.7594 96.7313 29.8059 96.8967 29.8059C97.026 29.8059 97.1346 29.793 97.2225 29.7671C97.3104 29.7413 97.4112 29.6947 97.525 29.6275L97.7964 30.1006C97.662 30.204 97.5146 30.2764 97.3543 30.3178C97.194 30.3592 97.0312 30.3798 96.8657 30.3798C96.54 30.3798 96.253 30.2945 96.0048 30.1239C95.7566 29.9533 95.5601 29.7154 95.4153 29.4104C95.2757 29.1001 95.2059 28.7382 95.2059 28.3245C95.2059 27.9264 95.268 27.5722 95.3921 27.262C95.5213 26.9466 95.6868 26.6725 95.8885 26.4398C96.0953 26.2072 96.3176 26.0158 96.5555 25.8659C96.7933 25.7108 97.0234 25.5944 97.2457 25.5169H97.587ZM102.587 25.5169V26.0675H101.773V30.3411H101.176C100.979 30.0567 100.747 29.7904 100.478 29.5422C100.209 29.2888 99.9011 29.0717 99.5547 28.8907C99.2135 28.7046 98.8282 28.5727 98.3991 28.4952L98.2207 27.7739L98.624 28.0453C99.0583 28.128 99.4384 28.2521 99.7641 28.4176C100.095 28.5779 100.379 28.7614 100.617 28.9683C100.855 29.1699 101.046 29.3767 101.191 29.5887C101.186 29.4698 101.181 29.3509 101.176 29.232C101.176 29.113 101.176 28.9838 101.176 28.8442V25.005H101.587L101.765 25.5169H102.587ZM99.1436 25.4936C99.4694 25.4936 99.7409 25.5505 99.958 25.6642C100.175 25.7728 100.338 25.9228 100.447 26.1141C100.555 26.3002 100.61 26.5096 100.61 26.7423C100.61 27.1456 100.441 27.474 100.105 27.7273C99.7745 27.9807 99.3169 28.141 98.7326 28.2082L98.3603 28.1306L98.2207 27.7739C98.655 27.7428 99.0015 27.6808 99.26 27.5877C99.5185 27.4895 99.7021 27.368 99.8107 27.2232C99.9244 27.0732 99.9813 26.9078 99.9813 26.7268C99.9813 26.5045 99.9089 26.3338 99.7641 26.2149C99.6193 26.096 99.4073 26.0365 99.1281 26.0365C98.8696 26.0365 98.6835 26.0882 98.5697 26.1916C98.4611 26.2899 98.4068 26.3959 98.4068 26.5096C98.4068 26.582 98.4249 26.6492 98.4611 26.7113C98.5025 26.7733 98.5723 26.8302 98.6705 26.8819L98.3293 27.3628C98.231 27.2956 98.1405 27.2232 98.0578 27.1456C97.9803 27.0629 97.9182 26.9672 97.8717 26.8587C97.8251 26.7501 97.8019 26.626 97.8019 26.4864C97.8019 26.3054 97.8536 26.1399 97.957 25.99C98.0604 25.84 98.2129 25.7211 98.4146 25.6332C98.6162 25.5401 98.8593 25.4936 99.1436 25.4936ZM105.267 25.5169V26.0675H105.112C104.952 26.1037 104.779 26.1839 104.592 26.308C104.406 26.4269 104.23 26.5846 104.065 26.7811C103.9 26.9724 103.763 27.1973 103.654 27.4559C103.551 27.7144 103.499 27.9988 103.499 28.309C103.499 28.6813 103.553 28.9786 103.662 29.2009C103.775 29.4181 103.915 29.5732 104.081 29.6663C104.246 29.7594 104.411 29.8059 104.577 29.8059C104.706 29.8059 104.815 29.793 104.903 29.7671C104.991 29.7413 105.091 29.6947 105.205 29.6275L105.477 30.1006C105.342 30.204 105.195 30.2764 105.035 30.3178C104.874 30.3592 104.714 30.3798 104.554 30.3798C104.228 30.3798 103.938 30.2945 103.685 30.1239C103.437 29.9533 103.24 29.7154 103.096 29.4104C102.956 29.1001 102.886 28.7382 102.886 28.3245C102.886 27.9005 102.966 27.5179 103.127 27.1766C103.287 26.8302 103.501 26.5381 103.77 26.3002C104.044 26.0624 104.347 25.8892 104.678 25.7806L104.181 26.0365C104.088 26.0469 103.987 26.0546 103.879 26.0598C103.77 26.065 103.649 26.0675 103.514 26.0675H102.429V25.5169H105.267ZM111.524 25.5169V26.0675H109.003V26.5484V26.6725V30.3411H108.406C108.256 30.036 108.047 29.749 107.778 29.4802C107.509 29.2113 107.201 28.9864 106.855 28.8054C106.514 28.6192 106.154 28.5029 105.777 28.4564L105.474 27.7118C105.976 27.4222 106.477 27.1637 106.979 26.9362C107.481 26.7087 108.013 26.507 108.577 26.3312L108.406 26.657V26.0675H105.11V25.5169H111.524ZM108.406 26.719L108.569 26.944C108.305 27.0164 108.031 27.112 107.747 27.2309C107.468 27.3499 107.194 27.474 106.925 27.6032C106.661 27.7325 106.418 27.8592 106.196 27.9833C106.485 28.0401 106.782 28.1487 107.088 28.309C107.398 28.4693 107.68 28.6658 107.933 28.8985C108.191 29.126 108.383 29.3742 108.507 29.643L108.445 29.6585C108.434 29.5396 108.424 29.4207 108.414 29.3018C108.409 29.1828 108.406 29.0407 108.406 28.8752V26.719ZM111.09 28.1074C111.09 28.278 111.056 28.4409 110.989 28.596C110.922 28.7459 110.81 28.87 110.655 28.9683C110.5 29.0665 110.293 29.1156 110.035 29.1156C109.952 29.1156 109.872 29.113 109.794 29.1079C109.722 29.1027 109.65 29.0924 109.577 29.0768L109.624 28.5184C109.655 28.5236 109.691 28.5288 109.732 28.5339C109.779 28.5339 109.831 28.5339 109.887 28.5339C110.136 28.5339 110.296 28.4874 110.368 28.3943C110.446 28.2961 110.485 28.1797 110.485 28.0453C110.485 27.7713 110.35 27.5386 110.081 27.3473C109.818 27.1508 109.425 27.0164 108.902 26.944L108.926 26.3623C109.324 26.4036 109.686 26.5045 110.012 26.6648C110.337 26.8199 110.598 27.0215 110.795 27.2697C110.991 27.5127 111.09 27.7919 111.09 28.1074Z" fill="white"/>
<defs>
<clipPath id="clip0_8576_29191">
<rect width="24.5605" height="24.5605" fill="white" transform="translate(20.1548 7.75586)"/>
</clipPath>
</defs>
</svg>
