<svg width="154" height="176" viewBox="0 0 154 176" fill="none" xmlns="http://www.w3.org/2000/svg">
<path d="M1 8C1 3.58172 4.58172 0 9 0H145C149.418 0 153 3.58172 153 8V168C153 172.418 149.418 176 145 176H9C4.58172 176 1 172.418 1 168V8Z" fill="#1A1A1A"/>
<path d="M6.08207 104.117C6.08207 104.593 5.15805 105.545 3.77204 105.069C2.51947 104.638 1 105.442 1 106.767V168C1 172.418 4.58172 176 9 176H145.859C149.803 176 153 172.803 153 168.859V106.347C153 105.82 152.866 105.303 152.611 104.842L151.761 103.311C151.422 102.699 150.657 102.467 150.035 102.787C149.233 103.201 148.252 102.688 148.051 101.809C147.747 100.48 147.249 98.9122 146.532 97.9275C145.532 96.5539 144.708 98.4308 144.33 99.8603C144.27 100.085 144.019 100.203 143.812 100.097C143.578 99.976 143.298 100.146 143.298 100.411V104.812C143.298 105.615 142.483 106.16 141.74 105.854C141.291 105.669 140.775 105.793 140.451 106.155C139.085 107.682 136.873 109.973 135.906 110.305C134.52 110.781 134.058 107.449 132.21 105.069C130.997 103.507 130.738 107.174 130.769 110.294C130.771 110.592 130.325 110.669 130.234 110.386C130.151 110.13 129.779 110.16 129.739 110.427L129.016 115.27C128.989 115.449 128.998 115.631 129.038 115.808C129.483 117.787 129.926 121.366 128.514 121.73C126.666 122.206 125.742 118.398 124.356 117.922C122.97 117.446 122.508 122.682 121.122 122.682C120.013 122.682 118.812 120.461 118.35 119.35L118.157 119.002C117.46 117.747 115.653 117.844 114.653 118.874C114.334 119.203 113.888 119.07 113.435 118.736C112.194 117.82 111.881 116.15 111.881 114.608V107.449C111.881 106.367 111.416 104.742 110.98 103.493C110.682 102.637 110.188 101.867 109.573 101.2C107.444 98.8912 104.346 95.6946 104.027 96.0235C103.683 96.3784 102.242 98.1389 101.424 99.1476C101.312 99.2854 101.227 99.4424 101.173 99.6113L101.132 99.7357C100.792 100.788 99.4132 101.03 98.7351 100.156L98.6869 100.094C98.5541 99.923 98.3741 99.7944 98.1692 99.724L97.7555 99.5819C97.3939 99.4577 97.0007 99.6542 96.8831 100.018L96.769 100.371C96.6989 100.587 96.4514 100.689 96.2491 100.585C96.0036 100.459 95.7113 100.637 95.7113 100.913V107.971C95.7113 108.238 95.364 108.34 95.2193 108.116C95.08 107.901 94.7471 107.986 94.728 108.242L93.8963 119.383C93.8777 119.633 93.6677 119.826 93.4169 119.826C93.154 119.826 92.9392 120.039 92.9392 120.302V120.316C92.9392 120.571 92.7324 120.778 92.4772 120.778C92.222 120.778 92.0152 120.571 92.0152 120.316V120.288C92.0152 120.033 91.8083 119.826 91.5532 119.826C91.298 119.826 91.0912 119.619 91.0912 119.364V119.35V117.894C91.0912 117.383 90.6775 116.97 90.1672 116.97C89.6569 116.97 89.2432 117.383 89.2432 117.894V118.412C89.2432 118.667 89.0363 118.874 88.7812 118.874C88.526 118.874 88.3192 119.081 88.3192 119.336V119.35V121.268C88.3192 121.523 88.1123 121.73 87.8571 121.73H87.4232C86.8974 121.73 86.4711 121.304 86.4711 120.778V120.288C86.4711 120.033 86.2643 119.826 86.0091 119.826C85.754 119.826 85.5471 119.619 85.5471 119.364V117.922V116.97V116.48C85.5471 116.225 85.3403 116.018 85.0851 116.018C84.8299 116.018 84.6231 116.225 84.6231 116.48V116.508C84.6231 116.763 84.4163 116.97 84.1611 116.97C83.9059 116.97 83.6991 117.177 83.6991 117.432V118.398V118.874V119.826V120.778V121.268C83.6991 121.523 83.4922 121.73 83.2371 121.73C82.9819 121.73 82.7751 121.523 82.7751 121.268V121.254C82.7751 120.991 82.5619 120.778 82.299 120.778H81.8511H81.4031C81.1402 120.778 80.9271 120.991 80.9271 121.254V121.268C80.9271 121.523 80.7202 121.73 80.465 121.73C80.2099 121.73 80.003 121.937 80.003 122.192V122.682V123.634V124.125C80.003 124.38 79.7962 124.587 79.541 124.587C79.2859 124.587 79.079 124.793 79.079 125.049V125.077C79.079 125.332 78.8722 125.539 78.617 125.539C78.3619 125.539 78.155 125.746 78.155 126.001V126.029C78.155 126.284 77.9482 126.491 77.693 126.491C77.4379 126.491 77.231 126.284 77.231 126.029V126.015V124.111V124.096C77.231 123.841 77.0242 123.634 76.769 123.634C76.5138 123.634 76.307 123.428 76.307 123.172V120.75C76.307 120.24 75.8933 119.826 75.383 119.826C74.8727 119.826 74.459 120.24 74.459 120.75V121.254V121.73V122.682V122.71C74.459 123.221 74.0453 123.634 73.535 123.634H73.087C72.8241 123.634 72.6109 123.421 72.6109 123.158V123.144C72.6109 122.889 72.4041 122.682 72.1489 122.682C71.8938 122.682 71.6869 122.476 71.6869 122.22V118.86C71.6869 118.605 71.4801 118.398 71.2249 118.398C70.9698 118.398 70.7629 118.191 70.7629 117.936V114.748C70.7629 114.643 70.7465 114.539 70.7143 114.439C70.508 113.802 69.7462 113.542 69.1939 113.922L69.1433 113.957C68.9936 114.059 68.8732 114.199 68.7939 114.363L68.7777 114.396C68.579 114.806 68.1639 115.066 67.7088 115.066H66.647C65.8583 115.066 65.2188 114.426 65.2188 113.637V112.671C65.2188 112.416 65.012 112.209 64.7568 112.209C64.5017 112.209 64.2948 112.002 64.2948 111.747V111.075C64.2948 110.882 64.2458 110.693 64.1525 110.524L62.5731 107.676C62.4893 107.525 62.3858 107.386 62.2654 107.262L61.915 106.901C61.0837 106.044 59.6448 106.336 59.2128 107.449C58.6176 108.675 57.5923 109.64 56.3319 110.159L55.9787 110.305L55.436 110.585C55.2095 110.701 54.9334 110.656 54.756 110.473C54.6513 110.365 54.5927 110.221 54.5927 110.071V109.962C54.5927 109.874 54.5789 109.786 54.5517 109.702L54.3105 108.957C54.2033 108.625 53.8947 108.401 53.5464 108.401C53.3292 108.401 53.1213 108.489 52.9701 108.645L52.7349 108.887C52.4449 109.186 52.2827 109.586 52.2827 110.002V111.747C52.2827 112.002 52.0758 112.209 51.8207 112.209C51.5655 112.209 51.3587 112.416 51.3587 112.671V114.36C51.3587 114.75 51.043 115.066 50.6535 115.066C50.511 115.066 50.3718 115.022 50.2542 114.942L49.6156 114.503C49.3172 114.298 48.9064 114.407 48.7484 114.732C48.6494 114.936 48.4427 115.066 48.2161 115.066H48.0529C47.5822 115.066 47.2006 114.684 47.2006 114.213V108.094C47.2006 107.69 47.0015 107.312 46.6684 107.083L46.5914 107.03C46.1428 106.722 45.5373 106.782 45.1582 107.173C44.9848 107.352 44.8761 107.583 44.8494 107.831L44.0663 115.093C44.0096 115.619 43.5655 116.018 43.0364 116.018C42.5125 116.018 42.0711 116.409 42.008 116.929L41.2698 123.014C41.2269 123.368 40.9261 123.634 40.5691 123.634C40.3782 123.634 40.1959 123.711 40.0629 123.848L37.9605 126.015C37.0336 126.97 33.6748 122.891 31.3381 119.673C30.7079 118.805 29.4225 118.744 28.7366 119.569L27.8386 120.648C27.5885 120.949 27.1185 120.921 26.906 120.592C26.6753 120.236 26.1525 120.239 25.9256 120.598C24.4463 122.938 22.1208 126.491 21.7903 126.491C20.7725 126.491 19.7535 126.89 19.539 127.885L19.0982 129.929C19.045 130.175 19.0289 130.464 18.8203 130.606C18.6805 130.701 18.4524 130.775 18.0942 130.775C17.355 130.775 17.1702 129.823 17.1702 129.347V127.937C17.1702 127.664 16.9491 127.443 16.6763 127.443C16.4298 127.443 16.221 127.261 16.1871 127.017L15.9111 125.026C15.8384 124.501 15.3898 124.111 14.8602 124.111C14.3305 124.111 13.882 123.72 13.8093 123.195L12.5502 114.113V110.305C12.5502 109.829 11.6261 106.973 11.6261 106.497C11.6261 106.352 11.5819 106.112 11.5186 105.844C11.3249 105.023 10.7871 104.333 10.0918 103.856C9.88318 103.712 9.68951 103.549 9.51326 103.367L7.93009 101.736C7.67015 101.468 7.14629 101.704 6.80967 101.866C6.65668 101.939 6.54407 102.049 6.54407 102.212C6.54407 102.688 6.08207 103.64 6.08207 104.117Z" fill="url(#paint0_linear_3776_59975)"/>
<path d="M1 103.64C1.46201 103.958 2.66322 104.688 3.77204 105.069C5.15805 105.545 6.08207 104.593 6.08207 104.117C6.08207 103.64 6.54407 102.688 6.54407 102.212C6.54407 102.049 6.65668 101.939 6.80967 101.866C7.14629 101.704 7.67015 101.468 7.93009 101.736V101.736C8.23946 102.055 9.002 102.841 9.51326 103.367C9.68951 103.549 9.88318 103.712 10.0918 103.856V103.856C10.7871 104.333 11.3249 105.023 11.5186 105.844C11.5819 106.112 11.6261 106.352 11.6261 106.497C11.6261 106.973 12.5502 109.829 12.5502 110.305C12.5502 110.686 12.5502 113.003 12.5502 114.113L13.8093 123.195C13.882 123.72 14.3305 124.111 14.8602 124.111V124.111C15.3898 124.111 15.8384 124.501 15.9111 125.026L16.1871 127.017C16.221 127.261 16.4298 127.443 16.6763 127.443V127.443C16.9491 127.443 17.1702 127.664 17.1702 127.937V129.347C17.1702 129.823 17.355 130.775 18.0942 130.775C18.4524 130.775 18.6805 130.701 18.8203 130.606C19.0289 130.464 19.045 130.175 19.0982 129.929L19.539 127.885C19.7535 126.89 20.7725 126.491 21.7903 126.491V126.491C22.1208 126.491 24.4463 122.938 25.9256 120.598C26.1525 120.239 26.6753 120.236 26.906 120.592V120.592C27.1185 120.921 27.5885 120.949 27.8386 120.648L28.7366 119.569C29.4225 118.744 30.7079 118.805 31.3381 119.673C33.6748 122.891 37.0336 126.97 37.9605 126.015C38.8796 125.068 39.6506 124.273 40.0629 123.848C40.1959 123.711 40.3782 123.634 40.5691 123.634V123.634C40.9261 123.634 41.2269 123.368 41.2698 123.014L42.008 116.929C42.0711 116.409 42.5125 116.018 43.0364 116.018V116.018C43.5655 116.018 44.0096 115.619 44.0663 115.093L44.8494 107.831C44.8761 107.583 44.9848 107.352 45.1582 107.173V107.173C45.5373 106.782 46.1428 106.722 46.5915 107.03L46.6684 107.083C47.0015 107.312 47.2006 107.69 47.2006 108.094V114.213C47.2006 114.684 47.5822 115.066 48.0529 115.066H48.2161C48.4427 115.066 48.6494 114.936 48.7484 114.732V114.732C48.9064 114.407 49.3172 114.298 49.6156 114.503L50.2543 114.942C50.3718 115.022 50.511 115.066 50.6535 115.066V115.066C51.043 115.066 51.3587 114.75 51.3587 114.36V112.671C51.3587 112.416 51.5655 112.209 51.8207 112.209V112.209C52.0758 112.209 52.2827 112.002 52.2827 111.747V110.002C52.2827 109.586 52.4449 109.186 52.7349 108.887L52.9701 108.645C53.1213 108.489 53.3292 108.401 53.5464 108.401V108.401C53.8947 108.401 54.2033 108.625 54.3105 108.957L54.5517 109.702C54.5789 109.786 54.5927 109.874 54.5927 109.962V110.071C54.5927 110.221 54.6513 110.365 54.756 110.473V110.473C54.9334 110.656 55.2095 110.701 55.436 110.585L55.9787 110.305L56.3319 110.159C57.5923 109.64 58.6176 108.675 59.2128 107.449V107.449V107.449C59.6448 106.336 61.0837 106.044 61.915 106.901L62.2654 107.262C62.3858 107.386 62.4893 107.525 62.5731 107.676L64.1525 110.524C64.2458 110.693 64.2948 110.882 64.2948 111.075V111.747C64.2948 112.002 64.5017 112.209 64.7568 112.209V112.209C65.012 112.209 65.2188 112.416 65.2188 112.671V113.637C65.2188 114.426 65.8583 115.066 66.647 115.066H67.7088C68.1639 115.066 68.579 114.806 68.7777 114.396L68.7939 114.363C68.8732 114.199 68.9936 114.059 69.1433 113.957L69.1939 113.922C69.7462 113.542 70.5081 113.802 70.7143 114.439V114.439C70.7465 114.539 70.7629 114.643 70.7629 114.748V117.936C70.7629 118.191 70.9698 118.398 71.2249 118.398V118.398C71.4801 118.398 71.6869 118.605 71.6869 118.86V122.22C71.6869 122.476 71.8938 122.682 72.1489 122.682V122.682C72.4041 122.682 72.6109 122.889 72.6109 123.144V123.158C72.6109 123.421 72.8241 123.634 73.087 123.634H73.535V123.634C74.0453 123.634 74.459 123.221 74.459 122.71V122.682V121.73V121.254V120.75C74.459 120.24 74.8727 119.826 75.383 119.826V119.826V119.826C75.8933 119.826 76.307 120.24 76.307 120.75V123.172C76.307 123.428 76.5138 123.634 76.769 123.634V123.634C77.0242 123.634 77.231 123.841 77.231 124.097V124.111V126.015V126.029C77.231 126.284 77.4379 126.491 77.693 126.491V126.491C77.9482 126.491 78.155 126.284 78.155 126.029V126.001C78.155 125.746 78.3619 125.539 78.617 125.539V125.539C78.8722 125.539 79.079 125.332 79.079 125.077V125.049C79.079 124.793 79.2859 124.587 79.541 124.587V124.587C79.7962 124.587 80.003 124.38 80.003 124.125V123.634V122.682V122.192C80.003 121.937 80.2099 121.73 80.465 121.73V121.73C80.7202 121.73 80.9271 121.523 80.9271 121.268V121.254C80.9271 120.991 81.1402 120.778 81.4031 120.778H81.8511H82.299C82.5619 120.778 82.7751 120.991 82.7751 121.254V121.268C82.7751 121.523 82.9819 121.73 83.2371 121.73V121.73C83.4922 121.73 83.6991 121.523 83.6991 121.268V120.778V119.826V118.874V118.398V117.432C83.6991 117.177 83.9059 116.97 84.1611 116.97V116.97C84.4163 116.97 84.6231 116.763 84.6231 116.508V116.48C84.6231 116.225 84.8299 116.018 85.0851 116.018V116.018C85.3403 116.018 85.5471 116.225 85.5471 116.48V116.97V117.922V119.364C85.5471 119.619 85.754 119.826 86.0091 119.826V119.826C86.2643 119.826 86.4711 120.033 86.4711 120.288V120.778V120.778C86.4711 121.304 86.8974 121.73 87.4232 121.73H87.8571V121.73C88.1123 121.73 88.3192 121.523 88.3192 121.268V119.35V119.336C88.3192 119.081 88.526 118.874 88.7812 118.874V118.874C89.0363 118.874 89.2432 118.667 89.2432 118.412V117.894C89.2432 117.383 89.6569 116.97 90.1672 116.97V116.97C90.6775 116.97 91.0912 117.383 91.0912 117.894V119.35V119.364C91.0912 119.619 91.298 119.826 91.5532 119.826V119.826C91.8084 119.826 92.0152 120.033 92.0152 120.288V120.316C92.0152 120.571 92.222 120.778 92.4772 120.778V120.778C92.7324 120.778 92.9392 120.571 92.9392 120.316V120.302C92.9392 120.039 93.154 119.826 93.4169 119.826V119.826C93.6677 119.826 93.8777 119.633 93.8963 119.383L94.728 108.242C94.7471 107.986 95.08 107.901 95.2193 108.116V108.116C95.364 108.34 95.7112 108.238 95.7112 107.971V100.913C95.7112 100.637 96.0036 100.459 96.2491 100.585V100.585C96.4514 100.689 96.6989 100.587 96.769 100.371L96.8831 100.018C97.0007 99.6542 97.3939 99.4577 97.7555 99.5819L98.1692 99.724C98.3741 99.7944 98.5541 99.923 98.6869 100.094L98.7351 100.156C99.4132 101.03 100.792 100.788 101.132 99.7357L101.173 99.6113C101.227 99.4424 101.312 99.2854 101.424 99.1476C102.242 98.1389 103.683 96.3784 104.027 96.0235C104.346 95.6946 107.444 98.8912 109.573 101.2C110.188 101.867 110.682 102.637 110.98 103.493C111.416 104.742 111.881 106.367 111.881 107.449C111.881 108.589 111.881 111.933 111.881 114.608C111.881 116.15 112.194 117.82 113.435 118.736C113.888 119.07 114.334 119.203 114.653 118.874V118.874C115.653 117.844 117.46 117.747 118.157 119.002L118.35 119.35C118.812 120.461 120.013 122.682 121.122 122.682C122.508 122.682 122.97 117.446 124.356 117.922C125.742 118.398 126.666 122.206 128.514 121.73C129.926 121.366 129.483 117.787 129.038 115.808C128.998 115.631 128.989 115.449 129.016 115.27L129.739 110.427C129.779 110.16 130.151 110.13 130.234 110.386V110.386C130.325 110.669 130.771 110.592 130.769 110.294C130.738 107.174 130.997 103.507 132.21 105.069C134.058 107.449 134.52 110.781 135.906 110.305C136.873 109.973 139.085 107.682 140.451 106.155C140.775 105.793 141.291 105.669 141.74 105.854V105.854C142.483 106.16 143.298 105.615 143.298 104.812V100.411C143.298 100.146 143.578 99.976 143.812 100.097V100.097C144.019 100.203 144.27 100.085 144.33 99.8603C144.708 98.4308 145.532 96.5539 146.532 97.9275C147.249 98.9122 147.747 100.48 148.051 101.809C148.252 102.688 149.233 103.201 150.035 102.787V102.787C150.657 102.467 151.422 102.699 151.761 103.311L153 105.544" stroke="#A9A7FF" stroke-width="1.5"/>
<defs>
<linearGradient id="paint0_linear_3776_59975" x1="77" y1="86.479" x2="77" y2="179.785" gradientUnits="userSpaceOnUse">
<stop stop-color="#19117E"/>
<stop offset="1" stop-color="#1E1E1E"/>
</linearGradient>
</defs>
</svg>
