<svg width="154" height="175" viewBox="0 0 154 175" fill="none" xmlns="http://www.w3.org/2000/svg">
<path d="M1 8C1 3.58172 4.58172 0 9 0H145C149.418 0 153 3.58172 153 8V167C153 171.418 149.418 175 145 175H9C4.58172 175 1 171.418 1 167V8Z" fill="white"/>
<path d="M6.08207 106.272C6.08207 106.727 5.15805 107.637 3.77204 107.182C2.50866 106.767 1 107.584 1 108.914V167C1 171.418 4.58172 175 9 175H145.029C148.568 175 151.684 172.666 152.679 169.27C152.892 168.542 153 167.787 153 167.029V108.461C153 107.921 152.857 107.391 152.587 106.925L151.772 105.52C151.423 104.918 150.667 104.69 150.043 104.997C149.228 105.398 148.249 104.879 148.034 103.996C147.728 102.741 147.236 101.279 146.532 100.355C145.535 99.0453 144.713 100.825 144.333 102.19C144.271 102.413 144.022 102.532 143.814 102.43C143.576 102.313 143.298 102.486 143.298 102.751V106.86C143.298 107.67 142.482 108.226 141.728 107.929C141.283 107.753 140.776 107.873 140.449 108.223C139.083 109.683 136.873 111.871 135.906 112.189C134.52 112.644 134.058 109.458 132.21 107.182C130.999 105.691 130.738 109.187 130.768 112.169C130.771 112.465 130.328 112.545 130.233 112.265C130.148 112.012 129.78 112.043 129.739 112.307L129.02 116.913C128.991 117.099 129 117.288 129.043 117.472C129.487 119.369 129.921 122.766 128.514 123.112C126.666 123.568 125.742 119.926 124.356 119.471C122.97 119.016 122.508 124.023 121.122 124.023C120.013 124.023 118.812 121.899 118.35 120.837L118.162 120.512C117.446 119.28 115.669 119.381 114.653 120.381C114.363 120.668 113.968 120.588 113.558 120.331C112.204 119.483 111.881 117.707 111.881 116.109V109.458C111.881 108.445 111.435 106.933 111.007 105.749C110.693 104.881 110.174 104.107 109.533 103.442C107.405 101.238 104.344 98.2217 104.027 98.5342C103.684 98.8724 102.251 100.546 101.432 101.512C101.315 101.65 101.226 101.808 101.168 101.98L101.14 102.061C100.789 103.099 99.4317 103.343 98.741 102.493L98.6936 102.434C98.5563 102.265 98.3733 102.139 98.1664 102.071L97.7339 101.929C97.3814 101.814 97.0014 102.003 96.8825 102.355L96.7723 102.681C96.6997 102.895 96.4549 102.997 96.2517 102.897C96.0026 102.774 95.7113 102.955 95.7113 103.233V109.945C95.7113 110.21 95.3677 110.316 95.2189 110.096C95.076 109.885 94.7471 109.972 94.7273 110.226L93.8978 120.849C93.8783 121.099 93.6698 121.292 93.4192 121.292H93.3944C93.143 121.292 92.9392 121.496 92.9392 121.747C92.9392 121.998 92.7354 122.202 92.4841 122.202H92.4704C92.219 122.202 92.0152 121.998 92.0152 121.747C92.0152 121.496 91.8114 121.292 91.56 121.292H91.5463C91.295 121.292 91.0912 121.088 91.0912 120.837V119.485C91.0912 118.975 90.6706 118.561 90.1603 118.561C89.6575 118.561 89.2432 118.968 89.2432 119.471V119.919C89.2432 120.175 89.0329 120.381 88.7777 120.381C88.5263 120.381 88.3192 120.585 88.3192 120.837V122.65C88.3192 122.906 88.1123 123.112 87.8571 123.112H87.3814C86.8787 123.112 86.4711 122.705 86.4711 122.202V121.754C86.4711 121.499 86.2643 121.292 86.0091 121.292C85.754 121.292 85.5471 121.085 85.5471 120.83V119.471V118.561V118.113C85.5471 117.857 85.3368 117.651 85.0816 117.651C84.8303 117.651 84.6231 117.854 84.6231 118.106C84.6231 118.357 84.4159 118.561 84.1646 118.561C83.9094 118.561 83.6991 118.768 83.6991 119.023V119.926V120.381V121.292V122.202V122.65C83.6991 122.906 83.4888 123.112 83.2336 123.112C82.9823 123.112 82.7751 122.909 82.7751 122.657C82.7751 122.406 82.5713 122.202 82.3199 122.202H81.8511H81.3822C81.1308 122.202 80.9271 122.406 80.9271 122.657C80.9271 122.909 80.7199 123.112 80.4685 123.112C80.2133 123.112 80.003 123.319 80.003 123.574V124.023V124.933V125.381C80.003 125.636 79.7927 125.843 79.5376 125.843C79.2862 125.843 79.079 126.047 79.079 126.298C79.079 126.55 78.8753 126.754 78.6239 126.754H78.6102C78.3588 126.754 78.155 126.957 78.155 127.209C78.155 127.46 77.9512 127.664 77.6999 127.664H77.6862C77.4348 127.664 77.231 127.46 77.231 127.209V125.388C77.231 125.137 77.0238 124.933 76.7725 124.933C76.5173 124.933 76.307 124.726 76.307 124.471V122.216C76.307 121.705 75.8933 121.292 75.383 121.292C74.8727 121.292 74.459 121.705 74.459 122.216V122.657V123.112V124.023C74.459 124.525 74.0514 124.933 73.5487 124.933H73.535H73.0661C72.8147 124.933 72.6109 124.729 72.6109 124.478C72.6109 124.226 72.4038 124.023 72.1524 124.023C71.8972 124.023 71.6869 123.816 71.6869 123.561V120.388C71.6869 120.133 71.4801 119.926 71.2249 119.926C70.9698 119.926 70.7629 119.719 70.7629 119.464V116.448C70.7629 116.34 70.7453 116.233 70.7108 116.131C70.5034 115.518 69.7728 115.266 69.232 115.622L69.1513 115.675C68.9964 115.776 68.8708 115.917 68.7869 116.082L68.7752 116.105C68.5775 116.495 68.1776 116.74 67.7407 116.74H66.5843C65.8302 116.74 65.2188 116.129 65.2188 115.375V114.471C65.2188 114.216 65.012 114.009 64.7568 114.009C64.5017 114.009 64.2948 113.802 64.2948 113.547V112.933C64.2948 112.744 64.2447 112.557 64.1496 112.393L62.581 109.689C62.4919 109.536 62.3827 109.395 62.2563 109.27L61.8865 108.906C61.0531 108.085 59.6529 108.374 59.2128 109.458C58.6175 110.631 57.613 111.545 56.3893 112.027L55.9787 112.189L55.4208 112.464C55.2016 112.572 54.9381 112.529 54.764 112.357C54.6544 112.25 54.5927 112.102 54.5927 111.948V111.862C54.5927 111.777 54.5788 111.692 54.5515 111.612L54.3192 110.925C54.2065 110.592 53.8941 110.368 53.5427 110.368C53.3274 110.368 53.1207 110.453 52.9674 110.604L52.7496 110.818C52.4509 111.113 52.2827 111.515 52.2827 111.934V113.547C52.2827 113.802 52.0758 114.009 51.8207 114.009C51.5655 114.009 51.3587 114.216 51.3587 114.471V116.029C51.3587 116.422 51.0402 116.74 50.6474 116.74C50.5086 116.74 50.3729 116.7 50.2569 116.623L49.5995 116.192C49.3057 115.999 48.9094 116.104 48.7504 116.418C48.6499 116.616 48.4468 116.74 48.2248 116.74H48.0594C47.5851 116.74 47.2006 116.356 47.2006 115.881V110.122C47.2006 109.707 46.992 109.321 46.6456 109.093L46.5684 109.043C46.1286 108.754 45.5469 108.811 45.1721 109.18C44.99 109.36 44.8749 109.596 44.8463 109.851L44.0709 116.726C44.0115 117.253 43.566 117.651 43.0361 117.651C42.5117 117.651 42.0691 118.041 42.003 118.561L41.2739 124.307C41.2285 124.665 40.9243 124.933 40.5639 124.933C40.3759 124.933 40.1958 125.007 40.0619 125.138L37.9605 127.209C37.0342 128.121 33.679 124.227 31.3425 121.151C30.6993 120.304 29.4346 120.243 28.7367 121.045L27.8361 122.081C27.5827 122.372 27.1223 122.344 26.906 122.024C26.6705 121.676 26.1571 121.679 25.9254 122.03C24.4461 124.267 22.1208 127.664 21.7903 127.664C20.7676 127.664 19.7476 128.072 19.5225 129.069L19.1032 130.929C19.0467 131.179 19.0239 131.474 18.8049 131.608C18.6639 131.694 18.4395 131.76 18.0942 131.76C17.355 131.76 17.1702 130.85 17.1702 130.395V129.07C17.1702 128.796 16.9484 128.574 16.6749 128.574C16.4288 128.574 16.22 128.394 16.1847 128.15L15.9168 126.303C15.8407 125.778 15.3907 125.388 14.8602 125.388C14.3297 125.388 13.8797 124.999 13.8036 124.474L12.633 116.401C12.5778 116.021 12.5502 115.637 12.5502 115.253V112.189C12.5502 111.734 11.6261 109.003 11.6261 108.548C11.6261 108.417 11.5864 108.204 11.5283 107.963C11.3321 107.151 10.7849 106.478 10.0868 106.019C9.88151 105.885 9.69014 105.73 9.51516 105.558L7.93009 103.996C7.66991 103.74 7.15705 103.966 6.82233 104.114L6.8206 104.115C6.66207 104.185 6.54407 104.292 6.54407 104.451C6.54407 104.906 6.08207 105.817 6.08207 106.272Z" fill="url(#paint0_linear_3794_60373)"/>
<path d="M1 105.817C1.46201 106.12 2.66322 106.818 3.77204 107.182C5.15805 107.637 6.08207 106.727 6.08207 106.272C6.08207 105.817 6.54407 104.906 6.54407 104.451C6.54407 104.292 6.66207 104.185 6.8206 104.115C7.15528 103.967 7.66946 103.739 7.93009 103.996V103.996C8.23985 104.301 9.00389 105.054 9.51516 105.558C9.69014 105.73 9.88151 105.885 10.0868 106.019V106.019C10.7849 106.478 11.3321 107.151 11.5283 107.963C11.5864 108.204 11.6261 108.417 11.6261 108.548C11.6261 109.003 12.5502 111.734 12.5502 112.189C12.5502 112.481 12.5502 113.964 12.5502 115.087C12.5502 115.582 12.5858 116.076 12.6568 116.565L13.8036 124.474C13.8797 124.999 14.3297 125.388 14.8602 125.388V125.388C15.3907 125.388 15.8407 125.778 15.9168 126.303L16.1847 128.15C16.22 128.394 16.4288 128.574 16.6749 128.574V128.574C16.9484 128.574 17.1702 128.796 17.1702 129.07V130.395C17.1702 130.85 17.355 131.76 18.0942 131.76C18.4395 131.76 18.6639 131.694 18.8049 131.608C19.0239 131.474 19.0467 131.179 19.1032 130.929L19.5225 129.069C19.7476 128.072 20.7676 127.664 21.7903 127.664V127.664C22.1208 127.664 24.4461 124.267 25.9254 122.03C26.1571 121.679 26.6705 121.676 26.906 122.024V122.024C27.1223 122.344 27.5827 122.372 27.8361 122.081L28.7367 121.045C29.4346 120.243 30.6993 120.304 31.3425 121.151C33.6789 124.227 37.0342 128.121 37.9605 127.209C38.8789 126.304 39.6494 125.545 40.0619 125.138C40.1958 125.007 40.3759 124.933 40.5639 124.933V124.933C40.9243 124.933 41.2285 124.665 41.2739 124.307L42.003 118.561C42.0691 118.041 42.5117 117.651 43.0361 117.651V117.651C43.566 117.651 44.0115 117.253 44.0709 116.726L44.8463 109.851C44.8749 109.596 44.99 109.36 45.1721 109.18V109.18C45.5469 108.811 46.1286 108.754 46.5684 109.043L46.6456 109.093C46.992 109.321 47.2006 109.707 47.2006 110.122V115.881C47.2006 116.356 47.5851 116.74 48.0594 116.74H48.2248C48.4468 116.74 48.6499 116.616 48.7504 116.418V116.418C48.9094 116.104 49.3057 115.999 49.5995 116.192L50.2569 116.623C50.3729 116.7 50.5086 116.74 50.6474 116.74V116.74C51.0402 116.74 51.3587 116.422 51.3587 116.029V114.471C51.3587 114.216 51.5655 114.009 51.8207 114.009V114.009C52.0758 114.009 52.2827 113.802 52.2827 113.547V111.934C52.2827 111.515 52.4509 111.113 52.7496 110.818L52.9674 110.604C53.1207 110.453 53.3274 110.368 53.5427 110.368V110.368C53.8941 110.368 54.2065 110.592 54.3192 110.925L54.5515 111.612C54.5788 111.692 54.5927 111.777 54.5927 111.862V111.948C54.5927 112.102 54.6544 112.25 54.764 112.357V112.357C54.9381 112.529 55.2016 112.572 55.4208 112.464L55.9787 112.189L56.3893 112.027C57.613 111.545 58.6175 110.631 59.2128 109.458V109.458V109.458C59.6529 108.374 61.0531 108.085 61.8865 108.906L62.2563 109.27C62.3827 109.395 62.4919 109.536 62.581 109.689L64.1496 112.393C64.2447 112.557 64.2948 112.744 64.2948 112.933V113.547C64.2948 113.802 64.5017 114.009 64.7568 114.009V114.009C65.012 114.009 65.2188 114.216 65.2188 114.471V115.375C65.2188 116.129 65.8302 116.74 66.5843 116.74H67.7407C68.1776 116.74 68.5775 116.495 68.7752 116.105L68.7869 116.082C68.8708 115.917 68.9964 115.776 69.1513 115.675L69.232 115.622C69.7728 115.266 70.5034 115.518 70.7108 116.131V116.131C70.7453 116.233 70.7629 116.34 70.7629 116.448V119.464C70.7629 119.719 70.9698 119.926 71.2249 119.926V119.926C71.4801 119.926 71.6869 120.133 71.6869 120.388V123.561C71.6869 123.816 71.8972 124.023 72.1524 124.023V124.023C72.4038 124.023 72.6109 124.226 72.6109 124.478V124.478C72.6109 124.729 72.8147 124.933 73.0661 124.933H73.535H73.5487C74.0514 124.933 74.459 124.525 74.459 124.023V124.023V123.112V122.657V122.216C74.459 121.705 74.8727 121.292 75.383 121.292V121.292V121.292C75.8933 121.292 76.307 121.705 76.307 122.216V124.471C76.307 124.726 76.5173 124.933 76.7724 124.933V124.933C77.0238 124.933 77.231 125.137 77.231 125.388V125.388V127.209V127.209C77.231 127.46 77.4348 127.664 77.6862 127.664H77.6999C77.9512 127.664 78.155 127.46 78.155 127.209V127.209C78.155 126.957 78.3588 126.754 78.6102 126.754H78.6239C78.8753 126.754 79.079 126.55 79.079 126.298V126.298C79.079 126.047 79.2862 125.843 79.5376 125.843V125.843C79.7927 125.843 80.003 125.636 80.003 125.381V124.933V124.023V123.574C80.003 123.319 80.2133 123.112 80.4685 123.112V123.112C80.7199 123.112 80.9271 122.909 80.9271 122.657V122.657C80.9271 122.406 81.1308 122.202 81.3822 122.202H81.8511H82.3199C82.5713 122.202 82.7751 122.406 82.7751 122.657V122.657C82.7751 122.909 82.9823 123.112 83.2336 123.112V123.112C83.4888 123.112 83.6991 122.906 83.6991 122.65V122.202V121.292V120.381V119.926V119.023C83.6991 118.768 83.9094 118.561 84.1645 118.561V118.561C84.4159 118.561 84.6231 118.357 84.6231 118.106V118.106C84.6231 117.854 84.8303 117.651 85.0817 117.651V117.651C85.3368 117.651 85.5471 117.857 85.5471 118.113V118.561V119.471V120.83C85.5471 121.085 85.754 121.292 86.0091 121.292V121.292C86.2643 121.292 86.4711 121.499 86.4711 121.754V122.202V122.202C86.4711 122.705 86.8787 123.112 87.3814 123.112H87.8571V123.112C88.1123 123.112 88.3192 122.906 88.3192 122.65V120.837V120.837C88.3192 120.585 88.5263 120.381 88.7777 120.381V120.381C89.0329 120.381 89.2432 120.175 89.2432 119.919V119.471C89.2432 118.968 89.6575 118.561 90.1603 118.561V118.561C90.6706 118.561 91.0912 118.975 91.0912 119.485V120.837V120.837C91.0912 121.088 91.295 121.292 91.5463 121.292H91.56C91.8114 121.292 92.0152 121.496 92.0152 121.747V121.747C92.0152 121.998 92.219 122.202 92.4704 122.202H92.4841C92.7354 122.202 92.9392 121.998 92.9392 121.747V121.747C92.9392 121.496 93.143 121.292 93.3944 121.292H93.4192C93.6698 121.292 93.8783 121.099 93.8978 120.849L94.7273 110.226C94.7471 109.972 95.076 109.885 95.2189 110.096V110.096C95.3677 110.316 95.7113 110.21 95.7113 109.945V103.233C95.7113 102.955 96.0026 102.774 96.2517 102.897V102.897C96.4549 102.997 96.6997 102.895 96.7723 102.681L96.8825 102.355C97.0014 102.003 97.3814 101.814 97.7339 101.929L98.1664 102.071C98.3733 102.139 98.5563 102.265 98.6935 102.434L98.741 102.493C99.4317 103.343 100.789 103.099 101.14 102.061L101.168 101.98C101.226 101.808 101.315 101.65 101.432 101.512C102.251 100.546 103.684 98.8724 104.027 98.5342C104.321 98.2449 106.967 100.809 109.046 102.941C110.014 103.933 110.802 105.093 111.235 106.409C111.58 107.457 111.881 108.626 111.881 109.458C111.881 110.357 111.881 112.69 111.881 114.916C111.881 117.291 112.961 122.049 114.653 120.381V120.381V120.381C115.669 119.381 117.446 119.28 118.162 120.512L118.35 120.837C118.812 121.899 120.013 124.023 121.122 124.023C122.508 124.023 122.97 119.016 124.356 119.471C125.742 119.926 126.666 123.568 128.514 123.112C129.921 122.766 129.487 119.369 129.043 117.472C129 117.288 128.991 117.099 129.02 116.913L129.739 112.307C129.78 112.043 130.148 112.012 130.233 112.265V112.265C130.328 112.545 130.771 112.465 130.768 112.169C130.738 109.187 130.999 105.691 132.21 107.182C134.058 109.458 134.52 112.644 135.906 112.189C136.873 111.871 139.083 109.683 140.449 108.223C140.776 107.873 141.283 107.753 141.728 107.929V107.929C142.482 108.226 143.298 107.67 143.298 106.86V102.751C143.298 102.486 143.576 102.313 143.814 102.43V102.43C144.022 102.532 144.271 102.413 144.333 102.19C144.713 100.825 145.535 99.0453 146.532 100.355C147.236 101.279 147.728 102.741 148.034 103.996C148.249 104.879 149.228 105.398 150.043 104.997V104.997C150.667 104.69 151.423 104.918 151.772 105.52L153 107.637" stroke="#A5ACEB" stroke-width="1.5"/>
<defs>
<linearGradient id="paint0_linear_3794_60373" x1="77" y1="94.5228" x2="77" y2="178.619" gradientUnits="userSpaceOnUse">
<stop offset="0.36006" stop-color="#20E4FF"/>
<stop offset="1" stop-color="#F0F2F5" stop-opacity="0.77"/>
</linearGradient>
</defs>
</svg>
