<svg width="822" height="46" viewBox="0 0 822 46" fill="none" xmlns="http://www.w3.org/2000/svg">
<rect x="0.5" y="1.23438" width="251" height="44" rx="7.5" fill="#2B2B2B"/>
<rect x="0.5" y="1.23438" width="251" height="44" rx="7.5" stroke="#3BAFDA"/>
<path d="M20.47 20.8044C20.1993 20.235 19.8073 19.7964 19.294 19.4884C18.7807 19.171 18.1833 19.0124 17.502 19.0124C16.8207 19.0124 16.2047 19.171 15.654 19.4884C15.1127 19.7964 14.6833 20.2444 14.366 20.8324C14.058 21.411 13.904 22.083 13.904 22.8484C13.904 23.6137 14.058 24.2857 14.366 24.8644C14.6833 25.443 15.1127 25.891 15.654 26.2084C16.2047 26.5164 16.8207 26.6704 17.502 26.6704C18.454 26.6704 19.238 26.3857 19.854 25.8164C20.47 25.247 20.8293 24.477 20.932 23.5064H17.04V22.4704H22.29V23.4504C22.2153 24.253 21.9633 24.9904 21.534 25.6624C21.1047 26.325 20.54 26.8524 19.84 27.2444C19.14 27.627 18.3607 27.8184 17.502 27.8184C16.5967 27.8184 15.7707 27.6084 15.024 27.1884C14.2773 26.759 13.6847 26.1664 13.246 25.4104C12.8167 24.6544 12.602 23.8004 12.602 22.8484C12.602 21.8964 12.8167 21.0424 13.246 20.2864C13.6847 19.521 14.2773 18.9284 15.024 18.5084C15.7707 18.079 16.5967 17.8644 17.502 17.8644C18.538 17.8644 19.4527 18.121 20.246 18.6344C21.0487 19.1477 21.632 19.871 21.996 20.8044H20.47ZM30.4985 20.8324C30.4985 21.6444 30.2185 22.321 29.6585 22.8624C29.1078 23.3944 28.2632 23.6604 27.1245 23.6604H25.2485V27.7344H23.9745V17.9764H27.1245C28.2258 17.9764 29.0612 18.2424 29.6305 18.7744C30.2092 19.3064 30.4985 19.9924 30.4985 20.8324ZM27.1245 22.6104C27.8338 22.6104 28.3565 22.4564 28.6925 22.1484C29.0285 21.8404 29.1965 21.4017 29.1965 20.8324C29.1965 19.6284 28.5058 19.0264 27.1245 19.0264H25.2485V22.6104H27.1245ZM37.3683 25.9564C37.1163 25.9564 36.8737 25.905 36.6403 25.8024C36.4163 25.6997 36.1877 25.5317 35.9543 25.2984C35.7303 25.0557 35.4877 24.729 35.2263 24.3184L36.0803 23.8004C36.3323 24.2484 36.5423 24.5424 36.7103 24.6824C36.8783 24.8224 37.0603 24.8924 37.2563 24.8924C37.415 24.8924 37.5643 24.8457 37.7043 24.7524C37.8537 24.6497 38.0123 24.477 38.1803 24.2344C38.3577 23.9917 38.5583 23.6604 38.7823 23.2404L39.1043 22.7784C39.3563 22.2557 39.5897 21.9057 39.8043 21.7284C40.0283 21.5417 40.2757 21.4484 40.5463 21.4484C40.8543 21.4484 41.1297 21.537 41.3723 21.7144C41.6243 21.8824 41.9137 22.1437 42.2403 22.4984L42.2823 22.9324L42.1843 23.6464C41.9043 23.2824 41.657 22.9977 41.4423 22.7924C41.237 22.587 41.0363 22.4844 40.8403 22.4844C40.7097 22.4844 40.5883 22.5217 40.4763 22.5964C40.3643 22.671 40.2383 22.8157 40.0983 23.0304C39.9583 23.2357 39.7717 23.553 39.5383 23.9824C39.2863 24.4397 39.0577 24.8177 38.8523 25.1164C38.647 25.4057 38.4277 25.6204 38.1943 25.7604C37.9703 25.891 37.695 25.9564 37.3683 25.9564ZM38.5303 23.9404C38.437 23.3057 38.339 22.8017 38.2363 22.4284C38.143 22.055 37.975 21.7657 37.7323 21.5604C37.499 21.3457 37.1817 21.187 36.7803 21.0844C36.379 20.9724 35.875 20.879 35.2683 20.8044L35.4783 19.7404L36.2343 20.0204C36.7663 20.1044 37.2097 20.2117 37.5643 20.3424C37.919 20.473 38.2037 20.6457 38.4183 20.8604C38.6423 21.0657 38.8103 21.3224 38.9223 21.6304C39.0343 21.9384 39.109 22.3117 39.1463 22.7504L38.5303 23.9404ZM48.6383 19.0264V20.0204H42.9683V24.8644C42.9683 25.275 42.9917 25.5644 43.0383 25.7324C43.085 25.9004 43.141 26.0217 43.2063 26.0964C43.3743 26.2924 43.6263 26.3904 43.9623 26.3904C44.3357 26.3904 44.6857 26.3017 45.0123 26.1244C45.339 25.947 45.6237 25.7277 45.8663 25.4664C46.137 25.177 46.3423 24.869 46.4823 24.5424C46.6317 24.2157 46.7063 23.8844 46.7063 23.5484C46.7063 23.2497 46.6317 23.0257 46.4823 22.8764C46.333 22.7177 46.0857 22.6384 45.7403 22.6384C45.6283 22.6384 45.507 22.6477 45.3763 22.6664C45.2457 22.685 45.1197 22.7084 44.9983 22.7364L44.8443 21.7424C45.0217 21.6957 45.2037 21.6584 45.3903 21.6304C45.5863 21.6024 45.7917 21.5884 46.0063 21.5884C46.3517 21.5884 46.6597 21.6537 46.9303 21.7844C47.201 21.915 47.411 22.1204 47.5603 22.4004C47.719 22.6804 47.7983 23.0444 47.7983 23.4924C47.7983 24.043 47.663 24.5797 47.3923 25.1024C47.1217 25.6157 46.781 26.0497 46.3703 26.4044C46.025 26.703 45.647 26.9457 45.2363 27.1324C44.835 27.3097 44.3917 27.3984 43.9063 27.3984C43.561 27.3984 43.2623 27.347 43.0103 27.2444C42.7677 27.1417 42.567 27.011 42.4083 26.8524C42.259 26.675 42.133 26.4604 42.0303 26.2084C41.937 25.9564 41.8903 25.5737 41.8903 25.0604V23.0164L41.9463 22.5124C41.9277 22.3444 41.9137 22.167 41.9043 21.9804C41.895 21.7844 41.8903 21.565 41.8903 21.3224V20.0204H34.5963V19.0264H48.6383ZM46.0903 19.0264C46.081 18.6437 45.9877 18.3684 45.8103 18.2004C45.6423 18.0324 45.3623 17.9484 44.9703 17.9484H43.6543C43.0477 17.9484 42.5763 17.9064 42.2403 17.8224C41.9137 17.7384 41.6337 17.6077 41.4003 17.4304C41.1483 17.2437 40.957 17.0057 40.8263 16.7164C40.705 16.4177 40.6443 16.0817 40.6443 15.7084C40.6443 15.587 40.649 15.4704 40.6583 15.3584C40.677 15.237 40.6957 15.1064 40.7143 14.9664L41.7503 15.0364C41.7317 15.139 41.7177 15.2324 41.7083 15.3164C41.699 15.391 41.6943 15.475 41.6943 15.5684C41.6943 15.7737 41.713 15.9557 41.7503 16.1144C41.797 16.273 41.867 16.4037 41.9603 16.5064C42.091 16.6557 42.2777 16.7677 42.5203 16.8424C42.7723 16.9077 43.127 16.9404 43.5843 16.9404H44.6763C45.171 16.9404 45.563 16.9777 45.8523 17.0524C46.1417 17.127 46.389 17.2624 46.5943 17.4584C46.753 17.6077 46.8743 17.813 46.9583 18.0744C47.0423 18.3264 47.089 18.6437 47.0983 19.0264H46.0903ZM59.9419 19.0264V20.0204H55.3919V20.8884V21.1124V27.7344H54.3139C54.0432 27.1837 53.6652 26.6657 53.1799 26.1804C52.6946 25.695 52.1392 25.289 51.5139 24.9624C50.8979 24.6264 50.2492 24.4164 49.5679 24.3324L49.0219 22.9884C49.9272 22.4657 50.8326 21.999 51.7379 21.5884C52.6432 21.1777 53.6046 20.8137 54.6219 20.4964L54.3139 21.0844V20.0204H48.3639V19.0264H59.9419ZM54.3139 21.1964L54.6079 21.6024C54.1319 21.733 53.6372 21.9057 53.1239 22.1204C52.6199 22.335 52.1252 22.559 51.6399 22.7924C51.1639 23.0257 50.7252 23.2544 50.3239 23.4784C50.8466 23.581 51.3832 23.777 51.9339 24.0664C52.4939 24.3557 53.0026 24.7104 53.4599 25.1304C53.9266 25.541 54.2719 25.989 54.4959 26.4744L54.3839 26.5024C54.3652 26.2877 54.3466 26.073 54.3279 25.8584C54.3186 25.6437 54.3139 25.387 54.3139 25.0884V21.1964ZM59.1579 23.7024C59.1579 24.0104 59.0972 24.3044 58.9759 24.5844C58.8546 24.855 58.6539 25.079 58.3739 25.2564C58.0939 25.4337 57.7206 25.5224 57.2539 25.5224C57.1046 25.5224 56.9599 25.5177 56.8199 25.5084C56.6892 25.499 56.5586 25.4804 56.4279 25.4524L56.5119 24.4444C56.5679 24.4537 56.6332 24.463 56.7079 24.4724C56.7919 24.4724 56.8852 24.4724 56.9879 24.4724C57.4359 24.4724 57.7252 24.3884 57.8559 24.2204C57.9959 24.043 58.0659 23.833 58.0659 23.5904C58.0659 23.0957 57.8232 22.6757 57.3379 22.3304C56.8619 21.9757 56.1526 21.733 55.2099 21.6024L55.2519 20.5524C55.9706 20.627 56.6239 20.809 57.2119 21.0984C57.7999 21.3784 58.2712 21.7424 58.6259 22.1904C58.9806 22.629 59.1579 23.133 59.1579 23.7024ZM75.3313 19.0264V20.0204H69.6613V24.8644C69.6613 25.275 69.6846 25.5644 69.7313 25.7324C69.778 25.9004 69.834 26.0217 69.8993 26.0964C70.0673 26.2924 70.324 26.3904 70.6693 26.3904C71.0333 26.3904 71.3786 26.3017 71.7053 26.1244C72.032 25.947 72.3166 25.7277 72.5593 25.4664C72.83 25.177 73.0353 24.869 73.1753 24.5424C73.3246 24.2157 73.3993 23.8844 73.3993 23.5484C73.3993 23.2497 73.3246 23.0257 73.1753 22.8764C73.026 22.7177 72.7786 22.6384 72.4333 22.6384C72.3213 22.6384 72.2 22.6477 72.0693 22.6664C71.9386 22.685 71.8126 22.7084 71.6913 22.7364L71.5373 21.7424C71.7146 21.6957 71.8966 21.6584 72.0833 21.6304C72.2793 21.6024 72.4846 21.5884 72.6993 21.5884C73.0446 21.5884 73.3526 21.6537 73.6233 21.7844C73.894 21.915 74.104 22.1204 74.2533 22.4004C74.412 22.6804 74.4913 23.0444 74.4913 23.4924C74.4913 24.043 74.356 24.5797 74.0853 25.1024C73.8146 25.6157 73.474 26.0497 73.0633 26.4044C72.718 26.703 72.34 26.9457 71.9293 27.1324C71.528 27.3097 71.0846 27.3984 70.5993 27.3984C70.254 27.3984 69.9553 27.347 69.7033 27.2444C69.4606 27.1417 69.26 27.011 69.1013 26.8524C68.952 26.675 68.826 26.4604 68.7233 26.2084C68.63 25.9564 68.5833 25.5737 68.5833 25.0604V20.0204H67.1133V19.0264H75.3313ZM72.7833 19.0264C72.774 18.6437 72.6666 18.3777 72.4613 18.2284C72.2653 18.079 71.962 18.0044 71.5513 18.0044H70.3473C69.7406 18.0044 69.2693 17.9624 68.9333 17.8784C68.6066 17.7944 68.3266 17.6637 68.0933 17.4864C67.8413 17.2997 67.65 17.0617 67.5193 16.7724C67.398 16.4737 67.3373 16.1377 67.3373 15.7644C67.3373 15.643 67.342 15.5217 67.3513 15.4004C67.37 15.279 67.3886 15.1484 67.4073 15.0084L68.4433 15.0784C68.4246 15.181 68.4106 15.279 68.4013 15.3724C68.392 15.4564 68.3873 15.545 68.3873 15.6384C68.3873 15.8437 68.406 16.0257 68.4433 16.1844C68.49 16.343 68.56 16.4737 68.6533 16.5764C68.784 16.7257 68.9706 16.8424 69.2133 16.9264C69.4653 17.001 69.82 17.0384 70.2773 17.0384H70.6693C70.828 17.0384 71.0146 17.0477 71.2293 17.0664C71.444 17.085 71.7146 17.127 72.0413 17.1924C72.368 17.2484 72.774 17.337 73.2593 17.4584C73.418 17.6077 73.544 17.813 73.6373 18.0744C73.7306 18.3264 73.782 18.6437 73.7913 19.0264H72.7833ZM67.3933 19.0264V20.0204H65.9233V27.7344H64.8453V20.0204H63.3893V19.0264H64.6773C64.528 18.849 64.374 18.6624 64.2153 18.4664C64.066 18.2704 63.9306 18.0744 63.8093 17.8784C64.1266 17.3277 64.4673 16.8284 64.8313 16.3804C65.1953 15.923 65.6246 15.5637 66.1193 15.3024C66.614 15.0317 67.2113 14.8964 67.9113 14.8964C68.574 14.8964 69.1853 14.999 69.7453 15.2044C70.3146 15.4097 70.8793 15.7037 71.4393 16.0864C72.0086 16.469 72.6153 16.9264 73.2593 17.4584L72.6993 18.1024C72.214 17.7197 71.766 17.393 71.3553 17.1224C70.954 16.8424 70.576 16.6137 70.2213 16.4364C69.8666 16.2497 69.5166 16.1144 69.1713 16.0304C68.826 15.937 68.462 15.8904 68.0793 15.8904C67.566 15.8904 67.1226 15.9837 66.7493 16.1704C66.376 16.3477 66.0493 16.5997 65.7693 16.9264C65.4986 17.2437 65.2466 17.6124 65.0133 18.0324C65.088 18.1724 65.1906 18.3264 65.3213 18.4944C65.452 18.6624 65.6013 18.8397 65.7693 19.0264H67.3933ZM91.4958 19.0264V20.0204H90.0958V27.7344H89.0178C88.7472 27.1837 88.4112 26.703 88.0098 26.2924C87.6085 25.8724 87.1792 25.513 86.7218 25.2144L87.0718 24.2904C87.4265 24.4957 87.7952 24.7757 88.1778 25.1304C88.5605 25.485 88.8545 25.8444 89.0598 26.2084C89.0505 26.0684 89.0412 25.9377 89.0318 25.8164C89.0318 25.695 89.0272 25.569 89.0178 25.4384C89.0178 25.3077 89.0178 25.1677 89.0178 25.0184V20.0204H78.7838V19.0264H91.4958ZM84.1878 26.4604C83.5532 26.4604 82.9465 26.311 82.3678 26.0124C81.7892 25.7137 81.2432 25.2097 80.7298 24.5004C80.2258 23.7817 79.7592 22.797 79.3298 21.5464L80.3518 21.2104C80.6878 22.181 81.0378 22.979 81.4018 23.6044C81.7752 24.2204 82.1905 24.673 82.6478 24.9624C83.1052 25.2517 83.6278 25.3964 84.2158 25.3964C84.7292 25.3964 85.1398 25.317 85.4478 25.1584C85.7652 24.9904 85.9938 24.7664 86.1338 24.4864C86.2738 24.2064 86.3438 23.889 86.3438 23.5344C86.3438 22.993 86.1945 22.5544 85.8958 22.2184C85.6065 21.8824 85.2425 21.7144 84.8038 21.7144C84.4958 21.7144 84.2625 21.7844 84.1038 21.9244C83.9452 22.055 83.8658 22.2557 83.8658 22.5264C83.8658 22.5917 83.8752 22.6804 83.8938 22.7924C83.9125 22.9044 83.9405 23.007 83.9778 23.1004L82.9138 23.3104C82.8485 23.1144 82.7972 22.937 82.7598 22.7784C82.7318 22.6104 82.7178 22.4517 82.7178 22.3024C82.7178 21.957 82.8112 21.6677 82.9978 21.4344C83.1938 21.201 83.4412 21.0284 83.7398 20.9164C84.0478 20.795 84.3698 20.7344 84.7058 20.7344C85.2565 20.7344 85.7325 20.8604 86.1338 21.1124C86.5352 21.355 86.8478 21.691 87.0718 22.1204C87.2958 22.5497 87.4078 23.049 87.4078 23.6184C87.4078 24.1224 87.2912 24.5937 87.0578 25.0324C86.8245 25.4617 86.4698 25.807 85.9938 26.0684C85.5178 26.3297 84.9158 26.4604 84.1878 26.4604ZM83.7398 21.2244C83.6932 20.9257 83.5532 20.6644 83.3198 20.4404C83.0958 20.207 82.7645 20.0437 82.3258 19.9504L82.6618 19.3204L83.2918 19.4884C83.8238 19.6937 84.2065 19.927 84.4398 20.1884C84.6732 20.4497 84.8085 20.781 84.8458 21.1824L83.7398 21.2244ZM95.2758 19.0264V20.0204H93.8058V27.7344H92.7278V21.0284C92.5692 20.6644 92.3872 20.4077 92.1818 20.2584C91.9858 20.0997 91.7525 20.0204 91.4818 20.0204H91.3418V19.0264H91.4818C91.7432 19.0264 91.9858 19.101 92.2098 19.2504C92.4432 19.3904 92.6345 19.6097 92.7838 19.9084C92.7745 19.8617 92.7605 19.7544 92.7418 19.5864C92.7325 19.4184 92.7278 19.2737 92.7278 19.1524V18.1024H93.4698L93.7918 19.0264H95.2758ZM101.915 27.7344V21.7844L102.209 22.6664C101.882 22.1997 101.574 21.7984 101.285 21.4624C101.005 21.117 100.734 20.8324 100.473 20.6084C100.211 20.3844 99.9453 20.221 99.6747 20.1184C99.404 20.0064 99.1193 19.9504 98.8207 19.9504C98.326 19.9504 97.9247 20.081 97.6167 20.3424C97.318 20.5944 97.052 20.8884 96.8187 21.2244L96.6227 21.3364C96.7533 21.215 96.954 21.117 97.2247 21.0424C97.4953 20.9584 97.808 20.9164 98.1627 20.9164C98.592 20.9164 98.9373 21.0004 99.1987 21.1684C99.4693 21.3364 99.6653 21.551 99.7867 21.8124C99.9173 22.0644 99.9827 22.3164 99.9827 22.5684C99.9827 23.119 99.796 23.6137 99.4227 24.0524C99.0493 24.4817 98.4707 24.9064 97.6867 25.3264L96.9727 24.3044C97.486 24.0897 97.9293 23.8517 98.3027 23.5904C98.676 23.3197 98.8627 22.9977 98.8627 22.6244C98.8627 22.419 98.7833 22.2464 98.6247 22.1064C98.466 21.9664 98.2373 21.8964 97.9387 21.8964C97.696 21.8964 97.4673 21.9244 97.2527 21.9804C97.0473 22.0364 96.8233 22.125 96.5807 22.2464L95.4467 21.3224C95.736 20.837 96.044 20.417 96.3707 20.0624C96.6973 19.6984 97.052 19.4184 97.4347 19.2224C97.8267 19.0264 98.2513 18.9284 98.7087 18.9284C99.1753 18.9284 99.6 19.0124 99.9827 19.1804C100.375 19.339 100.753 19.5817 101.117 19.9084C101.49 20.235 101.863 20.641 102.237 21.1264L101.985 20.9724C101.966 20.8417 101.947 20.641 101.929 20.3704C101.919 20.0997 101.915 19.8244 101.915 19.5444V18.1024H102.657L102.979 19.0264H104.463V20.0204H102.993V27.7344H101.915ZM108.19 19.0264V20.0204H106.72V27.7344H105.642V21.1684C105.53 20.851 105.362 20.5804 105.138 20.3564C104.924 20.1324 104.644 20.0204 104.298 20.0204H104.186V19.0264H104.396C104.62 19.0264 104.854 19.101 105.096 19.2504C105.339 19.3904 105.535 19.6097 105.684 19.9084C105.675 19.8617 105.666 19.7544 105.656 19.5864C105.647 19.4184 105.642 19.2737 105.642 19.1524V18.1024H106.398L106.706 19.0264H108.19ZM116.893 19.0264V20.0204H115.423V27.7344H114.345V25.8444L114.597 26.5864C114.27 26.0917 113.939 25.6344 113.603 25.2144C113.276 24.7944 112.926 24.4537 112.553 24.1924C112.189 23.931 111.788 23.8004 111.349 23.8004C111.004 23.8004 110.71 23.889 110.467 24.0664C110.234 24.2437 110.117 24.5097 110.117 24.8644C110.117 25.1724 110.229 25.4337 110.453 25.6484C110.677 25.8537 111.008 26.031 111.447 26.1804L111.097 27.2584C110.593 27.081 110.182 26.8664 109.865 26.6144C109.557 26.3624 109.328 26.087 109.179 25.7884C109.039 25.4804 108.969 25.1584 108.969 24.8224C108.969 24.3744 109.076 24.001 109.291 23.7024C109.515 23.4037 109.795 23.1797 110.131 23.0304C110.476 22.8717 110.822 22.7924 111.167 22.7924C111.727 22.7924 112.217 22.895 112.637 23.1004C113.066 23.3057 113.44 23.581 113.757 23.9264C114.084 24.2717 114.378 24.659 114.639 25.0884L114.401 25.1304C114.382 24.9157 114.368 24.701 114.359 24.4864C114.35 24.2624 114.345 24.0337 114.345 23.8004V20.0204H107.905V19.0264H116.893ZM112.231 23.2124C112.231 23.2684 112.226 23.3244 112.217 23.3804C112.217 23.4364 112.212 23.4924 112.203 23.5484L111.139 23.2264C111.12 22.685 111.027 22.251 110.859 21.9244C110.691 21.5977 110.425 21.3504 110.061 21.1824C109.697 21.005 109.202 20.8837 108.577 20.8184L108.759 19.8104L109.403 19.9924C109.851 20.0297 110.248 20.123 110.593 20.2724C110.948 20.4124 111.246 20.613 111.489 20.8744C111.732 21.1357 111.914 21.4624 112.035 21.8544C112.166 22.237 112.231 22.6897 112.231 23.2124ZM120.618 20.0204H119.148V27.7344H118.07V20.0204H116.614V19.0264H118.07C118.033 18.4197 117.874 17.911 117.594 17.5004C117.323 17.0897 116.969 16.7677 116.53 16.5344C116.082 16.2917 115.578 16.119 115.018 16.0164C114.449 15.9137 113.851 15.8624 113.226 15.8624C112.675 15.8624 112.204 15.895 111.812 15.9604C111.411 16.0164 111.103 16.1004 110.888 16.2124C110.673 16.3244 110.566 16.469 110.566 16.6464C110.566 16.8237 110.678 16.9357 110.902 16.9824C111.126 17.029 111.373 17.0524 111.644 17.0524H112.988C113.483 17.0524 113.875 17.0944 114.164 17.1784C114.453 17.2624 114.687 17.3977 114.864 17.5844C115.041 17.7617 115.167 17.9717 115.242 18.2144C115.317 18.457 115.354 18.7604 115.354 19.1244H114.416C114.407 18.9004 114.379 18.7184 114.332 18.5784C114.285 18.429 114.211 18.317 114.108 18.2424C114.015 18.1677 113.903 18.1164 113.772 18.0884C113.632 18.0604 113.441 18.0464 113.198 18.0464H111.812C111.429 18.0464 111.093 18.023 110.804 17.9764C110.515 17.9204 110.277 17.8457 110.09 17.7524C109.857 17.6217 109.693 17.463 109.6 17.2764C109.507 17.0897 109.46 16.8937 109.46 16.6884C109.46 16.147 109.763 15.713 110.37 15.3864C110.977 15.0597 111.901 14.8964 113.142 14.8964C115.037 14.8964 116.493 15.2324 117.51 15.9044C118.537 16.567 119.097 17.6077 119.19 19.0264H120.618V20.0204ZM131.911 19.0264V20.0204H127.361V20.8884V21.1124V27.7344H126.283C126.012 27.1837 125.634 26.6657 125.149 26.1804C124.663 25.695 124.108 25.289 123.483 24.9624C122.867 24.6264 122.218 24.4164 121.537 24.3324L120.991 22.9884C121.896 22.4657 122.801 21.999 123.707 21.5884C124.612 21.1777 125.573 20.8137 126.591 20.4964L126.283 21.0844V20.0204H120.333V19.0264H131.911ZM126.283 21.1964L126.577 21.6024C126.101 21.733 125.606 21.9057 125.093 22.1204C124.589 22.335 124.094 22.559 123.609 22.7924C123.133 23.0257 122.694 23.2544 122.293 23.4784C122.815 23.581 123.352 23.777 123.903 24.0664C124.463 24.3557 124.971 24.7104 125.429 25.1304C125.895 25.541 126.241 25.989 126.465 26.4744L126.353 26.5024C126.334 26.2877 126.315 26.073 126.297 25.8584C126.287 25.6437 126.283 25.387 126.283 25.0884V21.1964ZM131.127 23.7024C131.127 24.0104 131.066 24.3044 130.945 24.5844C130.823 24.855 130.623 25.079 130.343 25.2564C130.063 25.4337 129.689 25.5224 129.223 25.5224C129.073 25.5224 128.929 25.5177 128.789 25.5084C128.658 25.499 128.527 25.4804 128.397 25.4524L128.481 24.4444C128.537 24.4537 128.602 24.463 128.677 24.4724C128.761 24.4724 128.854 24.4724 128.957 24.4724C129.405 24.4724 129.694 24.3884 129.825 24.2204C129.965 24.043 130.035 23.833 130.035 23.5904C130.035 23.0957 129.792 22.6757 129.307 22.3304C128.831 21.9757 128.121 21.733 127.179 21.6024L127.221 20.5524C127.939 20.627 128.593 20.809 129.181 21.0984C129.769 21.3784 130.24 21.7424 130.595 22.1904C130.949 22.629 131.127 23.133 131.127 23.7024ZM135.63 19.0264V20.0204H134.16V27.7344H133.082V21.1684C132.97 20.851 132.802 20.5804 132.578 20.3564C132.363 20.1324 132.083 20.0204 131.738 20.0204H131.626V19.0264H131.836C132.06 19.0264 132.293 19.101 132.536 19.2504C132.778 19.3904 132.974 19.6097 133.124 19.9084C133.114 19.8617 133.105 19.7544 133.096 19.5864C133.086 19.4184 133.082 19.2737 133.082 19.1524V18.1024H133.838L134.146 19.0264H135.63ZM145.858 19.0264V20.0204H144.388V27.7344H143.31V23.0444L143.394 23.4084C143.189 23.1097 142.97 22.8717 142.736 22.6944C142.512 22.517 142.265 22.4284 141.994 22.4284C141.854 22.4284 141.71 22.4564 141.56 22.5124C141.42 22.559 141.299 22.6524 141.196 22.7924C141.103 22.9324 141.056 23.147 141.056 23.4364C141.056 23.539 141.056 23.6324 141.056 23.7164C141.066 23.791 141.075 23.8657 141.084 23.9404L140.174 24.0104C140.137 23.6277 140.034 23.3057 139.866 23.0444C139.698 22.7737 139.493 22.5684 139.25 22.4284C139.008 22.2884 138.746 22.2184 138.466 22.2184C138.214 22.2184 138 22.2697 137.822 22.3724C137.645 22.4657 137.51 22.5964 137.416 22.7644C137.323 22.923 137.276 23.105 137.276 23.3104C137.276 23.6837 137.412 24.001 137.682 24.2624C137.962 24.5237 138.354 24.743 138.858 24.9204L138.48 25.9564C138.032 25.8164 137.631 25.625 137.276 25.3824C136.922 25.1397 136.642 24.841 136.436 24.4864C136.231 24.1317 136.128 23.721 136.128 23.2544C136.128 22.8344 136.231 22.475 136.436 22.1764C136.642 21.8684 136.917 21.6304 137.262 21.4624C137.608 21.2944 137.986 21.2104 138.396 21.2104C138.891 21.2104 139.316 21.3037 139.67 21.4904C140.025 21.6677 140.352 21.957 140.65 22.3584L140.44 22.3724C140.534 22.0644 140.711 21.831 140.972 21.6724C141.243 21.5044 141.523 21.4204 141.812 21.4204C142.148 21.4204 142.438 21.4857 142.68 21.6164C142.923 21.747 143.189 21.9337 143.478 22.1764L143.352 22.3864C143.343 22.1904 143.334 21.9944 143.324 21.7984C143.315 21.6024 143.31 21.4017 143.31 21.1964V20.0204H135.344V19.0264H145.858ZM160.895 19.0264V20.0204H156.345V20.8884V21.1124V27.7344H155.267C154.996 27.1837 154.618 26.6657 154.133 26.1804C153.648 25.695 153.092 25.289 152.467 24.9624C151.851 24.6264 151.202 24.4164 150.521 24.3324L149.975 22.9884C150.88 22.4657 151.786 21.999 152.691 21.5884C153.596 21.1777 154.558 20.8137 155.575 20.4964L155.267 21.0844V20.0204H149.317V19.0264H160.895ZM155.267 21.1964L155.561 21.6024C155.085 21.733 154.59 21.9057 154.077 22.1204C153.573 22.335 153.078 22.559 152.593 22.7924C152.117 23.0257 151.678 23.2544 151.277 23.4784C151.8 23.581 152.336 23.777 152.887 24.0664C153.447 24.3557 153.956 24.7104 154.413 25.1304C154.88 25.541 155.225 25.989 155.449 26.4744L155.337 26.5024C155.318 26.2877 155.3 26.073 155.281 25.8584C155.272 25.6437 155.267 25.387 155.267 25.0884V21.1964ZM160.111 23.7024C160.111 24.0104 160.05 24.3044 159.929 24.5844C159.808 24.855 159.607 25.079 159.327 25.2564C159.047 25.4337 158.674 25.5224 158.207 25.5224C158.058 25.5224 157.913 25.5177 157.773 25.5084C157.642 25.499 157.512 25.4804 157.381 25.4524L157.465 24.4444C157.521 24.4537 157.586 24.463 157.661 24.4724C157.745 24.4724 157.838 24.4724 157.941 24.4724C158.389 24.4724 158.678 24.3884 158.809 24.2204C158.949 24.043 159.019 23.833 159.019 23.5904C159.019 23.0957 158.776 22.6757 158.291 22.3304C157.815 21.9757 157.106 21.733 156.163 21.6024L156.205 20.5524C156.924 20.627 157.577 20.809 158.165 21.0984C158.753 21.3784 159.224 21.7424 159.579 22.1904C159.934 22.629 160.111 23.133 160.111 23.7024ZM166.448 27.0344C165.683 27.0344 164.969 26.8477 164.306 26.4744C163.643 26.0917 163.046 25.4757 162.514 24.6264C161.991 23.777 161.539 22.6384 161.156 21.2104L162.22 20.9304C162.547 22.0877 162.901 23.0397 163.284 23.7864C163.676 24.533 164.124 25.0837 164.628 25.4384C165.141 25.793 165.739 25.9704 166.42 25.9704C166.859 25.9704 167.227 25.919 167.526 25.8164C167.825 25.7044 168.063 25.5504 168.24 25.3544C168.427 25.1584 168.562 24.9344 168.646 24.6824C168.73 24.421 168.772 24.141 168.772 23.8424C168.772 23.4504 168.697 23.0957 168.548 22.7784C168.399 22.4517 168.189 22.195 167.918 22.0084C167.647 21.8217 167.33 21.7284 166.966 21.7284C166.593 21.7284 166.322 21.8077 166.154 21.9664C165.995 22.125 165.916 22.335 165.916 22.5964C165.916 22.6897 165.925 22.7877 165.944 22.8904C165.963 22.993 165.995 23.1097 166.042 23.2404L164.964 23.4504C164.908 23.273 164.861 23.1004 164.824 22.9324C164.796 22.7644 164.782 22.5917 164.782 22.4144C164.782 22.0504 164.871 21.747 165.048 21.5044C165.235 21.2524 165.487 21.061 165.804 20.9304C166.131 20.7997 166.499 20.7344 166.91 20.7344C167.489 20.7344 167.997 20.8697 168.436 21.1404C168.875 21.4017 169.22 21.7704 169.472 22.2464C169.724 22.7224 169.85 23.273 169.85 23.8984C169.85 24.4864 169.724 25.0184 169.472 25.4944C169.229 25.961 168.856 26.3344 168.352 26.6144C167.848 26.8944 167.213 27.0344 166.448 27.0344ZM170.788 19.0264V20.0204H160.61V19.0264H170.788ZM182.459 19.0264V20.0204H176.789V24.8644C176.789 25.275 176.812 25.5644 176.859 25.7324C176.906 25.9004 176.962 26.0217 177.027 26.0964C177.195 26.2924 177.452 26.3904 177.797 26.3904C178.161 26.3904 178.506 26.3017 178.833 26.1244C179.16 25.947 179.444 25.7277 179.687 25.4664C179.958 25.177 180.163 24.869 180.303 24.5424C180.452 24.2157 180.527 23.8844 180.527 23.5484C180.527 23.2497 180.452 23.0257 180.303 22.8764C180.154 22.7177 179.906 22.6384 179.561 22.6384C179.449 22.6384 179.328 22.6477 179.197 22.6664C179.066 22.685 178.94 22.7084 178.819 22.7364L178.665 21.7424C178.842 21.6957 179.024 21.6584 179.211 21.6304C179.407 21.6024 179.612 21.5884 179.827 21.5884C180.172 21.5884 180.48 21.6537 180.751 21.7844C181.022 21.915 181.232 22.1204 181.381 22.4004C181.54 22.6804 181.619 23.0444 181.619 23.4924C181.619 24.043 181.484 24.5797 181.213 25.1024C180.942 25.6157 180.602 26.0497 180.191 26.4044C179.846 26.703 179.468 26.9457 179.057 27.1324C178.656 27.3097 178.212 27.3984 177.727 27.3984C177.382 27.3984 177.083 27.347 176.831 27.2444C176.588 27.1417 176.388 27.011 176.229 26.8524C176.08 26.675 175.954 26.4604 175.851 26.2084C175.758 25.9564 175.711 25.5737 175.711 25.0604V20.0204H174.241V19.0264H182.459ZM179.911 19.0264C179.902 18.6437 179.808 18.3684 179.631 18.2004C179.463 18.0324 179.183 17.9484 178.791 17.9484H177.475C176.868 17.9484 176.397 17.9064 176.061 17.8224C175.734 17.7384 175.454 17.6077 175.221 17.4304C174.969 17.2437 174.778 17.0057 174.647 16.7164C174.526 16.4177 174.465 16.0817 174.465 15.7084C174.465 15.587 174.47 15.4704 174.479 15.3584C174.498 15.237 174.516 15.1064 174.535 14.9664L175.571 15.0364C175.552 15.139 175.538 15.2324 175.529 15.3164C175.52 15.391 175.515 15.475 175.515 15.5684C175.515 15.7737 175.534 15.9557 175.571 16.1144C175.618 16.273 175.688 16.4037 175.781 16.5064C175.912 16.6557 176.098 16.7677 176.341 16.8424C176.593 16.9077 176.948 16.9404 177.405 16.9404H178.497C178.992 16.9404 179.384 16.9777 179.673 17.0524C179.962 17.127 180.21 17.2624 180.415 17.4584C180.574 17.6077 180.695 17.813 180.779 18.0744C180.863 18.3264 180.91 18.6437 180.919 19.0264H179.911ZM186.188 19.0264V20.0204H184.718V27.7344H183.64V21.1684C183.528 20.851 183.36 20.5804 183.136 20.3564C182.922 20.1324 182.642 20.0204 182.296 20.0204H182.184V19.0264H182.394C182.618 19.0264 182.852 19.101 183.094 19.2504C183.337 19.3904 183.533 19.6097 183.682 19.9084C183.673 19.8617 183.664 19.7544 183.654 19.5864C183.645 19.4184 183.64 19.2737 183.64 19.1524V18.1024H184.396L184.704 19.0264H186.188ZM197.481 19.0264V20.0204H192.931V20.8884V21.1124V27.7344H191.853C191.582 27.1837 191.204 26.6657 190.719 26.1804C190.234 25.695 189.678 25.289 189.053 24.9624C188.437 24.6264 187.788 24.4164 187.107 24.3324L186.561 22.9884C187.466 22.4657 188.372 21.999 189.277 21.5884C190.182 21.1777 191.144 20.8137 192.161 20.4964L191.853 21.0844V20.0204H185.903V19.0264H197.481ZM191.853 21.1964L192.147 21.6024C191.671 21.733 191.176 21.9057 190.663 22.1204C190.159 22.335 189.664 22.559 189.179 22.7924C188.703 23.0257 188.264 23.2544 187.863 23.4784C188.386 23.581 188.922 23.777 189.473 24.0664C190.033 24.3557 190.542 24.7104 190.999 25.1304C191.466 25.541 191.811 25.989 192.035 26.4744L191.923 26.5024C191.904 26.2877 191.886 26.073 191.867 25.8584C191.858 25.6437 191.853 25.387 191.853 25.0884V21.1964ZM196.697 23.7024C196.697 24.0104 196.636 24.3044 196.515 24.5844C196.394 24.855 196.193 25.079 195.913 25.2564C195.633 25.4337 195.26 25.5224 194.793 25.5224C194.644 25.5224 194.499 25.5177 194.359 25.5084C194.228 25.499 194.098 25.4804 193.967 25.4524L194.051 24.4444C194.107 24.4537 194.172 24.463 194.247 24.4724C194.331 24.4724 194.424 24.4724 194.527 24.4724C194.975 24.4724 195.264 24.3884 195.395 24.2204C195.535 24.043 195.605 23.833 195.605 23.5904C195.605 23.0957 195.362 22.6757 194.877 22.3304C194.401 21.9757 193.692 21.733 192.749 21.6024L192.791 20.5524C193.51 20.627 194.163 20.809 194.751 21.0984C195.339 21.3784 195.81 21.7424 196.165 22.1904C196.52 22.629 196.697 23.133 196.697 23.7024ZM201.2 19.0264V20.0204H199.73V27.7344H198.652V21.1684C198.54 20.851 198.372 20.5804 198.148 20.3564C197.933 20.1324 197.653 20.0204 197.308 20.0204H197.196V19.0264H197.406C197.63 19.0264 197.863 19.101 198.106 19.2504C198.349 19.3904 198.545 19.6097 198.694 19.9084C198.685 19.8617 198.675 19.7544 198.666 19.5864C198.657 19.4184 198.652 19.2737 198.652 19.1524V18.1024H199.408L199.716 19.0264H201.2ZM209.959 19.0264V20.0204H208.489V27.7344H207.411C207.019 27.2117 206.585 26.7544 206.109 26.3624C205.633 25.961 205.082 25.625 204.457 25.3544C203.831 25.0837 203.089 24.8877 202.231 24.7664L201.727 23.4924C202.016 23.2964 202.319 23.1097 202.637 22.9324C202.954 22.755 203.276 22.5824 203.603 22.4144C203.939 22.2464 204.265 22.0877 204.583 21.9384C204.228 21.6677 203.817 21.4297 203.351 21.2244C202.893 21.0097 202.352 20.837 201.727 20.7064L202.161 19.7544L202.189 20.0204H200.915V19.0264H209.959ZM207.411 20.0204H202.945L202.651 19.8944C203.043 19.9877 203.435 20.137 203.827 20.3424C204.228 20.5477 204.597 20.7717 204.933 21.0144C205.278 21.2477 205.553 21.4717 205.759 21.6864L205.829 22.4704C205.493 22.6197 205.138 22.783 204.765 22.9604C204.401 23.1377 204.046 23.315 203.701 23.4924C203.365 23.6697 203.066 23.847 202.805 24.0244L202.637 23.8144C203.439 23.9264 204.139 24.113 204.737 24.3744C205.343 24.6357 205.88 24.953 206.347 25.3264C206.813 25.6997 207.243 26.115 207.635 26.5724L207.453 26.6284C207.443 26.4324 207.434 26.2224 207.425 25.9984C207.415 25.765 207.411 25.5457 207.411 25.3404V20.0204ZM203.575 27.8184C203.341 27.8184 203.141 27.7437 202.973 27.5944C202.814 27.445 202.735 27.249 202.735 27.0064C202.735 26.7637 202.814 26.563 202.973 26.4044C203.141 26.2457 203.341 26.1664 203.575 26.1664C203.808 26.1664 204.004 26.2457 204.163 26.4044C204.331 26.563 204.415 26.7637 204.415 27.0064C204.415 27.249 204.331 27.445 204.163 27.5944C204.004 27.7437 203.808 27.8184 203.575 27.8184ZM222.455 19.0264V20.0204H220.985V27.7344H219.907C219.515 27.2117 219.081 26.7544 218.605 26.3624C218.129 25.961 217.578 25.625 216.953 25.3544C216.327 25.0837 215.585 24.8877 214.727 24.7664L214.223 23.4924C214.512 23.2964 214.815 23.1097 215.133 22.9324C215.45 22.755 215.772 22.5824 216.099 22.4144C216.435 22.2464 216.761 22.0877 217.079 21.9384C216.724 21.6677 216.313 21.4297 215.847 21.2244C215.389 21.0097 214.848 20.837 214.223 20.7064L214.657 19.7544L214.685 20.0204H213.411V19.0264H222.455ZM219.907 20.0204H215.441L215.147 19.8944C215.539 19.9877 215.931 20.137 216.323 20.3424C216.724 20.5477 217.093 20.7717 217.429 21.0144C217.774 21.2477 218.049 21.4717 218.255 21.6864L218.325 22.4704C217.989 22.6197 217.634 22.783 217.261 22.9604C216.897 23.1377 216.542 23.315 216.197 23.4924C215.861 23.6697 215.562 23.847 215.301 24.0244L215.133 23.8144C215.935 23.9264 216.635 24.113 217.233 24.3744C217.839 24.6357 218.376 24.953 218.843 25.3264C219.309 25.6997 219.739 26.115 220.131 26.5724L219.949 26.6284C219.939 26.4324 219.93 26.2224 219.921 25.9984C219.911 25.765 219.907 25.5457 219.907 25.3404V20.0204ZM226.178 19.0264V20.0204H224.708V27.7344H223.63V21.1684C223.518 20.851 223.35 20.5804 223.126 20.3564C222.912 20.1324 222.632 20.0204 222.286 20.0204H222.174V19.0264H222.384C222.608 19.0264 222.842 19.101 223.084 19.2504C223.327 19.3904 223.523 19.6097 223.672 19.9084C223.663 19.8617 223.654 19.7544 223.644 19.5864C223.635 19.4184 223.63 19.2737 223.63 19.1524V18.1024H224.386L224.694 19.0264H226.178ZM231.017 19.0264V20.0204H230.737C230.448 20.0857 230.135 20.2304 229.799 20.4544C229.463 20.669 229.146 20.9537 228.847 21.3084C228.549 21.6537 228.301 22.0597 228.105 22.5264C227.919 22.993 227.825 23.5064 227.825 24.0664C227.825 24.7384 227.923 25.275 228.119 25.6764C228.325 26.0684 228.577 26.3484 228.875 26.5164C229.174 26.6844 229.473 26.7684 229.771 26.7684C230.005 26.7684 230.201 26.745 230.359 26.6984C230.518 26.6517 230.7 26.5677 230.905 26.4464L231.395 27.3004C231.153 27.487 230.887 27.6177 230.597 27.6924C230.308 27.767 230.019 27.8044 229.729 27.8044C229.141 27.8044 228.619 27.6504 228.161 27.3424C227.713 27.0344 227.359 26.605 227.097 26.0544C226.845 25.4944 226.719 24.841 226.719 24.0944C226.719 23.329 226.864 22.6384 227.153 22.0224C227.443 21.397 227.83 20.8697 228.315 20.4404C228.81 20.011 229.356 19.6984 229.953 19.5024L229.057 19.9644C228.889 19.983 228.707 19.997 228.511 20.0064C228.315 20.0157 228.096 20.0204 227.853 20.0204H225.893V19.0264H231.017ZM239.357 19.0264V20.0204H237.887V27.7344H236.809C236.529 27.1744 236.142 26.661 235.647 26.1944C235.162 25.7184 234.602 25.317 233.967 24.9904C233.332 24.6637 232.656 24.4444 231.937 24.3324L231.391 22.9884C232.287 22.447 233.211 21.957 234.163 21.5184C235.124 21.0797 236.114 20.7064 237.131 20.3984L236.809 20.9864V20.0204H230.733V19.0264H239.357ZM236.809 21.0984L237.103 21.4904C236.394 21.7237 235.647 22.013 234.863 22.3584C234.079 22.6944 233.356 23.0677 232.693 23.4784C233.197 23.5904 233.734 23.7817 234.303 24.0524C234.872 24.323 235.4 24.6637 235.885 25.0744C236.37 25.485 236.744 25.961 237.005 26.5024H236.879C236.86 26.2877 236.842 26.073 236.823 25.8584C236.814 25.6437 236.809 25.387 236.809 25.0884V21.0984Z" fill="white"/>
<path d="M276 1.23438H421C425.142 1.23438 428.5 4.59224 428.5 8.73438V35.7344C428.5 39.8765 425.142 43.2344 421 43.2344H276C271.858 43.2344 268.5 39.8765 268.5 35.7344V8.73438C268.5 4.59224 271.858 1.23438 276 1.23438Z" fill="#2B2B2B"/>
<path d="M276 1.23438H421C425.142 1.23438 428.5 4.59224 428.5 8.73438V35.7344C428.5 39.8765 425.142 43.2344 421 43.2344H276C271.858 43.2344 268.5 39.8765 268.5 35.7344V8.73438C268.5 4.59224 271.858 1.23438 276 1.23438Z" stroke="#3BAFDA"/>
<path d="M289.696 17.7824V18.9184H288.016V27.7344H286.784C286.464 27.0944 286.021 26.5077 285.456 25.9744C284.901 25.4304 284.261 24.9717 283.536 24.5984C282.811 24.225 282.037 23.9744 281.216 23.8464L280.592 22.3104C281.616 21.6917 282.672 21.1317 283.76 20.6304C284.859 20.129 285.989 19.7024 287.152 19.3504L286.784 20.0224V18.9184H279.84V17.7824H289.696ZM286.784 20.1504L287.12 20.5984C286.309 20.865 285.456 21.1957 284.56 21.5904C283.664 21.9744 282.837 22.401 282.08 22.8704C282.656 22.9984 283.269 23.217 283.92 23.5264C284.571 23.8357 285.173 24.225 285.728 24.6944C286.283 25.1637 286.709 25.7077 287.008 26.3264H286.864C286.843 26.081 286.821 25.8357 286.8 25.5904C286.789 25.345 286.784 25.0517 286.784 24.7104V20.1504ZM282.96 27.8304C282.693 27.8304 282.464 27.745 282.272 27.5744C282.091 27.4037 282 27.1797 282 26.9024C282 26.625 282.091 26.3957 282.272 26.2144C282.464 26.033 282.693 25.9424 282.96 25.9424C283.227 25.9424 283.451 26.033 283.632 26.2144C283.824 26.3957 283.92 26.625 283.92 26.9024C283.92 27.1797 283.824 27.4037 283.632 27.5744C283.451 27.745 283.227 27.8304 282.96 27.8304ZM293.947 17.7824V18.9184H292.267V27.7344H291.035V18.9184H289.371V17.7824H290.843C290.673 17.5797 290.497 17.3664 290.315 17.1424C290.145 16.9184 289.99 16.6944 289.851 16.4704C290.214 15.841 290.603 15.2704 291.019 14.7584C291.435 14.2357 291.926 13.825 292.491 13.5264C293.057 13.217 293.739 13.0624 294.539 13.0624C295.105 13.0624 295.643 13.1317 296.155 13.2704C296.678 13.409 297.19 13.6117 297.691 13.8784C298.193 14.1344 298.699 14.449 299.211 14.8224C299.723 15.185 300.257 15.5904 300.811 16.0384L300.139 16.9024C299.403 16.305 298.737 15.809 298.139 15.4144C297.553 15.0197 296.987 14.7264 296.443 14.5344C295.91 14.3317 295.339 14.2304 294.731 14.2304C294.145 14.2304 293.633 14.3317 293.195 14.5344C292.769 14.737 292.395 15.0197 292.075 15.3824C291.766 15.745 291.483 16.1664 291.227 16.6464C291.313 16.8064 291.43 16.9824 291.579 17.1744C291.729 17.3664 291.899 17.569 292.091 17.7824H293.947ZM303.477 17.7824V18.9184H301.797V27.7344H300.565C300.245 27.0944 299.803 26.5077 299.237 25.9744C298.683 25.4304 298.043 24.9717 297.317 24.5984C296.592 24.225 295.819 23.9744 294.997 23.8464L294.373 22.3104C295.397 21.6917 296.453 21.1317 297.541 20.6304C298.64 20.129 299.771 19.7024 300.933 19.3504L300.565 20.0224V18.9184H293.621V17.7824H303.477ZM300.565 20.1504L300.901 20.5984C300.091 20.865 299.237 21.1957 298.341 21.5904C297.445 21.9744 296.619 22.401 295.861 22.8704C296.437 22.9984 297.051 23.217 297.701 23.5264C298.352 23.8357 298.955 24.225 299.509 24.6944C300.064 25.1637 300.491 25.7077 300.789 26.3264H300.645C300.624 26.081 300.603 25.8357 300.581 25.5904C300.571 25.345 300.565 25.0517 300.565 24.7104V20.1504ZM310.821 25.7024C310.533 25.7024 310.255 25.6437 309.989 25.5264C309.733 25.409 309.471 25.217 309.205 24.9504C308.949 24.673 308.671 24.2997 308.373 23.8304L309.349 23.2384C309.637 23.7504 309.877 24.0864 310.069 24.2464C310.261 24.4064 310.469 24.4864 310.693 24.4864C310.874 24.4864 311.045 24.433 311.205 24.3264C311.375 24.209 311.557 24.0117 311.749 23.7344C311.951 23.457 312.181 23.0784 312.437 22.5984L312.805 22.0704C313.093 21.473 313.359 21.073 313.605 20.8704C313.861 20.657 314.143 20.5504 314.453 20.5504C314.805 20.5504 315.119 20.6517 315.397 20.8544C315.685 21.0464 316.015 21.345 316.389 21.7504L316.437 22.2464L316.325 23.0624C316.005 22.6464 315.722 22.321 315.477 22.0864C315.242 21.8517 315.013 21.7344 314.789 21.7344C314.639 21.7344 314.501 21.777 314.373 21.8624C314.245 21.9477 314.101 22.113 313.941 22.3584C313.781 22.593 313.567 22.9557 313.301 23.4464C313.013 23.969 312.751 24.401 312.516 24.7424C312.282 25.073 312.031 25.3184 311.765 25.4784C311.509 25.6277 311.194 25.7024 310.821 25.7024ZM312.149 23.3984C312.042 22.673 311.93 22.097 311.812 21.6704C311.706 21.2437 311.514 20.913 311.237 20.6784C310.97 20.433 310.607 20.2517 310.149 20.1344C309.69 20.0064 309.114 19.8997 308.421 19.8144L308.661 18.5984L309.525 18.9184C310.133 19.0144 310.639 19.137 311.045 19.2864C311.45 19.4357 311.775 19.633 312.021 19.8784C312.277 20.113 312.469 20.4064 312.597 20.7584C312.725 21.1104 312.81 21.537 312.853 22.0384L312.149 23.3984ZM323.701 17.7824V18.9184H317.22V24.4544C317.22 24.9237 317.247 25.2544 317.301 25.4464C317.354 25.6384 317.418 25.777 317.493 25.8624C317.685 26.0864 317.973 26.1984 318.357 26.1984C318.783 26.1984 319.183 26.097 319.557 25.8944C319.93 25.6917 320.255 25.441 320.533 25.1424C320.842 24.8117 321.077 24.4597 321.237 24.0864C321.407 23.713 321.493 23.3344 321.493 22.9504C321.493 22.609 321.407 22.353 321.237 22.1824C321.066 22.001 320.783 21.9104 320.389 21.9104C320.261 21.9104 320.122 21.921 319.973 21.9424C319.823 21.9637 319.679 21.9904 319.541 22.0224L319.365 20.8864C319.567 20.833 319.775 20.7904 319.989 20.7584C320.213 20.7264 320.447 20.7104 320.693 20.7104C321.087 20.7104 321.439 20.785 321.749 20.9344C322.058 21.0837 322.298 21.3184 322.469 21.6384C322.65 21.9584 322.741 22.3744 322.741 22.8864C322.741 23.5157 322.586 24.129 322.277 24.7264C321.967 25.313 321.578 25.809 321.109 26.2144C320.714 26.5557 320.282 26.833 319.813 27.0464C319.354 27.249 318.847 27.3504 318.293 27.3504C317.898 27.3504 317.557 27.2917 317.269 27.1744C316.991 27.057 316.762 26.9077 316.581 26.7264C316.41 26.5237 316.266 26.2784 316.149 25.9904C316.042 25.7024 315.989 25.265 315.989 24.6784V22.3424L316.053 21.7664C316.031 21.5744 316.015 21.3717 316.005 21.1584C315.994 20.9344 315.989 20.6837 315.989 20.4064V18.9184H307.652V17.7824H323.701ZM320.789 17.7824C320.778 17.345 320.671 17.0304 320.469 16.8384C320.277 16.6464 319.957 16.5504 319.509 16.5504H318.005C317.311 16.5504 316.773 16.5024 316.389 16.4064C316.015 16.3104 315.695 16.161 315.429 15.9584C315.141 15.745 314.922 15.473 314.773 15.1424C314.634 14.801 314.565 14.417 314.565 13.9904C314.565 13.8517 314.57 13.7184 314.581 13.5904C314.602 13.4517 314.623 13.3024 314.645 13.1424L315.829 13.2224C315.807 13.3397 315.791 13.4464 315.781 13.5424C315.77 13.6277 315.765 13.7237 315.765 13.8304C315.765 14.065 315.786 14.273 315.829 14.4544C315.882 14.6357 315.962 14.785 316.069 14.9024C316.218 15.073 316.431 15.201 316.709 15.2864C316.997 15.361 317.402 15.3984 317.925 15.3984H319.173C319.738 15.3984 320.186 15.441 320.517 15.5264C320.847 15.6117 321.13 15.7664 321.365 15.9904C321.546 16.161 321.685 16.3957 321.781 16.6944C321.877 16.9824 321.93 17.345 321.941 17.7824H320.789ZM336.619 17.7824V18.9184H331.419V19.9104V20.1664V27.7344H330.187C329.878 27.105 329.446 26.513 328.891 25.9584C328.336 25.4037 327.702 24.9397 326.987 24.5664C326.283 24.1824 325.542 23.9424 324.763 23.8464L324.139 22.3104C325.174 21.713 326.208 21.1797 327.243 20.7104C328.278 20.241 329.376 19.825 330.539 19.4624L330.187 20.1344V18.9184H323.387V17.7824H336.619ZM330.187 20.2624L330.523 20.7264C329.979 20.8757 329.414 21.073 328.827 21.3184C328.251 21.5637 327.686 21.8197 327.131 22.0864C326.587 22.353 326.086 22.6144 325.627 22.8704C326.224 22.9877 326.838 23.2117 327.467 23.5424C328.107 23.873 328.688 24.2784 329.211 24.7584C329.744 25.2277 330.139 25.7397 330.395 26.2944L330.267 26.3264C330.246 26.081 330.224 25.8357 330.203 25.5904C330.192 25.345 330.187 25.0517 330.187 24.7104V20.2624ZM335.723 23.1264C335.723 23.4784 335.654 23.8144 335.515 24.1344C335.376 24.4437 335.147 24.6997 334.827 24.9024C334.507 25.105 334.08 25.2064 333.547 25.2064C333.376 25.2064 333.211 25.201 333.051 25.1904C332.902 25.1797 332.752 25.1584 332.603 25.1264L332.699 23.9744C332.763 23.985 332.838 23.9957 332.923 24.0064C333.019 24.0064 333.126 24.0064 333.243 24.0064C333.755 24.0064 334.086 23.9104 334.235 23.7184C334.395 23.5157 334.475 23.2757 334.475 22.9984C334.475 22.433 334.198 21.953 333.643 21.5584C333.099 21.153 332.288 20.8757 331.211 20.7264L331.259 19.5264C332.08 19.6117 332.827 19.8197 333.499 20.1504C334.171 20.4704 334.71 20.8864 335.115 21.3984C335.52 21.8997 335.723 22.4757 335.723 23.1264ZM354.441 17.7824V18.9184H347.961V24.4544C347.961 24.9237 347.988 25.2544 348.041 25.4464C348.094 25.6384 348.158 25.777 348.233 25.8624C348.425 26.0864 348.718 26.1984 349.113 26.1984C349.529 26.1984 349.924 26.097 350.297 25.8944C350.67 25.6917 350.996 25.441 351.273 25.1424C351.582 24.8117 351.817 24.4597 351.977 24.0864C352.148 23.713 352.233 23.3344 352.233 22.9504C352.233 22.609 352.148 22.353 351.977 22.1824C351.806 22.001 351.524 21.9104 351.129 21.9104C351.001 21.9104 350.862 21.921 350.713 21.9424C350.564 21.9637 350.42 21.9904 350.281 22.0224L350.105 20.8864C350.308 20.833 350.516 20.7904 350.729 20.7584C350.953 20.7264 351.188 20.7104 351.433 20.7104C351.828 20.7104 352.18 20.785 352.489 20.9344C352.798 21.0837 353.038 21.3184 353.209 21.6384C353.39 21.9584 353.481 22.3744 353.481 22.8864C353.481 23.5157 353.326 24.129 353.017 24.7264C352.708 25.313 352.318 25.809 351.849 26.2144C351.454 26.5557 351.022 26.833 350.553 27.0464C350.094 27.249 349.588 27.3504 349.033 27.3504C348.638 27.3504 348.297 27.2917 348.009 27.1744C347.732 27.057 347.502 26.9077 347.321 26.7264C347.15 26.5237 347.006 26.2784 346.889 25.9904C346.782 25.7024 346.729 25.265 346.729 24.6784V18.9184H345.049V17.7824H354.441ZM351.529 17.7824C351.518 17.345 351.396 17.041 351.161 16.8704C350.937 16.6997 350.59 16.6144 350.121 16.6144H348.745C348.052 16.6144 347.513 16.5664 347.129 16.4704C346.756 16.3744 346.436 16.225 346.169 16.0224C345.881 15.809 345.662 15.537 345.513 15.2064C345.374 14.865 345.305 14.481 345.305 14.0544C345.305 13.9157 345.31 13.777 345.321 13.6384C345.342 13.4997 345.364 13.3504 345.385 13.1904L346.569 13.2704C346.548 13.3877 346.532 13.4997 346.521 13.6064C346.51 13.7024 346.505 13.8037 346.505 13.9104C346.505 14.145 346.526 14.353 346.569 14.5344C346.622 14.7157 346.702 14.865 346.809 14.9824C346.958 15.153 347.172 15.2864 347.449 15.3824C347.737 15.4677 348.142 15.5104 348.665 15.5104H349.113C349.294 15.5104 349.508 15.521 349.753 15.5424C349.998 15.5637 350.308 15.6117 350.681 15.6864C351.054 15.7504 351.518 15.8517 352.073 15.9904C352.254 16.161 352.398 16.3957 352.505 16.6944C352.612 16.9824 352.67 17.345 352.681 17.7824H351.529ZM345.369 17.7824V18.9184H343.689V27.7344H342.457V18.9184H340.793V17.7824H342.265C342.094 17.5797 341.918 17.3664 341.737 17.1424C341.566 16.9184 341.412 16.6944 341.273 16.4704C341.636 15.841 342.025 15.2704 342.441 14.7584C342.857 14.2357 343.348 13.825 343.913 13.5264C344.478 13.217 345.161 13.0624 345.961 13.0624C346.718 13.0624 347.417 13.1797 348.057 13.4144C348.708 13.649 349.353 13.985 349.993 14.4224C350.644 14.8597 351.337 15.3824 352.073 15.9904L351.433 16.7264C350.878 16.289 350.366 15.9157 349.897 15.6064C349.438 15.2864 349.006 15.025 348.601 14.8224C348.196 14.609 347.796 14.4544 347.401 14.3584C347.006 14.2517 346.59 14.1984 346.153 14.1984C345.566 14.1984 345.06 14.305 344.633 14.5184C344.206 14.721 343.833 15.009 343.513 15.3824C343.204 15.745 342.916 16.1664 342.649 16.6464C342.734 16.8064 342.852 16.9824 343.001 17.1744C343.15 17.3664 343.321 17.569 343.513 17.7824H345.369ZM363.197 17.7824V18.9184H361.517V27.7344H360.285V18.9184H358.621V17.7824H360.093C359.923 17.5797 359.747 17.3664 359.565 17.1424C359.395 16.9184 359.24 16.6944 359.101 16.4704C359.464 15.841 359.853 15.2704 360.269 14.7584C360.685 14.2357 361.176 13.825 361.741 13.5264C362.307 13.217 362.989 13.0624 363.789 13.0624C364.355 13.0624 364.893 13.1317 365.405 13.2704C365.928 13.409 366.44 13.6117 366.941 13.8784C367.443 14.1344 367.949 14.449 368.461 14.8224C368.973 15.185 369.507 15.5904 370.061 16.0384L369.389 16.9024C368.653 16.305 367.987 15.809 367.389 15.4144C366.803 15.0197 366.237 14.7264 365.693 14.5344C365.16 14.3317 364.589 14.2304 363.981 14.2304C363.395 14.2304 362.883 14.3317 362.445 14.5344C362.019 14.737 361.645 15.0197 361.325 15.3824C361.016 15.745 360.733 16.1664 360.477 16.6464C360.563 16.8064 360.68 16.9824 360.829 17.1744C360.979 17.3664 361.149 17.569 361.341 17.7824H363.197ZM376.103 17.7824V18.9184H370.903V19.9104V20.1664V27.7344H369.671C369.362 27.105 368.93 26.513 368.375 25.9584C367.821 25.4037 367.186 24.9397 366.471 24.5664C365.767 24.1824 365.026 23.9424 364.247 23.8464L363.623 22.3104C364.658 21.713 365.693 21.1797 366.727 20.7104C367.762 20.241 368.861 19.825 370.023 19.4624L369.671 20.1344V18.9184H362.871V17.7824H376.103ZM369.671 20.2624L370.007 20.7264C369.463 20.8757 368.898 21.073 368.311 21.3184C367.735 21.5637 367.17 21.8197 366.615 22.0864C366.071 22.353 365.57 22.6144 365.111 22.8704C365.709 22.9877 366.322 23.2117 366.951 23.5424C367.591 23.873 368.173 24.2784 368.695 24.7584C369.229 25.2277 369.623 25.7397 369.879 26.2944L369.751 26.3264C369.73 26.081 369.709 25.8357 369.687 25.5904C369.677 25.345 369.671 25.0517 369.671 24.7104V20.2624ZM375.207 23.1264C375.207 23.4784 375.138 23.8144 374.999 24.1344C374.861 24.4437 374.631 24.6997 374.311 24.9024C373.991 25.105 373.565 25.2064 373.031 25.2064C372.861 25.2064 372.695 25.201 372.535 25.1904C372.386 25.1797 372.237 25.1584 372.087 25.1264L372.183 23.9744C372.247 23.985 372.322 23.9957 372.407 24.0064C372.503 24.0064 372.61 24.0064 372.727 24.0064C373.239 24.0064 373.57 23.9104 373.719 23.7184C373.879 23.5157 373.959 23.2757 373.959 22.9984C373.959 22.433 373.682 21.953 373.127 21.5584C372.583 21.153 371.773 20.8757 370.695 20.7264L370.743 19.5264C371.565 19.6117 372.311 19.8197 372.983 20.1504C373.655 20.4704 374.194 20.8864 374.599 21.3984C375.005 21.8997 375.207 22.4757 375.207 23.1264ZM384.854 17.7824V18.9184H383.174V27.7344H381.942V18.9184H380.277V17.7824H381.75C381.579 17.5797 381.403 17.3664 381.222 17.1424C381.051 16.9184 380.896 16.6944 380.758 16.4704C381.12 15.841 381.51 15.2704 381.926 14.7584C382.342 14.2357 382.832 13.825 383.398 13.5264C383.963 13.217 384.646 13.0624 385.446 13.0624C386.011 13.0624 386.55 13.1317 387.062 13.2704C387.584 13.409 388.096 13.6117 388.598 13.8784C389.099 14.1344 389.606 14.449 390.118 14.8224C390.63 15.185 391.163 15.5904 391.718 16.0384L391.046 16.9024C390.31 16.305 389.643 15.809 389.046 15.4144C388.459 15.0197 387.894 14.7264 387.35 14.5344C386.816 14.3317 386.246 14.2304 385.638 14.2304C385.051 14.2304 384.539 14.3317 384.102 14.5344C383.675 14.737 383.302 15.0197 382.982 15.3824C382.672 15.745 382.39 16.1664 382.134 16.6464C382.219 16.8064 382.336 16.9824 382.486 17.1744C382.635 17.3664 382.806 17.569 382.998 17.7824H384.854ZM397.76 17.7824V18.9184H392.56V19.9104V20.1664V27.7344H391.328C391.018 27.105 390.586 26.513 390.032 25.9584C389.477 25.4037 388.842 24.9397 388.128 24.5664C387.424 24.1824 386.682 23.9424 385.904 23.8464L385.28 22.3104C386.314 21.713 387.349 21.1797 388.384 20.7104C389.418 20.241 390.517 19.825 391.68 19.4624L391.328 20.1344V18.9184H384.527V17.7824H397.76ZM391.328 20.2624L391.664 20.7264C391.12 20.8757 390.554 21.073 389.968 21.3184C389.392 21.5637 388.826 21.8197 388.272 22.0864C387.728 22.353 387.226 22.6144 386.768 22.8704C387.365 22.9877 387.978 23.2117 388.608 23.5424C389.248 23.873 389.829 24.2784 390.352 24.7584C390.885 25.2277 391.28 25.7397 391.536 26.2944L391.408 26.3264C391.386 26.081 391.365 25.8357 391.344 25.5904C391.333 25.345 391.328 25.0517 391.328 24.7104V20.2624ZM396.864 23.1264C396.864 23.4784 396.794 23.8144 396.656 24.1344C396.517 24.4437 396.288 24.6997 395.968 24.9024C395.648 25.105 395.221 25.2064 394.688 25.2064C394.517 25.2064 394.352 25.201 394.192 25.1904C394.042 25.1797 393.893 25.1584 393.744 25.1264L393.84 23.9744C393.904 23.985 393.978 23.9957 394.064 24.0064C394.16 24.0064 394.266 24.0064 394.384 24.0064C394.896 24.0064 395.226 23.9104 395.376 23.7184C395.536 23.5157 395.616 23.2757 395.616 22.9984C395.616 22.433 395.338 21.953 394.784 21.5584C394.24 21.153 393.429 20.8757 392.352 20.7264L392.4 19.5264C393.221 19.6117 393.968 19.8197 394.64 20.1504C395.312 20.4704 395.85 20.8864 396.256 21.3984C396.661 21.8997 396.864 22.4757 396.864 23.1264ZM407.418 17.7824V18.9184H405.738V27.7344H404.506V23.8464L404.762 24.7424C404.41 24.2517 404.026 23.809 403.61 23.4144C403.194 23.0197 402.767 22.705 402.33 22.4704C401.892 22.2357 401.466 22.1184 401.05 22.1184C400.655 22.1184 400.319 22.225 400.042 22.4384C399.775 22.641 399.642 22.945 399.642 23.3504C399.642 23.6704 399.754 23.9477 399.978 24.1824C400.202 24.4064 400.548 24.609 401.018 24.7904L400.41 25.9264C399.759 25.6597 399.247 25.3024 398.874 24.8544C398.511 24.3957 398.33 23.8784 398.33 23.3024C398.33 22.7797 398.452 22.3477 398.698 22.0064C398.954 21.6544 399.274 21.393 399.658 21.2224C400.052 21.0517 400.452 20.9664 400.858 20.9664C401.412 20.9664 401.919 21.0624 402.378 21.2544C402.836 21.4464 403.263 21.7077 403.658 22.0384C404.063 22.369 404.447 22.753 404.81 23.1904L404.586 23.2544C404.554 23.009 404.532 22.769 404.522 22.5344C404.511 22.289 404.506 22.0437 404.506 21.7984V18.9184H397.434V17.7824H407.418ZM416.946 17.7824V18.9184H415.266V27.7344H414.034C413.714 27.0944 413.271 26.5077 412.706 25.9744C412.151 25.4304 411.511 24.9717 410.786 24.5984C410.061 24.225 409.287 23.9744 408.466 23.8464L407.842 22.3104C408.866 21.6917 409.922 21.1317 411.01 20.6304C412.109 20.129 413.239 19.7024 414.402 19.3504L414.034 20.0224V18.9184H407.09V17.7824H416.946ZM414.034 20.1504L414.37 20.5984C413.559 20.865 412.706 21.1957 411.81 21.5904C410.914 21.9744 410.087 22.401 409.33 22.8704C409.906 22.9984 410.519 23.217 411.17 23.5264C411.821 23.8357 412.423 24.225 412.978 24.6944C413.533 25.1637 413.959 25.7077 414.258 26.3264H414.114C414.093 26.081 414.071 25.8357 414.05 25.5904C414.039 25.345 414.034 25.0517 414.034 24.7104V20.1504Z" fill="white"/>
<path d="M445.5 8.73438C445.5 4.59224 448.858 1.23438 453 1.23438H598C602.142 1.23438 605.5 4.59224 605.5 8.73438V35.7344C605.5 39.8765 602.142 43.2344 598 43.2344H453C448.858 43.2344 445.5 39.8765 445.5 35.7344V8.73438Z" fill="#2B2B2B"/>
<path d="M445.5 8.73438C445.5 4.59224 448.858 1.23438 453 1.23438H598C602.142 1.23438 605.5 4.59224 605.5 8.73438V35.7344C605.5 39.8765 602.142 43.2344 598 43.2344H453C448.858 43.2344 445.5 39.8765 445.5 35.7344V8.73438Z" stroke="#3BAFDA"/>
<path d="M466.696 17.7824V18.9184H465.016V27.7344H463.784C463.464 27.0944 463.021 26.5077 462.456 25.9744C461.901 25.4304 461.261 24.9717 460.536 24.5984C459.811 24.225 459.037 23.9744 458.216 23.8464L457.592 22.3104C458.616 21.6917 459.672 21.1317 460.76 20.6304C461.859 20.129 462.989 19.7024 464.152 19.3504L463.784 20.0224V18.9184H456.84V17.7824H466.696ZM463.784 20.1504L464.12 20.5984C463.309 20.865 462.456 21.1957 461.56 21.5904C460.664 21.9744 459.837 22.401 459.08 22.8704C459.656 22.9984 460.269 23.217 460.92 23.5264C461.571 23.8357 462.173 24.225 462.728 24.6944C463.283 25.1637 463.709 25.7077 464.008 26.3264H463.864C463.843 26.081 463.821 25.8357 463.8 25.5904C463.789 25.345 463.784 25.0517 463.784 24.7104V20.1504ZM459.96 27.8304C459.693 27.8304 459.464 27.745 459.272 27.5744C459.091 27.4037 459 27.1797 459 26.9024C459 26.625 459.091 26.3957 459.272 26.2144C459.464 26.033 459.693 25.9424 459.96 25.9424C460.227 25.9424 460.451 26.033 460.632 26.2144C460.824 26.3957 460.92 26.625 460.92 26.9024C460.92 27.1797 460.824 27.4037 460.632 27.5744C460.451 27.745 460.227 27.8304 459.96 27.8304ZM470.947 17.7824V18.9184H469.267V27.7344H468.035V18.9184H466.371V17.7824H467.843C467.673 17.5797 467.497 17.3664 467.315 17.1424C467.145 16.9184 466.99 16.6944 466.851 16.4704C467.214 15.841 467.603 15.2704 468.019 14.7584C468.435 14.2357 468.926 13.825 469.491 13.5264C470.057 13.217 470.739 13.0624 471.539 13.0624C472.105 13.0624 472.643 13.1317 473.155 13.2704C473.678 13.409 474.19 13.6117 474.691 13.8784C475.193 14.1344 475.699 14.449 476.211 14.8224C476.723 15.185 477.257 15.5904 477.811 16.0384L477.139 16.9024C476.403 16.305 475.737 15.809 475.139 15.4144C474.553 15.0197 473.987 14.7264 473.443 14.5344C472.91 14.3317 472.339 14.2304 471.731 14.2304C471.145 14.2304 470.633 14.3317 470.195 14.5344C469.769 14.737 469.395 15.0197 469.075 15.3824C468.766 15.745 468.483 16.1664 468.227 16.6464C468.313 16.8064 468.43 16.9824 468.579 17.1744C468.729 17.3664 468.899 17.569 469.091 17.7824H470.947ZM480.477 17.7824V18.9184H478.797V27.7344H477.565C477.245 27.0944 476.803 26.5077 476.237 25.9744C475.683 25.4304 475.043 24.9717 474.317 24.5984C473.592 24.225 472.819 23.9744 471.997 23.8464L471.373 22.3104C472.397 21.6917 473.453 21.1317 474.541 20.6304C475.64 20.129 476.771 19.7024 477.933 19.3504L477.565 20.0224V18.9184H470.621V17.7824H480.477ZM477.565 20.1504L477.901 20.5984C477.091 20.865 476.237 21.1957 475.341 21.5904C474.445 21.9744 473.619 22.401 472.861 22.8704C473.437 22.9984 474.051 23.217 474.701 23.5264C475.352 23.8357 475.955 24.225 476.509 24.6944C477.064 25.1637 477.491 25.7077 477.789 26.3264H477.645C477.624 26.081 477.603 25.8357 477.581 25.5904C477.571 25.345 477.565 25.0517 477.565 24.7104V20.1504ZM487.821 25.7024C487.533 25.7024 487.255 25.6437 486.989 25.5264C486.733 25.409 486.471 25.217 486.205 24.9504C485.949 24.673 485.671 24.2997 485.373 23.8304L486.349 23.2384C486.637 23.7504 486.877 24.0864 487.069 24.2464C487.261 24.4064 487.469 24.4864 487.693 24.4864C487.874 24.4864 488.045 24.433 488.205 24.3264C488.375 24.209 488.557 24.0117 488.749 23.7344C488.951 23.457 489.181 23.0784 489.437 22.5984L489.805 22.0704C490.093 21.473 490.359 21.073 490.605 20.8704C490.861 20.657 491.143 20.5504 491.453 20.5504C491.805 20.5504 492.119 20.6517 492.397 20.8544C492.685 21.0464 493.015 21.345 493.389 21.7504L493.437 22.2464L493.325 23.0624C493.005 22.6464 492.722 22.321 492.477 22.0864C492.242 21.8517 492.013 21.7344 491.789 21.7344C491.639 21.7344 491.501 21.777 491.373 21.8624C491.245 21.9477 491.101 22.113 490.941 22.3584C490.781 22.593 490.567 22.9557 490.301 23.4464C490.013 23.969 489.751 24.401 489.516 24.7424C489.282 25.073 489.031 25.3184 488.765 25.4784C488.509 25.6277 488.194 25.7024 487.821 25.7024ZM489.149 23.3984C489.042 22.673 488.93 22.097 488.812 21.6704C488.706 21.2437 488.514 20.913 488.237 20.6784C487.97 20.433 487.607 20.2517 487.149 20.1344C486.69 20.0064 486.114 19.8997 485.421 19.8144L485.661 18.5984L486.525 18.9184C487.133 19.0144 487.639 19.137 488.045 19.2864C488.45 19.4357 488.775 19.633 489.021 19.8784C489.277 20.113 489.469 20.4064 489.597 20.7584C489.725 21.1104 489.81 21.537 489.853 22.0384L489.149 23.3984ZM500.701 17.7824V18.9184H494.22V24.4544C494.22 24.9237 494.247 25.2544 494.301 25.4464C494.354 25.6384 494.418 25.777 494.493 25.8624C494.685 26.0864 494.973 26.1984 495.357 26.1984C495.783 26.1984 496.183 26.097 496.557 25.8944C496.93 25.6917 497.255 25.441 497.533 25.1424C497.842 24.8117 498.077 24.4597 498.237 24.0864C498.407 23.713 498.493 23.3344 498.493 22.9504C498.493 22.609 498.407 22.353 498.237 22.1824C498.066 22.001 497.783 21.9104 497.389 21.9104C497.261 21.9104 497.122 21.921 496.973 21.9424C496.823 21.9637 496.679 21.9904 496.541 22.0224L496.365 20.8864C496.567 20.833 496.775 20.7904 496.989 20.7584C497.213 20.7264 497.447 20.7104 497.693 20.7104C498.087 20.7104 498.439 20.785 498.749 20.9344C499.058 21.0837 499.298 21.3184 499.469 21.6384C499.65 21.9584 499.741 22.3744 499.741 22.8864C499.741 23.5157 499.586 24.129 499.277 24.7264C498.967 25.313 498.578 25.809 498.109 26.2144C497.714 26.5557 497.282 26.833 496.813 27.0464C496.354 27.249 495.847 27.3504 495.293 27.3504C494.898 27.3504 494.557 27.2917 494.269 27.1744C493.991 27.057 493.762 26.9077 493.581 26.7264C493.41 26.5237 493.266 26.2784 493.149 25.9904C493.042 25.7024 492.989 25.265 492.989 24.6784V22.3424L493.053 21.7664C493.031 21.5744 493.015 21.3717 493.005 21.1584C492.994 20.9344 492.989 20.6837 492.989 20.4064V18.9184H484.652V17.7824H500.701ZM497.789 17.7824C497.778 17.345 497.671 17.0304 497.469 16.8384C497.277 16.6464 496.957 16.5504 496.509 16.5504H495.005C494.311 16.5504 493.773 16.5024 493.389 16.4064C493.015 16.3104 492.695 16.161 492.429 15.9584C492.141 15.745 491.922 15.473 491.773 15.1424C491.634 14.801 491.565 14.417 491.565 13.9904C491.565 13.8517 491.57 13.7184 491.581 13.5904C491.602 13.4517 491.623 13.3024 491.645 13.1424L492.829 13.2224C492.807 13.3397 492.791 13.4464 492.781 13.5424C492.77 13.6277 492.765 13.7237 492.765 13.8304C492.765 14.065 492.786 14.273 492.829 14.4544C492.882 14.6357 492.962 14.785 493.069 14.9024C493.218 15.073 493.431 15.201 493.709 15.2864C493.997 15.361 494.402 15.3984 494.925 15.3984H496.173C496.738 15.3984 497.186 15.441 497.517 15.5264C497.847 15.6117 498.13 15.7664 498.365 15.9904C498.546 16.161 498.685 16.3957 498.781 16.6944C498.877 16.9824 498.93 17.345 498.941 17.7824H497.789ZM513.619 17.7824V18.9184H508.419V19.9104V20.1664V27.7344H507.187C506.878 27.105 506.446 26.513 505.891 25.9584C505.336 25.4037 504.702 24.9397 503.987 24.5664C503.283 24.1824 502.542 23.9424 501.763 23.8464L501.139 22.3104C502.174 21.713 503.208 21.1797 504.243 20.7104C505.278 20.241 506.376 19.825 507.539 19.4624L507.187 20.1344V18.9184H500.387V17.7824H513.619ZM507.187 20.2624L507.523 20.7264C506.979 20.8757 506.414 21.073 505.827 21.3184C505.251 21.5637 504.686 21.8197 504.131 22.0864C503.587 22.353 503.086 22.6144 502.627 22.8704C503.224 22.9877 503.838 23.2117 504.467 23.5424C505.107 23.873 505.688 24.2784 506.211 24.7584C506.744 25.2277 507.139 25.7397 507.395 26.2944L507.267 26.3264C507.246 26.081 507.224 25.8357 507.203 25.5904C507.192 25.345 507.187 25.0517 507.187 24.7104V20.2624ZM512.723 23.1264C512.723 23.4784 512.654 23.8144 512.515 24.1344C512.376 24.4437 512.147 24.6997 511.827 24.9024C511.507 25.105 511.08 25.2064 510.547 25.2064C510.376 25.2064 510.211 25.201 510.051 25.1904C509.902 25.1797 509.752 25.1584 509.603 25.1264L509.699 23.9744C509.763 23.985 509.838 23.9957 509.923 24.0064C510.019 24.0064 510.126 24.0064 510.243 24.0064C510.755 24.0064 511.086 23.9104 511.235 23.7184C511.395 23.5157 511.475 23.2757 511.475 22.9984C511.475 22.433 511.198 21.953 510.643 21.5584C510.099 21.153 509.288 20.8757 508.211 20.7264L508.259 19.5264C509.08 19.6117 509.827 19.8197 510.499 20.1504C511.171 20.4704 511.71 20.8864 512.115 21.3984C512.52 21.8997 512.723 22.4757 512.723 23.1264ZM531.441 17.7824V18.9184H524.961V24.4544C524.961 24.9237 524.988 25.2544 525.041 25.4464C525.094 25.6384 525.158 25.777 525.233 25.8624C525.425 26.0864 525.718 26.1984 526.113 26.1984C526.529 26.1984 526.924 26.097 527.297 25.8944C527.67 25.6917 527.996 25.441 528.273 25.1424C528.582 24.8117 528.817 24.4597 528.977 24.0864C529.148 23.713 529.233 23.3344 529.233 22.9504C529.233 22.609 529.148 22.353 528.977 22.1824C528.806 22.001 528.524 21.9104 528.129 21.9104C528.001 21.9104 527.862 21.921 527.713 21.9424C527.564 21.9637 527.42 21.9904 527.281 22.0224L527.105 20.8864C527.308 20.833 527.516 20.7904 527.729 20.7584C527.953 20.7264 528.188 20.7104 528.433 20.7104C528.828 20.7104 529.18 20.785 529.489 20.9344C529.798 21.0837 530.038 21.3184 530.209 21.6384C530.39 21.9584 530.481 22.3744 530.481 22.8864C530.481 23.5157 530.326 24.129 530.017 24.7264C529.708 25.313 529.318 25.809 528.849 26.2144C528.454 26.5557 528.022 26.833 527.553 27.0464C527.094 27.249 526.588 27.3504 526.033 27.3504C525.638 27.3504 525.297 27.2917 525.009 27.1744C524.732 27.057 524.502 26.9077 524.321 26.7264C524.15 26.5237 524.006 26.2784 523.889 25.9904C523.782 25.7024 523.729 25.265 523.729 24.6784V18.9184H522.049V17.7824H531.441ZM528.529 17.7824C528.518 17.345 528.396 17.041 528.161 16.8704C527.937 16.6997 527.59 16.6144 527.121 16.6144H525.745C525.052 16.6144 524.513 16.5664 524.129 16.4704C523.756 16.3744 523.436 16.225 523.169 16.0224C522.881 15.809 522.662 15.537 522.513 15.2064C522.374 14.865 522.305 14.481 522.305 14.0544C522.305 13.9157 522.31 13.777 522.321 13.6384C522.342 13.4997 522.364 13.3504 522.385 13.1904L523.569 13.2704C523.548 13.3877 523.532 13.4997 523.521 13.6064C523.51 13.7024 523.505 13.8037 523.505 13.9104C523.505 14.145 523.526 14.353 523.569 14.5344C523.622 14.7157 523.702 14.865 523.809 14.9824C523.958 15.153 524.172 15.2864 524.449 15.3824C524.737 15.4677 525.142 15.5104 525.665 15.5104H526.113C526.294 15.5104 526.508 15.521 526.753 15.5424C526.998 15.5637 527.308 15.6117 527.681 15.6864C528.054 15.7504 528.518 15.8517 529.073 15.9904C529.254 16.161 529.398 16.3957 529.505 16.6944C529.612 16.9824 529.67 17.345 529.681 17.7824H528.529ZM522.369 17.7824V18.9184H520.689V27.7344H519.457V18.9184H517.793V17.7824H519.265C519.094 17.5797 518.918 17.3664 518.737 17.1424C518.566 16.9184 518.412 16.6944 518.273 16.4704C518.636 15.841 519.025 15.2704 519.441 14.7584C519.857 14.2357 520.348 13.825 520.913 13.5264C521.478 13.217 522.161 13.0624 522.961 13.0624C523.718 13.0624 524.417 13.1797 525.057 13.4144C525.708 13.649 526.353 13.985 526.993 14.4224C527.644 14.8597 528.337 15.3824 529.073 15.9904L528.433 16.7264C527.878 16.289 527.366 15.9157 526.897 15.6064C526.438 15.2864 526.006 15.025 525.601 14.8224C525.196 14.609 524.796 14.4544 524.401 14.3584C524.006 14.2517 523.59 14.1984 523.153 14.1984C522.566 14.1984 522.06 14.305 521.633 14.5184C521.206 14.721 520.833 15.009 520.513 15.3824C520.204 15.745 519.916 16.1664 519.649 16.6464C519.734 16.8064 519.852 16.9824 520.001 17.1744C520.15 17.3664 520.321 17.569 520.513 17.7824H522.369ZM540.197 17.7824V18.9184H538.517V27.7344H537.285V18.9184H535.621V17.7824H537.093C536.923 17.5797 536.747 17.3664 536.565 17.1424C536.395 16.9184 536.24 16.6944 536.101 16.4704C536.464 15.841 536.853 15.2704 537.269 14.7584C537.685 14.2357 538.176 13.825 538.741 13.5264C539.307 13.217 539.989 13.0624 540.789 13.0624C541.355 13.0624 541.893 13.1317 542.405 13.2704C542.928 13.409 543.44 13.6117 543.941 13.8784C544.443 14.1344 544.949 14.449 545.461 14.8224C545.973 15.185 546.507 15.5904 547.061 16.0384L546.389 16.9024C545.653 16.305 544.987 15.809 544.389 15.4144C543.803 15.0197 543.237 14.7264 542.693 14.5344C542.16 14.3317 541.589 14.2304 540.981 14.2304C540.395 14.2304 539.883 14.3317 539.445 14.5344C539.019 14.737 538.645 15.0197 538.325 15.3824C538.016 15.745 537.733 16.1664 537.477 16.6464C537.563 16.8064 537.68 16.9824 537.829 17.1744C537.979 17.3664 538.149 17.569 538.341 17.7824H540.197ZM553.103 17.7824V18.9184H547.903V19.9104V20.1664V27.7344H546.671C546.362 27.105 545.93 26.513 545.375 25.9584C544.821 25.4037 544.186 24.9397 543.471 24.5664C542.767 24.1824 542.026 23.9424 541.247 23.8464L540.623 22.3104C541.658 21.713 542.693 21.1797 543.727 20.7104C544.762 20.241 545.861 19.825 547.023 19.4624L546.671 20.1344V18.9184H539.871V17.7824H553.103ZM546.671 20.2624L547.007 20.7264C546.463 20.8757 545.898 21.073 545.311 21.3184C544.735 21.5637 544.17 21.8197 543.615 22.0864C543.071 22.353 542.57 22.6144 542.111 22.8704C542.709 22.9877 543.322 23.2117 543.951 23.5424C544.591 23.873 545.173 24.2784 545.695 24.7584C546.229 25.2277 546.623 25.7397 546.879 26.2944L546.751 26.3264C546.73 26.081 546.709 25.8357 546.687 25.5904C546.677 25.345 546.671 25.0517 546.671 24.7104V20.2624ZM552.207 23.1264C552.207 23.4784 552.138 23.8144 551.999 24.1344C551.861 24.4437 551.631 24.6997 551.311 24.9024C550.991 25.105 550.565 25.2064 550.031 25.2064C549.861 25.2064 549.695 25.201 549.535 25.1904C549.386 25.1797 549.237 25.1584 549.087 25.1264L549.183 23.9744C549.247 23.985 549.322 23.9957 549.407 24.0064C549.503 24.0064 549.61 24.0064 549.727 24.0064C550.239 24.0064 550.57 23.9104 550.719 23.7184C550.879 23.5157 550.959 23.2757 550.959 22.9984C550.959 22.433 550.682 21.953 550.127 21.5584C549.583 21.153 548.773 20.8757 547.695 20.7264L547.743 19.5264C548.565 19.6117 549.311 19.8197 549.983 20.1504C550.655 20.4704 551.194 20.8864 551.599 21.3984C552.005 21.8997 552.207 22.4757 552.207 23.1264ZM561.854 17.7824V18.9184H560.174V27.7344H558.942V18.9184H557.277V17.7824H558.75C558.579 17.5797 558.403 17.3664 558.222 17.1424C558.051 16.9184 557.896 16.6944 557.758 16.4704C558.12 15.841 558.51 15.2704 558.926 14.7584C559.342 14.2357 559.832 13.825 560.398 13.5264C560.963 13.217 561.646 13.0624 562.446 13.0624C563.011 13.0624 563.55 13.1317 564.062 13.2704C564.584 13.409 565.096 13.6117 565.598 13.8784C566.099 14.1344 566.606 14.449 567.118 14.8224C567.63 15.185 568.163 15.5904 568.718 16.0384L568.046 16.9024C567.31 16.305 566.643 15.809 566.046 15.4144C565.459 15.0197 564.894 14.7264 564.35 14.5344C563.816 14.3317 563.246 14.2304 562.638 14.2304C562.051 14.2304 561.539 14.3317 561.102 14.5344C560.675 14.737 560.302 15.0197 559.982 15.3824C559.672 15.745 559.39 16.1664 559.134 16.6464C559.219 16.8064 559.336 16.9824 559.486 17.1744C559.635 17.3664 559.806 17.569 559.998 17.7824H561.854ZM574.76 17.7824V18.9184H569.56V19.9104V20.1664V27.7344H568.328C568.018 27.105 567.586 26.513 567.032 25.9584C566.477 25.4037 565.842 24.9397 565.128 24.5664C564.424 24.1824 563.682 23.9424 562.904 23.8464L562.28 22.3104C563.314 21.713 564.349 21.1797 565.384 20.7104C566.418 20.241 567.517 19.825 568.68 19.4624L568.328 20.1344V18.9184H561.527V17.7824H574.76ZM568.328 20.2624L568.664 20.7264C568.12 20.8757 567.554 21.073 566.968 21.3184C566.392 21.5637 565.826 21.8197 565.272 22.0864C564.728 22.353 564.226 22.6144 563.768 22.8704C564.365 22.9877 564.978 23.2117 565.608 23.5424C566.248 23.873 566.829 24.2784 567.352 24.7584C567.885 25.2277 568.28 25.7397 568.536 26.2944L568.408 26.3264C568.386 26.081 568.365 25.8357 568.344 25.5904C568.333 25.345 568.328 25.0517 568.328 24.7104V20.2624ZM573.864 23.1264C573.864 23.4784 573.794 23.8144 573.656 24.1344C573.517 24.4437 573.288 24.6997 572.968 24.9024C572.648 25.105 572.221 25.2064 571.688 25.2064C571.517 25.2064 571.352 25.201 571.192 25.1904C571.042 25.1797 570.893 25.1584 570.744 25.1264L570.84 23.9744C570.904 23.985 570.978 23.9957 571.064 24.0064C571.16 24.0064 571.266 24.0064 571.384 24.0064C571.896 24.0064 572.226 23.9104 572.376 23.7184C572.536 23.5157 572.616 23.2757 572.616 22.9984C572.616 22.433 572.338 21.953 571.784 21.5584C571.24 21.153 570.429 20.8757 569.352 20.7264L569.4 19.5264C570.221 19.6117 570.968 19.8197 571.64 20.1504C572.312 20.4704 572.85 20.8864 573.256 21.3984C573.661 21.8997 573.864 22.4757 573.864 23.1264ZM584.418 17.7824V18.9184H582.738V27.7344H581.506V23.8464L581.762 24.7424C581.41 24.2517 581.026 23.809 580.61 23.4144C580.194 23.0197 579.767 22.705 579.33 22.4704C578.892 22.2357 578.466 22.1184 578.05 22.1184C577.655 22.1184 577.319 22.225 577.042 22.4384C576.775 22.641 576.642 22.945 576.642 23.3504C576.642 23.6704 576.754 23.9477 576.978 24.1824C577.202 24.4064 577.548 24.609 578.018 24.7904L577.41 25.9264C576.759 25.6597 576.247 25.3024 575.874 24.8544C575.511 24.3957 575.33 23.8784 575.33 23.3024C575.33 22.7797 575.452 22.3477 575.698 22.0064C575.954 21.6544 576.274 21.393 576.658 21.2224C577.052 21.0517 577.452 20.9664 577.858 20.9664C578.412 20.9664 578.919 21.0624 579.378 21.2544C579.836 21.4464 580.263 21.7077 580.658 22.0384C581.063 22.369 581.447 22.753 581.81 23.1904L581.586 23.2544C581.554 23.009 581.532 22.769 581.522 22.5344C581.511 22.289 581.506 22.0437 581.506 21.7984V18.9184H574.434V17.7824H584.418ZM593.946 17.7824V18.9184H592.266V27.7344H591.034C590.714 27.0944 590.271 26.5077 589.706 25.9744C589.151 25.4304 588.511 24.9717 587.786 24.5984C587.061 24.225 586.287 23.9744 585.466 23.8464L584.842 22.3104C585.866 21.6917 586.922 21.1317 588.01 20.6304C589.109 20.129 590.239 19.7024 591.402 19.3504L591.034 20.0224V18.9184H584.09V17.7824H593.946ZM591.034 20.1504L591.37 20.5984C590.559 20.865 589.706 21.1957 588.81 21.5904C587.914 21.9744 587.087 22.401 586.33 22.8704C586.906 22.9984 587.519 23.217 588.17 23.5264C588.821 23.8357 589.423 24.225 589.978 24.6944C590.533 25.1637 590.959 25.7077 591.258 26.3264H591.114C591.093 26.081 591.071 25.8357 591.05 25.5904C591.039 25.345 591.034 25.0517 591.034 24.7104V20.1504Z" fill="white"/>
<path d="M622.5 8.73438C622.5 4.59224 625.858 1.23438 630 1.23438H814C818.142 1.23438 821.5 4.59224 821.5 8.73438V35.7344C821.5 39.8765 818.142 43.2344 814 43.2344H630C625.858 43.2344 622.5 39.8765 622.5 35.7344V8.73438Z" fill="#2B2B2B"/>
<path d="M622.5 8.73438C622.5 4.59224 625.858 1.23438 630 1.23438H814C818.142 1.23438 821.5 4.59224 821.5 8.73438V35.7344C821.5 39.8765 818.142 43.2344 814 43.2344H630C625.858 43.2344 622.5 39.8765 622.5 35.7344V8.73438Z" stroke="#3BAFDA"/>
<path d="M639.008 27.7344C638.197 27.7344 637.472 27.5797 636.832 27.2704C636.192 26.961 635.691 26.513 635.328 25.9264C634.965 25.329 634.784 24.609 634.784 23.7664C634.784 22.913 635.019 22.1344 635.488 21.4304C635.968 20.7157 636.645 20.0544 637.52 19.4464C638.395 18.8277 639.429 18.2357 640.624 17.6704L641.248 18.5344C641.141 18.673 641.061 18.817 641.008 18.9664C640.965 19.1157 640.944 19.2704 640.944 19.4304C640.944 19.7397 641.067 19.9904 641.312 20.1824C641.568 20.3637 641.893 20.4544 642.288 20.4544C642.32 20.4544 642.357 20.4544 642.4 20.4544C642.443 20.4544 642.485 20.449 642.528 20.4384L643.056 21.3344C642.459 21.665 641.952 21.9797 641.536 22.2784C641.12 22.577 640.805 22.881 640.592 23.1904C640.379 23.4997 640.272 23.8357 640.272 24.1984C640.272 24.497 640.384 24.7797 640.608 25.0464C640.832 25.3024 641.253 25.4304 641.872 25.4304C641.979 25.4304 642.08 25.4304 642.176 25.4304C642.283 25.4197 642.373 25.409 642.448 25.3984L642.976 26.7584C642.443 27.0677 641.835 27.3077 641.152 27.4784C640.48 27.649 639.765 27.7344 639.008 27.7344ZM639.12 26.5984C639.461 26.5984 639.749 26.5877 639.984 26.5664C640.219 26.5344 640.443 26.497 640.656 26.4544C640.869 26.401 641.104 26.3424 641.36 26.2784L641.328 26.3104C640.549 26.2144 639.973 25.9744 639.6 25.5904C639.237 25.2064 639.056 24.737 639.056 24.1824C639.056 23.7664 639.147 23.3824 639.328 23.0304C639.52 22.6677 639.803 22.3157 640.176 21.9744C640.56 21.633 641.035 21.281 641.6 20.9184L641.568 21.3184C641.195 21.2757 640.88 21.1744 640.624 21.0144C640.379 20.8437 640.192 20.6357 640.064 20.3904C639.936 20.145 639.872 19.889 639.872 19.6224C639.872 19.505 639.883 19.393 639.904 19.2864C639.925 19.1797 639.957 19.0784 640 18.9824L640.144 19.2064C639.344 19.601 638.64 20.0437 638.032 20.5344C637.424 21.0144 636.944 21.537 636.592 22.1024C636.251 22.6677 636.08 23.2757 636.08 23.9264C636.08 24.5877 636.229 25.1157 636.528 25.5104C636.827 25.905 637.205 26.1877 637.664 26.3584C638.133 26.5184 638.619 26.5984 639.12 26.5984ZM661.457 17.7824V18.9184H654.977V24.4544C654.977 24.9237 655.003 25.2544 655.057 25.4464C655.11 25.6384 655.174 25.777 655.249 25.8624C655.441 26.0864 655.734 26.1984 656.129 26.1984C656.545 26.1984 656.939 26.097 657.313 25.8944C657.686 25.6917 658.011 25.441 658.289 25.1424C658.598 24.8117 658.833 24.4597 658.993 24.0864C659.163 23.713 659.249 23.3344 659.249 22.9504C659.249 22.609 659.163 22.353 658.993 22.1824C658.822 22.001 658.539 21.9104 658.145 21.9104C658.017 21.9104 657.878 21.921 657.729 21.9424C657.579 21.9637 657.435 21.9904 657.297 22.0224L657.121 20.8864C657.323 20.833 657.531 20.7904 657.745 20.7584C657.969 20.7264 658.203 20.7104 658.449 20.7104C658.843 20.7104 659.195 20.785 659.505 20.9344C659.814 21.0837 660.054 21.3184 660.225 21.6384C660.406 21.9584 660.497 22.3744 660.497 22.8864C660.497 23.5157 660.342 24.129 660.033 24.7264C659.723 25.313 659.334 25.809 658.865 26.2144C658.47 26.5557 658.038 26.833 657.569 27.0464C657.11 27.249 656.603 27.3504 656.049 27.3504C655.654 27.3504 655.313 27.2917 655.025 27.1744C654.747 27.057 654.518 26.9077 654.337 26.7264C654.166 26.5237 654.022 26.2784 653.905 25.9904C653.798 25.7024 653.745 25.265 653.745 24.6784V18.9184H652.065V17.7824H661.457ZM658.545 17.7824C658.534 17.345 658.411 17.041 658.177 16.8704C657.953 16.6997 657.606 16.6144 657.137 16.6144H655.761C655.067 16.6144 654.529 16.5664 654.145 16.4704C653.771 16.3744 653.451 16.225 653.185 16.0224C652.897 15.809 652.678 15.537 652.529 15.2064C652.39 14.865 652.321 14.481 652.321 14.0544C652.321 13.9157 652.326 13.777 652.337 13.6384C652.358 13.4997 652.379 13.3504 652.401 13.1904L653.585 13.2704C653.563 13.3877 653.547 13.4997 653.537 13.6064C653.526 13.7024 653.521 13.8037 653.521 13.9104C653.521 14.145 653.542 14.353 653.585 14.5344C653.638 14.7157 653.718 14.865 653.825 14.9824C653.974 15.153 654.187 15.2864 654.465 15.3824C654.753 15.4677 655.158 15.5104 655.681 15.5104H656.129C656.31 15.5104 656.523 15.521 656.769 15.5424C657.014 15.5637 657.323 15.6117 657.697 15.6864C658.07 15.7504 658.534 15.8517 659.089 15.9904C659.27 16.161 659.414 16.3957 659.521 16.6944C659.627 16.9824 659.686 17.345 659.697 17.7824H658.545ZM652.385 17.7824V18.9184H650.705V27.7344H649.473V18.9184H647.809V17.7824H649.281C649.11 17.5797 648.934 17.3664 648.753 17.1424C648.582 16.9184 648.427 16.6944 648.289 16.4704C648.651 15.841 649.041 15.2704 649.457 14.7584C649.873 14.2357 650.363 13.825 650.929 13.5264C651.494 13.217 652.177 13.0624 652.977 13.0624C653.734 13.0624 654.433 13.1797 655.073 13.4144C655.723 13.649 656.369 13.985 657.009 14.4224C657.659 14.8597 658.353 15.3824 659.089 15.9904L658.449 16.7264C657.894 16.289 657.382 15.9157 656.913 15.6064C656.454 15.2864 656.022 15.025 655.617 14.8224C655.211 14.609 654.811 14.4544 654.417 14.3584C654.022 14.2517 653.606 14.1984 653.169 14.1984C652.582 14.1984 652.075 14.305 651.649 14.5184C651.222 14.721 650.849 15.009 650.529 15.3824C650.219 15.745 649.931 16.1664 649.665 16.6464C649.75 16.8064 649.867 16.9824 650.017 17.1744C650.166 17.3664 650.337 17.569 650.529 17.7824H652.385ZM671.493 17.7824V18.9184H671.173C670.842 18.993 670.485 19.1584 670.101 19.4144C669.717 19.6597 669.354 19.985 669.013 20.3904C668.672 20.785 668.389 21.249 668.165 21.7824C667.952 22.3157 667.845 22.9024 667.845 23.5424C667.845 24.3104 667.957 24.9237 668.181 25.3824C668.416 25.8304 668.704 26.1504 669.045 26.3424C669.386 26.5344 669.728 26.6304 670.069 26.6304C670.336 26.6304 670.56 26.6037 670.741 26.5504C670.922 26.497 671.13 26.401 671.365 26.2624L671.925 27.2384C671.648 27.4517 671.344 27.601 671.013 27.6864C670.682 27.7717 670.346 27.8144 670.005 27.8144C669.333 27.8144 668.741 27.6384 668.229 27.2864C667.717 26.9344 667.312 26.4437 667.013 25.8144C666.725 25.1744 666.581 24.4277 666.581 23.5744C666.581 22.753 666.709 22.0224 666.965 21.3824C667.232 20.7317 667.573 20.1664 667.989 19.6864C668.416 19.2064 668.874 18.8117 669.365 18.5024C669.856 18.1824 670.33 17.9424 670.789 17.7824H671.493ZM682.4 17.7824V18.9184H680.72V27.7344H679.488V22.0864L679.856 23.0944C679.525 22.657 679.237 22.321 678.992 22.0864C678.757 21.8517 678.528 21.7344 678.304 21.7344C678.155 21.7344 678.016 21.777 677.888 21.8624C677.76 21.9477 677.616 22.113 677.456 22.3584C677.296 22.593 677.083 22.9557 676.816 23.4464C676.528 23.969 676.267 24.401 676.032 24.7424C675.797 25.073 675.547 25.3184 675.28 25.4784C675.024 25.6277 674.709 25.7024 674.336 25.7024C674.048 25.7024 673.771 25.6437 673.504 25.5264C673.248 25.409 672.987 25.217 672.72 24.9504C672.464 24.673 672.187 24.2997 671.888 23.8304L672.864 23.2384C673.152 23.7504 673.392 24.0864 673.584 24.2464C673.776 24.4064 673.984 24.4864 674.208 24.4864C674.389 24.4864 674.56 24.433 674.72 24.3264C674.891 24.209 675.072 24.0117 675.264 23.7344C675.467 23.457 675.696 23.0784 675.952 22.5984L676.32 22.0704C676.597 21.4944 676.864 21.0997 677.12 20.8864C677.376 20.6624 677.659 20.5504 677.968 20.5504C678.32 20.5504 678.635 20.6517 678.912 20.8544C679.2 21.0464 679.531 21.345 679.904 21.7504L679.584 21.7664C679.541 21.521 679.515 21.2917 679.504 21.0784C679.493 20.8544 679.488 20.6304 679.488 20.4064V18.9184H671.168V17.7824H682.4ZM675.664 23.3984C675.557 22.673 675.445 22.097 675.328 21.6704C675.221 21.2437 675.029 20.913 674.752 20.6784C674.485 20.433 674.123 20.2517 673.664 20.1344C673.205 20.0064 672.629 19.8997 671.936 19.8144L672.176 18.5984L673.04 18.9184C673.648 19.0144 674.155 19.137 674.56 19.2864C674.965 19.4357 675.291 19.633 675.536 19.8784C675.792 20.113 675.984 20.4064 676.112 20.7584C676.24 21.1104 676.325 21.537 676.368 22.0384L675.664 23.3984ZM691.93 17.7824V18.9184H690.25V27.7344H689.018C688.698 27.0944 688.256 26.5077 687.69 25.9744C687.136 25.4304 686.496 24.9717 685.77 24.5984C685.045 24.225 684.272 23.9744 683.45 23.8464L682.826 22.3104C683.85 21.6917 684.906 21.1317 685.994 20.6304C687.093 20.129 688.224 19.7024 689.386 19.3504L689.018 20.0224V18.9184H682.074V17.7824H691.93ZM689.018 20.1504L689.354 20.5984C688.544 20.865 687.69 21.1957 686.794 21.5904C685.898 21.9744 685.072 22.401 684.314 22.8704C684.89 22.9984 685.504 23.217 686.154 23.5264C686.805 23.8357 687.408 24.225 687.962 24.6944C688.517 25.1637 688.944 25.7077 689.242 26.3264H689.098C689.077 26.081 689.056 25.8357 689.034 25.5904C689.024 25.345 689.018 25.0517 689.018 24.7104V20.1504ZM685.194 27.8304C684.928 27.8304 684.698 27.745 684.506 27.5744C684.325 27.4037 684.234 27.1797 684.234 26.9024C684.234 26.625 684.325 26.3957 684.506 26.2144C684.698 26.033 684.928 25.9424 685.194 25.9424C685.461 25.9424 685.685 26.033 685.866 26.2144C686.058 26.3957 686.154 26.625 686.154 26.9024C686.154 27.1797 686.058 27.4037 685.866 27.5744C685.685 27.745 685.461 27.8304 685.194 27.8304ZM696.182 17.7824V18.9184H694.502V27.7344H693.27V20.2304C693.142 19.8677 692.95 19.5584 692.694 19.3024C692.448 19.0464 692.128 18.9184 691.734 18.9184H691.606V17.7824H691.846C692.102 17.7824 692.368 17.8677 692.646 18.0384C692.923 18.1984 693.147 18.449 693.318 18.7904C693.307 18.737 693.296 18.6144 693.286 18.4224C693.275 18.2304 693.27 18.065 693.27 17.9264V16.7264H694.134L694.486 17.7824H696.182ZM703.524 25.7024C703.236 25.7024 702.958 25.6437 702.692 25.5264C702.436 25.409 702.174 25.217 701.908 24.9504C701.652 24.673 701.374 24.2997 701.076 23.8304L702.052 23.2384C702.34 23.7504 702.58 24.0864 702.772 24.2464C702.964 24.4064 703.172 24.4864 703.396 24.4864C703.577 24.4864 703.748 24.433 703.908 24.3264C704.078 24.209 704.26 24.0117 704.452 23.7344C704.654 23.457 704.884 23.0784 705.14 22.5984L705.508 22.0704C705.796 21.473 706.062 21.073 706.308 20.8704C706.564 20.657 706.846 20.5504 707.156 20.5504C707.508 20.5504 707.822 20.6517 708.1 20.8544C708.388 21.0464 708.718 21.345 709.092 21.7504L709.14 22.2464L709.028 23.0624C708.708 22.6464 708.425 22.321 708.18 22.0864C707.945 21.8517 707.716 21.7344 707.492 21.7344C707.342 21.7344 707.204 21.777 707.076 21.8624C706.948 21.9477 706.804 22.113 706.644 22.3584C706.484 22.593 706.27 22.9557 706.004 23.4464C705.716 23.969 705.454 24.401 705.22 24.7424C704.985 25.073 704.734 25.3184 704.468 25.4784C704.212 25.6277 703.897 25.7024 703.524 25.7024ZM704.852 23.3984C704.745 22.673 704.633 22.097 704.516 21.6704C704.409 21.2437 704.217 20.913 703.94 20.6784C703.673 20.433 703.31 20.2517 702.852 20.1344C702.393 20.0064 701.817 19.8997 701.124 19.8144L701.364 18.5984L702.228 18.9184C702.836 19.0144 703.342 19.137 703.748 19.2864C704.153 19.4357 704.478 19.633 704.724 19.8784C704.98 20.113 705.172 20.4064 705.3 20.7584C705.428 21.1104 705.513 21.537 705.556 22.0384L704.852 23.3984ZM716.404 17.7824V18.9184H709.924V24.4544C709.924 24.9237 709.95 25.2544 710.004 25.4464C710.057 25.6384 710.121 25.777 710.196 25.8624C710.388 26.0864 710.676 26.1984 711.06 26.1984C711.486 26.1984 711.886 26.097 712.26 25.8944C712.633 25.6917 712.958 25.441 713.236 25.1424C713.545 24.8117 713.78 24.4597 713.94 24.0864C714.11 23.713 714.196 23.3344 714.196 22.9504C714.196 22.609 714.11 22.353 713.94 22.1824C713.769 22.001 713.486 21.9104 713.092 21.9104C712.964 21.9104 712.825 21.921 712.676 21.9424C712.526 21.9637 712.382 21.9904 712.244 22.0224L712.068 20.8864C712.27 20.833 712.478 20.7904 712.692 20.7584C712.916 20.7264 713.15 20.7104 713.396 20.7104C713.79 20.7104 714.142 20.785 714.452 20.9344C714.761 21.0837 715.001 21.3184 715.172 21.6384C715.353 21.9584 715.444 22.3744 715.444 22.8864C715.444 23.5157 715.289 24.129 714.98 24.7264C714.67 25.313 714.281 25.809 713.812 26.2144C713.417 26.5557 712.985 26.833 712.516 27.0464C712.057 27.249 711.55 27.3504 710.996 27.3504C710.601 27.3504 710.26 27.2917 709.972 27.1744C709.694 27.057 709.465 26.9077 709.284 26.7264C709.113 26.5237 708.969 26.2784 708.852 25.9904C708.745 25.7024 708.692 25.265 708.692 24.6784V22.3424L708.756 21.7664C708.734 21.5744 708.718 21.3717 708.708 21.1584C708.697 20.9344 708.692 20.6837 708.692 20.4064V18.9184H700.356V17.7824H716.404ZM713.492 17.7824C713.481 17.345 713.374 17.0304 713.172 16.8384C712.98 16.6464 712.66 16.5504 712.212 16.5504H710.708C710.014 16.5504 709.476 16.5024 709.092 16.4064C708.718 16.3104 708.398 16.161 708.132 15.9584C707.844 15.745 707.625 15.473 707.476 15.1424C707.337 14.801 707.268 14.417 707.268 13.9904C707.268 13.8517 707.273 13.7184 707.284 13.5904C707.305 13.4517 707.326 13.3024 707.348 13.1424L708.532 13.2224C708.51 13.3397 708.494 13.4464 708.484 13.5424C708.473 13.6277 708.468 13.7237 708.468 13.8304C708.468 14.065 708.489 14.273 708.532 14.4544C708.585 14.6357 708.665 14.785 708.772 14.9024C708.921 15.073 709.134 15.201 709.412 15.2864C709.7 15.361 710.105 15.3984 710.628 15.3984H711.876C712.441 15.3984 712.889 15.441 713.22 15.5264C713.55 15.6117 713.833 15.7664 714.068 15.9904C714.249 16.161 714.388 16.3957 714.484 16.6944C714.58 16.9824 714.633 17.345 714.644 17.7824H713.492ZM729.322 17.7824V18.9184H724.122V19.9104V20.1664V27.7344H722.89C722.581 27.105 722.149 26.513 721.594 25.9584C721.039 25.4037 720.405 24.9397 719.69 24.5664C718.986 24.1824 718.245 23.9424 717.466 23.8464L716.842 22.3104C717.877 21.713 718.911 21.1797 719.946 20.7104C720.981 20.241 722.079 19.825 723.242 19.4624L722.89 20.1344V18.9184H716.09V17.7824H729.322ZM722.89 20.2624L723.226 20.7264C722.682 20.8757 722.117 21.073 721.53 21.3184C720.954 21.5637 720.389 21.8197 719.834 22.0864C719.29 22.353 718.789 22.6144 718.33 22.8704C718.927 22.9877 719.541 23.2117 720.17 23.5424C720.81 23.873 721.391 24.2784 721.914 24.7584C722.447 25.2277 722.842 25.7397 723.098 26.2944L722.97 26.3264C722.949 26.081 722.927 25.8357 722.906 25.5904C722.895 25.345 722.89 25.0517 722.89 24.7104V20.2624ZM728.426 23.1264C728.426 23.4784 728.357 23.8144 728.218 24.1344C728.079 24.4437 727.85 24.6997 727.53 24.9024C727.21 25.105 726.783 25.2064 726.25 25.2064C726.079 25.2064 725.914 25.201 725.754 25.1904C725.605 25.1797 725.455 25.1584 725.306 25.1264L725.402 23.9744C725.466 23.985 725.541 23.9957 725.626 24.0064C725.722 24.0064 725.829 24.0064 725.946 24.0064C726.458 24.0064 726.789 23.9104 726.938 23.7184C727.098 23.5157 727.178 23.2757 727.178 22.9984C727.178 22.433 726.901 21.953 726.346 21.5584C725.802 21.153 724.991 20.8757 723.914 20.7264L723.962 19.5264C724.783 19.6117 725.53 19.8197 726.202 20.1504C726.874 20.4704 727.413 20.8864 727.818 21.3984C728.223 21.8997 728.426 22.4757 728.426 23.1264ZM741.832 17.6864C742.27 17.6864 742.632 17.7344 742.92 17.8304C743.219 17.9157 743.47 18.049 743.672 18.2304C743.875 18.401 744.035 18.6144 744.152 18.8704C744.27 19.1157 744.328 19.457 744.328 19.8944V27.7344H743.128C743.043 27.4144 742.92 27.153 742.76 26.9504C742.6 26.7477 742.403 26.5984 742.168 26.5024C741.944 26.3957 741.672 26.3424 741.352 26.3424C740.968 26.3424 740.611 26.3637 740.28 26.4064C739.95 26.449 739.603 26.497 739.24 26.5504C738.888 26.593 738.478 26.6144 738.008 26.6144C737.646 26.6144 737.256 26.577 736.84 26.5024C736.424 26.417 736.03 26.2624 735.656 26.0384C735.283 25.8144 734.979 25.4837 734.744 25.0464C734.51 24.5984 734.392 24.0117 734.392 23.2864C734.392 23.0304 734.414 22.7637 734.456 22.4864C734.499 22.1984 734.542 21.937 734.584 21.7024L735.816 21.8784C735.774 22.0384 735.731 22.2304 735.688 22.4544C735.656 22.6784 735.64 22.945 735.64 23.2544C735.64 23.7237 735.71 24.1024 735.848 24.3904C735.987 24.6784 736.174 24.897 736.408 25.0464C736.643 25.1957 736.904 25.297 737.192 25.3504C737.48 25.4037 737.774 25.4304 738.072 25.4304C738.606 25.4304 739.091 25.3877 739.528 25.3024C739.976 25.2064 740.478 25.1584 741.032 25.1584C741.491 25.1584 741.891 25.2277 742.232 25.3664C742.574 25.4944 742.862 25.7184 743.096 26.0384V20.3264C743.096 19.9317 743.07 19.649 743.016 19.4784C742.963 19.3077 742.878 19.169 742.76 19.0624C742.568 18.9024 742.275 18.8224 741.88 18.8224C741.496 18.8224 741.128 18.9077 740.776 19.0784C740.435 19.249 740.126 19.4677 739.848 19.7344C739.582 20.001 739.368 20.289 739.208 20.5984C739.059 20.897 738.984 21.1797 738.984 21.4464C738.984 21.553 739.006 21.665 739.048 21.7824C739.091 21.8997 739.182 22.001 739.32 22.0864C739.459 22.1717 739.662 22.2144 739.928 22.2144C740.046 22.2144 740.158 22.209 740.264 22.1984C740.371 22.1877 740.483 22.177 740.6 22.1664L740.712 23.2864C740.606 23.329 740.462 23.361 740.28 23.3824C740.11 23.4037 739.907 23.4144 739.672 23.4144C739.15 23.4144 738.691 23.2544 738.296 22.9344C737.912 22.6144 737.72 22.1237 737.72 21.4624C737.72 21.0357 737.827 20.6037 738.04 20.1664C738.264 19.7184 738.568 19.3077 738.952 18.9344C739.336 18.561 739.774 18.2624 740.264 18.0384C740.766 17.8037 741.288 17.6864 741.832 17.6864ZM755.477 17.7824V18.9184H753.797V27.7344H752.565C752.245 27.0944 751.803 26.5077 751.237 25.9744C750.683 25.4304 750.043 24.9717 749.317 24.5984C748.592 24.225 747.819 23.9744 746.997 23.8464L746.373 22.3104C747.397 21.6917 748.453 21.1317 749.541 20.6304C750.64 20.129 751.771 19.7024 752.933 19.3504L752.565 20.0224V18.9184H745.621V17.7824H755.477ZM752.565 20.1504L752.901 20.5984C752.091 20.865 751.237 21.1957 750.341 21.5904C749.445 21.9744 748.619 22.401 747.861 22.8704C748.437 22.9984 749.051 23.217 749.701 23.5264C750.352 23.8357 750.955 24.225 751.509 24.6944C752.064 25.1637 752.491 25.7077 752.789 26.3264H752.645C752.624 26.081 752.603 25.8357 752.581 25.5904C752.571 25.345 752.565 25.0517 752.565 24.7104V20.1504ZM748.741 27.8304C748.475 27.8304 748.245 27.745 748.053 27.5744C747.872 27.4037 747.781 27.1797 747.781 26.9024C747.781 26.625 747.872 26.3957 748.053 26.2144C748.245 26.033 748.475 25.9424 748.741 25.9424C749.008 25.9424 749.232 26.033 749.413 26.2144C749.605 26.3957 749.701 26.625 749.701 26.9024C749.701 27.1797 749.605 27.4037 749.413 27.5744C749.232 27.745 749.008 27.8304 748.741 27.8304ZM769.637 17.7824V18.9184H767.957V27.7344H766.725V23.8464L766.981 24.7424C766.629 24.2517 766.245 23.809 765.829 23.4144C765.413 23.0197 764.986 22.705 764.549 22.4704C764.111 22.2357 763.685 22.1184 763.269 22.1184C762.874 22.1184 762.538 22.225 762.261 22.4384C761.994 22.641 761.861 22.945 761.861 23.3504C761.861 23.6704 761.973 23.9477 762.197 24.1824C762.421 24.4064 762.767 24.609 763.237 24.7904L762.629 25.9264C761.978 25.6597 761.466 25.3024 761.093 24.8544C760.73 24.3957 760.549 23.8784 760.549 23.3024C760.549 22.7797 760.671 22.3477 760.917 22.0064C761.173 21.6544 761.493 21.393 761.877 21.2224C762.271 21.0517 762.671 20.9664 763.077 20.9664C763.631 20.9664 764.138 21.0624 764.597 21.2544C765.055 21.4464 765.482 21.7077 765.877 22.0384C766.282 22.369 766.666 22.753 767.029 23.1904L766.805 23.2544C766.773 23.009 766.751 22.769 766.741 22.5344C766.73 22.289 766.725 22.0437 766.725 21.7984V18.9184H759.652V17.7824H769.637ZM773.885 17.7824V18.9184H772.205V27.7344H770.973V20.2304C770.845 19.8677 770.653 19.5584 770.397 19.3024C770.151 19.0464 769.831 18.9184 769.437 18.9184H769.309V17.7824H769.549C769.805 17.7824 770.071 17.8677 770.349 18.0384C770.626 18.1984 770.85 18.449 771.021 18.7904C771.01 18.737 770.999 18.6144 770.989 18.4224C770.978 18.2304 770.973 18.065 770.973 17.9264V16.7264H771.837L772.189 17.7824H773.885ZM783.831 17.7824V18.9184H782.151V27.7344H780.919V25.5744L781.207 26.4224C780.833 25.857 780.455 25.3344 780.071 24.8544C779.697 24.3744 779.297 23.985 778.871 23.6864C778.455 23.3877 777.996 23.2384 777.495 23.2384C777.1 23.2384 776.764 23.3397 776.487 23.5424C776.22 23.745 776.087 24.049 776.087 24.4544C776.087 24.8064 776.215 25.105 776.471 25.3504C776.727 25.585 777.105 25.7877 777.607 25.9584L777.207 27.1904C776.631 26.9877 776.161 26.7424 775.799 26.4544C775.447 26.1664 775.185 25.8517 775.015 25.5104C774.855 25.1584 774.775 24.7904 774.775 24.4064C774.775 23.8944 774.897 23.4677 775.143 23.1264C775.399 22.785 775.719 22.529 776.103 22.3584C776.497 22.177 776.892 22.0864 777.287 22.0864C777.927 22.0864 778.487 22.2037 778.967 22.4384C779.457 22.673 779.884 22.9877 780.247 23.3824C780.62 23.777 780.956 24.2197 781.255 24.7104L780.983 24.7584C780.961 24.513 780.945 24.2677 780.935 24.0224C780.924 23.7664 780.919 23.505 780.919 23.2384V18.9184H773.559V17.7824H783.831ZM778.503 22.5664C778.503 22.6304 778.497 22.6944 778.487 22.7584C778.487 22.8224 778.481 22.8864 778.471 22.9504L777.255 22.5824C777.233 21.9637 777.127 21.4677 776.935 21.0944C776.743 20.721 776.439 20.4384 776.023 20.2464C775.607 20.0437 775.041 19.905 774.327 19.8304L774.535 18.6784L775.271 18.8864C775.783 18.929 776.236 19.0357 776.631 19.2064C777.036 19.3664 777.377 19.5957 777.655 19.8944C777.932 20.193 778.14 20.5664 778.279 21.0144C778.428 21.4517 778.503 21.969 778.503 22.5664ZM797.868 17.7824V18.9184H796.188V27.7344H794.956C794.636 27.0944 794.193 26.5077 793.628 25.9744C793.073 25.4304 792.433 24.9717 791.708 24.5984C790.983 24.225 790.209 23.9744 789.388 23.8464L788.764 22.3104C789.788 21.6917 790.844 21.1317 791.932 20.6304C793.031 20.129 794.161 19.7024 795.324 19.3504L794.956 20.0224V18.9184H788.012V17.7824H797.868ZM794.956 20.1504L795.292 20.5984C794.481 20.865 793.628 21.1957 792.732 21.5904C791.836 21.9744 791.009 22.401 790.252 22.8704C790.828 22.9984 791.441 23.217 792.092 23.5264C792.743 23.8357 793.345 24.225 793.9 24.6944C794.455 25.1637 794.881 25.7077 795.18 26.3264H795.036C795.015 26.081 794.993 25.8357 794.972 25.5904C794.961 25.345 794.956 25.0517 794.956 24.7104V20.1504ZM809.559 17.7824V18.9184H807.879V27.7344H806.647V22.3744L806.743 22.7904C806.508 22.449 806.258 22.177 805.991 21.9744C805.735 21.7717 805.452 21.6704 805.143 21.6704C804.983 21.6704 804.818 21.7024 804.647 21.7664C804.487 21.8197 804.348 21.9264 804.231 22.0864C804.124 22.2464 804.071 22.4917 804.071 22.8224C804.071 22.9397 804.071 23.0464 804.071 23.1424C804.082 23.2277 804.092 23.313 804.103 23.3984L803.063 23.4784C803.02 23.041 802.903 22.673 802.711 22.3744C802.519 22.065 802.284 21.8304 802.007 21.6704C801.73 21.5104 801.431 21.4304 801.111 21.4304C800.823 21.4304 800.578 21.489 800.375 21.6064C800.172 21.713 800.018 21.8624 799.911 22.0544C799.804 22.2357 799.751 22.4437 799.751 22.6784C799.751 23.105 799.906 23.4677 800.215 23.7664C800.535 24.065 800.983 24.3157 801.559 24.5184L801.127 25.7024C800.615 25.5424 800.156 25.3237 799.751 25.0464C799.346 24.769 799.026 24.4277 798.791 24.0224C798.556 23.617 798.439 23.1477 798.439 22.6144C798.439 22.1344 798.556 21.7237 798.791 21.3824C799.026 21.0304 799.34 20.7584 799.735 20.5664C800.13 20.3744 800.562 20.2784 801.031 20.2784C801.596 20.2784 802.082 20.385 802.487 20.5984C802.892 20.801 803.266 21.1317 803.607 21.5904L803.367 21.6064C803.474 21.2544 803.676 20.9877 803.975 20.8064C804.284 20.6144 804.604 20.5184 804.935 20.5184C805.319 20.5184 805.65 20.593 805.927 20.7424C806.204 20.8917 806.508 21.105 806.839 21.3824L806.695 21.6224C806.684 21.3984 806.674 21.1744 806.663 20.9504C806.652 20.7264 806.647 20.497 806.647 20.2624V18.9184H797.543V17.7824H809.559Z" fill="white"/>
</svg>
